# Blender v2.79 (sub 6) OBJ File: ''
# www.blender.org
mtllib 01.mtl
o Plane.001_Plane.003
v -1.000000 0.000000 1.000000
v 1.000000 0.000000 1.000000
v -1.000000 0.000000 -1.000000
v 1.000000 0.000000 -1.000000
v -0.600000 0.000000 1.000000
v -0.200000 0.000000 1.000000
v 0.200000 0.000000 1.000000
v 0.600000 0.000000 1.000000
v 0.600000 0.000000 -1.000000
v 0.200000 0.000000 -1.000000
v -0.200000 0.000000 -1.000000
v -0.600000 0.000000 -1.000000
v -1.000000 2.000000 -1.000000
v -1.000000 2.000000 1.000000
v 0.600000 1.565852 1.000000
v 1.000000 0.997702 1.000000
v 1.000000 0.997702 -1.000000
v -0.600000 2.175689 -1.000000
v -0.600000 2.175689 1.000000
v -0.200000 1.816224 1.000000
v 0.200000 1.402275 1.000000
v 0.600000 1.565852 -1.000000
v 0.200000 1.402275 -1.000000
v -0.200000 1.816224 -1.000000
vt 0.800000 0.000000
vt 0.800000 1.000000
vt 1.000000 1.000000
vt 1.000000 0.000000
vt 0.000000 0.000000
vt 0.000000 1.000000
vt 0.200000 1.000000
vt 0.200000 0.000000
vt 0.400000 1.000000
vt 0.400000 0.000000
vt 0.600000 1.000000
vt 0.600000 0.000000
vt 0.800000 0.000000
vt 1.000000 0.000000
vt 1.000000 1.000000
vt 0.800000 1.000000
vt 0.000000 0.000000
vt 0.200000 0.000000
vt 0.200000 1.000000
vt 0.000000 1.000000
vt 0.400000 0.000000
vt 0.400000 1.000000
vt 0.600000 0.000000
vt 0.600000 1.000000
vn 0.0000 -1.0000 0.0000
vn 0.8177 0.5757 0.0000
vn -0.4021 0.9156 0.0000
vn 0.6684 0.7438 0.0000
vn 0.7191 0.6949 0.0000
vn -0.3785 0.9256 0.0000
vn 0.0000 0.0000 1.0000
vn 1.0000 0.0000 0.0000
vn 0.0000 0.0000 -1.0000
vn -1.0000 0.0000 0.0000
usemtl None
s off
f 8/1/1 9/2/1 4/3/1 2/4/1
f 1/5/1 3/6/1 12/7/1 5/8/1
f 5/8/1 12/7/1 11/9/1 6/10/1
f 6/10/1 11/9/1 10/11/1 7/12/1
f 7/12/1 10/11/1 9/2/1 8/1/1
f 15/13/2 16/14/2 17/15/2 22/16/2
f 14/17/3 19/18/3 18/19/3 13/20/3
f 19/18/4 20/21/4 24/22/4 18/19/4
f 20/21/5 21/23/5 23/24/5 24/22/5
f 21/23/6 15/13/6 22/16/6 23/24/6
f 5/8/7 6/10/7 20/21/7 19/18/7
f 2/4/8 4/3/8 17/15/8 16/14/8
f 9/2/9 10/11/9 23/24/9 22/16/9
f 6/10/7 7/12/7 21/23/7 20/21/7
f 12/7/9 3/6/9 13/20/9 18/19/9
f 10/11/9 11/9/9 24/22/9 23/24/9
f 3/6/10 1/5/10 14/17/10 13/20/10
f 7/12/7 8/1/7 15/13/7 21/23/7
f 1/5/7 5/8/7 19/18/7 14/17/7
f 11/9/9 12/7/9 18/19/9 24/22/9
f 8/1/7 2/4/7 16/14/7 15/13/7
f 4/3/9 9/2/9 22/16/9 17/15/9
