# Blender v2.79 (sub 0) OBJ File: ''
# www.blender.org
mtllib 869260-03B.mtl
o Cylinder
v -0.065721 -0.051319 -1.186222
v -0.065721 1.948681 -0.186148
v 0.641386 -0.051319 -0.893330
v -0.065794 1.948681 -0.186222
v 0.934279 -0.051319 -0.186223
v 0.641386 -0.051319 0.520884
v -0.065721 1.948681 -0.186295
v -0.065721 -0.051319 0.813777
v -0.772828 -0.051319 0.520884
v -0.065648 1.948681 -0.186222
v -1.065722 -0.051319 -0.186223
v -0.772828 -0.051319 -0.893330
v -0.065721 -0.051319 -0.186223
vn 0.3474 0.4194 -0.8387
vn 0.3476 0.4188 -0.8389
vn 0.8387 0.4194 -0.3474
vn 0.8387 0.4194 0.3474
vn 0.3474 0.4194 0.8387
vn 0.3470 0.4194 0.8389
vn -0.3474 0.4194 0.8387
vn -0.8387 0.4194 0.3474
vn 0.0006 1.0000 0.0004
vn -0.0003 1.0000 -0.0009
vn -0.0004 1.0000 -0.0002
vn -0.8387 0.4194 -0.3474
vn -0.3474 0.4194 -0.8387
vn 0.0000 -1.0000 -0.0000
vn 0.0000 1.0000 0.0000
usemtl Material.001
s 1
f 1//1 4//2 3//1
f 3//3 4//3 5//3
f 5//4 4//4 6//4
f 6//5 7//6 8//5
f 8//7 7//7 9//7
f 9//8 10//8 11//8
f 4//9 10//10 7//11
f 11//12 2//12 12//12
f 12//13 2//13 1//13
f 13//14 6//14 8//14
f 2//15 10//10 4//9
f 13//14 9//14 11//14
f 12//14 13//14 11//14
f 3//14 13//14 1//14
f 13//14 5//14 6//14
f 13//14 8//14 9//14
f 12//14 1//14 13//14
f 3//14 5//14 13//14
