v 0 -6.123234263e-17 -1
vn 0 0.5428887606 -0.8398046494
v 0.7071070075 -4.329781625e-17 -0.7071070075
vn 0.2626127899 0.9284767509 -0.2626127899
v 1 0 0
vn 0.8398046494 0.5428887606 -2.571160074e-17
v 0.7071070075 4.329781625e-17 0.7071070075
vn 0.4999999106 0.7071068883 0.4999999106
v 0 6.123234263e-17 1
vn 2.332438893e-17 0.8043046594 0.5942171216
v 0 2 5.343781637e-24
vn 3.925229756e-17 1 1.72722558e-17
v -0.7071070075 4.329781625e-17 0.7071070075
vn -0.3922321796 0.8320503831 0.3922321796
v -1 0 0
vn -0.5942171216 0.8043046594 5.13173629e-18
v -0.7071070075 -4.329781625e-17 -0.7071070075
vn -0.4999999106 0.7071068883 -0.4999999106
# mm_gid 0
g mmGroup0
f 2//2 6//6 3//3 
f 4//4 3//3 6//6 
f 5//5 4//4 6//6 
f 7//7 5//5 6//6 
f 8//8 7//7 6//6 
f 9//9 8//8 6//6 
f 6//6 1//1 9//9 
f 6//6 2//2 1//1 
f 2//2 1//1 9//9 
f 2//2 9//9 8//8 
f 2//2 8//8 7//7 
f 2//2 7//7 5//5 
f 2//2 5//5 4//4 
f 2//2 4//4 3//3 
