# 3ds Max Wavefront OBJ Exporter v0.97b - (c)2007 guruware
# File Created: 06.10.2018 19:41:34

mtllib 873257-03A.mtl

#
# object object006
#

v  -4.8965 0.0000 13.7330
v  -5.9079 0.0000 13.7339
v  -5.9079 2.0000 13.7339
v  -5.2008 2.0000 14.0268
v  -4.8974 0.0000 14.7339
v  -4.9079 2.0000 14.7339
v  -4.8965 0.0000 15.7340
v  -5.2008 2.0000 15.4410
v  -5.9079 0.0000 15.7339
v  -5.9079 2.0000 15.7339
v  -6.9025 0.0000 15.7338
v  -6.6150 2.0000 15.4410
v  -6.8986 0.0000 14.7339
v  -6.9079 2.0000 14.7339
v  -5.9079 2.0000 14.7339
v  -6.9025 0.0000 13.7330
v  -6.6150 2.0000 14.0268
v  -5.9079 0.0000 14.7339
# 18 vertices

vn 0.3827 0.0000 -0.9239
vn 0.9239 0.0000 -0.3827
vn 0.9239 0.0000 0.3827
vn 0.3827 0.0000 0.9239
vn -0.3827 0.0000 0.9239
vn -0.9239 0.0000 0.3827
vn 0.0000 1.0000 -0.0000
vn -0.9239 0.0000 -0.3827
vn -0.3827 0.0000 -0.9239
vn 0.0000 -1.0000 -0.0000
# 10 vertex normals

g object006
usemtl Material_001
s off
f 1//1 2//1 3//1 4//1 
f 5//2 1//2 4//2 6//2 
f 7//3 5//3 6//3 8//3 
f 9//4 7//4 8//4 10//4 
f 11//5 9//5 10//5 12//5 
f 13//6 11//6 12//6 14//6 
f 12//7 10//7 15//7 14//7 
f 16//8 13//8 14//8 17//8 
f 2//9 16//9 17//9 3//9 
f 7//10 9//10 18//10 5//10 
f 15//7 3//7 17//7 14//7 
f 8//7 6//7 15//7 10//7 
f 15//7 6//7 4//7 3//7 
f 11//10 13//10 18//10 9//10 
f 18//10 13//10 16//10 2//10 
f 18//10 2//10 1//10 5//10 
# 16 polygons

