# 3ds Max Wavefront OBJ Exporter v0.97b - (c)2007 guruware
# File Created: 06.10.2018 19:03:59

mtllib 873257-02A.mtl

#
# object object_004
#

v  -4.5304 1.2021 27.7260
v  -4.2716 2.0289 27.4670
v  -4.2716 2.0289 27.0931
v  -4.5304 1.2021 26.8343
v  -3.8976 2.0289 27.0931
v  -4.1868 2.5886 27.1777
v  -3.9824 2.5934 27.1779
v  -3.6387 1.2021 26.8343
v  -3.8976 2.0289 27.4670
v  -3.6387 1.2021 27.7260
v  -3.9824 2.5934 27.3822
v  -4.1868 2.5934 27.3822
v  -3.0846 0.0000 26.2785
v  -3.0846 0.0000 28.2785
v  -5.0846 0.0000 28.2785
v  -5.0846 0.0000 26.2785
# 16 vertices

vn -1.0000 0.0000 -0.0000
vn 0.0000 0.0000 -1.0000
vn 1.0000 0.0000 -0.0000
vn 0.0000 0.0000 1.0000
vn 0.0000 -1.0000 -0.0000
vn 0.0000 1.0000 -0.0000
# 6 vertex normals

g object_004
usemtl None
s off
f 1//1 2//1 3//1 4//1 
f 5//2 3//2 6//2 7//2 
f 8//3 5//3 9//3 10//3 
f 2//4 9//4 11//4 12//4 
f 13//3 8//3 10//3 14//3 
f 15//5 16//5 13//5 14//5 
f 9//3 5//3 7//3 11//3 
f 15//1 1//1 4//1 16//1 
f 3//1 2//1 12//1 6//1 
f 15//4 14//4 10//4 1//4 
f 1//4 10//4 9//4 2//4 
f 13//2 16//2 4//2 8//2 
f 8//2 4//2 3//2 5//2 
f 11//6 7//6 6//6 12//6 
# 14 polygons

