# 3ds Max Wavefront OBJ Exporter v0.97b - (c)2007 guruware
# File Created: 06.10.2018 19:26:50

mtllib 873257-03B.mtl

#
# object object004
#

v  9.4121 0.0000 -0.7071
v  8.7050 0.0000 -1.0000
v  8.7050 2.0000 -0.0000
v  9.7050 0.0000 -0.0000
v  9.4121 0.0000 0.7071
v  8.7050 2.0000 0.0000
v  8.7050 0.0000 1.0000
v  7.9979 0.0000 0.7071
v  7.7050 0.0000 -0.0000
v  7.9979 0.0000 -0.7071
v  8.7050 0.0000 -0.0000
# 11 vertices

vn 0.3827 0.0000 -0.9239
vn 0.9239 0.0000 -0.3827
vn 0.9239 0.0000 0.3827
vn 0.3827 0.0000 0.9239
vn -0.3827 0.0000 0.9239
vn -0.9239 0.0000 0.3827
vn 0.0000 1.0000 -0.0000
vn -0.9239 0.0000 -0.3827
vn -0.3827 0.0000 -0.9239
vn 0.0000 -1.0000 -0.0000
# 10 vertex normals

g object004
usemtl Material_001
s off
f 1//1 2//1 3//1 3//1 
f 4//2 1//2 3//2 3//2 
f 5//3 4//3 3//3 6//3 
f 7//4 5//4 6//4 6//4 
f 8//5 7//5 6//5 6//5 
f 9//6 8//6 6//6 3//6 
f 6//7 6//7 3//7 3//7 
f 10//8 9//8 3//8 3//8 
f 2//9 10//9 3//9 3//9 
f 5//10 7//10 11//10 4//10 
f 3//7 3//7 3//7 3//7 
f 6//7 3//7 3//7 6//7 
f 3//7 3//7 3//7 3//7 
f 8//10 9//10 11//10 7//10 
f 11//10 9//10 10//10 2//10 
f 11//10 2//10 1//10 4//10 
# 16 polygons

