# 3ds Max Wavefront OBJ Exporter v0.97b - (c)2007 guruware
# File Created: 06.10.2018 19:05:40

mtllib 873257-02B.mtl

#
# object object_006
#

v  3.7874 0.4869 28.3654
v  3.7874 0.9472 28.1082
v  3.7874 0.9472 27.8647
v  3.7874 0.4869 27.6075
v  5.7874 0.9507 27.8647
v  3.7874 1.6143 27.8647
v  5.7874 1.6101 27.8724
v  5.7874 0.4986 27.6075
v  5.7874 0.9507 28.1082
v  5.7874 0.4986 28.3654
v  5.7874 1.6101 28.1005
v  3.7874 1.6143 28.1082
v  5.7874 0.0000 26.9865
v  5.7874 0.0000 28.9865
v  3.7874 0.0000 28.9865
v  3.7874 0.0000 26.9865
# 16 vertices

vn -1.0000 0.0000 -0.0000
vn 0.0000 0.0000 -1.0000
vn 1.0000 0.0000 -0.0000
vn 0.0000 0.0000 1.0000
vn 0.0000 -1.0000 -0.0000
vn 0.0000 1.0000 -0.0000
# 6 vertex normals

g object_006
usemtl None
s off
f 1//1 2//1 3//1 4//1 
f 5//2 3//2 6//2 7//2 
f 8//3 5//3 9//3 10//3 
f 2//4 9//4 11//4 12//4 
f 13//3 8//3 10//3 14//3 
f 15//5 16//5 13//5 14//5 
f 9//3 5//3 7//3 11//3 
f 15//1 1//1 4//1 16//1 
f 3//1 2//1 12//1 6//1 
f 15//4 14//4 10//4 1//4 
f 1//4 10//4 9//4 2//4 
f 13//2 16//2 4//2 8//2 
f 8//2 4//2 3//2 5//2 
f 11//6 7//6 6//6 12//6 
# 14 polygons

