# 3ds Max Wavefront OBJ Exporter v0.97b - (c)2007 guruware
# File Created: 16.10.2018 19:17:06

mtllib 886396_01B.mtl

#
# object default
#

v  0.5650 0.0000 1.2701
v  0.1650 0.0000 1.2701
v  0.1650 0.0000 -0.7299
v  0.5650 0.0000 -0.7299
v  -1.0350 0.0000 1.2701
v  -1.4350 0.0000 1.2701
v  -1.4350 0.0000 -0.7299
v  -1.0350 0.0000 -0.7299
v  -0.6350 0.0000 1.2701
v  -0.6350 0.0000 -0.7299
v  -0.2350 0.0000 1.2701
v  -0.2350 0.0000 -0.7299
v  -0.6350 1.6013 1.2701
v  -1.0355 1.8005 1.2701
v  0.5650 0.9977 1.2701
v  0.5650 0.9977 -0.7299
v  -0.2350 1.4023 -0.7299
v  0.1650 1.1981 -0.7299
v  -0.2350 1.4023 1.2701
v  -1.4350 2.0000 -0.7299
v  -1.0350 1.8006 -0.7299
v  -0.6350 1.6013 -0.7299
v  -1.4350 2.0000 1.2701
v  0.1650 1.1975 1.2701
# 24 vertices

vn 0.0000 -1.0000 -0.0000
vn 0.0000 0.0000 1.0000
vn 1.0000 0.0000 -0.0000
vn -0.0000 -0.0000 -1.0000
vn 0.0000 0.0000 -1.0000
vn 0.0000 -0.0000 -1.0000
vn -1.0000 0.0000 -0.0000
# 7 vertex normals

vt 1.0000 0.0000 0.0000
vt 0.8000 0.0000 0.0000
vt 0.8000 1.0000 0.0000
vt 1.0000 1.0000 0.0000
vt 0.2000 0.0000 0.0000
vt 0.0000 0.0000 0.0000
vt 0.0000 1.0000 0.0000
vt 0.2000 1.0000 0.0000
vt 0.4000 0.0000 0.0000
vt 0.4000 1.0000 0.0000
vt 0.6000 0.0000 0.0000
vt 0.6000 1.0000 0.0000
# 12 texture coords

g default
usemtl _01None
s off
f 1/1/1 2/2/1 3/3/1 4/4/1 
f 5/5/1 6/6/1 7/7/1 8/8/1 
f 9/9/1 5/5/1 8/8/1 10/10/1 
f 11/11/1 9/9/1 10/10/1 12/12/1 
f 2/2/1 11/11/1 12/12/1 3/3/1 
f 13/9/2 14/5/2 5/5/2 9/9/2 
f 15/1/3 1/1/3 4/4/3 16/4/3 
f 17/12/4 18/3/4 3/3/4 12/12/4 
f 19/11/2 13/9/2 9/9/2 11/11/2 
f 20/7/5 21/8/5 8/8/5 7/7/5 
f 17/12/6 12/12/6 10/10/6 22/10/6 
f 20/7/7 7/7/7 6/6/7 23/6/7 
f 19/11/2 11/11/2 2/2/2 24/2/2 
f 23/6/2 6/6/2 5/5/2 14/5/2 
f 22/10/4 10/10/4 8/8/4 21/8/4 
f 15/1/2 24/2/2 2/2/2 1/1/2 
f 16/4/6 4/4/6 3/3/6 18/3/6 
# 17 polygons

#
# object default001
#

v  -0.2350 1.3986 -0.7255
v  -0.2350 1.3986 1.2655
v  -0.6350 1.5991 1.2655
v  -0.6350 1.5991 -0.7255
v  0.5650 0.9977 -0.7255
v  0.5650 0.9977 1.2655
v  0.1650 1.1982 1.2655
v  0.1650 1.1982 -0.7255
v  -1.4350 2.0000 1.2655
v  -1.4350 2.0000 -0.7255
v  -1.0350 1.7995 -0.7255
v  -1.0350 1.7995 1.2655
# 12 vertices

vn -0.6711 -0.7414 0.0000
# 1 vertex normals

vt 0.3200 0.0000 0.0000
vt 0.8800 0.6000 0.0000
vt 0.9200 0.4000 0.0000
vt 0.4800 0.0000 0.0000
vt 0.0000 0.0000 0.0000
vt 0.8000 1.0000 0.0000
vt 0.8400 0.8000 0.0000
vt 0.1600 0.0000 0.0000
vt 1.0000 0.0000 0.0000
vt 0.8000 0.0000 0.0000
vt 0.6400 0.0000 0.0000
vt 0.9600 0.2000 0.0000
# 12 texture coords

g default001
usemtl _01None
s 1
f 25/13/8 26/14/8 27/15/8 28/16/8 
f 29/17/8 30/18/8 31/19/8 32/20/8 
f 32/20/8 31/19/8 26/14/8 25/13/8 
f 33/21/8 34/22/8 35/23/8 36/24/8 
f 36/24/8 35/23/8 28/16/8 27/15/8 
# 5 polygons

