# 3ds Max Wavefront OBJ Exporter v0.97b - (c)2007 guruware
# File Created: 04.10.2018 12:33:28

mtllib 886410_02B.mtl

#
# object default
#

v  -3.7131 1.2733 -5.2853
v  -3.7131 0.7267 -5.4153
v  -3.7131 0.7417 -4.6750
v  -3.7131 1.2733 -4.8500
v  -3.7454 1.9950 -5.1802
v  -1.7131 2.0000 -4.9804
v  -1.7131 1.3833 -5.0554
v  -1.7131 1.3733 -4.7550
v  -1.7131 0.6767 -4.5551
v  -1.7131 0.6867 -5.2553
v  -1.7131 2.0000 -4.7750
v  -3.7131 2.0050 -4.9350
v  -1.7131 0.0000 -3.9602
v  -1.7131 0.0000 -5.9602
v  -3.7131 0.0000 -3.9602
v  -3.7131 0.0000 -5.9602
# 16 vertices

vn -1.0000 0.0000 -0.0000
vn 0.0000 0.0000 -1.0000
vn 1.0000 0.0000 -0.0000
vn 0.0000 0.0000 1.0000
vn 0.0000 -1.0000 -0.0000
vn 0.0000 1.0000 -0.0000
# 6 vertex normals

g default
usemtl _02None
s off
f 1//1 2//1 3//1 4//1 
f 5//2 6//2 7//2 1//2 
f 8//3 9//3 10//3 7//3 
f 11//4 12//4 4//4 8//4 
f 9//3 13//3 14//3 10//3 
f 14//5 13//5 15//5 16//5 
f 6//3 11//3 8//3 7//3 
f 2//1 16//1 15//1 3//1 
f 12//1 5//1 1//1 4//1 
f 9//4 3//4 15//4 13//4 
f 8//4 4//4 3//4 9//4 
f 2//2 10//2 14//2 16//2 
f 1//2 7//2 10//2 2//2 
f 5//6 12//6 11//6 6//6 
# 14 polygons

