# 3ds Max Wavefront OBJ Exporter v0.97b - (c)2007 guruware
# File Created: 09.10.2018 23:53:26

mtllib 886467_01A.mtl

#
# object default
#

v  0.7545 0.0000 -1.3430
v  1.1545 0.0000 -1.3430
v  1.1545 0.0000 0.6570
v  0.7545 0.0000 0.6570
v  -0.8455 0.0000 -1.3430
v  -0.4455 0.0000 -1.3430
v  -0.4455 0.0000 0.6570
v  -0.8455 0.0000 0.6570
v  -0.0455 0.0000 -1.3430
v  -0.0455 0.0000 0.6570
v  0.3545 0.0000 -1.3430
v  0.3545 0.0000 0.6570
v  1.1545 0.9977 0.6570
v  1.1545 0.9977 -1.3430
v  0.7545 1.5659 -1.3430
v  0.7545 1.5659 0.6570
v  -0.4455 2.1757 0.6570
v  -0.4455 2.1757 -1.3430
v  -0.8455 2.0000 -1.3430
v  -0.8455 2.0000 0.6570
v  -0.0455 1.8162 0.6570
v  -0.0455 0.7127 -1.3430
v  0.3545 1.4023 0.6570
v  0.3545 0.2988 -1.3430
# 24 vertices

vn 0.0000 -1.0000 -0.0000
vn 0.8177 0.5757 -0.0000
vn -0.4021 0.9156 -0.0000
vn 0.6684 0.7438 -0.0000
vn 0.7191 0.6949 -0.0000
vn -0.3785 0.9256 -0.0000
vn 0.0000 0.0000 1.0000
vn 1.0000 0.0000 -0.0000
vn 0.0000 0.0000 -1.0000
vn -1.0000 0.0000 -0.0000
# 10 vertex normals

vt 0.8000 1.0000 0.0000
vt 1.0000 1.0000 0.0000
vt 1.0000 0.0000 0.0000
vt 0.8000 0.0000 0.0000
vt 0.0000 1.0000 0.0000
vt 0.2000 1.0000 0.0000
vt 0.2000 0.0000 0.0000
vt 0.0000 0.0000 0.0000
vt 0.4000 1.0000 0.0000
vt 0.4000 0.0000 0.0000
vt 0.6000 1.0000 0.0000
vt 0.6000 0.0000 0.0000
# 12 texture coords

g default
usemtl _01None
s off
f 1/1/1 2/2/1 3/3/1 4/4/1 
f 5/5/1 6/6/1 7/7/1 8/8/1 
f 6/6/1 9/9/1 10/10/1 7/7/1 
f 9/9/1 11/11/1 12/12/1 10/10/1 
f 11/11/1 1/1/1 4/4/1 12/12/1 
f 13/3/2 14/2/2 15/1/2 16/4/2 
f 17/7/3 18/6/3 19/5/3 20/8/3 
f 21/10/4 22/9/4 18/6/4 17/7/4 
f 23/12/5 24/11/5 22/9/5 21/10/5 
f 16/4/6 15/1/6 24/11/6 23/12/6 
f 7/7/7 10/10/7 21/10/7 17/7/7 
f 2/2/8 14/2/8 13/3/8 3/3/8 
f 1/1/9 11/11/9 24/11/9 15/1/9 
f 10/10/7 12/12/7 23/12/7 21/10/7 
f 6/6/9 5/5/9 19/5/9 18/6/9 
f 9/9/9 22/9/9 24/11/9 11/11/9 
f 8/8/10 20/8/10 19/5/10 5/5/10 
f 4/4/7 16/4/7 23/12/7 12/12/7 
f 7/7/7 17/7/7 20/8/7 8/8/7 
f 6/6/9 18/6/9 22/9/9 9/9/9 
f 4/4/7 3/3/7 13/3/7 16/4/7 
f 1/1/9 15/1/9 14/2/9 2/2/9 
# 22 polygons

#
# object Object002
#

v  0.7545 0.0000 -5.0225
v  1.1545 0.0000 -5.0225
v  1.1545 0.0000 -3.0225
v  0.7545 0.0000 -3.0225
v  -0.8455 0.0000 -5.0225
v  -0.4455 0.0000 -5.0225
v  -0.4455 0.0000 -3.0225
v  -0.8455 0.0000 -3.0225
v  -0.0455 0.0000 -5.0225
v  -0.0455 0.0000 -3.0225
v  0.3545 0.0000 -5.0225
v  0.3545 0.0000 -3.0225
v  1.1545 1.0000 -3.0000
v  1.1545 1.0000 -5.0000
v  0.7545 1.0000 -5.0225
v  0.7545 1.0000 -3.0225
v  -0.4455 1.0000 -3.0225
v  -0.4455 1.0000 -5.0225
v  -0.8455 1.0000 -5.0225
v  -0.8455 1.0000 -3.0225
v  -0.0455 1.0000 -3.0225
v  -0.0455 1.0000 -5.0225
v  0.3545 1.0000 -3.0225
v  0.3545 1.0000 -5.0225
# 24 vertices

vn 0.0000 -1.0000 -0.0000
vn 0.0000 1.0000 -0.0000
vn 0.0000 0.0000 1.0000
vn 1.0000 0.0000 -0.0000
vn 0.0000 0.0000 -1.0000
vn -1.0000 0.0000 -0.0000
vn -0.0281 -0.0112 0.9995
vn 0.0281 0.0112 -0.9995
# 8 vertex normals

vt 0.8000 1.0000 0.0000
vt 1.0000 1.0000 0.0000
vt 1.0000 0.0000 0.0000
vt 0.8000 0.0000 0.0000
vt 0.0000 1.0000 0.0000
vt 0.2000 1.0000 0.0000
vt 0.2000 0.0000 0.0000
vt 0.0000 0.0000 0.0000
vt 0.4000 1.0000 0.0000
vt 0.4000 0.0000 0.0000
vt 0.6000 1.0000 0.0000
vt 0.6000 0.0000 0.0000
# 12 texture coords

g Object002
usemtl _01None
s off
f 25/13/11 26/14/11 27/15/11 28/16/11 
f 29/17/11 30/18/11 31/19/11 32/20/11 
f 30/18/11 33/21/11 34/22/11 31/19/11 
f 33/21/11 35/23/11 36/24/11 34/22/11 
f 35/23/11 25/13/11 28/16/11 36/24/11 
f 37/15/12 38/14/12 39/13/12 40/16/12 
f 41/19/12 42/18/12 43/17/12 44/20/12 
f 45/22/12 46/21/12 42/18/12 41/19/12 
f 47/24/12 48/23/12 46/21/12 45/22/12 
f 40/16/12 39/13/12 48/23/12 47/24/12 
f 31/19/13 34/22/13 45/22/13 41/19/13 
f 26/14/14 38/14/14 37/15/14 27/15/14 
f 25/13/15 35/23/15 48/23/15 39/13/15 
f 34/22/13 36/24/13 47/24/13 45/22/13 
f 30/18/15 29/17/15 43/17/15 42/18/15 
f 33/21/15 46/21/15 48/23/15 35/23/15 
f 32/20/16 44/20/16 43/17/16 29/17/16 
f 28/16/13 40/16/13 47/24/13 36/24/13 
f 31/19/13 41/19/13 44/20/13 32/20/13 
f 30/18/15 42/18/15 46/21/15 33/21/15 
f 28/16/17 27/15/17 37/15/17 40/16/17 
f 25/13/18 39/13/18 38/14/18 26/14/18 
# 22 polygons

