# 3ds Max Wavefront OBJ Exporter v0.97b - (c)2007 guruware
# File Created: 10.10.2018 00:14:36

mtllib 886467_02A.mtl

#
# object default
#

v  -1.3058 2.1597 0.2753
v  -1.4161 1.1978 0.0878
v  -1.4161 1.1978 0.8378
v  -1.3058 2.1597 0.6503
v  -1.3067 2.8152 0.3222
v  -1.0255 2.8152 0.3222
v  -0.9308 2.1597 0.2753
v  -0.9308 2.1597 0.6503
v  -0.6661 1.1978 0.8378
v  -0.6661 1.1978 0.0878
v  -1.0255 2.8152 0.6035
v  -1.3067 2.8152 0.6035
v  0.2925 0.0214 1.4628
v  0.2925 0.0214 -0.5372
v  -1.7075 0.0214 1.4628
v  -1.7075 0.0214 -0.5372
# 16 vertices

vn -1.0000 0.0000 -0.0000
vn 0.0000 0.0000 -1.0000
vn 1.0000 0.0000 -0.0000
vn 0.0000 0.0000 1.0000
vn 0.0000 -1.0000 -0.0000
vn 0.0000 1.0000 -0.0000
# 6 vertex normals

g default
usemtl _02None
s off
f 1//1 2//1 3//1 4//1 
f 5//2 6//2 7//2 1//2 
f 8//3 9//3 10//3 7//3 
f 11//4 12//4 4//4 8//4 
f 9//3 13//3 14//3 10//3 
f 14//5 13//5 15//5 16//5 
f 6//3 11//3 8//3 7//3 
f 2//1 16//1 15//1 3//1 
f 12//1 5//1 1//1 4//1 
f 9//4 3//4 15//4 13//4 
f 8//4 4//4 3//4 9//4 
f 2//2 10//2 14//2 16//2 
f 1//2 7//2 10//2 2//2 
f 5//6 12//6 11//6 6//6 
# 14 polygons

