# 3ds Max Wavefront OBJ Exporter v0.97b - (c)2007 guruware
# File Created: 10.10.2018 00:20:19

mtllib 886467_03B.mtl

#
# object default
#

v  0.0000 2.0000 -0.0000
v  0.7071 0.0000 -0.7071
v  0.0000 0.0000 -1.0000
v  1.0000 0.0000 -0.0000
v  0.7071 0.0000 0.7071
v  0.0000 0.0000 1.0000
v  -0.7071 0.0000 0.7071
v  -1.0000 0.0000 -0.0000
v  -0.7071 0.0000 -0.7071
v  0.0000 0.0000 -0.0000
# 10 vertices

vn 0.3827 0.0000 -0.9239
vn 0.9239 0.0000 -0.3827
vn 0.9239 0.0000 0.3827
vn 0.3827 0.0000 0.9239
vn -0.3827 0.0000 0.9239
vn -0.9239 0.0000 0.3827
vn 0.0000 1.0000 -0.0000
vn -0.9239 0.0000 -0.3827
vn -0.3827 0.0000 -0.9239
vn 0.0000 -1.0000 -0.0000
# 10 vertex normals

g default
usemtl _03Material_001
s off
f 1//1 1//1 2//1 3//1 
f 1//2 1//2 4//2 2//2 
f 1//3 1//3 5//3 4//3 
f 1//4 1//4 6//4 5//4 
f 1//5 1//5 7//5 6//5 
f 1//6 1//6 8//6 7//6 
f 1//7 1//7 1//7 1//7 
f 1//8 1//8 9//8 8//8 
f 1//9 1//9 3//9 9//9 
f 10//10 4//10 5//10 6//10 
f 1//7 1//7 1//7 1//7 
f 1//7 1//7 1//7 1//7 
f 1//7 1//7 1//7 1//7 
f 10//10 6//10 7//10 8//10 
f 9//10 3//10 10//10 8//10 
f 2//10 4//10 10//10 3//10 
# 16 polygons

