# 3ds Max Wavefront OBJ Exporter v0.97b - (c)2007 guruware
# File Created: 10.10.2018 00:15:37

mtllib 886467_02B.mtl

#
# object default
#

v  -1.0357 1.3333 -0.3650
v  -1.0357 0.6667 -0.3650
v  -1.0357 0.6667 1.6350
v  -1.0357 1.3333 1.6350
v  -1.0357 2.0000 -0.3650
v  0.9643 2.0000 -0.3650
v  0.9643 1.3333 -0.3650
v  0.9643 1.3333 1.6350
v  0.9643 0.6667 1.6350
v  0.9643 0.6667 -0.3650
v  0.9643 2.0000 1.6350
v  -1.0357 2.0000 1.6350
v  0.9643 0.0000 1.6350
v  0.9643 0.0000 -0.3650
v  -1.0357 0.0000 1.6350
v  -1.0357 0.0000 -0.3650
# 16 vertices

vn -1.0000 0.0000 -0.0000
vn 0.0000 0.0000 -1.0000
vn 1.0000 0.0000 -0.0000
vn 0.0000 0.0000 1.0000
vn 0.0000 -1.0000 -0.0000
vn 0.0000 1.0000 -0.0000
# 6 vertex normals

g default
usemtl _02None
s off
f 1//1 2//1 3//1 4//1 
f 5//2 6//2 7//2 1//2 
f 8//3 9//3 10//3 7//3 
f 11//4 12//4 4//4 8//4 
f 9//3 13//3 14//3 10//3 
f 14//5 13//5 15//5 16//5 
f 6//3 11//3 8//3 7//3 
f 2//1 16//1 15//1 3//1 
f 12//1 5//1 1//1 4//1 
f 9//4 3//4 15//4 13//4 
f 8//4 4//4 3//4 9//4 
f 2//2 10//2 14//2 16//2 
f 1//2 7//2 10//2 2//2 
f 5//6 12//6 11//6 6//6 
# 14 polygons

#
# object default001
#

v  -0.1357 1.3333 -3.9535
v  -0.5357 0.6667 -3.9535
v  -0.5357 0.6667 -1.9535
v  -0.1357 1.3333 -1.9535
v  -0.1357 2.0000 -3.9535
v  0.0643 2.0000 -3.9535
v  0.0643 1.3333 -3.9535
v  0.0643 1.3333 -1.9535
v  0.4643 0.6667 -1.9535
v  0.4643 0.6667 -3.9535
v  0.0643 2.0000 -1.9535
v  -0.1357 2.0000 -1.9535
v  0.9643 0.0000 -1.9535
v  0.9643 0.0000 -3.9535
v  -1.0357 0.0000 -1.9535
v  -1.0357 0.0000 -3.9535
# 16 vertices

vn -1.0000 0.0000 -0.0000
vn 0.0000 0.0000 -1.0000
vn 1.0000 0.0000 -0.0000
vn 0.0000 0.0000 1.0000
vn 0.0000 -1.0000 -0.0000
vn 0.0000 1.0000 -0.0000
# 6 vertex normals

g default001
usemtl _02None
s off
f 17//7 18//7 19//7 20//7 
f 21//8 22//8 23//8 17//8 
f 24//9 25//9 26//9 23//9 
f 27//10 28//10 20//10 24//10 
f 25//9 29//9 30//9 26//9 
f 30//11 29//11 31//11 32//11 
f 22//9 27//9 24//9 23//9 
f 18//7 32//7 31//7 19//7 
f 28//7 21//7 17//7 20//7 
f 25//10 19//10 31//10 29//10 
f 24//10 20//10 19//10 25//10 
f 18//8 26//8 30//8 32//8 
f 17//8 23//8 26//8 18//8 
f 21//12 28//12 27//12 22//12 
# 14 polygons

