# Blender v2.79 (sub 0) OBJ File: 'Oggetto 1.blend'
# www.blender.org
mtllib 889399-01A.mtl
o Plane.001_Plane.003
v 0.600000 -0.000000 1.000000
v 0.600000 0.000000 -1.000000
v 1.000000 0.000000 -1.000000
v 1.000000 -0.000000 1.000000
v -1.000000 -0.000000 1.000000
v -1.000000 0.000000 -1.000000
v -0.600000 0.000000 -1.000000
v -0.600000 -0.000000 1.000000
v -0.200000 0.000000 -1.000000
v -0.200000 -0.000000 1.000000
v 0.200000 0.000000 -1.000000
v 0.200000 -0.000000 1.000000
v 0.600000 1.659624 1.000000
v 1.000000 1.659624 1.000000
v 1.000000 1.659624 -1.000000
v 0.600000 1.659624 -1.000000
v -1.000000 1.659624 1.000000
v -0.600000 1.659624 1.000000
v -0.600000 1.659624 -1.000000
v -1.000000 1.659624 -1.000000
v -0.200000 1.659624 1.000000
v -0.200000 1.659624 -1.000000
v 0.200000 1.659624 1.000000
v 0.200000 1.659624 -1.000000
vt 0.800000 0.000000
vt 0.800000 1.000000
vt 1.000000 1.000000
vt 1.000000 0.000000
vt 0.000000 0.000000
vt 0.000000 1.000000
vt 0.200000 1.000000
vt 0.200000 0.000000
vt 0.400000 1.000000
vt 0.400000 0.000000
vt 0.600000 1.000000
vt 0.600000 0.000000
vt 0.800000 0.000000
vt 1.000000 0.000000
vt 1.000000 1.000000
vt 0.800000 1.000000
vt 0.000000 0.000000
vt 0.200000 0.000000
vt 0.200000 1.000000
vt 0.000000 1.000000
vt 0.400000 0.000000
vt 0.400000 1.000000
vt 0.600000 0.000000
vt 0.600000 1.000000
vn 0.0000 -1.0000 -0.0000
vn 0.0000 1.0000 0.0000
vn -0.0000 -0.0000 1.0000
vn 1.0000 -0.0000 0.0000
vn 0.0000 0.0000 -1.0000
vn -1.0000 0.0000 0.0000
usemtl None
s 1
f 1/1/1 2/2/1 3/3/1 4/4/1
f 5/5/1 6/6/1 7/7/1 8/8/1
f 8/8/1 7/7/1 9/9/1 10/10/1
f 10/10/1 9/9/1 11/11/1 12/12/1
f 12/12/1 11/11/1 2/2/1 1/1/1
f 13/13/2 14/14/2 15/15/2 16/16/2
f 17/17/2 18/18/2 19/19/2 20/20/2
f 18/18/2 21/21/2 22/22/2 19/19/2
f 21/21/2 23/23/2 24/24/2 22/22/2
f 23/23/2 13/13/2 16/16/2 24/24/2
f 8/8/3 10/10/3 21/21/3 18/18/3
f 4/4/4 3/3/4 15/15/4 14/14/4
f 2/2/5 11/11/5 24/24/5 16/16/5
f 10/10/3 12/12/3 23/23/3 21/21/3
f 7/7/5 6/6/5 20/20/5 19/19/5
f 11/11/5 9/9/5 22/22/5 24/24/5
f 6/6/6 5/5/6 17/17/6 20/20/6
f 12/12/3 1/1/3 13/13/3 23/23/3
f 5/5/3 8/8/3 18/18/3 17/17/3
f 9/9/5 7/7/5 19/19/5 22/22/5
f 1/1/3 4/4/3 14/14/3 13/13/3
f 3/3/5 2/2/5 16/16/5 15/15/5
