# 3ds Max Wavefront OBJ Exporter v0.97b - (c)2007 guruware
# File Created: 13.10.2018 19:11:45

mtllib 891271-01A.mtl

#
# object default
#

v  1.0000 0.0000 2.2355
v  0.6000 0.0000 2.2355
v  0.6000 0.0000 0.2355
v  1.0000 0.0000 0.2355
v  -0.6000 0.0000 2.2355
v  -1.0000 0.0000 2.2355
v  -1.0000 0.0000 0.2355
v  -0.6000 0.0000 0.2355
v  -0.2000 0.0000 2.2355
v  -0.2000 0.0000 0.2355
v  0.2000 0.0000 2.2355
v  0.2000 0.0000 0.2355
v  0.6156 1.6918 0.2721
v  0.6156 1.6918 2.2721
v  1.0000 1.6918 2.2637
v  1.0000 1.6918 0.2637
v  -0.9844 1.6918 0.2439
v  -0.9844 1.6918 2.2439
v  -0.5844 1.6918 2.2439
v  -0.5844 1.6918 0.2439
v  -0.1844 1.6918 2.2439
v  -0.1844 1.6918 0.2439
v  0.2156 1.6918 2.2439
v  0.2156 1.6918 0.2439
# 24 vertices

vn 0.0000 -1.0000 -0.0000
vn 0.0000 1.0000 -0.0000
vn 0.0000 -0.0050 1.0000
vn 1.0000 0.0000 -0.0000
vn 0.0352 0.0130 -0.9993
vn 0.0000 0.0050 -1.0000
vn -1.0000 0.0092 -0.0000
vn -0.0352 -0.0130 0.9993
vn 0.0107 -0.0192 0.9998
vn -0.0107 0.0192 -0.9998
# 10 vertex normals

vt 1.0000 0.0000 0.0000
vt 0.8000 0.0000 0.0000
vt 0.8000 1.0000 0.0000
vt 1.0000 1.0000 0.0000
vt 0.2000 0.0000 0.0000
vt 0.0000 0.0000 0.0000
vt 0.0000 1.0000 0.0000
vt 0.2000 1.0000 0.0000
vt 0.4000 0.0000 0.0000
vt 0.4000 1.0000 0.0000
vt 0.6000 0.0000 0.0000
vt 0.6000 1.0000 0.0000
# 12 texture coords

g default
usemtl None
s off
f 1/1/1 2/2/1 3/3/1 4/4/1 
f 5/5/1 6/6/1 7/7/1 8/8/1 
f 9/9/1 5/5/1 8/8/1 10/10/1 
f 11/11/1 9/9/1 10/10/1 12/12/1 
f 2/2/1 11/11/1 12/12/1 3/3/1 
f 13/3/2 14/2/2 15/1/2 16/4/2 
f 17/7/2 18/6/2 19/5/2 20/8/2 
f 20/8/2 19/5/2 21/9/2 22/10/2 
f 22/10/2 21/9/2 23/11/2 24/12/2 
f 24/12/2 23/11/2 14/2/2 13/3/2 
f 21/9/3 19/5/3 5/5/3 9/9/3 
f 15/1/4 1/1/4 4/4/4 16/4/4 
f 24/12/5 13/3/5 3/3/5 12/12/5 
f 23/11/3 21/9/3 9/9/3 11/11/3 
f 17/7/6 20/8/6 8/8/6 7/7/6 
f 24/12/6 12/12/6 10/10/6 22/10/6 
f 17/7/7 7/7/7 6/6/7 18/6/7 
f 23/11/8 11/11/8 2/2/8 14/2/8 
f 18/6/3 6/6/3 5/5/3 19/5/3 
f 22/10/6 10/10/6 8/8/6 20/8/6 
f 15/1/9 14/2/9 2/2/9 1/1/9 
f 16/4/10 4/4/10 3/3/10 13/3/10 
# 22 polygons

