# 3ds Max Wavefront OBJ Exporter v0.97b - (c)2007 guruware
# File Created: 14.10.2018 14:51:31

mtllib 891271-03B.mtl

#
# object default
#

v  0.0000 2.0000 -0.0000
v  0.7071 0.0000 -0.7071
v  0.0000 0.0000 -1.0000
v  1.0000 0.0000 -0.0000
v  0.7071 0.0000 0.7071
v  0.0000 0.0000 1.0000
v  -0.7071 0.0000 0.7071
v  -1.0000 0.0000 -0.0000
v  -0.7071 0.0000 -0.7071
v  0.0000 0.0000 -0.0000
# 10 vertices

vn 0.3474 0.4194 -0.8387
vn 0.8387 0.4194 -0.3474
vn 0.8387 0.4194 0.3474
vn 0.3474 0.4194 0.8387
vn -0.3474 0.4194 0.8387
vn -0.8387 0.4194 0.3474
vn -0.8387 0.4194 -0.3474
vn -0.3474 0.4194 -0.8387
vn 0.0000 -1.0000 -0.0000
# 9 vertex normals

g default
usemtl Material_001
s off
f 1//1 2//1 3//1 
f 1//2 4//2 2//2 
f 1//3 5//3 4//3 
f 1//4 6//4 5//4 
f 1//5 7//5 6//5 
f 1//6 8//6 7//6 
f 1//7 9//7 8//7 
f 1//8 3//8 9//8 
f 10//9 4//9 5//9 6//9 
f 10//9 6//9 7//9 8//9 
f 9//9 3//9 10//9 8//9 
f 2//9 4//9 10//9 3//9 
# 4 polygons - 8 triangles

