# 3ds Max Wavefront OBJ Exporter v0.97b - (c)2007 guruware
# File Created: 10.10.2018 17:09:22

mtllib 892062-02B.mtl

#
# object 02B
#

v  -6.5527 0.6667 5.0256
v  -6.3222 1.3333 5.0256
v  -6.3222 1.3333 3.0256
v  -6.5527 0.6667 3.0256
v  -6.0468 1.3333 3.0256
v  -6.2426 2.0000 3.0256
v  -6.1328 2.0000 3.0256
v  -5.8120 0.6667 3.0256
v  -6.0468 1.3333 5.0256
v  -5.8120 0.6667 5.0256
v  -6.1328 2.0000 5.0256
v  -6.2426 2.0000 5.0256
v  -5.0792 0.0000 3.0256
v  -5.0792 0.0000 5.0256
v  -7.0792 0.0000 5.0256
v  -7.0792 0.0000 3.0256
# 16 vertices

vn -1.0000 0.0000 -0.0000
vn 0.0000 0.0000 -1.0000
vn 1.0000 0.0000 -0.0000
vn 0.0000 0.0000 1.0000
vn 0.0000 -1.0000 -0.0000
vn 0.0000 1.0000 -0.0000
# 6 vertex normals

g 02B
usemtl _02None
s off
f 1//1 2//1 3//1 4//1 
f 5//2 3//2 6//2 7//2 
f 8//3 5//3 9//3 10//3 
f 2//4 9//4 11//4 12//4 
f 13//3 8//3 10//3 14//3 
f 15//5 16//5 13//5 14//5 
f 9//3 5//3 7//3 11//3 
f 15//1 1//1 4//1 16//1 
f 3//1 2//1 12//1 6//1 
f 15//4 14//4 10//4 1//4 
f 1//4 10//4 9//4 2//4 
f 13//2 16//2 4//2 8//2 
f 8//2 4//2 3//2 5//2 
f 11//6 7//6 6//6 12//6 
# 14 polygons

