# 3ds Max Wavefront OBJ Exporter v0.97b - (c)2007 guruware
# File Created: 11.10.2018 10:24:32

mtllib 892783-03A.mtl

#
# object default003
#

v  10.7360 1.0000 6.2232
v  11.0289 -1.0000 5.9303
v  10.0289 -1.0000 5.9303
v  10.0289 1.0000 5.9303
v  11.0289 -1.0000 6.9303
v  11.0289 1.0000 6.9303
v  11.0289 -1.0000 7.9303
v  10.7360 1.0000 7.6374
v  10.0289 -1.0000 7.9303
v  10.0289 1.0000 7.9303
v  9.3218 1.0000 7.6374
v  9.0289 -1.0000 7.9303
v  9.0289 1.0000 6.9303
v  9.0289 -1.0000 6.9303
v  10.0289 1.0000 6.9303
v  9.3218 1.0000 6.2232
v  9.0289 -1.0000 5.9303
v  10.0289 -1.0000 6.9303
# 18 vertices

vn 0.3827 0.0000 -0.9239
vn 0.9239 0.0000 -0.3827
vn 0.9239 0.0000 0.3827
vn 0.3827 0.0000 0.9239
vn -0.3827 0.0000 0.9239
vn -0.9239 0.0000 0.3827
vn 0.0000 1.0000 -0.0000
vn -0.9239 0.0000 -0.3827
vn -0.3827 0.0000 -0.9239
vn 0.0000 -1.0000 -0.0000
# 10 vertex normals

vt 0.0000 0.0000 0.0000
# 1 texture coords

g default003
usemtl _ex_03_03Material_001
s off
f 1/1/1 2/1/1 3/1/1 4/1/1 
f 5/1/2 2/1/2 1/1/2 6/1/2 
f 7/1/3 5/1/3 6/1/3 8/1/3 
f 9/1/4 7/1/4 8/1/4 10/1/4 
f 11/1/5 12/1/5 9/1/5 10/1/5 
f 11/1/6 13/1/6 14/1/6 12/1/6 
f 11/1/7 10/1/7 15/1/7 13/1/7 
f 16/1/8 17/1/8 14/1/8 13/1/8 
f 4/1/9 3/1/9 17/1/9 16/1/9 
f 9/1/10 18/1/10 5/1/10 7/1/10 
f 13/1/7 15/1/7 4/1/7 16/1/7 
f 10/1/7 8/1/7 6/1/7 15/1/7 
f 6/1/7 1/1/7 4/1/7 15/1/7 
f 18/1/10 9/1/10 12/1/10 14/1/10 
f 3/1/10 18/1/10 14/1/10 17/1/10 
f 3/1/10 2/1/10 5/1/10 18/1/10 
# 16 polygons

