# 3ds Max Wavefront OBJ Exporter v0.97b - (c)2007 guruware
# File Created: 11.10.2018 10:18:21

mtllib 01A.mtl

#
# object default
#

v  16.9924 -0.4990 11.7337
v  16.9924 -0.4990 13.7337
v  16.5924 -0.4990 13.7337
v  16.5924 -0.4990 11.7337
v  15.3924 -0.4990 11.7337
v  15.3924 -0.4990 13.7337
v  14.9924 -0.4990 13.7337
v  14.9924 -0.4990 11.7337
v  15.7924 -0.4990 11.7337
v  15.7924 -0.4990 13.7337
v  16.1924 -0.4990 11.7337
v  16.1924 -0.4990 13.7337
v  16.9924 0.4987 11.7337
v  16.5924 0.4990 11.7337
v  16.5924 0.4990 13.7337
v  16.9924 0.4987 13.7337
v  15.3924 0.4990 11.7337
v  14.9924 0.4990 11.7337
v  14.9924 0.4990 13.7337
v  15.3924 0.4990 13.7337
v  15.7924 0.4990 11.7337
v  15.7924 0.4990 13.7337
v  16.1924 0.4990 11.7337
v  16.1924 0.4990 13.7337
# 24 vertices

vn 0.0000 -1.0000 -0.0000
vn 0.8177 0.5757 -0.0000
vn -0.4021 0.9156 -0.0000
vn 0.6684 0.7438 -0.0000
vn 0.7191 0.6949 -0.0000
vn -0.3785 0.9256 -0.0000
vn 0.0000 0.0000 1.0000
vn 1.0000 0.0000 -0.0000
vn 0.0000 0.0000 -1.0000
vn -1.0000 0.0000 -0.0000
# 10 vertex normals

vt 1.0000 1.0000 0.0000
vt 1.0000 0.0000 0.0000
vt 0.8000 0.0000 0.0000
vt 0.8000 1.0000 0.0000
vt 0.2000 1.0000 0.0000
vt 0.2000 0.0000 0.0000
vt 0.0000 0.0000 0.0000
vt 0.0000 1.0000 0.0000
vt 0.4000 1.0000 0.0000
vt 0.4000 0.0000 0.0000
vt 0.6000 1.0000 0.0000
vt 0.6000 0.0000 0.0000
# 12 texture coords

g default
usemtl _ex_03_01None
s off
f 1/1/1 2/2/1 3/3/1 4/4/1 
f 5/5/1 6/6/1 7/7/1 8/8/1 
f 9/9/1 10/10/1 6/6/1 5/5/1 
f 11/11/1 12/12/1 10/10/1 9/9/1 
f 4/4/1 3/3/1 12/12/1 11/11/1 
f 13/1/2 14/4/2 15/3/2 16/2/2 
f 17/5/3 18/8/3 19/7/3 20/6/3 
f 21/9/4 17/5/4 20/6/4 22/10/4 
f 23/11/5 21/9/5 22/10/5 24/12/5 
f 14/4/6 23/11/6 24/12/6 15/3/6 
f 10/10/7 22/10/7 20/6/7 6/6/7 
f 13/1/8 16/2/8 2/2/8 1/1/8 
f 11/11/9 23/11/9 14/4/9 4/4/9 
f 12/12/7 24/12/7 22/10/7 10/10/7 
f 8/8/9 18/8/9 17/5/9 5/5/9 
f 21/9/9 23/11/9 11/11/9 9/9/9 
f 19/7/10 18/8/10 8/8/10 7/7/10 
f 15/3/7 24/12/7 12/12/7 3/3/7 
f 20/6/7 19/7/7 7/7/7 6/6/7 
f 17/5/9 21/9/9 9/9/9 5/5/9 
f 2/2/7 16/2/7 15/3/7 3/3/7 
f 14/4/9 13/1/9 1/1/9 4/4/9 
# 22 polygons

