# 3ds Max Wavefront OBJ Exporter v0.97b - (c)2007 guruware
# File Created: 11.10.2018 10:22:28

mtllib 892783-02B.mtl

#
# object default005
#

v  3.5110 -0.3212 2.5184
v  3.5110 -0.3212 4.3408
v  3.8237 0.3029 4.3008
v  3.8237 0.3029 2.5584
v  4.2035 0.3029 2.5584
v  3.9475 0.9036 2.5584
v  4.0797 0.9036 2.5584
v  4.5162 -0.3212 4.3408
v  4.5162 -0.3212 2.5184
v  4.2035 0.3029 4.3008
v  4.0797 0.9036 4.3008
v  3.9475 0.9036 4.3008
v  5.2551 -0.8853 2.5184
v  5.2551 -0.8853 4.3408
v  2.7721 -0.8853 4.3408
v  2.7721 -0.8853 2.5184
# 16 vertices

vn -1.0000 0.0000 -0.0000
vn 0.0000 0.0000 -1.0000
vn 1.0000 0.0000 -0.0000
vn 0.0000 0.0000 1.0000
vn 0.0000 -1.0000 -0.0000
vn 0.0000 1.0000 -0.0000
# 6 vertex normals

vt 0.0000 0.0000 0.0000
# 1 texture coords

g default005
usemtl _ex_03_02None
s off
f 1/1/1 2/1/1 3/1/1 4/1/1 
f 5/1/2 4/1/2 6/1/2 7/1/2 
f 8/1/3 9/1/3 5/1/3 10/1/3 
f 3/1/4 10/1/4 11/1/4 12/1/4 
f 13/1/3 9/1/3 8/1/3 14/1/3 
f 14/1/5 15/1/5 16/1/5 13/1/5 
f 10/1/3 5/1/3 7/1/3 11/1/3 
f 16/1/1 15/1/1 2/1/1 1/1/1 
f 4/1/1 3/1/1 12/1/1 6/1/1 
f 2/1/4 15/1/4 14/1/4 8/1/4 
f 8/1/4 10/1/4 3/1/4 2/1/4 
f 1/1/2 9/1/2 13/1/2 16/1/2 
f 9/1/2 1/1/2 4/1/2 5/1/2 
f 11/1/6 7/1/6 6/1/6 12/1/6 
# 14 polygons

