# 3ds Max Wavefront OBJ Exporter v0.97b - (c)2007 guruware
# File Created: 15.10.2018 19:05:50

mtllib 892863-03C.mtl

#
# object default
#

v  0.6973 1.1388 -0.6903
v  -0.0051 1.1388 -0.9812
v  0.0000 1.2041 -0.8733
v  0.6175 1.2041 -0.6175
v  0.9882 1.1388 0.0121
v  0.8733 1.2041 -0.0000
v  0.6973 1.1388 0.7144
v  0.6175 1.2041 0.6175
v  -0.0051 1.1388 1.0054
v  0.0000 1.2041 0.8733
v  -0.7074 1.1388 0.7144
v  -0.6175 1.2041 0.6175
v  -0.9984 1.1388 0.0121
v  -0.8733 1.2041 -0.0000
v  -0.1768 1.9347 0.1768
v  0.0000 1.9347 0.2500
v  0.0000 1.9347 -0.0000
v  -0.2500 1.9347 -0.0000
v  -0.7074 1.1388 -0.6903
v  -0.6175 1.2041 -0.6175
v  0.0000 1.9347 -0.2500
v  -0.1768 1.9347 -0.1768
v  0.1768 1.9347 0.1768
v  0.2500 1.9347 -0.0000
v  0.1768 1.9347 -0.1768
v  0.7139 -0.0556 -0.7139
v  -0.0000 -0.0556 -1.0097
v  0.0000 -0.0444 -1.0000
v  0.7071 -0.0444 -0.7071
v  0.0000 1.1125 -1.0000
v  0.7071 1.1125 -0.7071
v  0.1768 1.7529 -0.1768
v  0.0000 1.7529 -0.2500
v  0.0000 1.7529 -0.1413
v  0.0999 1.7529 -0.0999
v  0.1019 1.5711 -0.1019
v  0.0000 1.5711 -0.1441
v  0.1052 1.5542 -0.1052
v  0.0000 1.5542 -0.1487
v  0.1627 1.4974 -0.1499
v  -0.0000 1.4974 -0.2120
v  1.0097 -0.0556 0.0000
v  1.0000 -0.0444 -0.0000
v  1.0000 1.1125 -0.0000
v  0.2500 1.7529 -0.0000
v  0.1413 1.7529 0.0000
v  0.1441 1.5711 -0.0000
v  0.1487 1.5542 -0.0000
v  0.2300 1.4974 -0.0000
v  0.7139 -0.0556 0.7139
v  0.7071 -0.0444 0.7071
v  0.7071 1.1125 0.7071
v  0.1768 1.7529 0.1768
v  0.0999 1.7529 0.0999
v  0.1019 1.5711 0.1019
v  0.1052 1.5542 0.1052
v  0.1627 1.4974 0.1499
v  -0.0000 -0.0556 1.0097
v  0.0000 -0.0444 1.0000
v  0.0000 1.1125 1.0000
v  0.0000 1.7529 0.2500
v  0.0000 1.7529 0.1413
v  0.0000 1.5711 0.1441
v  0.0000 1.5542 0.1487
v  -0.0000 1.4974 0.2120
v  -0.7139 -0.0556 0.7139
v  -0.7071 -0.0444 0.7071
v  -0.7071 1.1125 0.7071
v  -0.1768 1.7529 0.1768
v  -0.0999 1.7529 0.0999
v  -0.1019 1.5711 0.1019
v  -0.1052 1.5542 0.1052
v  -0.1627 1.4974 0.1499
v  -1.0097 -0.0556 0.0000
v  -1.0000 -0.0444 -0.0000
v  -1.0000 1.1125 -0.0000
v  -0.2500 1.7529 -0.0000
v  -0.1413 1.7529 0.0000
v  -0.1441 1.5711 -0.0000
v  -0.1487 1.5542 -0.0000
v  -0.2300 1.4974 -0.0000
v  -0.7139 -0.0556 -0.7139
v  -0.7071 -0.0444 -0.7071
v  -0.7071 1.1125 -0.7071
v  -0.1768 1.7529 -0.1768
v  -0.0999 1.7529 -0.0999
v  -0.1019 1.5711 -0.1019
v  -0.1052 1.5542 -0.1052
v  -0.1627 1.4974 -0.1499
# 89 vertices

vn 0.3827 0.0000 -0.9239
vn 0.9239 0.0000 -0.3827
vn 0.9239 0.0000 0.3827
vn 0.3827 0.0000 0.9239
vn -0.3827 0.0000 0.9239
vn -0.9239 0.0000 0.3827
vn 0.0000 1.0000 -0.0000
vn -0.9239 0.0000 -0.3827
vn -0.3827 0.0000 -0.9239
vn 0.3084 0.5919 -0.7446
vn 0.3826 0.0137 -0.9238
vn 0.3709 0.2466 -0.8953
vn 0.2507 0.7303 -0.6355
vn 0.1638 0.9009 -0.4020
vn 0.7955 0.5085 -0.3295
vn 0.9238 0.0137 -0.3826
vn 0.8953 0.2466 -0.3709
vn 0.5655 0.7873 -0.2460
vn 0.4065 0.8975 -0.1712
vn 0.8986 0.2324 0.3722
vn 0.9238 0.0137 0.3826
vn 0.8953 0.2466 0.3709
vn 0.5655 0.7873 0.2460
vn 0.4065 0.8975 0.1712
vn 0.3802 -0.1136 0.9179
vn 0.3826 0.0137 0.9238
vn 0.3709 0.2466 0.8953
vn 0.2507 0.7303 0.6355
vn 0.1638 0.9009 0.4020
vn -0.3702 -0.2538 0.8936
vn -0.3826 0.0137 0.9238
vn -0.3709 0.2466 0.8953
vn -0.2507 0.7303 0.6355
vn -0.1638 0.9009 0.4020
vn -0.9175 -0.1176 0.3800
vn -0.9238 0.0137 0.3826
vn -0.8953 0.2466 0.3709
vn -0.5655 0.7873 0.2460
vn -0.4065 0.8975 0.1712
vn -0.8997 0.2271 -0.3727
vn -0.9238 0.0137 -0.3826
vn -0.8953 0.2466 -0.3709
vn -0.5655 0.7873 -0.2460
vn -0.4065 0.8975 -0.1712
vn -0.3301 0.5059 -0.7969
vn -0.3826 0.0137 -0.9238
vn -0.3709 0.2466 -0.8953
vn -0.2507 0.7303 -0.6355
vn -0.1638 0.9009 -0.4020
vn 0.0000 -1.0000 -0.0000
# 50 vertex normals

g default
usemtl Material_001
s off
f 1//1 2//1 3//1 4//1 
f 5//2 1//2 4//2 6//2 
f 7//3 5//3 6//3 8//3 
f 9//4 7//4 8//4 10//4 
f 11//5 9//5 10//5 12//5 
f 13//6 11//6 12//6 14//6 
f 15//7 16//7 17//7 18//7 
f 19//8 13//8 14//8 20//8 
f 2//9 19//9 20//9 3//9 
f 17//7 21//7 22//7 18//7 
f 23//7 24//7 17//7 16//7 
f 17//7 24//7 25//7 21//7 
f 26//1 27//1 28//1 29//1 
f 29//1 28//1 30//1 31//1 
f 31//10 30//10 2//10 1//10 
f 21//1 25//1 32//1 33//1 
f 34//11 35//11 36//11 37//11 
f 37//12 36//12 38//12 39//12 
f 39//13 38//13 40//13 41//13 
f 41//14 40//14 4//14 3//14 
f 42//2 26//2 29//2 43//2 
f 43//2 29//2 31//2 44//2 
f 44//15 31//15 1//15 5//15 
f 25//2 24//2 45//2 32//2 
f 35//16 46//16 47//16 36//16 
f 36//17 47//17 48//17 38//17 
f 38//18 48//18 49//18 40//18 
f 40//19 49//19 6//19 4//19 
f 50//3 42//3 43//3 51//3 
f 51//3 43//3 44//3 52//3 
f 52//20 44//20 5//20 7//20 
f 24//3 23//3 53//3 45//3 
f 46//21 54//21 55//21 47//21 
f 47//22 55//22 56//22 48//22 
f 48//23 56//23 57//23 49//23 
f 49//24 57//24 8//24 6//24 
f 58//4 50//4 51//4 59//4 
f 59//4 51//4 52//4 60//4 
f 60//25 52//25 7//25 9//25 
f 23//4 16//4 61//4 53//4 
f 54//26 62//26 63//26 55//26 
f 55//27 63//27 64//27 56//27 
f 56//28 64//28 65//28 57//28 
f 57//29 65//29 10//29 8//29 
f 66//5 58//5 59//5 67//5 
f 67//5 59//5 60//5 68//5 
f 68//30 60//30 9//30 11//30 
f 16//5 15//5 69//5 61//5 
f 62//31 70//31 71//31 63//31 
f 63//32 71//32 72//32 64//32 
f 64//33 72//33 73//33 65//33 
f 65//34 73//34 12//34 10//34 
f 74//6 66//6 67//6 75//6 
f 75//6 67//6 68//6 76//6 
f 76//35 68//35 11//35 13//35 
f 15//6 18//6 77//6 69//6 
f 70//36 78//36 79//36 71//36 
f 71//37 79//37 80//37 72//37 
f 72//38 80//38 81//38 73//38 
f 73//39 81//39 14//39 12//39 
f 82//8 74//8 75//8 83//8 
f 83//8 75//8 76//8 84//8 
f 84//40 76//40 13//40 19//40 
f 18//8 22//8 85//8 77//8 
f 78//41 86//41 87//41 79//41 
f 79//42 87//42 88//42 80//42 
f 80//43 88//43 89//43 81//43 
f 81//44 89//44 20//44 14//44 
f 27//9 82//9 83//9 28//9 
f 28//9 83//9 84//9 30//9 
f 30//45 84//45 19//45 2//45 
f 22//9 21//9 33//9 85//9 
f 86//46 34//46 37//46 87//46 
f 87//47 37//47 39//47 88//47 
f 88//48 39//48 41//48 89//48 
f 89//49 41//49 3//49 20//49 
f 32//50 35//50 34//50 33//50 
f 45//50 46//50 35//50 32//50 
f 53//50 54//50 46//50 45//50 
f 61//50 62//50 54//50 53//50 
f 69//50 70//50 62//50 61//50 
f 77//50 78//50 70//50 69//50 
f 85//50 86//50 78//50 77//50 
f 33//50 34//50 86//50 85//50 
# 84 polygons

