# 3ds Max Wavefront OBJ Exporter v0.97b - (c)2007 guruware
# File Created: 16.10.2018 15:23:43

mtllib 892911-02B.mtl

#
# object default
#

v  -0.2630 0.6667 1.0000
v  -0.0898 1.3333 1.0000
v  -0.0898 1.3333 -1.0000
v  -0.2630 0.6667 -1.0000
v  0.0898 1.3333 -1.0000
v  -0.0411 2.0000 -1.0000
v  0.0411 2.0000 -1.0000
v  0.2630 0.6667 -1.0000
v  0.0898 1.3333 1.0000
v  0.2630 0.6667 1.0000
v  0.0411 2.0000 1.0000
v  -0.0411 2.0000 1.0000
v  1.0000 0.0000 -1.0000
v  1.0000 0.0000 1.0000
v  -1.0000 0.0000 1.0000
v  -1.0000 0.0000 -1.0000
# 16 vertices

vn -0.9679 0.2514 -0.0000
vn 0.0000 0.0000 -1.0000
vn 0.9679 0.2514 -0.0000
vn 0.0000 0.0000 1.0000
vn 0.6708 0.7416 -0.0000
vn 0.0000 -1.0000 -0.0000
vn 0.9973 0.0728 -0.0000
vn -0.6708 0.7416 -0.0000
vn -0.9973 0.0728 -0.0000
vn 0.0000 1.0000 -0.0000
# 10 vertex normals

g default
usemtl None
s off
f 1//1 2//1 3//1 4//1 
f 5//2 3//2 6//2 7//2 
f 8//3 5//3 9//3 10//3 
f 2//4 9//4 11//4 12//4 
f 13//5 8//5 10//5 14//5 
f 15//6 16//6 13//6 14//6 
f 9//7 5//7 7//7 11//7 
f 15//8 1//8 4//8 16//8 
f 3//9 2//9 12//9 6//9 
f 15//4 14//4 10//4 1//4 
f 1//4 10//4 9//4 2//4 
f 13//2 16//2 4//2 8//2 
f 8//2 4//2 3//2 5//2 
f 11//10 7//10 6//10 12//10 
# 14 polygons

