# 3ds Max Wavefront OBJ Exporter v0.97b - (c)2007 guruware
# File Created: 16.10.2018 15:01:24

mtllib 892911-01A.mtl

#
# object default
#

v  1.0000 0.0000 0.8862
v  0.6000 0.0000 0.8862
v  0.6000 0.0000 -1.1138
v  1.0000 0.0000 -1.1138
v  -0.6000 0.0000 0.8862
v  -1.0000 0.0000 0.8862
v  -1.0000 0.0000 -1.1138
v  -0.6000 0.0000 -1.1138
v  -0.2000 0.0000 0.8862
v  -0.2000 0.0000 -1.1138
v  0.2000 0.0000 0.8862
v  0.2000 0.0000 -1.1138
v  0.6000 1.4024 -1.1138
v  0.6000 1.4024 0.8862
v  1.0000 1.4024 0.8862
v  1.0000 1.4024 -1.1138
v  -1.0000 1.4024 -1.1138
v  -1.0000 1.4024 0.8862
v  -0.6000 1.4024 0.8862
v  -0.6000 1.4024 -1.1138
v  -0.2000 1.4024 0.8862
v  -0.2000 1.4024 -1.1138
v  0.2000 1.4023 0.8862
v  0.2000 1.4023 -1.1138
# 24 vertices

vn 0.0000 -1.0000 -0.0000
vn 0.0000 1.0000 -0.0000
vn 0.0002 1.0000 -0.0000
vn -0.0002 1.0000 -0.0000
vn 0.0000 0.0000 1.0000
vn 1.0000 0.0000 -0.0000
vn 0.0000 0.0000 -1.0000
vn -1.0000 0.0000 -0.0000
# 8 vertex normals

vt 1.0000 0.0000 0.0000
vt 0.8000 0.0000 0.0000
vt 0.8000 1.0000 0.0000
vt 1.0000 1.0000 0.0000
vt 0.2000 0.0000 0.0000
vt 0.0000 0.0000 0.0000
vt 0.0000 1.0000 0.0000
vt 0.2000 1.0000 0.0000
vt 0.4000 0.0000 0.0000
vt 0.4000 1.0000 0.0000
vt 0.6000 0.0000 0.0000
vt 0.6000 1.0000 0.0000
# 12 texture coords

g default
usemtl None
s off
f 1/1/1 2/2/1 3/3/1 4/4/1 
f 5/5/1 6/6/1 7/7/1 8/8/1 
f 9/9/1 5/5/1 8/8/1 10/10/1 
f 11/11/1 9/9/1 10/10/1 12/12/1 
f 2/2/1 11/11/1 12/12/1 3/3/1 
f 13/3/2 14/2/2 15/1/2 16/4/2 
f 17/7/2 18/6/2 19/5/2 20/8/2 
f 20/8/2 19/5/2 21/9/2 22/10/2 
f 22/10/3 21/9/3 23/11/3 24/12/3 
f 24/12/4 23/11/4 14/2/4 13/3/4 
f 21/9/5 19/5/5 5/5/5 9/9/5 
f 15/1/6 1/1/6 4/4/6 16/4/6 
f 24/12/7 13/3/7 3/3/7 12/12/7 
f 23/11/5 21/9/5 9/9/5 11/11/5 
f 17/7/7 20/8/7 8/8/7 7/7/7 
f 24/12/7 12/12/7 10/10/7 22/10/7 
f 17/7/8 7/7/8 6/6/8 18/6/8 
f 23/11/5 11/11/5 2/2/5 14/2/5 
f 18/6/5 6/6/5 5/5/5 19/5/5 
f 22/10/7 10/10/7 8/8/7 20/8/7 
f 15/1/5 14/2/5 2/2/5 1/1/5 
f 16/4/7 4/4/7 3/3/7 13/3/7 
# 22 polygons

