# Blender v2.79 (sub 0) OBJ File: ''
# www.blender.org
mtllib 893077-03C.mtl
o Cylinder
v 0.000000 0.000000 -1.000000
v 0.000000 0.763902 -1.000000
v 0.707107 0.763902 -0.707107
v 0.707107 0.000000 -0.707107
v 1.000000 0.763902 0.000000
v 1.000000 0.000000 0.000000
v 0.707107 0.763902 0.707107
v 0.707107 -0.000000 0.707107
v 0.000000 0.763902 1.000000
v 0.000000 -0.000000 1.000000
v -0.707107 0.763902 0.707107
v -0.707107 -0.000000 0.707107
v -1.000000 0.763902 0.000000
v -1.000000 0.000000 0.000000
v 0.228120 1.157831 -0.228120
v -0.707107 0.763902 -0.707107
v -0.707107 0.000000 -0.707107
v 0.000000 0.000000 0.000000
v 0.228120 1.024828 -0.228120
v 0.322611 1.024828 0.000000
v 0.000000 1.024828 -0.322611
v 0.361942 1.160645 -0.340492
v -0.228120 1.024828 -0.228120
v 0.000000 1.024828 0.322611
v -0.228120 1.024828 0.228121
v 0.228120 1.024828 0.228121
v -0.322611 1.024828 0.000000
v 0.322611 1.157831 0.000000
v -0.000000 1.157831 -0.322611
v 0.361942 1.388963 -0.340492
v -0.228120 1.157831 -0.228120
v -0.000000 1.157831 0.322611
v -0.228120 1.157831 0.228121
v 0.228120 1.157831 0.228121
v -0.322611 1.157831 0.000000
v 0.503982 1.160645 0.002425
v 0.019025 1.160645 -0.482533
v -0.323892 1.160645 -0.340492
v 0.019025 1.160645 0.487383
v -0.323892 1.160645 0.345342
v 0.361942 1.160645 0.345342
v -0.465933 1.160645 0.002425
v 0.503982 1.388963 0.002425
v 0.019025 1.388963 -0.482532
v 0.019025 1.388963 0.002425
v -0.323892 1.388963 -0.340492
v 0.019025 1.388963 0.487383
v -0.323892 1.388963 0.345342
v 0.361942 1.388963 0.345342
v -0.465933 1.388963 0.002425
vn 0.3827 0.0000 -0.9239
vn 0.9239 0.0000 -0.3827
vn 0.9239 -0.0000 0.3827
vn 0.3827 -0.0000 0.9239
vn -0.3827 -0.0000 0.9239
vn -0.9239 -0.0000 0.3827
vn 0.2542 0.9332 -0.2542
vn 0.0000 0.9332 -0.3594
vn -0.9239 0.0000 -0.3827
vn -0.3827 0.0000 -0.9239
vn 0.0000 -1.0000 -0.0000
vn -0.3594 0.9332 0.0000
vn -0.2542 0.9332 0.2542
vn 0.3594 0.9332 0.0000
vn 0.2542 0.9332 0.2542
vn 0.7071 0.0000 -0.7071
vn 0.0000 0.0000 -1.0000
vn -0.7071 -0.0000 0.7071
vn 0.0000 -0.0000 1.0000
vn 0.7071 -0.0000 0.7071
vn 1.0000 0.0000 0.0000
vn -0.7071 0.0000 -0.7071
vn -1.0000 0.0000 0.0000
vn 0.0000 0.9332 0.3594
vn -0.2542 0.9332 -0.2542
vn -0.0008 -0.9999 0.0172
vn 0.0109 -0.9999 0.0115
vn 0.0113 -0.9999 0.0111
vn 0.0004 -0.9999 0.0170
vn 0.0155 -0.9999 -0.0001
vn 0.0111 -0.9999 -0.0118
vn 0.0116 -0.9999 -0.0112
vn 0.0155 -0.9999 0.0000
vn -0.0196 -0.9998 -0.0001
vn -0.0138 -0.9998 0.0128
vn -0.0129 -0.9998 0.0134
vn -0.0196 -0.9998 0.0001
vn -0.0008 -0.9998 -0.0177
vn -0.0140 -0.9998 -0.0131
vn -0.0133 -0.9998 -0.0137
vn 0.0004 -0.9998 -0.0176
vn 0.0000 1.0000 0.0000
usemtl Material.001
s 1
f 1//1 2//1 3//1 4//1
f 4//2 3//2 5//2 6//2
f 6//3 5//3 7//3 8//3
f 8//4 7//4 9//4 10//4
f 10//5 9//5 11//5 12//5
f 12//6 11//6 13//6 14//6
f 3//7 2//8 21//8 19//7
f 14//9 13//9 16//9 17//9
f 17//10 16//10 2//10 1//10
f 18//11 6//11 8//11 10//11
f 13//12 11//13 25//13 27//12
f 5//14 3//7 19//7 20//14
f 7//15 5//14 20//14 26//15
f 14//11 18//11 10//11 12//11
f 17//11 1//11 18//11 14//11
f 1//11 4//11 6//11 18//11
f 19//16 21//17 29//17 15//16
f 25//18 24//19 32//19 33//18
f 26//20 20//21 28//21 34//20
f 23//22 27//23 35//23 31//22
f 9//24 7//15 26//15 24//24
f 11//13 9//24 24//24 25//13
f 2//8 16//25 23//25 21//8
f 16//25 13//12 27//12 23//25
f 32//26 34//27 41//28 39//29
f 28//30 15//31 22//32 36//33
f 35//34 33//35 40//36 42//37
f 29//38 31//39 38//40 37//41
f 21//17 23//22 31//22 29//17
f 27//23 25//18 33//18 35//23
f 20//21 19//16 15//16 28//21
f 24//19 26//20 34//20 32//19
f 36//21 22//16 30//16 43//21
f 42//23 40//18 48//18 50//23
f 37//17 38//22 46//22 44//17
f 22//16 37//17 44//17 30//16
f 31//39 35//34 42//37 38//40
f 34//27 28//30 36//33 41//28
f 33//35 32//26 39//29 40//36
f 15//31 29//38 37//41 22//32
f 45//42 50//42 48//42 47//42
f 44//42 46//42 50//42 45//42
f 43//42 45//42 47//42 49//42
f 30//42 44//42 45//42 43//42
f 39//19 41//20 49//20 47//19
f 38//22 42//23 50//23 46//22
f 41//20 36//21 43//21 49//20
f 40//18 39//19 47//19 48//18
