# 3ds Max Wavefront OBJ Exporter v0.97b - (c)2007 guruware
# File Created: 10.10.2018 21:40:37

mtllib 893008-03C.mtl

#
# object default
#

v  0.3182 2.0000 -0.3182
v  0.3182 1.6162 -0.3182
v  -0.0000 1.6162 -0.4500
v  0.0000 2.0000 -0.4500
v  0.4500 2.0000 -0.0000
v  0.4500 1.6162 -0.0000
v  0.3182 2.0000 0.3182
v  0.3182 1.6162 0.3182
v  0.0000 2.0000 0.4500
v  -0.0000 1.6162 0.4500
v  -0.3182 2.0000 0.3182
v  -0.3182 1.6162 0.3182
v  -0.4500 2.0000 -0.0000
v  -0.4500 1.6162 -0.0000
v  0.0000 2.0000 -0.0000
v  -0.3182 2.0000 -0.3182
v  -0.3182 1.6162 -0.3182
v  0.7071 0.0000 0.7071
v  0.0000 0.0000 1.0000
v  0.0000 0.0000 -0.0000
v  1.0000 0.0000 -0.0000
v  -0.7071 0.0000 0.7071
v  -1.0000 0.0000 -0.0000
v  -0.7071 0.0000 -0.7071
v  0.0000 0.0000 -1.0000
v  0.7071 0.0000 -0.7071
v  0.0000 0.0632 -1.0000
v  0.7071 0.0632 -0.7071
v  1.0000 0.0632 -0.0000
v  0.7071 0.0632 0.7071
v  0.0000 0.0632 1.0000
v  -0.7071 0.0632 0.7071
v  -1.0000 0.0632 -0.0000
v  -0.7071 0.0632 -0.7071
v  0.0000 0.8164 -1.0000
v  0.7071 0.8164 -0.7071
v  1.0000 0.8164 -0.0000
v  0.7071 0.8164 0.7071
v  0.0000 0.8164 1.0000
v  -0.7071 0.8164 0.7071
v  -1.0000 0.8164 -0.0000
v  -0.7071 0.8164 -0.7071
v  0.0000 0.8646 -1.0000
v  0.7071 0.8646 -0.7071
v  1.0000 0.8646 -0.0000
v  0.7071 0.8646 0.7071
v  0.0000 0.8646 1.0000
v  -0.7071 0.8646 0.7071
v  -1.0000 0.8646 -0.0000
v  -0.7071 0.8646 -0.7071
v  0.0000 0.9591 -1.0000
v  0.7071 0.9591 -0.7071
v  1.0000 0.9591 -0.0000
v  0.7071 0.9591 0.7071
v  0.0000 0.9591 1.0000
v  -0.7071 0.9591 0.7071
v  -1.0000 0.9591 -0.0000
v  -0.7071 0.9591 -0.7071
v  0.1587 1.3626 -0.1587
v  -0.0000 1.3626 -0.2244
v  0.0000 1.5145 -0.2268
v  0.1604 1.5145 -0.1604
v  0.2244 1.3626 0.0000
v  0.2268 1.5145 -0.0000
v  0.1587 1.3626 0.1587
v  0.1604 1.5145 0.1604
v  -0.0000 1.3626 0.2244
v  0.0000 1.5145 0.2268
v  -0.1587 1.3626 0.1587
v  -0.1604 1.5145 0.1604
v  -0.2244 1.3626 0.0000
v  -0.2268 1.5145 -0.0000
v  -0.1587 1.3626 -0.1587
v  -0.1604 1.5145 -0.1604
v  0.0000 1.5778 -0.2800
v  0.1980 1.5778 -0.1980
v  0.2800 1.5778 -0.0000
v  0.1980 1.5778 0.1980
v  0.0000 1.5778 0.2800
v  -0.1980 1.5778 0.1980
v  -0.2800 1.5778 -0.0000
v  -0.1980 1.5778 -0.1980
v  0.2267 1.3220 -0.2267
v  0.0000 1.3220 -0.3206
v  0.3206 1.3220 -0.0000
v  0.2267 1.3220 0.2267
v  0.0000 1.3220 0.3206
v  -0.2267 1.3220 0.2267
v  -0.3206 1.3220 -0.0000
v  -0.2267 1.3220 -0.2267
# 90 vertices

vn 0.3827 -0.0000 -0.9239
vn 0.9239 -0.0000 -0.3827
vn 0.9239 -0.0000 0.3827
vn 0.3827 -0.0000 0.9239
vn -0.3827 -0.0000 0.9239
vn -0.9239 -0.0000 0.3827
vn 0.0000 1.0000 -0.0000
vn -0.9239 -0.0000 -0.3827
vn -0.3827 -0.0000 -0.9239
vn 0.0000 -1.0000 -0.0000
vn 0.3827 0.0000 -0.9239
vn 0.9239 0.0000 -0.3827
vn 0.9239 0.0000 0.3827
vn 0.3827 0.0000 0.9239
vn -0.3827 0.0000 0.9239
vn -0.9239 0.0000 0.3827
vn -0.9239 0.0000 -0.3827
vn -0.3827 0.0000 -0.9239
vn 0.3826 -0.0145 -0.9238
vn 0.9238 -0.0145 -0.3826
vn 0.9238 -0.0145 0.3826
vn 0.3826 -0.0145 0.9238
vn -0.3826 -0.0145 0.9238
vn -0.9238 -0.0145 0.3826
vn -0.9238 -0.0145 -0.3826
vn -0.3826 -0.0145 -0.9238
vn 0.3022 -0.6134 -0.7297
vn 0.7297 -0.6134 -0.3022
vn 0.7297 -0.6134 0.3022
vn 0.3022 -0.6134 0.7297
vn -0.3022 -0.6134 0.7297
vn -0.7297 -0.6134 0.3022
vn -0.7297 -0.6134 -0.3022
vn -0.3022 -0.6134 -0.7297
vn 0.0710 -0.9826 -0.1714
vn 0.1714 -0.9826 -0.0710
vn 0.1714 -0.9826 0.0710
vn 0.0710 -0.9826 0.1714
vn -0.0710 -0.9826 0.1714
vn -0.1714 -0.9826 0.0710
vn -0.1714 -0.9826 -0.0710
vn -0.0710 -0.9826 -0.1714
vn 0.1588 0.9099 -0.3833
vn 0.3833 0.9099 -0.1588
vn 0.3833 0.9099 0.1588
vn 0.1588 0.9099 0.3833
vn -0.1588 0.9099 0.3833
vn -0.3833 0.9099 0.1588
vn -0.3833 0.9099 -0.1588
vn -0.1588 0.9099 -0.3833
vn 0.1916 0.8657 -0.4625
vn 0.4625 0.8657 -0.1916
vn 0.4625 0.8657 0.1916
vn 0.1916 0.8657 0.4625
vn -0.1916 0.8657 0.4625
vn -0.4625 0.8657 0.1916
vn -0.4625 0.8657 -0.1916
vn -0.1916 0.8657 -0.4625
# 58 vertex normals

g default
usemtl Material_001
s off
f 1//1 2//1 3//1 4//1 
f 5//2 6//2 2//2 1//2 
f 7//3 8//3 6//3 5//3 
f 9//4 10//4 8//4 7//4 
f 11//5 12//5 10//5 9//5 
f 13//6 14//6 12//6 11//6 
f 11//7 9//7 15//7 13//7 
f 16//8 17//8 14//8 13//8 
f 4//9 3//9 17//9 16//9 
f 18//10 19//10 20//10 21//10 
f 15//7 4//7 16//7 13//7 
f 7//7 5//7 15//7 9//7 
f 15//7 5//7 1//7 4//7 
f 22//10 23//10 20//10 19//10 
f 20//10 23//10 24//10 25//10 
f 20//10 25//10 26//10 21//10 
f 26//11 25//11 27//11 28//11 
f 21//12 26//12 28//12 29//12 
f 18//13 21//13 29//13 30//13 
f 19//14 18//14 30//14 31//14 
f 22//15 19//15 31//15 32//15 
f 23//16 22//16 32//16 33//16 
f 24//17 23//17 33//17 34//17 
f 25//18 24//18 34//18 27//18 
f 28//11 27//11 35//11 36//11 
f 29//12 28//12 36//12 37//12 
f 30//13 29//13 37//13 38//13 
f 31//14 30//14 38//14 39//14 
f 32//15 31//15 39//15 40//15 
f 33//16 32//16 40//16 41//16 
f 34//17 33//17 41//17 42//17 
f 27//18 34//18 42//18 35//18 
f 36//11 35//11 43//11 44//11 
f 37//12 36//12 44//12 45//12 
f 38//13 37//13 45//13 46//13 
f 39//14 38//14 46//14 47//14 
f 40//15 39//15 47//15 48//15 
f 41//16 40//16 48//16 49//16 
f 42//17 41//17 49//17 50//17 
f 35//18 42//18 50//18 43//18 
f 44//11 43//11 51//11 52//11 
f 45//12 44//12 52//12 53//12 
f 46//13 45//13 53//13 54//13 
f 47//14 46//14 54//14 55//14 
f 48//15 47//15 55//15 56//15 
f 49//16 48//16 56//16 57//16 
f 50//17 49//17 57//17 58//17 
f 43//18 50//18 58//18 51//18 
f 59//19 60//19 61//19 62//19 
f 63//20 59//20 62//20 64//20 
f 65//21 63//21 64//21 66//21 
f 67//22 65//22 66//22 68//22 
f 69//23 67//23 68//23 70//23 
f 71//24 69//24 70//24 72//24 
f 73//25 71//25 72//25 74//25 
f 60//26 73//26 74//26 61//26 
f 62//27 61//27 75//27 76//27 
f 64//28 62//28 76//28 77//28 
f 66//29 64//29 77//29 78//29 
f 68//30 66//30 78//30 79//30 
f 70//31 68//31 79//31 80//31 
f 72//32 70//32 80//32 81//32 
f 74//33 72//33 81//33 82//33 
f 61//34 74//34 82//34 75//34 
f 76//35 75//35 3//35 2//35 
f 77//36 76//36 2//36 6//36 
f 78//37 77//37 6//37 8//37 
f 79//38 78//38 8//38 10//38 
f 80//39 79//39 10//39 12//39 
f 81//40 80//40 12//40 14//40 
f 82//41 81//41 14//41 17//41 
f 75//42 82//42 17//42 3//42 
f 83//43 84//43 60//43 59//43 
f 85//44 83//44 59//44 63//44 
f 86//45 85//45 63//45 65//45 
f 87//46 86//46 65//46 67//46 
f 88//47 87//47 67//47 69//47 
f 89//48 88//48 69//48 71//48 
f 90//49 89//49 71//49 73//49 
f 84//50 90//50 73//50 60//50 
f 52//51 51//51 84//51 83//51 
f 53//52 52//52 83//52 85//52 
f 54//53 53//53 85//53 86//53 
f 55//54 54//54 86//54 87//54 
f 56//55 55//55 87//55 88//55 
f 57//56 56//56 88//56 89//56 
f 58//57 57//57 89//57 90//57 
f 51//58 58//58 90//58 84//58 
# 88 polygons

