# Blender v2.79 (sub 0) OBJ File: ''
# www.blender.org
mtllib 893077-03A.mtl
o Cylinder.003
v 0.000000 0.000000 -1.000000
v 0.000000 2.000000 -1.000000
v 0.707107 2.000000 -0.707107
v 0.967425 0.042063 -1.038366
v 1.000000 2.000000 0.000000
v 1.000000 0.000000 0.000000
v 0.707107 2.000000 0.707107
v 0.989012 0.012140 0.983442
v 0.000000 2.000000 1.000000
v 0.000000 -0.000000 1.000000
v -0.707107 2.000000 0.707107
v -1.003422 0.006984 0.990757
v -1.000000 2.000000 0.000000
v -1.000000 0.000000 0.000000
v 0.000000 2.000000 0.000000
v -0.707107 2.000000 -0.707107
v -0.991257 -0.003439 -0.986916
v 0.000000 0.000000 0.000000
vn 0.1474 0.0921 -0.9848
vn 0.9803 0.0796 -0.1809
vn 0.9811 0.0815 0.1758
vn 0.1783 0.0806 0.9807
vn -0.1730 0.0826 0.9815
vn -0.9823 0.0848 0.1671
vn 0.0000 1.0000 0.0000
vn -0.9812 0.0819 -0.1749
vn -0.1769 0.0811 -0.9809
vn 0.0063 -1.0000 -0.0024
vn 0.0135 -0.9999 -0.0073
vn 0.0062 -1.0000 0.0062
vn 0.0013 -1.0000 0.0048
vn -0.0009 -1.0000 0.0026
vn -0.0035 -1.0000 0.0035
vn 0.0017 -1.0000 0.0017
vn 0.0115 -0.9999 -0.0098
vn 0.0210 -0.9996 -0.0210
usemtl Material.004
s 1
f 1//1 2//1 3//1 4//1
f 4//2 3//2 5//2 6//2
f 6//3 5//3 7//3 8//3
f 8//4 7//4 9//4 10//4
f 10//5 9//5 11//5 12//5
f 12//6 11//6 13//6 14//6
f 15//7 13//7 11//7 9//7
f 14//8 13//8 16//8 17//8
f 17//9 16//9 2//9 1//9
f 18//10 6//11 8//12 10//13
f 2//7 16//7 13//7 15//7
f 5//7 15//7 9//7 7//7
f 3//7 2//7 15//7 5//7
f 14//14 18//10 10//13 12//15
f 17//16 1//17 18//10 14//14
f 1//17 4//18 6//11 18//10
