# Blender v2.79 (sub 0) OBJ File: ''
# www.blender.org
mtllib 893077-02B.mtl
o Cube.003_Cube.000
v -1.957046 1.725638 0.709670
v -1.957046 1.725638 0.237262
v -1.957046 1.058972 -0.013258
v -1.957046 1.058972 0.960190
v -1.957046 2.392305 0.344646
v 0.042954 2.392305 0.344646
v 0.042954 1.725638 0.237262
v 0.042954 1.725638 0.709670
v 0.042954 1.058972 0.960190
v 0.042954 1.058972 -0.013258
v 0.042954 2.392305 0.602286
v -1.957046 2.392305 0.602286
v 0.042954 0.392305 1.473466
v 0.042954 0.392305 -0.526534
v -1.957046 0.392305 -0.526534
v -1.957046 0.392305 1.473466
vn -1.0000 -0.0000 0.0000
vn 0.0000 0.2567 -0.9665
vn 0.0000 0.1590 -0.9873
vn 1.0000 -0.0000 0.0000
vn 0.0000 0.2567 0.9665
vn 0.0000 0.1590 0.9873
vn 0.0000 -1.0000 -0.0000
vn 0.0000 0.6101 0.7924
vn 0.0000 0.4862 0.8738
vn 0.0000 0.6101 -0.7924
vn 0.0000 0.4862 -0.8738
vn 0.0000 1.0000 0.0000
usemtl None.001
s 1
f 1//1 2//1 3//1 4//1
f 2//2 5//3 6//3 7//2
f 7//4 8//4 9//4 10//4
f 8//5 11//6 12//6 1//5
f 10//4 9//4 13//4 14//4
f 15//7 14//7 13//7 16//7
f 7//4 6//4 11//4 8//4
f 4//1 3//1 15//1 16//1
f 1//1 12//1 5//1 2//1
f 13//8 9//9 4//9 16//8
f 9//9 8//5 1//5 4//9
f 15//10 3//11 10//11 14//10
f 3//11 2//2 7//2 10//11
f 6//12 5//12 12//12 11//12
