# 3ds Max Wavefront OBJ Exporter v0.97b - (c)2007 guruware
# File Created: 04.10.2018 13:44:24

mtllib 893152-02B.mtl

#
# object default
#

v  -1.0000 1.3333 -0.2500
v  -1.0000 0.6667 -0.5500
v  -1.0000 0.6667 0.5500
v  -1.0000 1.3333 0.2500
v  -1.0000 2.0000 -0.0500
v  1.0000 2.0000 -0.0500
v  1.0000 1.3333 -0.2500
v  1.0000 1.3333 0.2500
v  1.0000 0.6667 0.5500
v  1.0000 0.6667 -0.5500
v  1.0000 2.0000 0.0500
v  -1.0000 2.0000 0.0500
v  1.0000 0.0000 1.0000
v  1.0000 0.0000 -1.0000
v  -1.0000 0.0000 1.0000
v  -1.0000 0.0000 -1.0000
# 16 vertices

vn -1.0000 0.0000 -0.0000
vn 0.0000 0.0000 -1.0000
vn 1.0000 0.0000 -0.0000
vn 0.0000 0.0000 1.0000
vn 0.0000 -1.0000 -0.0000
vn 0.0000 1.0000 -0.0000
# 6 vertex normals

g default
usemtl None
s off
f 1//1 2//1 3//1 4//1 
f 5//2 6//2 7//2 1//2 
f 8//3 9//3 10//3 7//3 
f 11//4 12//4 4//4 8//4 
f 9//3 13//3 14//3 10//3 
f 14//5 13//5 15//5 16//5 
f 6//3 11//3 8//3 7//3 
f 2//1 16//1 15//1 3//1 
f 12//1 5//1 1//1 4//1 
f 9//4 3//4 15//4 13//4 
f 8//4 4//4 3//4 9//4 
f 2//2 10//2 14//2 16//2 
f 1//2 7//2 10//2 2//2 
f 5//6 12//6 11//6 6//6 
# 14 polygons

