# 3ds Max Wavefront OBJ Exporter v0.97b - (c)2007 guruware
# File Created: 04.10.2018 19:36:01

mtllib 893145-03B.mtl

#
# object default005
#

v  -8.2293 0.0000 -5.5319
v  -8.9364 0.0000 -5.8248
v  -8.9364 2.0000 -4.8250
v  -8.9360 2.0000 -4.8360
v  -7.9364 0.0000 -4.8248
v  -8.9130 2.0000 -4.8133
v  -8.2293 0.0000 -4.1177
v  -8.9310 2.0000 -4.8360
v  -8.9364 0.0000 -3.8248
v  -9.6435 0.0000 -4.1177
v  -8.9360 2.0000 -4.8250
v  -9.9364 0.0000 -4.8248
v  -8.9360 2.0000 -4.8248
v  -8.9364 2.0000 -4.8248
v  -9.6435 0.0000 -5.5319
v  -8.9364 0.0000 -4.8248
# 16 vertices

vn 0.3364 0.4173 -0.8442
vn 0.8349 0.4152 -0.3614
vn 0.8287 0.4142 0.3764
vn 0.3559 0.4209 0.8344
vn -0.3476 0.4195 0.8386
vn -0.8386 0.4195 0.3475
vn 0.0000 1.0000 -0.0000
vn -0.8409 0.4187 -0.3429
vn -0.3367 0.4174 -0.8441
vn 0.0000 -1.0000 -0.0000
# 10 vertex normals

g default005
usemtl _03Material_001
s off
f 1//1 2//1 3//1 4//1 
f 5//2 1//2 4//2 6//2 
f 7//3 5//3 6//3 8//3 
f 9//4 7//4 8//4 3//4 
f 10//5 9//5 3//5 11//5 
f 12//6 10//6 11//6 13//6 
f 11//7 3//7 14//7 13//7 
f 15//8 12//8 13//8 4//8 
f 2//9 15//9 4//9 3//9 
f 7//10 9//10 16//10 5//10 
f 14//10 3//10 4//10 13//10 
f 8//10 6//10 14//10 3//10 
f 14//7 6//7 4//7 3//7 
f 10//10 12//10 16//10 9//10 
f 16//10 12//10 15//10 2//10 
f 16//10 2//10 1//10 5//10 
# 16 polygons

