# 3ds Max Wavefront OBJ Exporter v0.97b - (c)2007 guruware
# File Created: 04.10.2018 14:11:07

mtllib 893152-01B.mtl

#
# object default002
#

v  4.8255 0.0444 -1.0000
v  5.2255 0.0444 -1.0000
v  5.2255 0.0444 1.0000
v  4.8255 0.0444 1.0000
v  3.2255 0.0444 -1.0000
v  3.6255 0.0444 -1.0000
v  3.6255 0.0444 1.0000
v  3.2255 0.0444 1.0000
v  4.0255 0.0444 -1.0000
v  4.0255 0.0444 1.0000
v  4.4255 0.0444 -1.0000
v  4.4255 0.0444 1.0000
v  5.2255 1.0000 1.0000
v  5.2255 1.0000 -1.0000
v  4.8255 1.2049 -1.0000
v  4.8255 1.2049 1.0000
v  3.6255 1.8049 1.0000
v  3.6255 1.8049 -1.0000
v  3.2255 2.0000 -1.0000
v  3.2255 2.0000 1.0000
v  4.0255 1.6049 1.0000
v  4.0255 1.6049 -1.0000
v  4.4255 1.4049 1.0000
v  4.4255 1.4049 -1.0000
# 24 vertices

vn 0.0000 -1.0000 -0.0000
vn 0.8177 0.5757 -0.0000
vn -0.4021 0.9156 -0.0000
vn 0.6684 0.7438 -0.0000
vn 0.7191 0.6949 -0.0000
vn -0.3785 0.9256 -0.0000
vn 0.0000 0.0000 1.0000
vn 1.0000 0.0000 -0.0000
vn 0.0000 0.0000 -1.0000
vn -1.0000 0.0000 -0.0000
# 10 vertex normals

vt 0.8000 1.0000 0.0000
vt 1.0000 1.0000 0.0000
vt 1.0000 0.0000 0.0000
vt 0.8000 0.0000 0.0000
vt 0.0000 1.0000 0.0000
vt 0.2000 1.0000 0.0000
vt 0.2000 0.0000 0.0000
vt 0.0000 0.0000 0.0000
vt 0.4000 1.0000 0.0000
vt 0.4000 0.0000 0.0000
vt 0.6000 1.0000 0.0000
vt 0.6000 0.0000 0.0000
# 12 texture coords

g default002
usemtl None
s off
f 1/1/1 2/2/1 3/3/1 4/4/1 
f 5/5/1 6/6/1 7/7/1 8/8/1 
f 6/6/1 9/9/1 10/10/1 7/7/1 
f 9/9/1 11/11/1 12/12/1 10/10/1 
f 11/11/1 1/1/1 4/4/1 12/12/1 
f 13/3/2 14/2/2 15/1/2 16/4/2 
f 17/7/3 18/6/3 19/5/3 20/8/3 
f 21/10/4 22/9/4 18/6/4 17/7/4 
f 23/12/5 24/11/5 22/9/5 21/10/5 
f 16/4/6 15/1/6 24/11/6 23/12/6 
f 7/7/7 10/10/7 21/10/7 17/7/7 
f 2/2/8 14/2/8 13/3/8 3/3/8 
f 1/1/9 11/11/9 24/11/9 15/1/9 
f 10/10/7 12/12/7 23/12/7 21/10/7 
f 6/6/9 5/5/9 19/5/9 18/6/9 
f 9/9/9 22/9/9 24/11/9 11/11/9 
f 8/8/10 20/8/10 19/5/10 5/5/10 
f 4/4/7 16/4/7 23/12/7 12/12/7 
f 7/7/7 17/7/7 20/8/7 8/8/7 
f 6/6/9 18/6/9 22/9/9 9/9/9 
f 4/4/7 3/3/7 13/3/7 16/4/7 
f 1/1/9 15/1/9 14/2/9 2/2/9 
# 22 polygons

