# 3ds Max Wavefront OBJ Exporter v0.97b - (c)2007 guruware
# File Created: 10.10.2018 19:16:24

mtllib 893213_02.mtl

#
# object default002
#

v  5.3126 0.7619 -11.7816
v  5.3373 0.7640 -10.7069
v  5.6113 1.3506 -10.9809
v  5.5992 1.3521 -11.5076
v  6.1500 1.3521 -11.5076
v  5.7626 2.0676 -11.3562
v  5.9866 2.0676 -11.3562
v  6.4119 0.7640 -10.7069
v  6.4366 0.7619 -11.7816
v  6.1379 1.3506 -10.9809
v  5.9866 2.0676 -11.1323
v  5.7626 2.0676 -11.1323
v  6.8746 0.0000 -12.2443
v  6.8746 0.0000 -10.2443
v  4.8746 0.0000 -10.2443
v  4.8746 0.0000 -12.2443
# 16 vertices

vn -1.0000 0.0000 -0.0000
vn 0.0000 0.0000 -1.0000
vn 1.0000 0.0000 -0.0000
vn 0.0000 0.0000 1.0000
vn 0.0000 -1.0000 -0.0000
vn 0.0000 1.0000 -0.0000
# 6 vertex normals

vt 0.0000 0.0000 0.0000
# 1 texture coords

g default002
usemtl _consegna_11_ottobre_02None
s off
f 1/1/1 2/1/1 3/1/1 4/1/1 
f 5/1/2 4/1/2 6/1/2 7/1/2 
f 8/1/3 9/1/3 5/1/3 10/1/3 
f 3/1/4 10/1/4 11/1/4 12/1/4 
f 13/1/3 9/1/3 8/1/3 14/1/3 
f 14/1/5 15/1/5 16/1/5 13/1/5 
f 10/1/3 5/1/3 7/1/3 11/1/3 
f 16/1/1 15/1/1 2/1/1 1/1/1 
f 4/1/1 3/1/1 12/1/1 6/1/1 
f 2/1/4 15/1/4 14/1/4 8/1/4 
f 8/1/4 10/1/4 3/1/4 2/1/4 
f 1/1/2 9/1/2 13/1/2 16/1/2 
f 9/1/2 1/1/2 4/1/2 5/1/2 
f 11/1/6 7/1/6 6/1/6 12/1/6 
# 14 polygons

#
# object default004
#

v  -5.7233 0.6667 -11.9921
v  -5.7233 0.6667 -10.6926
v  -5.7233 1.3333 -11.0594
v  -5.7233 1.3333 -11.6188
v  -3.7233 1.3333 -11.6188
v  -5.7291 2.0000 -11.4632
v  -3.7176 2.0000 -11.4632
v  -3.7233 0.6667 -10.6926
v  -3.7233 0.6667 -11.9921
v  -3.7233 1.3333 -11.0594
v  -3.7176 2.0000 -11.2782
v  -5.7291 2.0000 -11.2782
v  -3.7233 0.0000 -12.7803
v  -3.7233 0.0000 -10.0158
v  -5.7233 0.0000 -10.0158
v  -5.7233 0.0000 -12.7803
# 16 vertices

vn -1.0000 0.0000 -0.0000
vn 0.0000 0.0000 -1.0000
vn 1.0000 0.0000 -0.0000
vn 0.0000 0.0000 1.0000
vn 0.0000 -1.0000 -0.0000
vn 0.0000 1.0000 -0.0000
# 6 vertex normals

vt 0.0000 0.0000 0.0000
# 1 texture coords

g default004
usemtl _consegna_11_ottobre_02None
s off
f 17/2/7 18/2/7 19/2/7 20/2/7 
f 21/2/8 20/2/8 22/2/8 23/2/8 
f 24/2/9 25/2/9 21/2/9 26/2/9 
f 19/2/10 26/2/10 27/2/10 28/2/10 
f 29/2/9 25/2/9 24/2/9 30/2/9 
f 30/2/11 31/2/11 32/2/11 29/2/11 
f 26/2/9 21/2/9 23/2/9 27/2/9 
f 32/2/7 31/2/7 18/2/7 17/2/7 
f 20/2/7 19/2/7 28/2/7 22/2/7 
f 18/2/10 31/2/10 30/2/10 24/2/10 
f 24/2/10 26/2/10 19/2/10 18/2/10 
f 17/2/8 25/2/8 29/2/8 32/2/8 
f 25/2/8 17/2/8 20/2/8 21/2/8 
f 27/2/12 23/2/12 22/2/12 28/2/12 
# 14 polygons

#
# object default
#

v  -0.4374 0.6667 -10.2760
v  -0.4374 1.3333 -10.2760
v  -0.4374 1.3333 -12.2760
v  -0.4374 0.6667 -12.2760
v  1.5626 1.3333 -12.2760
v  -0.4374 2.0000 -12.2760
v  1.5626 2.0000 -12.2760
v  1.5626 0.6667 -12.2760
v  1.5626 1.3333 -10.2760
v  1.5626 0.6667 -10.2760
v  1.5626 2.0000 -10.2760
v  -0.4374 2.0000 -10.2760
v  1.5626 0.0000 -12.2760
v  1.5626 0.0000 -10.2760
v  -0.4374 0.0000 -10.2760
v  -0.4374 0.0000 -12.2760
# 16 vertices

vn -1.0000 0.0000 -0.0000
vn 0.0000 0.0000 -1.0000
vn 1.0000 0.0000 -0.0000
vn 0.0000 0.0000 1.0000
vn 0.0000 -1.0000 -0.0000
vn 0.0000 1.0000 -0.0000
# 6 vertex normals

g default
usemtl _02None
s off
f 33//13 34//13 35//13 36//13 
f 37//14 35//14 38//14 39//14 
f 40//15 37//15 41//15 42//15 
f 34//16 41//16 43//16 44//16 
f 45//15 40//15 42//15 46//15 
f 47//17 48//17 45//17 46//17 
f 41//15 37//15 39//15 43//15 
f 47//13 33//13 36//13 48//13 
f 35//13 34//13 44//13 38//13 
f 47//16 46//16 42//16 33//16 
f 33//16 42//16 41//16 34//16 
f 45//14 48//14 36//14 40//14 
f 40//14 36//14 35//14 37//14 
f 43//18 39//18 38//18 44//18 
# 14 polygons

