# 3ds Max Wavefront OBJ Exporter v0.97b - (c)2007 guruware
# File Created: 12.10.2018 17:33:21

mtllib 893213_03A.mtl

#
# object default005
#

#
# object default007
#

v  4.3332 2.0000 -2.3851
v  5.0403 2.0000 -2.0922
v  5.3332 0.0000 -2.3851
v  4.3332 0.0000 -2.3851
v  5.3332 0.0000 -1.3851
v  5.3332 2.0000 -1.3851
v  5.0403 2.0000 -0.6780
v  5.3332 0.0000 -0.3851
v  4.3332 0.0000 -0.3851
v  4.3332 2.0000 -0.3851
v  3.3332 0.0000 -0.3851
v  3.6261 2.0000 -0.6780
v  3.3332 2.0000 -1.3851
v  3.3332 0.0000 -1.3851
v  4.3332 2.0000 -1.3851
v  3.6261 2.0000 -2.0922
v  3.3332 0.0000 -2.3851
v  4.3332 0.0000 -1.3851
# 18 vertices

vn 0.3827 0.0000 -0.9239
vn 0.9239 0.0000 -0.3827
vn 0.9239 0.0000 0.3827
vn 0.3827 0.0000 0.9239
vn -0.3827 0.0000 0.9239
vn -0.9239 0.0000 0.3827
vn 0.0000 1.0000 -0.0000
vn -0.9239 0.0000 -0.3827
vn -0.3827 0.0000 -0.9239
vn 0.0000 -1.0000 -0.0000
# 10 vertex normals

vt 0.0000 0.0000 0.0000
# 1 texture coords

g default007
usemtl _893213_03_consegna_11_ottobre_03Material_001
s off
f 1/1/1 2/1/1 3/1/1 4/1/1 
f 5/1/2 3/1/2 2/1/2 6/1/2 
f 6/1/3 7/1/3 8/1/3 5/1/3 
f 9/1/4 8/1/4 7/1/4 10/1/4 
f 11/1/5 9/1/5 10/1/5 12/1/5 
f 12/1/6 13/1/6 14/1/6 11/1/6 
f 10/1/7 15/1/7 13/1/7 12/1/7 
f 16/1/8 17/1/8 14/1/8 13/1/8 
f 4/1/9 17/1/9 16/1/9 1/1/9 
f 5/1/10 8/1/10 9/1/10 18/1/10 
f 13/1/7 15/1/7 1/1/7 16/1/7 
f 10/1/7 7/1/7 6/1/7 15/1/7 
f 1/1/7 15/1/7 6/1/7 2/1/7 
f 11/1/10 14/1/10 18/1/10 9/1/10 
f 4/1/10 18/1/10 14/1/10 17/1/10 
f 5/1/10 18/1/10 4/1/10 3/1/10 
# 16 polygons

