# 3ds Max Wavefront OBJ Exporter v0.97b - (c)2007 guruware
# File Created: 09.10.2018 21:59:30

mtllib 893327-03B.mtl

#
# object default
#

v  1.0965 2.0000 0.5237
v  1.1221 2.0000 0.5343
v  1.8036 0.0000 -0.1473
v  1.0965 0.0000 -0.4401
v  1.1327 2.0000 0.5599
v  2.0965 0.0000 0.5599
v  1.1221 2.0000 0.5855
v  1.8036 0.0000 1.2670
v  1.0965 2.0000 0.5961
v  1.0965 0.0000 1.5599
v  1.0709 2.0000 0.5855
v  0.3893 0.0000 1.2670
v  1.0602 2.0000 0.5599
v  0.0965 0.0000 0.5599
v  1.0965 2.0000 0.5599
v  1.0709 2.0000 0.5343
v  0.3893 0.0000 -0.1473
v  1.0965 0.0000 0.5599
# 18 vertices

vn 0.3827 0.0000 -0.9239
vn 0.9239 0.0000 -0.3827
vn 0.9239 0.0000 0.3827
vn 0.3827 0.0000 0.9239
vn -0.3827 0.0000 0.9239
vn -0.9239 0.0000 0.3827
vn 0.0000 1.0000 -0.0000
vn -0.9239 0.0000 -0.3827
vn -0.3827 0.0000 -0.9239
vn 0.0000 -1.0000 -0.0000
# 10 vertex normals

g default
usemtl _03Material_001
s off
f 1//1 2//1 3//1 4//1 
f 2//2 5//2 6//2 3//2 
f 5//3 7//3 8//3 6//3 
f 7//4 9//4 10//4 8//4 
f 9//5 11//5 12//5 10//5 
f 11//6 13//6 14//6 12//6 
f 15//7 13//7 11//7 9//7 
f 13//8 16//8 17//8 14//8 
f 16//9 1//9 4//9 17//9 
f 18//10 6//10 8//10 10//10 
f 16//7 13//7 15//7 1//7 
f 15//7 9//7 7//7 5//7 
f 2//7 1//7 15//7 5//7 
f 18//10 10//10 12//10 14//10 
f 17//10 4//10 18//10 14//10 
f 3//10 6//10 18//10 4//10 
# 16 polygons

