# 3ds Max Wavefront OBJ Exporter v0.97b - (c)2007 guruware
# File Created: 16.10.2018 18:39:39

mtllib es1.mtl

#
# object default
#

v  -0.3132 0.0000 1.3791
v  -0.5264 0.0000 1.0406
v  1.1659 0.0000 -0.0253
v  1.3791 0.0000 0.3132
v  -1.1659 0.0000 0.0253
v  -1.3791 0.0000 -0.3132
v  0.3132 0.0000 -1.3791
v  0.5264 0.0000 -1.0406
v  -0.9527 0.0000 0.3637
v  0.7395 0.0000 -0.7022
v  -0.7395 0.0000 0.7022
v  0.9527 0.0000 -0.3637
v  1.1659 1.6916 -0.0253
v  -0.5264 1.6916 1.0406
v  -0.3132 1.6907 1.3791
v  1.3791 1.6907 0.3132
v  0.3132 1.6923 -1.3791
v  -1.3791 1.6923 -0.3132
v  -1.1659 1.6925 0.0253
v  0.5264 1.6925 -1.0406
v  -0.9527 1.6920 0.3637
v  0.7395 1.6920 -0.7022
v  -0.7395 1.6913 0.7022
v  0.9527 1.6913 -0.3637
# 24 vertices

vn 0.0000 -1.0000 -0.0000
vn 0.0012 1.0000 0.0019
vn -0.0004 1.0000 -0.0006
vn 0.0007 1.0000 0.0012
vn 0.0009 1.0000 0.0014
vn -0.0003 1.0000 -0.0005
vn -0.8461 0.0000 0.5330
vn 0.5330 0.0000 0.8461
vn 0.8461 0.0000 -0.5330
vn -0.5330 0.0000 -0.8461
# 10 vertex normals

vt 1.0000 0.0000 0.0000
vt 0.8000 0.0000 0.0000
vt 0.8000 1.0000 0.0000
vt 1.0000 1.0000 0.0000
vt 0.2000 0.0000 0.0000
vt 0.0000 0.0000 0.0000
vt 0.0000 1.0000 0.0000
vt 0.2000 1.0000 0.0000
vt 0.4000 0.0000 0.0000
vt 0.4000 1.0000 0.0000
vt 0.6000 0.0000 0.0000
vt 0.6000 1.0000 0.0000
# 12 texture coords

g default
usemtl _01None
s off
f 1/1/1 2/2/1 3/3/1 4/4/1 
f 5/5/1 6/6/1 7/7/1 8/8/1 
f 9/9/1 5/5/1 8/8/1 10/10/1 
f 11/11/1 9/9/1 10/10/1 12/12/1 
f 2/2/1 11/11/1 12/12/1 3/3/1 
f 13/3/2 14/2/2 15/1/2 16/4/2 
f 17/7/3 18/6/3 19/5/3 20/8/3 
f 20/8/4 19/5/4 21/9/4 22/10/4 
f 22/10/5 21/9/5 23/11/5 24/12/5 
f 24/12/6 23/11/6 14/2/6 13/3/6 
f 21/9/7 19/5/7 5/5/7 9/9/7 
f 15/1/8 1/1/8 4/4/8 16/4/8 
f 24/12/9 13/3/9 3/3/9 12/12/9 
f 23/11/7 21/9/7 9/9/7 11/11/7 
f 17/7/9 20/8/9 8/8/9 7/7/9 
f 24/12/9 12/12/9 10/10/9 22/10/9 
f 17/7/10 7/7/10 6/6/10 18/6/10 
f 23/11/7 11/11/7 2/2/7 14/2/7 
f 18/6/7 6/6/7 5/5/7 19/5/7 
f 22/10/9 10/10/9 8/8/9 20/8/9 
f 15/1/7 14/2/7 2/2/7 1/1/7 
f 16/4/9 4/4/9 3/3/9 13/3/9 
# 22 polygons

