# 3ds Max Wavefront OBJ Exporter v0.97b - (c)2007 guruware
# File Created: 10.10.2018 14:18:10

mtllib 895644-02A.mtl

#
# object default
#

#
# object default001
#

v  -0.1571 0.5903 2.6036
v  0.2072 1.3775 2.2393
v  0.2072 1.3775 1.8776
v  -0.1571 0.5903 1.5134
v  0.5689 1.3775 1.8776
v  0.2854 2.0322 1.9558
v  0.4907 2.0322 1.9558
v  0.9331 0.5903 1.5134
v  0.5689 1.3775 2.2393
v  0.9331 0.5903 2.6036
v  0.4907 2.0322 2.1611
v  0.2854 2.0322 2.1611
v  1.3880 0.0000 1.0585
v  1.3880 0.0000 3.0585
v  -0.6120 0.0000 3.0585
v  -0.6120 0.0000 1.0585
# 16 vertices

vn -1.0000 0.0000 -0.0000
vn 0.0000 0.0000 -1.0000
vn 1.0000 0.0000 -0.0000
vn 0.0000 0.0000 1.0000
vn 0.0000 -1.0000 -0.0000
vn 0.0000 1.0000 -0.0000
# 6 vertex normals

g default001
usemtl _02None
s off
f 1//1 2//1 3//1 4//1 
f 5//2 3//2 6//2 7//2 
f 8//3 5//3 9//3 10//3 
f 2//4 9//4 11//4 12//4 
f 13//3 8//3 10//3 14//3 
f 15//5 16//5 13//5 14//5 
f 9//3 5//3 7//3 11//3 
f 15//1 1//1 4//1 16//1 
f 3//1 2//1 12//1 6//1 
f 15//4 14//4 10//4 1//4 
f 1//4 10//4 9//4 2//4 
f 13//2 16//2 4//2 8//2 
f 8//2 4//2 3//2 5//2 
f 11//6 7//6 6//6 12//6 
# 14 polygons

