# 3ds Max Wavefront OBJ Exporter v0.97b - (c)2007 guruware
# File Created: 10.10.2018 23:18:05

mtllib 02B.mtl

#
# object default
#

v  -0.0817 2.3602 -0.9304
v  -0.2353 1.2604 -0.9304
v  -0.2353 1.2604 1.0696
v  -0.0817 2.3602 1.0696
v  -0.0228 3.3691 -0.9304
v  0.2078 3.3691 -0.9304
v  0.2667 2.3602 -0.9304
v  0.2667 2.3602 1.0696
v  0.4203 1.2604 1.0696
v  0.4203 1.2604 -0.9304
v  0.2078 3.3691 1.0696
v  -0.0228 3.3691 1.0696
v  1.0925 0.0000 1.0696
v  1.0925 0.0000 -0.9304
v  -0.9075 0.0000 1.0696
v  -0.9075 0.0000 -0.9304
# 16 vertices

vn -1.0000 0.0000 -0.0000
vn 0.0000 0.0000 -1.0000
vn 1.0000 0.0000 -0.0000
vn 0.0000 0.0000 1.0000
vn 0.0000 -1.0000 -0.0000
vn 0.0000 1.0000 -0.0000
# 6 vertex normals

g default
usemtl _02None
s off
f 1//1 2//1 3//1 4//1 
f 5//2 6//2 7//2 1//2 
f 8//3 9//3 10//3 7//3 
f 11//4 12//4 4//4 8//4 
f 9//3 13//3 14//3 10//3 
f 14//5 13//5 15//5 16//5 
f 6//3 11//3 8//3 7//3 
f 2//1 16//1 15//1 3//1 
f 12//1 5//1 1//1 4//1 
f 9//4 3//4 15//4 13//4 
f 8//4 4//4 3//4 9//4 
f 2//2 10//2 14//2 16//2 
f 1//2 7//2 10//2 2//2 
f 5//6 12//6 11//6 6//6 
# 14 polygons

