# 3ds Max Wavefront OBJ Exporter v0.97b - (c)2007 guruware
# File Created: 10.10.2018 21:53:58

mtllib 913553-01A.mtl

#
# object default
#

v  -1.0363 0.0000 9.3304
v  -1.4363 0.0000 9.3304
v  -1.4363 0.0000 7.3304
v  -1.0363 0.0000 7.3304
v  -2.6363 0.0000 9.3304
v  -3.0363 0.0000 9.3304
v  -3.0363 0.0000 7.3304
v  -2.6363 0.0000 7.3304
v  -2.2363 0.0000 9.3304
v  -2.2363 0.0000 7.3304
v  -1.8363 0.0000 9.3304
v  -1.8363 0.0000 7.3304
v  -1.4337 1.4678 7.3305
v  -1.4308 1.4719 9.3305
v  -1.0363 1.4711 9.3304
v  -1.0363 1.4680 7.3304
v  -3.0363 1.4672 7.3304
v  -3.0363 1.4742 9.3304
v  -2.6251 1.4740 9.3321
v  -2.6336 1.4667 7.3307
v  -2.2361 1.4728 9.3324
v  -2.2415 1.4678 7.3300
v  -1.8363 1.4726 9.3316
v  -1.8493 1.4673 7.3294
# 24 vertices

vn 0.0000 -1.0000 -0.0000
vn 0.8177 0.5757 -0.0000
vn -0.4021 0.9156 -0.0000
vn 0.6684 0.7438 -0.0000
vn 0.7191 0.6949 -0.0000
vn -0.3785 0.9256 -0.0000
vn 0.0000 0.0000 1.0000
vn 1.0000 0.0000 -0.0000
vn 0.0000 0.0000 -1.0000
vn -1.0000 0.0000 -0.0000
# 10 vertex normals

vt 1.0000 0.0000 0.0000
vt 0.8000 0.0000 0.0000
vt 0.8000 1.0000 0.0000
vt 1.0000 1.0000 0.0000
vt 0.2000 0.0000 0.0000
vt 0.0000 0.0000 0.0000
vt 0.0000 1.0000 0.0000
vt 0.2000 1.0000 0.0000
vt 0.4000 0.0000 0.0000
vt 0.4000 1.0000 0.0000
vt 0.6000 0.0000 0.0000
vt 0.6000 1.0000 0.0000
# 12 texture coords

g default
usemtl _01None
s off
f 1/1/1 2/2/1 3/3/1 4/4/1 
f 5/5/1 6/6/1 7/7/1 8/8/1 
f 9/9/1 5/5/1 8/8/1 10/10/1 
f 11/11/1 9/9/1 10/10/1 12/12/1 
f 2/2/1 11/11/1 12/12/1 3/3/1 
f 13/3/2 14/2/2 15/1/2 16/4/2 
f 17/7/3 18/6/3 19/5/3 20/8/3 
f 20/8/4 19/5/4 21/9/4 22/10/4 
f 22/10/5 21/9/5 23/11/5 24/12/5 
f 24/12/6 23/11/6 14/2/6 13/3/6 
f 21/9/7 19/5/7 5/5/7 9/9/7 
f 15/1/8 1/1/8 4/4/8 16/4/8 
f 24/12/9 13/3/9 3/3/9 12/12/9 
f 23/11/7 21/9/7 9/9/7 11/11/7 
f 17/7/9 20/8/9 8/8/9 7/7/9 
f 24/12/9 12/12/9 10/10/9 22/10/9 
f 17/7/10 7/7/10 6/6/10 18/6/10 
f 23/11/7 11/11/7 2/2/7 14/2/7 
f 18/6/7 6/6/7 5/5/7 19/5/7 
f 22/10/9 10/10/9 8/8/9 20/8/9 
f 15/1/7 14/2/7 2/2/7 1/1/7 
f 16/4/9 4/4/9 3/3/9 13/3/9 
# 22 polygons

