# Blender v2.79 (sub 0) OBJ File: ''
# www.blender.org
mtllib 914157-03C.mtl
o Cylinder.001
v 0.000000 -0.000000 -0.995813
v 0.000000 2.000000 -0.995813
v 0.707107 2.000000 -0.702920
v 1.000000 -0.000000 -0.995813
v 1.000000 1.999999 0.004187
v 1.000000 -0.000001 0.004187
v 0.707107 1.999999 0.711294
v 1.000000 -0.000001 1.004187
v 0.000000 1.999999 1.004187
v 0.000000 -0.000001 1.004187
v -0.707107 1.999999 0.711294
v -1.000000 -0.000001 1.004187
v -1.000000 1.999999 0.004187
v -1.000000 -0.000001 0.004187
v 0.000000 1.999999 0.004187
v -0.707107 2.000000 -0.702920
v -1.000000 -0.000000 -0.995813
v 0.000000 -0.000001 0.004187
vn 0.1685 0.0843 -0.9821
vn 0.9821 0.0843 -0.1685
vn 0.9821 0.0843 0.1685
vn 0.1685 0.0843 0.9821
vn -0.1685 0.0843 0.9821
vn -0.9821 0.0843 0.1685
vn 0.0000 1.0000 0.0000
vn -0.9821 0.0843 -0.1685
vn -0.1685 0.0843 -0.9821
vn 0.0000 -1.0000 -0.0000
usemtl Material.002
s 1
f 1//1 2//1 3//1 4//1
f 4//2 3//2 5//2 6//2
f 6//3 5//3 7//3 8//3
f 8//4 7//4 9//4 10//4
f 10//5 9//5 11//5 12//5
f 12//6 11//6 13//6 14//6
f 15//7 13//7 11//7 9//7
f 14//8 13//8 16//8 17//8
f 17//9 16//9 2//9 1//9
f 18//10 6//10 8//10 10//10
f 2//7 16//7 13//7 15//7
f 5//7 15//7 9//7 7//7
f 3//7 2//7 15//7 5//7
f 14//10 18//10 10//10 12//10
f 17//10 1//10 18//10 14//10
f 1//10 4//10 6//10 18//10
o Cylinder
v 0.000000 0.000001 -1.149283
v 0.000000 2.000001 -0.149282
v 0.707107 0.000001 -0.856390
v 1.000000 0.000001 -0.149283
v 0.707107 0.000001 0.557824
v 0.000000 0.000000 0.850717
v -0.707107 0.000001 0.557824
v -1.000000 0.000001 -0.149283
v -0.707107 0.000001 -0.856390
v 0.000000 0.000001 -0.149283
vn 0.3474 0.4194 -0.8387
vn 0.8387 0.4194 -0.3474
vn 0.8387 0.4194 0.3474
vn 0.3474 0.4194 0.8387
vn -0.3474 0.4194 0.8387
vn -0.8387 0.4194 0.3474
vn -0.8387 0.4194 -0.3474
vn -0.3474 0.4194 -0.8387
vn 0.0000 -1.0000 -0.0000
usemtl Material.001
s 1
f 19//11 20//11 21//11
f 21//12 20//12 22//12
f 22//13 20//13 23//13
f 23//14 20//14 24//14
f 24//15 20//15 25//15
f 25//16 20//16 26//16
f 26//17 20//17 27//17
f 27//18 20//18 19//18
f 28//19 22//19 23//19 24//19
f 26//19 28//19 24//19 25//19
f 27//19 19//19 28//19 26//19
f 19//19 21//19 22//19 28//19
o Cylinder.002
v -0.575713 0.200000 -0.707107
v -0.575713 1.805759 -0.707107
v 0.131395 1.805759 -1.000000
v 0.131395 0.200000 -1.000000
v 0.838501 0.200000 0.707107
v 0.838501 1.805758 0.707107
v 0.131395 1.805758 1.000000
v 0.131395 0.200000 1.000000
v 1.131395 0.200000 0.000000
v 1.131395 1.805758 0.000000
v 0.838501 0.200000 -0.707107
v 0.838501 1.805759 -0.707107
v -0.575713 1.805758 0.707107
v -0.575713 0.200000 0.707107
v 0.338341 2.000000 0.000000
v 0.277727 2.000000 -0.146332
v 0.161677 2.000000 -0.030282
v 0.174221 2.000000 0.000000
v -0.868605 0.200000 0.000000
v -0.868605 1.805758 0.000000
v 0.131395 0.000000 0.000000
v 1.131395 0.000000 0.000000
v 0.838501 -0.000000 0.707107
v 0.131395 -0.000000 1.000000
v 0.277727 2.000000 0.146333
v 0.161677 2.000000 0.030283
v -0.014938 2.000000 -0.146332
v -0.075551 2.000000 0.000000
v 0.088568 2.000000 0.000000
v 0.101112 2.000000 -0.030282
v 0.131395 2.000000 -0.206945
v 0.131395 2.000000 -0.042826
v -0.868605 0.000000 0.000000
v -0.575713 -0.000000 0.707107
v -0.575713 0.000000 -0.707107
v 0.131395 0.000000 -1.000000
v 0.838501 0.000000 -0.707107
v -0.565127 1.823398 0.696522
v -0.014938 2.000000 0.146333
v -0.853636 1.823398 0.000000
v -0.565127 1.823398 -0.696522
v 0.131395 1.823398 0.985031
v 0.131395 2.000000 0.206946
v 0.827917 1.823398 0.696522
v 1.116425 1.823398 0.000000
v 0.827917 1.823398 -0.696522
v 0.131395 1.823398 -0.985030
v 0.277727 2.000000 -0.146332
v 0.338341 2.000000 0.000000
v 0.101112 2.000000 0.030283
v -0.014938 2.000000 0.146333
v -0.075551 2.000000 0.000000
v -0.014938 2.000000 -0.146332
v 0.131395 2.000000 -0.206945
v 0.131395 2.000000 0.042827
v 0.131395 2.000000 -0.206945
v 0.277727 2.000000 -0.146332
v 0.131395 2.000000 0.206946
v 0.131395 2.000000 0.206946
v -0.014938 2.000000 0.146333
v 0.277727 2.000000 0.146333
v 0.338341 2.000000 0.000000
v 0.277727 2.000000 0.146333
v -0.075551 2.000000 0.000000
v -0.014938 2.000000 -0.146332
v 0.277727 2.234787 0.146333
v 0.131395 2.234787 0.206946
v 0.277727 2.234787 -0.146332
v 0.338341 2.234787 0.000000
v -0.014938 2.234787 0.146333
v -0.075551 2.234787 0.000000
v -0.014938 2.234787 -0.146332
v 0.131395 2.234787 -0.206945
v 0.397967 2.234788 -0.266572
v 0.508385 2.234788 0.000000
v -0.135178 2.234788 0.266573
v -0.245596 2.234788 0.000000
v -0.135178 2.234788 -0.266572
v 0.131395 2.234788 -0.376990
v -0.135178 2.234788 0.266573
v -0.245596 2.234788 0.000000
v -0.135178 2.234788 -0.266572
v 0.131395 2.234788 -0.376990
v 0.397967 2.234788 -0.266572
v 0.131395 2.234788 0.376991
v 0.131395 2.234788 0.376991
v 0.397967 2.234788 0.266573
v 0.131395 2.442066 0.376991
v -0.135178 2.442066 0.266573
v 0.397967 2.234788 0.266573
v 0.508385 2.234788 0.000000
v 0.508385 2.442066 0.000000
v 0.397967 2.442066 0.266573
v -0.245596 2.442066 0.000000
v -0.135178 2.442066 -0.266572
v 0.131395 2.442066 0.000000
v 0.131395 2.442066 -0.376990
v 0.397967 2.442066 -0.266572
vn -0.3827 0.0000 -0.9239
vn -0.3653 0.2980 -0.8819
vn 0.3827 -0.0000 0.9239
vn 0.3653 0.2980 0.8819
vn 0.9239 -0.0000 0.3827
vn 0.8819 0.2980 0.3653
vn 0.9239 -0.0000 -0.3827
vn 0.8819 0.2980 -0.3653
vn -0.3827 -0.0000 0.9239
vn -0.3653 0.2980 0.8819
vn 0.0000 1.0000 0.0000
vn -0.9239 -0.0000 -0.3827
vn -0.8819 0.2980 -0.3653
vn 0.3827 0.0000 -0.9239
vn 0.3653 0.2980 -0.8819
vn 0.0000 -1.0000 -0.0000
vn -0.9239 0.0000 0.3827
vn -0.8819 0.2980 0.3653
vn -0.5561 0.7986 0.2303
vn -0.2204 0.9711 0.0913
vn -0.5561 0.7986 -0.2303
vn -0.2204 0.9711 -0.0913
vn -0.2303 0.7986 0.5561
vn -0.0913 0.9711 0.2204
vn 0.2303 0.7986 0.5561
vn 0.0913 0.9711 0.2204
vn 0.5561 0.7986 0.2303
vn 0.2204 0.9711 0.0913
vn 0.5561 0.7986 -0.2303
vn 0.2204 0.9711 -0.0913
vn 0.2303 0.7986 -0.5561
vn 0.0913 0.9711 -0.2204
vn 0.0000 0.0000 1.0000
vn 0.7071 -0.0000 0.7071
vn 1.0000 0.0000 -0.0000
vn 0.7071 0.0000 -0.7071
vn -1.0000 0.0000 -0.0000
vn -0.7071 -0.0000 0.7071
vn 0.0000 0.0000 -1.0000
vn -0.7071 0.0000 -0.7071
vn -0.2303 0.7986 -0.5561
vn -0.0913 0.9711 -0.2204
usemtl Material.003
s 1
f 29//20 30//21 31//21 32//20
f 33//22 34//23 35//23 36//22
f 37//24 38//25 34//25 33//24
f 39//26 40//27 38//27 37//26
f 36//28 35//29 41//29 42//28
f 43//30 44//30 45//30 46//30
f 47//31 48//32 30//32 29//31
f 32//33 31//34 40//34 39//33
f 49//35 50//35 51//35 52//35
f 53//30 43//30 46//30 54//30
f 55//30 56//30 57//30 58//30
f 59//30 55//30 58//30 60//30
f 61//35 49//35 52//35 62//35
f 63//35 64//35 49//35 61//35
f 64//35 65//35 50//35 49//35
f 63//20 29//20 32//20 64//20
f 61//31 47//31 29//31 63//31
f 62//36 42//36 47//36 61//36
f 52//28 36//28 42//28 62//28
f 51//22 33//22 36//22 52//22
f 50//24 37//24 33//24 51//24
f 65//26 39//26 37//26 50//26
f 64//33 32//33 39//33 65//33
f 42//36 41//37 48//37 47//36
f 66//38 67//39 56//39 68//38
f 68//40 56//41 55//41 69//40
f 70//42 71//43 67//43 66//42
f 72//44 53//45 71//45 70//44
f 73//46 43//47 53//47 72//46
f 74//48 44//49 43//49 73//48
f 75//50 59//51 44//51 74//50
f 46//35 45//35 76//35 77//35
f 57//35 78//35 79//35 80//35
f 60//35 58//35 81//35 82//35
f 45//35 60//35 82//35 76//35
f 56//30 67//30 78//30 57//30
f 44//30 59//30 60//30 45//30
f 71//30 53//30 54//30 83//30
f 67//30 71//30 83//30 78//30
f 76//52 82//52 84//52 85//52
f 79//52 86//52 87//52 88//52
f 89//52 77//52 90//52 91//52
f 81//52 80//52 92//52 93//52
f 83//35 54//35 89//35 86//35
f 58//35 57//35 80//35 81//35
f 54//35 46//35 77//35 89//35
f 78//35 83//35 86//35 79//35
f 87//52 91//53 94//53 95//52
f 90//54 85//55 96//55 97//54
f 92//56 88//57 98//57 99//56
f 84//58 93//59 100//59 101//58
f 82//52 81//52 93//52 84//52
f 80//52 79//52 88//52 92//52
f 77//52 76//52 85//52 90//52
f 86//52 89//52 91//52 87//52
f 97//35 96//35 102//35 103//35
f 99//35 98//35 104//35 105//35
f 101//35 100//35 106//35 107//35
f 96//35 101//35 107//35 102//35
f 93//59 92//56 99//56 100//59
f 91//53 90//54 97//54 94//53
f 88//57 87//52 95//52 98//57
f 85//55 84//58 101//58 96//55
f 105//52 104//52 108//52 109//52
f 107//52 106//52 110//52 111//52
f 102//52 107//52 111//52 112//52
f 104//52 113//52 114//52 108//52
f 95//35 94//35 115//35 113//35
f 100//35 99//35 105//35 106//35
f 94//35 97//35 103//35 115//35
f 98//35 95//35 113//35 104//35
f 108//57 114//52 116//52 117//57
f 118//53 119//54 120//54 121//53
f 110//59 109//56 122//56 123//59
f 114//52 118//53 121//53 116//52
f 103//52 102//52 112//52 119//52
f 113//52 115//52 118//52 114//52
f 106//52 105//52 109//52 110//52
f 115//52 103//52 119//52 118//52
f 124//30 122//30 117//30 116//30
f 125//30 123//30 122//30 124//30
f 120//30 124//30 116//30 121//30
f 126//30 125//30 124//30 120//30
f 112//55 111//58 125//58 126//55
f 111//58 110//59 123//59 125//58
f 109//56 108//57 117//57 122//56
f 119//54 112//55 126//55 120//54
f 69//60 75//60 31//21 30//21
f 68//40 69//40 30//32 48//32
f 66//38 68//38 48//37 41//37
f 70//42 66//42 41//29 35//29
f 72//44 70//44 35//23 34//23
f 73//46 72//46 34//25 38//25
f 74//48 73//48 38//27 40//27
f 75//50 74//50 40//34 31//34
f 69//60 55//61 59//61 75//60
