# Blender v2.79 (sub 0) OBJ File: 'esercitazione 1.blend'
# www.blender.org
mtllib 914157-01.mtl
o Plane.001_Plane.003
v 0.711167 -0.000000 -2.370733
v 0.711167 0.000000 -4.370733
v 1.111166 0.000000 -4.370733
v 1.111166 -0.000000 -2.370733
v -0.888834 -0.000000 -2.370733
v -0.888834 0.000000 -4.370733
v -0.488834 0.000000 -4.370733
v -0.488834 -0.000000 -2.370733
v -0.088834 0.000000 -4.370733
v -0.088834 -0.000000 -2.370733
v 0.311166 0.000000 -4.370733
v 0.311166 -0.000000 -2.370733
v 0.711167 0.997702 -2.370733
v 1.111166 0.997702 -2.370733
v 1.111166 0.997702 -4.370733
v 0.711167 0.997702 -4.370733
v -0.888834 0.997702 -2.370733
v -0.488834 0.997702 -2.370733
v -0.488834 0.997702 -4.370733
v -0.888834 0.997702 -4.370733
v -0.088834 0.997702 -2.370733
v -0.088834 0.997702 -4.370733
v 0.311166 0.997702 -2.370733
v 0.311166 0.997702 -4.370733
vt 0.800000 0.000000
vt 0.800000 1.000000
vt 1.000000 1.000000
vt 1.000000 0.000000
vt 0.000000 0.000000
vt 0.000000 1.000000
vt 0.200000 1.000000
vt 0.200000 0.000000
vt 0.400000 1.000000
vt 0.400000 0.000000
vt 0.600000 1.000000
vt 0.600000 0.000000
vt 0.800000 0.000000
vt 1.000000 0.000000
vt 1.000000 1.000000
vt 0.800000 1.000000
vt 0.000000 0.000000
vt 0.200000 0.000000
vt 0.200000 1.000000
vt 0.000000 1.000000
vt 0.400000 0.000000
vt 0.400000 1.000000
vt 0.600000 0.000000
vt 0.600000 1.000000
vn 0.0000 -1.0000 -0.0000
vn -0.0000 1.0000 0.0000
vn -0.0000 -0.0000 1.0000
vn 1.0000 0.0000 0.0000
vn 0.0000 0.0000 -1.0000
vn -1.0000 0.0000 0.0000
usemtl None
s 1
f 1/1/1 2/2/1 3/3/1 4/4/1
f 5/5/1 6/6/1 7/7/1 8/8/1
f 8/8/1 7/7/1 9/9/1 10/10/1
f 10/10/1 9/9/1 11/11/1 12/12/1
f 12/12/1 11/11/1 2/2/1 1/1/1
f 13/13/2 14/14/2 15/15/2 16/16/2
f 17/17/2 18/18/2 19/19/2 20/20/2
f 18/18/2 21/21/2 22/22/2 19/19/2
f 21/21/2 23/23/2 24/24/2 22/22/2
f 23/23/2 13/13/2 16/16/2 24/24/2
f 8/8/3 10/10/3 21/21/3 18/18/3
f 4/4/4 3/3/4 15/15/4 14/14/4
f 2/2/5 11/11/5 24/24/5 16/16/5
f 10/10/3 12/12/3 23/23/3 21/21/3
f 7/7/5 6/6/5 20/20/5 19/19/5
f 11/11/5 9/9/5 22/22/5 24/24/5
f 6/6/6 5/5/6 17/17/6 20/20/6
f 12/12/3 1/1/3 13/13/3 23/23/3
f 5/5/3 8/8/3 18/18/3 17/17/3
f 9/9/5 7/7/5 19/19/5 22/22/5
f 1/1/3 4/4/3 14/14/3 13/13/3
f 3/3/5 2/2/5 16/16/5 15/15/5
o Plane.001_Plane.001
v 0.600000 -0.000000 6.053307
v 0.600000 0.000000 4.053307
v 1.000000 0.000000 4.053307
v 1.000000 -0.000000 6.053307
v -1.000000 -0.000000 6.053307
v -1.000000 0.000000 4.053307
v -0.600000 0.000000 4.053307
v -0.600000 -0.000000 6.053307
v -0.200000 0.000000 4.053307
v -0.200000 -0.000000 6.053307
v 0.200000 0.000000 4.053307
v 0.200000 -0.000000 6.053307
v 0.600000 1.178062 6.053307
v 1.000000 0.997702 6.053307
v 1.000000 0.997702 4.053307
v 0.600000 1.178063 4.053307
v -1.000000 2.559254 6.053307
v -0.600000 2.175689 6.053307
v -0.600000 2.175689 4.053307
v -1.000000 2.559254 4.053307
v -0.200000 1.816224 6.053307
v -0.200000 1.816224 4.053307
v 0.200000 1.484542 6.053307
v 0.200000 1.484542 4.053307
vt 0.800000 0.000000
vt 0.800000 1.000000
vt 1.000000 1.000000
vt 1.000000 0.000000
vt 0.000000 0.000000
vt 0.000000 1.000000
vt 0.200000 1.000000
vt 0.200000 0.000000
vt 0.400000 1.000000
vt 0.400000 0.000000
vt 0.600000 1.000000
vt 0.600000 0.000000
vt 0.800000 0.000000
vt 1.000000 0.000000
vt 1.000000 1.000000
vt 0.800000 1.000000
vt 0.000000 0.000000
vt 0.200000 0.000000
vt 0.200000 1.000000
vt 0.000000 1.000000
vt 0.400000 0.000000
vt 0.400000 1.000000
vt 0.600000 0.000000
vt 0.600000 1.000000
vn 0.0000 -1.0000 -0.0000
vn 0.4110 0.9116 0.0000
vn 0.6921 0.7218 0.0000
vn 0.6684 0.7438 0.0000
vn 0.6383 0.7698 0.0000
vn 0.6082 0.7938 0.0000
vn 0.0000 -0.0000 1.0000
vn 1.0000 0.0000 0.0000
vn -0.0000 0.0000 -1.0000
vn -1.0000 0.0000 0.0000
usemtl None.002
s 1
f 25/25/7 26/26/7 27/27/7 28/28/7
f 29/29/7 30/30/7 31/31/7 32/32/7
f 32/32/7 31/31/7 33/33/7 34/34/7
f 34/34/7 33/33/7 35/35/7 36/36/7
f 36/36/7 35/35/7 26/26/7 25/25/7
f 37/37/8 38/38/8 39/39/8 40/40/8
f 41/41/9 42/42/9 43/43/9 44/44/9
f 42/42/10 45/45/10 46/46/10 43/43/10
f 45/45/11 47/47/11 48/48/11 46/46/11
f 47/47/12 37/37/12 40/40/12 48/48/12
f 32/32/13 34/34/13 45/45/13 42/42/13
f 28/28/14 27/27/14 39/39/14 38/38/14
f 26/26/15 35/35/15 48/48/15 40/40/15
f 34/34/13 36/36/13 47/47/13 45/45/13
f 31/31/15 30/30/15 44/44/15 43/43/15
f 35/35/15 33/33/15 46/46/15 48/48/15
f 30/30/16 29/29/16 41/41/16 44/44/16
f 36/36/13 25/25/13 37/37/13 47/47/13
f 29/29/13 32/32/13 42/42/13 41/41/13
f 33/33/15 31/31/15 43/43/15 46/46/15
f 25/25/13 28/28/13 38/38/13 37/37/13
f 27/27/15 26/26/15 40/40/15 39/39/15
o Plane.001_Plane.000_Plane.001_Plane.002
v 0.600000 -0.000000 1.000000
v 0.600000 0.000000 -1.000000
v 1.000000 0.000000 -1.000000
v 1.000000 -0.000000 1.000000
v -1.000000 -0.000000 1.000000
v -1.000000 0.000000 -1.000000
v -0.600000 0.000000 -1.000000
v -0.600000 -0.000000 1.000000
v -0.200000 0.000000 -1.000000
v -0.200000 -0.000000 1.000000
v 0.200000 0.000000 -1.000000
v 0.200000 -0.000000 1.000000
v 0.600000 1.565852 1.000000
v 1.000000 0.997702 1.000000
v 1.000000 0.997702 -1.000000
v 0.600000 1.565852 -1.000000
v -1.000000 2.000000 1.000000
v -0.600000 2.175689 1.000000
v -0.600000 2.175689 -1.000000
v -1.000000 2.000000 -1.000000
v -0.200000 1.816224 1.000000
v -0.200000 1.816224 -1.000000
v 0.200000 1.402275 1.000000
v 0.200000 1.402275 -1.000000
vt 0.800000 0.000000
vt 0.800000 1.000000
vt 1.000000 1.000000
vt 1.000000 0.000000
vt 0.000000 0.000000
vt 0.000000 1.000000
vt 0.200000 1.000000
vt 0.200000 0.000000
vt 0.400000 1.000000
vt 0.400000 0.000000
vt 0.600000 1.000000
vt 0.600000 0.000000
vt 0.800000 0.000000
vt 1.000000 0.000000
vt 1.000000 1.000000
vt 0.800000 1.000000
vt 0.000000 0.000000
vt 0.200000 0.000000
vt 0.200000 1.000000
vt 0.000000 1.000000
vt 0.400000 0.000000
vt 0.400000 1.000000
vt 0.600000 0.000000
vt 0.600000 1.000000
vn 0.0000 -1.0000 -0.0000
vn 0.8177 0.5757 0.0000
vn -0.4021 0.9156 0.0000
vn 0.6684 0.7438 0.0000
vn 0.7191 0.6949 0.0000
vn -0.3785 0.9256 0.0000
vn 0.0000 -0.0000 1.0000
vn 1.0000 -0.0000 0.0000
vn 0.0000 0.0000 -1.0000
vn -1.0000 0.0000 0.0000
usemtl None.003
s 1
f 49/49/17 50/50/17 51/51/17 52/52/17
f 53/53/17 54/54/17 55/55/17 56/56/17
f 56/56/17 55/55/17 57/57/17 58/58/17
f 58/58/17 57/57/17 59/59/17 60/60/17
f 60/60/17 59/59/17 50/50/17 49/49/17
f 61/61/18 62/62/18 63/63/18 64/64/18
f 65/65/19 66/66/19 67/67/19 68/68/19
f 66/66/20 69/69/20 70/70/20 67/67/20
f 69/69/21 71/71/21 72/72/21 70/70/21
f 71/71/22 61/61/22 64/64/22 72/72/22
f 56/56/23 58/58/23 69/69/23 66/66/23
f 52/52/24 51/51/24 63/63/24 62/62/24
f 50/50/25 59/59/25 72/72/25 64/64/25
f 58/58/23 60/60/23 71/71/23 69/69/23
f 55/55/25 54/54/25 68/68/25 67/67/25
f 59/59/25 57/57/25 70/70/25 72/72/25
f 54/54/26 53/53/26 65/65/26 68/68/26
f 60/60/23 49/49/23 61/61/23 71/71/23
f 53/53/23 56/56/23 66/66/23 65/65/23
f 57/57/25 55/55/25 67/67/25 70/70/25
f 49/49/23 52/52/23 62/62/23 61/61/23
f 51/51/25 50/50/25 64/64/25 63/63/25
