# 3ds Max Wavefront OBJ Exporter v0.97b - (c)2007 guruware
# File Created: 15.10.2018 12:37:00

mtllib 886454-29-LP.mtl

#
# object Cylinder001
#

#
# object Cylinder002
#

v  17.9051 -0.2530 -17.9051
v  17.9051 5.1940 -17.9051
v  17.9050 5.1940 -0.0000
v  17.9050 -0.2530 -0.0000
v  13.6767 -0.2530 -16.8941
v  13.6767 5.1940 -16.8941
v  -9.0842 -0.2530 -15.8322
v  -9.0842 5.1940 -15.8322
v  -0.0000 5.1940 -15.3284
v  -0.0000 -0.2530 -15.3284
v  -17.9050 -0.2530 0.0000
v  -17.9050 5.1940 0.0000
v  -17.9051 5.1940 -17.9051
v  -17.9051 -0.2530 -17.9051
v  -17.9051 -0.2530 17.9051
v  -17.9051 5.1940 17.9051
v  -13.7409 -0.2530 19.0497
v  -13.7409 5.1940 19.0497
v  9.4636 -0.2530 20.4647
v  9.4636 5.1940 20.4647
v  0.0000 5.1940 22.0000
v  0.0000 -0.2530 22.0000
v  17.9051 5.1940 17.9051
v  17.9051 -0.2530 17.9051
v  17.9050 31.2677 -0.0000
v  17.9051 31.2677 -17.9051
v  4.4763 31.2682 -4.4763
v  6.3304 31.2682 0.0000
v  13.6767 31.2677 -16.8941
v  3.4192 31.2682 -4.9141
v  -0.0000 31.2677 -15.3284
v  -9.0842 31.2677 -15.8322
v  -2.2710 31.2682 -5.3897
v  -0.0000 31.2682 -6.3304
v  -17.9051 31.2677 -17.9051
v  -17.9050 31.2677 0.0000
v  -6.3304 31.2682 0.0000
v  -4.4763 31.2682 -4.4763
v  -17.9051 31.2677 17.9051
v  -4.4763 31.2682 4.4763
v  -13.7409 31.2677 19.0497
v  -3.4352 31.2682 4.9075
v  0.0000 31.2677 22.0000
v  9.4636 31.2677 20.4647
v  2.3659 31.2682 5.3504
v  0.0000 31.2682 6.3304
v  17.9051 31.2677 17.9051
v  4.4763 31.2682 4.4763
v  4.4742 33.4347 -4.4713
v  6.3283 33.4347 0.0050
v  3.4171 33.4347 -4.9091
v  -2.2731 33.4347 -5.3847
v  -0.0021 33.4347 -6.3254
v  -6.2465 33.4347 0.0875
v  -4.4784 33.4347 -4.4713
v  -4.4276 33.4347 4.4789
v  -3.4063 33.4347 4.9019
v  2.2847 33.4347 5.3364
v  -0.0363 33.4347 6.2978
v  4.3550 33.4347 4.4789
v  2.6858 33.4348 -2.6858
v  3.7982 33.4348 0.0000
v  2.0515 33.4348 -2.9485
v  -1.3626 33.4348 -3.2338
v  -0.0000 33.4348 -3.7982
v  -3.7982 33.4348 0.0000
v  -2.6858 33.4348 -2.6858
v  -2.6858 33.4348 2.6858
v  -2.0611 33.4348 2.9445
v  1.4195 33.4348 3.2103
v  0.0000 33.4348 3.7982
v  2.6858 33.4348 2.6858
v  2.5857 38.5693 -2.5857
v  3.6567 38.5693 0.0000
v  1.9751 38.5693 -2.8386
v  -1.3119 38.5693 -3.1133
v  -0.0000 38.5693 -3.6567
v  -3.6567 38.5693 0.0000
v  -2.5857 38.5693 -2.5857
v  -2.5857 38.5693 2.5857
v  -1.9843 38.5693 2.8348
v  1.3666 38.5693 3.0906
v  0.0000 38.5693 3.6567
v  2.5857 38.5693 2.5857
v  -8.5922 -0.2530 20.4650
v  -14.1332 -0.2530 -17.0187
v  9.2349 -0.2530 -15.8320
v  13.8141 -0.2530 19.1456
v  1.3336 38.5693 -3.1043
v  -2.0410 38.5693 -2.8113
v  -1.2408 38.5693 3.1428
v  1.9949 38.5693 2.8304
v  -8.5922 5.1940 20.4650
v  -2.1480 31.2682 5.4407
v  -8.5922 31.2677 20.4650
v  -2.1435 33.4347 5.4249
v  -1.2888 33.4348 3.2644
v  13.8141 5.1940 19.1456
v  13.8141 31.2677 19.1456
v  3.4535 31.2682 4.8999
v  3.3517 33.4347 4.8945
v  2.0721 33.4348 2.9400
v  -14.1332 5.1940 -17.0187
v  -14.1332 31.2677 -17.0187
v  -3.5333 31.2682 -4.8669
v  -3.5354 33.4347 -4.8619
v  -2.1200 33.4348 -2.9201
v  9.2349 5.1940 -15.8320
v  2.3087 31.2682 -5.3741
v  9.2349 31.2677 -15.8320
v  2.3066 33.4347 -5.3691
v  1.3852 33.4348 -3.2245
v  17.9050 26.7247 -0.0000
v  17.9051 26.7247 -17.9051
v  13.6767 26.7247 -16.8941
v  9.2349 26.7247 -15.8320
v  -0.0000 26.7247 -15.3284
v  -9.0842 26.7247 -15.8322
v  -17.9051 26.7247 -17.9051
v  -17.9050 26.7247 0.0000
v  -17.9051 26.7247 17.9051
v  -13.7409 26.7247 19.0497
v  -8.5922 26.7247 20.4650
v  0.0000 26.7247 22.0000
v  9.4636 26.7247 20.4647
v  17.9051 26.7247 17.9051
v  13.8141 26.7247 19.1456
v  -14.1332 26.7247 -17.0187
v  9.2210 26.7247 -12.7387
v  13.6628 26.7247 -13.8008
v  13.6628 5.1940 -13.8008
v  9.2210 5.1940 -12.7387
v  -9.0981 26.7247 -12.7390
v  -0.0139 26.7247 -12.2351
v  -0.0139 5.1940 -12.2351
v  -9.0981 5.1940 -12.7390
v  -8.5814 26.7247 17.3717
v  -13.7302 26.7247 15.9564
v  -13.7302 5.1940 15.9564
v  -8.5814 5.1940 17.3717
v  9.4743 26.7247 17.3714
v  0.0108 26.7247 18.9067
v  0.0108 5.1940 18.9067
v  9.4743 5.1940 17.3714
v  13.8248 5.1940 16.0523
v  13.8248 26.7247 16.0523
v  -14.1471 5.1940 -13.9255
v  -14.1471 26.7247 -13.9255
# 148 vertices

vn 0.6195 -0.0000 -0.7850
vn 1.0000 -0.0000 0.0000
vn -0.2326 0.0000 -0.9726
vn -0.2326 -0.0000 -0.9726
vn 0.1426 -0.0000 -0.9898
vn 0.0005 -0.0000 -1.0000
vn -1.0000 -0.0000 0.0000
vn -0.6210 -0.0000 -0.7838
vn -0.7953 -0.0000 0.6062
vn -0.7953 0.0000 0.6062
vn -0.2650 0.0000 0.9642
vn 0.2257 -0.0000 0.9742
vn -0.0080 -0.0000 1.0000
vn 0.8032 -0.0000 0.5957
vn 0.8032 0.0000 0.5957
vn 0.7071 0.7071 -0.0000
vn 0.5107 0.5660 -0.6472
vn 0.4196 0.8048 -0.4198
vn 0.5940 0.8044 -0.0003
vn -0.1644 0.7071 -0.6877
vn 0.2703 0.7080 -0.6525
vn 0.0003 0.7197 -0.6943
vn 0.0979 0.7273 -0.6793
vn -0.2704 0.7077 -0.6527
vn 0.0001 0.8048 -0.5935
vn -0.5119 0.5662 -0.6461
vn -0.7071 0.7071 0.0000
vn -0.5796 0.8149 -0.0056
vn -0.4208 0.8070 -0.4144
vn -0.6405 0.5928 0.4882
vn -0.4179 0.8084 0.4146
vn -0.1874 0.7071 0.6818
vn -0.2696 0.7097 0.6508
vn -0.0059 0.6712 0.7413
vn 0.1628 0.6924 0.7029
vn 0.2678 0.7142 0.6466
vn 0.0024 0.8084 0.5887
vn 0.6459 0.5944 0.4791
vn 0.4129 0.8123 0.4119
vn 0.5486 0.6311 -0.5484
vn 0.7759 0.6309 0.0028
vn -0.0002 0.6311 -0.7757
vn -0.7647 0.6443 0.0099
vn -0.5564 0.6287 -0.5433
vn -0.5435 0.6359 0.5480
vn -0.0032 0.6359 0.7718
vn 0.5281 0.6463 0.5509
vn 0.4129 0.8118 -0.4129
vn 0.5840 0.8118 0.0000
vn 0.2671 0.7160 -0.6449
vn -0.2671 0.7160 -0.6449
vn 0.0000 0.8118 -0.5840
vn -0.5840 0.8118 0.0000
vn -0.4129 0.8118 -0.4129
vn -0.4129 0.8118 0.4129
vn -0.2671 0.7160 0.6449
vn 0.2671 0.7160 0.6449
vn 0.0000 0.8118 0.5840
vn 0.4129 0.8118 0.4129
vn 0.7068 0.0276 -0.7068
vn 0.9996 0.0276 0.0000
vn 0.3826 0.0255 -0.9236
vn -0.3826 0.0255 -0.9236
vn -0.0000 0.0276 -0.9996
vn -0.9996 0.0276 0.0000
vn -0.7068 0.0276 -0.7068
vn -0.7068 0.0276 0.7068
vn -0.3826 0.0255 0.9236
vn 0.3826 0.0255 0.9236
vn 0.0000 0.0276 0.9996
vn 0.7068 0.0276 0.7068
vn 0.0000 -1.0000 -0.0000
vn 0.0000 1.0000 -0.0000
vn -0.2207 -0.0000 0.9753
vn -0.2207 0.0000 0.9753
vn -0.1583 0.6970 0.6994
vn 0.2902 -0.0000 0.9570
vn 0.2052 0.7071 0.6767
vn 0.2288 -0.0000 -0.9735
vn 0.1618 0.7071 -0.6884
vn -0.1441 -0.0000 -0.9896
vn -0.0988 0.7279 -0.6785
vn -0.1441 0.0000 -0.9896
vn 0.0005 0.0000 -1.0000
vn 0.1426 0.0000 -0.9898
vn 0.2288 0.0000 -0.9735
vn -0.2650 -0.0000 0.9642
vn -1.0000 0.0000 -0.0045
vn 0.0000 1.0000 0.0000
vn 1.0000 0.0000 0.0045
vn -0.0000 -1.0000 -0.0000
vn 1.0000 0.0000 0.0035
vn -0.0000 1.0000 -0.0000
vn -1.0000 0.0000 -0.0035
vn 0.0000 -1.0000 0.0000
# 95 vertex normals

vt 69.6065 0.0000 1.0000
vt 69.6065 0.8916 1.0000
vt 59.6627 0.8916 1.0000
vt 59.6627 0.0000 1.0000
vt 71.9548 0.0000 1.0000
vt 71.9548 0.8916 1.0000
vt 5.0450 0.0000 1.0000
vt 5.0450 0.8916 1.0000
vt 0.0000 0.8916 1.0000
vt 0.0000 0.0000 1.0000
vt 19.8876 0.0000 1.0000
vt 19.8876 0.8916 1.0000
vt 9.9438 0.8916 1.0000
vt 9.9438 0.0000 1.0000
vt 29.8314 0.0000 1.0000
vt 29.8314 0.8916 1.0000
vt 32.1440 0.0000 1.0000
vt 32.1440 0.8916 1.0000
vt 45.0308 0.0000 1.0000
vt 45.0308 0.8916 1.0000
vt 39.7752 0.8916 1.0000
vt 39.7752 0.0000 1.0000
vt 49.7189 0.8916 1.0000
vt 49.7189 0.0000 1.0000
vt 59.6627 5.1595 1.0000
vt 69.6065 5.1595 1.0000
vt 69.6065 10.3190 1.0000
vt 59.6627 10.3190 1.0000
vt 71.9548 5.1595 1.0000
vt 71.9548 10.3190 1.0000
vt 0.0000 5.1595 1.0000
vt 5.0450 5.1595 1.0000
vt 5.0450 10.3190 1.0000
vt 0.0000 10.3190 1.0000
vt 9.9438 5.1595 1.0000
vt 19.8876 5.1595 1.0000
vt 19.8876 10.3190 1.0000
vt 9.9438 10.3190 1.0000
vt 29.8314 5.1595 1.0000
vt 29.8314 10.3190 1.0000
vt 32.1440 5.1595 1.0000
vt 32.1440 10.3190 1.0000
vt 39.7752 5.1595 1.0000
vt 45.0308 5.1595 1.0000
vt 45.0308 10.3190 1.0000
vt 39.7752 10.3190 1.0000
vt 49.7189 5.1595 1.0000
vt 49.7189 10.3190 1.0000
vt 69.6065 15.4786 1.0000
vt 59.6627 15.4786 1.0000
vt 71.9548 15.4786 1.0000
vt 5.0450 15.4786 1.0000
vt 0.0000 15.4786 1.0000
vt 19.8876 15.4786 1.0000
vt 9.9438 15.4786 1.0000
vt 29.8314 15.4786 1.0000
vt 32.1440 15.4786 1.0000
vt 45.0308 15.4786 1.0000
vt 39.7752 15.4786 1.0000
vt 49.7189 15.4786 1.0000
vt 69.6065 20.6381 1.0000
vt 59.6627 20.6381 1.0000
vt 71.9548 20.6381 1.0000
vt 5.0450 20.6381 1.0000
vt 0.0000 20.6381 1.0000
vt 19.8876 20.6381 1.0000
vt 9.9438 20.6381 1.0000
vt 29.8314 20.6381 1.0000
vt 32.1440 20.6381 1.0000
vt 45.0308 20.6381 1.0000
vt 39.7752 20.6381 1.0000
vt 49.7189 20.6381 1.0000
vt 69.6065 25.7976 1.0000
vt 59.6627 25.7976 1.0000
vt 71.9548 25.7976 1.0000
vt 5.0450 25.7976 1.0000
vt 0.0000 25.7976 1.0000
vt 19.8876 25.7976 1.0000
vt 9.9438 25.7976 1.0000
vt 29.8314 25.7976 1.0000
vt 32.1440 25.7976 1.0000
vt 45.0308 25.7976 1.0000
vt 39.7752 25.7976 1.0000
vt 49.7189 25.7976 1.0000
vt 35.0034 0.0000 1.0000
vt -19.8876 0.0000 1.0000
vt 7.8490 0.0000 1.0000
vt -7.5955 0.0000 1.0000
vt -9.9438 0.0000 1.0000
vt -5.1287 0.0000 1.0000
vt 2.9853 0.0000 1.0000
vt -13.9274 0.0000 1.0000
vt -29.8314 0.0000 1.0000
vt 74.4216 25.7976 1.0000
vt 79.5503 25.7976 1.0000
vt 84.5953 25.7976 1.0000
vt 87.3993 25.7976 1.0000
vt 89.4941 25.7976 1.0000
vt 129.2693 25.7976 1.0000
vt 99.4379 25.7976 1.0000
vt 109.3817 25.7976 1.0000
vt 114.5537 25.7976 1.0000
vt 119.3255 25.7976 1.0000
vt 124.5812 25.7976 1.0000
vt 126.9973 25.7976 1.0000
vt 111.6943 25.7976 1.0000
vt 139.2130 25.7976 1.0000
vt 35.0034 0.8916 1.0000
vt 35.0034 10.3190 1.0000
vt 35.0034 5.1595 1.0000
vt 35.0034 15.4786 1.0000
vt 35.0034 20.6381 1.0000
vt 35.0034 25.7976 1.0000
vt 47.4469 0.0000 1.0000
vt 47.4469 0.8916 1.0000
vt 47.4469 5.1595 1.0000
vt 47.4469 10.3190 1.0000
vt 47.4469 15.4786 1.0000
vt 47.4469 20.6381 1.0000
vt 47.4469 25.7976 1.0000
vt 7.8490 0.8916 1.0000
vt 7.8490 5.1595 1.0000
vt 7.8490 10.3190 1.0000
vt 7.8490 15.4786 1.0000
vt 7.8490 20.6381 1.0000
vt 7.8490 25.7976 1.0000
vt 79.5503 0.0000 1.0000
vt 79.5503 0.8916 1.0000
vt 74.4216 0.8916 1.0000
vt 74.4216 0.0000 1.0000
vt 79.5503 5.1595 1.0000
vt 79.5503 10.3190 1.0000
vt 74.4216 10.3190 1.0000
vt 74.4216 5.1595 1.0000
vt 79.5503 15.4786 1.0000
vt 74.4216 15.4786 1.0000
vt 79.5503 20.6381 1.0000
vt 74.4216 20.6381 1.0000
vt 59.6627 4.4159 1.0000
vt 69.6065 4.4159 1.0000
vt 71.9548 4.4159 1.0000
vt 74.4216 4.4159 1.0000
vt 0.0000 4.4159 1.0000
vt 5.0450 4.4159 1.0000
vt 9.9438 4.4159 1.0000
vt 19.8876 4.4159 1.0000
vt 29.8314 4.4159 1.0000
vt 32.1440 4.4159 1.0000
vt 35.0034 4.4159 1.0000
vt 39.7752 4.4159 1.0000
vt 45.0308 4.4159 1.0000
vt 49.7189 4.4159 1.0000
vt 47.4469 4.4159 1.0000
vt 7.8490 4.4159 1.0000
vt 79.5503 4.4159 1.0000
# 155 texture coords

g Cylinder002
usemtl wire_087225087
s 8
f 1/1/1 2/2/1 3/3/2 4/4/2 
f 5/5/3 6/6/4 2/2/1 1/1/1 
f 7/7/5 8/8/5 9/9/6 10/10/6 
f 11/11/7 12/12/7 13/13/8 14/14/8 
f 15/15/9 16/16/10 12/12/7 11/11/7 
f 17/17/11 18/18/11 16/16/10 15/15/9 
f 19/19/12 20/20/12 21/21/13 22/22/13 
f 4/4/2 3/3/2 23/23/14 24/24/15 
f 25/25/16 26/26/17 27/27/18 28/28/19 
f 29/29/20 30/30/21 27/27/18 26/26/17 
f 31/31/22 32/32/23 33/33/24 34/34/25 
f 35/35/26 36/36/27 37/37/28 38/38/29 
f 36/36/27 39/39/30 40/40/31 37/37/28 
f 41/41/32 42/42/33 40/40/31 39/39/30 
f 43/43/34 44/44/35 45/45/36 46/46/37 
f 47/47/38 25/25/16 28/28/19 48/48/39 
f 28/28/19 27/27/18 49/49/40 50/50/41 
f 30/30/21 51/51/21 49/49/40 27/27/18 
f 33/33/24 52/52/24 53/53/42 34/34/25 
f 38/38/29 37/37/28 54/54/43 55/55/44 
f 37/37/28 40/40/31 56/56/45 54/54/43 
f 42/42/33 57/57/33 56/56/45 40/40/31 
f 46/46/37 45/45/36 58/58/36 59/59/46 
f 48/48/39 28/28/19 50/50/41 60/60/47 
f 50/50/41 49/49/40 61/61/48 62/62/49 
f 51/51/21 63/63/50 61/61/48 49/49/40 
f 52/52/24 64/64/51 65/65/52 53/53/42 
f 55/55/44 54/54/43 66/66/53 67/67/54 
f 54/54/43 56/56/45 68/68/55 66/66/53 
f 57/57/33 69/69/56 68/68/55 56/56/45 
f 58/58/36 70/70/57 71/71/58 59/59/46 
f 60/60/47 50/50/41 62/62/49 72/72/59 
f 62/62/49 61/61/48 73/73/60 74/74/61 
f 63/63/50 75/75/62 73/73/60 61/61/48 
f 64/64/51 76/76/63 77/77/64 65/65/52 
f 67/67/54 66/66/53 78/78/65 79/79/66 
f 66/66/53 68/68/55 80/80/67 78/78/65 
f 69/69/56 81/81/68 80/80/67 68/68/55 
f 70/70/57 82/82/69 83/83/70 71/71/58 
f 72/72/59 62/62/49 74/74/61 84/84/71 
s 1
f 17/17/72 15/15/72 11/11/72 85/85/72 
f 22/22/72 85/85/72 11/11/72 4/86/72 
f 11/11/72 14/14/72 86/87/72 7/7/72 
f 11/11/72 7/7/72 10/10/72 4/86/72 
f 5/88/72 1/89/72 4/86/72 87/90/72 
f 10/10/72 87/90/72 4/86/72 
f 19/91/72 22/22/72 4/86/72 88/92/72 
f 24/93/72 88/92/72 4/86/72 
f 89/94/73 77/95/73 76/96/73 75/75/73 
f 73/73/73 75/75/73 76/96/73 90/97/73 
f 73/73/73 90/97/73 79/98/73 84/99/73 
f 79/98/73 78/100/73 80/101/73 84/99/73 
f 91/102/73 83/103/73 82/104/73 92/105/73 
f 91/102/73 92/105/73 84/99/73 81/106/73 
f 80/101/73 81/106/73 84/99/73 
f 74/107/73 73/73/73 84/99/73 
s 8
f 22/22/13 21/21/13 93/108/74 85/85/75 
f 43/43/34 46/46/37 94/109/33 95/110/76 
f 94/109/33 46/46/37 59/59/46 96/111/33 
f 96/111/33 59/59/46 71/71/58 97/112/56 
f 71/71/58 83/83/70 91/113/68 97/112/56 
f 88/114/77 98/115/77 20/20/12 19/19/12 
f 44/44/35 99/116/78 100/117/36 45/45/36 
f 45/45/36 100/117/36 101/118/36 58/58/36 
f 58/58/36 101/118/36 102/119/57 70/70/57 
f 102/119/57 92/120/69 82/82/69 70/70/57 
f 86/87/79 103/121/79 8/8/5 7/7/5 
f 32/32/23 104/122/80 105/123/24 33/33/24 
f 105/123/24 106/124/24 52/52/24 33/33/24 
f 52/52/24 106/124/24 107/125/51 64/64/51 
f 107/125/51 90/126/63 76/76/63 64/64/51 
f 10/127/6 9/128/6 108/129/81 87/130/81 
f 31/131/22 34/132/25 109/133/21 110/134/82 
f 34/132/25 53/135/42 111/136/21 109/133/21 
f 111/136/21 53/135/42 65/137/52 112/138/50 
f 65/137/52 77/95/64 89/94/62 112/138/50 
f 26/26/17 25/25/16 113/139/2 114/140/1 
f 110/134/82 29/29/20 115/141/3 116/142/83 
f 32/32/23 31/31/22 117/143/84 118/144/85 
f 36/36/27 35/35/26 119/145/8 120/146/7 
f 39/39/30 36/36/27 120/146/7 121/147/10 
f 95/110/76 41/41/32 122/148/11 123/149/74 
f 44/44/35 43/43/34 124/150/13 125/151/12 
f 25/25/16 47/47/38 126/152/14 113/139/2 
f 43/43/34 95/110/76 123/149/74 124/150/13 
f 47/47/38 99/116/78 127/153/77 126/152/14 
f 35/35/26 104/122/80 128/154/86 119/145/8 
f 31/131/22 110/134/82 116/142/83 117/155/84 
f 114/140/1 113/139/2 3/3/2 2/2/1 
f 129/142/83 130/141/3 131/6/3 132/129/83 
f 133/144/85 134/143/84 135/9/84 136/8/5 
f 120/146/7 119/145/8 13/13/8 12/12/7 
f 121/147/10 120/146/7 12/12/7 16/16/10 
f 137/149/74 138/148/11 139/18/87 140/108/74 
f 141/151/12 142/150/13 143/21/13 144/20/12 
f 113/139/2 126/152/14 23/23/14 3/3/2 
f 142/150/13 137/149/74 140/108/74 143/21/13 
f 126/152/14 127/153/77 98/115/77 23/23/14 
f 119/145/8 128/154/86 103/121/79 13/13/8 
f 134/155/84 129/142/83 132/129/83 135/128/84 
f 24/24/15 23/23/14 98/115/77 88/114/77 
f 99/116/78 47/47/38 48/48/39 100/117/36 
f 100/117/36 48/48/39 60/60/47 101/118/36 
f 101/118/36 60/60/47 72/72/59 102/119/57 
f 72/72/59 84/84/71 92/120/69 102/119/57 
f 44/44/35 125/151/12 127/153/77 99/116/78 
f 141/151/12 144/20/12 145/115/77 146/153/77 
f 85/85/75 93/108/74 18/18/11 17/17/11 
f 95/110/76 94/109/33 42/42/33 41/41/32 
f 94/109/33 96/111/33 57/57/33 42/42/33 
f 96/111/33 97/112/56 69/69/56 57/57/33 
f 97/112/56 91/113/68 81/81/68 69/69/56 
f 39/39/30 121/147/10 122/148/11 41/41/32 
f 121/147/10 16/16/10 18/18/11 122/148/11 
f 87/130/81 108/129/81 6/6/4 5/5/3 
f 110/134/82 109/133/21 30/30/21 29/29/20 
f 109/133/21 111/136/21 51/51/21 30/30/21 
f 111/136/21 112/138/50 63/63/50 51/51/21 
f 112/138/50 89/94/62 75/75/62 63/63/50 
f 26/26/17 114/140/1 115/141/3 29/29/20 
f 114/140/1 2/2/1 6/6/4 115/141/3 
f 14/14/8 13/13/8 103/121/79 86/87/79 
f 104/122/80 35/35/26 38/38/29 105/123/24 
f 38/38/29 55/55/44 106/124/24 105/123/24 
f 106/124/24 55/55/44 67/67/54 107/125/51 
f 67/67/54 79/79/66 90/126/63 107/125/51 
f 32/32/23 118/144/85 128/154/86 104/122/80 
f 133/144/85 136/8/5 147/121/79 148/154/86 
s off
f 116/142/72 115/141/72 130/141/72 129/142/72 
f 115/141/88 6/6/88 131/6/88 130/141/88 
f 6/6/73 108/129/73 132/129/73 131/6/73 
f 108/129/73 9/128/73 135/128/73 132/129/73 
f 9/9/89 8/8/89 136/8/89 135/9/89 
f 8/8/73 103/121/73 147/121/73 136/8/73 
f 103/121/90 128/154/90 148/154/90 147/121/90 
f 128/154/72 118/144/72 133/144/72 148/154/72 
f 118/144/91 117/143/91 134/143/91 133/144/91 
f 117/155/91 116/142/91 129/142/91 134/155/91 
f 123/149/72 122/148/72 138/148/72 137/149/72 
f 122/148/92 18/18/92 139/18/92 138/148/92 
f 18/18/73 93/108/73 140/108/73 139/18/73 
f 93/108/73 21/21/73 143/21/73 140/108/73 
f 21/21/93 20/20/93 144/20/93 143/21/93 
f 20/20/89 98/115/89 145/115/89 144/20/89 
f 98/115/94 127/153/94 146/153/94 145/115/94 
f 127/153/91 125/151/91 141/151/91 146/153/91 
f 125/151/95 124/150/95 142/150/95 141/151/95 
f 124/150/72 123/149/72 137/149/72 142/150/72 
# 144 polygons - 4 triangles

