# 3ds Max Wavefront OBJ Exporter v0.97b - (c)2007 guruware
# File Created: 11.10.2018 09:34:31

mtllib 886410_03C.mtl

#
# object default
#

#
# object default001
#

v  0.1009 1.9603 -0.1064
v  0.0987 1.7632 -0.1063
v  -0.0005 1.7617 -0.1522
v  0.0003 1.9603 -0.1535
v  0.1351 1.9603 -0.0000
v  0.1342 1.7618 0.0018
v  0.0954 1.9603 0.1391
v  0.0964 1.7668 0.1397
v  -0.0055 1.9603 0.2026
v  -0.0079 1.7662 0.2082
v  -0.1337 1.9603 0.1610
v  -0.1337 1.7645 0.1663
v  -0.1923 1.9603 0.0256
v  -0.1989 1.7674 0.0185
v  0.0000 1.9603 -0.0000
v  -0.1337 1.9603 -0.1064
v  -0.1484 1.7603 -0.1187
v  0.7106 0.5625 0.7144
v  0.0034 0.5625 1.0073
v  0.0034 0.5625 0.0073
v  1.0034 0.5625 0.0073
v  -0.7037 0.5625 0.7144
v  -0.9966 0.5625 0.0073
v  -0.7037 0.5625 -0.6998
v  0.0034 0.5625 -0.9927
v  0.7106 0.5625 -0.6998
v  0.0183 1.7385 -0.0821
v  -0.0422 1.7372 -0.0955
v  0.0666 1.7372 0.0004
v  0.0424 1.7418 0.0943
v  -0.0393 1.7413 0.1249
v  -0.1092 1.7397 0.0946
v  -0.1404 1.7423 0.0159
v  -0.1205 1.7359 -0.0640
v  0.7071 1.0911 -0.7071
v  0.0000 1.0911 -1.0000
v  -0.0369 1.4769 -0.1265
v  0.0389 1.4769 -0.1050
v  1.0000 1.0911 -0.0000
v  0.0945 1.4769 0.0051
v  0.7071 1.0911 0.7071
v  0.0630 1.4769 0.1139
v  0.0000 1.0911 1.0000
v  -0.0384 1.4769 0.1500
v  -0.7071 1.0911 0.7071
v  -0.1279 1.4769 0.1137
v  -1.0000 1.0911 -0.0000
v  -0.1630 1.4769 0.0044
v  -0.7071 1.0911 -0.7071
v  -0.1324 1.4769 -0.0814
v  0.7071 0.5181 -0.7071
v  0.0000 0.5181 -1.0000
v  1.0000 0.5181 -0.0000
v  0.7071 0.5181 0.7071
v  0.0000 0.5181 1.0000
v  -0.7071 0.5181 0.7071
v  -1.0000 0.5181 -0.0000
v  -0.7071 0.5181 -0.7071
# 58 vertices

vn 0.4224 -0.0063 -0.9064
vn 0.9510 -0.0089 -0.3092
vn 0.9631 0.0017 0.2692
vn 0.5410 0.0110 0.8410
vn -0.3123 0.0285 0.9495
vn -0.9162 0.0139 0.4005
vn 0.0000 1.0000 -0.0000
vn -0.9239 0.0687 -0.3764
vn -0.2750 0.0373 -0.9607
vn 0.0000 -1.0000 -0.0000
vn 0.1447 -0.9271 -0.3457
vn 0.2926 -0.9456 -0.1421
vn 0.3320 -0.9346 0.1275
vn 0.1493 -0.9512 0.2701
vn -0.0968 -0.9465 0.3078
vn -0.4062 -0.9013 0.1506
vn -0.4531 -0.8868 -0.0915
vn -0.1069 -0.9052 -0.4112
vn 0.1592 0.9041 -0.3966
vn 0.3828 0.9093 -0.1633
vn 0.3922 0.9065 0.1560
vn 0.1642 0.9001 0.4036
vn -0.1710 0.8941 0.4139
vn -0.4171 0.8933 0.1675
vn -0.4137 0.8947 -0.1688
vn -0.1694 0.8997 -0.4023
vn 0.3827 0.0000 -0.9239
vn 0.9239 0.0000 -0.3827
vn 0.9239 0.0000 0.3827
vn 0.3827 0.0000 0.9239
vn -0.3827 0.0000 0.9239
vn -0.9239 0.0000 0.3827
vn -0.9239 0.0000 -0.3827
vn -0.3827 0.0000 -0.9239
vn 0.9156 -0.1334 0.3793
vn 0.2446 0.1115 -0.9632
vn 0.8761 0.0978 -0.4720
vn 0.9599 0.1007 0.2617
vn 0.3400 0.0928 0.9358
vn -0.3842 0.0901 0.9189
vn -0.9399 0.0783 0.3323
vn -0.9528 0.0786 -0.2934
vn -0.4016 0.0900 -0.9114
# 43 vertex normals

g default001
usemtl _03Material_001
s off
f 1//1 2//1 3//1 4//1 
f 5//2 6//2 2//2 1//2 
f 7//3 8//3 6//3 5//3 
f 9//4 10//4 8//4 7//4 
f 11//5 12//5 10//5 9//5 
f 13//6 14//6 12//6 11//6 
f 11//7 9//7 15//7 13//7 
f 16//8 17//8 14//8 13//8 
f 4//9 3//9 17//9 16//9 
f 18//10 19//10 20//10 21//10 
f 15//7 4//7 16//7 13//7 
f 7//7 5//7 15//7 9//7 
f 15//7 5//7 1//7 4//7 
f 22//10 23//10 20//10 19//10 
f 20//10 23//10 24//10 25//10 
f 20//10 25//10 26//10 21//10 
f 27//11 28//11 3//11 2//11 
f 29//12 27//12 2//12 6//12 
f 30//13 29//13 6//13 8//13 
f 10//14 31//14 30//14 8//14 
f 12//15 32//15 31//15 10//15 
f 14//16 33//16 32//16 12//16 
f 17//17 34//17 33//17 14//17 
f 28//18 34//18 17//18 3//18 
f 35//19 36//19 37//19 38//19 
f 39//20 35//20 38//20 40//20 
f 41//21 39//21 40//21 42//21 
f 43//22 41//22 42//22 44//22 
f 45//23 43//23 44//23 46//23 
f 47//24 45//24 46//24 48//24 
f 49//25 47//25 48//25 50//25 
f 36//26 49//26 50//26 37//26 
f 51//27 52//27 36//27 35//27 
f 53//28 51//28 35//28 39//28 
f 54//29 53//29 39//29 41//29 
f 55//30 54//30 41//30 43//30 
f 56//31 55//31 43//31 45//31 
f 57//32 56//32 45//32 47//32 
f 58//33 57//33 47//33 49//33 
f 52//34 58//34 49//34 36//34 
f 24//35 23//35 57//35 58//35 
f 38//36 37//36 28//36 27//36 
f 40//37 38//37 27//37 29//37 
f 42//38 40//38 29//38 30//38 
f 31//39 44//39 42//39 30//39 
f 32//40 46//40 44//40 31//40 
f 33//41 48//41 46//41 32//41 
f 34//42 50//42 48//42 33//42 
f 37//43 50//43 34//43 28//43 
# 49 polygons

