# Blender v2.79 (sub 0) OBJ File: ''
# www.blender.org
mtllib 889060-05-P.mtl
o Cube_Cube.002
v -0.881016 -1.319044 -0.769174
v -0.881016 0.680956 -0.769174
v -0.881016 -1.319044 -2.769174
v -0.881016 0.680956 -2.769174
v -0.654175 -1.319044 -0.769174
v -0.654175 0.680956 -0.769174
v -0.654175 -1.319044 -2.769174
v -0.654175 0.680956 -2.769174
v -0.881016 -1.319044 -0.993330
v -0.881016 0.680956 -0.993330
v -0.654175 -1.319044 -0.993330
v -0.654175 0.680956 -0.993330
v -0.881016 -1.070075 -0.769174
v -0.881016 -1.070075 -2.769174
v -0.654175 -1.070075 -2.769174
v -0.654175 -1.070075 -0.769174
v -0.654175 -1.070075 -0.993330
v -0.881016 -1.070075 -0.993330
v 0.991428 -1.070075 -2.769174
v 0.991428 -1.319044 -2.769174
v 0.991428 -1.319044 -0.993330
v 0.991428 0.680956 -0.993330
v 0.991428 0.680956 -0.769174
v 0.991428 -1.070075 -0.769174
v 0.991428 -1.319044 -0.769174
v 0.991428 -1.070075 -0.993330
vn -1.0000 0.0000 0.0000
vn 0.0000 0.0000 -1.0000
vn 0.0000 1.0000 0.0000
vn 0.0000 0.0000 1.0000
vn 0.0000 -1.0000 0.0000
vn 1.0000 0.0000 0.0000
usemtl None
s off
f 18//1 10//1 4//1 14//1
f 14//2 4//2 8//2 15//2
f 15//3 17//3 26//3 19//3
f 16//4 6//4 2//4 13//4
f 9//5 11//5 5//5 1//5
f 12//3 10//3 2//3 6//3
f 8//3 4//3 10//3 12//3
f 3//5 7//5 11//5 9//5
f 15//6 8//6 12//6 17//6
f 13//1 2//1 10//1 18//1
f 1//1 13//1 18//1 9//1
f 11//5 7//5 20//5 21//5
f 5//4 16//4 13//4 1//4
f 16//4 5//4 25//4 24//4
f 3//2 14//2 15//2 7//2
f 9//1 18//1 14//1 3//1
f 26//6 22//6 23//6 24//6
f 20//6 19//6 26//6 21//6
f 21//6 26//6 24//6 25//6
f 5//5 11//5 21//5 25//5
f 6//4 16//4 24//4 23//4
f 12//3 6//3 23//3 22//3
f 7//2 15//2 19//2 20//2
f 17//2 12//2 22//2 26//2
