# 3ds Max Wavefront OBJ Exporter v0.97b - (c)2007 guruware
# File Created: 10.10.2018 17:04:46

mtllib 892062-02A.mtl

#
# object 02A
#

v  -9.2984 0.6667 -0.0862
v  -8.9214 1.3333 -0.3415
v  -8.9914 1.3330 -1.0221
v  -9.2984 0.6667 -1.4439
v  -8.2711 1.3333 -1.0224
v  -8.7221 2.0203 -0.8571
v  -8.3809 2.0203 -0.8636
v  -7.9600 0.6495 -1.4518
v  -8.2104 1.3333 -0.3415
v  -7.9083 0.6667 -0.0862
v  -8.3809 2.0203 -0.5196
v  -8.7221 2.0203 -0.5131
v  -7.6825 0.0000 -1.8070
v  -7.6825 0.0000 0.1930
v  -9.7956 0.0000 0.1930
v  -9.7956 0.0000 -1.8070
# 16 vertices

vn -1.0000 0.0000 -0.0000
vn 0.0000 0.0000 -1.0000
vn 1.0000 0.0000 -0.0000
vn 0.0000 0.0000 1.0000
vn 0.0000 -1.0000 -0.0000
vn 0.0000 1.0000 -0.0000
# 6 vertex normals

g 02A
usemtl _02None
s off
f 1//1 2//1 3//1 4//1 
f 5//2 3//2 6//2 7//2 
f 8//3 5//3 9//3 10//3 
f 2//4 9//4 11//4 12//4 
f 13//3 8//3 10//3 14//3 
f 15//5 16//5 13//5 14//5 
f 9//3 5//3 7//3 11//3 
f 15//1 1//1 4//1 16//1 
f 3//1 2//1 12//1 6//1 
f 15//4 14//4 10//4 1//4 
f 1//4 10//4 9//4 2//4 
f 13//2 16//2 4//2 8//2 
f 8//2 4//2 3//2 5//2 
f 11//6 7//6 6//6 12//6 
# 14 polygons

