# Blender v2.79 (sub 0) OBJ File: ''
# www.blender.org
mtllib 893401-05.mtl
o Cube_Cube.001
v -0.222582 0.217539 -0.793839
v 0.000000 0.217539 -0.960600
v 0.346860 0.217538 0.206161
v 0.000000 0.217538 0.815443
v 0.000000 -0.958426 0.206161
v 0.000000 0.818088 0.206161
v 0.000000 -0.782462 0.815443
v 1.060609 0.217539 -0.505113
v 0.000000 -0.782462 -0.960600
v -0.222582 -0.782462 -0.793839
v -0.222582 -0.782462 0.206161
v 1.060609 0.818088 -0.793839
v 0.000000 0.818088 -0.793839
v 0.000000 -0.958426 -0.793839
v 1.060609 0.217539 -0.960600
v -0.222582 0.217539 0.206161
v 1.663444 -0.782462 0.206161
v 1.663444 -0.782462 -0.793839
v 1.663444 0.217539 -0.793839
v 1.060609 -0.485555 0.206161
v 1.060609 -0.782462 -0.960600
v 1.060609 -0.958426 0.206161
v 1.060609 -0.782462 0.815443
v 1.060609 -0.958426 -0.793839
v -0.222582 -0.958426 0.206161
v -0.222582 0.217538 0.815443
v -0.222582 0.818088 -0.793839
v -0.222582 -0.782462 -0.960600
v 0.000000 -0.958426 -0.960600
v 0.000000 0.818088 -0.960600
v 0.402737 -0.782462 -0.960600
v 0.402737 -0.958426 -0.793839
v 0.346860 0.818088 0.206161
v 0.402737 -0.782462 0.815443
v 0.000000 -0.958426 0.815443
v 0.000000 0.818088 0.815443
v -0.222582 -0.782462 0.815443
v -0.222582 0.217539 -0.960600
v 0.402737 0.217539 -0.960600
v 0.346860 0.217538 0.815443
v 0.000000 -0.423692 0.815443
v 0.346860 -0.485555 0.206161
v 0.000000 -0.423692 -0.960600
v -0.222582 -0.423692 -0.793839
v -0.222582 -0.958426 -0.793839
v -0.222582 0.818088 0.206161
v 0.402737 -0.958426 0.206161
v 0.402737 0.818088 -0.793839
v 1.060609 -0.423692 -0.960600
v -0.222582 -0.423692 0.206161
v -0.222582 -0.782462 -0.440758
v 1.060609 0.818088 -0.960600
v 0.000000 0.818088 -0.440758
v 0.000000 -0.958426 -0.440758
v 0.346860 0.217539 -0.505113
v -0.222582 0.217539 -0.440758
v 1.663444 -0.782462 -0.960600
v 1.663444 -0.958426 -0.793839
v 1.663444 -0.782462 0.815443
v 1.663444 0.217539 -0.960600
v 1.663444 -0.485555 0.206161
v 1.663444 -0.958426 0.206161
v 1.663444 0.818088 -0.793839
v 1.663444 -0.423692 -0.793839
v 1.663444 -0.782462 -0.440758
v 1.663444 0.217539 -0.505113
v 1.060609 0.818088 -0.505113
v 1.060609 -0.485555 -0.505113
v 1.060609 -0.485555 0.815443
v 1.060609 -0.958426 -0.960600
v 1.060609 -0.958426 -0.440758
v 1.060609 -0.958426 0.815443
v -0.222582 -0.958426 0.815443
v -0.222582 0.818088 0.815443
v -0.222582 -0.958426 -0.960600
v -0.222582 0.818088 -0.960600
v 0.402737 -0.958426 0.815443
v 0.346860 0.818088 0.815443
v 0.402737 -0.958426 -0.960600
v 0.402737 0.818088 -0.960600
v -0.222582 -0.423692 0.815443
v -0.222582 -0.423692 -0.960600
v 0.402737 -0.423692 -0.960600
v 0.346860 -0.485555 0.815443
v -0.222582 -0.958426 -0.440758
v -0.222582 0.818088 -0.440758
v 0.402737 -0.958426 -0.440758
v 0.346860 0.818088 -0.505113
v 0.346860 -0.485555 -0.505113
v -0.222582 -0.423692 -0.440758
v 1.663444 -0.423692 -0.960600
v 1.663444 -0.958426 -0.960600
v 1.663444 -0.958426 -0.440758
v 1.663444 -0.485555 0.815443
v 1.663444 -0.958426 0.815443
v 1.663444 0.818088 -0.960600
v 1.663444 -0.485555 -0.505113
v 1.663444 0.818088 -0.505113
vn -1.0000 0.0000 0.0000
vn 0.0000 0.0000 -1.0000
vn 1.0000 0.0000 0.0000
vn -0.0000 0.0000 1.0000
vn 0.0000 -1.0000 0.0000
vn 0.0000 1.0000 0.0000
usemtl None
s off
f 1//1 44//1 90//1 56//1
f 1//1 56//1 86//1 27//1
f 1//1 27//1 76//1 38//1
f 1//1 38//1 82//1 44//1
f 2//2 43//2 82//2 38//2
f 2//2 38//2 76//2 30//2
f 2//2 30//2 80//2 39//2
f 2//2 39//2 83//2 43//2
f 3//3 42//3 89//3 55//3
f 3//3 55//3 88//3 33//3
f 3//3 33//3 78//3 40//3
f 3//3 40//3 84//3 42//3
f 4//4 41//4 84//4 40//4
f 4//4 40//4 78//4 36//4
f 4//4 36//4 74//4 26//4
f 4//4 26//4 81//4 41//4
f 5//5 25//5 85//5 54//5
f 5//5 54//5 87//5 47//5
f 5//5 47//5 77//5 35//5
f 5//5 35//5 73//5 25//5
f 6//6 33//6 88//6 53//6
f 6//6 53//6 86//6 46//6
f 6//6 46//6 74//6 36//6
f 6//6 36//6 78//6 33//6
f 7//4 35//4 77//4 34//4
f 7//4 34//4 84//4 41//4
f 7//4 41//4 81//4 37//4
f 7//4 37//4 73//4 35//4
f 8//4 67//4 88//4 55//4
f 8//4 55//4 89//4 68//4
f 8//4 68//4 97//4 66//4
f 8//4 66//4 98//4 67//4
f 9//2 29//2 75//2 28//2
f 9//2 28//2 82//2 43//2
f 9//2 43//2 83//2 31//2
f 9//2 31//2 79//2 29//2
f 10//1 45//1 85//1 51//1
f 10//1 51//1 90//1 44//1
f 10//1 44//1 82//1 28//1
f 10//1 28//1 75//1 45//1
f 11//1 25//1 73//1 37//1
f 11//1 37//1 81//1 50//1
f 11//1 50//1 90//1 51//1
f 11//1 51//1 85//1 25//1
f 12//6 52//6 80//6 48//6
f 12//6 48//6 88//6 67//6
f 12//6 67//6 98//6 63//6
f 12//6 63//6 96//6 52//6
f 13//6 48//6 80//6 30//6
f 13//6 30//6 76//6 27//6
f 13//6 27//6 86//6 53//6
f 13//6 53//6 88//6 48//6
f 14//5 45//5 75//5 29//5
f 14//5 29//5 79//5 32//5
f 14//5 32//5 87//5 54//5
f 14//5 54//5 85//5 45//5
f 15//2 49//2 83//2 39//2
f 15//2 39//2 80//2 52//2
f 15//2 52//2 96//2 60//2
f 15//2 60//2 91//2 49//2
f 16//1 50//1 81//1 26//1
f 16//1 26//1 74//1 46//1
f 16//1 46//1 86//1 56//1
f 16//1 56//1 90//1 50//1
f 17//3 62//3 93//3 65//3
f 17//3 65//3 97//3 61//3
f 17//3 61//3 94//3 59//3
f 17//3 59//3 95//3 62//3
f 18//3 58//3 92//3 57//3
f 18//3 57//3 91//3 64//3
f 18//3 64//3 97//3 65//3
f 18//3 65//3 93//3 58//3
f 19//3 64//3 91//3 60//3
f 19//3 60//3 96//3 63//3
f 19//3 63//3 98//3 66//3
f 19//3 66//3 97//3 64//3
f 20//6 68//6 89//6 42//6
f 20//6 42//6 84//6 69//6
f 20//6 69//6 94//6 61//6
f 20//6 61//6 97//6 68//6
f 21//2 70//2 79//2 31//2
f 21//2 31//2 83//2 49//2
f 21//2 49//2 91//2 57//2
f 21//2 57//2 92//2 70//2
f 22//5 72//5 77//5 47//5
f 22//5 47//5 87//5 71//5
f 22//5 71//5 93//5 62//5
f 22//5 62//5 95//5 72//5
f 23//4 69//4 84//4 34//4
f 23//4 34//4 77//4 72//4
f 23//4 72//4 95//4 59//4
f 23//4 59//4 94//4 69//4
f 24//5 71//5 87//5 32//5
f 24//5 32//5 79//5 70//5
f 24//5 70//5 92//5 58//5
f 24//5 58//5 93//5 71//5
