# Blender v2.79 (sub 0) OBJ File: ''
# www.blender.org
mtllib 893401-05-LP.mtl
o Cube_Cube.001
v -0.275170 -1.000000 1.000000
v -0.275170 1.000000 1.000000
v -0.275170 -1.000000 -1.000000
v -0.275170 1.000000 -1.000000
v 0.275170 -1.000000 1.000000
v 0.275170 1.000000 1.000000
v 0.275170 -1.000000 -1.000000
v 0.275170 1.000000 -1.000000
v -0.275170 -0.564923 1.000000
v -0.275170 -0.564923 -1.000000
v 0.275170 -0.564923 -1.000000
v 0.275170 -0.564923 1.000000
v -0.275170 -1.000000 -0.587678
v -0.275170 1.000000 -0.587678
v 0.275170 -1.000000 -0.587678
v 0.275170 1.000000 -0.587678
v 0.275170 -0.564923 -0.587678
v -0.275170 -0.564923 -0.587678
v 1.846048 -0.564923 -1.000000
v 1.846048 -1.000000 -1.000000
v 1.846048 -1.000000 -0.587678
v 1.846048 -0.564923 1.000000
v 1.846048 -1.000000 1.000000
v 1.846048 1.000000 -1.000000
v 1.846048 -0.564923 -0.587678
v 1.846048 1.000000 -0.587678
vn -1.0000 0.0000 0.0000
vn 0.0000 0.0000 -1.0000
vn 1.0000 0.0000 0.0000
vn 0.0000 0.0000 1.0000
vn 0.0000 -1.0000 0.0000
vn 0.0000 1.0000 0.0000
usemtl None
s off
f 18//1 14//1 4//1 10//1
f 10//2 4//2 8//2 11//2
f 17//3 16//3 6//3 12//3
f 12//4 6//4 2//4 9//4
f 13//5 15//5 5//5 1//5
f 16//6 14//6 2//6 6//6
f 5//4 12//4 9//4 1//4
f 16//4 17//4 25//4 26//4
f 3//2 10//2 11//2 7//2
f 13//1 18//1 10//1 3//1
f 1//1 9//1 18//1 13//1
f 8//6 16//6 26//6 24//6
f 8//6 4//6 14//6 16//6
f 3//5 7//5 15//5 13//5
f 11//2 8//2 24//2 19//2
f 9//1 2//1 14//1 18//1
f 21//3 25//3 22//3 23//3
f 20//3 19//3 25//3 21//3
f 19//3 24//3 26//3 25//3
f 17//6 12//6 22//6 25//6
f 7//2 11//2 19//2 20//2
f 5//5 15//5 21//5 23//5
f 12//4 5//4 23//4 22//4
f 15//5 7//5 20//5 21//5
