# Blender v2.79 (sub 0) OBJ File: ''
# www.blender.org
mtllib 893401-03.mtl
o Cube_Cube.001
v -0.189511 0.000000 -0.619556
v 0.000000 0.000000 -0.882579
v 0.223716 0.000000 0.607271
v 0.000000 0.000000 0.878787
v 0.000000 -0.778272 0.607271
v 0.000000 0.778272 0.607271
v 0.000000 0.778272 -0.619556
v 0.000000 0.778272 -0.012285
v 0.000000 -0.778272 -0.619556
v 0.000000 -0.778272 -0.012285
v 0.223716 0.000000 -0.619556
v 0.747211 0.000000 0.190045
v -0.189511 0.000000 0.607271
v -0.189511 0.000000 -0.012285
v 1.094193 0.000000 -0.012285
v 0.747211 0.778272 -0.012285
v 0.747211 -0.778272 -0.012285
v 0.747211 0.000000 -0.213837
v -0.189511 -0.778272 0.607271
v -0.189511 0.000000 0.878787
v -0.189511 0.778272 -0.619556
v -0.189511 0.000000 -0.882579
v 0.000000 -0.778272 -0.882579
v 0.000000 0.778272 -0.882579
v 0.223716 0.000000 -0.882579
v 0.223716 -0.778272 -0.619556
v 0.223716 0.778272 0.607271
v 0.223716 0.000000 0.878787
v 0.000000 -0.778272 0.878787
v 0.000000 0.778272 0.878787
v -0.189511 -0.778272 -0.619556
v -0.189511 -0.778272 -0.012285
v -0.189511 0.778272 0.607271
v -0.189511 0.778272 -0.012285
v 0.223716 -0.778272 0.607271
v 0.309466 -0.778272 -0.012285
v 0.223716 0.778272 -0.619556
v 0.309466 0.778272 -0.012285
v 0.000000 0.778272 -0.277516
v 0.000000 0.778272 0.256017
v 0.000000 -0.778272 -0.277516
v 0.000000 -0.778272 0.256017
v 0.223716 0.000000 -0.213837
v 0.223716 0.000000 0.190045
v -0.189511 0.000000 0.256017
v -0.189511 0.000000 -0.277516
v 1.094193 -0.778272 -0.012285
v 1.094193 0.778272 -0.012285
v 1.094193 0.000000 -0.213837
v 1.094193 0.000000 0.190045
v 0.747211 -0.778272 0.190045
v 0.747211 0.778272 0.190045
v 0.747211 0.778272 -0.213837
v 0.747211 -0.778272 -0.213837
v -0.189511 -0.778272 0.878787
v -0.189511 0.778272 0.878787
v -0.189511 -0.778272 -0.882579
v -0.189511 0.778272 -0.882579
v 0.223716 -0.778272 0.878787
v 0.223716 0.778272 0.878787
v 0.223716 -0.778272 -0.882579
v 0.223716 0.778272 -0.882579
v -0.189511 -0.778272 -0.277516
v -0.189511 -0.778272 0.256017
v -0.189511 0.778272 0.256017
v -0.189511 0.778272 -0.277516
v 0.223716 -0.778272 0.190045
v 0.223716 -0.778272 -0.213837
v 0.223716 0.778272 -0.213837
v 0.223716 0.778272 0.190045
v 1.094193 -0.778272 0.190045
v 1.094193 -0.778272 -0.213837
v 1.094193 0.778272 -0.213837
v 1.094193 0.778272 0.190045
vn -1.0000 0.0000 0.0000
vn 0.0000 0.0000 -1.0000
vn 1.0000 0.0000 0.0000
vn 0.0000 0.0000 1.0000
vn 0.0000 -1.0000 0.0000
vn 0.0000 1.0000 0.0000
usemtl None
s off
f 1//1 31//1 63//1 46//1
f 1//1 46//1 66//1 21//1
f 1//1 21//1 58//1 22//1
f 1//1 22//1 57//1 31//1
f 2//2 23//2 57//2 22//2
f 2//2 22//2 58//2 24//2
f 2//2 24//2 62//2 25//2
f 2//2 25//2 61//2 23//2
f 3//3 35//3 67//3 44//3
f 3//3 44//3 70//3 27//3
f 3//3 27//3 60//3 28//3
f 3//3 28//3 59//3 35//3
f 4//4 29//4 59//4 28//4
f 4//4 28//4 60//4 30//4
f 4//4 30//4 56//4 20//4
f 4//4 20//4 55//4 29//4
f 5//5 19//5 64//5 42//5
f 5//5 42//5 67//5 35//5
f 5//5 35//5 59//5 29//5
f 5//5 29//5 55//5 19//5
f 6//6 27//6 70//6 40//6
f 6//6 40//6 65//6 33//6
f 6//6 33//6 56//6 30//6
f 6//6 30//6 60//6 27//6
f 7//6 37//6 62//6 24//6
f 7//6 24//6 58//6 21//6
f 7//6 21//6 66//6 39//6
f 7//6 39//6 69//6 37//6
f 8//6 38//6 69//6 39//6
f 8//6 39//6 66//6 34//6
f 8//6 34//6 65//6 40//6
f 8//6 40//6 70//6 38//6
f 9//5 31//5 57//5 23//5
f 9//5 23//5 61//5 26//5
f 9//5 26//5 68//5 41//5
f 9//5 41//5 63//5 31//5
f 10//5 32//5 63//5 41//5
f 10//5 41//5 68//5 36//5
f 10//5 36//5 67//5 42//5
f 10//5 42//5 64//5 32//5
f 11//3 26//3 61//3 25//3
f 11//3 25//3 62//3 37//3
f 11//3 37//3 69//3 43//3
f 11//3 43//3 68//3 26//3
f 12//4 52//4 70//4 44//4
f 12//4 44//4 67//4 51//4
f 12//4 51//4 71//4 50//4
f 12//4 50//4 74//4 52//4
f 13//1 19//1 55//1 20//1
f 13//1 20//1 56//1 33//1
f 13//1 33//1 65//1 45//1
f 13//1 45//1 64//1 19//1
f 14//1 32//1 64//1 45//1
f 14//1 45//1 65//1 34//1
f 14//1 34//1 66//1 46//1
f 14//1 46//1 63//1 32//1
f 15//3 47//3 72//3 49//3
f 15//3 49//3 73//3 48//3
f 15//3 48//3 74//3 50//3
f 15//3 50//3 71//3 47//3
f 16//6 53//6 69//6 38//6
f 16//6 38//6 70//6 52//6
f 16//6 52//6 74//6 48//6
f 16//6 48//6 73//6 53//6
f 17//5 51//5 67//5 36//5
f 17//5 36//5 68//5 54//5
f 17//5 54//5 72//5 47//5
f 17//5 47//5 71//5 51//5
f 18//2 54//2 68//2 43//2
f 18//2 43//2 69//2 53//2
f 18//2 53//2 73//2 49//2
f 18//2 49//2 72//2 54//2
