# Blender v2.79 (sub 0) OBJ File: ''
# www.blender.org
mtllib 893401-04-LP.mtl
o Cube
v 0.259831 -1.000000 -1.000000
v 0.259831 -1.000000 1.000000
v -0.259831 -1.000000 1.000000
v -0.259831 -1.000000 -1.000000
v 0.259831 1.000000 -1.000000
v 0.259831 1.000000 1.000001
v -0.259831 1.000000 1.000000
v -0.259831 1.000000 -1.000000
v 0.259831 -1.000000 0.531667
v -0.259831 -1.000000 0.531666
v 0.259831 1.000000 0.531667
v -0.259831 1.000000 0.531666
v -0.259831 -1.000000 -0.547868
v -0.259831 1.000000 -0.547868
v 0.259831 -1.000000 -0.547868
v 0.259831 1.000000 -0.547867
v 1.278590 -1.000000 0.531667
v 1.278590 -1.000000 1.000000
v 1.278590 1.000000 1.000001
v 1.278590 1.000000 0.531667
v 1.274041 -1.000000 -1.000000
v 1.274041 1.000000 -0.999999
v 1.274041 -1.000000 -0.547868
v 1.274041 1.000000 -0.547867
vn 0.0000 -1.0000 -0.0000
vn 0.0000 1.0000 0.0000
vn -0.0000 -0.0000 1.0000
vn -1.0000 -0.0000 -0.0000
vn 0.0000 0.0000 -1.0000
vn 1.0000 0.0000 0.0000
usemtl Material
s off
f 9//1 2//1 3//1 10//1
f 11//2 12//2 7//2 6//2
f 11//2 6//2 19//2 20//2
f 2//3 6//3 7//3 3//3
f 13//4 14//4 8//4 4//4
f 5//5 1//5 4//5 8//5
f 3//4 7//4 12//4 10//4
f 15//6 16//6 11//6 9//6
f 16//2 14//2 12//2 11//2
f 15//1 9//1 10//1 13//1
f 1//1 15//1 13//1 4//1
f 5//2 8//2 14//2 16//2
f 5//2 16//2 24//2 22//2
f 10//4 12//4 14//4 13//4
f 17//6 20//6 19//6 18//6
f 9//5 11//5 20//5 17//5
f 6//3 2//3 18//3 19//3
f 2//1 9//1 17//1 18//1
f 21//6 22//6 24//6 23//6
f 16//3 15//3 23//3 24//3
f 1//5 5//5 22//5 21//5
f 15//1 1//1 21//1 23//1
