# Blender v2.80 (sub 32) OBJ File: 'colonna.blend'
# www.blender.org
o Plane
v 0.839850 0.002183 1.186906
v 3.220100 0.002183 1.186906
v 0.839850 0.002183 -1.193344
v 3.220100 0.002183 -1.193344
v 0.897326 0.602183 -1.135868
v 0.897326 0.602183 1.129430
v 3.162624 0.602183 1.129430
v 3.162624 0.602183 -1.135868
v 0.839850 0.602183 -1.193344
v 0.839850 0.602183 1.186906
v 3.220100 0.602183 1.186906
v 3.220100 0.602183 -1.193344
v 0.897326 0.689935 -1.135868
v 0.897326 0.689935 1.129430
v 3.162624 0.689935 1.129430
v 3.162624 0.689935 -1.135868
v 3.192719 0.646059 1.159525
v 0.867231 0.646059 1.159525
v 3.192719 0.646059 -1.165963
v 0.867231 0.646059 -1.165963
v 1.071708 0.795556 -0.961486
v 1.071708 0.795556 0.955048
v 2.988242 0.795556 0.955048
v 2.988242 0.795556 -0.961486
v 3.076281 0.764879 -1.049525
v 3.076281 0.764879 1.043086
v 0.983670 0.764879 1.043086
v 0.983670 0.764879 -1.049525
v 3.121714 0.715792 1.088520
v 0.938236 0.715792 -1.094958
v 3.121714 0.715792 -1.094958
v 0.938236 0.715792 1.088520
v 1.071708 0.808591 -0.961486
v 1.071708 0.808591 0.955048
v 2.988242 0.808591 0.955048
v 2.988242 0.808591 -0.961486
v 1.158486 0.869210 -0.874709
v 1.158486 0.869210 0.868270
v 2.901464 0.869210 0.868270
v 2.901464 0.869210 -0.874709
v 2.926894 0.838901 -0.900138
v 2.926894 0.838901 0.893699
v 1.133057 0.838901 0.893699
v 1.133057 0.838901 -0.900138
v 1.158486 2.828749 -0.874709
v 1.158486 2.828749 0.868270
v 2.901464 2.828749 0.868270
v 2.901464 2.828749 -0.874709
v 1.074378 2.934358 -0.958817
v 1.074378 2.934358 0.952378
v 2.985572 2.934358 0.952378
v 2.985572 2.934358 -0.958817
v 0.963127 3.055762 -1.070068
v 0.963127 3.055762 1.063629
v 3.096824 3.055762 1.063629
v 3.096824 3.055762 -1.070068
v 0.963127 3.072884 -1.070068
v 0.963127 3.072884 1.063629
v 3.096824 3.072884 1.063629
v 3.096824 3.072884 -1.070068
v 0.863852 3.072884 -1.169343
v 0.863852 3.072884 1.162904
v 3.196098 3.072884 1.162904
v 3.196098 3.072884 -1.169343
v 0.863852 3.195178 -1.169343
v 0.863852 3.195178 1.162904
v 3.196098 3.195178 1.162904
v 3.196098 3.195178 -1.169343
v 0.841404 3.195178 -1.191791
v 0.841404 3.195178 1.185352
v 3.218546 3.195178 1.185352
v 3.218546 3.195178 -1.191791
v 0.774447 3.267704 -1.258747
v 0.774447 3.267704 1.252309
v 3.285503 3.267704 1.252309
v 3.285503 3.267704 -1.258747
v 0.774447 3.301317 -1.258747
v 0.774447 3.301317 1.252309
v 3.285503 3.301317 1.252309
v 3.285503 3.301317 -1.258747
v 2.927080 2.881553 -0.900324
v 2.927080 2.881553 0.893885
v 1.132870 2.881553 0.893885
v 1.132870 2.881553 -0.900324
v 1.051053 2.959811 -0.982141
v 3.008897 2.959811 -0.982141
v 3.008897 2.959811 0.975703
v 1.051053 2.959811 0.975703
v 2.978244 2.927742 -0.951488
v 1.081706 2.927742 0.945050
v 2.978244 2.927742 0.945050
v 1.081706 2.927742 -0.951488
v 2.994373 2.943962 -0.967617
v 1.065577 2.943962 0.961179
v 1.065577 2.943962 -0.967617
v 2.994373 2.943962 0.961179
v 1.158486 2.818810 0.868270
v 1.158486 2.818810 -0.874709
v 2.901464 2.818810 -0.874709
v 2.901464 2.818810 0.868270
v 2.906499 2.839128 0.873305
v 1.153451 2.839128 -0.879743
v 2.906499 2.839128 -0.879743
v 1.153451 2.839128 0.873305
v 1.030560 3.019496 -1.002634
v 3.029390 3.019496 0.996196
v 3.029390 3.019496 -1.002634
v 1.030560 3.019496 0.996196
v 3.232756 3.210570 -1.206001
v 3.232756 3.210570 1.199562
v 0.827194 3.210570 1.199562
v 0.827194 3.210570 -1.206001
v 3.244538 3.239137 -1.217782
v 0.815412 3.239137 1.211344
v 3.244538 3.239137 1.211344
v 0.815412 3.239137 -1.217782
v 0.969482 3.052344 -1.063712
v 3.090468 3.052344 1.057274
v 3.090468 3.052344 -1.063712
v 0.969482 3.052344 1.057274
v 3.106853 3.072884 -1.080097
v 3.106853 3.072884 1.073659
v 0.953097 3.072884 1.073659
v 0.953097 3.072884 -1.080097
v 3.096824 3.070187 1.063629
v 0.963127 3.070187 1.063629
v 3.096824 3.070187 -1.070068
v 0.963127 3.070187 -1.070068
v 0.774447 3.272026 -1.258747
v 3.285503 3.272026 -1.258747
v 3.285503 3.272026 1.252309
v 0.774447 3.272026 1.252309
v 0.863852 3.192172 -1.169343
v 3.196098 3.192172 -1.169343
v 3.196098 3.192172 1.162904
v 0.863852 3.192172 1.162904
v 3.196098 3.075336 -1.169343
v 0.863852 3.075336 1.162904
v 0.863852 3.075336 -1.169343
v 3.196098 3.075336 1.162904
v 3.189284 3.072884 -1.162528
v 0.870667 3.072884 1.156089
v 3.189284 3.072884 1.156089
v 0.870667 3.072884 -1.162528
v 3.204144 3.195178 -1.177389
v 3.204144 3.195178 1.170950
v 0.855806 3.195178 1.170950
v 0.855806 3.195178 -1.177389
v 3.280146 3.263968 -1.253390
v 0.779804 3.263968 1.246952
v 3.280146 3.263968 1.246952
v 0.779804 3.263968 -1.253390
v 0.774447 3.297195 -1.258747
v 3.285503 3.297195 1.252309
v 3.285503 3.297195 -1.258747
v 0.774447 3.297195 1.252309
v 1.158486 2.810555 -0.874709
v 2.901464 2.810555 -0.874709
v 1.158486 2.810555 0.868270
v 2.901464 2.810555 0.868270
v 0.893229 0.608156 1.133527
v 0.893229 0.608156 -1.139965
v 3.166721 0.608156 1.133527
v 3.166721 0.608156 -1.139965
v 3.165841 0.685245 1.132647
v 3.165841 0.685245 -1.139085
v 0.894109 0.685245 1.132647
v 0.894109 0.685245 -1.139085
v 3.156396 0.693871 1.123202
v 0.903554 0.693871 -1.129640
v 3.156396 0.693871 -1.129640
v 0.903554 0.693871 1.123202
v 3.081915 0.758792 -1.055159
v 0.978036 0.758792 1.048720
v 3.081915 0.758792 1.048720
v 0.978036 0.758792 -1.055159
v 3.067058 0.768093 -1.040302
v 0.992892 0.768093 1.033864
v 3.067058 0.768093 1.033864
v 0.992892 0.768093 -1.040302
v 2.998488 0.791985 -0.971732
v 1.061462 0.791985 0.965294
v 2.998488 0.791985 0.965294
v 1.061462 0.791985 -0.971732
v 2.988242 0.796859 -0.961486
v 2.988242 0.796859 0.955048
v 1.071708 0.796859 0.955048
v 1.071708 0.796859 -0.961486
v 2.988242 0.807418 -0.961486
v 1.071708 0.807418 0.955048
v 2.988242 0.807418 0.955048
v 1.071708 0.807418 -0.961486
v 2.986147 0.809627 0.952952
v 1.073804 0.809627 -0.959391
v 2.986147 0.809627 -0.959391
v 1.073804 0.809627 0.952952
v 2.903089 0.867274 -0.876333
v 1.156862 0.867274 0.869894
v 2.903089 0.867274 0.869894
v 1.156862 0.867274 -0.876333
v 1.158486 0.871814 -0.874709
v 2.901464 0.871814 -0.874709
v 1.158486 0.871814 0.868270
v 2.901464 0.871814 0.868270
v 0.892439 0.602183 1.134317
v 0.892439 0.602183 -1.140755
v 3.167511 0.602183 1.134317
v 3.167511 0.602183 -1.140755
vt 0.000000 0.000000
vt 0.000000 1.000000
vt 1.000000 1.000000
vt 1.000000 0.000000
vt 0.024147 0.024147
vt 0.975853 0.024147
vt 0.975853 0.024147
vt 0.024147 0.024147
vt 0.000000 1.000000
vt 1.000000 1.000000
vt 1.000000 0.000000
vt 0.000000 0.000000
vt 0.022094 0.022094
vt 0.022094 0.977906
vt 0.977906 0.022094
vt 0.977906 0.977906
vt 0.975853 0.024147
vt 0.975853 0.975853
vt 0.975853 0.975853
vt 0.975853 0.024147
vt 0.975853 0.975853
vt 0.975853 0.975853
vt 0.024147 0.975853
vt 0.024147 0.975853
vt 0.975853 0.975853
vt 0.024147 0.975853
vt 0.024147 0.975853
vt 0.975853 0.975853
vt 0.024147 0.024147
vt 0.024147 0.024147
vt 0.975853 0.024147
vt 0.975853 0.024147
vt 0.975853 0.024147
vt 0.975853 0.975853
vt 0.975853 0.975853
vt 0.975853 0.024147
vt 0.024147 0.975853
vt 0.024147 0.024147
vt 0.024147 0.024147
vt 0.024147 0.975853
vt 0.024147 0.024147
vt 0.975853 0.024147
vt 0.975853 0.024147
vt 0.024147 0.024147
vt 0.975853 0.975853
vt 0.024147 0.975853
vt 0.024147 0.975853
vt 0.975853 0.975853
vt 0.975853 0.024147
vt 0.975853 0.975853
vt 0.975853 0.975853
vt 0.975853 0.024147
vt 0.024147 0.975853
vt 0.024147 0.024147
vt 0.024147 0.024147
vt 0.024147 0.975853
vt 0.975853 0.024147
vt 0.975853 0.975853
vt 0.975853 0.975853
vt 0.975853 0.024147
vt 0.024147 0.975853
vt 0.024147 0.024147
vt 0.024147 0.024147
vt 0.024147 0.975853
vt 0.024147 0.975853
vt 0.024147 0.024147
vt 0.024147 0.024147
vt 0.024147 0.975853
vt 0.024147 0.975853
vt 0.024147 0.024147
vt 0.024147 0.024147
vt 0.024147 0.975853
vt 0.024147 0.024147
vt 0.975853 0.024147
vt 0.975853 0.024147
vt 0.024147 0.024147
vt 0.975853 0.975853
vt 0.024147 0.975853
vt 0.024147 0.975853
vt 0.975853 0.975853
vt 0.975853 0.024147
vt 0.975853 0.975853
vt 0.975853 0.975853
vt 0.975853 0.024147
vt 0.975853 0.975853
vt 0.975853 0.975853
vt 0.975853 0.024147
vt 0.975853 0.024147
vt 0.975853 0.975853
vt 0.024147 0.975853
vt 0.024147 0.975853
vt 0.975853 0.975853
vt 0.024147 0.975853
vt 0.024147 0.024147
vt 0.024147 0.024147
vt 0.024147 0.975853
vt 0.024147 0.024147
vt 0.975853 0.024147
vt 0.975853 0.024147
vt 0.024147 0.024147
vt 0.024147 0.024147
vt 0.975853 0.024147
vt 0.975853 0.024147
vt 0.024147 0.024147
vt 0.975853 0.024147
vt 0.975853 0.975853
vt 0.975853 0.975853
vt 0.975853 0.024147
vt 0.975853 0.975853
vt 0.975853 0.975853
vt 0.024147 0.975853
vt 0.024147 0.975853
vt 0.975853 0.975853
vt 0.024147 0.975853
vt 0.024147 0.975853
vt 0.975853 0.975853
vt 0.024147 0.975853
vt 0.024147 0.024147
vt 0.024147 0.024147
vt 0.024147 0.975853
vt 0.975853 0.024147
vt 0.975853 0.975853
vt 0.975853 0.975853
vt 0.975853 0.024147
vt 0.024147 0.024147
vt 0.975853 0.024147
vt 0.975853 0.024147
vt 0.024147 0.024147
vt 0.975853 0.024147
vt 0.975853 0.975853
vt 0.975853 0.975853
vt 0.975853 0.024147
vt 0.024147 0.975853
vt 0.024147 0.024147
vt 0.024147 0.024147
vt 0.024147 0.975853
vt 0.975853 0.975853
vt 0.024147 0.975853
vt 0.024147 0.975853
vt 0.975853 0.975853
vt 0.024147 0.975853
vt 0.024147 0.024147
vt 0.024147 0.024147
vt 0.024147 0.975853
vt 0.024147 0.024147
vt 0.975853 0.024147
vt 0.024147 0.024147
vt 0.975853 0.024147
vt 0.024147 0.024147
vt 0.975853 0.024147
vt 0.975853 0.024147
vt 0.024147 0.024147
vt 0.975853 0.975853
vt 0.024147 0.975853
vt 0.024147 0.975853
vt 0.975853 0.975853
vt 0.024147 0.975853
vt 0.024147 0.024147
vt 0.024147 0.024147
vt 0.024147 0.975853
vt 0.975853 0.024147
vt 0.975853 0.975853
vt 0.975853 0.975853
vt 0.975853 0.024147
vt 0.975853 0.024147
vt 0.975853 0.975853
vt 0.024147 0.024147
vt 0.024147 0.975853
vt 0.024147 0.024147
vt 0.024147 0.975853
vt 0.975853 0.975853
vt 0.975853 0.024147
vt 0.975853 0.024147
vt 0.024147 0.024147
vt 0.024147 0.975853
vt 0.975853 0.975853
vt 0.975853 0.024147
vt 0.024147 0.024147
vt 0.024147 0.975853
vt 0.975853 0.975853
vt 0.975853 0.024147
vt 0.024147 0.024147
vt 0.024147 0.975853
vt 0.975853 0.975853
vt 0.024147 0.024147
vt 0.024147 0.975853
vt 0.975853 0.975853
vt 0.975853 0.024147
vt 0.024147 0.975853
vt 0.024147 0.024147
vt 0.975853 0.024147
vt 0.975853 0.975853
vt 0.024147 0.975853
vt 0.024147 0.024147
vt 0.975853 0.975853
vt 0.975853 0.024147
vt 0.024147 0.024147
vt 0.975853 0.024147
vt 0.975853 0.975853
vt 0.024147 0.975853
vt 0.975853 0.024147
vt 0.024147 0.024147
vt 0.024147 0.975853
vt 0.975853 0.975853
vt 0.975853 0.024147
vt 0.024147 0.024147
vt 0.024147 0.975853
vt 0.975853 0.975853
vn 0.0000 -1.0000 0.0000
vn 0.0000 0.5656 0.8247
vn 0.0000 0.0000 -1.0000
vn 0.0000 0.0000 1.0000
vn 1.0000 0.0000 0.0000
vn -1.0000 0.0000 0.0000
vn 0.0000 1.0000 0.0000
vn 0.3290 0.9443 0.0000
vn 0.8247 0.5656 0.0000
vn -0.8247 0.5656 0.0000
vn 0.0000 0.5656 -0.8247
vn 0.0000 -0.5656 -0.8247
vn -0.8247 -0.5656 0.0000
vn 0.8247 -0.5656 0.0000
vn 0.0000 -0.5656 0.8247
vn -0.3290 0.9443 0.0000
vn 0.0000 0.9443 -0.3290
vn 0.0000 0.9443 0.3290
vn 0.0000 0.6793 0.7339
vn 0.0000 0.6793 -0.7339
vn -0.7339 0.6793 0.0000
vn 0.7339 0.6793 0.0000
vn 0.5343 0.8453 0.0000
vn -0.5343 0.8453 0.0000
vn 0.0000 0.8453 -0.5343
vn 0.0000 0.8453 0.5343
vn 0.7661 0.6427 0.0000
vn -0.7661 0.6427 0.0000
vn 0.0000 0.6427 -0.7661
vn 0.0000 0.6427 0.7661
vn 0.0000 0.8965 0.4429
vn 0.0000 0.8965 -0.4429
vn -0.4429 0.8965 0.0000
vn 0.4429 0.8965 0.0000
vn 0.6701 -0.7423 0.0000
vn 0.0000 -0.8807 -0.4736
vn -0.6701 -0.7423 0.0000
vn 0.0000 -0.7423 -0.6701
vn 0.0000 -0.7423 0.6701
vn 0.0000 -0.8807 0.4736
vn 0.4737 -0.8807 0.0000
vn -0.4736 -0.8807 0.0000
vn 0.5720 -0.8203 0.0000
vn -0.5720 -0.8203 0.0000
vn 0.0000 -0.8203 -0.5720
vn 0.0000 -0.8203 0.5720
vn 0.0000 -0.4365 0.8997
vn 0.0000 -0.4365 -0.8997
vn -0.8997 -0.4365 0.0000
vn 0.8997 -0.4365 0.0000
vn -0.7373 -0.6756 0.0000
vn 0.7373 -0.6756 0.0000
vn 0.0000 -0.6756 0.7373
vn 0.0000 -0.6756 -0.7373
vn -0.9458 -0.3247 0.0000
vn 0.9458 -0.3247 0.0000
vn 0.0000 -0.3247 0.9458
vn 0.0000 -0.3247 -0.9458
vn 0.0000 -0.6783 0.7348
vn 0.0000 -0.6783 -0.7348
vn -0.7348 -0.6783 0.0000
vn 0.7348 -0.6783 0.0000
vn 0.0000 -0.3813 0.9245
vn 0.0000 -0.3813 -0.9245
vn -0.9245 -0.3813 0.0000
vn 0.9245 -0.3813 0.0000
vn 0.4736 -0.8807 0.0000
vn 0.8246 -0.5657 0.0000
vn 0.4430 0.8965 0.0000
vn -0.4429 0.8966 0.0000
vn 0.0000 0.8965 -0.4430
vn 0.0000 0.8965 0.4430
s off
f 1/1/1 3/2/1 4/3/1 2/4/1
f 167/5/2 165/6/2 15/7/2 14/8/2
f 4/3/3 3/2/3 9/9/3 12/10/3
f 1/1/4 2/4/4 11/11/4 10/12/4
f 2/4/5 4/3/5 12/10/5 11/11/5
f 3/2/6 1/1/6 10/12/6 9/9/6
f 205/13/7 206/14/7 9/9/7 10/12/7
f 207/15/7 205/13/7 10/12/7 11/11/7
f 208/16/7 207/15/7 11/11/7 12/10/7
f 206/14/7 208/16/7 12/10/7 9/9/7
f 183/17/8 181/18/8 24/19/8 23/20/8
f 165/6/9 166/21/9 16/22/9 15/7/9
f 168/23/10 167/5/10 14/8/10 13/24/10
f 166/21/11 168/23/11 13/24/11 16/22/11
f 164/25/12 162/26/12 20/27/12 19/28/12
f 162/26/13 161/29/13 18/30/13 20/27/13
f 163/31/14 164/25/14 19/28/14 17/32/14
f 161/29/15 163/31/15 17/32/15 18/30/15
f 191/33/5 189/34/5 36/35/5 35/36/5
f 184/37/16 182/38/16 22/39/16 21/40/16
f 181/18/17 184/37/17 21/40/17 24/19/17
f 182/38/18 183/17/18 23/20/18 22/39/18
f 174/41/19 175/42/19 26/43/19 27/44/19
f 173/45/20 176/46/20 28/47/20 25/48/20
f 176/46/21 174/41/21 27/44/21 28/47/21
f 175/42/22 173/45/22 25/48/22 26/43/22
f 169/49/23 171/50/23 31/51/23 29/52/23
f 170/53/24 172/54/24 32/55/24 30/56/24
f 171/50/25 170/53/25 30/56/25 31/51/25
f 172/54/26 169/49/26 29/52/26 32/55/26
f 199/57/27 197/58/27 40/59/27 39/60/27
f 192/61/6 190/62/6 34/63/6 33/64/6
f 189/34/3 192/61/3 33/64/3 36/35/3
f 190/62/4 191/33/4 35/36/4 34/63/4
f 98/65/6 97/66/6 46/67/6 45/68/6
f 200/69/28 198/70/28 38/71/28 37/72/28
f 197/58/29 200/69/29 37/72/29 40/59/29
f 198/70/30 199/57/30 39/60/30 38/71/30
f 196/73/31 193/74/31 42/75/31 43/76/31
f 195/77/32 194/78/32 44/79/32 41/80/32
f 194/78/33 196/73/33 43/76/33 44/79/33
f 193/74/34 195/77/34 41/80/34 42/75/34
f 91/81/35 89/82/35 52/83/35 51/84/35
f 99/85/3 98/65/3 45/68/3 48/86/3
f 97/66/4 100/87/4 47/88/4 46/67/4
f 100/87/5 99/85/5 48/86/5 47/88/5
f 119/89/36 117/90/36 53/91/36 56/92/36
f 92/93/37 90/94/37 50/95/37 49/96/37
f 89/82/38 92/93/38 49/96/38 52/83/38
f 90/94/39 91/81/39 51/84/39 50/95/39
f 126/97/4 125/98/4 59/99/4 58/100/4
f 120/101/40 118/102/40 55/103/40 54/104/40
f 118/102/41 119/89/41 56/92/41 55/103/41
f 117/90/42 120/101/42 54/104/42 53/91/42
f 143/105/1 141/106/1 64/107/1 63/108/1
f 125/98/5 127/109/5 60/110/5 59/99/5
f 128/111/6 126/97/6 58/100/6 57/112/6
f 127/109/3 128/111/3 57/112/3 60/110/3
f 134/113/3 133/114/3 65/115/3 68/116/3
f 144/117/1 142/118/1 62/119/1 61/120/1
f 141/106/1 144/117/1 61/120/1 64/107/1
f 142/118/1 143/105/1 63/108/1 62/119/1
f 146/121/1 145/122/1 72/123/1 71/124/1
f 136/125/4 135/126/4 67/127/4 66/128/4
f 135/126/5 134/113/5 68/116/5 67/127/5
f 133/114/6 136/125/6 66/128/6 65/115/6
f 151/129/43 149/130/43 76/131/43 75/132/43
f 148/133/1 147/134/1 70/135/1 69/136/1
f 145/122/1 148/133/1 69/136/1 72/123/1
f 147/134/1 146/121/1 71/124/1 70/135/1
f 155/137/3 153/138/3 77/139/3 80/140/3
f 152/141/44 150/142/44 74/143/44 73/144/44
f 149/130/45 152/141/45 73/144/45 76/131/45
f 150/142/46 151/129/46 75/132/46 74/143/46
f 78/145/7 79/146/7 80/140/7 77/139/7
f 156/147/4 154/148/4 79/146/4 78/145/4
f 154/148/5 155/137/5 80/140/5 79/146/5
f 153/138/6 156/147/6 78/145/6 77/139/6
f 104/149/47 101/150/47 82/151/47 83/152/47
f 103/153/48 102/154/48 84/155/48 81/156/48
f 102/154/49 104/149/49 83/152/49 84/155/49
f 101/150/50 103/153/50 81/156/50 82/151/50
f 95/157/51 94/158/51 88/159/51 85/160/51
f 96/161/52 93/162/52 86/163/52 87/164/52
f 94/158/53 96/161/53 87/164/53 88/159/53
f 93/162/54 95/157/54 85/160/54 86/163/54
f 83/152/39 82/151/39 91/81/39 90/94/39
f 81/156/38 84/155/38 92/93/38 89/82/38
f 84/155/37 83/152/37 90/94/37 92/93/37
f 82/151/35 81/156/35 89/82/35 91/81/35
f 52/83/54 49/96/54 95/157/54 93/162/54
f 50/95/53 51/84/53 96/161/53 94/158/53
f 51/84/52 52/83/52 93/162/52 96/161/52
f 49/96/51 50/95/51 94/158/51 95/157/51
f 160/165/5 158/166/5 99/85/5 100/87/5
f 159/167/4 160/165/4 100/87/4 97/66/4
f 158/166/3 157/168/3 98/65/3 99/85/3
f 157/168/6 159/167/6 97/66/6 98/65/6
f 47/88/50 48/86/50 103/153/50 101/150/50
f 45/68/49 46/67/49 104/149/49 102/154/49
f 48/86/48 45/68/48 102/154/48 103/153/48
f 46/67/47 47/88/47 101/150/47 104/149/47
f 85/160/55 88/159/55 108/169/55 105/170/55
f 87/164/56 86/163/56 107/171/56 106/172/56
f 88/159/57 87/164/57 106/172/57 108/169/57
f 86/163/58 85/160/58 105/170/58 107/171/58
f 70/135/59 71/124/59 110/173/59 111/174/59
f 72/123/60 69/136/60 112/175/60 109/176/60
f 69/136/61 70/135/61 111/174/61 112/175/61
f 71/124/62 72/123/62 109/176/62 110/173/62
f 111/174/63 110/173/63 115/177/63 114/178/63
f 109/176/64 112/175/64 116/179/64 113/180/64
f 112/175/65 111/174/65 114/178/65 116/179/65
f 110/173/66 109/176/66 113/180/66 115/177/66
f 105/170/42 108/169/42 120/101/42 117/90/42
f 106/172/67 107/171/67 119/89/67 118/102/67
f 108/169/40 106/172/40 118/102/40 120/101/40
f 107/171/36 105/170/36 117/90/36 119/89/36
f 58/100/1 59/99/1 122/181/1 123/182/1
f 60/110/1 57/112/1 124/183/1 121/184/1
f 57/112/1 58/100/1 123/182/1 124/183/1
f 59/99/1 60/110/1 121/184/1 122/181/1
f 56/92/3 53/91/3 128/111/3 127/109/3
f 53/91/6 54/104/6 126/97/6 128/111/6
f 55/103/5 56/92/5 127/109/5 125/98/5
f 54/104/4 55/103/4 125/98/4 126/97/4
f 73/144/6 74/143/6 132/185/6 129/186/6
f 75/132/5 76/131/5 130/187/5 131/188/5
f 74/143/4 75/132/4 131/188/4 132/185/4
f 76/131/3 73/144/3 129/186/3 130/187/3
f 139/189/6 138/190/6 136/125/6 133/114/6
f 140/191/5 137/192/5 134/113/5 135/126/5
f 138/190/4 140/191/4 135/126/4 136/125/4
f 137/192/3 139/189/3 133/114/3 134/113/3
f 64/107/3 61/120/3 139/189/3 137/192/3
f 62/119/4 63/108/4 140/191/4 138/190/4
f 63/108/5 64/107/5 137/192/5 140/191/5
f 61/120/6 62/119/6 138/190/6 139/189/6
f 123/182/1 122/181/1 143/105/1 142/118/1
f 121/184/1 124/183/1 144/117/1 141/106/1
f 124/183/1 123/182/1 142/118/1 144/117/1
f 122/181/1 121/184/1 141/106/1 143/105/1
f 66/128/1 67/127/1 146/121/1 147/134/1
f 68/116/1 65/115/1 148/133/1 145/122/1
f 65/115/1 66/128/1 147/134/1 148/133/1
f 67/127/1 68/116/1 145/122/1 146/121/1
f 114/178/46 115/177/46 151/129/46 150/142/46
f 113/180/45 116/179/45 152/141/45 149/130/45
f 116/179/44 114/178/44 150/142/44 152/141/44
f 115/177/43 113/180/43 149/130/43 151/129/43
f 129/186/6 132/185/6 156/147/6 153/138/6
f 131/188/5 130/187/5 155/137/5 154/148/5
f 132/185/4 131/188/4 154/148/4 156/147/4
f 130/187/3 129/186/3 153/138/3 155/137/3
f 201/193/6 203/194/6 159/167/6 157/168/6
f 202/195/3 201/193/3 157/168/3 158/166/3
f 203/194/4 204/196/4 160/165/4 159/167/4
f 204/196/5 202/195/5 158/166/5 160/165/5
f 6/197/15 7/198/15 163/31/15 161/29/15
f 7/198/68 8/199/68 164/25/68 163/31/68
f 5/200/13 6/197/13 161/29/13 162/26/13
f 8/199/12 5/200/12 162/26/12 164/25/12
f 19/28/11 20/27/11 168/23/11 166/21/11
f 20/27/10 18/30/10 167/5/10 168/23/10
f 17/32/9 19/28/9 166/21/9 165/6/9
f 18/30/2 17/32/2 165/6/2 167/5/2
f 14/8/26 15/7/26 169/49/26 172/54/26
f 16/22/25 13/24/25 170/53/25 171/50/25
f 13/24/24 14/8/24 172/54/24 170/53/24
f 15/7/23 16/22/23 171/50/23 169/49/23
f 29/52/22 31/51/22 173/45/22 175/42/22
f 30/56/21 32/55/21 174/41/21 176/46/21
f 31/51/20 30/56/20 176/46/20 173/45/20
f 32/55/19 29/52/19 175/42/19 174/41/19
f 27/44/18 26/43/18 179/201/18 178/202/18
f 25/48/17 28/47/17 180/203/17 177/204/17
f 28/47/16 27/44/16 178/202/16 180/203/16
f 26/43/8 25/48/8 177/204/8 179/201/8
f 178/202/18 179/201/18 183/17/18 182/38/18
f 177/204/17 180/203/17 184/37/17 181/18/17
f 180/203/16 178/202/16 182/38/16 184/37/16
f 179/201/8 177/204/8 181/18/8 183/17/8
f 22/39/4 23/20/4 186/205/4 187/206/4
f 24/19/3 21/40/3 188/207/3 185/208/3
f 21/40/6 22/39/6 187/206/6 188/207/6
f 23/20/5 24/19/5 185/208/5 186/205/5
f 187/206/4 186/205/4 191/33/4 190/62/4
f 185/208/3 188/207/3 192/61/3 189/34/3
f 188/207/6 187/206/6 190/62/6 192/61/6
f 186/205/5 185/208/5 189/34/5 191/33/5
f 35/36/69 36/35/69 195/77/69 193/74/69
f 33/64/70 34/63/70 196/73/70 194/78/70
f 36/35/71 33/64/71 194/78/71 195/77/71
f 34/63/72 35/36/72 193/74/72 196/73/72
f 43/76/30 42/75/30 199/57/30 198/70/30
f 41/80/29 44/79/29 200/69/29 197/58/29
f 44/79/28 43/76/28 198/70/28 200/69/28
f 42/75/27 41/80/27 197/58/27 199/57/27
f 39/60/5 40/59/5 202/195/5 204/196/5
f 38/71/4 39/60/4 204/196/4 203/194/4
f 40/59/3 37/72/3 201/193/3 202/195/3
f 37/72/6 38/71/6 203/194/6 201/193/6
f 5/200/7 8/199/7 208/16/7 206/14/7
f 8/199/7 7/198/7 207/15/7 208/16/7
f 7/198/7 6/197/7 205/13/7 207/15/7
f 6/197/7 5/200/7 206/14/7 205/13/7
