# Blender v2.79 (sub 0) OBJ File: 'COLONNA.blend'
# www.blender.org
mtllib 888884-A-LP.mtl
o Plane_Plane.003
v -0.660331 0.339135 -1.336294
v -0.199394 0.339135 -1.336294
v -0.660331 0.339135 -1.797231
v -0.199394 0.339135 -1.797231
v -0.660331 0.452167 -1.797231
v -0.660331 0.452167 -1.336294
v -0.199394 0.452167 -1.336294
v -0.199394 0.452167 -1.797231
v -0.660331 0.469595 -1.797231
v -0.660331 0.469595 -1.336294
v -0.199394 0.469595 -1.336294
v -0.199394 0.469595 -1.797231
v -0.652406 0.469595 -1.789306
v -0.652406 0.469595 -1.344219
v -0.207319 0.469595 -1.344219
v -0.207319 0.469595 -1.789306
v -0.652406 0.473915 -1.789306
v -0.652406 0.473915 -1.344219
v -0.207319 0.473915 -1.344219
v -0.207319 0.473915 -1.789306
v -0.630851 0.494355 -1.767751
v -0.630851 0.494355 -1.365774
v -0.228874 0.494355 -1.365774
v -0.228874 0.494355 -1.767751
v -0.624864 0.494355 -1.761764
v -0.624864 0.494355 -1.371761
v -0.234861 0.494355 -1.371761
v -0.234861 0.494355 -1.761764
v -0.624864 0.498401 -1.761764
v -0.624864 0.498401 -1.371761
v -0.234861 0.498401 -1.371761
v -0.234861 0.498401 -1.761764
v -0.608794 0.511823 -1.745695
v -0.608794 0.511823 -1.387831
v -0.250931 0.511823 -1.387831
v -0.250931 0.511823 -1.745695
v -0.603750 0.511823 -1.740650
v -0.603750 0.511823 -1.392875
v -0.255975 0.511823 -1.392875
v -0.255975 0.511823 -1.740650
v -0.603750 0.904776 -1.740650
v -0.603750 0.904776 -1.392875
v -0.255975 0.904776 -1.392875
v -0.255975 0.904776 -1.740650
v -0.617812 0.920327 -1.754712
v -0.617812 0.920327 -1.378813
v -0.241913 0.920327 -1.378813
v -0.241913 0.920327 -1.754712
v -0.617812 0.923328 -1.754712
v -0.617812 0.923328 -1.378813
v -0.241913 0.923328 -1.378813
v -0.241913 0.923328 -1.754712
v -0.642480 0.946660 -1.779380
v -0.642480 0.946660 -1.354145
v -0.217245 0.946660 -1.354145
v -0.217245 0.946660 -1.779380
v -0.642480 0.951633 -1.779380
v -0.642480 0.951633 -1.354145
v -0.217245 0.951633 -1.354145
v -0.217245 0.951633 -1.779380
v -0.647861 0.951633 -1.784761
v -0.647861 0.951633 -1.348764
v -0.211864 0.951633 -1.348764
v -0.211864 0.951633 -1.784761
v -0.647861 0.968065 -1.784761
v -0.647861 0.968065 -1.348764
v -0.211864 0.968065 -1.348764
v -0.211864 0.968065 -1.784761
v -0.652002 0.968065 -1.788903
v -0.652002 0.968065 -1.344623
v -0.207723 0.968065 -1.344623
v -0.207723 0.968065 -1.788903
v -0.661855 0.982781 -1.798755
v -0.661855 0.982781 -1.334770
v -0.197870 0.982781 -1.334770
v -0.197870 0.982781 -1.798755
vn 0.0000 -1.0000 0.0000
vn 1.0000 0.0000 0.0000
vn -1.0000 0.0000 0.0000
vn 0.0000 0.0000 -1.0000
vn 0.0000 0.0000 1.0000
vn 0.0000 1.0000 0.0000
vn 0.6881 0.7256 0.0000
vn -0.6881 0.7256 0.0000
vn 0.0000 0.7256 -0.6881
vn 0.0000 0.7256 0.6881
vn -0.6411 0.7675 0.0000
vn 0.0000 0.7675 -0.6411
vn 0.0000 0.7675 0.6411
vn 0.6411 0.7675 0.0000
vn 0.0000 -0.6707 -0.7417
vn 0.0000 -0.6707 0.7417
vn 0.7417 -0.6707 0.0000
vn -0.7417 -0.6707 0.0000
vn 0.6871 -0.7265 0.0000
vn -0.6871 -0.7265 0.0000
vn 0.0000 -0.7265 -0.6871
vn 0.0000 -0.7265 0.6871
vn 0.8310 -0.5563 0.0000
vn -0.8310 -0.5563 0.0000
vn 0.0000 -0.5563 -0.8310
vn 0.0000 -0.5563 0.8310
usemtl None
s off
f 1//1 3//1 4//1 2//1
f 7//2 8//2 12//2 11//2
f 2//2 4//2 8//2 7//2
f 3//3 1//3 6//3 5//3
f 4//4 3//4 5//4 8//4
f 1//5 2//5 7//5 6//5
f 12//6 9//6 13//6 16//6
f 5//3 6//3 10//3 9//3
f 8//4 5//4 9//4 12//4
f 6//5 7//5 11//5 10//5
f 15//2 16//2 20//2 19//2
f 10//6 11//6 15//6 14//6
f 11//6 12//6 16//6 15//6
f 9//6 10//6 14//6 13//6
f 19//7 20//7 24//7 23//7
f 13//3 14//3 18//3 17//3
f 16//4 13//4 17//4 20//4
f 14//5 15//5 19//5 18//5
f 24//6 21//6 25//6 28//6
f 17//8 18//8 22//8 21//8
f 20//9 17//9 21//9 24//9
f 18//10 19//10 23//10 22//10
f 27//2 28//2 32//2 31//2
f 22//6 23//6 27//6 26//6
f 23//6 24//6 28//6 27//6
f 21//6 22//6 26//6 25//6
f 29//11 30//11 34//11 33//11
f 25//3 26//3 30//3 29//3
f 28//4 25//4 29//4 32//4
f 26//5 27//5 31//5 30//5
f 36//6 33//6 37//6 40//6
f 32//12 29//12 33//12 36//12
f 30//13 31//13 35//13 34//13
f 31//14 32//14 36//14 35//14
f 39//2 40//2 44//2 43//2
f 34//6 35//6 39//6 38//6
f 35//6 36//6 40//6 39//6
f 33//6 34//6 38//6 37//6
f 44//15 41//15 45//15 48//15
f 37//3 38//3 42//3 41//3
f 40//4 37//4 41//4 44//4
f 38//5 39//5 43//5 42//5
f 46//5 47//5 51//5 50//5
f 42//16 43//16 47//16 46//16
f 43//17 44//17 48//17 47//17
f 41//18 42//18 46//18 45//18
f 51//19 52//19 56//19 55//19
f 47//2 48//2 52//2 51//2
f 45//3 46//3 50//3 49//3
f 48//4 45//4 49//4 52//4
f 56//4 53//4 57//4 60//4
f 49//20 50//20 54//20 53//20
f 52//21 49//21 53//21 56//21
f 50//22 51//22 55//22 54//22
f 59//1 60//1 64//1 63//1
f 54//5 55//5 59//5 58//5
f 55//2 56//2 60//2 59//2
f 53//3 54//3 58//3 57//3
f 63//2 64//2 68//2 67//2
f 57//1 58//1 62//1 61//1
f 60//1 57//1 61//1 64//1
f 58//1 59//1 63//1 62//1
f 68//1 65//1 69//1 72//1
f 61//3 62//3 66//3 65//3
f 64//4 61//4 65//4 68//4
f 62//5 63//5 67//5 66//5
f 71//23 72//23 76//23 75//23
f 66//1 67//1 71//1 70//1
f 67//1 68//1 72//1 71//1
f 65//1 66//1 70//1 69//1
f 74//6 75//6 76//6 73//6
f 69//24 70//24 74//24 73//24
f 72//25 69//25 73//25 76//25
f 70//26 71//26 75//26 74//26
