# Blender v2.79 (sub 0) OBJ File: ''
# www.blender.org
mtllib 889060-B-LP.mtl
o Circle_Circle.003
v 1.752258 5.526811 -0.920180
v 1.371107 5.526811 0.000001
v 1.249675 5.662488 0.000001
v 1.666393 5.662488 -1.006045
v 3.973773 5.526811 0.000001
v 3.592621 5.526811 -0.920180
v 3.678486 5.662488 -1.006045
v 4.095204 5.662488 0.000001
v 2.672440 5.526811 1.301334
v 3.592621 5.526811 0.920182
v 3.678486 5.662488 1.006047
v 2.672440 5.662488 1.422766
v 1.752258 5.526811 0.920182
v 1.666393 5.662488 1.006047
v 2.672440 5.526811 -1.301332
v 2.672440 5.662488 -1.422764
v 2.672440 5.772418 1.314357
v 3.601830 5.772418 0.929391
v 3.588243 5.791902 0.915805
v 2.672440 5.791902 1.295143
v 1.358083 5.772418 0.000001
v 1.743049 5.772418 0.929391
v 1.756636 5.791902 0.915805
v 1.377298 5.791902 0.000001
v 2.672440 5.772418 -1.314355
v 1.743049 5.772418 -0.929389
v 1.756636 5.791902 -0.915803
v 2.672440 5.791902 -1.295141
v 3.601830 5.772418 -0.929389
v 3.588243 5.791902 -0.915803
v 3.986796 5.772418 0.000001
v 3.967582 5.791902 0.000001
v 3.567280 5.791902 -0.894839
v 3.937935 5.791902 0.000001
v 3.567280 5.791902 0.894841
v 2.672440 5.791902 1.265496
v 1.777599 5.791902 0.894841
v 1.406944 5.791902 0.000001
v 1.777599 5.791902 -0.894839
v 2.672440 5.791902 -1.265494
v 3.567280 5.825299 0.894841
v 3.937935 5.825299 0.000001
v 3.937935 5.833649 0.000001
v 3.567280 5.833649 0.894841
v 1.777599 5.825299 0.894841
v 2.672440 5.825299 1.265496
v 2.672440 5.833649 1.265496
v 1.777599 5.833649 0.894841
v 1.777599 5.825299 -0.894839
v 1.406944 5.825299 0.000001
v 1.406944 5.833649 0.000001
v 1.777599 5.833649 -0.894839
v 3.567280 5.825299 -0.894839
v 3.567280 5.833649 -0.894839
v 2.672440 5.825299 -1.265494
v 2.672440 5.833649 -1.265494
v 1.800901 5.833649 -0.871537
v 2.672440 5.833649 -1.232540
v 3.543978 5.833649 -0.871537
v 3.904981 5.833649 0.000001
v 3.543978 5.833649 0.871539
v 2.672440 5.833649 1.232542
v 1.800901 5.833649 0.871539
v 1.439899 5.833649 0.000001
v 3.489483 5.912967 -0.817042
v 3.827914 5.912967 0.000001
v 3.489483 5.912967 0.817044
v 2.672440 5.912967 1.155475
v 1.855396 5.912967 0.817044
v 1.516966 5.912967 0.000001
v 1.855396 5.912967 -0.817042
v 2.672440 5.912967 -1.155473
v 1.824655 5.992182 -0.847784
v 1.473491 5.992182 0.000001
v 1.464269 6.008985 0.000001
v 1.818134 6.008985 -0.854305
v 3.871388 5.992182 0.000001
v 3.520224 5.992182 -0.847784
v 3.526745 6.008985 -0.854305
v 3.880610 6.008985 0.000001
v 2.672440 5.992182 1.198950
v 3.520224 5.992182 0.847786
v 3.526745 6.008985 0.854306
v 2.672440 6.008985 1.208172
v 1.824655 5.992182 0.847786
v 1.818134 6.008985 0.854307
v 2.672440 5.992182 -1.198948
v 2.672440 6.008985 -1.208170
v 3.526745 6.019422 -0.854305
v 2.672440 6.019422 -1.208170
v 2.672440 6.029858 -1.208170
v 3.526745 6.029858 -0.854305
v 3.526745 6.019422 0.854306
v 3.880610 6.019422 0.000001
v 3.880610 6.029858 0.000001
v 3.526745 6.029858 0.854306
v 1.818134 6.019422 0.854307
v 2.672440 6.019422 1.208172
v 2.672440 6.029858 1.208172
v 1.818134 6.029858 0.854307
v 1.818134 6.019422 -0.854305
v 1.464269 6.019422 0.000001
v 1.464269 6.029858 0.000001
v 1.818134 6.029858 -0.854305
v 1.754889 6.113352 0.917551
v 1.374827 6.113352 0.000001
v 1.754889 6.113352 -0.917549
v 2.672440 6.113352 -1.297611
v 3.589990 6.113352 -0.917549
v 3.970052 6.113352 0.000001
v 3.589990 6.113352 0.917551
v 2.672440 6.113352 1.297613
v 3.528197 6.196845 -0.855756
v 3.882663 6.196845 0.000001
v 3.528197 6.196845 0.855758
v 2.672440 6.196845 1.210224
v 1.816683 6.196845 0.855758
v 1.462216 6.196845 0.000001
v 1.816683 6.196845 -0.855756
v 2.672440 6.196845 -1.210222
v 2.672440 6.196845 1.179178
v 1.838635 6.196845 0.833805
v 1.493262 6.196845 0.000001
v 1.838635 6.196845 -0.833803
v 3.506244 6.196845 -0.833803
v 3.851617 6.196845 0.000001
v 3.506244 6.196845 0.833805
v 2.672440 6.196845 -1.179176
v 3.511175 6.205313 -0.838735
v 2.672440 6.205313 -1.186151
v 2.672440 6.238592 -1.213561
v 3.530558 6.238592 -0.858117
v 3.511175 6.205313 0.838737
v 3.858591 6.205313 0.000001
v 3.886002 6.238592 0.000001
v 3.530558 6.238592 0.858119
v 1.833704 6.205313 0.838737
v 2.672440 6.205313 1.186153
v 2.672440 6.238592 1.213563
v 1.814322 6.238592 0.858119
v 1.833704 6.205313 -0.838735
v 1.486288 6.205313 0.000001
v 1.458878 6.238592 0.000001
v 1.814322 6.238592 -0.858117
v 2.672440 6.269513 1.175662
v 3.503757 6.269513 0.831319
v 3.497994 6.276163 0.825555
v 2.672440 6.276163 1.167511
v 1.496779 6.269513 0.000001
v 1.841122 6.269513 0.831319
v 1.846885 6.276163 0.825555
v 1.504929 6.276163 0.000001
v 2.672440 6.269513 -1.175660
v 1.841122 6.269513 -0.831317
v 1.846885 6.276163 -0.825553
v 2.672440 6.276163 -1.167509
v 3.503757 6.269513 -0.831317
v 3.497994 6.276163 -0.825553
v 3.848101 6.269513 0.000001
v 3.839950 6.276163 0.000001
v 3.476892 6.276163 -0.804452
v 3.810108 6.276163 0.000001
v 3.476892 6.276163 0.804454
v 2.672440 6.276163 1.137669
v 1.867987 6.276163 0.804454
v 1.534772 6.276163 0.000001
v 1.867987 6.276163 -0.804452
v 2.672440 6.276163 -1.137667
v 3.476892 6.285272 0.804454
v 3.810108 6.285272 0.000001
v 3.810108 6.326259 0.000001
v 3.476892 6.326259 0.804454
v 1.867987 6.285272 0.804454
v 2.672440 6.285272 1.137669
v 2.672440 6.326259 1.137669
v 1.867987 6.326259 0.804454
v 1.867987 6.285272 -0.804452
v 1.534772 6.285272 0.000001
v 1.534772 6.326259 0.000001
v 1.867987 6.326259 -0.804452
v 3.476892 6.285272 -0.804452
v 3.476892 6.326259 -0.804452
v 2.672440 6.285272 -1.137667
v 2.672440 6.326259 -1.137667
v 2.672440 5.526811 0.000001
v 2.672440 5.526811 0.000001
v 2.672440 5.526811 0.000001
v 2.672440 5.526811 0.000001
v 2.672440 6.326259 0.000001
v 2.672440 6.326259 0.000001
v 2.672440 6.326259 0.000001
v 2.672440 6.326259 0.000001
v 2.672440 6.326259 0.000001
v 2.672440 5.526811 0.000001
v 2.672440 6.326259 0.000001
v 2.672440 6.326259 0.000001
v 2.672440 5.526811 0.000001
v 2.672440 6.326259 0.000001
v 2.672440 5.526811 0.000001
v 2.672440 5.526811 0.000001
vn -0.7120 -0.6372 -0.2949
vn 0.7120 -0.6372 -0.2949
vn 0.2949 -0.6372 0.7120
vn -0.7120 -0.6372 0.2949
vn -0.2949 -0.6372 -0.7120
vn 0.2949 -0.6372 -0.7120
vn 0.7120 -0.6372 0.2949
vn -0.2949 -0.6372 0.7120
vn 0.2829 0.6735 0.6829
vn 0.2829 0.6735 0.6830
vn -0.6829 0.6735 0.2829
vn -0.2829 0.6735 -0.6829
vn 0.2829 0.6735 -0.6829
vn 0.2829 0.6735 -0.6830
vn 0.6829 0.6735 0.2829
vn -0.2829 0.6735 0.6829
vn -0.6829 0.6735 -0.2829
vn 0.6829 0.6735 -0.2829
vn 0.0000 1.0000 0.0000
vn 0.9239 0.0000 0.3827
vn -0.3827 0.0000 0.9239
vn -0.9239 0.0000 -0.3827
vn 0.9239 0.0000 -0.3827
vn 0.3827 0.0000 0.9239
vn -0.9239 0.0000 0.3827
vn -0.3827 0.0000 -0.9239
vn 0.3827 0.0000 -0.9239
vn 0.6875 0.6680 -0.2848
vn 0.2848 0.6680 0.6875
vn -0.6875 0.6680 0.2848
vn -0.2848 0.6680 -0.6875
vn 0.2848 0.6680 -0.6875
vn 0.6875 0.6680 0.2848
vn -0.2848 0.6680 0.6875
vn -0.6875 0.6680 -0.2848
vn -0.8240 -0.4522 -0.3413
vn 0.8240 -0.4522 -0.3413
vn 0.3413 -0.4522 0.8240
vn -0.8240 -0.4522 0.3413
vn -0.3413 -0.4522 -0.8240
vn 0.3413 -0.4522 -0.8240
vn 0.8240 -0.4522 0.3413
vn -0.3413 -0.4522 0.8240
vn -0.6567 -0.7034 0.2720
vn -0.2720 -0.7034 -0.6567
vn 0.2720 -0.7034 -0.6567
vn 0.6567 -0.7034 0.2720
vn -0.2720 -0.7034 0.6567
vn -0.6567 -0.7034 -0.2720
vn 0.6567 -0.7034 -0.2720
vn 0.2720 -0.7034 0.6567
vn 0.6642 0.6951 -0.2751
vn 0.2751 0.6951 0.6642
vn -0.6642 0.6951 0.2751
vn -0.2751 0.6951 -0.6641
vn 0.2751 0.6951 -0.6642
vn 0.6642 0.6951 0.2751
vn -0.2751 0.6951 0.6641
vn -0.6642 0.6951 -0.2751
vn 0.3045 -0.6056 -0.7352
vn 0.7352 -0.6056 0.3045
vn -0.3045 -0.6056 0.7352
vn -0.7352 -0.6055 -0.3045
vn -0.7352 -0.6056 -0.3045
vn 0.7352 -0.6056 -0.3045
vn 0.3045 -0.6056 0.7352
vn -0.7352 -0.6055 0.3045
vn -0.7352 -0.6056 0.3045
vn -0.3045 -0.6056 -0.7352
vn 0.2533 0.7496 0.6115
vn -0.6115 0.7496 0.2533
vn -0.6116 0.7495 0.2533
vn -0.2533 0.7496 -0.6115
vn 0.2533 0.7496 -0.6115
vn 0.6115 0.7496 0.2533
vn -0.2533 0.7496 0.6115
vn -0.6115 0.7496 -0.2533
vn -0.6116 0.7495 -0.2533
vn 0.6115 0.7496 -0.2533
vn 0.3891 0.9212 0.0000
vn -0.0000 -1.0000 0.0000
vn -0.3045 -0.6055 -0.7352
vn -0.7353 -0.6055 0.3045
vn 0.3045 -0.6055 0.7352
vn 0.7352 -0.6055 -0.3045
vn -0.7353 -0.6055 -0.3045
vn -0.3045 -0.6055 0.7352
vn 0.7352 -0.6055 0.3045
vn 0.3045 -0.6055 -0.7352
usemtl None
s 1
f 1//1 2//1 3//1 4//1
f 5//2 6//2 7//2 8//2
f 9//3 10//3 11//3 12//3
f 2//4 13//4 14//4 3//4
f 15//5 1//5 4//5 16//5
f 6//6 15//6 16//6 7//6
f 10//7 5//7 8//7 11//7
f 13//8 9//8 12//8 14//8
f 17//9 18//9 19//10 20//10
f 21//11 22//11 23//11 24//11
f 25//12 26//12 27//12 28//12
f 29//13 25//13 28//14 30//14
f 18//15 31//15 32//15 19//15
f 22//16 17//16 20//16 23//16
f 26//17 21//17 24//17 27//17
f 31//18 29//18 30//18 32//18
f 32//19 30//19 33//19 34//19
f 20//19 19//19 35//19 36//19
f 24//19 23//19 37//19 38//19
f 28//19 27//19 39//19 40//19
f 30//19 28//19 40//19 33//19
f 19//19 32//19 34//19 35//19
f 23//19 20//19 36//19 37//19
f 27//19 24//19 38//19 39//19
f 41//20 42//20 43//20 44//20
f 45//21 46//21 47//21 48//21
f 49//22 50//22 51//22 52//22
f 42//23 53//23 54//23 43//23
f 46//24 41//24 44//24 47//24
f 50//25 45//25 48//25 51//25
f 55//26 49//26 52//26 56//26
f 53//27 55//27 56//27 54//27
f 56//19 52//19 57//19 58//19
f 54//19 56//19 58//19 59//19
f 44//19 43//19 60//19 61//19
f 48//19 47//19 62//19 63//19
f 52//19 51//19 64//19 57//19
f 43//19 54//19 59//19 60//19
f 47//19 44//19 61//19 62//19
f 51//19 48//19 63//19 64//19
f 60//28 59//28 65//28 66//28
f 62//29 61//29 67//29 68//29
f 64//30 63//30 69//30 70//30
f 58//31 57//31 71//31 72//31
f 59//32 58//32 72//32 65//32
f 61//33 60//33 66//33 67//33
f 63//34 62//34 68//34 69//34
f 57//35 64//35 70//35 71//35
f 73//36 74//36 75//36 76//36
f 77//37 78//37 79//37 80//37
f 81//38 82//38 83//38 84//38
f 74//39 85//39 86//39 75//39
f 87//40 73//40 76//40 88//40
f 78//41 87//41 88//41 79//41
f 82//42 77//42 80//42 83//42
f 85//43 81//43 84//43 86//43
f 89//27 90//27 91//27 92//27
f 93//20 94//20 95//20 96//20
f 97//21 98//21 99//21 100//21
f 101//22 102//22 103//22 104//22
f 94//23 89//23 92//23 95//23
f 98//24 93//24 96//24 99//24
f 102//25 97//25 100//25 103//25
f 90//26 101//26 104//26 91//26
f 103//44 100//44 105//44 106//44
f 91//45 104//45 107//45 108//45
f 92//46 91//46 108//46 109//46
f 96//47 95//47 110//47 111//47
f 100//48 99//48 112//48 105//48
f 104//49 103//49 106//49 107//49
f 95//50 92//50 109//50 110//50
f 99//51 96//51 111//51 112//51
f 110//52 109//52 113//52 114//52
f 112//53 111//53 115//53 116//53
f 106//54 105//54 117//54 118//54
f 108//55 107//55 119//55 120//55
f 109//56 108//56 120//56 113//56
f 111//57 110//57 114//57 115//57
f 105//58 112//58 116//58 117//58
f 107//59 106//59 118//59 119//59
f 117//19 116//19 121//19 122//19
f 119//19 118//19 123//19 124//19
f 114//19 113//19 125//19 126//19
f 116//19 115//19 127//19 121//19
f 118//19 117//19 122//19 123//19
f 120//19 119//19 124//19 128//19
f 113//19 120//19 128//19 125//19
f 115//19 114//19 126//19 127//19
f 129//60 130//60 131//60 132//60
f 133//61 134//61 135//61 136//61
f 137//62 138//62 139//62 140//62
f 141//63 142//63 143//64 144//64
f 134//65 129//65 132//65 135//65
f 138//66 133//66 136//66 139//66
f 142//67 137//67 140//68 143//68
f 130//69 141//69 144//69 131//69
f 145//70 146//70 147//70 148//70
f 149//71 150//71 151//72 152//72
f 153//73 154//73 155//73 156//73
f 157//74 153//74 156//74 158//74
f 146//75 159//75 160//75 147//75
f 150//76 145//76 148//76 151//76
f 154//77 149//77 152//78 155//78
f 159//79 157//79 158//79 160//79
f 160//19 158//19 161//19 162//19
f 148//19 147//19 163//19 164//19
f 152//19 151//19 165//19 166//19
f 156//19 155//19 167//19 168//19
f 158//19 156//19 168//19 161//19
f 147//19 160//19 162//19 163//19
f 151//19 148//19 164//19 165//19
f 155//19 152//19 166//19 167//19
f 169//20 170//20 171//20 172//20
f 173//21 174//21 175//21 176//21
f 177//22 178//22 179//22 180//22
f 170//23 181//23 182//23 171//23
f 174//24 169//24 172//24 175//24
f 178//25 173//25 176//25 179//25
f 183//26 177//26 180//26 184//26
f 181//27 183//27 184//27 182//27
f 176//19 175//19 195//19 196//19 179//19
f 180//19 179//19 196//19 198//80 184//19
f 13//81 2//81 1//81 197//81 200//81
f 182//19 184//19 198//80 193//19 171//19
f 15//81 6//81 194//81 197//81 1//81
f 8//18 7//18 29//18 31//18
f 4//17 3//17 21//17 26//17
f 14//16 12//16 17//16 22//16
f 11//15 8//15 31//15 18//15
f 7//13 16//13 25//13 29//13
f 16//12 4//12 26//12 25//12
f 3//11 14//11 22//11 21//11
f 12//9 11//9 18//9 17//9
f 33//27 40//27 55//27 53//27
f 40//26 39//26 49//26 55//26
f 38//25 37//25 45//25 50//25
f 36//24 35//24 41//24 46//24
f 34//23 33//23 53//23 42//23
f 39//22 38//22 50//22 49//22
f 37//21 36//21 46//21 45//21
f 35//20 34//20 42//20 41//20
f 69//43 68//43 81//43 85//43
f 67//42 66//42 77//42 82//42
f 65//41 72//41 87//41 78//41
f 72//40 71//40 73//40 87//40
f 70//39 69//39 85//39 74//39
f 68//38 67//38 82//38 81//38
f 66//37 65//37 78//37 77//37
f 71//36 70//36 74//36 73//36
f 88//26 76//26 101//26 90//26
f 75//25 86//25 97//25 102//25
f 84//24 83//24 93//24 98//24
f 80//23 79//23 89//23 94//23
f 76//22 75//22 102//22 101//22
f 86//21 84//21 98//21 97//21
f 83//20 80//20 94//20 93//20
f 79//27 88//27 90//27 89//27
f 128//82 124//82 141//69 130//69
f 123//83 122//83 137//67 142//67
f 121//84 127//84 133//66 138//66
f 126//85 125//85 129//65 134//65
f 124//86 123//86 142//63 141//63
f 122//87 121//87 138//62 137//62
f 127//88 126//88 134//61 133//61
f 125//89 128//89 130//60 129//60
f 135//79 132//79 157//79 159//79
f 144//77 143//77 149//77 154//77
f 140//76 139//76 145//76 150//76
f 136//75 135//75 159//75 146//75
f 132//74 131//74 153//74 157//74
f 131//73 144//73 154//73 153//73
f 143//71 140//71 150//71 149//71
f 139//70 136//70 146//70 145//70
f 161//27 168//27 183//27 181//27
f 168//26 167//26 177//26 183//26
f 166//25 165//25 173//25 178//25
f 164//24 163//24 169//24 174//24
f 162//23 161//23 181//23 170//23
f 167//22 166//22 178//22 177//22
f 165//21 164//21 174//21 173//21
f 163//20 162//20 170//20 169//20
f 175//19 172//19 171//19 193//19 195//19
f 10//81 9//81 13//81 200//81 199//81
f 5//81 10//81 199//81 194//81 6//81
l 189 190
l 186 188
l 185 186
l 190 191
l 191 192
l 187 188
l 189 192
l 185 187
