# Blender v2.79 (sub 0) OBJ File: ''
# www.blender.org
mtllib 889060-C-LP2.mtl
o Circle
v 0.124837 0.747787 0.185544
v 0.124837 0.747787 0.492392
v 0.431684 0.747787 0.492392
v 0.431684 0.747787 0.185544
v 0.124837 0.791184 0.185544
v 0.124837 0.791184 0.492392
v 0.431684 0.791184 0.492392
v 0.431684 0.791184 0.185544
v 0.124837 0.795370 0.185544
v 0.124837 0.795370 0.492392
v 0.431684 0.795370 0.492392
v 0.431684 0.795370 0.185544
v 0.116890 0.798719 0.177598
v 0.116890 0.798719 0.500339
v 0.439631 0.798719 0.500339
v 0.439631 0.798719 0.177598
v 0.116890 0.803742 0.177598
v 0.116890 0.803742 0.500339
v 0.439631 0.803742 0.500339
v 0.439631 0.803742 0.177598
v 0.110179 0.803742 0.170887
v 0.110179 0.803742 0.507050
v 0.446342 0.803742 0.507050
v 0.446342 0.803742 0.170887
v 0.103997 0.808396 0.164705
v 0.103997 0.808396 0.513231
v 0.452523 0.808396 0.513231
v 0.452523 0.808396 0.164705
v 0.103997 0.812756 0.164705
v 0.103997 0.812756 0.513231
v 0.452523 0.812756 0.513231
v 0.452523 0.812756 0.164705
v 0.109976 0.817698 0.170684
v 0.109976 0.817698 0.507253
v 0.446545 0.817698 0.507253
v 0.446545 0.817698 0.170684
v 0.123686 0.817698 0.184394
v 0.123686 0.817698 0.493543
v 0.432835 0.817698 0.493543
v 0.432835 0.817698 0.184394
v 0.123686 0.845021 0.184394
v 0.123686 0.845021 0.493543
v 0.432835 0.845021 0.493543
v 0.432835 0.845021 0.184394
v 0.123686 0.847928 0.184394
v 0.123686 0.847928 0.493543
v 0.432835 0.847928 0.493543
v 0.432835 0.847928 0.184394
v 0.117077 0.851707 0.177785
v 0.117077 0.851707 0.500152
v 0.439444 0.851707 0.500152
v 0.439444 0.851707 0.177785
v 0.117077 0.855776 0.177785
v 0.117077 0.855776 0.500152
v 0.439444 0.855776 0.500152
v 0.439444 0.855776 0.177785
v 0.111064 0.855776 0.171772
v 0.111064 0.855776 0.506165
v 0.445457 0.855776 0.506165
v 0.445457 0.855776 0.171772
v 0.103113 0.866531 0.163821
v 0.103113 0.866531 0.514116
v 0.453408 0.866531 0.514116
v 0.453408 0.866531 0.163821
v 0.098806 0.876995 0.159514
v 0.098806 0.876995 0.518423
v 0.457715 0.876995 0.518423
v 0.457715 0.876995 0.159514
v 0.098806 0.881646 0.159514
v 0.098806 0.881646 0.518423
v 0.457715 0.881646 0.518423
v 0.457715 0.881646 0.159514
v 0.083419 0.881646 0.144127
v 0.083419 0.881646 0.533809
v 0.473101 0.881646 0.533809
v 0.473101 0.881646 0.144127
v 0.083419 0.900249 0.144127
v 0.083419 0.900249 0.533809
v 0.473101 0.900249 0.533809
v 0.473101 0.900249 0.144127
v 0.083419 0.910132 0.144127
v 0.083419 0.910132 0.533809
v 0.473101 0.910132 0.533809
v 0.473101 0.910132 0.144127
v 0.064583 0.916818 0.125291
v 0.064583 0.916818 0.552645
v 0.491937 0.916818 0.552645
v 0.491937 0.916818 0.125291
v 0.064583 0.921469 0.125291
v 0.064583 0.921469 0.552645
v 0.491937 0.921469 0.552645
v 0.491937 0.921469 0.125291
v 0.060816 0.921469 0.121524
v 0.060816 0.921469 0.556413
v 0.495705 0.921469 0.556413
v 0.495705 0.921469 0.121524
v 0.060816 0.947339 0.121524
v 0.060816 0.947339 0.556413
v 0.495705 0.947339 0.556413
v 0.495705 0.947339 0.121524
v 0.057824 0.947339 0.118532
v 0.057824 0.947339 0.559405
v 0.498697 0.947339 0.559405
v 0.498697 0.947339 0.118532
v 0.057824 0.953443 0.118532
v 0.057824 0.953443 0.559405
v 0.498697 0.953443 0.559405
v 0.498697 0.953443 0.118532
v 0.049938 0.953443 0.110646
v 0.049938 0.953443 0.567291
v 0.506583 0.953443 0.567291
v 0.506583 0.953443 0.110646
v 0.045618 0.962163 0.106326
v 0.045618 0.962163 0.571610
v 0.510902 0.962163 0.571610
v 0.510902 0.962163 0.106326
v 0.045618 0.973209 0.106326
v 0.045618 0.973209 0.571610
v 0.510902 0.973209 0.571610
v 0.510902 0.973209 0.106326
v 0.142593 0.747787 0.492392
v 0.142593 0.747787 0.185545
v 0.142593 0.791184 0.492392
v 0.142593 0.791184 0.185545
v 0.142593 0.795370 0.492392
v 0.142593 0.795370 0.185545
v 0.135566 0.798719 0.500339
v 0.135566 0.798719 0.177598
v 0.135566 0.803742 0.500339
v 0.135566 0.803742 0.177598
v 0.129632 0.803742 0.507050
v 0.129632 0.803742 0.170887
v 0.124165 0.808396 0.513231
v 0.124165 0.808396 0.164705
v 0.124165 0.812756 0.513231
v 0.124165 0.812756 0.164705
v 0.129452 0.817698 0.507253
v 0.129452 0.817698 0.170684
v 0.141575 0.817698 0.493543
v 0.141575 0.817698 0.184394
v 0.141575 0.845021 0.493543
v 0.141575 0.845021 0.184394
v 0.141575 0.847928 0.493543
v 0.141575 0.847928 0.184394
v 0.135731 0.851707 0.500152
v 0.135731 0.851707 0.177785
v 0.135731 0.855776 0.500152
v 0.135731 0.855776 0.177785
v 0.130414 0.855776 0.506165
v 0.130414 0.855776 0.171772
v 0.123383 0.866531 0.514116
v 0.123383 0.866531 0.163821
v 0.119574 0.876995 0.518423
v 0.119574 0.876995 0.159514
v 0.119574 0.881646 0.518423
v 0.119574 0.881646 0.159514
v 0.105969 0.881646 0.533809
v 0.105969 0.881646 0.144127
v 0.105969 0.900249 0.533809
v 0.105969 0.900249 0.144127
v 0.105969 0.910132 0.533809
v 0.105969 0.910132 0.144127
v 0.089313 0.916818 0.552645
v 0.089313 0.916818 0.125291
v 0.089313 0.921469 0.552645
v 0.089313 0.921469 0.125291
v 0.085981 0.921469 0.556413
v 0.085981 0.921469 0.121524
v 0.085981 0.947339 0.556413
v 0.085981 0.947339 0.121524
v 0.083335 0.947339 0.559405
v 0.083335 0.947339 0.118532
v 0.083335 0.953443 0.559405
v 0.083335 0.953443 0.118532
v 0.076362 0.953443 0.567291
v 0.076362 0.953443 0.110646
v 0.072543 0.962163 0.571610
v 0.072543 0.962163 0.106326
v 0.072543 0.973209 0.571610
v 0.072543 0.973209 0.106326
v 0.417202 0.747787 0.185544
v 0.417202 0.791184 0.185544
v 0.417202 0.795370 0.185544
v 0.424399 0.798719 0.177598
v 0.424399 0.803742 0.177598
v 0.430476 0.803742 0.170887
v 0.436075 0.808396 0.164705
v 0.436075 0.812756 0.164705
v 0.430660 0.817698 0.170684
v 0.418244 0.817698 0.184394
v 0.418244 0.845021 0.184394
v 0.418244 0.847928 0.184394
v 0.424230 0.851707 0.177785
v 0.424230 0.855776 0.177785
v 0.429675 0.855776 0.171772
v 0.436876 0.866531 0.163821
v 0.440776 0.876995 0.159514
v 0.440776 0.881646 0.159514
v 0.454710 0.881646 0.144127
v 0.454710 0.900249 0.144127
v 0.454710 0.910132 0.144127
v 0.471768 0.916818 0.125291
v 0.471768 0.921469 0.125291
v 0.475180 0.921469 0.121524
v 0.475180 0.947339 0.121524
v 0.477890 0.947339 0.118532
v 0.477890 0.953443 0.118532
v 0.485031 0.953443 0.110646
v 0.488943 0.962163 0.106326
v 0.488943 0.973209 0.106326
v 0.417202 0.747787 0.492392
v 0.417202 0.791184 0.492392
v 0.417202 0.795370 0.492392
v 0.424399 0.798719 0.500339
v 0.424399 0.803742 0.500339
v 0.430476 0.803742 0.507050
v 0.436075 0.808396 0.513231
v 0.436075 0.812756 0.513231
v 0.430660 0.817698 0.507253
v 0.418244 0.817698 0.493542
v 0.418244 0.845021 0.493542
v 0.418244 0.847928 0.493542
v 0.424230 0.851707 0.500152
v 0.424230 0.855776 0.500152
v 0.429675 0.855776 0.506165
v 0.436876 0.866531 0.514116
v 0.440776 0.876995 0.518423
v 0.440776 0.881646 0.518423
v 0.454710 0.881646 0.533809
v 0.454710 0.900249 0.533809
v 0.454710 0.910132 0.533809
v 0.471768 0.916818 0.552645
v 0.471768 0.921469 0.552645
v 0.475180 0.921469 0.556413
v 0.475180 0.947339 0.556413
v 0.477890 0.947339 0.559405
v 0.477890 0.953443 0.559405
v 0.485031 0.953443 0.567291
v 0.488943 0.962163 0.571610
v 0.488943 0.973209 0.571610
v 0.124837 0.747787 0.477901
v 0.431684 0.747787 0.477901
v 0.124837 0.791184 0.477901
v 0.431684 0.791184 0.477901
v 0.124837 0.795370 0.477901
v 0.431684 0.795370 0.477901
v 0.116890 0.798719 0.485097
v 0.439631 0.798719 0.485097
v 0.116890 0.803742 0.485097
v 0.439631 0.803742 0.485097
v 0.110179 0.803742 0.491174
v 0.446342 0.803742 0.491174
v 0.103997 0.808396 0.496772
v 0.452523 0.808396 0.496772
v 0.103997 0.812756 0.496772
v 0.452523 0.812756 0.496772
v 0.109976 0.817698 0.491358
v 0.446545 0.817698 0.491358
v 0.123686 0.817698 0.478943
v 0.432835 0.817698 0.478943
v 0.123686 0.845021 0.478943
v 0.432835 0.845021 0.478943
v 0.123686 0.847928 0.478943
v 0.432835 0.847928 0.478943
v 0.117077 0.851707 0.484928
v 0.439444 0.851707 0.484928
v 0.117077 0.855776 0.484928
v 0.439444 0.855776 0.484928
v 0.111064 0.855776 0.490373
v 0.445457 0.855776 0.490373
v 0.103113 0.866531 0.497573
v 0.453408 0.866531 0.497573
v 0.098806 0.876995 0.501474
v 0.457715 0.876995 0.501474
v 0.098806 0.881646 0.501474
v 0.457715 0.881646 0.501474
v 0.083419 0.881646 0.515407
v 0.473101 0.881646 0.515407
v 0.083419 0.900249 0.515407
v 0.473101 0.900249 0.515407
v 0.083419 0.910132 0.515407
v 0.473101 0.910132 0.515407
v 0.064583 0.916818 0.532464
v 0.491937 0.916818 0.532464
v 0.064583 0.921469 0.532464
v 0.491937 0.921469 0.532464
v 0.060816 0.921469 0.535875
v 0.495705 0.921469 0.535875
v 0.060816 0.947339 0.535875
v 0.495705 0.947339 0.535875
v 0.057824 0.947339 0.538585
v 0.498697 0.947339 0.538585
v 0.057824 0.953443 0.538585
v 0.498697 0.953443 0.538585
v 0.049938 0.953443 0.545726
v 0.506583 0.953443 0.545726
v 0.045618 0.962163 0.549638
v 0.510902 0.962163 0.549638
v 0.045618 0.973209 0.549638
v 0.510902 0.973209 0.549638
v 0.142593 0.747787 0.477901
v 0.072543 0.973209 0.549638
v 0.417202 0.747787 0.477901
v 0.488943 0.973209 0.549638
v 0.124837 0.747787 0.198819
v 0.124837 0.791184 0.198819
v 0.124837 0.795370 0.198819
v 0.116890 0.798719 0.191560
v 0.116890 0.803742 0.191560
v 0.110179 0.803742 0.185430
v 0.103997 0.808396 0.179783
v 0.103997 0.812756 0.179783
v 0.109976 0.817698 0.185244
v 0.123686 0.817698 0.197768
v 0.123686 0.845021 0.197768
v 0.123686 0.847928 0.197768
v 0.117077 0.851707 0.191731
v 0.117077 0.855776 0.191731
v 0.111064 0.855776 0.186238
v 0.103113 0.866531 0.178975
v 0.098806 0.876995 0.175041
v 0.098806 0.881646 0.175041
v 0.083419 0.881646 0.160986
v 0.083419 0.900249 0.160986
v 0.083419 0.910132 0.160986
v 0.064583 0.916818 0.143779
v 0.064583 0.921469 0.143779
v 0.060816 0.921469 0.140338
v 0.060816 0.947339 0.140338
v 0.057824 0.947339 0.137604
v 0.057824 0.953443 0.137604
v 0.049938 0.953443 0.130401
v 0.045618 0.962163 0.126455
v 0.045618 0.973209 0.126455
v 0.431684 0.747787 0.198819
v 0.431684 0.791184 0.198819
v 0.431684 0.795370 0.198819
v 0.439631 0.798719 0.191560
v 0.439631 0.803742 0.191560
v 0.446342 0.803742 0.185430
v 0.452523 0.808396 0.179783
v 0.452523 0.812756 0.179783
v 0.446545 0.817698 0.185244
v 0.432835 0.817698 0.197768
v 0.432835 0.845021 0.197768
v 0.432835 0.847928 0.197768
v 0.439444 0.851707 0.191731
v 0.439444 0.855776 0.191731
v 0.445457 0.855776 0.186238
v 0.453408 0.866531 0.178975
v 0.457715 0.876995 0.175041
v 0.457715 0.881646 0.175041
v 0.473101 0.881646 0.160986
v 0.473101 0.900249 0.160986
v 0.473101 0.910132 0.160986
v 0.491937 0.916818 0.143779
v 0.491937 0.921469 0.143779
v 0.495705 0.921469 0.140338
v 0.495705 0.947339 0.140338
v 0.498697 0.947339 0.137604
v 0.498697 0.953443 0.137604
v 0.506583 0.953443 0.130401
v 0.510902 0.962163 0.126455
v 0.510902 0.973209 0.126455
v 0.142593 0.747787 0.198819
v 0.072543 0.973209 0.126455
v 0.417202 0.747787 0.198819
v 0.488943 0.973209 0.126455
v 0.432835 0.819442 0.493543
v 0.432835 0.819442 0.184394
v 0.123686 0.819442 0.184394
v 0.123686 0.819442 0.493543
v 0.141575 0.819442 0.493543
v 0.141575 0.819442 0.184394
v 0.418244 0.819442 0.493542
v 0.418244 0.819442 0.184394
v 0.123686 0.819442 0.478943
v 0.432835 0.819442 0.478943
v 0.432835 0.819442 0.197768
v 0.123686 0.819442 0.197768
v 0.439631 0.799974 0.500339
v 0.439631 0.799974 0.177598
v 0.116890 0.799974 0.177598
v 0.116890 0.799974 0.500339
v 0.135566 0.799974 0.500339
v 0.135566 0.799974 0.177598
v 0.424399 0.799974 0.500339
v 0.424399 0.799974 0.177598
v 0.116890 0.799974 0.485097
v 0.439631 0.799974 0.485097
v 0.439631 0.799974 0.191560
v 0.116890 0.799974 0.191560
v 0.491937 0.918147 0.125291
v 0.064583 0.918147 0.125291
v 0.064583 0.918147 0.552645
v 0.491937 0.918147 0.552645
v 0.089313 0.918147 0.552645
v 0.089313 0.918147 0.125291
v 0.471768 0.918147 0.552645
v 0.471768 0.918147 0.125291
v 0.064583 0.918147 0.532464
v 0.491937 0.918147 0.532464
v 0.491937 0.918147 0.143779
v 0.064583 0.918147 0.143779
vn -1.0000 0.0000 0.0000
vn 1.0000 0.0000 0.0000
vn 0.0000 0.0000 1.0000
vn 0.0000 0.0000 -1.0000
vn 0.0000 0.9215 0.3883
vn 0.0000 0.9215 -0.3883
vn -0.3883 0.9215 0.0000
vn 0.3883 0.9215 0.0000
vn 0.0000 1.0000 0.0000
vn 0.0000 0.7989 -0.6015
vn -0.6015 0.7989 -0.0000
vn 0.6015 0.7989 0.0000
vn 0.0000 0.7989 0.6015
vn 0.0000 -0.7708 0.6371
vn 0.0000 -0.7708 -0.6371
vn -0.6371 -0.7708 0.0000
vn 0.6371 -0.7708 0.0000
vn 0.0000 -1.0000 -0.0000
vn -0.4963 0.8681 0.0000
vn 0.4963 0.8681 0.0000
vn -0.0000 0.8681 0.4963
vn 0.0000 0.8681 -0.4963
vn -0.8041 0.5945 -0.0000
vn 0.8041 0.5945 0.0000
vn 0.0000 0.5945 0.8041
vn 0.0000 0.5945 -0.8041
vn 0.0000 0.3806 0.9247
vn 0.0000 0.3806 -0.9247
vn -0.9247 0.3806 0.0000
vn 0.9247 0.3806 0.0000
vn -0.3345 0.9424 0.0000
vn 0.3345 0.9424 -0.0000
vn -0.0000 0.9424 0.3345
vn 0.0000 0.9424 -0.3345
vn 0.0000 0.4439 -0.8961
vn -0.8961 0.4439 0.0000
vn 0.8961 0.4439 -0.0000
vn -0.0000 0.4439 0.8961
vn -0.9247 0.3807 0.0000
usemtl None
s off
f 242//1 3//1 7//1 244//1
f 305//2 1//2 5//2 306//2
f 181//3 4//3 8//3 182//3
f 121//4 2//4 6//4 123//4
f 306//2 5//2 9//2 307//2
f 182//3 8//3 12//3 183//3
f 123//4 6//4 10//4 125//4
f 244//1 7//1 11//1 246//1
f 183//5 12//5 16//5 184//5
f 125//6 10//6 14//6 127//6
f 246//7 11//7 15//7 248//7
f 307//8 9//8 13//8 308//8
f 390//1 381//1 19//1 250//1
f 392//2 383//2 17//2 309//2
f 388//3 382//3 20//3 185//3
f 385//4 384//4 18//4 129//4
f 185//9 20//9 24//9 186//9
f 129//9 18//9 22//9 131//9
f 250//9 19//9 23//9 252//9
f 309//9 17//9 21//9 310//9
f 131//10 22//10 26//10 133//10
f 252//11 23//11 27//11 254//11
f 310//12 21//12 25//12 311//12
f 186//13 24//13 28//13 187//13
f 254//1 27//1 31//1 256//1
f 311//2 25//2 29//2 312//2
f 187//3 28//3 32//3 188//3
f 133//4 26//4 30//4 135//4
f 188//14 32//14 36//14 189//14
f 135//15 30//15 34//15 137//15
f 256//16 31//16 35//16 258//16
f 312//17 29//17 33//17 313//17
f 258//18 35//18 39//18 260//18
f 313//18 33//18 37//18 314//18
f 189//18 36//18 40//18 190//18
f 137//18 34//18 38//18 139//18
f 378//1 369//1 43//1 262//1
f 380//2 371//2 41//2 315//2
f 376//3 370//3 44//3 191//3
f 373//4 372//4 42//4 141//4
f 191//3 44//3 48//3 192//3
f 141//4 42//4 46//4 143//4
f 262//1 43//1 47//1 264//1
f 315//2 41//2 45//2 316//2
f 264//19 47//19 51//19 266//19
f 316//20 45//20 49//20 317//20
f 192//21 48//21 52//21 193//21
f 143//22 46//22 50//22 145//22
f 317//2 49//2 53//2 318//2
f 193//3 52//3 56//3 194//3
f 145//4 50//4 54//4 147//4
f 266//1 51//1 55//1 268//1
f 194//9 56//9 60//9 195//9
f 147//9 54//9 58//9 149//9
f 268//9 55//9 59//9 270//9
f 318//9 53//9 57//9 319//9
f 270//23 59//23 63//23 272//23
f 319//24 57//24 61//24 320//24
f 195//25 60//25 64//25 196//25
f 149//26 58//26 62//26 151//26
f 196//27 64//27 68//27 197//27
f 151//28 62//28 66//28 153//28
f 272//29 63//29 67//29 274//29
f 320//30 61//30 65//30 321//30
f 153//4 66//4 70//4 155//4
f 274//1 67//1 71//1 276//1
f 321//2 65//2 69//2 322//2
f 197//3 68//3 72//3 198//3
f 276//9 71//9 75//9 278//9
f 322//9 69//9 73//9 323//9
f 198//9 72//9 76//9 199//9
f 155//9 70//9 74//9 157//9
f 199//3 76//3 80//3 200//3
f 157//4 74//4 78//4 159//4
f 278//1 75//1 79//1 280//1
f 323//2 73//2 77//2 324//2
f 280//1 79//1 83//1 282//1
f 324//2 77//2 81//2 325//2
f 200//3 80//3 84//3 201//3
f 159//4 78//4 82//4 161//4
f 282//31 83//31 87//31 284//31
f 325//32 81//32 85//32 326//32
f 201//33 84//33 88//33 202//33
f 161//34 82//34 86//34 163//34
f 400//3 393//3 92//3 203//3
f 397//4 395//4 90//4 165//4
f 402//1 396//1 91//1 286//1
f 404//2 394//2 89//2 327//2
f 286//9 91//9 95//9 288//9
f 327//9 89//9 93//9 328//9
f 203//9 92//9 96//9 204//9
f 165//9 90//9 94//9 167//9
f 328//2 93//2 97//2 329//2
f 204//3 96//3 100//3 205//3
f 167//4 94//4 98//4 169//4
f 288//1 95//1 99//1 290//1
f 205//9 100//9 104//9 206//9
f 169//9 98//9 102//9 171//9
f 290//9 99//9 103//9 292//9
f 329//9 97//9 101//9 330//9
f 292//1 103//1 107//1 294//1
f 330//2 101//2 105//2 331//2
f 206//3 104//3 108//3 207//3
f 171//4 102//4 106//4 173//4
f 207//9 108//9 112//9 208//9
f 173//9 106//9 110//9 175//9
f 294//9 107//9 111//9 296//9
f 331//9 105//9 109//9 332//9
f 175//35 110//35 114//35 177//35
f 296//36 111//36 115//36 298//36
f 332//37 109//37 113//37 333//37
f 208//38 112//38 116//38 209//38
f 298//1 115//1 119//1 300//1
f 333//2 113//2 117//2 334//2
f 209//3 116//3 120//3 210//3
f 177//4 114//4 118//4 179//4
f 368//18 210//18 120//18 364//18
f 365//9 122//9 1//9 305//9
f 367//9 181//9 122//9 365//9
f 334//18 117//18 180//18 366//18
f 239//4 177//4 179//4 240//4
f 113//3 178//3 180//3 117//3
f 109//38 176//38 178//38 113//38
f 238//35 175//35 177//35 239//35
f 237//9 173//9 175//9 238//9
f 105//9 174//9 176//9 109//9
f 236//4 171//4 173//4 237//4
f 101//3 172//3 174//3 105//3
f 235//9 169//9 171//9 236//9
f 97//9 170//9 172//9 101//9
f 234//4 167//4 169//4 235//4
f 93//3 168//3 170//3 97//3
f 233//9 165//9 167//9 234//9
f 89//9 166//9 168//9 93//9
f 399//4 397//4 165//4 233//4
f 394//3 398//3 166//3 89//3
f 231//34 161//34 163//34 232//34
f 81//33 162//33 164//33 85//33
f 230//4 159//4 161//4 231//4
f 77//3 160//3 162//3 81//3
f 229//4 157//4 159//4 230//4
f 73//3 158//3 160//3 77//3
f 228//9 155//9 157//9 229//9
f 69//9 156//9 158//9 73//9
f 65//3 154//3 156//3 69//3
f 227//4 153//4 155//4 228//4
f 226//28 151//28 153//28 227//28
f 61//27 152//27 154//27 65//27
f 225//26 149//26 151//26 226//26
f 57//25 150//25 152//25 61//25
f 224//9 147//9 149//9 225//9
f 53//9 148//9 150//9 57//9
f 223//4 145//4 147//4 224//4
f 49//3 146//3 148//3 53//3
f 222//22 143//22 145//22 223//22
f 45//21 144//21 146//21 49//21
f 221//4 141//4 143//4 222//4
f 41//3 142//3 144//3 45//3
f 375//4 373//4 141//4 221//4
f 371//3 374//3 142//3 41//3
f 219//18 137//18 139//18 220//18
f 33//18 138//18 140//18 37//18
f 218//15 135//15 137//15 219//15
f 29//14 136//14 138//14 33//14
f 217//4 133//4 135//4 218//4
f 25//3 134//3 136//3 29//3
f 21//13 132//13 134//13 25//13
f 216//10 131//10 133//10 217//10
f 215//9 129//9 131//9 216//9
f 17//9 130//9 132//9 21//9
f 387//4 385//4 129//4 215//4
f 383//3 386//3 130//3 17//3
f 213//6 125//6 127//6 214//6
f 9//5 126//5 128//5 13//5
f 212//4 123//4 125//4 213//4
f 5//3 124//3 126//3 9//3
f 211//4 121//4 123//4 212//4
f 1//3 122//3 124//3 5//3
f 3//4 211//4 212//4 7//4
f 7//4 212//4 213//4 11//4
f 11//6 213//6 214//6 15//6
f 381//4 387//4 215//4 19//4
f 19//9 215//9 216//9 23//9
f 23//10 216//10 217//10 27//10
f 27//4 217//4 218//4 31//4
f 31//15 218//15 219//15 35//15
f 35//18 219//18 220//18 39//18
f 369//4 375//4 221//4 43//4
f 43//4 221//4 222//4 47//4
f 47//22 222//22 223//22 51//22
f 51//4 223//4 224//4 55//4
f 55//9 224//9 225//9 59//9
f 59//26 225//26 226//26 63//26
f 63//28 226//28 227//28 67//28
f 67//4 227//4 228//4 71//4
f 71//9 228//9 229//9 75//9
f 75//4 229//4 230//4 79//4
f 79//4 230//4 231//4 83//4
f 83//34 231//34 232//34 87//34
f 396//4 399//4 233//4 91//4
f 91//9 233//9 234//9 95//9
f 95//4 234//4 235//4 99//4
f 99//9 235//9 236//9 103//9
f 103//4 236//4 237//4 107//4
f 107//9 237//9 238//9 111//9
f 111//35 238//35 239//35 115//35
f 115//4 239//4 240//4 119//4
f 335//9 4//9 181//9 367//9
f 366//18 180//18 210//18 368//18
f 178//3 209//3 210//3 180//3
f 176//38 208//38 209//38 178//38
f 174//9 207//9 208//9 176//9
f 172//3 206//3 207//3 174//3
f 170//9 205//9 206//9 172//9
f 168//3 204//3 205//3 170//3
f 166//9 203//9 204//9 168//9
f 398//3 400//3 203//3 166//3
f 162//33 201//33 202//33 164//33
f 160//3 200//3 201//3 162//3
f 158//3 199//3 200//3 160//3
f 156//9 198//9 199//9 158//9
f 154//3 197//3 198//3 156//3
f 152//27 196//27 197//27 154//27
f 150//25 195//25 196//25 152//25
f 148//9 194//9 195//9 150//9
f 146//3 193//3 194//3 148//3
f 144//21 192//21 193//21 146//21
f 142//3 191//3 192//3 144//3
f 374//3 376//3 191//3 142//3
f 138//18 189//18 190//18 140//18
f 136//14 188//14 189//14 138//14
f 134//3 187//3 188//3 136//3
f 132//13 186//13 187//13 134//13
f 130//9 185//9 186//9 132//9
f 386//3 388//3 185//3 130//3
f 126//5 183//5 184//5 128//5
f 124//3 182//3 183//3 126//3
f 122//3 181//3 182//3 124//3
f 179//18 302//18 304//18 240//18
f 3//9 242//9 303//9 211//9
f 118//18 299//18 302//18 179//18
f 211//9 303//9 301//9 121//9
f 121//9 301//9 241//9 2//9
f 240//18 304//18 300//18 119//18
f 114//2 297//2 299//2 118//2
f 363//1 298//1 300//1 364//1
f 110//37 295//37 297//37 114//37
f 362//36 296//36 298//36 363//36
f 106//9 293//9 295//9 110//9
f 361//9 294//9 296//9 362//9
f 102//2 291//2 293//2 106//2
f 360//1 292//1 294//1 361//1
f 98//9 289//9 291//9 102//9
f 359//9 290//9 292//9 360//9
f 358//1 288//1 290//1 359//1
f 94//2 287//2 289//2 98//2
f 90//9 285//9 287//9 94//9
f 357//9 286//9 288//9 358//9
f 395//2 401//2 285//2 90//2
f 403//1 402//1 286//1 357//1
f 82//32 281//32 283//32 86//32
f 355//31 282//31 284//31 356//31
f 78//2 279//2 281//2 82//2
f 354//1 280//1 282//1 355//1
f 74//2 277//2 279//2 78//2
f 353//1 278//1 280//1 354//1
f 70//9 275//9 277//9 74//9
f 352//9 276//9 278//9 353//9
f 66//2 273//2 275//2 70//2
f 351//1 274//1 276//1 352//1
f 62//30 271//30 273//30 66//30
f 350//29 272//29 274//29 351//29
f 58//24 269//24 271//24 62//24
f 349//23 270//23 272//23 350//23
f 54//9 267//9 269//9 58//9
f 348//9 268//9 270//9 349//9
f 347//1 266//1 268//1 348//1
f 50//2 265//2 267//2 54//2
f 46//20 263//20 265//20 50//20
f 346//19 264//19 266//19 347//19
f 42//2 261//2 263//2 46//2
f 345//1 262//1 264//1 346//1
f 372//2 377//2 261//2 42//2
f 379//1 378//1 262//1 345//1
f 34//18 257//18 259//18 38//18
f 343//18 258//18 260//18 344//18
f 30//17 255//17 257//17 34//17
f 342//16 256//16 258//16 343//16
f 26//2 253//2 255//2 30//2
f 341//1 254//1 256//1 342//1
f 22//12 251//12 253//12 26//12
f 340//11 252//11 254//11 341//11
f 18//9 249//9 251//9 22//9
f 339//9 250//9 252//9 340//9
f 384//2 389//2 249//2 18//2
f 391//1 390//1 250//1 339//1
f 10//8 245//8 247//8 14//8
f 337//7 246//7 248//7 338//7
f 336//1 244//1 246//1 337//1
f 6//2 243//2 245//2 10//2
f 2//2 241//2 243//2 6//2
f 335//1 242//1 244//1 336//1
f 4//1 335//1 336//1 8//1
f 8//1 336//1 337//1 12//1
f 12//7 337//7 338//7 16//7
f 382//1 391//1 339//1 20//1
f 20//9 339//9 340//9 24//9
f 24//11 340//11 341//11 28//11
f 28//1 341//1 342//1 32//1
f 32//16 342//16 343//16 36//16
f 36//18 343//18 344//18 40//18
f 370//1 379//1 345//1 44//1
f 44//1 345//1 346//1 48//1
f 48//19 346//19 347//19 52//19
f 52//1 347//1 348//1 56//1
f 56//9 348//9 349//9 60//9
f 60//23 349//23 350//23 64//23
f 64//39 350//39 351//39 68//39
f 68//1 351//1 352//1 72//1
f 72//9 352//9 353//9 76//9
f 76//1 353//1 354//1 80//1
f 80//1 354//1 355//1 84//1
f 84//31 355//31 356//31 88//31
f 393//1 403//1 357//1 92//1
f 92//9 357//9 358//9 96//9
f 96//1 358//1 359//1 100//1
f 100//9 359//9 360//9 104//9
f 104//1 360//1 361//1 108//1
f 108//9 361//9 362//9 112//9
f 112//36 362//36 363//36 116//36
f 116//1 363//1 364//1 120//1
f 302//18 366//18 368//18 304//18
f 242//9 335//9 367//9 303//9
f 299//18 334//18 366//18 302//18
f 303//9 367//9 365//9 301//9
f 301//9 365//9 305//9 241//9
f 304//18 368//18 364//18 300//18
f 297//2 333//2 334//2 299//2
f 295//37 332//37 333//37 297//37
f 293//9 331//9 332//9 295//9
f 291//2 330//2 331//2 293//2
f 289//9 329//9 330//9 291//9
f 287//2 328//2 329//2 289//2
f 285//9 327//9 328//9 287//9
f 401//2 404//2 327//2 285//2
f 281//32 325//32 326//32 283//32
f 279//2 324//2 325//2 281//2
f 277//2 323//2 324//2 279//2
f 275//9 322//9 323//9 277//9
f 273//2 321//2 322//2 275//2
f 271//30 320//30 321//30 273//30
f 269//24 319//24 320//24 271//24
f 267//9 318//9 319//9 269//9
f 265//2 317//2 318//2 267//2
f 263//20 316//20 317//20 265//20
f 261//2 315//2 316//2 263//2
f 377//2 380//2 315//2 261//2
f 257//18 313//18 314//18 259//18
f 255//17 312//17 313//17 257//17
f 253//2 311//2 312//2 255//2
f 251//12 310//12 311//12 253//12
f 249//9 309//9 310//9 251//9
f 389//2 392//2 309//2 249//2
f 245//8 307//8 308//8 247//8
f 243//2 306//2 307//2 245//2
f 241//2 305//2 306//2 243//2
f 259//2 314//2 380//2 377//2
f 40//1 344//1 379//1 370//1
f 344//1 260//1 378//1 379//1
f 38//2 259//2 377//2 372//2
f 140//3 190//3 376//3 374//3
f 39//4 220//4 375//4 369//4
f 37//3 140//3 374//3 371//3
f 220//4 139//4 373//4 375//4
f 139//4 38//4 372//4 373//4
f 190//3 40//3 370//3 376//3
f 314//2 37//2 371//2 380//2
f 260//1 39//1 369//1 378//1
f 247//2 308//2 392//2 389//2
f 16//1 338//1 391//1 382//1
f 338//1 248//1 390//1 391//1
f 14//2 247//2 389//2 384//2
f 128//3 184//3 388//3 386//3
f 15//4 214//4 387//4 381//4
f 13//3 128//3 386//3 383//3
f 214//4 127//4 385//4 387//4
f 127//4 14//4 384//4 385//4
f 184//3 16//3 382//3 388//3
f 308//2 13//2 383//2 392//2
f 248//1 15//1 381//1 390//1
f 283//2 326//2 404//2 401//2
f 88//1 356//1 403//1 393//1
f 356//1 284//1 402//1 403//1
f 86//2 283//2 401//2 395//2
f 164//3 202//3 400//3 398//3
f 87//4 232//4 399//4 396//4
f 85//3 164//3 398//3 394//3
f 232//4 163//4 397//4 399//4
f 326//2 85//2 394//2 404//2
f 284//1 87//1 396//1 402//1
f 163//4 86//4 395//4 397//4
f 202//3 88//3 393//3 400//3
