# Blender v2.79 (sub 0) OBJ File: ''
# www.blender.org
mtllib 889060-A-LP.mtl
o Circle_Circle.001
v 4.481368 0.099541 1.819799
v 0.841771 0.099541 1.819798
v 0.841771 0.985608 1.819798
v 4.481368 0.985608 1.819799
v 0.841772 0.099541 -1.819799
v 4.481369 0.099541 -1.819798
v 4.481369 0.985608 -1.819798
v 0.841772 0.985608 -1.819799
v 0.911552 0.985608 1.750017
v 4.411587 0.985608 1.750018
v 4.411588 0.985608 -1.750017
v 0.911553 0.985608 -1.750018
v 0.911553 0.985608 -1.750018
v 0.911552 0.985608 1.750017
v 4.411587 0.985608 1.750018
v 4.411588 0.985608 -1.750017
v 4.411587 1.117575 1.750018
v 4.411588 1.117575 -1.750017
v 0.911552 1.117575 1.750017
v 0.911553 1.117575 -1.750018
v 0.867563 1.117575 1.750017
v 4.367598 1.117575 1.750018
v 4.367599 1.117575 -1.750017
v 0.867563 1.117575 -1.750018
v 0.867563 1.142712 -1.750018
v 0.867563 1.142712 1.750017
v 4.367598 1.142712 1.750018
v 4.367599 1.142712 -1.750017
v 0.965507 1.142712 1.652073
v 4.269654 1.142712 1.652074
v 4.269655 1.142712 -1.652073
v 0.965507 1.142712 -1.652074
v 4.269655 1.230690 -1.652073
v 0.965507 1.230690 -1.652074
v 0.965507 1.230690 1.652073
v 4.269654 1.230690 1.652074
v 0.965507 1.299816 -1.652074
v 0.965507 1.299816 1.652073
v 4.269654 1.299816 1.652074
v 4.269655 1.299816 -1.652073
v 1.084780 1.299816 1.532801
v 4.150382 1.299816 1.532801
v 4.150382 1.299816 -1.532801
v 1.084780 1.299816 -1.532801
v 1.084780 1.343805 -1.532801
v 1.084780 1.343805 1.532801
v 4.150382 1.343805 1.532801
v 4.150382 1.343805 -1.532801
v 1.084780 1.343805 -1.532801
v 1.084780 1.343805 1.532801
v 4.150382 1.343805 1.532801
v 4.150382 1.343805 -1.532801
v 1.210086 1.343805 1.407494
v 4.025075 1.343805 1.407495
v 4.025075 1.343805 -1.407495
v 1.210086 1.343805 -1.407495
v 1.210086 1.450636 -1.407495
v 1.210086 1.450636 1.407494
v 4.025075 1.450636 1.407495
v 4.025075 1.450636 -1.407495
v 3.992813 1.450636 1.375232
v 3.992813 1.450636 -1.375232
v 1.242349 1.450636 1.375232
v 1.242349 1.450636 -1.375232
v 1.242349 1.450636 1.375232
v 3.992813 1.450636 1.375232
v 3.992813 1.450636 -1.375232
v 1.242349 1.450636 -1.375232
v 1.242349 4.527361 -1.375231
v 1.242349 4.527361 1.375233
v 3.992813 4.527361 1.375233
v 3.992813 4.527361 -1.375231
v 1.207935 4.527361 1.409647
v 4.027226 4.527361 1.409647
v 4.027226 4.527361 -1.409645
v 1.207935 4.527361 -1.409644
v 4.027226 4.640476 -1.409645
v 1.207935 4.640476 -1.409644
v 1.207935 4.640476 1.409647
v 4.027226 4.640476 1.409647
v 1.295913 4.646760 -1.409644
v 1.295914 4.646760 1.409647
v 4.115205 4.646760 1.409647
v 4.115205 4.646760 -1.409645
v 1.295914 4.678180 1.409647
v 4.115205 4.678180 1.409647
v 4.115205 4.678180 -1.409645
v 1.295913 4.678180 -1.409644
v 1.205925 4.678181 -1.499633
v 1.205925 4.678180 1.499635
v 4.205194 4.678180 1.499635
v 4.205193 4.678181 -1.499633
v 1.205925 4.759874 -1.499633
v 1.205925 4.759873 1.499635
v 4.205194 4.759873 1.499635
v 4.205193 4.759874 -1.499633
v 1.205925 4.835284 1.499635
v 4.205194 4.835284 1.499635
v 4.205193 4.835285 -1.499633
v 1.205925 4.835285 -1.499633
v 1.092153 4.835285 -1.613405
v 1.092153 4.835284 1.613407
v 4.318965 4.835284 1.613407
v 4.318965 4.835285 -1.613405
v 4.318965 4.879272 1.613407
v 4.318965 4.879273 -1.613405
v 1.092153 4.879272 1.613407
v 1.092153 4.879273 -1.613405
v 1.064736 4.879272 1.640825
v 4.346383 4.879272 1.640824
v 4.346382 4.879273 -1.640823
v 1.064735 4.879273 -1.640822
v 1.064735 5.011241 -1.640822
v 1.064736 5.011240 1.640825
v 4.346383 5.011240 1.640824
v 4.346382 5.011241 -1.640823
v 1.035655 5.011240 1.669906
v 4.375464 5.011240 1.669905
v 4.375463 5.011241 -1.669904
v 1.035654 5.011241 -1.669903
v 4.375463 5.067800 -1.669904
v 1.035654 5.067800 -1.669903
v 1.035655 5.067799 1.669906
v 4.375464 5.067799 1.669905
v 0.966599 5.067800 -1.738957
v 0.966601 5.067799 1.738961
v 4.444519 5.067799 1.738959
v 4.444518 5.067800 -1.738959
v 0.966601 5.130641 1.738961
v 4.444519 5.130641 1.738959
v 4.444518 5.130641 -1.738959
v 0.966599 5.130641 -1.738957
v 0.966599 5.206050 -1.738957
v 0.966601 5.206049 1.738961
v 4.444519 5.206049 1.738959
v 4.444518 5.206050 -1.738959
v 1.384837 5.206050 -1.320721
v 1.384838 5.206050 1.320724
v 4.026282 5.206050 1.320723
v 4.026281 5.206050 -1.320722
v 1.384838 5.356870 1.320724
v 4.026282 5.356870 1.320723
v 4.026281 5.356870 -1.320722
v 1.384837 5.356870 -1.320721
v 1.384837 5.539110 -1.320721
v 1.384838 5.539110 1.320724
v 4.026282 5.539110 1.320723
v 4.026281 5.539110 -1.320722
vn 0.0000 0.0000 -1.0000
vn -0.0000 -0.0000 1.0000
vn 1.0000 0.0000 0.0000
vn -1.0000 0.0000 -0.0000
vn 0.0000 -1.0000 -0.0000
vn 0.0000 0.0000 0.0000
vn 0.0000 1.0000 0.0000
vn 0.0000 0.5846 0.8113
vn 0.0712 -0.9975 -0.0000
vn -0.0712 0.9975 0.0000
usemtl None
s 1
f 1//1 2//1 3//1 4//1
f 5//2 6//2 7//2 8//2
f 2//3 5//3 8//3 3//3
f 6//4 1//4 4//4 7//4
f 4//5 3//5 9//5 10//5
f 8//5 7//5 11//5 12//5
f 3//5 8//5 12//5 9//5
f 7//5 4//5 10//5 11//5
f 9//6 12//6 13//6 14//6
f 11//6 10//6 15//6 16//6
f 10//6 9//6 14//6 15//6
f 12//6 11//6 16//6 13//6
f 16//4 15//4 17//4 18//4
f 15//1 14//1 19//1 17//1
f 13//6 16//6 18//2 20//2
f 14//3 13//3 20//3 19//3
f 17//7 19//7 21//7 22//7
f 20//8 18//8 23//8 24//8
f 19//7 20//7 24//7 21//7
f 18//5 17//5 22//5 23//5
f 21//3 24//3 25//3 26//3
f 23//4 22//4 27//4 28//4
f 22//1 21//1 26//1 27//1
f 24//2 23//2 28//2 25//2
f 27//5 26//5 29//5 30//5
f 25//5 28//5 31//5 32//5
f 26//5 25//5 32//5 29//5
f 28//5 27//5 30//5 31//5
f 32//2 31//2 33//2 34//2
f 29//3 32//3 34//3 35//3
f 31//4 30//4 36//4 33//4
f 30//1 29//1 35//1 36//1
f 35//3 34//3 37//3 38//3
f 33//4 36//4 39//4 40//4
f 36//1 35//1 38//1 39//1
f 34//2 33//2 40//2 37//2
f 39//5 38//5 41//5 42//5
f 37//5 40//5 43//5 44//5
f 38//5 37//5 44//5 41//5
f 40//5 39//5 42//5 43//5
f 41//3 44//3 45//3 46//3
f 43//4 42//4 47//4 48//4
f 42//1 41//1 46//1 47//1
f 44//2 43//2 48//6 45//6
f 46//6 45//6 49//6 50//6
f 48//6 47//6 51//6 52//6
f 47//6 46//6 50//6 51//6
f 45//6 48//6 52//6 49//6
f 51//5 50//5 53//5 54//5
f 49//5 52//5 55//5 56//5
f 50//5 49//5 56//5 53//5
f 52//5 51//5 54//5 55//5
f 53//3 56//3 57//3 58//3
f 55//4 54//4 59//4 60//4
f 54//1 53//1 58//1 59//1
f 56//2 55//2 60//2 57//2
f 60//5 59//5 61//5 62//5
f 59//5 58//5 63//5 61//5
f 57//5 60//5 62//5 64//5
f 58//5 57//5 64//5 63//5
f 61//6 63//6 65//6 66//6
f 64//6 62//6 67//6 68//6
f 63//6 64//6 68//6 65//6
f 62//6 61//6 66//6 67//6
f 65//3 68//3 69//3 70//3
f 67//4 66//4 71//4 72//4
f 66//1 65//1 70//1 71//1
f 68//6 67//6 72//2 69//2
f 71//7 70//7 73//7 74//7
f 69//7 72//7 75//7 76//7
f 70//7 69//7 76//7 73//7
f 72//7 71//7 74//7 75//7
f 76//2 75//2 77//2 78//2
f 73//3 76//3 78//3 79//3
f 75//4 74//4 80//4 77//4
f 74//1 73//1 79//1 80//1
f 79//9 78//9 81//9 82//9
f 77//10 80//10 83//10 84//10
f 80//1 79//1 82//1 83//1
f 78//2 77//2 84//2 81//2
f 83//1 82//1 85//1 86//1
f 81//2 84//2 87//2 88//2
f 82//3 81//3 88//3 85//3
f 84//4 83//4 86//4 87//4
f 85//7 88//7 89//7 90//7
f 87//7 86//7 91//7 92//7
f 86//7 85//7 90//7 91//7
f 88//7 87//7 92//7 89//7
f 90//3 89//3 93//3 94//3
f 92//4 91//4 95//4 96//4
f 91//1 90//1 94//1 95//1
f 89//2 92//2 96//2 93//2
f 95//1 94//1 97//1 98//1
f 93//2 96//2 99//2 100//2
f 94//3 93//3 100//3 97//3
f 96//4 95//4 98//4 99//4
f 97//7 100//7 101//7 102//7
f 99//7 98//7 103//7 104//7
f 98//7 97//7 102//7 103//7
f 100//7 99//7 104//7 101//7
f 104//4 103//4 105//4 106//4
f 103//1 102//1 107//1 105//1
f 101//2 104//2 106//2 108//2
f 102//3 101//3 108//3 107//3
f 105//7 107//7 109//7 110//7
f 108//7 106//7 111//7 112//7
f 107//7 108//7 112//7 109//7
f 106//7 105//7 110//7 111//7
f 109//3 112//3 113//3 114//3
f 111//4 110//4 115//4 116//4
f 110//1 109//1 114//1 115//1
f 112//2 111//2 116//2 113//2
f 115//7 114//7 117//7 118//7
f 113//7 116//7 119//7 120//7
f 114//7 113//7 120//7 117//7
f 116//7 115//7 118//7 119//7
f 120//2 119//2 121//2 122//2
f 117//3 120//3 122//3 123//3
f 119//4 118//4 124//4 121//4
f 118//1 117//1 123//1 124//1
f 123//7 122//7 125//7 126//7
f 121//7 124//7 127//7 128//7
f 124//7 123//7 126//7 127//7
f 122//7 121//7 128//7 125//7
f 127//1 126//1 129//1 130//1
f 125//2 128//2 131//2 132//2
f 126//3 125//3 132//3 129//3
f 128//4 127//4 130//4 131//4
f 129//3 132//3 133//3 134//3
f 131//4 130//4 135//4 136//4
f 130//1 129//1 134//1 135//1
f 132//2 131//2 136//2 133//2
f 134//5 133//5 137//5 138//5
f 136//5 135//5 139//5 140//5
f 135//5 134//5 138//5 139//5
f 133//5 136//5 140//5 137//5
f 139//1 138//1 141//1 142//1
f 137//2 140//2 143//2 144//2
f 138//3 137//3 144//3 141//3
f 140//4 139//4 142//4 143//4
f 141//3 144//3 145//3 146//3
f 143//4 142//4 147//4 148//4
f 142//1 141//1 146//1 147//1
f 144//2 143//2 148//2 145//2
f 148//5 147//5 146//5 145//5
f 5//7 2//7 1//7 6//7
