# Blender v2.79 (sub 0) OBJ File: 'Giusto2.blend'
# www.blender.org
mtllib 889399-B-LP.mtl
o Circle
v 0.342111 0.708954 -0.177957
v 0.216277 0.708954 -0.125835
v 0.164154 0.708954 0.000000
v 0.216277 0.708954 0.125835
v 0.342111 0.708954 0.177957
v 0.467946 0.708954 0.125835
v 0.520068 0.708954 -0.000000
v 0.467946 0.708954 -0.125835
v 0.342111 0.740883 -0.177957
v 0.216277 0.740883 -0.125835
v 0.164154 0.740883 0.000000
v 0.216277 0.740883 0.125835
v 0.342111 0.740883 0.177957
v 0.467946 0.740883 0.125835
v 0.520068 0.740883 -0.000000
v 0.467946 0.740883 -0.125835
v 0.478572 0.726584 -0.136461
v 0.342111 0.726584 -0.192984
v 0.478572 0.726584 0.136461
v 0.535096 0.726584 -0.000000
v 0.205651 0.726584 0.136461
v 0.342111 0.726584 0.192984
v 0.205651 0.726584 -0.136461
v 0.149127 0.726584 0.000000
v 0.342111 0.715116 -0.185471
v 0.527582 0.715116 -0.000000
v 0.342111 0.715116 0.185471
v 0.156641 0.715116 0.000000
v 0.473259 0.715116 -0.131148
v 0.473259 0.715116 0.131148
v 0.210964 0.715116 0.131148
v 0.210964 0.715116 -0.131148
v 0.342111 0.740883 -0.171317
v 0.220971 0.740883 -0.121140
v 0.170794 0.740883 0.000000
v 0.220971 0.740883 0.121140
v 0.342111 0.740883 0.171317
v 0.463251 0.740883 0.121140
v 0.513429 0.740883 -0.000000
v 0.463251 0.740883 -0.121140
v 0.342111 0.746218 -0.171317
v 0.220971 0.746218 -0.121140
v 0.170794 0.746218 0.000000
v 0.220971 0.746218 0.121140
v 0.342111 0.746218 0.171317
v 0.463251 0.746218 0.121140
v 0.513429 0.746218 -0.000000
v 0.463251 0.746218 -0.121140
v 0.342111 0.746218 -0.159337
v 0.229443 0.746218 -0.112668
v 0.182774 0.746218 0.000000
v 0.229443 0.746218 0.112668
v 0.342111 0.746218 0.159337
v 0.454780 0.746218 0.112668
v 0.501448 0.746218 -0.000000
v 0.454780 0.746218 -0.112668
v 0.342111 0.763845 -0.159337
v 0.229443 0.763845 -0.112668
v 0.182774 0.763845 0.000000
v 0.229443 0.763845 0.112668
v 0.342111 0.763845 0.159337
v 0.454780 0.763845 0.112668
v 0.501448 0.763845 -0.000000
v 0.454780 0.763845 -0.112668
v 0.342111 0.763845 -0.161838
v 0.227675 0.763845 -0.114437
v 0.180273 0.763845 0.000000
v 0.227675 0.763845 0.114437
v 0.342111 0.763845 0.161838
v 0.456548 0.763845 0.114437
v 0.503949 0.763845 -0.000000
v 0.456548 0.763845 -0.114437
v 0.342111 0.768124 -0.161838
v 0.227675 0.768124 -0.114437
v 0.180273 0.768124 0.000000
v 0.227675 0.768124 0.114437
v 0.342111 0.768124 0.161838
v 0.456548 0.768124 0.114437
v 0.503949 0.768124 -0.000000
v 0.456548 0.768124 -0.114437
v 0.342111 0.768124 -0.167183
v 0.223895 0.768124 -0.118217
v 0.174928 0.768124 0.000000
v 0.223895 0.768124 0.118217
v 0.342111 0.768124 0.167183
v 0.460328 0.768124 0.118217
v 0.509295 0.768124 -0.000000
v 0.460328 0.768124 -0.118217
v 0.342111 0.790916 -0.167183
v 0.223895 0.790916 -0.118217
v 0.174928 0.790916 0.000000
v 0.223895 0.790916 0.118217
v 0.342111 0.790916 0.167183
v 0.460328 0.790916 0.118217
v 0.509295 0.790916 -0.000000
v 0.460328 0.790916 -0.118217
v 0.342111 0.790916 -0.158210
v 0.230240 0.790916 -0.111871
v 0.183902 0.790916 0.000000
v 0.230240 0.790916 0.111871
v 0.342111 0.790916 0.158210
v 0.453982 0.790916 0.111871
v 0.500321 0.790916 -0.000000
v 0.453982 0.790916 -0.111871
v 0.187615 0.755031 0.000000
v 0.232866 0.755031 -0.109245
v 0.451356 0.755031 -0.109245
v 0.496607 0.755031 -0.000000
v 0.451356 0.755031 0.109245
v 0.342111 0.755031 0.154496
v 0.232866 0.755031 0.109245
v 0.342111 0.755031 -0.154496
v 0.342111 0.779520 0.176526
v 0.217288 0.779520 0.124823
v 0.165585 0.779520 0.000000
v 0.217288 0.779520 -0.124823
v 0.466934 0.779520 -0.124823
v 0.518637 0.779520 -0.000000
v 0.466934 0.779520 0.124823
v 0.342111 0.779520 -0.176526
v 0.342111 0.799293 -0.158210
v 0.230240 0.799293 -0.111871
v 0.183902 0.799293 0.000000
v 0.230240 0.799293 0.111871
v 0.342111 0.799293 0.158210
v 0.453982 0.799293 0.111871
v 0.500321 0.799293 -0.000000
v 0.453982 0.799293 -0.111871
v 0.342111 0.799293 -0.153769
v 0.233380 0.799293 -0.108731
v 0.188342 0.799293 0.000000
v 0.233380 0.799293 0.108731
v 0.342111 0.799293 0.153769
v 0.450842 0.799293 0.108731
v 0.495880 0.799293 -0.000000
v 0.450842 0.799293 -0.108731
v 0.342111 0.804747 -0.153769
v 0.233380 0.804747 -0.108731
v 0.188342 0.804747 0.000000
v 0.233380 0.804747 0.108731
v 0.342111 0.804747 0.153769
v 0.450842 0.804747 0.108731
v 0.495880 0.804747 -0.000000
v 0.450842 0.804747 -0.108731
v 0.342111 0.795104 -0.163124
v 0.457457 0.795104 -0.115346
v 0.505235 0.795104 -0.000000
v 0.457457 0.795104 0.115346
v 0.342111 0.795104 0.163124
v 0.226765 0.795104 0.115346
v 0.178987 0.795104 0.000000
v 0.226765 0.795104 -0.115346
vn 0.0000 -0.1003 0.9949
vn -0.7035 -0.1003 0.7035
vn -0.3149 -0.8954 0.3149
vn 0.0000 -0.8954 0.4453
vn -0.9949 -0.1003 0.0000
vn -0.7035 -0.1003 -0.7035
vn -0.3149 -0.8954 -0.3149
vn -0.4453 -0.8954 0.0000
vn 0.0000 -0.1003 -0.9949
vn 0.7035 -0.1003 -0.7035
vn 0.3149 -0.8954 -0.3149
vn 0.0000 -0.8954 -0.4453
vn 0.9949 -0.1003 0.0000
vn 0.7035 -0.1003 0.7035
vn 0.3149 -0.8954 0.3149
vn 0.4453 -0.8954 0.0000
vn 0.5371 0.6503 0.5371
vn 0.0000 0.6503 0.7596
vn 0.5371 0.6503 -0.5371
vn 0.7596 0.6503 0.0000
vn -0.5371 0.6503 -0.5371
vn 0.0000 0.6503 -0.7596
vn -0.5371 0.6503 0.5371
vn -0.7596 0.6503 0.0000
vn 0.0000 0.7732 0.6341
vn -0.4484 0.7732 0.4484
vn -0.6341 0.7732 0.0000
vn -0.4484 0.7732 -0.4484
vn 0.0000 0.7732 -0.6341
vn 0.4484 0.7732 -0.4484
vn 0.6341 0.7732 0.0000
vn 0.4484 0.7732 0.4484
vn 0.0000 -0.8042 -0.5943
vn -0.4203 -0.8042 -0.4203
vn 0.5943 -0.8042 0.0000
vn 0.4203 -0.8042 -0.4203
vn 0.0000 -0.8042 0.5943
vn 0.4203 -0.8042 0.4203
vn -0.4203 -0.8042 0.4203
vn -0.5943 -0.8042 0.0000
vn 0.0000 -0.6302 0.7764
vn 0.5490 -0.6302 0.5490
vn -0.5490 -0.6302 0.5490
vn -0.5490 -0.6302 -0.5490
vn -0.7764 -0.6302 0.0000
vn 0.5490 -0.6302 -0.5490
vn 0.0000 -0.6302 -0.7764
vn 0.7764 -0.6302 0.0000
vn -0.4032 -0.9151 0.0000
vn -0.2851 -0.9151 0.2851
vn 0.0000 -0.9151 -0.4032
vn -0.2851 -0.9151 -0.2851
vn 0.4032 -0.9151 0.0000
vn 0.2851 -0.9151 -0.2851
vn 0.0000 -0.9151 0.4032
vn 0.2851 -0.9151 0.2851
vn 1.0000 0.0000 0.0000
vn 0.7071 0.0000 0.7071
vn 0.2851 0.9151 0.2851
vn 0.4032 0.9151 0.0000
vn -0.7071 0.0000 0.7071
vn -1.0000 0.0000 0.0000
vn -0.4032 0.9151 0.0000
vn -0.2851 0.9151 0.2851
vn -0.7071 0.0000 -0.7071
vn 0.0000 0.0000 -1.0000
vn 0.0000 0.9151 -0.4032
vn -0.2851 0.9151 -0.2851
vn 0.7071 0.0000 -0.7071
vn 0.2851 0.9151 -0.2851
vn 0.0000 0.0000 1.0000
vn 0.0000 0.9151 0.4032
vn -0.5490 0.6302 0.5490
vn 0.0000 0.6302 0.7764
vn -0.5490 0.6302 -0.5490
vn -0.7764 0.6302 0.0000
vn 0.5490 0.6302 -0.5490
vn 0.0000 0.6302 -0.7764
vn 0.5490 0.6302 0.5490
vn 0.7764 0.6302 0.0000
vn 0.5943 0.8042 0.0000
vn 0.4203 0.8042 -0.4203
vn 0.0000 0.8042 0.5943
vn 0.4203 0.8042 0.4203
vn -0.4203 0.8042 0.4203
vn -0.4203 0.8042 -0.4203
vn -0.5943 0.8042 0.0000
vn 0.0000 0.8042 -0.5943
vn -0.5068 0.8620 0.0000
vn -0.3584 0.8620 0.3584
vn 0.0000 0.8620 -0.5068
vn -0.3584 0.8620 -0.3584
vn 0.5068 0.8620 0.0000
vn 0.3584 0.8620 -0.3584
vn 0.0000 0.8620 0.5068
vn 0.3584 0.8620 0.3584
vn 0.3584 -0.8620 -0.3584
vn 0.0000 -0.8620 -0.5068
vn 0.3584 -0.8620 0.3584
vn 0.5068 -0.8620 0.0000
vn -0.5068 -0.8620 0.0000
vn -0.3584 -0.8620 0.3584
vn -0.3584 -0.8620 -0.3584
vn 0.0000 -0.8620 0.5068
vn -0.6309 -0.4516 0.6309
vn 0.0000 -0.4516 0.8922
vn -0.6309 -0.4516 -0.6309
vn -0.8922 -0.4516 0.0000
vn 0.6309 -0.4516 -0.6309
vn 0.0000 -0.4516 -0.8922
vn 0.6309 -0.4516 0.6309
vn 0.8922 -0.4516 0.0000
vn -0.2947 -0.9090 0.2947
vn 0.0000 -0.9090 0.4168
vn -0.2947 -0.9090 -0.2947
vn -0.4168 -0.9090 0.0000
vn 0.2947 -0.9090 -0.2947
vn 0.0000 -0.9090 -0.4168
vn 0.2947 -0.9090 0.2947
vn 0.4168 -0.9090 0.0000
usemtl None
s 1
f 18//1 17//2 16//3 9//4
f 20//5 19//6 14//7 15//8
f 22//9 21//10 12//11 13//12
f 24//13 23//14 10//15 11//16
f 17//2 20//5 15//8 16//3
f 19//6 22//9 13//12 14//7
f 21//10 24//13 11//16 12//11
f 23//14 18//1 9//4 10//15
f 32//17 25//18 18//1 23//14
f 31//19 28//20 24//13 21//10
f 30//21 27//22 22//9 19//6
f 29//23 26//24 20//5 17//2
f 28//20 32//17 23//14 24//13
f 27//22 31//19 21//10 22//9
f 26//24 30//21 19//6 20//5
f 25//18 29//23 17//2 18//1
f 1//25 8//26 29//23 25//18
f 7//27 6//28 30//21 26//24
f 5//29 4//30 31//19 27//22
f 3//31 2//32 32//17 28//20
f 8//26 7//27 26//24 29//23
f 6//28 5//29 27//22 30//21
f 4//30 3//31 28//20 31//19
f 2//32 1//25 25//18 32//17
f 14//7 13//12 37//33 38//34
f 12//11 11//16 35//35 36//36
f 10//15 9//4 33//37 34//38
f 9//4 16//3 40//39 33//37
f 15//8 14//7 38//34 39//40
f 13//12 12//11 36//36 37//33
f 11//16 10//15 34//38 35//35
f 16//3 15//8 39//40 40//39
f 34//38 33//37 41//41 42//42
f 33//37 40//39 48//43 41//41
f 39//40 38//34 46//44 47//45
f 37//33 36//36 44//46 45//47
f 35//35 34//38 42//42 43//48
f 40//39 39//40 47//45 48//43
f 38//34 37//33 45//47 46//44
f 36//36 35//35 43//48 44//46
f 48//43 47//45 55//49 56//50
f 46//44 45//47 53//51 54//52
f 44//46 43//48 51//53 52//54
f 42//42 41//41 49//55 50//56
f 41//41 48//43 56//50 49//55
f 47//45 46//44 54//52 55//49
f 45//47 44//46 52//54 53//51
f 43//48 42//42 50//56 51//53
f 105//57 106//58 58//59 59//60
f 107//61 108//62 63//63 64//64
f 109//65 110//66 61//67 62//68
f 111//69 105//57 59//60 60//70
f 106//58 112//71 57//72 58//59
f 112//71 107//61 64//64 57//72
f 108//62 109//65 62//68 63//63
f 110//66 111//69 60//70 61//67
f 57//72 64//64 72//73 65//74
f 63//63 62//68 70//75 71//76
f 61//67 60//70 68//77 69//78
f 59//60 58//59 66//79 67//80
f 64//64 63//63 71//76 72//73
f 62//68 61//67 69//78 70//75
f 60//70 59//60 67//80 68//77
f 58//59 57//72 65//74 66//79
f 68//77 67//80 75//81 76//82
f 66//79 65//74 73//83 74//84
f 65//74 72//73 80//85 73//83
f 71//76 70//75 78//86 79//87
f 69//78 68//77 76//82 77//88
f 67//80 66//79 74//84 75//81
f 72//73 71//76 79//87 80//85
f 70//75 69//78 77//88 78//86
f 80//85 79//87 87//89 88//90
f 78//86 77//88 85//91 86//92
f 76//82 75//81 83//93 84//94
f 74//84 73//83 81//95 82//96
f 73//83 80//85 88//90 81//95
f 79//87 78//86 86//92 87//89
f 77//88 76//82 84//94 85//91
f 75//81 74//84 82//96 83//93
f 113//66 114//69 92//97 93//98
f 115//57 116//58 90//99 91//100
f 117//61 118//62 95//101 96//102
f 119//65 113//66 93//98 94//103
f 114//69 115//57 91//100 92//97
f 116//58 120//71 89//104 90//99
f 120//71 117//61 96//102 89//104
f 118//62 119//65 94//103 95//101
f 89//104 96//102 104//105 97//106
f 95//101 94//103 102//107 103//108
f 93//98 92//97 100//109 101//110
f 91//100 90//99 98//111 99//112
f 96//102 95//101 103//108 104//105
f 94//103 93//98 101//110 102//107
f 92//97 91//100 99//112 100//109
f 90//99 89//104 97//106 98//111
f 53//51 52//54 111//69 110//66
f 55//49 54//52 109//65 108//62
f 49//55 56//50 107//61 112//71
f 50//56 49//55 112//71 106//58
f 52//54 51//53 105//57 111//69
f 54//52 53//51 110//66 109//65
f 56//50 55//49 108//62 107//61
f 51//53 50//56 106//58 105//57
f 87//89 86//92 119//65 118//62
f 81//95 88//90 117//61 120//71
f 82//96 81//95 120//71 116//58
f 84//94 83//93 115//57 114//69
f 86//92 85//91 113//66 119//65
f 88//90 87//89 118//62 117//61
f 83//93 82//96 116//58 115//57
f 85//91 84//94 114//69 113//66
f 145//71 146//61 128//113 121//114
f 147//62 148//65 126//115 127//116
f 149//66 150//69 124//117 125//118
f 151//57 152//58 122//119 123//120
f 146//61 147//62 127//116 128//113
f 148//65 149//66 125//118 126//115
f 150//69 151//57 123//120 124//117
f 152//58 145//71 121//114 122//119
f 127//116 126//115 134//34 135//40
f 125//118 124//117 132//36 133//33
f 123//120 122//119 130//38 131//35
f 128//113 127//116 135//40 136//39
f 126//115 125//118 133//33 134//34
f 124//117 123//120 131//35 132//36
f 122//119 121//114 129//37 130//38
f 121//114 128//113 136//39 129//37
f 130//38 129//37 137//71 138//58
f 129//37 136//39 144//61 137//71
f 135//40 134//34 142//65 143//62
f 133//33 132//36 140//69 141//66
f 131//35 130//38 138//58 139//57
f 136//39 135//40 143//62 144//61
f 134//34 133//33 141//66 142//65
f 132//36 131//35 139//57 140//69
f 98//111 97//106 145//71 152//58
f 100//109 99//112 151//57 150//69
f 102//107 101//110 149//66 148//65
f 104//105 103//108 147//62 146//61
f 99//112 98//111 152//58 151//57
f 101//110 100//109 150//69 149//66
f 103//108 102//107 148//65 147//62
f 97//106 104//105 146//61 145//71
