# Blender v2.79 (sub 0) OBJ File: 'parte bassa giusta.blend'
# www.blender.org
mtllib OKKKKK.mtl
o Circle
v 0.573789 0.009045 -0.233063
v 0.107663 0.009045 -0.233063
v 0.107663 0.009045 0.233063
v 0.573789 0.009045 0.233063
v 0.573789 0.128257 -0.233063
v 0.107663 0.128257 -0.233063
v 0.107663 0.128257 0.233063
v 0.573789 0.128257 0.233063
v 0.563870 0.009045 0.233063
v 0.563870 0.128257 0.233063
v 0.114521 0.009045 0.233063
v 0.114521 0.128257 0.233063
v 0.107663 0.009045 0.223457
v 0.107663 0.128257 0.223457
v 0.107663 0.009045 -0.224341
v 0.107663 0.128257 -0.224341
v 0.114977 0.009045 -0.233063
v 0.114977 0.128257 -0.233063
v 0.564442 0.009045 -0.233063
v 0.564442 0.128257 -0.233063
v 0.573789 0.009045 -0.224595
v 0.573789 0.128257 -0.224595
v 0.573789 0.009045 0.223940
v 0.573789 0.128257 0.223940
v 0.563606 0.128257 -0.222904
v 0.117809 0.128257 -0.222904
v 0.117809 0.128257 0.222893
v 0.563606 0.128257 0.222893
v 0.554120 0.128257 0.222893
v 0.124368 0.128257 0.222893
v 0.117809 0.128257 0.213706
v 0.117809 0.128257 -0.214563
v 0.124804 0.128257 -0.222904
v 0.554666 0.128257 -0.222904
v 0.563606 0.128257 -0.214805
v 0.563606 0.128257 0.214168
v 0.573789 0.117855 -0.233063
v 0.107663 0.117855 -0.233063
v 0.573789 0.117855 0.233063
v 0.107663 0.117855 0.233063
v 0.563870 0.117855 0.233063
v 0.114521 0.117855 0.233063
v 0.107663 0.117855 0.223457
v 0.107663 0.117855 -0.224341
v 0.114977 0.117855 -0.233063
v 0.564442 0.117855 -0.233063
v 0.573789 0.117855 -0.224595
v 0.573789 0.117855 0.223940
v 0.563606 0.143732 -0.222904
v 0.117809 0.143732 -0.222904
v 0.117809 0.143732 0.222893
v 0.563606 0.143732 0.222893
v 0.554120 0.143732 0.222893
v 0.124368 0.143732 0.222893
v 0.117809 0.143732 0.213706
v 0.117809 0.143732 -0.214563
v 0.124804 0.143732 -0.222904
v 0.554666 0.143732 -0.222904
v 0.563606 0.143732 -0.214805
v 0.563606 0.143732 0.214168
v 0.108962 0.135994 0.222208
v 0.108962 0.135994 0.231761
v 0.572485 0.135994 0.231761
v 0.572485 0.135994 0.222689
v 0.572485 0.135994 -0.223342
v 0.572485 0.135994 -0.231762
v 0.563190 0.135994 -0.231762
v 0.108962 0.135994 -0.223089
v 0.562622 0.135994 0.231761
v 0.108962 0.135994 -0.231762
v 0.116235 0.135994 -0.231762
v 0.115782 0.135994 0.231761
v 0.559083 0.143732 -0.218392
v 0.122316 0.143732 -0.218392
v 0.122316 0.143732 0.218375
v 0.559083 0.143732 0.218375
v 0.549789 0.143732 0.218375
v 0.128742 0.143732 0.218375
v 0.122316 0.143732 0.209374
v 0.122316 0.143732 -0.210219
v 0.129169 0.143732 -0.218392
v 0.550324 0.143732 -0.218392
v 0.559083 0.143732 -0.210457
v 0.559083 0.143732 0.209827
v 0.559083 0.148760 -0.218392
v 0.122316 0.148760 -0.218392
v 0.122316 0.148760 0.218375
v 0.559083 0.148760 0.218375
v 0.549789 0.148760 0.218375
v 0.128742 0.148760 0.218375
v 0.122316 0.148760 0.209374
v 0.122316 0.148760 -0.210219
v 0.129169 0.148760 -0.218392
v 0.550324 0.148760 -0.218392
v 0.559083 0.148760 -0.210457
v 0.559083 0.148760 0.209827
v 0.547457 0.150315 -0.206794
v 0.133899 0.150315 -0.206794
v 0.133899 0.150315 0.206765
v 0.547457 0.150315 0.206765
v 0.538657 0.150315 0.206765
v 0.139984 0.150315 0.206765
v 0.133899 0.150315 0.198242
v 0.133899 0.150315 -0.199056
v 0.140388 0.150315 -0.206794
v 0.539164 0.150315 -0.206794
v 0.547457 0.150315 -0.199281
v 0.547457 0.150315 0.198671
v 0.533289 0.169066 -0.192659
v 0.148016 0.169066 -0.192659
v 0.148016 0.169066 0.192614
v 0.533289 0.169066 0.192614
v 0.525091 0.169066 0.192614
v 0.153684 0.169066 0.192614
v 0.148016 0.169066 0.184674
v 0.148016 0.169066 -0.185450
v 0.154061 0.169066 -0.192659
v 0.525563 0.169066 -0.192659
v 0.533289 0.169066 -0.185659
v 0.533289 0.169066 0.185074
v 0.139984 0.161849 0.206765
v 0.538657 0.161849 0.206765
v 0.133899 0.161849 0.206765
v 0.539164 0.161849 -0.206794
v 0.140388 0.161849 -0.206794
v 0.133899 0.161849 0.198242
v 0.547457 0.161849 0.206765
v 0.547457 0.161849 0.198671
v 0.547457 0.161849 -0.199281
v 0.547457 0.161849 -0.206794
v 0.133899 0.161849 -0.199056
v 0.133899 0.161849 -0.206794
v 0.533289 0.172717 -0.192659
v 0.148016 0.172717 -0.192659
v 0.148016 0.172717 0.192614
v 0.533289 0.172717 0.192614
v 0.525091 0.172717 0.192614
v 0.153684 0.172717 0.192614
v 0.148016 0.172717 0.184674
v 0.148016 0.172717 -0.185450
v 0.154061 0.172717 -0.192659
v 0.525563 0.172717 -0.192659
v 0.533289 0.172717 -0.185659
v 0.533289 0.172717 0.185074
v 0.520200 0.172717 -0.179600
v 0.161057 0.172717 -0.179600
v 0.161057 0.172717 0.179542
v 0.520200 0.172717 0.179542
v 0.512557 0.172717 0.179542
v 0.166342 0.172717 0.179542
v 0.161057 0.172717 0.172140
v 0.161057 0.172717 -0.172881
v 0.166693 0.172717 -0.179600
v 0.512998 0.172717 -0.179600
v 0.520200 0.172717 -0.173076
v 0.520200 0.172717 0.172513
v 0.516325 0.185805 -0.175736
v 0.164917 0.185805 -0.175736
v 0.164917 0.185805 0.175672
v 0.516325 0.185805 0.175672
v 0.508848 0.185805 0.175672
v 0.170088 0.185805 0.175672
v 0.164917 0.185805 0.168430
v 0.164917 0.185805 -0.169160
v 0.170432 0.185805 -0.175736
v 0.509279 0.185805 -0.175736
v 0.516325 0.185805 -0.169351
v 0.516325 0.185805 0.168795
v 0.509540 0.185805 -0.168966
v 0.171678 0.185805 -0.168966
v 0.171678 0.185805 0.168895
v 0.509540 0.185805 0.168895
v 0.502350 0.185805 0.168895
v 0.176650 0.185805 0.168895
v 0.171678 0.185805 0.161932
v 0.171678 0.185805 -0.162644
v 0.176980 0.185805 -0.168966
v 0.502764 0.185805 -0.168966
v 0.509540 0.185805 -0.162828
v 0.509540 0.185805 0.162283
v 0.509540 0.577783 -0.168966
v 0.171678 0.577783 -0.168966
v 0.171678 0.577783 0.168895
v 0.509540 0.577783 0.168895
v 0.502350 0.577783 0.168895
v 0.176650 0.577783 0.168895
v 0.171678 0.577783 0.161932
v 0.171678 0.577783 -0.162644
v 0.176980 0.577783 -0.168966
v 0.502764 0.577783 -0.168966
v 0.509540 0.577783 -0.162828
v 0.509540 0.577783 0.162283
v 0.516563 0.577783 -0.175972
v 0.164681 0.577783 -0.175972
v 0.164681 0.577783 0.175909
v 0.516563 0.577783 0.175909
v 0.509075 0.577783 0.175909
v 0.169858 0.577783 0.175909
v 0.164681 0.577783 0.168658
v 0.164681 0.577783 -0.169388
v 0.170203 0.577783 -0.175972
v 0.509506 0.577783 -0.175972
v 0.516563 0.577783 -0.169580
v 0.516563 0.577783 0.169023
v 0.516563 0.594298 -0.175972
v 0.164681 0.594298 -0.175972
v 0.164681 0.594298 0.175909
v 0.516563 0.594298 0.175909
v 0.509075 0.594298 0.175909
v 0.169858 0.594298 0.175909
v 0.164681 0.594298 0.168658
v 0.164681 0.594298 -0.169388
v 0.170203 0.594298 -0.175972
v 0.509506 0.594298 -0.175972
v 0.516563 0.594298 -0.169580
v 0.516563 0.594298 0.169023
v 0.525366 0.594298 -0.184754
v 0.155910 0.594298 -0.184754
v 0.155910 0.594298 0.184701
v 0.525366 0.594298 0.184701
v 0.517504 0.594298 0.184701
v 0.161346 0.594298 0.184701
v 0.155910 0.594298 0.177087
v 0.155910 0.594298 -0.177841
v 0.161708 0.594298 -0.184754
v 0.517957 0.594298 -0.184754
v 0.525366 0.594298 -0.178042
v 0.525366 0.594298 0.177471
v 0.525366 0.598459 -0.184754
v 0.155910 0.598459 -0.184754
v 0.155910 0.598459 0.184701
v 0.525366 0.598459 0.184701
v 0.517504 0.598459 0.184701
v 0.161346 0.598459 0.184701
v 0.155910 0.598459 0.177087
v 0.155910 0.598459 -0.177841
v 0.161708 0.598459 -0.184754
v 0.517957 0.598459 -0.184754
v 0.525366 0.598459 -0.178042
v 0.525366 0.598459 0.177471
v 0.541178 0.620027 -0.200529
v 0.140156 0.620027 -0.200529
v 0.140156 0.620027 0.200493
v 0.541178 0.620027 0.200493
v 0.532644 0.620027 0.200493
v 0.146056 0.620027 0.200493
v 0.140156 0.620027 0.192229
v 0.140156 0.620027 -0.193025
v 0.146448 0.620027 -0.200529
v 0.533136 0.620027 -0.200529
v 0.541178 0.620027 -0.193243
v 0.541178 0.620027 0.192645
v 0.551208 0.620027 -0.210536
v 0.130162 0.620027 -0.210536
v 0.130162 0.620027 0.210511
v 0.551208 0.620027 0.210511
v 0.542249 0.620027 0.210511
v 0.136357 0.620027 0.210511
v 0.130162 0.620027 0.201834
v 0.130162 0.620027 -0.202657
v 0.136769 0.620027 -0.210536
v 0.542765 0.620027 -0.210536
v 0.551208 0.620027 -0.202886
v 0.551208 0.620027 0.202270
v 0.142133 0.602012 -0.191120
v 0.142133 0.602012 0.190329
v 0.530744 0.602012 0.198511
v 0.539193 0.602012 0.198511
v 0.539193 0.602012 0.190741
v 0.539193 0.602012 -0.191336
v 0.142133 0.602012 -0.198549
v 0.148363 0.602012 -0.198549
v 0.147975 0.602012 0.198511
v 0.142133 0.602012 0.198511
v 0.531231 0.602012 -0.198549
v 0.539193 0.602012 -0.198549
v 0.551208 0.625330 -0.210536
v 0.130162 0.625330 -0.210536
v 0.130162 0.625330 0.210511
v 0.551208 0.625330 0.210511
v 0.542249 0.625330 0.210511
v 0.136357 0.625330 0.210511
v 0.130162 0.625330 0.201834
v 0.130162 0.625330 -0.202657
v 0.136769 0.625330 -0.210536
v 0.542765 0.625330 -0.210536
v 0.551208 0.625330 -0.202886
v 0.551208 0.625330 0.202270
v 0.555488 0.625330 -0.214806
v 0.125897 0.625330 -0.214806
v 0.125897 0.625330 0.214786
v 0.555488 0.625330 0.214786
v 0.546347 0.625330 0.214786
v 0.132218 0.625330 0.214786
v 0.125897 0.625330 0.205932
v 0.125897 0.625330 -0.206768
v 0.132638 0.625330 -0.214806
v 0.546874 0.625330 -0.214806
v 0.555488 0.625330 -0.207001
v 0.555488 0.625330 0.206378
v 0.555488 0.640756 -0.214806
v 0.125897 0.640756 -0.214806
v 0.125897 0.640756 0.214786
v 0.555488 0.640756 0.214786
v 0.546347 0.640756 0.214786
v 0.132218 0.640756 0.214786
v 0.125897 0.640756 0.205932
v 0.125897 0.640756 -0.206768
v 0.132638 0.640756 -0.214806
v 0.546874 0.640756 -0.214806
v 0.555488 0.640756 -0.207001
v 0.555488 0.640756 0.206378
v 0.561983 0.640756 -0.221285
v 0.119425 0.640756 -0.221285
v 0.119425 0.640756 0.221272
v 0.561983 0.640756 0.221272
v 0.552566 0.640756 0.221272
v 0.125937 0.640756 0.221272
v 0.119425 0.640756 0.212152
v 0.119425 0.640756 -0.213005
v 0.126370 0.640756 -0.221285
v 0.553109 0.640756 -0.221285
v 0.561983 0.640756 -0.213245
v 0.561983 0.640756 0.212611
v 0.569777 0.651367 -0.229061
v 0.111660 0.651367 -0.229061
v 0.111660 0.651367 0.229056
v 0.569777 0.651367 0.229056
v 0.560029 0.651367 0.229056
v 0.118400 0.651367 0.229056
v 0.111660 0.651367 0.219615
v 0.111660 0.651367 -0.220489
v 0.118849 0.651367 -0.229061
v 0.560591 0.651367 -0.229061
v 0.569777 0.651367 -0.220738
v 0.569777 0.651367 0.220091
v 0.570667 0.658100 -0.229949
v 0.110773 0.658100 -0.229949
v 0.110773 0.658100 0.229945
v 0.570667 0.658100 0.229945
v 0.560881 0.658100 0.229945
v 0.117540 0.658100 0.229945
v 0.110773 0.658100 0.220467
v 0.110773 0.658100 -0.221343
v 0.117990 0.658100 -0.229949
v 0.561445 0.658100 -0.229949
v 0.570667 0.658100 -0.221594
v 0.570667 0.658100 0.220945
v 0.570667 0.666470 -0.229949
v 0.110773 0.666470 -0.229949
v 0.110773 0.666470 0.229945
v 0.570667 0.666470 0.229945
v 0.560881 0.666470 0.229945
v 0.117540 0.666470 0.229945
v 0.110773 0.666470 0.220467
v 0.110773 0.666470 -0.221343
v 0.117990 0.666470 -0.229949
v 0.561445 0.666470 -0.229949
v 0.570667 0.666470 -0.221594
v 0.570667 0.666470 0.220945
v 0.529132 0.666470 -0.188512
v 0.152157 0.666470 -0.188512
v 0.152157 0.666470 0.188463
v 0.529132 0.666470 0.188463
v 0.521111 0.666470 0.188463
v 0.157703 0.666470 0.188463
v 0.152157 0.666470 0.180694
v 0.152157 0.666470 -0.181459
v 0.158072 0.666470 -0.188512
v 0.521573 0.666470 -0.188512
v 0.529132 0.666470 -0.181664
v 0.529132 0.666470 0.181085
v 0.510664 0.708541 -0.170087
v 0.170558 0.708541 -0.170087
v 0.170558 0.708541 0.170018
v 0.510664 0.708541 0.170018
v 0.503427 0.708541 0.170018
v 0.175563 0.708541 0.170018
v 0.170558 0.708541 0.163009
v 0.170558 0.708541 -0.163724
v 0.175895 0.708541 -0.170087
v 0.503844 0.708541 -0.170087
v 0.510664 0.708541 -0.163909
v 0.510664 0.708541 0.163362
v 0.118465 0.648282 0.222235
v 0.125005 0.648282 0.222235
v 0.554034 0.648282 -0.222247
v 0.125440 0.648282 -0.222247
v 0.118465 0.648282 0.213075
v 0.562948 0.648282 0.222235
v 0.562948 0.648282 0.213536
v 0.562948 0.648282 -0.214172
v 0.562948 0.648282 -0.222247
v 0.118465 0.648282 -0.213931
v 0.553490 0.648282 0.222235
v 0.118465 0.648282 -0.222247
vn 0.0000 0.0000 -1.0000
vn 1.0000 0.0000 0.0000
vn -1.0000 0.0000 0.0000
vn 0.0000 0.0000 1.0000
vn 0.0000 1.0000 0.0000
vn -0.6583 0.7527 0.0000
vn 0.6570 0.7539 0.0000
vn 0.0000 0.7531 -0.6579
vn 0.0000 0.7535 0.6575
vn 0.0000 -0.7531 -0.6579
vn 0.0000 -0.7535 0.6575
vn -0.6583 -0.7527 0.0000
vn 0.6570 -0.7539 0.0000
vn 0.0000 0.9911 0.1328
vn 0.0000 0.9911 -0.1329
vn -0.1331 0.9911 0.0000
vn 0.1326 0.9912 0.0000
vn 0.0000 0.8908 0.4543
vn 0.0000 0.8906 -0.4547
vn -0.4552 0.8904 0.0000
vn 0.4539 0.8911 0.0000
vn 0.0000 0.2835 0.9590
vn 0.0000 0.2832 -0.9591
vn -0.9592 0.2829 0.0000
vn 0.9589 0.2838 0.0000
vn 0.0000 -1.0000 0.0000
vn -0.9940 -0.1091 0.0000
vn 0.0000 -0.1093 0.9940
vn 0.9940 -0.1095 0.0000
vn 0.0000 -0.1092 -0.9940
vn 0.0000 -0.9684 -0.2494
vn 0.2488 -0.9685 0.0000
vn -0.2497 -0.9683 0.0000
vn 0.0000 -0.9685 0.2491
vn 0.0000 -0.9111 0.4122
vn 0.0000 -0.9109 -0.4126
vn -0.4130 -0.9107 0.0000
vn 0.4118 -0.9113 0.0000
vn 0.0000 -0.1309 0.9914
vn 0.0000 -0.1307 -0.9914
vn -0.9914 -0.1306 0.0000
vn 0.9914 -0.1310 0.0000
vn -0.9162 0.4007 0.0000
vn 0.0000 0.4012 -0.9160
vn 0.0000 0.4015 0.9158
vn 0.9157 0.4020 0.0000
vn 0.0000 -0.1269 0.9919
vn 0.0000 -0.1268 -0.9919
vn -0.9920 -0.1266 0.0000
vn 0.9919 -0.1271 0.0000
usemtl None
s off
f 45//1 38//1 6//1 18//1
f 47//2 37//2 5//2 22//2
f 43//3 40//3 7//3 14//3
f 41//4 39//4 8//4 10//4
f 42//4 41//4 10//4 12//4
f 40//4 42//4 12//4 7//4
f 44//3 43//3 14//3 16//3
f 38//3 44//3 16//3 6//3
f 46//1 45//1 18//1 20//1
f 37//1 46//1 20//1 5//1
f 48//2 47//2 22//2 24//2
f 39//2 48//2 24//2 8//2
f 18//5 6//5 26//5 33//5
f 6//5 16//5 32//5 26//5
f 16//5 14//5 31//5 32//5
f 14//5 7//5 27//5 31//5
f 12//5 10//5 29//5 30//5
f 7//5 12//5 30//5 27//5
f 10//5 8//5 28//5 29//5
f 24//5 22//5 35//5 36//5
f 8//5 24//5 36//5 28//5
f 22//5 5//5 25//5 35//5
f 5//5 20//5 34//5 25//5
f 20//5 18//5 33//5 34//5
f 4//2 23//2 48//2 39//2
f 23//2 21//2 47//2 48//2
f 1//1 19//1 46//1 37//1
f 19//1 17//1 45//1 46//1
f 2//3 15//3 44//3 38//3
f 15//3 13//3 43//3 44//3
f 3//4 11//4 42//4 40//4
f 11//4 9//4 41//4 42//4
f 9//4 4//4 39//4 41//4
f 13//3 3//3 40//3 43//3
f 21//2 1//2 37//2 47//2
f 17//1 2//1 38//1 45//1
f 61//6 62//6 51//6 55//6
f 63//7 64//7 60//7 52//7
f 65//7 66//7 49//7 59//7
f 66//8 67//8 58//8 49//8
f 68//6 61//6 55//6 56//6
f 69//9 63//9 52//9 53//9
f 64//7 65//7 59//7 60//7
f 70//6 68//6 56//6 50//6
f 71//8 70//8 50//8 57//8
f 72//9 69//9 53//9 54//9
f 62//9 72//9 54//9 51//9
f 67//8 71//8 57//8 58//8
f 34//10 33//10 71//10 67//10
f 27//11 30//11 72//11 62//11
f 30//11 29//11 69//11 72//11
f 33//10 26//10 70//10 71//10
f 26//12 32//12 68//12 70//12
f 36//13 35//13 65//13 64//13
f 29//11 28//11 63//11 69//11
f 32//12 31//12 61//12 68//12
f 25//10 34//10 67//10 66//10
f 35//13 25//13 66//13 65//13
f 28//13 36//13 64//13 63//13
f 31//12 27//12 62//12 61//12
f 58//5 57//5 81//5 82//5
f 55//5 51//5 75//5 79//5
f 52//5 60//5 84//5 76//5
f 59//5 49//5 73//5 83//5
f 49//5 58//5 82//5 73//5
f 56//5 55//5 79//5 80//5
f 53//5 52//5 76//5 77//5
f 60//5 59//5 83//5 84//5
f 50//5 56//5 80//5 74//5
f 57//5 50//5 74//5 81//5
f 54//5 53//5 77//5 78//5
f 51//5 54//5 78//5 75//5
f 75//4 78//4 90//4 87//4
f 82//1 81//1 93//1 94//1
f 79//3 75//3 87//3 91//3
f 76//2 84//2 96//2 88//2
f 83//2 73//2 85//2 95//2
f 73//1 82//1 94//1 85//1
f 80//3 79//3 91//3 92//3
f 77//4 76//4 88//4 89//4
f 84//2 83//2 95//2 96//2
f 74//3 80//3 92//3 86//3
f 81//1 74//1 86//1 93//1
f 78//4 77//4 89//4 90//4
f 90//14 89//14 101//14 102//14
f 87//14 90//14 102//14 99//14
f 94//15 93//15 105//15 106//15
f 91//16 87//16 99//16 103//16
f 88//17 96//17 108//17 100//17
f 95//17 85//17 97//17 107//17
f 85//15 94//15 106//15 97//15
f 92//16 91//16 103//16 104//16
f 89//14 88//14 100//14 101//14
f 96//17 95//17 107//17 108//17
f 86//16 92//16 104//16 98//16
f 93//15 86//15 98//15 105//15
f 121//18 122//18 113//18 114//18
f 123//18 121//18 114//18 111//18
f 124//19 125//19 117//19 118//19
f 126//20 123//20 111//20 115//20
f 127//21 128//21 120//21 112//21
f 129//21 130//21 109//21 119//21
f 130//19 124//19 118//19 109//19
f 131//20 126//20 115//20 116//20
f 122//18 127//18 112//18 113//18
f 128//21 129//21 119//21 120//21
f 132//20 131//20 116//20 110//20
f 125//19 132//19 110//19 117//19
f 105//1 98//1 132//1 125//1
f 98//3 104//3 131//3 132//3
f 108//2 107//2 129//2 128//2
f 101//4 100//4 127//4 122//4
f 104//3 103//3 126//3 131//3
f 97//1 106//1 124//1 130//1
f 107//2 97//2 130//2 129//2
f 100//2 108//2 128//2 127//2
f 103//3 99//3 123//3 126//3
f 106//1 105//1 125//1 124//1
f 99//4 102//4 121//4 123//4
f 102//4 101//4 122//4 121//4
f 118//1 117//1 141//1 142//1
f 115//3 111//3 135//3 139//3
f 112//2 120//2 144//2 136//2
f 119//2 109//2 133//2 143//2
f 109//1 118//1 142//1 133//1
f 116//3 115//3 139//3 140//3
f 113//4 112//4 136//4 137//4
f 120//2 119//2 143//2 144//2
f 110//3 116//3 140//3 134//3
f 117//1 110//1 134//1 141//1
f 114//4 113//4 137//4 138//4
f 111//4 114//4 138//4 135//4
f 135//5 138//5 150//5 147//5
f 142//5 141//5 153//5 154//5
f 139//5 135//5 147//5 151//5
f 136//5 144//5 156//5 148//5
f 143//5 133//5 145//5 155//5
f 133//5 142//5 154//5 145//5
f 140//5 139//5 151//5 152//5
f 137//5 136//5 148//5 149//5
f 144//5 143//5 155//5 156//5
f 134//5 140//5 152//5 146//5
f 141//5 134//5 146//5 153//5
f 138//5 137//5 149//5 150//5
f 150//22 149//22 161//22 162//22
f 147//22 150//22 162//22 159//22
f 154//23 153//23 165//23 166//23
f 151//24 147//24 159//24 163//24
f 148//25 156//25 168//25 160//25
f 155//25 145//25 157//25 167//25
f 145//23 154//23 166//23 157//23
f 152//24 151//24 163//24 164//24
f 149//22 148//22 160//22 161//22
f 156//25 155//25 167//25 168//25
f 146//24 152//24 164//24 158//24
f 153//23 146//23 158//23 165//23
f 162//5 161//5 173//5 174//5
f 159//5 162//5 174//5 171//5
f 166//5 165//5 177//5 178//5
f 163//5 159//5 171//5 175//5
f 160//5 168//5 180//5 172//5
f 167//5 157//5 169//5 179//5
f 157//5 166//5 178//5 169//5
f 164//5 163//5 175//5 176//5
f 161//5 160//5 172//5 173//5
f 168//5 167//5 179//5 180//5
f 158//5 164//5 176//5 170//5
f 165//5 158//5 170//5 177//5
f 177//1 170//1 182//1 189//1
f 174//4 173//4 185//4 186//4
f 171//4 174//4 186//4 183//4
f 178//1 177//1 189//1 190//1
f 175//3 171//3 183//3 187//3
f 172//2 180//2 192//2 184//2
f 179//2 169//2 181//2 191//2
f 169//1 178//1 190//1 181//1
f 176//3 175//3 187//3 188//3
f 173//4 172//4 184//4 185//4
f 180//2 179//2 191//2 192//2
f 170//3 176//3 188//3 182//3
f 182//26 188//26 200//26 194//26
f 189//26 182//26 194//26 201//26
f 186//26 185//26 197//26 198//26
f 183//26 186//26 198//26 195//26
f 190//26 189//26 201//26 202//26
f 187//26 183//26 195//26 199//26
f 184//26 192//26 204//26 196//26
f 191//26 181//26 193//26 203//26
f 181//26 190//26 202//26 193//26
f 188//26 187//26 199//26 200//26
f 185//26 184//26 196//26 197//26
f 192//26 191//26 203//26 204//26
f 204//2 203//2 215//2 216//2
f 194//3 200//3 212//3 206//3
f 201//1 194//1 206//1 213//1
f 198//4 197//4 209//4 210//4
f 195//4 198//4 210//4 207//4
f 202//1 201//1 213//1 214//1
f 199//3 195//3 207//3 211//3
f 196//2 204//2 216//2 208//2
f 203//2 193//2 205//2 215//2
f 193//1 202//1 214//1 205//1
f 200//3 199//3 211//3 212//3
f 197//4 196//4 208//4 209//4
f 209//26 208//26 220//26 221//26
f 216//26 215//26 227//26 228//26
f 206//26 212//26 224//26 218//26
f 213//26 206//26 218//26 225//26
f 210//26 209//26 221//26 222//26
f 207//26 210//26 222//26 219//26
f 214//26 213//26 225//26 226//26
f 211//26 207//26 219//26 223//26
f 208//26 216//26 228//26 220//26
f 215//26 205//26 217//26 227//26
f 205//26 214//26 226//26 217//26
f 212//26 211//26 223//26 224//26
f 221//4 220//4 232//4 233//4
f 228//2 227//2 239//2 240//2
f 218//3 224//3 236//3 230//3
f 225//1 218//1 230//1 237//1
f 222//4 221//4 233//4 234//4
f 219//4 222//4 234//4 231//4
f 226//1 225//1 237//1 238//1
f 223//3 219//3 231//3 235//3
f 220//2 228//2 240//2 232//2
f 227//2 217//2 229//2 239//2
f 217//1 226//1 238//1 229//1
f 224//3 223//3 235//3 236//3
f 265//27 266//27 247//27 248//27
f 267//28 268//28 244//28 245//28
f 269//29 270//29 251//29 252//29
f 271//27 265//27 248//27 242//27
f 272//30 271//30 242//30 249//30
f 273//28 267//28 245//28 246//28
f 274//28 273//28 246//28 243//28
f 275//30 272//30 249//30 250//30
f 266//27 274//27 243//27 247//27
f 268//29 269//29 252//29 244//29
f 270//29 276//29 241//29 251//29
f 276//30 275//30 250//30 241//30
f 241//26 250//26 262//26 253//26
f 248//26 247//26 259//26 260//26
f 245//26 244//26 256//26 257//26
f 252//26 251//26 263//26 264//26
f 242//26 248//26 260//26 254//26
f 249//26 242//26 254//26 261//26
f 246//26 245//26 257//26 258//26
f 243//26 246//26 258//26 255//26
f 250//26 249//26 261//26 262//26
f 247//26 243//26 255//26 259//26
f 244//26 252//26 264//26 256//26
f 251//26 241//26 253//26 263//26
f 229//31 238//31 275//31 276//31
f 239//32 229//32 276//32 270//32
f 232//32 240//32 269//32 268//32
f 235//33 231//33 274//33 266//33
f 238//31 237//31 272//31 275//31
f 231//34 234//34 273//34 274//34
f 234//34 233//34 267//34 273//34
f 237//31 230//31 271//31 272//31
f 230//33 236//33 265//33 271//33
f 240//32 239//32 270//32 269//32
f 233//34 232//34 268//34 267//34
f 236//33 235//33 266//33 265//33
f 256//2 264//2 288//2 280//2
f 263//2 253//2 277//2 287//2
f 253//1 262//1 286//1 277//1
f 260//3 259//3 283//3 284//3
f 257//4 256//4 280//4 281//4
f 264//2 263//2 287//2 288//2
f 254//3 260//3 284//3 278//3
f 261//1 254//1 278//1 285//1
f 258//4 257//4 281//4 282//4
f 255//4 258//4 282//4 279//4
f 262//1 261//1 285//1 286//1
f 259//3 255//3 279//3 283//3
f 283//26 279//26 291//26 295//26
f 280//26 288//26 300//26 292//26
f 287//26 277//26 289//26 299//26
f 277//26 286//26 298//26 289//26
f 284//26 283//26 295//26 296//26
f 281//26 280//26 292//26 293//26
f 288//26 287//26 299//26 300//26
f 278//26 284//26 296//26 290//26
f 285//26 278//26 290//26 297//26
f 282//26 281//26 293//26 294//26
f 279//26 282//26 294//26 291//26
f 286//26 285//26 297//26 298//26
f 298//1 297//1 309//1 310//1
f 295//3 291//3 303//3 307//3
f 292//2 300//2 312//2 304//2
f 299//2 289//2 301//2 311//2
f 289//1 298//1 310//1 301//1
f 296//3 295//3 307//3 308//3
f 293//4 292//4 304//4 305//4
f 300//2 299//2 311//2 312//2
f 290//3 296//3 308//3 302//3
f 297//1 290//1 302//1 309//1
f 294//4 293//4 305//4 306//4
f 291//4 294//4 306//4 303//4
f 303//26 306//26 318//26 315//26
f 310//26 309//26 321//26 322//26
f 307//26 303//26 315//26 319//26
f 304//26 312//26 324//26 316//26
f 311//26 301//26 313//26 323//26
f 301//26 310//26 322//26 313//26
f 308//26 307//26 319//26 320//26
f 305//26 304//26 316//26 317//26
f 312//26 311//26 323//26 324//26
f 302//26 308//26 320//26 314//26
f 309//26 302//26 314//26 321//26
f 306//26 305//26 317//26 318//26
f 385//35 386//35 330//35 327//35
f 387//36 388//36 333//36 334//36
f 389//37 385//37 327//37 331//37
f 390//38 391//38 336//38 328//38
f 392//38 393//38 325//38 335//38
f 393//36 387//36 334//36 325//36
f 394//37 389//37 331//37 332//37
f 395//35 390//35 328//35 329//35
f 391//38 392//38 335//38 336//38
f 396//37 394//37 332//37 326//37
f 388//36 396//36 326//36 333//36
f 386//35 395//35 329//35 330//35
f 330//39 329//39 341//39 342//39
f 327//39 330//39 342//39 339//39
f 334//40 333//40 345//40 346//40
f 331//41 327//41 339//41 343//41
f 328//42 336//42 348//42 340//42
f 335//42 325//42 337//42 347//42
f 325//40 334//40 346//40 337//40
f 332//41 331//41 343//41 344//41
f 329//39 328//39 340//39 341//39
f 336//42 335//42 347//42 348//42
f 326//41 332//41 344//41 338//41
f 333//40 326//40 338//40 345//40
f 342//4 341//4 353//4 354//4
f 339//4 342//4 354//4 351//4
f 346//1 345//1 357//1 358//1
f 343//3 339//3 351//3 355//3
f 340//2 348//2 360//2 352//2
f 347//2 337//2 349//2 359//2
f 337//1 346//1 358//1 349//1
f 344//3 343//3 355//3 356//3
f 341//4 340//4 352//4 353//4
f 348//2 347//2 359//2 360//2
f 338//3 344//3 356//3 350//3
f 345//1 338//1 350//1 357//1
f 357//5 350//5 362//5 369//5
f 354//5 353//5 365//5 366//5
f 351//5 354//5 366//5 363//5
f 358//5 357//5 369//5 370//5
f 355//5 351//5 363//5 367//5
f 352//5 360//5 372//5 364//5
f 359//5 349//5 361//5 371//5
f 349//5 358//5 370//5 361//5
f 356//5 355//5 367//5 368//5
f 353//5 352//5 364//5 365//5
f 360//5 359//5 371//5 372//5
f 350//5 356//5 368//5 362//5
f 362//43 368//43 380//43 374//43
f 369//44 362//44 374//44 381//44
f 366//45 365//45 377//45 378//45
f 363//45 366//45 378//45 375//45
f 370//44 369//44 381//44 382//44
f 367//43 363//43 375//43 379//43
f 364//46 372//46 384//46 376//46
f 371//46 361//46 373//46 383//46
f 361//44 370//44 382//44 373//44
f 368//43 367//43 379//43 380//43
f 365//45 364//45 376//45 377//45
f 372//46 371//46 383//46 384//46
f 318//47 317//47 395//47 386//47
f 321//48 314//48 396//48 388//48
f 314//49 320//49 394//49 396//49
f 324//50 323//50 392//50 391//50
f 317//47 316//47 390//47 395//47
f 320//49 319//49 389//49 394//49
f 313//48 322//48 387//48 393//48
f 323//50 313//50 393//50 392//50
f 316//50 324//50 391//50 390//50
f 319//49 315//49 385//49 389//49
f 322//48 321//48 388//48 387//48
f 315//47 318//47 386//47 385//47
