# Blender v2.79 (sub 0) OBJ File: 'C GIUSTO.blend'
# www.blender.org
mtllib 889399-C-LP.mtl
o Circle_Circle.002
v 0.265491 0.465716 0.107163
v 0.265491 0.465716 -0.107163
v 0.067909 0.465716 -0.107163
v 0.067909 0.465716 0.107163
v 0.265491 0.479362 0.107163
v 0.265491 0.479362 -0.107163
v 0.067909 0.479362 -0.107163
v 0.067909 0.479362 0.107163
v 0.062584 0.472539 -0.112939
v 0.062584 0.472539 0.112939
v 0.270815 0.472539 0.112939
v 0.270815 0.472539 -0.112939
v 0.062584 0.476134 -0.112939
v 0.270815 0.476134 0.112939
v 0.062584 0.476134 0.112939
v 0.270815 0.476134 -0.112939
v 0.062584 0.468943 0.112939
v 0.270815 0.468943 -0.112939
v 0.062584 0.468943 -0.112939
v 0.270815 0.468943 0.112939
v 0.255072 0.479362 0.095862
v 0.255072 0.479362 -0.095862
v 0.078327 0.479362 -0.095862
v 0.078327 0.479362 0.095862
v 0.255072 0.505978 0.095862
v 0.255072 0.505978 -0.095862
v 0.078327 0.505978 -0.095862
v 0.078327 0.505978 0.095862
v 0.261695 0.505978 0.103046
v 0.261695 0.505978 -0.103046
v 0.071705 0.505978 -0.103046
v 0.071705 0.505978 0.103046
v 0.261695 0.510912 0.103046
v 0.261695 0.510912 -0.103046
v 0.071705 0.510912 -0.103046
v 0.071705 0.510912 0.103046
v 0.272377 0.510912 0.114633
v 0.272377 0.510912 -0.114633
v 0.061022 0.510912 -0.114633
v 0.061022 0.510912 0.114633
v 0.274368 0.528185 0.116793
v 0.274368 0.528185 -0.116793
v 0.059031 0.528185 -0.116793
v 0.059031 0.528185 0.116793
v 0.276638 0.528185 0.119255
v 0.276638 0.528185 -0.119255
v 0.056761 0.528185 -0.119255
v 0.056761 0.528185 0.119256
v 0.276638 0.532904 0.119255
v 0.276638 0.532904 -0.119255
v 0.056761 0.532904 -0.119255
v 0.056761 0.532904 0.119256
v 0.289795 0.532904 0.133527
v 0.289795 0.532904 -0.133527
v 0.043604 0.532904 -0.133527
v 0.043604 0.532904 0.133527
v 0.293694 0.562405 0.137756
v 0.293694 0.562405 -0.137756
v 0.039706 0.562405 -0.137756
v 0.039706 0.562405 0.137756
v 0.303457 0.562405 0.148347
v 0.303457 0.562405 -0.148347
v 0.029943 0.562405 -0.148347
v 0.029943 0.562405 0.148347
v 0.303457 0.566783 0.148347
v 0.303457 0.566783 -0.148347
v 0.029943 0.566783 -0.148347
v 0.029943 0.566783 0.148347
v 0.307399 0.566783 0.152623
v 0.307399 0.566783 -0.152623
v 0.026000 0.566783 -0.152623
v 0.026000 0.566783 0.152623
v 0.307399 0.587456 0.152623
v 0.307399 0.587456 -0.152623
v 0.026000 0.587456 -0.152623
v 0.026000 0.587456 0.152623
v 0.310649 0.587456 0.156148
v 0.310649 0.587456 -0.156148
v 0.022750 0.587456 -0.156148
v 0.022750 0.587456 0.156148
v 0.310649 0.593761 0.156148
v 0.310649 0.593761 -0.156148
v 0.022750 0.593761 -0.156148
v 0.022750 0.593761 0.156148
v 0.318687 0.593761 0.164868
v 0.318687 0.593761 -0.164868
v 0.014713 0.593761 -0.164868
v 0.014713 0.593761 0.164868
v 0.318687 0.600652 0.164868
v 0.318687 0.600652 -0.164868
v 0.014713 0.600652 -0.164868
v 0.014713 0.600652 0.164868
v 0.261310 0.465716 0.107163
v 0.261310 0.479362 0.107163
v 0.251333 0.479362 0.095862
v 0.251333 0.505978 0.095862
v 0.257675 0.505978 0.103046
v 0.257675 0.510912 0.103046
v 0.267906 0.510912 0.114633
v 0.269813 0.528185 0.116793
v 0.271986 0.528185 0.119255
v 0.271986 0.532904 0.119255
v 0.284587 0.532904 0.133527
v 0.288320 0.562405 0.137756
v 0.297670 0.562405 0.148347
v 0.297670 0.566783 0.148347
v 0.301446 0.566783 0.152623
v 0.301446 0.587456 0.152623
v 0.304558 0.587456 0.156148
v 0.304558 0.593761 0.156148
v 0.312256 0.593761 0.164868
v 0.312256 0.600652 0.164868
v 0.266410 0.472539 0.112939
v 0.266410 0.476134 0.112939
v 0.266410 0.468943 0.112939
v 0.261310 0.465716 -0.107163
v 0.261310 0.479362 -0.107163
v 0.251333 0.479362 -0.095862
v 0.251333 0.505978 -0.095862
v 0.257675 0.505978 -0.103046
v 0.257675 0.510912 -0.103046
v 0.267906 0.510912 -0.114633
v 0.269813 0.528185 -0.116793
v 0.271986 0.528185 -0.119255
v 0.271986 0.532904 -0.119255
v 0.284587 0.532904 -0.133527
v 0.288320 0.562405 -0.137756
v 0.297670 0.562405 -0.148347
v 0.297670 0.566783 -0.148347
v 0.301446 0.566783 -0.152623
v 0.301446 0.587456 -0.152623
v 0.304558 0.587456 -0.156148
v 0.304558 0.593761 -0.156148
v 0.312256 0.593761 -0.164868
v 0.312256 0.600652 -0.164868
v 0.266410 0.472539 -0.112939
v 0.266410 0.476134 -0.112939
v 0.266410 0.468943 -0.112939
v 0.070433 0.465716 0.107163
v 0.070433 0.479362 0.107163
v 0.080585 0.479362 0.095862
v 0.080585 0.505978 0.095862
v 0.074132 0.505978 0.103046
v 0.074132 0.510912 0.103046
v 0.063723 0.510912 0.114633
v 0.061782 0.528185 0.116793
v 0.059571 0.528185 0.119255
v 0.059571 0.532904 0.119255
v 0.046750 0.532904 0.133527
v 0.042951 0.562405 0.137756
v 0.033437 0.562405 0.148347
v 0.033437 0.566783 0.148347
v 0.029596 0.566783 0.152623
v 0.029596 0.587456 0.152623
v 0.026429 0.587456 0.156148
v 0.026429 0.593761 0.156148
v 0.018597 0.593761 0.164868
v 0.018597 0.600652 0.164868
v 0.065245 0.472539 -0.112939
v 0.065245 0.476134 -0.112939
v 0.065245 0.468943 -0.112939
v 0.065245 0.472539 0.112939
v 0.065245 0.476134 0.112939
v 0.065245 0.468943 0.112939
v 0.070433 0.465716 -0.107163
v 0.070433 0.479362 -0.107163
v 0.080585 0.479362 -0.095862
v 0.080585 0.505978 -0.095862
v 0.074132 0.505978 -0.103046
v 0.074132 0.510912 -0.103046
v 0.063723 0.510912 -0.114633
v 0.061782 0.528185 -0.116793
v 0.059571 0.528185 -0.119255
v 0.059571 0.532904 -0.119255
v 0.046750 0.532904 -0.133527
v 0.042951 0.562405 -0.137756
v 0.033437 0.562405 -0.148347
v 0.033437 0.566783 -0.148347
v 0.029596 0.566783 -0.152623
v 0.029596 0.587456 -0.152623
v 0.026429 0.587456 -0.156148
v 0.026429 0.593761 -0.156148
v 0.018597 0.593761 -0.164868
v 0.018597 0.600652 -0.164868
v 0.067909 0.465716 0.103192
v 0.067909 0.479362 0.103192
v 0.078327 0.479362 0.092310
v 0.078327 0.505978 0.092310
v 0.071705 0.505978 0.099228
v 0.071705 0.510912 0.099228
v 0.061022 0.510912 0.110386
v 0.059031 0.528185 0.112466
v 0.056761 0.528185 0.114837
v 0.056761 0.532904 0.114837
v 0.043604 0.532904 0.128580
v 0.039706 0.562405 0.132652
v 0.029943 0.562405 0.142850
v 0.029943 0.566783 0.142850
v 0.026000 0.566783 0.146968
v 0.026000 0.587456 0.146968
v 0.022750 0.587456 0.150363
v 0.022750 0.593761 0.150363
v 0.014713 0.593761 0.158759
v 0.014713 0.600652 0.158759
v 0.062584 0.472539 0.108754
v 0.062584 0.476134 0.108754
v 0.062584 0.468943 0.108754
v 0.270815 0.472539 0.108754
v 0.270815 0.476134 0.108754
v 0.270815 0.468943 0.108754
v 0.265491 0.465716 0.103192
v 0.265491 0.479362 0.103192
v 0.255072 0.479362 0.092310
v 0.255072 0.505978 0.092310
v 0.261695 0.505978 0.099228
v 0.261695 0.510912 0.099228
v 0.272377 0.510912 0.110386
v 0.274368 0.528185 0.112466
v 0.276638 0.528185 0.114837
v 0.276638 0.532904 0.114837
v 0.289795 0.532904 0.128580
v 0.293694 0.562405 0.132652
v 0.303457 0.562405 0.142850
v 0.303457 0.566783 0.142850
v 0.307399 0.566783 0.146968
v 0.307399 0.587456 0.146968
v 0.310649 0.587456 0.150363
v 0.310649 0.593761 0.150363
v 0.318687 0.593761 0.158759
v 0.318687 0.600652 0.158759
v 0.261310 0.465716 0.103192
v 0.312256 0.600652 0.158759
v 0.070433 0.465716 0.103192
v 0.018597 0.600652 0.158759
v 0.067909 0.465716 -0.104393
v 0.067909 0.479362 -0.104393
v 0.078327 0.479362 -0.093383
v 0.078327 0.505978 -0.093383
v 0.071705 0.505978 -0.100382
v 0.071705 0.510912 -0.100382
v 0.061022 0.510912 -0.111670
v 0.059031 0.528185 -0.113774
v 0.056761 0.528185 -0.116172
v 0.056761 0.532904 -0.116172
v 0.043604 0.532904 -0.130075
v 0.039706 0.562405 -0.134195
v 0.029943 0.562405 -0.144512
v 0.029943 0.566783 -0.144512
v 0.026000 0.566783 -0.148678
v 0.026000 0.587456 -0.148678
v 0.022750 0.587456 -0.152111
v 0.022750 0.593761 -0.152111
v 0.014713 0.593761 -0.160605
v 0.014713 0.600652 -0.160605
v 0.270815 0.472539 -0.110019
v 0.270815 0.476134 -0.110019
v 0.270815 0.468943 -0.110019
v 0.312256 0.600652 -0.160605
v 0.018597 0.600652 -0.160605
v 0.062584 0.472539 -0.110019
v 0.062584 0.476134 -0.110019
v 0.062584 0.468943 -0.110019
v 0.265491 0.465716 -0.104393
v 0.265491 0.479362 -0.104393
v 0.255072 0.479362 -0.093383
v 0.255072 0.505978 -0.093383
v 0.261695 0.505978 -0.100382
v 0.261695 0.510912 -0.100382
v 0.272377 0.510912 -0.111670
v 0.274368 0.528185 -0.113774
v 0.276638 0.528185 -0.116172
v 0.276638 0.532904 -0.116172
v 0.289795 0.532904 -0.130075
v 0.293694 0.562405 -0.134195
v 0.303457 0.562405 -0.144512
v 0.303457 0.566783 -0.144512
v 0.307399 0.566783 -0.148678
v 0.307399 0.587456 -0.148678
v 0.310649 0.587456 -0.152111
v 0.310649 0.593761 -0.152111
v 0.318687 0.593761 -0.160605
v 0.318687 0.600652 -0.160605
v 0.261310 0.465716 -0.104392
v 0.070433 0.465716 -0.104393
vn 0.0000 -0.7071 -0.7071
vn 0.0000 0.7071 -0.7071
vn 0.5773 0.5773 -0.5773
vn 0.5773 -0.5773 -0.5773
vn -0.7071 -0.7071 0.0000
vn -0.5773 -0.5773 -0.5773
vn -0.3015 -0.9045 -0.3015
vn 0.0000 0.5060 -0.8625
vn 0.0000 0.9677 -0.2520
vn 0.2090 0.9591 -0.1907
vn 0.6249 0.4641 -0.6278
vn 0.7071 -0.7071 0.0000
vn 0.7071 0.7071 0.0000
vn 0.5773 0.5773 0.5773
vn 0.5773 -0.5773 0.5773
vn 0.8713 0.4907 0.0000
vn 0.2691 0.9631 0.0000
vn 0.2090 0.9591 0.1907
vn 0.6249 0.4641 0.6277
vn -0.8713 0.4907 0.0000
vn -0.2691 0.9631 0.0000
vn -0.2090 0.9591 -0.1907
vn -0.6249 0.4641 -0.6277
vn 0.0000 -0.5060 -0.8625
vn 0.0000 0.0000 -1.0000
vn 0.7071 0.0000 -0.7071
vn 0.6249 -0.4641 -0.6278
vn 0.0000 0.5060 0.8625
vn 0.0000 0.9677 0.2520
vn -0.2090 0.9591 0.1907
vn -0.6249 0.4641 0.6278
vn 0.8713 -0.4907 0.0000
vn 1.0000 0.0000 0.0000
vn 0.7071 0.0000 0.7071
vn 0.6249 -0.4641 0.6277
vn -0.8713 -0.4907 0.0000
vn -1.0000 0.0000 0.0000
vn -0.7071 0.0000 -0.7071
vn -0.6249 -0.4641 -0.6277
vn 0.0000 -0.5060 0.8625
vn 0.0000 0.0000 1.0000
vn -0.7071 0.0000 0.7071
vn -0.6249 -0.4641 0.6277
vn 0.0000 -0.9677 -0.2520
vn 0.2090 -0.9591 -0.1907
vn -0.2691 -0.9631 0.0000
vn -0.2090 -0.9591 -0.1907
vn 0.2691 -0.9631 0.0000
vn 0.2090 -0.9591 0.1907
vn -0.7071 0.7071 0.0000
vn -0.3015 0.9045 -0.3015
vn 0.3015 0.9045 0.3015
vn 0.0000 -0.9677 0.2520
vn -0.2090 -0.9591 0.1907
vn 0.3015 0.9045 -0.3015
vn 0.3015 -0.9045 0.3015
vn 0.0000 0.7071 0.7071
vn -0.3015 0.9045 0.3015
vn 0.3015 -0.9045 -0.3015
vn 0.0000 -0.7071 0.7071
vn -0.3015 -0.9045 0.3015
vn -0.5773 -0.5773 0.5773
vn 0.6654 -0.7465 0.0000
vn 0.5454 -0.6396 0.5417
vn 0.0000 -0.7497 -0.6618
vn 0.5454 -0.6396 -0.5417
vn -0.6654 -0.7465 0.0000
vn -0.5454 -0.6396 -0.5417
vn 0.0000 -0.7497 0.6618
vn -0.5454 -0.6396 0.5417
vn 0.2636 -0.9275 -0.2650
vn -0.2636 -0.9275 -0.2650
vn 0.2636 -0.9275 0.2651
vn -0.2636 -0.9275 0.2650
vn 0.0000 -0.7556 -0.6550
vn 0.5404 -0.6484 -0.5361
vn -0.6591 -0.7520 0.0000
vn -0.5404 -0.6484 -0.5361
vn 0.6591 -0.7520 0.0000
vn 0.5404 -0.6484 0.5361
vn -0.2583 -0.9304 -0.2600
vn 0.2583 -0.9304 0.2600
vn 0.0000 -0.7556 0.6550
vn -0.5404 -0.6484 0.5361
vn 0.2583 -0.9304 -0.2600
vn -0.2583 -0.9304 0.2600
vn -0.5773 0.5773 0.5773
vn 0.0000 1.0000 0.0000
vn -0.5773 0.5773 -0.5773
vn 0.0000 -1.0000 0.0000
usemtl None
s 1
f 134//1 135//2 90//3 86//4
f 252//5 253//5 87//6 83//7
f 137//8 117//9 6//10 16//11
f 229//12 230//13 89//14 85//15
f 209//16 212//17 5//18 14//19
f 261//20 236//21 7//22 13//23
f 138//24 136//25 12//26 18//27
f 163//28 140//29 8//30 15//31
f 210//32 208//33 11//34 20//35
f 262//36 260//37 9//38 19//39
f 260//37 261//20 13//23 9//38
f 208//33 209//16 14//19 11//34
f 164//40 162//41 10//42 17//43
f 136//25 137//8 16//11 12//26
f 162//41 163//28 15//31 10//42
f 116//44 138//24 18//27 2//45
f 235//46 262//36 19//39 3//47
f 211//48 210//32 20//35 1//49
f 236//21 237//50 23//51 7//22
f 212//17 213//13 21//52 5//18
f 139//53 164//40 17//43 4//54
f 117//9 118//2 22//55 6//10
f 237//50 238//5 27//7 23//51
f 213//13 214//12 25//56 21//52
f 140//29 141//57 24//58 8//30
f 118//2 119//1 26//59 22//55
f 141//57 142//60 28//61 24//58
f 119//1 120//1 30//4 26//59
f 238//5 239//5 31//6 27//7
f 214//12 215//12 29//15 25//56
f 239//5 240//5 35//7 31//6
f 215//12 216//12 33//56 29//15
f 142//60 143//60 32//62 28//61
f 120//1 121//1 34//59 30//4
f 216//12 217//63 37//64 33//56
f 143//60 144//60 36//61 32//62
f 121//1 122//65 38//66 34//59
f 240//5 241//67 39//68 35//7
f 144//60 145//69 40//70 36//61
f 122//65 123//65 42//71 38//66
f 241//67 242//67 43//72 39//68
f 217//63 218//63 41//73 37//64
f 242//67 243//5 47//6 43//72
f 218//63 219//12 45//15 41//73
f 145//69 146//69 44//74 40//70
f 123//65 124//1 46//4 42//71
f 146//69 147//60 48//62 44//74
f 124//1 125//1 50//59 46//4
f 243//5 244//5 51//7 47//6
f 219//12 220//12 49//56 45//15
f 125//1 126//75 54//76 50//59
f 244//5 245//77 55//78 51//7
f 220//12 221//79 53//80 49//56
f 147//60 148//60 52//61 48//62
f 245//77 246//77 59//81 55//78
f 221//79 222//79 57//82 53//80
f 148//60 149//83 56//84 52//61
f 126//75 127//75 58//85 54//76
f 149//83 150//83 60//86 56//84
f 127//75 128//1 62//4 58//85
f 246//77 247//5 63//6 59//81
f 222//79 223//12 61//15 57//82
f 247//5 248//5 67//7 63//6
f 223//12 224//12 65//56 61//15
f 150//83 151//60 64//62 60//86
f 128//1 129//1 66//59 62//4
f 248//5 249//5 71//6 67//7
f 224//12 225//12 69//15 65//56
f 151//60 152//60 68//61 64//62
f 129//1 130//1 70//4 66//59
f 152//60 153//60 72//62 68//61
f 130//1 131//1 74//59 70//4
f 249//5 250//5 75//7 71//6
f 225//12 226//12 73//56 69//15
f 250//5 251//5 79//6 75//7
f 226//12 227//12 77//15 73//56
f 153//60 154//60 76//61 72//62
f 131//1 132//1 78//4 74//59
f 227//12 228//12 81//56 77//15
f 154//60 155//60 80//62 76//61
f 132//1 133//1 82//59 78//4
f 251//5 252//5 83//7 79//6
f 155//60 156//60 84//61 80//62
f 133//1 134//1 86//4 82//59
f 228//12 229//12 85//15 81//56
f 156//60 157//60 88//62 84//61
f 157//60 158//57 92//87 88//62
f 203//5 88//62 92//87 204//50
f 259//88 184//2 91//89 254//50
f 284//90 235//46 3//47 165//44
f 263//48 283//90 116//44 2//45
f 282//13 90//3 135//2 258//88
f 85//15 89//14 112//57 111//60
f 81//56 85//15 111//60 110//60
f 182//1 183//1 134//1 133//1
f 77//15 81//56 110//60 109//60
f 181//1 182//1 133//1 132//1
f 73//56 77//15 109//60 108//60
f 180//1 181//1 132//1 131//1
f 69//15 73//56 108//60 107//60
f 179//1 180//1 131//1 130//1
f 65//56 69//15 107//60 106//60
f 178//1 179//1 130//1 129//1
f 61//15 65//56 106//60 105//60
f 177//1 178//1 129//1 128//1
f 57//82 61//15 105//60 104//83
f 176//75 177//1 128//1 127//75
f 53//80 57//82 104//83 103//83
f 175//75 176//75 127//75 126//75
f 49//56 53//80 103//83 102//60
f 45//15 49//56 102//60 101//60
f 174//1 175//75 126//75 125//1
f 173//1 174//1 125//1 124//1
f 41//73 45//15 101//60 100//69
f 172//65 173//1 124//1 123//65
f 37//64 41//73 100//69 99//69
f 171//65 172//65 123//65 122//65
f 33//56 37//64 99//69 98//60
f 170//1 171//65 122//65 121//1
f 29//15 33//56 98//60 97//60
f 169//1 170//1 121//1 120//1
f 25//56 29//15 97//60 96//60
f 168//1 169//1 120//1 119//1
f 21//52 25//56 96//60 95//57
f 167//2 168//1 119//1 118//2
f 5//18 21//52 95//57 94//29
f 166//9 167//2 118//2 117//9
f 1//49 20//35 115//40 93//53
f 165//44 161//24 138//24 116//44
f 11//34 14//19 114//28 113//41
f 159//25 160//8 137//8 136//25
f 20//35 11//34 113//41 115//40
f 14//19 5//18 94//29 114//28
f 161//24 159//25 136//25 138//24
f 160//8 166//9 117//9 137//8
f 183//1 184//2 135//2 134//1
f 87//6 91//89 184//2 183//1
f 13//23 7//22 166//9 160//8
f 19//39 9//38 159//25 161//24
f 9//38 13//23 160//8 159//25
f 3//47 19//39 161//24 165//44
f 7//22 23//51 167//2 166//9
f 23//51 27//7 168//1 167//2
f 27//7 31//6 169//1 168//1
f 31//6 35//7 170//1 169//1
f 35//7 39//68 171//65 170//1
f 39//68 43//72 172//65 171//65
f 43//72 47//6 173//1 172//65
f 47//6 51//7 174//1 173//1
f 51//7 55//78 175//75 174//1
f 55//78 59//81 176//75 175//75
f 59//81 63//6 177//1 176//75
f 63//6 67//7 178//1 177//1
f 67//7 71//6 179//1 178//1
f 71//6 75//7 180//1 179//1
f 75//7 79//6 181//1 180//1
f 79//6 83//7 182//1 181//1
f 83//7 87//6 183//1 182//1
f 283//90 284//90 165//44 116//44
f 258//88 135//2 184//2 259//88
f 111//60 112//57 158//57 157//60
f 110//60 111//60 157//60 156//60
f 109//60 110//60 156//60 155//60
f 108//60 109//60 155//60 154//60
f 107//60 108//60 154//60 153//60
f 106//60 107//60 153//60 152//60
f 105//60 106//60 152//60 151//60
f 104//83 105//60 151//60 150//83
f 103//83 104//83 150//83 149//83
f 102//60 103//83 149//83 148//60
f 101//60 102//60 148//60 147//60
f 100//69 101//60 147//60 146//69
f 99//69 100//69 146//69 145//69
f 98//60 99//69 145//69 144//60
f 97//60 98//60 144//60 143//60
f 96//60 97//60 143//60 142//60
f 95//57 96//60 142//60 141//57
f 94//29 95//57 141//57 140//29
f 93//53 115//40 164//40 139//53
f 113//41 114//28 163//28 162//41
f 115//40 113//41 162//41 164//40
f 114//28 94//29 140//29 163//28
f 112//57 232//88 234//88 158//57
f 93//53 139//53 233//90 231//90
f 89//14 230//13 232//88 112//57
f 1//49 93//53 231//90 211//48
f 139//53 4//54 185//46 233//90
f 158//57 234//88 204//50 92//87
f 253//5 203//5 204//50 254//50
f 280//12 281//12 229//12 228//12
f 80//62 84//61 202//5 201//5
f 279//12 280//12 228//12 227//12
f 278//12 279//12 227//12 226//12
f 76//61 80//62 201//5 200//5
f 277//12 278//12 226//12 225//12
f 72//62 76//61 200//5 199//5
f 276//12 277//12 225//12 224//12
f 68//61 72//62 199//5 198//5
f 275//12 276//12 224//12 223//12
f 64//62 68//61 198//5 197//5
f 274//79 275//12 223//12 222//79
f 60//86 64//62 197//5 196//77
f 273//79 274//79 222//79 221//79
f 56//84 60//86 196//77 195//77
f 272//12 273//79 221//79 220//12
f 52//61 56//84 195//77 194//5
f 271//12 272//12 220//12 219//12
f 48//62 52//61 194//5 193//5
f 270//63 271//12 219//12 218//63
f 44//74 48//62 193//5 192//67
f 269//63 270//63 218//63 217//63
f 40//70 44//74 192//67 191//67
f 36//61 40//70 191//67 190//5
f 268//12 269//63 217//63 216//12
f 267//12 268//12 216//12 215//12
f 32//62 36//61 190//5 189//5
f 266//12 267//12 215//12 214//12
f 28//61 32//62 189//5 188//5
f 265//13 266//12 214//12 213//13
f 24//58 28//61 188//5 187//50
f 264//17 265//13 213//13 212//17
f 8//30 24//58 187//50 186//21
f 263//48 257//32 210//32 211//48
f 4//54 17//43 207//36 185//46
f 255//33 256//16 209//16 208//33
f 10//42 15//31 206//20 205//37
f 17//43 10//42 205//37 207//36
f 257//32 255//33 208//33 210//32
f 15//31 8//30 186//21 206//20
f 256//16 264//17 212//17 209//16
f 281//12 282//13 230//13 229//12
f 84//61 88//62 203//5 202//5
f 86//4 90//3 282//13 281//12
f 16//11 6//10 264//17 256//16
f 18//27 12//26 255//33 257//32
f 12//26 16//11 256//16 255//33
f 2//45 18//27 257//32 263//48
f 6//10 22//55 265//13 264//17
f 22//55 26//59 266//12 265//13
f 26//59 30//4 267//12 266//12
f 30//4 34//59 268//12 267//12
f 34//59 38//66 269//63 268//12
f 38//66 42//71 270//63 269//63
f 42//71 46//4 271//12 270//63
f 46//4 50//59 272//12 271//12
f 50//59 54//76 273//79 272//12
f 54//76 58//85 274//79 273//79
f 58//85 62//4 275//12 274//79
f 62//4 66//59 276//12 275//12
f 66//59 70//4 277//12 276//12
f 70//4 74//59 278//12 277//12
f 74//59 78//4 279//12 278//12
f 78//4 82//59 280//12 279//12
f 82//59 86//4 281//12 280//12
f 87//6 253//5 254//50 91//89
f 232//88 258//88 259//88 234//88
f 231//90 233//90 284//90 283//90
f 230//13 282//13 258//88 232//88
f 211//48 231//90 283//90 263//48
f 233//90 185//46 235//46 284//90
f 234//88 259//88 254//50 204//50
f 201//5 202//5 252//5 251//5
f 200//5 201//5 251//5 250//5
f 199//5 200//5 250//5 249//5
f 198//5 199//5 249//5 248//5
f 197//5 198//5 248//5 247//5
f 196//77 197//5 247//5 246//77
f 195//77 196//77 246//77 245//77
f 194//5 195//77 245//77 244//5
f 193//5 194//5 244//5 243//5
f 192//67 193//5 243//5 242//67
f 191//67 192//67 242//67 241//67
f 190//5 191//67 241//67 240//5
f 189//5 190//5 240//5 239//5
f 188//5 189//5 239//5 238//5
f 187//50 188//5 238//5 237//50
f 186//21 187//50 237//50 236//21
f 185//46 207//36 262//36 235//46
f 205//37 206//20 261//20 260//37
f 207//36 205//37 260//37 262//36
f 206//20 186//21 236//21 261//20
f 202//5 203//5 253//5 252//5
