# Blender v2.79 (sub 0) OBJ File: ''
# www.blender.org
mtllib 889399-C-LP.mtl
o Circle
v 0.283957 0.768645 -0.143706
v 0.283957 0.768645 0.143706
v 0.571368 0.768645 0.143706
v 0.571368 0.768645 -0.143706
v 0.283957 0.809996 -0.143706
v 0.283957 0.809996 0.143706
v 0.571368 0.809996 0.143706
v 0.571368 0.809996 -0.143706
v 0.566790 0.768645 0.143706
v 0.566790 0.809996 0.143706
v 0.571368 0.768645 0.136627
v 0.571368 0.809996 0.136627
v 0.290824 0.768645 0.143706
v 0.290824 0.809996 0.143706
v 0.283957 0.768645 0.135256
v 0.283957 0.809996 0.135256
v 0.571368 0.768645 -0.137616
v 0.571368 0.809996 -0.137616
v 0.566410 0.768645 -0.143706
v 0.566410 0.809996 -0.143706
v 0.288742 0.768645 -0.143706
v 0.288742 0.809996 -0.143706
v 0.283957 0.768645 -0.137211
v 0.283957 0.809996 -0.137211
v 0.283957 0.817365 -0.143706
v 0.283957 0.817365 0.143706
v 0.571368 0.817365 0.143706
v 0.571368 0.817365 -0.143706
v 0.566790 0.817365 0.143706
v 0.571368 0.817365 0.136627
v 0.290824 0.817365 0.143706
v 0.283957 0.817365 0.135256
v 0.571368 0.817365 -0.137616
v 0.566410 0.817365 -0.143706
v 0.288742 0.817365 -0.143706
v 0.283957 0.817365 -0.137211
v 0.275317 0.817365 -0.152320
v 0.275317 0.817365 0.152350
v 0.579987 0.817365 0.152350
v 0.579987 0.817365 -0.152320
v 0.575134 0.817365 0.152350
v 0.579987 0.817365 0.144846
v 0.282597 0.817365 0.152350
v 0.275317 0.817365 0.143393
v 0.579987 0.817365 -0.145865
v 0.574731 0.817365 -0.152320
v 0.280389 0.817365 -0.152320
v 0.275317 0.817365 -0.145436
v 0.275317 0.822423 -0.152320
v 0.275317 0.822423 0.152350
v 0.579987 0.822423 0.152350
v 0.579987 0.822423 -0.152320
v 0.575134 0.822423 0.152350
v 0.579987 0.822423 0.144846
v 0.282597 0.822423 0.152350
v 0.275317 0.822423 0.143393
v 0.579987 0.822423 -0.145865
v 0.574731 0.822423 -0.152320
v 0.280389 0.822423 -0.152320
v 0.275317 0.822423 -0.145436
v 0.268184 0.822423 -0.159432
v 0.268184 0.822423 0.159486
v 0.587102 0.822423 0.159486
v 0.587102 0.822423 -0.159432
v 0.582022 0.822423 0.159486
v 0.587102 0.822423 0.151631
v 0.275805 0.822423 0.159486
v 0.268184 0.822423 0.150110
v 0.587102 0.822423 -0.152674
v 0.581600 0.822423 -0.159432
v 0.273494 0.822423 -0.159432
v 0.268184 0.822423 -0.152225
v 0.268184 0.835998 -0.159432
v 0.268184 0.835998 0.159486
v 0.587102 0.835998 0.159486
v 0.587102 0.835998 -0.159432
v 0.582022 0.835998 0.159486
v 0.587102 0.835998 0.151631
v 0.275805 0.835998 0.159486
v 0.268184 0.835998 0.150110
v 0.587102 0.835998 -0.152674
v 0.581600 0.835998 -0.159432
v 0.273494 0.835998 -0.159432
v 0.268184 0.835998 -0.152225
v 0.284498 0.835998 -0.143166
v 0.284498 0.835998 0.143164
v 0.570828 0.835998 0.143164
v 0.570828 0.835998 -0.143166
v 0.566268 0.835998 0.143164
v 0.570828 0.835998 0.136112
v 0.291339 0.835998 0.143164
v 0.284498 0.835998 0.134747
v 0.570828 0.835998 -0.137099
v 0.565889 0.835998 -0.143166
v 0.289265 0.835998 -0.143166
v 0.284498 0.835998 -0.136696
v 0.263515 0.829211 0.164157
v 0.263515 0.829211 0.154507
v 0.591759 0.829211 0.164157
v 0.586531 0.829211 0.164157
v 0.263515 0.829211 -0.156670
v 0.271358 0.829211 0.164157
v 0.591759 0.829211 -0.164087
v 0.591759 0.829211 -0.157132
v 0.591759 0.829211 0.156073
v 0.268980 0.829211 -0.164087
v 0.586097 0.829211 -0.164087
v 0.263515 0.829211 -0.164087
v 0.284498 0.861053 -0.143166
v 0.284498 0.861053 0.143164
v 0.570828 0.861053 0.143164
v 0.570828 0.861053 -0.143166
v 0.566268 0.861053 0.143164
v 0.570828 0.861053 0.136112
v 0.291339 0.861053 0.143164
v 0.284498 0.861053 0.134747
v 0.570828 0.861053 -0.137099
v 0.565889 0.861053 -0.143166
v 0.289265 0.861053 -0.143166
v 0.284498 0.861053 -0.136696
v 0.284498 0.869864 -0.143166
v 0.284498 0.869864 0.143164
v 0.570828 0.869864 0.143164
v 0.570828 0.869864 -0.143166
v 0.566268 0.869864 0.143164
v 0.570828 0.869864 0.136112
v 0.291339 0.869864 0.143164
v 0.284498 0.869864 0.134747
v 0.570828 0.869864 -0.137099
v 0.565889 0.869864 -0.143166
v 0.289265 0.869864 -0.143166
v 0.284498 0.869864 -0.136696
v 0.276288 0.869864 -0.151352
v 0.276288 0.869864 0.151379
v 0.579019 0.869864 0.151379
v 0.579019 0.869864 -0.151352
v 0.574197 0.869864 0.151379
v 0.579019 0.869864 0.143923
v 0.283521 0.869864 0.151379
v 0.276288 0.869864 0.142479
v 0.579019 0.869864 -0.144938
v 0.573796 0.869864 -0.151352
v 0.281328 0.869864 -0.151352
v 0.276288 0.869864 -0.144512
v 0.276288 0.875309 -0.151352
v 0.276288 0.875309 0.151379
v 0.579019 0.875309 0.151379
v 0.579019 0.875309 -0.151352
v 0.574197 0.875309 0.151379
v 0.579019 0.875309 0.143923
v 0.283521 0.875309 0.151379
v 0.276288 0.875309 0.142479
v 0.579019 0.875309 -0.144938
v 0.573796 0.875309 -0.151352
v 0.281328 0.875309 -0.151352
v 0.276288 0.875309 -0.144512
v 0.270187 0.875309 -0.157435
v 0.270187 0.875309 0.157482
v 0.585104 0.875309 0.157482
v 0.585104 0.875309 -0.157435
v 0.580088 0.875309 0.157482
v 0.585104 0.875309 0.149726
v 0.277712 0.875309 0.157482
v 0.270187 0.875309 0.148224
v 0.585104 0.875309 -0.150762
v 0.579671 0.875309 -0.157435
v 0.275430 0.875309 -0.157435
v 0.270187 0.875309 -0.150319
v 0.259678 0.895522 -0.167914
v 0.259678 0.895522 0.167997
v 0.595588 0.895522 0.167997
v 0.595588 0.895522 -0.167914
v 0.590238 0.895522 0.167997
v 0.595588 0.895522 0.159723
v 0.267704 0.895522 0.167997
v 0.259678 0.895522 0.158122
v 0.595588 0.895522 -0.160796
v 0.589793 0.895522 -0.167914
v 0.265270 0.895522 -0.167914
v 0.259678 0.895522 -0.160323
v 0.594856 0.885415 0.159025
v 0.594856 0.885415 0.167262
v 0.265980 0.885415 -0.167182
v 0.589086 0.885415 -0.167182
v 0.589529 0.885415 0.167262
v 0.268403 0.885415 0.167262
v 0.594856 0.885415 -0.167182
v 0.260412 0.885415 -0.167182
v 0.260412 0.885415 -0.159624
v 0.260412 0.885415 0.167262
v 0.260412 0.885415 0.157430
v 0.594856 0.885415 -0.160095
v 0.259678 0.900297 -0.167914
v 0.259678 0.900297 0.167997
v 0.595588 0.900297 0.167997
v 0.595588 0.900297 -0.167914
v 0.590238 0.900297 0.167997
v 0.595588 0.900297 0.159723
v 0.267704 0.900297 0.167997
v 0.259678 0.900297 0.158122
v 0.595588 0.900297 -0.160796
v 0.589793 0.900297 -0.167914
v 0.265270 0.900297 -0.167914
v 0.259678 0.900297 -0.160323
v 0.239883 0.905837 -0.187650
v 0.239883 0.905837 0.187800
v 0.615334 0.905837 0.187800
v 0.615334 0.905837 -0.187650
v 0.609354 0.905837 0.187800
v 0.615334 0.905837 0.178554
v 0.248854 0.905837 0.187800
v 0.239883 0.905837 0.176763
v 0.615334 0.905837 -0.179695
v 0.608856 0.905837 -0.187650
v 0.246134 0.905837 -0.187650
v 0.239883 0.905837 -0.179166
v 0.239801 0.929628 -0.187732
v 0.239801 0.929628 0.187883
v 0.615416 0.929628 0.187883
v 0.615416 0.929628 -0.187732
v 0.609433 0.929628 0.187883
v 0.615416 0.929628 0.178632
v 0.248776 0.929628 0.187883
v 0.239801 0.929628 0.176840
v 0.615416 0.929628 -0.179773
v 0.608936 0.929628 -0.187732
v 0.246055 0.929628 -0.187732
v 0.239801 0.929628 -0.179244
v 0.224158 0.936731 -0.203329
v 0.224158 0.936731 0.203533
v 0.631021 0.936731 0.203533
v 0.631021 0.936731 -0.203329
v 0.624540 0.936731 0.203533
v 0.631021 0.936731 0.193513
v 0.233879 0.936731 0.203533
v 0.224158 0.936731 0.191572
v 0.631021 0.936731 -0.194709
v 0.624001 0.936731 -0.203329
v 0.230932 0.936731 -0.203329
v 0.224158 0.936731 -0.194135
v 0.224158 0.941639 -0.203329
v 0.224158 0.941639 0.203533
v 0.631021 0.941639 0.203533
v 0.631021 0.941639 -0.203329
v 0.624540 0.941639 0.203533
v 0.631021 0.941639 0.193513
v 0.233879 0.941639 0.203533
v 0.224158 0.941639 0.191572
v 0.631021 0.941639 -0.194709
v 0.624001 0.941639 -0.203329
v 0.230932 0.941639 -0.203329
v 0.224158 0.941639 -0.194135
v 0.219730 0.941639 -0.207744
v 0.219730 0.941639 0.207963
v 0.635437 0.941639 0.207963
v 0.635437 0.941639 -0.207744
v 0.628816 0.941639 0.207963
v 0.635437 0.941639 0.197724
v 0.229663 0.941639 0.207963
v 0.219730 0.941639 0.195742
v 0.635437 0.941639 -0.198936
v 0.628265 0.941639 -0.207744
v 0.226652 0.941639 -0.207744
v 0.219730 0.941639 -0.198350
v 0.219730 0.966924 -0.207744
v 0.219730 0.966924 0.207963
v 0.635437 0.966924 0.207963
v 0.635437 0.966924 -0.207744
v 0.628816 0.966924 0.207963
v 0.635437 0.966924 0.197724
v 0.229663 0.966924 0.207963
v 0.219730 0.966924 0.195742
v 0.635437 0.966924 -0.198936
v 0.628265 0.966924 -0.207744
v 0.226652 0.966924 -0.207744
v 0.219730 0.966924 -0.198350
v 0.217580 0.966924 -0.209888
v 0.217580 0.966924 0.210115
v 0.637583 0.966924 0.210115
v 0.637583 0.966924 -0.209888
v 0.630893 0.966924 0.210115
v 0.637583 0.966924 0.199770
v 0.227615 0.966924 0.210115
v 0.217580 0.966924 0.197768
v 0.637583 0.966924 -0.200989
v 0.630337 0.966924 -0.209888
v 0.224572 0.966924 -0.209888
v 0.217580 0.966924 -0.200397
v 0.217580 0.973695 -0.209888
v 0.217580 0.973695 0.210115
v 0.637583 0.973695 0.210115
v 0.637583 0.973695 -0.209888
v 0.630893 0.973695 0.210115
v 0.637583 0.973695 0.199770
v 0.227615 0.973695 0.210115
v 0.217580 0.973695 0.197768
v 0.637583 0.973695 -0.200989
v 0.630337 0.973695 -0.209888
v 0.224572 0.973695 -0.209888
v 0.217580 0.973695 -0.200397
v 0.207754 0.973695 -0.219685
v 0.207754 0.973695 0.219945
v 0.647384 0.973695 0.219945
v 0.647384 0.973695 -0.219685
v 0.640381 0.973695 0.219945
v 0.647384 0.973695 0.209117
v 0.218259 0.973695 0.219945
v 0.207754 0.973695 0.207020
v 0.647384 0.973695 -0.210370
v 0.639799 0.973695 -0.219685
v 0.215074 0.973695 -0.219685
v 0.207754 0.973695 -0.209750
v 0.207754 0.980826 -0.219685
v 0.207754 0.980826 0.219945
v 0.647384 0.980826 0.219945
v 0.647384 0.980826 -0.219685
v 0.640381 0.980826 0.219945
v 0.647384 0.980826 0.209117
v 0.218259 0.980826 0.219945
v 0.207754 0.980826 0.207020
v 0.647384 0.980826 -0.210370
v 0.639799 0.980826 -0.219685
v 0.215074 0.980826 -0.219685
v 0.207754 0.980826 -0.209750
vn 0.0000 0.0000 1.0000
vn -0.7071 0.0000 0.7071
vn 0.0000 0.0000 -1.0000
vn 0.7071 0.0000 -0.7071
vn -1.0000 0.0000 0.0000
vn -0.7071 0.0000 -0.7071
vn 1.0000 0.0000 0.0000
vn 0.7071 0.0000 0.7071
vn 0.0000 0.7071 -0.7071
vn -0.3015 0.9045 -0.3015
vn 0.7071 0.7071 0.0000
vn -0.3015 0.9045 0.3015
vn 0.0000 0.7071 0.7071
vn 0.3015 0.9045 0.3015
vn -0.7071 0.7071 0.0000
vn 0.3015 0.9045 -0.3015
vn 0.5773 0.5773 -0.5773
vn -0.5773 0.5773 0.5773
vn -0.5773 0.5773 -0.5773
vn 0.5773 0.5773 0.5773
vn 0.0000 0.8851 -0.4653
vn -0.3721 0.8506 -0.3714
vn 0.4654 0.8851 0.0000
vn 0.3716 0.8508 -0.3715
vn -0.4659 0.8848 0.0000
vn -0.3720 0.8503 0.3721
vn 0.0000 0.8848 0.4660
vn 0.3715 0.8506 0.3722
vn 0.4654 -0.8851 0.0000
vn 0.3716 -0.8508 -0.3715
vn -0.7069 0.0000 -0.7073
vn 0.0000 -0.8851 -0.4653
vn -0.3721 -0.8506 -0.3714
vn -0.4659 -0.8848 0.0000
vn -0.3720 -0.8503 0.3721
vn 0.0000 -0.8848 0.4660
vn 0.7073 0.0000 0.7069
vn 0.3715 -0.8506 0.3722
vn 0.3015 -0.9045 0.3015
vn 0.7071 -0.7071 0.0000
vn 0.3015 -0.9045 -0.3015
vn 0.0000 -0.7071 -0.7071
vn -0.3015 -0.9045 -0.3015
vn -0.7071 -0.7071 0.0000
vn -0.3015 -0.9045 0.3015
vn 0.0000 -0.7071 0.7071
vn 0.0000 0.9203 0.3910
vn 0.0000 0.9204 0.3910
vn 0.0000 0.9207 -0.3902
vn -0.3072 0.9007 0.3073
vn 0.3066 0.9008 0.3074
vn 0.3904 0.9207 0.0000
vn 0.3067 0.9011 -0.3066
vn -0.3073 0.9009 -0.3065
vn -0.3909 0.9204 0.0000
vn -0.9131 0.4077 0.0000
vn -0.6379 0.4314 -0.6379
vn -0.7062 0.0500 -0.7062
vn -0.9993 0.0361 0.0000
vn 0.0000 0.4075 0.9132
vn 0.0000 0.0361 0.9993
vn 0.0000 0.4084 -0.9127
vn 0.0000 0.0363 -0.9993
vn -0.6380 0.4311 0.6380
vn -0.7062 0.0499 0.7062
vn 0.6380 0.4313 0.6379
vn 0.7062 0.0499 0.7062
vn 0.9128 0.4083 0.0000
vn 0.9993 0.0362 0.0000
vn 0.6378 0.4317 -0.6378
vn 0.7062 0.0500 -0.7062
vn -0.4024 0.8224 -0.4020
vn -0.7969 0.6041 0.0000
vn 0.0000 0.6040 0.7969
vn 0.0000 0.6044 -0.7967
vn -0.4023 0.8223 0.4024
vn 0.4020 0.8224 0.4025
vn 0.7967 0.6043 0.0000
vn 0.4021 0.8226 -0.4021
vn -0.7959 0.6055 0.0000
vn -0.6021 0.5243 -0.6021
vn 0.0000 0.6054 0.7959
vn 0.0000 0.6058 -0.7956
vn -0.6022 0.5242 0.6021
vn 0.6021 0.5243 0.6021
vn 0.7956 0.6057 0.0000
vn 0.6021 0.5244 -0.6021
vn -0.8400 0.5426 0.0000
vn -0.4570 0.7630 0.4571
vn -0.4571 0.7633 -0.4565
vn 0.0000 0.5425 0.8400
vn 0.0000 0.5430 -0.8397
vn 0.4566 0.7632 0.4572
vn 0.8397 0.5430 0.0000
vn 0.4567 0.7635 -0.4566
vn 0.6170 0.4884 -0.6171
vn 0.0000 0.5416 -0.8406
vn -0.8409 0.5412 0.0000
vn -0.6171 0.4881 0.6171
vn -0.6170 0.4882 -0.6171
vn 0.0000 0.5411 0.8410
vn 0.6171 0.4882 0.6171
vn 0.8407 0.5415 0.0000
usemtl None
s 1
f 19//1 4//2 8//2 20//1
f 13//3 2//4 6//4 14//3
f 11//5 3//6 7//6 12//5
f 23//7 1//8 5//8 24//7
f 3//6 9//3 10//3 7//6
f 17//5 11//5 12//5 18//5
f 9//3 13//3 14//3 10//3
f 2//4 15//7 16//7 6//4
f 4//2 17//5 18//5 8//2
f 21//1 19//1 20//1 22//1
f 1//8 21//1 22//1 5//8
f 15//7 23//7 24//7 16//7
f 7//6 10//3 29//9 27//10
f 16//7 24//7 36//11 32//11
f 20//1 8//2 28//12 34//13
f 5//8 22//1 35//13 25//14
f 24//7 5//8 25//14 36//11
f 22//1 20//1 34//13 35//13
f 8//2 18//5 33//15 28//12
f 14//3 6//4 26//16 31//9
f 6//4 16//7 32//11 26//16
f 10//3 14//3 31//9 29//9
f 18//5 12//5 30//15 33//15
f 12//5 7//6 27//10 30//15
f 32//11 36//11 48//11 44//11
f 31//9 26//16 38//17 43//9
f 28//12 33//15 45//15 40//18
f 33//15 30//15 42//15 45//15
f 30//15 27//10 39//19 42//15
f 35//13 34//13 46//13 47//13
f 29//9 31//9 43//9 41//9
f 34//13 28//12 40//18 46//13
f 25//14 35//13 47//13 37//20
f 36//11 25//14 37//20 48//11
f 26//16 32//11 44//11 38//17
f 27//10 29//9 41//9 39//19
f 39//19 41//9 53//9 51//10
f 44//11 48//11 60//11 56//11
f 43//9 38//17 50//16 55//9
f 40//18 45//15 57//15 52//12
f 45//15 42//15 54//15 57//15
f 42//15 39//19 51//10 54//15
f 47//13 46//13 58//13 59//13
f 41//9 43//9 55//9 53//9
f 46//13 40//18 52//12 58//13
f 37//20 47//13 59//13 49//14
f 48//11 37//20 49//14 60//11
f 38//17 44//11 56//11 50//16
f 51//10 53//9 65//21 63//22
f 56//11 60//11 72//23 68//23
f 55//9 50//16 62//24 67//21
f 52//12 57//15 69//25 64//26
f 57//15 54//15 66//25 69//25
f 54//15 51//10 63//22 66//25
f 59//13 58//13 70//27 71//27
f 53//9 55//9 67//21 65//21
f 58//13 52//12 64//26 70//27
f 49//14 59//13 71//27 61//28
f 60//11 49//14 61//28 72//23
f 50//16 56//11 68//23 62//24
f 97//4 98//7 80//29 74//30
f 99//31 100//3 77//32 75//33
f 98//7 101//7 84//29 80//29
f 102//3 97//4 74//30 79//32
f 103//2 104//5 81//34 76//35
f 104//5 105//5 78//34 81//34
f 105//5 99//31 75//33 78//34
f 106//1 107//1 82//36 83//36
f 100//3 102//3 79//32 77//32
f 107//1 103//2 76//35 82//36
f 108//37 106//1 83//36 73//38
f 101//7 108//37 73//38 84//29
f 84//29 73//38 85//39 96//40
f 74//30 80//29 92//40 86//41
f 75//33 77//32 89//42 87//43
f 80//29 84//29 96//40 92//40
f 79//32 74//30 86//41 91//42
f 76//35 81//34 93//44 88//45
f 81//34 78//34 90//44 93//44
f 78//34 75//33 87//43 90//44
f 83//36 82//36 94//46 95//46
f 77//32 79//32 91//42 89//42
f 82//36 76//35 88//45 94//46
f 73//38 83//36 95//46 85//39
f 72//23 61//28 108//37 101//7
f 61//28 71//27 106//1 108//37
f 70//27 64//26 103//2 107//1
f 65//21 67//21 102//3 100//3
f 71//27 70//27 107//1 106//1
f 66//25 63//22 99//31 105//5
f 69//25 66//25 105//5 104//5
f 64//26 69//25 104//5 103//2
f 67//21 62//24 97//4 102//3
f 68//23 72//23 101//7 98//7
f 63//22 65//21 100//3 99//31
f 62//24 68//23 98//7 97//4
f 85//39 95//46 119//1 109//8
f 96//40 85//39 109//8 120//7
f 86//41 92//40 116//7 110//4
f 87//43 89//42 113//3 111//6
f 92//40 96//40 120//7 116//7
f 91//42 86//41 110//4 115//3
f 88//45 93//44 117//5 112//2
f 93//44 90//44 114//5 117//5
f 90//44 87//43 111//6 114//5
f 95//46 94//46 118//1 119//1
f 89//42 91//42 115//3 113//3
f 94//46 88//45 112//2 118//1
f 118//1 112//2 124//12 130//13
f 109//8 119//1 131//13 121//14
f 120//7 109//8 121//14 132//11
f 110//4 116//7 128//11 122//16
f 111//6 113//3 125//9 123//10
f 116//7 120//7 132//11 128//11
f 115//3 110//4 122//16 127//9
f 112//2 117//5 129//15 124//12
f 117//5 114//5 126//15 129//15
f 114//5 111//6 123//10 126//15
f 119//1 118//1 130//13 131//13
f 113//3 115//3 127//9 125//9
f 125//9 127//9 139//9 137//9
f 130//13 124//12 136//18 142//13
f 121//14 131//13 143//13 133//20
f 132//11 121//14 133//20 144//11
f 122//16 128//11 140//11 134//17
f 123//10 125//9 137//9 135//19
f 128//11 132//11 144//11 140//11
f 127//9 122//16 134//17 139//9
f 124//12 129//15 141//15 136//18
f 129//15 126//15 138//15 141//15
f 126//15 123//10 135//19 138//15
f 131//13 130//13 142//13 143//13
f 137//9 139//9 151//9 149//9
f 142//13 136//18 148//12 154//13
f 133//20 143//13 155//13 145//14
f 144//11 133//20 145//14 156//11
f 134//17 140//11 152//11 146//16
f 135//19 137//9 149//9 147//10
f 140//11 144//11 156//11 152//11
f 139//9 134//17 146//16 151//9
f 136//18 141//15 153//15 148//12
f 141//15 138//15 150//15 153//15
f 138//15 135//19 147//10 150//15
f 143//13 142//13 154//13 155//13
f 155//13 154//13 166//47 167//48
f 149//9 151//9 163//49 161//49
f 154//13 148//12 160//50 166//47
f 145//14 155//13 167//48 157//51
f 156//11 145//14 157//51 168//52
f 146//16 152//11 164//52 158//53
f 147//10 149//9 161//49 159//54
f 152//11 156//11 168//52 164//52
f 151//9 146//16 158//53 163//49
f 148//12 153//15 165//55 160//50
f 153//15 150//15 162//55 165//55
f 150//15 147//10 159//54 162//55
f 181//56 182//57 171//58 174//59
f 183//60 184//60 178//61 179//61
f 185//62 186//62 175//63 173//63
f 184//60 187//64 172//65 178//61
f 188//66 183//60 179//61 169//67
f 189//68 188//66 169//67 180//69
f 190//70 191//68 176//69 170//71
f 182//57 185//62 173//63 171//58
f 191//68 189//68 180//69 176//69
f 186//62 190//70 170//71 175//63
f 187//64 192//56 177//59 172//65
f 192//56 181//56 174//59 177//59
f 165//55 162//55 181//56 192//56
f 160//50 165//55 192//56 187//64
f 163//49 158//53 190//70 186//62
f 164//52 168//52 189//68 191//68
f 159//54 161//49 185//62 182//57
f 158//53 164//52 191//68 190//70
f 168//52 157//51 188//66 189//68
f 157//51 167//48 183//60 188//66
f 166//47 160//50 187//64 184//60
f 161//49 163//49 186//62 185//62
f 167//48 166//47 184//60 183//60
f 162//55 159//54 182//57 181//56
f 174//59 171//58 195//72 198//73
f 179//61 178//61 202//74 203//74
f 173//63 175//63 199//75 197//75
f 178//61 172//65 196//76 202//74
f 169//67 179//61 203//74 193//77
f 180//69 169//67 193//77 204//78
f 170//71 176//69 200//78 194//79
f 171//58 173//63 197//75 195//72
f 176//69 180//69 204//78 200//78
f 175//63 170//71 194//79 199//75
f 172//65 177//59 201//73 196//76
f 177//59 174//59 198//73 201//73
f 201//73 198//73 210//80 213//80
f 198//73 195//72 207//81 210//80
f 203//74 202//74 214//82 215//82
f 197//75 199//75 211//83 209//83
f 202//74 196//76 208//84 214//82
f 193//77 203//74 215//82 205//85
f 204//78 193//77 205//85 216//86
f 194//79 200//78 212//86 206//87
f 195//72 197//75 209//83 207//81
f 200//78 204//78 216//86 212//86
f 199//75 194//79 206//87 211//83
f 196//76 201//73 213//80 208//84
f 208//84 213//80 225//88 220//89
f 213//80 210//80 222//88 225//88
f 210//80 207//81 219//90 222//88
f 215//82 214//82 226//91 227//91
f 209//83 211//83 223//92 221//92
f 214//82 208//84 220//89 226//91
f 205//85 215//82 227//91 217//93
f 216//86 205//85 217//93 228//94
f 206//87 212//86 224//94 218//95
f 207//81 209//83 221//92 219//90
f 212//86 216//86 228//94 224//94
f 211//83 206//87 218//95 223//92
f 223//92 218//95 230//96 235//97
f 220//89 225//88 237//98 232//99
f 225//88 222//88 234//98 237//98
f 222//88 219//90 231//100 234//98
f 227//91 226//91 238//101 239//101
f 221//92 223//92 235//97 233//97
f 226//91 220//89 232//99 238//101
f 217//93 227//91 239//101 229//102
f 228//94 217//93 229//102 240//103
f 218//95 224//94 236//103 230//96
f 219//90 221//92 233//97 231//100
f 224//94 228//94 240//103 236//103
f 236//103 240//103 252//11 248//11
f 235//97 230//96 242//16 247//9
f 232//99 237//98 249//15 244//12
f 237//98 234//98 246//15 249//15
f 234//98 231//100 243//10 246//15
f 239//101 238//101 250//13 251//13
f 233//97 235//97 247//9 245//9
f 238//101 232//99 244//12 250//13
f 229//102 239//101 251//13 241//14
f 240//103 229//102 241//14 252//11
f 230//96 236//103 248//11 242//16
f 231//100 233//97 245//9 243//10
f 243//10 245//9 257//9 255//19
f 248//11 252//11 264//11 260//11
f 247//9 242//16 254//17 259//9
f 244//12 249//15 261//15 256//18
f 249//15 246//15 258//15 261//15
f 246//15 243//10 255//19 258//15
f 251//13 250//13 262//13 263//13
f 245//9 247//9 259//9 257//9
f 250//13 244//12 256//18 262//13
f 241//14 251//13 263//13 253//20
f 252//11 241//14 253//20 264//11
f 242//16 248//11 260//11 254//17
f 255//19 257//9 269//9 267//10
f 260//11 264//11 276//11 272//11
f 259//9 254//17 266//16 271//9
f 256//18 261//15 273//15 268//12
f 261//15 258//15 270//15 273//15
f 258//15 255//19 267//10 270//15
f 263//13 262//13 274//13 275//13
f 257//9 259//9 271//9 269//9
f 262//13 256//18 268//12 274//13
f 253//20 263//13 275//13 265//14
f 264//11 253//20 265//14 276//11
f 254//17 260//11 272//11 266//16
f 266//16 272//11 284//11 278//17
f 267//10 269//9 281//9 279//19
f 272//11 276//11 288//11 284//11
f 271//9 266//16 278//17 283//9
f 268//12 273//15 285//15 280//18
f 273//15 270//15 282//15 285//15
f 270//15 267//10 279//19 282//15
f 275//13 274//13 286//13 287//13
f 269//9 271//9 283//9 281//9
f 274//13 268//12 280//18 286//13
f 265//14 275//13 287//13 277//20
f 276//11 265//14 277//20 288//11
f 288//11 277//20 289//14 300//11
f 278//17 284//11 296//11 290//16
f 279//19 281//9 293//9 291//10
f 284//11 288//11 300//11 296//11
f 283//9 278//17 290//16 295//9
f 280//18 285//15 297//15 292//12
f 285//15 282//15 294//15 297//15
f 282//15 279//19 291//10 294//15
f 287//13 286//13 298//13 299//13
f 281//9 283//9 295//9 293//9
f 286//13 280//18 292//12 298//13
f 277//20 287//13 299//13 289//14
f 289//14 299//13 311//13 301//20
f 300//11 289//14 301//20 312//11
f 290//16 296//11 308//11 302//17
f 291//10 293//9 305//9 303//19
f 296//11 300//11 312//11 308//11
f 295//9 290//16 302//17 307//9
f 292//12 297//15 309//15 304//18
f 297//15 294//15 306//15 309//15
f 294//15 291//10 303//19 306//15
f 299//13 298//13 310//13 311//13
f 293//9 295//9 307//9 305//9
f 298//13 292//12 304//18 310//13
f 310//13 304//18 316//2 322//1
f 301//20 311//13 323//1 313//8
f 312//11 301//20 313//8 324//7
f 302//17 308//11 320//7 314//4
f 303//19 305//9 317//3 315//6
f 308//11 312//11 324//7 320//7
f 307//9 302//17 314//4 319//3
f 304//18 309//15 321//5 316//2
f 309//15 306//15 318//5 321//5
f 306//15 303//19 315//6 318//5
f 311//13 310//13 322//1 323//1
f 305//9 307//9 319//3 317//3
