# 3ds Max Wavefront OBJ Exporter v0.97b - (c)2007 guruware
# File Created: 28.10.2018 19:54:22

#
# object Cylinder001
#

#
# object Cylinder002
#

#
# object Box005
#

#
# object Box002
#

#
# object Box004
#

#
# object Box006
#

#
# object Box003
#

#
# object Box007
#

#
# object Box008
#

#
# object Box009
#

#
# object Box010
#

v  -12.7429 7.0042 -3.7397
v  -11.0871 7.0042 -3.7397
v  -12.7429 7.0042 -5.3955
v  -11.0871 7.0042 -5.3955
v  -12.7088 6.5172 -3.7739
v  -11.1212 6.5172 -3.7739
v  -12.7088 6.5172 -5.3614
v  -11.1212 6.5172 -5.3614
v  -11.1212 6.9594 -5.3614
v  -11.1212 6.9594 -3.7739
v  -12.7088 6.9594 -3.7739
v  -12.7088 6.9594 -5.3614
v  -12.7429 7.0612 -3.7397
v  -11.0871 7.0612 -3.7397
v  -11.0871 7.0612 -5.3955
v  -12.7429 7.0612 -5.3955
v  -12.7804 7.0612 -3.7023
v  -11.0496 7.0612 -3.7023
v  -11.0496 7.0612 -5.4330
v  -12.7804 7.0612 -5.4330
v  -12.7804 7.1955 -3.7023
v  -11.0496 7.1955 -3.7023
v  -11.0496 7.1955 -5.4330
v  -12.7804 7.1955 -5.4330
v  -12.7143 7.1955 -3.7684
v  -11.1157 7.1955 -3.7684
v  -11.1157 7.1955 -5.3669
v  -12.7143 7.1955 -5.3669
v  -12.7551 7.4827 -3.7275
v  -11.0749 7.4827 -3.7275
v  -11.0749 7.4827 -5.4077
v  -12.7551 7.4827 -5.4077
v  -12.7534 7.5245 -3.6638
v  -11.0766 7.5245 -3.6638
v  -11.0766 7.5245 -5.4715
v  -12.7534 7.5245 -5.4715
v  -12.9494 7.6921 -3.5333
v  -10.8806 7.6921 -3.5333
v  -10.8806 7.6921 -5.6020
v  -12.9494 7.6921 -5.6020
v  -12.9494 7.7639 -3.5333
v  -10.8806 7.7639 -3.5333
v  -10.8806 7.7639 -5.6020
v  -12.9494 7.7639 -5.6020
v  -13.1204 8.0271 -3.3622
v  -10.7096 8.0271 -3.3622
v  -10.7096 8.0271 -5.7730
v  -13.1204 8.0271 -5.7730
v  -13.1204 8.0870 -3.3622
v  -10.7096 8.0870 -3.3622
v  -10.7096 8.0870 -5.7730
v  -13.1204 8.0870 -5.7730
v  -13.1885 8.0870 -3.2941
v  -10.6415 8.0870 -3.2941
v  -10.6415 8.0870 -5.8411
v  -13.1885 8.0870 -5.8411
v  -13.1885 8.3024 -3.2941
v  -10.6415 8.3024 -3.2941
v  -10.6415 8.3024 -5.8411
v  -13.1885 8.3024 -5.8411
v  -13.3792 8.6063 -3.1034
v  -10.4508 8.6063 -3.1034
v  -10.4508 8.6063 -6.0318
v  -13.3792 8.6063 -6.0318
v  -11.0303 7.1266 -5.4523
v  -11.0303 7.1266 -3.6829
v  -12.7997 7.1266 -3.6829
v  -12.7997 7.1266 -5.4523
v  -11.1157 7.4502 -5.3669
v  -11.1157 7.4502 -3.7684
v  -12.7143 7.4502 -3.7684
v  -12.7143 7.4502 -5.3669
v  -10.9223 7.6320 -5.5845
v  -10.9223 7.6320 -3.5508
v  -12.9077 7.6320 -3.5508
v  -12.9077 7.6320 -5.5845
v  -10.7859 7.9097 -5.6968
v  -10.7859 7.9097 -3.4385
v  -13.0441 7.9097 -3.4385
v  -13.0441 7.9097 -5.6968
v  -10.6008 8.4420 -5.8819
v  -10.6008 8.4420 -3.2534
v  -13.2293 8.4420 -3.2534
v  -13.2293 8.4420 -5.8819
v  -13.3792 8.7834 -3.1034
v  -10.4508 8.7834 -3.1034
v  -10.4508 8.7834 -6.0318
v  -13.3792 8.7834 -6.0318
# 88 vertices

vn 0.0000 1.0000 -0.0000
vn 0.0000 1.0000 -0.0000
vn 0.0000 1.0000 -0.0000
vn 0.0000 1.0000 -0.0000
vn 0.0000 -1.0000 -0.0000
vn 0.0000 -1.0000 -0.0000
vn 0.0000 -1.0000 -0.0000
vn 0.0000 -1.0000 -0.0000
vn 0.0000 -0.3188 0.9478
vn 0.0000 -0.3188 0.9478
vn 0.0000 -0.5391 0.8423
vn 0.0000 -0.5391 0.8423
vn 0.9478 -0.3188 -0.0000
vn 0.9478 -0.3188 -0.0000
vn 0.8423 -0.5391 -0.0000
vn 0.8423 -0.5391 -0.0000
vn 0.0000 -0.3188 -0.9478
vn 0.0000 -0.3188 -0.9478
vn 0.0000 -0.5391 -0.8423
vn 0.0000 -0.5391 -0.8423
vn -0.9478 -0.3188 -0.0000
vn -0.9478 -0.3188 -0.0000
vn -0.8423 -0.5391 -0.0000
vn -0.8423 -0.5391 -0.0000
vn 0.0000 0.0000 1.0000
vn 0.0000 0.0000 1.0000
vn 0.0000 -0.3188 0.9478
vn 0.0000 -0.3188 0.9478
vn 1.0000 0.0000 -0.0000
vn 1.0000 0.0000 -0.0000
vn 0.9478 -0.3188 -0.0000
vn 0.9478 -0.3188 -0.0000
vn 0.0000 0.0000 -1.0000
vn 0.0000 0.0000 -1.0000
vn 0.0000 -0.3188 -0.9478
vn 0.0000 -0.3188 -0.9478
vn -1.0000 0.0000 -0.0000
vn -1.0000 0.0000 -0.0000
vn -0.9478 -0.3188 -0.0000
vn -0.9478 -0.3188 -0.0000
vn 0.0000 0.0000 1.0000
vn 0.0000 0.0000 1.0000
vn 0.0000 0.0000 1.0000
vn 0.0000 0.0000 1.0000
vn 1.0000 0.0000 -0.0000
vn 1.0000 0.0000 -0.0000
vn 1.0000 0.0000 -0.0000
vn 1.0000 0.0000 -0.0000
vn 0.0000 0.0000 -1.0000
vn 0.0000 0.0000 -1.0000
vn 0.0000 0.0000 -1.0000
vn 0.0000 0.0000 -1.0000
vn -1.0000 0.0000 -0.0000
vn -1.0000 0.0000 -0.0000
vn -1.0000 0.0000 -0.0000
vn -1.0000 0.0000 -0.0000
vn 0.0000 -1.0000 -0.0000
vn 0.0000 -1.0000 -0.0000
vn 0.0000 -1.0000 -0.0000
vn 0.0000 -1.0000 -0.0000
vn 0.0000 -1.0000 -0.0000
vn 0.0000 -1.0000 -0.0000
vn 0.0000 -1.0000 -0.0000
vn 0.0000 -1.0000 -0.0000
vn 0.0000 -1.0000 -0.0000
vn 0.0000 -1.0000 -0.0000
vn 0.0000 -1.0000 -0.0000
vn 0.0000 -1.0000 -0.0000
vn 0.0000 -1.0000 -0.0000
vn 0.0000 -1.0000 -0.0000
vn 0.0000 -1.0000 -0.0000
vn 0.0000 -1.0000 -0.0000
vn 0.0000 -0.2407 0.9706
vn 0.0000 -0.2407 0.9706
vn 0.0000 -0.2407 0.9706
vn 0.0000 -0.2407 0.9706
vn 0.9706 -0.2407 -0.0000
vn 0.9706 -0.2407 -0.0000
vn 0.9706 -0.2407 -0.0000
vn 0.9706 -0.2407 -0.0000
vn 0.0000 -0.2407 -0.9706
vn 0.0000 -0.2407 -0.9706
vn 0.0000 -0.2407 -0.9706
vn 0.0000 -0.2407 -0.9706
vn -0.9706 -0.2407 -0.0000
vn -0.9706 -0.2407 -0.0000
vn -0.9706 -0.2407 -0.0000
vn -0.9706 -0.2407 -0.0000
vn 0.0000 1.0000 -0.0000
vn 0.0000 1.0000 -0.0000
vn 0.0000 1.0000 -0.0000
vn 0.0000 1.0000 -0.0000
vn 0.0000 1.0000 -0.0000
vn 0.0000 1.0000 -0.0000
vn 0.0000 1.0000 -0.0000
vn 0.0000 1.0000 -0.0000
vn 0.0000 1.0000 -0.0000
vn 0.0000 1.0000 -0.0000
vn 0.0000 1.0000 -0.0000
vn 0.0000 1.0000 -0.0000
vn 0.0000 1.0000 -0.0000
vn 0.0000 1.0000 -0.0000
vn 0.0000 1.0000 -0.0000
vn 0.0000 1.0000 -0.0000
vn 0.0000 0.0000 1.0000
vn 0.0000 0.0000 1.0000
vn 0.0000 0.0000 1.0000
vn 0.0000 0.0000 1.0000
vn 1.0000 0.0000 -0.0000
vn 1.0000 0.0000 -0.0000
vn 1.0000 0.0000 -0.0000
vn 1.0000 0.0000 -0.0000
vn 0.0000 0.0000 -1.0000
vn 0.0000 0.0000 -1.0000
vn 0.0000 0.0000 -1.0000
vn 0.0000 0.0000 -1.0000
vn -1.0000 0.0000 -0.0000
vn -1.0000 0.0000 -0.0000
vn -1.0000 0.0000 -0.0000
vn -1.0000 0.0000 -0.0000
vn 0.0000 -0.7875 0.6163
vn 0.0000 -0.7875 0.6163
vn 0.0000 -0.7875 0.6163
vn 0.0000 -0.7875 0.6163
vn 0.9994 0.0342 -0.0000
vn 0.9994 0.0342 -0.0000
vn 0.9994 0.0342 -0.0000
vn 0.9994 0.0342 -0.0000
vn 0.0000 -0.7875 -0.6163
vn 0.0000 -0.7875 -0.6163
vn 0.0000 -0.7875 -0.6163
vn 0.0000 -0.7875 -0.6163
vn -0.9994 0.0342 -0.0000
vn -0.9994 0.0342 -0.0000
vn -0.9994 0.0342 -0.0000
vn -0.9994 0.0342 -0.0000
vn 0.0000 -0.6619 0.7496
vn 0.0000 -0.6619 0.7496
vn 0.0000 -0.6619 0.7496
vn 0.0000 -0.6619 0.7496
vn 0.6385 -0.7697 -0.0000
vn 0.6385 -0.7697 -0.0000
vn 0.6385 -0.7697 -0.0000
vn 0.6385 -0.7697 -0.0000
vn 0.0000 -0.6619 -0.7496
vn 0.0000 -0.6619 -0.7496
vn 0.0000 -0.6619 -0.7496
vn 0.0000 -0.6619 -0.7496
vn -0.6385 -0.7697 -0.0000
vn -0.6385 -0.7697 -0.0000
vn -0.6385 -0.7697 -0.0000
vn -0.6385 -0.7697 -0.0000
vn 0.0000 0.0000 1.0000
vn 0.0000 0.0000 1.0000
vn 0.0000 0.0000 1.0000
vn 0.0000 0.0000 1.0000
vn 1.0000 0.0000 -0.0000
vn 1.0000 0.0000 -0.0000
vn 1.0000 0.0000 -0.0000
vn 1.0000 0.0000 -0.0000
vn 0.0000 0.0000 -1.0000
vn 0.0000 0.0000 -1.0000
vn 0.0000 0.0000 -1.0000
vn 0.0000 0.0000 -1.0000
vn -1.0000 0.0000 -0.0000
vn -1.0000 0.0000 -0.0000
vn -1.0000 0.0000 -0.0000
vn -1.0000 0.0000 -0.0000
vn 0.0000 -0.4789 0.8779
vn 0.0000 -0.4789 0.8779
vn 0.0000 -0.4789 0.8779
vn 0.0000 -0.4789 0.8779
vn 0.8779 -0.4789 -0.0000
vn 0.8779 -0.4789 -0.0000
vn 0.8779 -0.4789 -0.0000
vn 0.8779 -0.4789 -0.0000
vn 0.0000 -0.4789 -0.8779
vn 0.0000 -0.4789 -0.8779
vn 0.0000 -0.4789 -0.8779
vn 0.0000 -0.4789 -0.8779
vn -0.8779 -0.4789 -0.0000
vn -0.8779 -0.4789 -0.0000
vn -0.8779 -0.4789 -0.0000
vn -0.8779 -0.4789 -0.0000
vn 0.0000 0.0000 1.0000
vn 0.0000 0.0000 1.0000
vn 0.0000 0.0000 1.0000
vn 0.0000 0.0000 1.0000
vn 1.0000 0.0000 -0.0000
vn 1.0000 0.0000 -0.0000
vn 1.0000 0.0000 -0.0000
vn 1.0000 0.0000 -0.0000
vn 0.0000 0.0000 -1.0000
vn 0.0000 0.0000 -1.0000
vn 0.0000 0.0000 -1.0000
vn 0.0000 0.0000 -1.0000
vn -1.0000 0.0000 -0.0000
vn -1.0000 0.0000 -0.0000
vn -1.0000 0.0000 -0.0000
vn -1.0000 0.0000 -0.0000
vn 0.0000 -1.0000 -0.0000
vn 0.0000 -1.0000 -0.0000
vn 0.0000 -1.0000 -0.0000
vn 0.0000 -1.0000 -0.0000
vn 0.0000 -1.0000 -0.0000
vn 0.0000 -1.0000 -0.0000
vn 0.0000 -1.0000 -0.0000
vn 0.0000 -1.0000 -0.0000
vn 0.0000 -1.0000 -0.0000
vn 0.0000 -1.0000 -0.0000
vn 0.0000 -1.0000 -0.0000
vn 0.0000 -1.0000 -0.0000
vn 0.0000 -1.0000 -0.0000
vn 0.0000 -1.0000 -0.0000
vn 0.0000 -1.0000 -0.0000
vn 0.0000 -1.0000 -0.0000
vn 0.0000 0.0000 1.0000
vn 0.0000 0.0000 1.0000
vn 0.0000 0.0000 1.0000
vn 0.0000 0.0000 1.0000
vn 1.0000 0.0000 -0.0000
vn 1.0000 0.0000 -0.0000
vn 1.0000 0.0000 -0.0000
vn 1.0000 0.0000 -0.0000
vn 0.0000 0.0000 -1.0000
vn 0.0000 0.0000 -1.0000
vn 0.0000 0.0000 -1.0000
vn 0.0000 0.0000 -1.0000
vn -1.0000 0.0000 -0.0000
vn -1.0000 0.0000 -0.0000
vn -1.0000 0.0000 -0.0000
vn -1.0000 0.0000 -0.0000
vn 0.0000 -0.2380 0.9713
vn 0.0000 -0.2380 0.9713
vn 0.0000 -0.2380 0.9713
vn 0.0000 -0.2380 0.9713
vn 0.9713 -0.2380 -0.0000
vn 0.9713 -0.2380 -0.0000
vn 0.9713 -0.2380 -0.0000
vn 0.9713 -0.2380 -0.0000
vn 0.0000 -0.2380 -0.9713
vn 0.0000 -0.2380 -0.9713
vn 0.0000 -0.2380 -0.9713
vn 0.0000 -0.2380 -0.9713
vn -0.9713 -0.2380 -0.0000
vn -0.9713 -0.2380 -0.0000
vn -0.9713 -0.2380 -0.0000
vn -0.9713 -0.2380 -0.0000
vn 0.0000 0.2292 0.9734
vn 0.0000 0.2292 0.9734
vn 0.0000 0.2292 0.9734
vn 0.0000 0.2292 0.9734
vn 0.9734 0.2292 -0.0000
vn 0.9734 0.2292 -0.0000
vn 0.9734 0.2292 -0.0000
vn 0.9734 0.2292 -0.0000
vn 0.0000 0.2292 -0.9734
vn 0.0000 0.2292 -0.9734
vn 0.0000 0.2292 -0.9734
vn 0.0000 0.2292 -0.9734
vn -0.9734 0.2292 -0.0000
vn -0.9734 0.2292 -0.0000
vn -0.9734 0.2292 -0.0000
vn -0.9734 0.2292 -0.0000
vn 0.0000 -0.7268 0.6869
vn 0.0000 -0.7268 0.6869
vn 0.0000 -0.7268 0.6869
vn 0.0000 -0.7268 0.6869
vn 0.6869 -0.7268 -0.0000
vn 0.6869 -0.7268 -0.0000
vn 0.6869 -0.7268 -0.0000
vn 0.6869 -0.7268 -0.0000
vn 0.0000 -0.7268 -0.6869
vn 0.0000 -0.7268 -0.6869
vn 0.0000 -0.7268 -0.6869
vn 0.0000 -0.7268 -0.6869
vn -0.6869 -0.7268 -0.0000
vn -0.6869 -0.7268 -0.0000
vn -0.6869 -0.7268 -0.0000
vn -0.6869 -0.7268 -0.0000
vn 0.0000 -0.2378 0.9713
vn 0.0000 -0.2378 0.9713
vn 0.0000 -0.2378 0.9713
vn 0.0000 -0.2378 0.9713
vn 0.8640 -0.5034 -0.0000
vn 0.8640 -0.5034 -0.0000
vn 0.8640 -0.5034 -0.0000
vn 0.8640 -0.5034 -0.0000
vn 0.0000 -0.2378 -0.9713
vn 0.0000 -0.2378 -0.9713
vn 0.0000 -0.2378 -0.9713
vn 0.0000 -0.2378 -0.9713
vn -0.8640 -0.5034 -0.0000
vn -0.8640 -0.5034 -0.0000
vn -0.8640 -0.5034 -0.0000
vn -0.8640 -0.5034 -0.0000
vn 0.0000 -0.4789 0.8779
vn 0.0000 -0.4789 0.8779
vn 0.0000 -0.4789 0.8779
vn 0.0000 -0.4789 0.8779
vn 0.8779 -0.4789 -0.0000
vn 0.8779 -0.4789 -0.0000
vn 0.8779 -0.4789 -0.0000
vn 0.8779 -0.4789 -0.0000
vn 0.0000 -0.4789 -0.8779
vn 0.0000 -0.4789 -0.8779
vn 0.0000 -0.4789 -0.8779
vn 0.0000 -0.4789 -0.8779
vn -0.8779 -0.4789 -0.0000
vn -0.8779 -0.4789 -0.0000
vn -0.8779 -0.4789 -0.0000
vn -0.8779 -0.4789 -0.0000
vn 0.0000 -0.6084 0.7936
vn 0.0000 -0.6084 0.7936
vn 0.0000 -0.6084 0.7936
vn 0.0000 -0.6084 0.7936
vn 0.7936 -0.6084 -0.0000
vn 0.7936 -0.6084 -0.0000
vn 0.7936 -0.6084 -0.0000
vn 0.7936 -0.6084 -0.0000
vn 0.0000 -0.6084 -0.7936
vn 0.0000 -0.6084 -0.7936
vn 0.0000 -0.6084 -0.7936
vn 0.0000 -0.6084 -0.7936
vn -0.7936 -0.6084 -0.0000
vn -0.7936 -0.6084 -0.0000
vn -0.7936 -0.6084 -0.0000
vn -0.7936 -0.6084 -0.0000
vn 0.0000 0.0000 1.0000
vn 0.0000 0.0000 1.0000
vn 0.0000 0.0000 1.0000
vn 0.0000 0.0000 1.0000
vn 1.0000 0.0000 -0.0000
vn 1.0000 0.0000 -0.0000
vn 1.0000 0.0000 -0.0000
vn 1.0000 0.0000 -0.0000
vn 0.0000 0.0000 -1.0000
vn 0.0000 0.0000 -1.0000
vn 0.0000 0.0000 -1.0000
vn 0.0000 0.0000 -1.0000
vn -1.0000 0.0000 -0.0000
vn -1.0000 0.0000 -0.0000
vn -1.0000 0.0000 -0.0000
vn -1.0000 0.0000 -0.0000
# 344 vertex normals

g Box010
f 85//1 86//2 87//3 88//4 
f 5//5 7//6 8//7 6//8 
f 11//9 10//10 2//11 1//12 
f 10//13 9//14 4//15 2//16 
f 9//17 12//18 3//19 4//20 
f 12//21 11//22 1//23 3//24 
f 5//25 6//26 10//27 11//28 
f 6//29 8//30 9//31 10//32 
f 8//33 7//34 12//35 9//36 
f 7//37 5//38 11//39 12//40 
f 1//41 2//42 14//43 13//44 
f 2//45 4//46 15//47 14//48 
f 4//49 3//50 16//51 15//52 
f 3//53 1//54 13//55 16//56 
f 13//57 14//58 18//59 17//60 
f 14//61 15//62 19//63 18//64 
f 15//65 16//66 20//67 19//68 
f 16//69 13//70 17//71 20//72 
f 18//73 66//74 67//75 17//76 
f 19//77 65//78 66//79 18//80 
f 20//81 68//82 65//83 19//84 
f 17//85 67//86 68//87 20//88 
f 21//89 22//90 26//91 25//92 
f 22//93 23//94 27//95 26//96 
f 23//97 24//98 28//99 27//100 
f 24//101 21//102 25//103 28//104 
f 26//105 70//106 71//107 25//108 
f 27//109 69//110 70//111 26//112 
f 28//113 72//114 69//115 27//116 
f 25//117 71//118 72//119 28//120 
f 29//121 30//122 34//123 33//124 
f 30//125 31//126 35//127 34//128 
f 31//129 32//130 36//131 35//132 
f 32//133 29//134 33//135 36//136 
f 34//137 74//138 75//139 33//140 
f 35//141 73//142 74//143 34//144 
f 36//145 76//146 73//147 35//148 
f 33//149 75//150 76//151 36//152 
f 37//153 38//154 42//155 41//156 
f 38//157 39//158 43//159 42//160 
f 39//161 40//162 44//163 43//164 
f 40//165 37//166 41//167 44//168 
f 42//169 78//170 79//171 41//172 
f 43//173 77//174 78//175 42//176 
f 44//177 80//178 77//179 43//180 
f 41//181 79//182 80//183 44//184 
f 45//185 46//186 50//187 49//188 
f 46//189 47//190 51//191 50//192 
f 47//193 48//194 52//195 51//196 
f 48//197 45//198 49//199 52//200 
f 49//201 50//202 54//203 53//204 
f 50//205 51//206 55//207 54//208 
f 51//209 52//210 56//211 55//212 
f 52//213 49//214 53//215 56//216 
f 53//217 54//218 58//219 57//220 
f 54//221 55//222 59//223 58//224 
f 55//225 56//226 60//227 59//228 
f 56//229 53//230 57//231 60//232 
f 58//233 82//234 83//235 57//236 
f 59//237 81//238 82//239 58//240 
f 60//241 84//242 81//243 59//244 
f 57//245 83//246 84//247 60//248 
f 22//249 21//250 67//251 66//252 
f 23//253 22//254 66//255 65//256 
f 24//257 23//258 65//259 68//260 
f 21//261 24//262 68//263 67//264 
f 30//265 29//266 71//267 70//268 
f 31//269 30//270 70//271 69//272 
f 32//273 31//274 69//275 72//276 
f 29//277 32//278 72//279 71//280 
f 38//281 37//282 75//283 74//284 
f 39//285 38//286 74//287 73//288 
f 40//289 39//290 73//291 76//292 
f 37//293 40//294 76//295 75//296 
f 46//297 45//298 79//299 78//300 
f 47//301 46//302 78//303 77//304 
f 48//305 47//306 77//307 80//308 
f 45//309 48//310 80//311 79//312 
f 62//313 61//314 83//315 82//316 
f 63//317 62//318 82//319 81//320 
f 64//321 63//322 81//323 84//324 
f 61//325 64//326 84//327 83//328 
f 61//329 62//330 86//331 85//332 
f 62//333 63//334 87//335 86//336 
f 63//337 64//338 88//339 87//340 
f 64//341 61//342 85//343 88//344 
# 86 polygons

