# 3ds Max Wavefront OBJ Exporter v0.97b - (c)2007 guruware
# File Created: 28.10.2018 19:56:22

#
# object Cylinder001
#

#
# object Cylinder002
#

#
# object Box001
#

v  -13.4432 0.0282 -3.2172
v  -10.5078 0.0282 -3.2172
v  -13.4432 0.0282 -5.9412
v  -10.5078 0.0282 -5.9412
v  -13.4358 1.4826 -3.2243
v  -10.5156 1.4826 -3.2243
v  -13.4358 1.4826 -5.9342
v  -10.5156 1.4826 -5.9342
v  -13.4678 1.4826 -3.1943
v  -10.4845 1.4826 -3.1943
v  -10.4845 1.4826 -5.9633
v  -13.4678 1.4826 -5.9633
v  -13.4678 1.6773 -3.1943
v  -10.4845 1.6773 -3.1943
v  -10.4845 1.6773 -5.9633
v  -13.4678 1.6773 -5.9633
v  -13.4596 1.6773 -3.2018
v  -10.4918 1.6773 -3.2018
v  -10.4918 1.6773 -5.9566
v  -13.4596 1.6773 -5.9566
v  -13.4596 1.7097 -3.2018
v  -10.4918 1.7097 -3.2018
v  -10.4918 1.7097 -5.9566
v  -13.4596 1.7097 -5.9566
v  -13.3778 1.8233 -3.2778
v  -10.5736 1.8233 -3.2778
v  -10.5736 1.8233 -5.8807
v  -13.3778 1.8233 -5.8807
v  -13.5119 1.5722 -6.0042
v  -10.4404 1.5722 -6.0042
v  -10.4404 1.5722 -3.1534
v  -13.5119 1.5722 -3.1534
v  -13.2612 2.0150 -3.3860
v  -10.6902 2.0150 -3.3860
v  -10.6902 2.0150 -5.7725
v  -13.2612 2.0150 -5.7725
v  -10.6279 1.9042 -5.8303
v  -10.6279 1.9042 -3.3281
v  -13.3235 1.9042 -3.3281
v  -13.3235 1.9042 -5.8303
v  -13.1635 2.1345 -3.4766
v  -10.7879 2.1345 -3.4766
v  -10.7879 2.1345 -5.6818
v  -13.1635 2.1345 -5.6818
v  -10.4614 1.6386 -3.1729
v  -13.4909 1.6386 -3.1729
v  -13.4909 1.6386 -5.9847
v  -10.4614 1.6386 -5.9847
v  -10.4668 1.5078 -3.1779
v  -13.4855 1.5078 -3.1779
v  -13.4855 1.5078 -5.9797
v  -10.4668 1.5078 -5.9797
v  -10.4918 1.6925 -5.9566
v  -10.4918 1.6925 -3.2018
v  -13.4596 1.6925 -3.2018
v  -13.4596 1.6925 -5.9566
v  -10.7193 1.9592 -5.7455
v  -10.7193 1.9592 -3.4130
v  -13.2321 1.9592 -3.4130
v  -13.2321 1.9592 -5.7455
v  -10.7093 1.9749 -5.7547
v  -10.7093 1.9749 -3.4037
v  -13.2421 1.9749 -3.4037
v  -13.2421 1.9749 -5.7547
# 64 vertices

vn 0.0000 -1.0000 -0.0000
vn 0.0000 -1.0000 -0.0000
vn 0.0000 -1.0000 -0.0000
vn 0.0000 -1.0000 -0.0000
vn 0.0000 1.0000 -0.0000
vn 0.0000 1.0000 -0.0000
vn 0.0000 1.0000 -0.0000
vn 0.0000 1.0000 -0.0000
vn 0.0000 0.0053 1.0000
vn 0.0000 0.0053 1.0000
vn 0.0000 0.0053 1.0000
vn 0.0000 0.0053 1.0000
vn 1.0000 0.0061 -0.0000
vn 1.0000 0.0061 -0.0000
vn 1.0000 0.0061 -0.0000
vn 1.0000 0.0061 -0.0000
vn 0.0000 0.0053 -1.0000
vn 0.0000 0.0053 -1.0000
vn 0.0000 0.0053 -1.0000
vn 0.0000 0.0053 -1.0000
vn -1.0000 0.0058 -0.0000
vn -1.0000 0.0058 -0.0000
vn -1.0000 0.0058 -0.0000
vn -1.0000 0.0058 -0.0000
vn 0.0000 -1.0000 -0.0000
vn 0.0000 -1.0000 -0.0000
vn 0.0000 -1.0000 -0.0000
vn 0.0000 -1.0000 -0.0000
vn 0.0000 -1.0000 -0.0000
vn 0.0000 -1.0000 -0.0000
vn 0.0000 -1.0000 -0.0000
vn 0.0000 -1.0000 -0.0000
vn 0.0000 -1.0000 -0.0000
vn 0.0000 -1.0000 -0.0000
vn 0.0000 -1.0000 -0.0000
vn 0.0000 -1.0000 -0.0000
vn 0.0000 -1.0000 -0.0000
vn 0.0000 -1.0000 -0.0000
vn 0.0000 -1.0000 -0.0000
vn 0.0000 -1.0000 -0.0000
vn 0.0000 -0.5814 0.8136
vn 0.0000 -0.5814 0.8136
vn 0.0000 -0.5814 0.8136
vn 0.0000 -0.5814 0.8136
vn 0.7821 -0.6232 -0.0000
vn 0.7821 -0.6232 -0.0000
vn 0.7821 -0.6232 -0.0000
vn 0.7821 -0.6232 -0.0000
vn 0.0000 -0.5814 -0.8136
vn 0.0000 -0.5814 -0.8136
vn 0.0000 -0.5814 -0.8136
vn 0.0000 -0.5814 -0.8136
vn -0.7821 -0.6232 -0.0000
vn -0.7821 -0.6232 -0.0000
vn -0.7821 -0.6232 -0.0000
vn -0.7821 -0.6232 -0.0000
vn 0.0000 1.0000 -0.0000
vn 0.0000 1.0000 -0.0000
vn 0.0000 1.0000 -0.0000
vn 0.0000 1.0000 -0.0000
vn 0.0000 1.0000 -0.0000
vn 0.0000 1.0000 -0.0000
vn 0.0000 1.0000 -0.0000
vn 0.0000 1.0000 -0.0000
vn 0.0000 1.0000 -0.0000
vn 0.0000 1.0000 -0.0000
vn 0.0000 1.0000 -0.0000
vn 0.0000 1.0000 -0.0000
vn 0.0000 1.0000 -0.0000
vn 0.0000 1.0000 -0.0000
vn 0.0000 1.0000 -0.0000
vn 0.0000 1.0000 -0.0000
vn 0.0000 0.0000 1.0000
vn 0.0000 0.0000 1.0000
vn 0.0000 0.0000 1.0000
vn 0.0000 0.0000 1.0000
vn 1.0000 0.0000 -0.0000
vn 1.0000 0.0000 -0.0000
vn 1.0000 0.0000 -0.0000
vn 1.0000 0.0000 -0.0000
vn 0.0000 0.0000 -1.0000
vn 0.0000 0.0000 -1.0000
vn 0.0000 0.0000 -1.0000
vn 0.0000 0.0000 -1.0000
vn -1.0000 0.0000 -0.0000
vn -1.0000 0.0000 -0.0000
vn -1.0000 0.0000 -0.0000
vn -1.0000 0.0000 -0.0000
vn 0.0000 0.5915 0.8063
vn 0.0000 0.5915 0.8063
vn 0.0000 0.5915 0.8063
vn 0.0000 0.5915 0.8063
vn 0.7740 0.6331 -0.0000
vn 0.7740 0.6331 -0.0000
vn 0.7740 0.6331 -0.0000
vn 0.7740 0.6331 -0.0000
vn 0.0000 0.5915 -0.8063
vn 0.0000 0.5915 -0.8063
vn 0.0000 0.5915 -0.8063
vn 0.0000 0.5915 -0.8063
vn -0.7740 0.6331 -0.0000
vn -0.7740 0.6331 -0.0000
vn -0.7740 0.6331 -0.0000
vn -0.7740 0.6331 -0.0000
vn 0.0000 0.3058 0.9521
vn 0.0000 0.3058 0.9521
vn 0.0000 0.3058 0.9521
vn 0.0000 0.3058 0.9521
vn 0.9414 0.3372 -0.0000
vn 0.9414 0.3372 -0.0000
vn 0.9414 0.3372 -0.0000
vn 0.9414 0.3372 -0.0000
vn 0.0000 0.3058 -0.9521
vn 0.0000 0.3058 -0.9521
vn 0.0000 0.3058 -0.9521
vn 0.0000 0.3058 -0.9521
vn -0.9414 0.3372 -0.0000
vn -0.9414 0.3372 -0.0000
vn -0.9414 0.3372 -0.0000
vn -0.9414 0.3372 -0.0000
vn 0.0000 0.5640 0.8258
vn 0.0000 0.5640 0.8258
vn 0.0000 0.5640 0.8258
vn 0.0000 0.5640 0.8258
vn 0.7956 0.6059 -0.0000
vn 0.7956 0.6059 -0.0000
vn 0.7956 0.6059 -0.0000
vn 0.7956 0.6059 -0.0000
vn 0.0000 0.5640 -0.8258
vn 0.0000 0.5640 -0.8258
vn 0.0000 0.5640 -0.8258
vn 0.0000 0.5640 -0.8258
vn -0.7956 0.6059 -0.0000
vn -0.7956 0.6059 -0.0000
vn -0.7956 0.6059 -0.0000
vn -0.7956 0.6059 -0.0000
vn 0.0000 0.8609 0.5087
vn 0.0000 0.8609 0.5087
vn 0.0000 0.8609 0.5087
vn 0.0000 0.8609 0.5087
vn 0.4683 0.8836 -0.0000
vn 0.4683 0.8836 -0.0000
vn 0.4683 0.8836 -0.0000
vn 0.4683 0.8836 -0.0000
vn 0.0000 0.8609 -0.5087
vn 0.0000 0.8609 -0.5087
vn 0.0000 0.8609 -0.5087
vn 0.0000 0.8609 -0.5087
vn -0.4683 0.8836 -0.0000
vn -0.4683 0.8836 -0.0000
vn -0.4683 0.8836 -0.0000
vn -0.4683 0.8836 -0.0000
vn 0.0000 0.6397 0.7686
vn 0.0000 0.6397 0.7686
vn 0.0000 0.6397 0.7686
vn 0.0000 0.6397 0.7686
vn 0.7330 0.6802 -0.0000
vn 0.7330 0.6802 -0.0000
vn 0.7330 0.6802 -0.0000
vn 0.7330 0.6802 -0.0000
vn 0.0000 0.6397 -0.7686
vn 0.0000 0.6397 -0.7686
vn 0.0000 0.6397 -0.7686
vn 0.0000 0.6397 -0.7686
vn -0.7330 0.6802 -0.0000
vn -0.7330 0.6802 -0.0000
vn -0.7330 0.6802 -0.0000
vn -0.7330 0.6802 -0.0000
vn 0.0000 0.5204 0.8539
vn 0.0000 0.5204 0.8539
vn 0.0000 0.5204 0.8539
vn 0.0000 0.5204 0.8539
vn 0.8271 0.5620 -0.0000
vn 0.8271 0.5620 -0.0000
vn 0.8271 0.5620 -0.0000
vn 0.8271 0.5620 -0.0000
vn 0.0000 0.5204 -0.8539
vn 0.0000 0.5204 -0.8539
vn 0.0000 0.5204 -0.8539
vn 0.0000 0.5204 -0.8539
vn -0.8271 0.5620 -0.0000
vn -0.8271 0.5620 -0.0000
vn -0.8271 0.5620 -0.0000
vn -0.8271 0.5620 -0.0000
vn 0.0000 -0.3851 0.9229
vn 0.0000 -0.3851 0.9229
vn 0.0000 -0.3851 0.9229
vn 0.0000 -0.3851 0.9229
vn 0.9066 -0.4219 -0.0000
vn 0.9066 -0.4219 -0.0000
vn 0.9066 -0.4219 -0.0000
vn 0.9066 -0.4219 -0.0000
vn 0.0000 -0.3851 -0.9229
vn 0.0000 -0.3851 -0.9229
vn 0.0000 -0.3851 -0.9229
vn 0.0000 -0.3851 -0.9229
vn -0.9067 -0.4219 -0.0000
vn -0.9067 -0.4219 -0.0000
vn -0.9067 -0.4219 -0.0000
vn -0.9067 -0.4219 -0.0000
vn 0.0000 0.0000 1.0000
vn 0.0000 0.0000 1.0000
vn 0.0000 0.0000 1.0000
vn 0.0000 0.0000 1.0000
vn 1.0000 0.0000 -0.0000
vn 1.0000 0.0000 -0.0000
vn 1.0000 0.0000 -0.0000
vn 1.0000 0.0000 -0.0000
vn 0.0000 0.0000 -1.0000
vn 0.0000 0.0000 -1.0000
vn 0.0000 0.0000 -1.0000
vn 0.0000 0.0000 -1.0000
vn -1.0000 0.0000 -0.0000
vn -1.0000 0.0000 -0.0000
vn -1.0000 0.0000 -0.0000
vn -1.0000 0.0000 -0.0000
vn 0.0000 -0.5438 0.8392
vn 0.0000 -0.5438 0.8392
vn 0.0000 -0.5438 0.8392
vn 0.0000 -0.5438 0.8392
vn 0.8106 -0.5856 -0.0000
vn 0.8106 -0.5856 -0.0000
vn 0.8106 -0.5856 -0.0000
vn 0.8106 -0.5856 -0.0000
vn 0.0000 -0.5438 -0.8392
vn 0.0000 -0.5438 -0.8392
vn 0.0000 -0.5438 -0.8392
vn 0.0000 -0.5438 -0.8392
vn -0.8106 -0.5856 -0.0000
vn -0.8106 -0.5856 -0.0000
vn -0.8106 -0.5856 -0.0000
vn -0.8106 -0.5856 -0.0000
vn 0.0000 -0.4372 0.8994
vn 0.0000 -0.4372 0.8994
vn 0.0000 -0.4372 0.8994
vn 0.0000 -0.4372 0.8994
vn 0.8792 -0.4765 -0.0000
vn 0.8792 -0.4765 -0.0000
vn 0.8792 -0.4765 -0.0000
vn 0.8792 -0.4765 -0.0000
vn 0.0000 -0.4372 -0.8994
vn 0.0000 -0.4372 -0.8994
vn 0.0000 -0.4372 -0.8994
vn 0.0000 -0.4372 -0.8994
vn -0.8792 -0.4765 -0.0000
vn -0.8792 -0.4765 -0.0000
vn -0.8792 -0.4765 -0.0000
vn -0.8792 -0.4765 -0.0000
# 248 vertex normals

g Box001
f 1//1 3//2 4//3 2//4 
f 41//5 42//6 43//7 44//8 
f 1//9 2//10 6//11 5//12 
f 2//13 4//14 8//15 6//16 
f 4//17 3//18 7//19 8//20 
f 3//21 1//22 5//23 7//24 
f 5//25 6//26 10//27 9//28 
f 6//29 8//30 11//31 10//32 
f 8//33 7//34 12//35 11//36 
f 7//37 5//38 9//39 12//40 
f 10//41 49//42 50//43 9//44 
f 11//45 52//46 49//47 10//48 
f 12//49 51//50 52//51 11//52 
f 9//53 50//54 51//55 12//56 
f 13//57 14//58 18//59 17//60 
f 14//61 15//62 19//63 18//64 
f 15//65 16//66 20//67 19//68 
f 16//69 13//70 17//71 20//72 
f 18//73 54//74 55//75 17//76 
f 19//77 53//78 54//79 18//80 
f 20//81 56//82 53//83 19//84 
f 17//85 55//86 56//87 20//88 
f 21//89 22//90 26//91 25//92 
f 22//93 23//94 27//95 26//96 
f 23//97 24//98 28//99 27//100 
f 24//101 21//102 25//103 28//104 
f 45//105 46//106 32//107 31//108 
f 48//109 45//110 31//111 30//112 
f 47//113 48//114 30//115 29//116 
f 46//117 47//118 29//119 32//120 
f 26//121 38//122 39//123 25//124 
f 27//125 37//126 38//127 26//128 
f 28//129 40//130 37//131 27//132 
f 25//133 39//134 40//135 28//136 
f 58//137 59//138 39//139 38//140 
f 57//141 58//142 38//143 37//144 
f 60//145 57//146 37//147 40//148 
f 59//149 60//150 40//151 39//152 
f 33//153 34//154 42//155 41//156 
f 34//157 35//158 43//159 42//160 
f 35//161 36//162 44//163 43//164 
f 36//165 33//166 41//167 44//168 
f 14//169 13//170 46//171 45//172 
f 15//173 14//174 45//175 48//176 
f 16//177 15//178 48//179 47//180 
f 13//181 16//182 47//183 46//184 
f 31//185 32//186 50//187 49//188 
f 30//189 31//190 49//191 52//192 
f 29//193 30//194 52//195 51//196 
f 32//197 29//198 51//199 50//200 
f 22//201 21//202 55//203 54//204 
f 23//205 22//206 54//207 53//208 
f 24//209 23//210 53//211 56//212 
f 21//213 24//214 56//215 55//216 
f 62//217 63//218 59//219 58//220 
f 61//221 62//222 58//223 57//224 
f 64//225 61//226 57//227 60//228 
f 63//229 64//230 60//231 59//232 
f 34//233 33//234 63//235 62//236 
f 35//237 34//238 62//239 61//240 
f 36//241 35//242 61//243 64//244 
f 33//245 36//246 64//247 63//248 
# 62 polygons

#
# object Box005
#

#
# object Box002
#

#
# object Box004
#

#
# object Box006
#

#
# object Box003
#

#
# object Box007
#

#
# object Box008
#

#
# object Box009
#

