# Blender v2.79 (sub 0) OBJ File: ''
# www.blender.org
mtllib 893145-B-LP.mtl
o Circle_Circle.001
v -0.338705 0.669345 0.228753
v -0.176951 0.669345 0.161753
v -0.109951 0.669345 -0.000000
v -0.176951 0.669345 -0.161753
v -0.338705 0.669345 -0.228753
v -0.500458 0.669345 -0.161753
v -0.567458 0.669345 0.000000
v -0.500458 0.669345 0.161753
v -0.338705 0.679199 0.195669
v -0.200346 0.679199 0.138359
v -0.143036 0.679199 -0.000000
v -0.200346 0.679199 -0.138359
v -0.338705 0.679199 -0.195669
v -0.477063 0.679199 -0.138359
v -0.534374 0.679199 0.000000
v -0.477063 0.679199 0.138359
v -0.338705 0.712701 0.195669
v -0.200346 0.712701 0.138359
v -0.143036 0.712701 -0.000000
v -0.200346 0.712701 -0.138359
v -0.338705 0.712701 -0.195669
v -0.477063 0.712701 -0.138359
v -0.534374 0.712701 0.000000
v -0.477063 0.712701 0.138359
v -0.338705 0.712701 0.177065
v -0.213501 0.712701 0.125204
v -0.161639 0.712701 -0.000000
v -0.213501 0.712701 -0.125204
v -0.338705 0.712701 -0.177065
v -0.463908 0.712701 -0.125204
v -0.515770 0.712701 0.000000
v -0.463908 0.712701 0.125204
v -0.338705 0.712701 0.194554
v -0.201134 0.712701 0.137570
v -0.144151 0.712701 -0.000000
v -0.201134 0.712701 -0.137570
v -0.338705 0.712701 -0.194554
v -0.476275 0.712701 -0.137570
v -0.533258 0.712701 0.000000
v -0.476275 0.712701 0.137570
v -0.338705 0.739090 0.194554
v -0.201134 0.739090 0.137570
v -0.144151 0.739090 -0.000000
v -0.201134 0.739090 -0.137570
v -0.338705 0.739090 -0.194554
v -0.476275 0.739090 -0.137570
v -0.533258 0.739090 0.000000
v -0.476275 0.739090 0.137570
v -0.338705 0.739090 0.171881
v -0.217166 0.739090 0.121538
v -0.166823 0.739090 -0.000000
v -0.217166 0.739090 -0.121538
v -0.338705 0.739090 -0.171881
v -0.460243 0.739090 -0.121538
v -0.510586 0.739090 0.000000
v -0.460243 0.739090 0.121538
v -0.338705 0.746077 0.171881
v -0.217166 0.746077 0.121538
v -0.166823 0.746077 -0.000000
v -0.217166 0.746077 -0.121538
v -0.338705 0.746077 -0.171881
v -0.460243 0.746077 -0.121538
v -0.510586 0.746077 0.000000
v -0.460243 0.746077 0.121538
v -0.338705 0.746077 0.158106
v -0.226907 0.746077 0.111798
v -0.180599 0.746077 -0.000000
v -0.226907 0.746077 -0.111798
v -0.338705 0.746077 -0.158106
v -0.450502 0.746077 -0.111798
v -0.496810 0.746077 0.000000
v -0.450502 0.746077 0.111798
v -0.338705 0.762173 0.158106
v -0.226907 0.762173 0.111798
v -0.180599 0.762173 -0.000000
v -0.226907 0.762173 -0.111798
v -0.338705 0.762173 -0.158106
v -0.450502 0.762173 -0.111798
v -0.496810 0.762173 0.000000
v -0.450502 0.762173 0.111798
v -0.338705 0.762173 0.164406
v -0.222452 0.762173 0.116253
v -0.174298 0.762173 -0.000000
v -0.222452 0.762173 -0.116253
v -0.338705 0.762173 -0.164406
v -0.454957 0.762173 -0.116253
v -0.503111 0.762173 0.000000
v -0.454957 0.762173 0.116253
v -0.338705 0.770202 0.164406
v -0.222452 0.770202 0.116253
v -0.174298 0.770202 -0.000000
v -0.222452 0.770202 -0.116253
v -0.338705 0.770202 -0.164406
v -0.454957 0.770202 -0.116253
v -0.503111 0.770202 0.000000
v -0.454957 0.770202 0.116253
v -0.338705 0.770202 0.174013
v -0.215659 0.770202 0.123046
v -0.164691 0.770202 -0.000000
v -0.215659 0.770202 -0.123046
v -0.338705 0.770202 -0.174013
v -0.461750 0.770202 -0.123046
v -0.512718 0.770202 0.000000
v -0.461750 0.770202 0.123046
v -0.338705 0.794289 0.174013
v -0.215659 0.794289 0.123046
v -0.164691 0.794289 -0.000000
v -0.215659 0.794289 -0.123046
v -0.338705 0.794289 -0.174013
v -0.461750 0.794289 -0.123046
v -0.512718 0.794289 0.000000
v -0.461750 0.794289 0.123046
v -0.338705 0.794289 0.164836
v -0.222148 0.794289 0.116557
v -0.173868 0.794289 -0.000000
v -0.222148 0.794289 -0.116557
v -0.338705 0.794289 -0.164836
v -0.455261 0.794289 -0.116557
v -0.503541 0.794289 0.000000
v -0.455261 0.794289 0.116557
v -0.338705 0.794289 0.173752
v -0.215844 0.794289 0.122861
v -0.164953 0.794289 -0.000000
v -0.215844 0.794289 -0.122861
v -0.338705 0.794289 -0.173752
v -0.461565 0.794289 -0.122861
v -0.512456 0.794289 0.000000
v -0.461565 0.794289 0.122861
v -0.338705 0.803653 0.173752
v -0.215844 0.803653 0.122861
v -0.164953 0.803653 -0.000000
v -0.215844 0.803653 -0.122861
v -0.338705 0.803653 -0.173752
v -0.461565 0.803653 -0.122861
v -0.512456 0.803653 0.000000
v -0.461565 0.803653 0.122861
v -0.338705 0.803653 0.161677
v -0.224382 0.803653 0.114323
v -0.177027 0.803653 -0.000000
v -0.224382 0.803653 -0.114323
v -0.338705 0.803653 -0.161677
v -0.453028 0.803653 -0.114323
v -0.500382 0.803653 0.000000
v -0.453028 0.803653 0.114323
v -0.338705 0.810341 0.161677
v -0.224382 0.810341 0.114323
v -0.177027 0.810341 -0.000000
v -0.224382 0.810341 -0.114323
v -0.338705 0.810341 -0.161677
v -0.453028 0.810341 -0.114323
v -0.500382 0.810341 0.000000
v -0.453028 0.810341 0.114323
v -0.200346 0.708365 -0.138359
v -0.338705 0.708365 -0.195669
v -0.200346 0.708365 0.138359
v -0.143036 0.708365 -0.000000
v -0.534374 0.708365 0.000000
v -0.477063 0.708365 0.138359
v -0.477063 0.708365 -0.138359
v -0.338705 0.708365 0.195669
v -0.338705 0.669345 0.213543
v -0.187707 0.669345 0.150998
v -0.489702 0.669345 0.150998
v -0.489702 0.669345 -0.150998
v -0.552248 0.669345 0.000000
v -0.187707 0.669345 -0.150998
v -0.338705 0.669345 -0.213543
v -0.125161 0.669345 -0.000000
vn -0.1961 -0.8587 -0.4734
vn 0.1961 -0.8587 -0.4734
vn 0.4734 -0.8587 0.1961
vn -0.1961 -0.8587 0.4734
vn -0.4734 -0.8587 -0.1961
vn 0.4734 -0.8587 -0.1961
vn 0.1961 -0.8587 0.4734
vn -0.4734 -0.8587 0.1961
vn -0.3827 0.0000 0.9239
vn -0.9239 0.0000 -0.3827
vn 0.9239 0.0000 -0.3827
vn 0.3827 0.0000 0.9239
vn -0.9239 0.0000 0.3827
vn -0.3827 0.0000 -0.9239
vn 0.3827 0.0000 -0.9239
vn 0.9239 0.0000 0.3827
vn 0.0000 -1.0000 0.0000
vn 0.0000 1.0000 0.0000
usemtl None
s off
f 162//1 161//1 9//1 10//1
f 161//2 163//2 16//2 9//2
f 165//3 164//3 14//3 15//3
f 167//4 166//4 12//4 13//4
f 168//5 162//5 10//5 11//5
f 163//6 165//6 15//6 16//6
f 164//7 167//7 13//7 14//7
f 166//8 168//8 11//8 12//8
f 154//9 153//9 20//9 21//9
f 156//10 155//10 18//10 19//10
f 158//11 157//11 23//11 24//11
f 159//12 154//12 21//12 22//12
f 153//13 156//13 19//13 20//13
f 155//14 160//14 17//14 18//14
f 160//15 158//15 24//15 17//15
f 157//16 159//16 22//16 23//16
f 17//17 24//17 32//17 25//17
f 23//17 22//17 30//17 31//17
f 21//17 20//17 28//17 29//17
f 19//17 18//17 26//17 27//17
f 24//17 23//17 31//17 32//17
f 22//17 21//17 29//17 30//17
f 20//17 19//17 27//17 28//17
f 18//17 17//17 25//17 26//17
f 30//18 29//18 37//18 38//18
f 28//18 27//18 35//18 36//18
f 26//18 25//18 33//18 34//18
f 25//18 32//18 40//18 33//18
f 31//18 30//18 38//18 39//18
f 29//18 28//18 36//18 37//18
f 27//18 26//18 34//18 35//18
f 32//18 31//18 39//18 40//18
f 40//11 39//11 47//11 48//11
f 38//12 37//12 45//12 46//12
f 36//13 35//13 43//13 44//13
f 34//14 33//14 41//14 42//14
f 33//15 40//15 48//15 41//15
f 39//16 38//16 46//16 47//16
f 37//9 36//9 44//9 45//9
f 35//10 34//10 42//10 43//10
f 47//17 46//17 54//17 55//17
f 45//17 44//17 52//17 53//17
f 43//17 42//17 50//17 51//17
f 48//17 47//17 55//17 56//17
f 46//17 45//17 53//17 54//17
f 44//17 43//17 51//17 52//17
f 42//17 41//17 49//17 50//17
f 41//17 48//17 56//17 49//17
f 50//14 49//14 57//14 58//14
f 49//15 56//15 64//15 57//15
f 55//16 54//16 62//16 63//16
f 53//9 52//9 60//9 61//9
f 51//10 50//10 58//10 59//10
f 56//11 55//11 63//11 64//11
f 54//12 53//12 61//12 62//12
f 52//13 51//13 59//13 60//13
f 64//17 63//17 71//17 72//17
f 62//17 61//17 69//17 70//17
f 60//17 59//17 67//17 68//17
f 58//17 57//17 65//17 66//17
f 57//17 64//17 72//17 65//17
f 63//17 62//17 70//17 71//17
f 61//17 60//17 68//17 69//17
f 59//17 58//17 66//17 67//17
f 67//10 66//10 74//10 75//10
f 72//11 71//11 79//11 80//11
f 70//12 69//12 77//12 78//12
f 68//13 67//13 75//13 76//13
f 66//14 65//14 73//14 74//14
f 65//15 72//15 80//15 73//15
f 71//16 70//16 78//16 79//16
f 69//9 68//9 76//9 77//9
f 73//18 80//18 88//18 81//18
f 79//18 78//18 86//18 87//18
f 77//18 76//18 84//18 85//18
f 75//18 74//18 82//18 83//18
f 80//18 79//18 87//18 88//18
f 78//18 77//18 85//18 86//18
f 76//18 75//18 83//18 84//18
f 74//18 73//18 81//18 82//18
f 84//13 83//13 91//13 92//13
f 82//14 81//14 89//14 90//14
f 81//15 88//15 96//15 89//15
f 87//16 86//16 94//16 95//16
f 85//9 84//9 92//9 93//9
f 83//10 82//10 90//10 91//10
f 88//11 87//11 95//11 96//11
f 86//12 85//12 93//12 94//12
f 96//18 95//18 103//18 104//18
f 94//18 93//18 101//18 102//18
f 92//18 91//18 99//18 100//18
f 90//18 89//18 97//18 98//18
f 89//18 96//18 104//18 97//18
f 95//18 94//18 102//18 103//18
f 93//18 92//18 100//18 101//18
f 91//18 90//18 98//18 99//18
f 101//9 100//9 108//9 109//9
f 99//10 98//10 106//10 107//10
f 104//11 103//11 111//11 112//11
f 102//12 101//12 109//12 110//12
f 100//13 99//13 107//13 108//13
f 98//14 97//14 105//14 106//14
f 97//15 104//15 112//15 105//15
f 103//16 102//16 110//16 111//16
f 105//17 112//17 120//17 113//17
f 111//17 110//17 118//17 119//17
f 109//17 108//17 116//17 117//17
f 107//17 106//17 114//17 115//17
f 112//17 111//17 119//17 120//17
f 110//17 109//17 117//17 118//17
f 108//17 107//17 115//17 116//17
f 106//17 105//17 113//17 114//17
f 118//18 117//18 125//18 126//18
f 116//18 115//18 123//18 124//18
f 114//18 113//18 121//18 122//18
f 113//18 120//18 128//18 121//18
f 119//18 118//18 126//18 127//18
f 117//18 116//18 124//18 125//18
f 115//18 114//18 122//18 123//18
f 120//18 119//18 127//18 128//18
f 128//11 127//11 135//11 136//11
f 126//12 125//12 133//12 134//12
f 124//13 123//13 131//13 132//13
f 122//14 121//14 129//14 130//14
f 121//15 128//15 136//15 129//15
f 127//16 126//16 134//16 135//16
f 125//9 124//9 132//9 133//9
f 123//10 122//10 130//10 131//10
f 135//17 134//17 142//17 143//17
f 133//17 132//17 140//17 141//17
f 131//17 130//17 138//17 139//17
f 136//17 135//17 143//17 144//17
f 134//17 133//17 141//17 142//17
f 132//17 131//17 139//17 140//17
f 130//17 129//17 137//17 138//17
f 129//17 136//17 144//17 137//17
f 138//14 137//14 145//14 146//14
f 137//15 144//15 152//15 145//15
f 143//16 142//16 150//16 151//16
f 141//9 140//9 148//9 149//9
f 139//10 138//10 146//10 147//10
f 144//11 143//11 151//11 152//11
f 142//12 141//12 149//12 150//12
f 140//13 139//13 147//13 148//13
f 15//16 14//16 159//16 157//16
f 9//15 16//15 158//15 160//15
f 10//14 9//14 160//14 155//14
f 12//13 11//13 156//13 153//13
f 14//12 13//12 154//12 159//12
f 16//11 15//11 157//11 158//11
f 11//10 10//10 155//10 156//10
f 13//9 12//9 153//9 154//9
f 4//17 3//17 168//17 166//17
f 6//17 5//17 167//17 164//17
f 8//17 7//17 165//17 163//17
f 3//17 2//17 162//17 168//17
f 5//17 4//17 166//17 167//17
f 7//17 6//17 164//17 165//17
f 1//17 8//17 163//17 161//17
f 2//17 1//17 161//17 162//17
