# Blender v2.79 (sub 0) OBJ File: ''
# www.blender.org
mtllib 893145-A-LP.mtl
o Circle_Circle.002
v -0.246891 0.135051 0.751245
v -0.437566 0.135051 0.751245
v -0.437566 0.135051 0.941921
v -0.437566 0.135051 1.132596
v -0.246891 0.135051 1.132596
v -0.056216 0.135051 1.132596
v -0.056216 0.135051 0.941921
v -0.056216 0.135051 0.751245
v -0.246891 0.135051 0.695991
v -0.420789 0.135051 0.768022
v -0.492820 0.135051 0.941921
v -0.420789 0.135051 1.115819
v -0.246891 0.135051 1.187850
v -0.072993 0.135051 1.115819
v -0.000962 0.135051 0.941921
v -0.072993 0.135051 0.768022
v -0.246891 0.146124 0.695991
v -0.420789 0.146124 0.768022
v -0.492820 0.146124 0.941921
v -0.420789 0.146124 1.115819
v -0.246891 0.146124 1.187850
v -0.072993 0.146124 1.115819
v -0.000962 0.146124 0.941921
v -0.072993 0.146124 0.768022
v -0.246891 0.146124 0.702396
v -0.416261 0.146124 0.772551
v -0.486416 0.146124 0.941921
v -0.416261 0.146124 1.111290
v -0.246891 0.146124 1.181445
v -0.077521 0.146124 1.111290
v -0.007366 0.146124 0.941921
v -0.077521 0.146124 0.772551
v -0.246891 0.151116 0.702396
v -0.416261 0.151116 0.772551
v -0.486416 0.151116 0.941921
v -0.416261 0.151116 1.111290
v -0.246891 0.151116 1.181445
v -0.077521 0.151116 1.111290
v -0.007366 0.151116 0.941921
v -0.077521 0.151116 0.772551
v -0.246891 0.151116 0.717299
v -0.405722 0.151116 0.783089
v -0.471512 0.151116 0.941921
v -0.405722 0.151116 1.100752
v -0.246891 0.151116 1.166542
v -0.088059 0.151116 1.100752
v -0.022269 0.151116 0.941921
v -0.088059 0.151116 0.783089
v -0.246891 0.173210 0.717299
v -0.405722 0.173210 0.783089
v -0.471512 0.173210 0.941921
v -0.405722 0.173210 1.100752
v -0.246891 0.173210 1.166542
v -0.088059 0.173210 1.100752
v -0.022269 0.173210 0.941921
v -0.088059 0.173210 0.783089
v -0.246891 0.173210 0.730755
v -0.396208 0.173210 0.792604
v -0.458057 0.173210 0.941921
v -0.396208 0.173210 1.091238
v -0.246891 0.173210 1.153087
v -0.097574 0.173210 1.091237
v -0.035725 0.173210 0.941921
v -0.097574 0.173210 0.792604
v -0.246891 0.176501 0.730755
v -0.396208 0.176501 0.792604
v -0.458057 0.176501 0.941921
v -0.396208 0.176501 1.091238
v -0.246891 0.176501 1.153087
v -0.097574 0.176501 1.091237
v -0.035725 0.176501 0.941921
v -0.097574 0.176501 0.792604
v -0.246891 0.176501 0.754410
v -0.379481 0.176501 0.809331
v -0.434401 0.176501 0.941921
v -0.379481 0.176501 1.074510
v -0.246891 0.176501 1.129431
v -0.114301 0.176501 1.074510
v -0.059380 0.176501 0.941921
v -0.114301 0.176501 0.809331
v -0.246891 0.189631 0.791024
v -0.397788 0.189631 0.791024
v -0.397788 0.189631 0.941921
v -0.397788 0.189631 1.092817
v -0.246891 0.189631 1.092817
v -0.095994 0.189631 1.092817
v -0.095994 0.189631 0.941921
v -0.095994 0.189631 0.791024
v -0.246891 0.586087 0.791024
v -0.397788 0.586087 0.791024
v -0.397788 0.586087 0.941921
v -0.397788 0.586087 1.092817
v -0.246891 0.586087 1.092817
v -0.095994 0.586087 1.092817
v -0.095994 0.586087 0.941921
v -0.095994 0.586087 0.791024
v -0.095994 0.197037 0.791024
v -0.246891 0.197037 0.791024
v -0.095994 0.197037 1.092817
v -0.095994 0.197037 0.941921
v -0.397788 0.197037 1.092817
v -0.246891 0.197037 1.092817
v -0.397788 0.197037 0.791024
v -0.397788 0.197037 0.941921
v -0.246891 0.586087 0.776419
v -0.412393 0.586087 0.776419
v -0.412393 0.586087 0.941921
v -0.412393 0.586087 1.107423
v -0.246891 0.586087 1.107423
v -0.081389 0.586087 1.107423
v -0.081389 0.586087 0.941921
v -0.081389 0.586087 0.776419
v -0.246891 0.596923 0.776419
v -0.412393 0.596923 0.776419
v -0.412393 0.596923 0.941921
v -0.412393 0.596923 1.107423
v -0.246891 0.596923 1.107423
v -0.081389 0.596923 1.107423
v -0.081389 0.596923 0.941921
v -0.081389 0.596923 0.776419
v -0.246891 0.596923 0.764739
v -0.424072 0.596923 0.764739
v -0.424072 0.596923 0.941921
v -0.424072 0.596923 1.119102
v -0.246891 0.596923 1.119102
v -0.069709 0.596923 1.119102
v -0.069709 0.596923 0.941921
v -0.069709 0.596923 0.764739
v -0.246891 0.602252 0.764739
v -0.424072 0.602252 0.764739
v -0.424072 0.602252 0.941921
v -0.424072 0.602252 1.119102
v -0.246891 0.602252 1.119102
v -0.069709 0.602252 1.119102
v -0.069709 0.602252 0.941921
v -0.069709 0.602252 0.764739
v -0.246891 0.602252 0.768009
v -0.420802 0.602252 0.768009
v -0.420802 0.602252 0.941921
v -0.420802 0.602252 1.115832
v -0.246891 0.602252 1.115832
v -0.072979 0.602252 1.115832
v -0.072979 0.602252 0.941921
v -0.072979 0.602252 0.768009
v -0.246891 0.619921 0.768009
v -0.420802 0.619921 0.768009
v -0.420802 0.619921 0.941921
v -0.420802 0.619921 1.115832
v -0.246891 0.619921 1.115832
v -0.072979 0.619921 1.115832
v -0.072979 0.619921 0.941921
v -0.072979 0.619921 0.768009
v -0.246891 0.619921 0.737710
v -0.451102 0.619921 0.737710
v -0.451102 0.619921 0.941921
v -0.451102 0.619921 1.146131
v -0.246891 0.619921 1.146131
v -0.042680 0.619921 1.146131
v -0.042680 0.619921 0.941921
v -0.042680 0.619921 0.737710
v -0.246891 0.623416 0.737710
v -0.451102 0.623416 0.737710
v -0.451102 0.623416 0.941921
v -0.451102 0.623416 1.146131
v -0.246891 0.623416 1.146131
v -0.042680 0.623416 1.146131
v -0.042680 0.623416 0.941921
v -0.042680 0.623416 0.737710
v -0.246891 0.628851 0.737710
v -0.451102 0.628851 0.737710
v -0.451102 0.628851 0.941921
v -0.451102 0.628851 1.146131
v -0.246891 0.628851 1.146131
v -0.042680 0.628851 1.146131
v -0.042680 0.628851 0.941921
v -0.042680 0.628851 0.737710
v -0.246891 0.628851 0.736031
v -0.452781 0.628851 0.736031
v -0.452781 0.628851 0.941921
v -0.452781 0.628851 1.147811
v -0.246891 0.628851 1.147811
v -0.041001 0.628851 1.147811
v -0.041001 0.628851 0.941921
v -0.041001 0.628851 0.736031
v -0.246891 0.642729 0.736031
v -0.452781 0.642729 0.736031
v -0.452781 0.642729 0.941921
v -0.452781 0.642729 1.147811
v -0.246891 0.642729 1.147811
v -0.041001 0.642729 1.147811
v -0.041001 0.642729 0.941921
v -0.041001 0.642729 0.736031
v -0.246891 0.642729 0.732117
v -0.456694 0.642729 0.732117
v -0.456694 0.642729 0.941921
v -0.456694 0.642729 1.151724
v -0.246891 0.642729 1.151724
v -0.037087 0.642729 1.151724
v -0.037087 0.642729 0.941921
v -0.037087 0.642729 0.732117
v -0.246891 0.656520 0.732117
v -0.456694 0.656520 0.732117
v -0.456694 0.656520 0.941921
v -0.456694 0.656520 1.151724
v -0.246891 0.656520 1.151724
v -0.037087 0.656520 1.151724
v -0.037087 0.656520 0.941921
v -0.037087 0.656520 0.732117
v -0.246891 0.656520 0.719504
v -0.469307 0.656520 0.719504
v -0.469307 0.656520 0.941921
v -0.469307 0.656520 1.164337
v -0.246891 0.656520 1.164337
v -0.024475 0.656520 1.164337
v -0.024475 0.656520 0.941921
v -0.024475 0.656520 0.719504
v -0.246891 0.666678 0.719504
v -0.469307 0.666678 0.719504
v -0.469307 0.666678 0.941921
v -0.469307 0.666678 1.164337
v -0.246891 0.666678 1.164337
v -0.024475 0.666678 1.164337
v -0.024475 0.666678 0.941921
v -0.024475 0.666678 0.719504
v -0.246891 0.666678 0.740278
v -0.448534 0.666678 0.740278
v -0.448534 0.666678 0.941921
v -0.448534 0.666678 1.143564
v -0.246891 0.666678 1.143564
v -0.045248 0.666678 1.143564
v -0.045248 0.666678 0.941921
v -0.045248 0.666678 0.740278
v -0.246891 0.666678 0.767500
v -0.421312 0.666678 0.767500
v -0.421312 0.666678 0.941921
v -0.421312 0.666678 1.116342
v -0.246891 0.666678 1.116342
v -0.072470 0.666678 1.116342
v -0.072470 0.666678 0.941921
v -0.072470 0.666678 0.767500
v -0.246891 0.708365 0.767500
v -0.421312 0.708365 0.767500
v -0.421312 0.708365 0.941921
v -0.421312 0.708365 1.116342
v -0.246891 0.708365 1.116342
v -0.072470 0.708365 1.116342
v -0.072470 0.708365 0.941921
v -0.072470 0.708365 0.767500
v -0.246891 0.023518 0.751245
v -0.437566 0.023518 0.751245
v -0.437566 0.023518 0.941921
v -0.437566 0.023518 1.132596
v -0.246891 0.023518 1.132596
v -0.056216 0.023518 1.132596
v -0.056216 0.023518 0.941921
v -0.056216 0.023518 0.751245
v -0.246891 0.125910 0.751245
v -0.056216 0.125910 0.751245
v -0.056216 0.125910 0.941921
v -0.056216 0.125910 1.132596
v -0.246891 0.125910 1.132596
v -0.437566 0.125910 1.132596
v -0.437566 0.125910 0.941921
v -0.437566 0.125910 0.751245
v -0.067565 0.135051 1.132596
v -0.083344 0.135051 1.120106
v -0.083344 0.146124 1.120106
v -0.087603 0.146124 1.115466
v -0.087603 0.151116 1.115466
v -0.097514 0.151116 1.104668
v -0.097514 0.173210 1.104668
v -0.106462 0.173210 1.094919
v -0.106462 0.176501 1.094919
v -0.122193 0.176501 1.077780
v -0.104976 0.189631 1.092817
v -0.104976 0.586087 1.092817
v -0.104976 0.197037 1.092817
v -0.091240 0.586087 1.107423
v -0.091240 0.596923 1.107423
v -0.080256 0.596923 1.119102
v -0.080256 0.602252 1.119102
v -0.083331 0.602252 1.115832
v -0.083331 0.619921 1.115832
v -0.054836 0.619921 1.146131
v -0.054836 0.623416 1.146131
v -0.054836 0.628851 1.146131
v -0.053256 0.628851 1.147811
v -0.053256 0.642729 1.147811
v -0.049576 0.642729 1.151724
v -0.049576 0.656520 1.151724
v -0.037714 0.656520 1.164337
v -0.037714 0.666678 1.164337
v -0.057250 0.666678 1.143564
v -0.082852 0.666678 1.116342
v -0.082852 0.708365 1.116342
v -0.067565 0.023518 1.132596
v -0.067565 0.125910 1.132596
v -0.429797 0.135051 1.132596
v -0.413703 0.135051 1.118754
v -0.413703 0.146124 1.118754
v -0.409359 0.146124 1.114149
v -0.409359 0.151116 1.114149
v -0.399250 0.151116 1.103433
v -0.399250 0.173210 1.103433
v -0.390123 0.173210 1.093758
v -0.390123 0.176501 1.093758
v -0.374078 0.176501 1.076748
v -0.391639 0.189631 1.092817
v -0.391639 0.586087 1.092817
v -0.391639 0.197037 1.092817
v -0.405649 0.586087 1.107423
v -0.405649 0.596923 1.107423
v -0.416853 0.596923 1.119102
v -0.416853 0.602252 1.119102
v -0.413716 0.602252 1.115832
v -0.413716 0.619921 1.115832
v -0.442780 0.619921 1.146131
v -0.442780 0.623416 1.146131
v -0.442780 0.628851 1.146131
v -0.444391 0.628851 1.147811
v -0.444391 0.642729 1.147811
v -0.448145 0.642729 1.151724
v -0.448145 0.656520 1.151724
v -0.460244 0.656520 1.164337
v -0.460244 0.666678 1.164337
v -0.440317 0.666678 1.143564
v -0.414205 0.666678 1.116342
v -0.414205 0.708365 1.116342
v -0.429797 0.023518 1.132596
v -0.429797 0.125910 1.132596
v -0.056216 0.135051 0.758282
v -0.070334 0.135051 0.774440
v -0.070334 0.146124 0.774440
v -0.074932 0.146124 0.778802
v -0.074932 0.151116 0.778802
v -0.085631 0.151116 0.788951
v -0.085631 0.173210 0.788951
v -0.095291 0.173210 0.798114
v -0.095291 0.176501 0.798114
v -0.112274 0.176501 0.814224
v -0.095994 0.189631 0.796593
v -0.095994 0.586087 0.796593
v -0.095994 0.197037 0.796593
v -0.081389 0.586087 0.782526
v -0.081389 0.596923 0.782526
v -0.069709 0.596923 0.771278
v -0.069709 0.602252 0.771278
v -0.072979 0.602252 0.774427
v -0.072979 0.619921 0.774427
v -0.042680 0.619921 0.745246
v -0.042680 0.623416 0.745246
v -0.042680 0.628851 0.745246
v -0.041001 0.628851 0.743629
v -0.041001 0.642729 0.743629
v -0.037087 0.642729 0.739860
v -0.037087 0.656520 0.739860
v -0.024475 0.656520 0.727713
v -0.024475 0.666678 0.727713
v -0.045248 0.666678 0.747719
v -0.072470 0.666678 0.773937
v -0.072470 0.708365 0.773937
v -0.056216 0.023518 0.758282
v -0.056216 0.125910 0.758282
v -0.429490 0.135051 0.751245
v -0.413424 0.135051 0.764972
v -0.413424 0.146124 0.764972
v -0.409087 0.146124 0.769580
v -0.409087 0.151116 0.769580
v -0.398995 0.151116 0.780303
v -0.398995 0.173210 0.780303
v -0.389884 0.173210 0.789984
v -0.389884 0.176501 0.789984
v -0.373865 0.176501 0.807005
v -0.391397 0.189631 0.791024
v -0.391397 0.586087 0.791024
v -0.391397 0.197037 0.791024
v -0.405383 0.586087 0.776419
v -0.405383 0.596923 0.776419
v -0.416568 0.596923 0.764739
v -0.416568 0.602252 0.764739
v -0.413437 0.602252 0.768009
v -0.413437 0.619921 0.768009
v -0.442453 0.619921 0.737710
v -0.442453 0.623416 0.737710
v -0.442453 0.628851 0.737710
v -0.444061 0.628851 0.736031
v -0.444061 0.642729 0.736031
v -0.447809 0.642729 0.732117
v -0.447809 0.656520 0.732117
v -0.459887 0.656520 0.719504
v -0.459887 0.666678 0.719504
v -0.439994 0.666678 0.740278
v -0.413925 0.666678 0.767500
v -0.413925 0.708365 0.767500
v -0.429490 0.023518 0.751245
v -0.429490 0.125910 0.751245
vn 0.0000 -1.0000 0.0000
vn 0.0000 1.0000 0.0000
vn 0.9239 0.0000 -0.3827
vn 0.3827 0.0000 0.9239
vn -0.9239 0.0000 0.3827
vn -0.3827 0.0000 -0.9239
vn 0.3827 0.0000 -0.9239
vn 0.9239 0.0000 0.3827
vn -0.3827 0.0000 0.9239
vn -0.9239 0.0000 -0.3827
vn -0.1601 0.5396 0.8266
vn -0.8596 0.4831 -0.1665
vn 0.5314 -0.8408 -0.1030
vn 0.1053 -0.8327 0.5436
vn -0.8596 0.4831 0.1665
vn -0.1035 -0.8389 -0.5343
vn 0.1665 0.4831 -0.8596
vn 0.8596 0.4831 0.1665
vn 0.0000 0.0000 -1.0000
vn 1.0000 0.0000 0.0000
vn 0.0000 0.0000 1.0000
vn -1.0000 0.0000 0.0000
vn 0.1571 0.5634 0.8111
vn -0.1033 -0.8395 0.5335
vn 0.8297 0.5345 -0.1607
vn -0.1599 0.5417 -0.8252
usemtl None
s off
f 8//1 1//1 9//1 16//1
f 6//1 7//1 15//1 14//1
f 298//1 5//1 13//1 299//1
f 2//1 3//1 11//1 10//1
f 331//2 8//2 16//2 332//2
f 265//2 6//2 14//2 266//2
f 3//1 4//1 12//1 11//1
f 364//2 2//2 10//2 365//2
f 332//3 16//3 24//3 333//3
f 266//4 14//4 22//4 267//4
f 11//5 12//5 20//5 19//5
f 365//6 10//6 18//6 366//6
f 16//7 9//7 17//7 24//7
f 14//8 15//8 23//8 22//8
f 299//9 13//9 21//9 300//9
f 10//10 11//10 19//10 18//10
f 22//2 23//2 31//2 30//2
f 300//2 21//2 29//2 301//2
f 18//2 19//2 27//2 26//2
f 333//2 24//2 32//2 334//2
f 267//2 22//2 30//2 268//2
f 19//2 20//2 28//2 27//2
f 366//2 18//2 26//2 367//2
f 24//2 17//2 25//2 32//2
f 367//6 26//6 34//6 368//6
f 32//7 25//7 33//7 40//7
f 30//8 31//8 39//8 38//8
f 301//9 29//9 37//9 302//9
f 26//10 27//10 35//10 34//10
f 334//3 32//3 40//3 335//3
f 268//4 30//4 38//4 269//4
f 27//5 28//5 36//5 35//5
f 335//2 40//2 48//2 336//2
f 269//2 38//2 46//2 270//2
f 35//2 36//2 44//2 43//2
f 368//2 34//2 42//2 369//2
f 40//2 33//2 41//2 48//2
f 38//2 39//2 47//2 46//2
f 302//2 37//2 45//2 303//2
f 34//2 35//2 43//2 42//2
f 42//10 43//10 51//10 50//10
f 336//3 48//3 56//3 337//3
f 270//4 46//4 54//4 271//4
f 43//5 44//5 52//5 51//5
f 369//6 42//6 50//6 370//6
f 48//7 41//7 49//7 56//7
f 46//8 47//8 55//8 54//8
f 303//9 45//9 53//9 304//9
f 56//2 49//2 57//2 64//2
f 54//2 55//2 63//2 62//2
f 304//2 53//2 61//2 305//2
f 50//2 51//2 59//2 58//2
f 337//2 56//2 64//2 338//2
f 271//2 54//2 62//2 272//2
f 51//2 52//2 60//2 59//2
f 370//2 50//2 58//2 371//2
f 59//5 60//5 68//5 67//5
f 371//6 58//6 66//6 372//6
f 64//7 57//7 65//7 72//7
f 62//8 63//8 71//8 70//8
f 305//9 61//9 69//9 306//9
f 58//10 59//10 67//10 66//10
f 338//3 64//3 72//3 339//3
f 272//4 62//4 70//4 273//4
f 339//2 72//2 80//2 340//2
f 273//2 70//2 78//2 274//2
f 67//2 68//2 76//2 75//2
f 372//2 66//2 74//2 373//2
f 72//2 65//2 73//2 80//2
f 70//2 71//2 79//2 78//2
f 306//2 69//2 77//2 307//2
f 66//2 67//2 75//2 74//2
f 307//11 77//11 85//11 308//11
f 74//12 75//12 83//12 82//12
f 340//13 80//13 88//13 341//13
f 274//14 78//14 86//14 275//14
f 75//15 76//15 84//15 83//15
f 373//16 74//16 82//16 374//16
f 80//17 73//17 81//17 88//17
f 78//18 79//18 87//18 86//18
f 97//19 98//19 89//19 96//19
f 99//20 100//20 95//20 94//20
f 310//21 102//21 93//21 309//21
f 103//22 104//22 91//22 90//22
f 343//20 97//20 96//20 342//20
f 277//21 99//21 94//21 276//21
f 104//22 101//22 92//22 91//22
f 376//19 103//19 90//19 375//19
f 374//19 82//19 103//19 376//19
f 83//22 84//22 101//22 104//22
f 275//21 86//21 99//21 277//21
f 341//20 88//20 97//20 343//20
f 82//22 83//22 104//22 103//22
f 308//21 85//21 102//21 310//21
f 86//20 87//20 100//20 99//20
f 88//19 81//19 98//19 97//19
f 91//1 92//1 108//1 107//1
f 375//1 90//1 106//1 377//1
f 96//1 89//1 105//1 112//1
f 94//1 95//1 111//1 110//1
f 309//1 93//1 109//1 311//1
f 90//1 91//1 107//1 106//1
f 342//1 96//1 112//1 344//1
f 276//1 94//1 110//1 278//1
f 311//21 109//21 117//21 312//21
f 106//22 107//22 115//22 114//22
f 344//20 112//20 120//20 345//20
f 278//21 110//21 118//21 279//21
f 107//22 108//22 116//22 115//22
f 377//19 106//19 114//19 378//19
f 112//19 105//19 113//19 120//19
f 110//20 111//20 119//20 118//20
f 120//1 113//1 121//1 128//1
f 118//1 119//1 127//1 126//1
f 312//1 117//1 125//1 313//1
f 114//1 115//1 123//1 122//1
f 345//1 120//1 128//1 346//1
f 279//1 118//1 126//1 280//1
f 115//1 116//1 124//1 123//1
f 378//1 114//1 122//1 379//1
f 280//21 126//21 134//21 281//21
f 123//22 124//22 132//22 131//22
f 379//19 122//19 130//19 380//19
f 128//19 121//19 129//19 136//19
f 126//20 127//20 135//20 134//20
f 313//21 125//21 133//21 314//21
f 122//22 123//22 131//22 130//22
f 346//20 128//20 136//20 347//20
f 347//2 136//2 144//2 348//2
f 281//2 134//2 142//2 282//2
f 131//2 132//2 140//2 139//2
f 380//2 130//2 138//2 381//2
f 136//2 129//2 137//2 144//2
f 134//2 135//2 143//2 142//2
f 314//2 133//2 141//2 315//2
f 130//2 131//2 139//2 138//2
f 142//20 143//20 151//20 150//20
f 315//21 141//21 149//21 316//21
f 138//22 139//22 147//22 146//22
f 348//20 144//20 152//20 349//20
f 282//21 142//21 150//21 283//21
f 139//22 140//22 148//22 147//22
f 381//19 138//19 146//19 382//19
f 144//19 137//19 145//19 152//19
f 382//1 146//1 154//1 383//1
f 152//1 145//1 153//1 160//1
f 150//1 151//1 159//1 158//1
f 316//1 149//1 157//1 317//1
f 146//1 147//1 155//1 154//1
f 349//1 152//1 160//1 350//1
f 283//1 150//1 158//1 284//1
f 147//1 148//1 156//1 155//1
f 350//20 160//20 168//20 351//20
f 284//21 158//21 166//21 285//21
f 155//22 156//22 164//22 163//22
f 383//19 154//19 162//19 384//19
f 160//19 153//19 161//19 168//19
f 158//20 159//20 167//20 166//20
f 317//21 157//21 165//21 318//21
f 154//22 155//22 163//22 162//22
f 162//22 163//22 171//22 170//22
f 351//20 168//20 176//20 352//20
f 285//21 166//21 174//21 286//21
f 163//22 164//22 172//22 171//22
f 384//19 162//19 170//19 385//19
f 168//19 161//19 169//19 176//19
f 166//20 167//20 175//20 174//20
f 318//21 165//21 173//21 319//21
f 176//1 169//1 177//1 184//1
f 174//1 175//1 183//1 182//1
f 319//1 173//1 181//1 320//1
f 170//1 171//1 179//1 178//1
f 352//1 176//1 184//1 353//1
f 286//1 174//1 182//1 287//1
f 171//1 172//1 180//1 179//1
f 385//1 170//1 178//1 386//1
f 179//22 180//22 188//22 187//22
f 386//19 178//19 186//19 387//19
f 184//19 177//19 185//19 192//19
f 182//20 183//20 191//20 190//20
f 320//21 181//21 189//21 321//21
f 178//22 179//22 187//22 186//22
f 353//20 184//20 192//20 354//20
f 287//21 182//21 190//21 288//21
f 354//1 192//1 200//1 355//1
f 288//1 190//1 198//1 289//1
f 187//1 188//1 196//1 195//1
f 387//1 186//1 194//1 388//1
f 192//1 185//1 193//1 200//1
f 190//1 191//1 199//1 198//1
f 321//1 189//1 197//1 322//1
f 186//1 187//1 195//1 194//1
f 322//21 197//21 205//21 323//21
f 194//22 195//22 203//22 202//22
f 355//20 200//20 208//20 356//20
f 289//21 198//21 206//21 290//21
f 195//22 196//22 204//22 203//22
f 388//19 194//19 202//19 389//19
f 200//19 193//19 201//19 208//19
f 198//20 199//20 207//20 206//20
f 208//1 201//1 209//1 216//1
f 206//1 207//1 215//1 214//1
f 323//1 205//1 213//1 324//1
f 202//1 203//1 211//1 210//1
f 356//1 208//1 216//1 357//1
f 290//1 206//1 214//1 291//1
f 203//1 204//1 212//1 211//1
f 389//1 202//1 210//1 390//1
f 291//21 214//21 222//21 292//21
f 211//22 212//22 220//22 219//22
f 390//19 210//19 218//19 391//19
f 216//19 209//19 217//19 224//19
f 214//20 215//20 223//20 222//20
f 324//21 213//21 221//21 325//21
f 210//22 211//22 219//22 218//22
f 357//20 216//20 224//20 358//20
f 358//2 224//2 232//2 359//2
f 292//2 222//2 230//2 293//2
f 219//2 220//2 228//2 227//2
f 391//2 218//2 226//2 392//2
f 224//2 217//2 225//2 232//2
f 222//2 223//2 231//2 230//2
f 325//2 221//2 229//2 326//2
f 218//2 219//2 227//2 226//2
f 230//2 231//2 239//2 238//2
f 326//2 229//2 237//2 327//2
f 226//2 227//2 235//2 234//2
f 359//2 232//2 240//2 360//2
f 293//2 230//2 238//2 294//2
f 227//2 228//2 236//2 235//2
f 392//2 226//2 234//2 393//2
f 232//2 225//2 233//2 240//2
f 393//19 234//19 242//19 394//19
f 240//19 233//19 241//19 248//19
f 238//20 239//20 247//20 246//20
f 327//21 237//21 245//21 328//21
f 234//22 235//22 243//22 242//22
f 360//20 240//20 248//20 361//20
f 294//21 238//21 246//21 295//21
f 235//22 236//22 244//22 243//22
f 257//19 258//19 256//19 249//19
f 259//20 260//20 254//20 255//20
f 330//21 262//21 252//21 329//21
f 263//22 264//22 250//22 251//22
f 363//20 259//20 255//20 362//20
f 297//21 261//21 253//21 296//21
f 262//22 263//22 251//22 252//22
f 396//19 257//19 249//19 395//19
f 364//19 1//19 257//19 396//19
f 4//22 3//22 263//22 262//22
f 265//21 5//21 261//21 297//21
f 331//20 7//20 259//20 363//20
f 3//22 2//22 264//22 263//22
f 298//21 4//21 262//21 330//21
f 7//20 6//20 260//20 259//20
f 1//19 8//19 258//19 257//19
f 6//21 265//21 297//21 260//21
f 260//21 297//21 296//21 254//21
f 237//21 294//21 295//21 245//21
f 229//2 293//2 294//2 237//2
f 221//2 292//2 293//2 229//2
f 213//21 291//21 292//21 221//21
f 205//1 290//1 291//1 213//1
f 197//21 289//21 290//21 205//21
f 189//1 288//1 289//1 197//1
f 181//21 287//21 288//21 189//21
f 173//1 286//1 287//1 181//1
f 165//21 285//21 286//21 173//21
f 157//21 284//21 285//21 165//21
f 149//1 283//1 284//1 157//1
f 141//21 282//21 283//21 149//21
f 133//2 281//2 282//2 141//2
f 125//21 280//21 281//21 133//21
f 117//1 279//1 280//1 125//1
f 109//21 278//21 279//21 117//21
f 93//1 276//1 278//1 109//1
f 85//21 275//21 277//21 102//21
f 102//21 277//21 276//21 93//21
f 77//23 274//23 275//23 85//23
f 69//2 273//2 274//2 77//2
f 61//4 272//4 273//4 69//4
f 53//2 271//2 272//2 61//2
f 45//4 270//4 271//4 53//4
f 37//2 269//2 270//2 45//2
f 29//4 268//4 269//4 37//4
f 21//2 267//2 268//2 29//2
f 13//4 266//4 267//4 21//4
f 5//1 265//1 266//1 13//1
f 5//21 298//21 330//21 261//21
f 261//21 330//21 329//21 253//21
f 236//21 327//21 328//21 244//21
f 228//2 326//2 327//2 236//2
f 220//2 325//2 326//2 228//2
f 212//21 324//21 325//21 220//21
f 204//1 323//1 324//1 212//1
f 196//21 322//21 323//21 204//21
f 188//1 321//1 322//1 196//1
f 180//21 320//21 321//21 188//21
f 172//1 319//1 320//1 180//1
f 164//21 318//21 319//21 172//21
f 156//21 317//21 318//21 164//21
f 148//1 316//1 317//1 156//1
f 140//21 315//21 316//21 148//21
f 132//2 314//2 315//2 140//2
f 124//21 313//21 314//21 132//21
f 116//1 312//1 313//1 124//1
f 108//21 311//21 312//21 116//21
f 92//1 309//1 311//1 108//1
f 84//21 308//21 310//21 101//21
f 101//21 310//21 309//21 92//21
f 76//24 307//24 308//24 84//24
f 68//2 306//2 307//2 76//2
f 60//9 305//9 306//9 68//9
f 52//2 304//2 305//2 60//2
f 44//9 303//9 304//9 52//9
f 36//2 302//2 303//2 44//2
f 28//9 301//9 302//9 36//9
f 20//2 300//2 301//2 28//2
f 12//9 299//9 300//9 20//9
f 4//2 298//2 299//2 12//2
f 8//20 331//20 363//20 258//20
f 258//20 363//20 362//20 256//20
f 239//20 360//20 361//20 247//20
f 231//2 359//2 360//2 239//2
f 223//2 358//2 359//2 231//2
f 215//20 357//20 358//20 223//20
f 207//1 356//1 357//1 215//1
f 199//20 355//20 356//20 207//20
f 191//1 354//1 355//1 199//1
f 183//20 353//20 354//20 191//20
f 175//1 352//1 353//1 183//1
f 167//20 351//20 352//20 175//20
f 159//20 350//20 351//20 167//20
f 151//1 349//1 350//1 159//1
f 143//20 348//20 349//20 151//20
f 135//2 347//2 348//2 143//2
f 127//20 346//20 347//20 135//20
f 119//1 345//1 346//1 127//1
f 111//20 344//20 345//20 119//20
f 95//1 342//1 344//1 111//1
f 87//20 341//20 343//20 100//20
f 100//20 343//20 342//20 95//20
f 79//25 340//25 341//25 87//25
f 71//2 339//2 340//2 79//2
f 63//3 338//3 339//3 71//3
f 55//2 337//2 338//2 63//2
f 47//3 336//3 337//3 55//3
f 39//2 335//2 336//2 47//2
f 31//3 334//3 335//3 39//3
f 23//2 333//2 334//2 31//2
f 15//3 332//3 333//3 23//3
f 7//1 331//1 332//1 15//1
f 2//19 364//19 396//19 264//19
f 264//19 396//19 395//19 250//19
f 233//19 393//19 394//19 241//19
f 225//2 392//2 393//2 233//2
f 217//2 391//2 392//2 225//2
f 209//19 390//19 391//19 217//19
f 201//1 389//1 390//1 209//1
f 193//19 388//19 389//19 201//19
f 185//1 387//1 388//1 193//1
f 177//19 386//19 387//19 185//19
f 169//1 385//1 386//1 177//1
f 161//19 384//19 385//19 169//19
f 153//19 383//19 384//19 161//19
f 145//1 382//1 383//1 153//1
f 137//19 381//19 382//19 145//19
f 129//2 380//2 381//2 137//2
f 121//19 379//19 380//19 129//19
f 113//1 378//1 379//1 121//1
f 105//19 377//19 378//19 113//19
f 89//1 375//1 377//1 105//1
f 81//19 374//19 376//19 98//19
f 98//19 376//19 375//19 89//19
f 73//26 373//26 374//26 81//26
f 65//2 372//2 373//2 73//2
f 57//6 371//6 372//6 65//6
f 49//2 370//2 371//2 57//2
f 41//6 369//6 370//6 49//6
f 33//2 368//2 369//2 41//2
f 25//6 367//6 368//6 33//6
f 17//2 366//2 367//2 25//2
f 9//6 365//6 366//6 17//6
f 1//1 364//1 365//1 9//1
