# Blender v2.79 (sub 0) OBJ File: ''
# www.blender.org
mtllib 893145-B-LP.mtl
o Circle_Circle.001
v 0.477407 0.712491 0.606205
v 0.353460 0.712491 0.657545
v 0.302120 0.712491 0.781492
v 0.353460 0.712491 0.905439
v 0.477407 0.712491 0.956779
v 0.601354 0.712491 0.905439
v 0.652694 0.712491 0.781492
v 0.601354 0.712491 0.657545
v 0.477407 0.712491 0.587245
v 0.340054 0.712491 0.644139
v 0.283161 0.712491 0.781492
v 0.340054 0.712491 0.918845
v 0.477407 0.712491 0.975739
v 0.614760 0.712491 0.918845
v 0.671654 0.712491 0.781492
v 0.614760 0.712491 0.644139
v 0.477407 0.744374 0.587245
v 0.340054 0.744374 0.644139
v 0.283161 0.744374 0.781492
v 0.340054 0.744374 0.918845
v 0.477407 0.744374 0.975739
v 0.614760 0.744374 0.918845
v 0.671654 0.744374 0.781492
v 0.614760 0.744374 0.644139
v 0.477407 0.744374 0.615877
v 0.360300 0.744374 0.664385
v 0.311792 0.744374 0.781492
v 0.360300 0.744374 0.898599
v 0.477407 0.744374 0.947107
v 0.594514 0.744374 0.898599
v 0.643022 0.744374 0.781492
v 0.594514 0.744374 0.664385
v 0.477407 0.749526 0.615877
v 0.360300 0.749526 0.664385
v 0.311792 0.749526 0.781492
v 0.360300 0.749526 0.898599
v 0.477407 0.749526 0.947107
v 0.594514 0.749526 0.898599
v 0.643022 0.749526 0.781492
v 0.594514 0.749526 0.664385
v 0.477407 0.749526 0.626413
v 0.367750 0.749526 0.671835
v 0.322329 0.749526 0.781492
v 0.367750 0.749526 0.891149
v 0.477407 0.749526 0.936571
v 0.587064 0.749526 0.891149
v 0.632486 0.749526 0.781492
v 0.587064 0.749526 0.671835
v 0.477407 0.765721 0.626413
v 0.367750 0.765721 0.671835
v 0.322329 0.765721 0.781492
v 0.367750 0.765721 0.891149
v 0.477407 0.765721 0.936571
v 0.587064 0.765721 0.891149
v 0.632486 0.765721 0.781492
v 0.587064 0.765721 0.671835
v 0.477407 0.765721 0.617124
v 0.361181 0.765721 0.665266
v 0.313039 0.765721 0.781492
v 0.361181 0.765721 0.897718
v 0.477407 0.765721 0.945860
v 0.593633 0.765721 0.897718
v 0.641776 0.765721 0.781492
v 0.593633 0.765721 0.665266
v 0.477407 0.772332 0.617124
v 0.361181 0.772332 0.665266
v 0.313039 0.772332 0.781492
v 0.361181 0.772332 0.897718
v 0.477407 0.772332 0.945860
v 0.593633 0.772332 0.897718
v 0.641776 0.772332 0.781492
v 0.593633 0.772332 0.665266
v 0.477407 0.772332 0.601285
v 0.349982 0.772332 0.654066
v 0.297200 0.772332 0.781492
v 0.349982 0.772332 0.908918
v 0.477407 0.772332 0.961699
v 0.604833 0.772332 0.908918
v 0.657614 0.772332 0.781492
v 0.604833 0.772332 0.654066
v 0.477407 0.792654 0.601285
v 0.349982 0.792654 0.654066
v 0.297200 0.792654 0.781492
v 0.349982 0.792654 0.908918
v 0.477407 0.792654 0.961699
v 0.604833 0.792654 0.908918
v 0.657614 0.792654 0.781492
v 0.604833 0.792654 0.654066
v 0.477407 0.792654 0.625180
v 0.366878 0.792654 0.670963
v 0.321095 0.792654 0.781492
v 0.366878 0.792654 0.892021
v 0.477407 0.792654 0.937804
v 0.587937 0.792654 0.892021
v 0.633719 0.792654 0.781492
v 0.587937 0.792654 0.670963
v 0.477407 0.792654 0.615463
v 0.360007 0.792654 0.664092
v 0.311378 0.792654 0.781492
v 0.360007 0.792654 0.898892
v 0.477407 0.792654 0.947521
v 0.594808 0.792654 0.898892
v 0.643436 0.792654 0.781492
v 0.594808 0.792654 0.664092
v 0.477407 0.802123 0.615463
v 0.360007 0.802123 0.664092
v 0.311378 0.802123 0.781492
v 0.360007 0.802123 0.898892
v 0.477407 0.802123 0.947521
v 0.594808 0.802123 0.898892
v 0.643436 0.802123 0.781492
v 0.594808 0.802123 0.664092
v 0.477407 0.802123 0.629271
v 0.369770 0.802123 0.673855
v 0.325186 0.802123 0.781492
v 0.369770 0.802123 0.889129
v 0.477407 0.802123 0.933713
v 0.585044 0.802123 0.889129
v 0.629629 0.802123 0.781492
v 0.585044 0.802123 0.673855
v 0.477407 0.806782 0.629271
v 0.369770 0.806782 0.673855
v 0.325186 0.806782 0.781492
v 0.369770 0.806782 0.889129
v 0.477407 0.806782 0.933713
v 0.585044 0.806782 0.889129
v 0.629629 0.806782 0.781492
v 0.585044 0.806782 0.673855
v 0.360300 0.745404 0.664385
v 0.477407 0.745404 0.615877
v 0.594514 0.745404 0.664385
v 0.643022 0.745404 0.781492
v 0.594514 0.745404 0.898599
v 0.477407 0.745404 0.947107
v 0.360300 0.745404 0.898599
v 0.311792 0.745404 0.781492
v 0.369770 0.802962 0.673855
v 0.477407 0.802962 0.629271
v 0.585044 0.802962 0.673855
v 0.629629 0.802962 0.781492
v 0.585044 0.802962 0.889129
v 0.477407 0.802962 0.933713
v 0.369770 0.802962 0.889129
v 0.325186 0.802962 0.781492
v 0.361181 0.771092 0.897718
v 0.313039 0.771092 0.781492
v 0.361181 0.771092 0.665266
v 0.477407 0.771092 0.617124
v 0.593633 0.771092 0.665266
v 0.641776 0.771092 0.781492
v 0.593633 0.771092 0.897718
v 0.477407 0.771092 0.945860
vn 0.0000 1.0000 0.0000
vn -0.9239 0.0000 0.3827
vn -0.3827 0.0000 -0.9239
vn 0.9239 0.0000 -0.3827
vn 0.3827 0.0000 0.9239
vn -0.3827 0.0000 0.9239
vn -0.9239 0.0000 -0.3827
vn 0.3827 0.0000 -0.9239
vn 0.9239 0.0000 0.3827
vn 0.0000 -1.0000 0.0000
usemtl None
s off
f 1//1 8//1 16//1 9//1
f 7//1 6//1 14//1 15//1
f 5//1 4//1 12//1 13//1
f 3//1 2//1 10//1 11//1
f 8//1 7//1 15//1 16//1
f 6//1 5//1 13//1 14//1
f 4//1 3//1 11//1 12//1
f 2//1 1//1 9//1 10//1
f 16//2 15//2 23//2 24//2
f 14//3 13//3 21//3 22//3
f 12//4 11//4 19//4 20//4
f 10//5 9//5 17//5 18//5
f 9//6 16//6 24//6 17//6
f 15//7 14//7 22//7 23//7
f 13//8 12//8 20//8 21//8
f 11//9 10//9 18//9 19//9
f 23//10 22//10 30//10 31//10
f 21//10 20//10 28//10 29//10
f 19//10 18//10 26//10 27//10
f 24//10 23//10 31//10 32//10
f 22//10 21//10 29//10 30//10
f 20//10 19//10 27//10 28//10
f 18//10 17//10 25//10 26//10
f 17//10 24//10 32//10 25//10
f 129//5 130//5 33//5 34//5
f 130//6 131//6 40//6 33//6
f 132//7 133//7 38//7 39//7
f 134//8 135//8 36//8 37//8
f 136//9 129//9 34//9 35//9
f 131//2 132//2 39//2 40//2
f 133//3 134//3 37//3 38//3
f 135//4 136//4 35//4 36//4
f 40//10 39//10 47//10 48//10
f 38//10 37//10 45//10 46//10
f 36//10 35//10 43//10 44//10
f 34//10 33//10 41//10 42//10
f 33//10 40//10 48//10 41//10
f 39//10 38//10 46//10 47//10
f 37//10 36//10 44//10 45//10
f 35//10 34//10 42//10 43//10
f 43//9 42//9 50//9 51//9
f 48//2 47//2 55//2 56//2
f 46//3 45//3 53//3 54//3
f 44//4 43//4 51//4 52//4
f 42//5 41//5 49//5 50//5
f 41//6 48//6 56//6 49//6
f 47//7 46//7 54//7 55//7
f 45//8 44//8 52//8 53//8
f 49//1 56//1 64//1 57//1
f 55//1 54//1 62//1 63//1
f 53//1 52//1 60//1 61//1
f 51//1 50//1 58//1 59//1
f 56//1 55//1 63//1 64//1
f 54//1 53//1 61//1 62//1
f 52//1 51//1 59//1 60//1
f 50//1 49//1 57//1 58//1
f 145//4 146//4 67//4 68//4
f 147//5 148//5 65//5 66//5
f 148//6 149//6 72//6 65//6
f 150//7 151//7 70//7 71//7
f 152//8 145//8 68//8 69//8
f 146//9 147//9 66//9 67//9
f 149//2 150//2 71//2 72//2
f 151//3 152//3 69//3 70//3
f 72//1 71//1 79//1 80//1
f 70//1 69//1 77//1 78//1
f 68//1 67//1 75//1 76//1
f 66//1 65//1 73//1 74//1
f 65//1 72//1 80//1 73//1
f 71//1 70//1 78//1 79//1
f 69//1 68//1 76//1 77//1
f 67//1 66//1 74//1 75//1
f 77//8 76//8 84//8 85//8
f 75//9 74//9 82//9 83//9
f 80//2 79//2 87//2 88//2
f 78//3 77//3 85//3 86//3
f 76//4 75//4 83//4 84//4
f 74//5 73//5 81//5 82//5
f 73//6 80//6 88//6 81//6
f 79//7 78//7 86//7 87//7
f 81//10 88//10 96//10 89//10
f 87//10 86//10 94//10 95//10
f 85//10 84//10 92//10 93//10
f 83//10 82//10 90//10 91//10
f 88//10 87//10 95//10 96//10
f 86//10 85//10 93//10 94//10
f 84//10 83//10 91//10 92//10
f 82//10 81//10 89//10 90//10
f 94//1 93//1 101//1 102//1
f 92//1 91//1 99//1 100//1
f 90//1 89//1 97//1 98//1
f 89//1 96//1 104//1 97//1
f 95//1 94//1 102//1 103//1
f 93//1 92//1 100//1 101//1
f 91//1 90//1 98//1 99//1
f 96//1 95//1 103//1 104//1
f 104//2 103//2 111//2 112//2
f 102//3 101//3 109//3 110//3
f 100//4 99//4 107//4 108//4
f 98//5 97//5 105//5 106//5
f 97//6 104//6 112//6 105//6
f 103//7 102//7 110//7 111//7
f 101//8 100//8 108//8 109//8
f 99//9 98//9 106//9 107//9
f 111//10 110//10 118//10 119//10
f 109//10 108//10 116//10 117//10
f 107//10 106//10 114//10 115//10
f 112//10 111//10 119//10 120//10
f 110//10 109//10 117//10 118//10
f 108//10 107//10 115//10 116//10
f 106//10 105//10 113//10 114//10
f 105//10 112//10 120//10 113//10
f 137//5 138//5 121//5 122//5
f 138//6 139//6 128//6 121//6
f 140//7 141//7 126//7 127//7
f 142//8 143//8 124//8 125//8
f 144//9 137//9 122//9 123//9
f 139//2 140//2 127//2 128//2
f 141//3 142//3 125//3 126//3
f 143//4 144//4 123//4 124//4
f 28//4 27//4 136//4 135//4
f 30//3 29//3 134//3 133//3
f 32//2 31//2 132//2 131//2
f 27//9 26//9 129//9 136//9
f 29//8 28//8 135//8 134//8
f 31//7 30//7 133//7 132//7
f 25//6 32//6 131//6 130//6
f 26//5 25//5 130//5 129//5
f 116//4 115//4 144//4 143//4
f 118//3 117//3 142//3 141//3
f 120//2 119//2 140//2 139//2
f 115//9 114//9 137//9 144//9
f 117//8 116//8 143//8 142//8
f 119//7 118//7 141//7 140//7
f 113//6 120//6 139//6 138//6
f 114//5 113//5 138//5 137//5
f 62//3 61//3 152//3 151//3
f 64//2 63//2 150//2 149//2
f 59//9 58//9 147//9 146//9
f 61//8 60//8 145//8 152//8
f 63//7 62//7 151//7 150//7
f 57//6 64//6 149//6 148//6
f 58//5 57//5 148//5 147//5
f 60//4 59//4 146//4 145//4
