# Blender v2.79 (sub 7) OBJ File: ''
# www.blender.org
mtllib 886410-13-LP.mtl
o Box001.001
v -654.370789 1358.473511 -914.610718
v -630.174316 1358.473511 -931.756042
v -647.052002 1358.473511 -953.487427
v -669.279114 1358.473511 -937.737854
v -654.370789 1332.874634 -914.610718
v -669.279114 1332.874634 -937.737854
v -430.044800 1332.874634 -674.073120
v -430.044800 1358.473511 -674.073120
v -477.595703 1358.473511 -640.379456
v -477.595703 1332.874634 -640.379456
v -201.407898 1332.874756 -1594.203857
v -201.407898 1358.473633 -1594.203857
v -171.336395 1358.473633 -1594.061523
v -171.336395 1332.874756 -1594.061523
v -525.400330 1332.874756 -1536.152832
v -525.400330 1358.473633 -1536.152832
v -525.118408 1358.473633 -1595.735352
v -525.118408 1332.874756 -1595.735352
v -171.783005 1358.473633 -1499.662842
v -201.854507 1358.473633 -1499.805176
v -202.660706 1358.473511 -1329.392822
v -172.589203 1358.473511 -1329.250488
v -171.783005 1332.874756 -1499.662842
v -172.589203 1332.874634 -1329.250488
v -527.103516 1332.874634 -1190.719116
v -527.560913 1332.874634 -1180.078735
v -527.560913 1358.473511 -1180.078735
v -526.371216 1358.473511 -1330.924194
v -526.371216 1332.874634 -1330.924194
v -526.885925 1332.874634 -1222.132690
v -204.431305 1358.473511 -1160.632935
v -174.413803 1358.473511 -1158.826538
v -174.413803 1332.874634 -1158.826538
v -529.273682 1332.874634 -1161.224731
v -529.273682 1358.473511 -1161.224731
v -207.929596 1358.473511 -1122.123901
v -178.078003 1358.473511 -1118.491577
v -178.078003 1332.874634 -1118.491577
v -553.348511 1332.874634 -1073.555176
v -553.348511 1358.473511 -1073.555298
v -257.102203 1358.473511 -943.060059
v -229.582001 1358.473511 -930.937561
v -229.582001 1332.874634 -930.937561
v -562.377930 1332.874634 -1054.789185
v -562.377930 1358.473511 -1054.789185
v -275.544708 1358.473511 -904.730652
v -248.899002 1358.473511 -890.790710
v -248.899002 1332.874634 -890.790833
v -647.052002 1332.874634 -953.487427
v -448.490387 1358.473511 -697.823364
v -493.888794 1358.473511 -665.654968
v -493.888794 1332.874634 -665.654968
v -281.714111 1332.874756 -1594.583740
v -281.714111 1358.473633 -1594.583740
v -248.502899 1358.473633 -1594.426636
v -248.502899 1332.874756 -1594.426636
v -281.996002 1358.473633 -1535.001343
v -248.784805 1358.473633 -1534.844238
v -284.593414 1158.473511 -1165.457031
v -251.441803 1158.473511 -1163.462036
v -249.755707 1158.473511 -1329.615601
v -282.966888 1158.473511 -1329.772705
v -251.441803 1358.473511 -1163.462036
v -284.593414 1358.473511 -1165.457031
v -260.167511 1358.473511 -1128.480103
v -240.167694 1358.473511 -1126.046509
v -305.260193 1358.473511 -964.273315
v -346.702393 1358.473511 -941.957214
v -317.274597 1358.473511 -926.561951
v -286.822388 1358.473511 -956.151611
v -346.702393 1158.473511 -941.957214
v -497.749603 1158.473511 -761.248657
v -477.378113 1158.473511 -735.018616
v -317.274597 1158.473511 -926.561951
v -519.405396 1358.473511 -705.238953
v -477.378113 1358.473511 -735.018616
v -497.749603 1358.473511 -761.248657
v -537.399719 1358.473511 -733.153320
v -519.405396 1332.874634 -705.238953
v -537.399719 1332.874634 -733.153320
v -497.602997 1358.473633 -1595.605103
v -497.602997 1332.874756 -1595.605103
v -497.884888 1358.473633 -1536.022705
v -500.094788 1358.473511 -1178.425903
v -498.855804 1358.473511 -1330.794067
v -410.684814 1358.473511 -1146.794922
v -529.274109 1365.973511 -1161.224609
v -553.348816 1365.973511 -1073.555664
v -449.780792 1365.973511 -1037.348999
v -421.740112 1365.973511 -1139.460571
v -537.997070 1358.473511 -1042.034180
v -444.021698 1358.473511 -1025.397339
v -268.501312 1353.473511 -1111.651001
v -252.799301 1353.473511 -1109.248047
v -424.967804 1353.473511 -1031.965820
v -397.657715 1353.473511 -1131.416748
v -289.103485 1353.473511 -977.045227
v -303.830505 1353.473511 -982.998413
v -225.412399 1353.473511 -1105.056885
v -263.416809 1353.473511 -966.661926
v -467.958405 1332.874756 -1595.464844
v -467.958405 1358.473633 -1595.464844
v -434.835785 1358.473633 -1595.308105
v -434.835907 1332.874756 -1595.308105
v -468.240204 1358.473633 -1535.882324
v -435.117706 1358.473633 -1535.725708
v -248.949493 1358.473633 -1500.027832
v -249.755707 1358.473511 -1329.615601
v -204.431305 1158.473511 -1160.632935
v -202.660706 1158.473511 -1329.392822
v -249.755707 1158.473511 -1329.615601
v -251.441803 1158.473511 -1163.462036
v -437.440308 1358.473511 -1174.655273
v -470.503387 1358.473511 -1176.645020
v -390.392090 1358.473511 -1144.325684
v -367.718689 1358.473511 -1141.566895
v -425.313904 1358.473511 -1017.156555
v -511.729614 1358.473511 -1028.292236
v -482.380402 1358.473511 -1012.937927
v -404.411285 1358.473511 -1007.949036
v -511.729614 1158.473511 -1028.292236
v -611.990479 1158.473511 -908.342957
v -591.673401 1158.473511 -882.182922
v -482.380402 1158.473511 -1012.937927
v -448.490387 1158.473511 -697.823364
v -275.544708 1158.473511 -904.730652
v -611.990479 1358.473511 -908.342957
v -638.309021 1358.473511 -889.694031
v -620.362915 1358.473511 -861.854126
v -591.673401 1358.473511 -882.182922
v -638.309021 1332.874634 -889.694031
v -620.362915 1332.874634 -861.854126
v -380.418488 1353.473511 -1128.778564
v -361.156891 1353.473511 -1125.830811
v -408.799011 1353.473511 -1025.429810
v -390.733307 1353.473511 -1018.127014
v -310.989899 1358.473633 -1594.722290
v -310.989990 1332.874756 -1594.722290
v -342.429993 1332.874756 -1594.870972
v -342.429993 1358.473633 -1594.870972
v -312.242706 1363.473511 -1329.911133
v -311.436493 1363.473633 -1500.323486
v -342.876495 1363.473633 -1500.472290
v -343.682709 1363.473511 -1330.059937
v -500.094788 1158.473511 -1178.425903
v -470.503387 1158.473511 -1176.645020
v -469.211212 1158.473633 -1330.653809
v -498.855804 1158.473633 -1330.794067
v -312.242706 1158.473511 -1329.911133
v -343.682709 1158.473511 -1330.059937
v -345.200287 1158.473511 -1169.104370
v -313.816711 1158.473511 -1167.215698
v -304.463806 1358.473511 -1133.869995
v -281.370514 1358.473511 -1131.060059
v -313.816711 1358.473511 -1167.215698
v -345.200287 1358.473511 -1169.104370
v -372.643097 1358.473511 -955.528259
v -324.807098 1358.473511 -972.883728
v -346.096802 1358.473511 -982.261719
v -400.501404 1358.473511 -970.102417
v -537.997070 1158.473511 -1042.034180
v -630.174316 1158.473511 -931.756042
v -515.707214 1158.473511 -784.370422
v -372.643097 1158.473511 -955.528259
v -400.501404 1158.473511 -970.102417
v -534.992310 1158.473511 -809.201416
v -553.261719 1358.473511 -757.760010
v -515.707214 1358.473511 -784.370422
v -534.992310 1358.473511 -809.201416
v -570.296204 1358.473511 -784.185730
v -553.261719 1332.874634 -757.760010
v -570.296204 1332.874634 -784.185730
v -287.061493 1353.473511 -1114.491455
v -307.420410 1353.473511 -1117.607056
v -321.238403 1353.473511 -990.035156
v -340.333191 1353.473511 -997.753845
v -402.327515 1332.874756 -1595.154419
v -402.327515 1358.473633 -1595.154419
v -373.797089 1358.473633 -1595.019409
v -373.797089 1332.874756 -1595.019409
v -282.966888 1358.473511 -1329.772705
v -282.160614 1358.473633 -1500.185059
v -311.436493 1358.473633 -1500.323486
v -312.242706 1358.473511 -1329.911133
v -402.609314 1358.473633 -1535.571899
v -374.079010 1358.473633 -1535.436890
v -404.990295 1158.473511 -1172.702515
v -376.511108 1158.473511 -1170.988647
v -375.049896 1158.473633 -1330.208374
v -403.580292 1158.473633 -1330.343262
v -376.511108 1358.473511 -1170.988647
v -404.990295 1358.473511 -1172.702515
v -345.465607 1358.473511 -1138.859131
v -325.935699 1358.473511 -1136.482788
v -383.896301 1358.473511 -998.912354
v -453.575409 1358.473511 -997.868469
v -428.295288 1358.473511 -984.643066
v -365.891693 1358.473511 -990.981323
v -453.575409 1158.473511 -997.868469
v -571.732971 1158.473511 -856.508118
v -554.232727 1158.473511 -833.975037
v -428.295288 1158.473511 -984.643066
v -571.732971 1358.473511 -856.508118
v -602.749390 1358.473511 -834.530457
v -587.291382 1358.473511 -810.550354
v -554.232727 1358.473511 -833.975037
v -602.749390 1332.874634 -834.530457
v -587.291321 1332.874634 -810.550354
v -342.252411 1353.473511 -1122.937744
v -325.661285 1353.473511 -1120.398682
v -373.002502 1353.473511 -1010.959717
v -357.441498 1353.473511 -1004.669556
v -343.682709 1358.473511 -1330.059937
v -342.876495 1358.473633 -1500.472290
v -374.243713 1358.473633 -1500.620605
v -375.049896 1358.473511 -1330.208374
v -436.088715 1158.473633 -1330.497070
v -437.440308 1158.473511 -1174.655273
v -252.799301 1253.473511 -1109.248047
v -225.412399 1253.473511 -1105.056885
v -268.501312 1253.473511 -1111.651001
v -287.061493 1253.473511 -1114.491455
v -307.420410 1253.473511 -1117.607056
v -325.661285 1253.473511 -1120.398682
v -342.252411 1253.473511 -1122.937744
v -361.156891 1253.473511 -1125.830811
v -380.418488 1253.473511 -1128.778564
v -397.657715 1253.473511 -1131.416748
v -424.967804 1253.473511 -1031.965820
v -408.799011 1253.473511 -1025.429810
v -390.733307 1253.473511 -1018.127014
v -373.002502 1253.473511 -1010.959717
v -357.441498 1253.473511 -1004.669556
v -340.333191 1253.473511 -997.753845
v -321.238403 1253.473511 -990.035156
v -303.830505 1253.473511 -982.998413
v -289.103485 1253.473511 -977.045227
v -263.416809 1253.473511 -966.661926
v -403.580292 1358.473511 -1330.343262
v -436.088715 1358.473511 -1330.497070
v -469.211212 1358.473511 -1330.653809
v -525.565002 1332.874756 -1501.336548
v -525.565002 1358.473633 -1501.336548
v -201.689804 1358.473633 -1534.621338
v -171.618301 1358.473633 -1534.479126
v -171.618301 1332.874756 -1534.479126
v -282.160614 1363.473633 -1500.185059
v -248.949493 1363.473633 -1500.027832
v -248.784805 1363.473633 -1534.844238
v -281.996002 1363.473633 -1535.001343
v -498.049591 1358.473633 -1501.206421
v -468.404999 1363.473633 -1501.066162
v -435.282410 1363.473633 -1500.909424
v -435.117706 1363.473633 -1535.725708
v -468.240204 1363.473633 -1535.882324
v -468.404999 1358.473633 -1501.066162
v -342.711792 1358.473633 -1535.288574
v -311.271790 1358.473633 -1535.139771
v -402.773987 1363.473633 -1500.755615
v -374.243713 1363.473633 -1500.620605
v -374.079010 1363.473633 -1535.436890
v -402.609314 1363.473633 -1535.571899
v -435.282410 1358.473633 -1500.909424
v -402.773987 1358.473633 -1500.755615
v -342.711792 1363.473633 -1535.288574
v -311.271790 1363.473633 -1535.139771
v -249.755707 1363.473511 -1329.615601
v -282.966888 1363.473511 -1329.772705
v -436.088715 1363.473511 -1330.497070
v -469.211212 1363.473511 -1330.653809
v -375.049896 1363.473511 -1330.208374
v -403.580292 1363.473511 -1330.343262
vn 0.0000 1.0000 0.0000
vn -0.8405 0.0000 0.5418
vn 0.6784 -0.0000 0.7347
vn 0.5782 0.0000 0.8159
vn 0.0047 0.0000 -1.0000
vn -1.0000 0.0000 -0.0047
vn 1.0000 0.0000 0.0047
vn 1.0000 0.0000 0.0077
vn -0.9997 -0.0094 -0.0204
vn -0.9978 0.0000 -0.0667
vn -0.9986 -0.0053 -0.0534
vn -1.0000 -0.0010 -0.0050
vn -0.9999 -0.0127 -0.0075
vn 0.9987 0.0000 0.0506
vn -0.9840 0.0000 -0.1783
vn 0.9840 0.0000 0.1783
vn -0.9365 -0.0000 -0.3506
vn 0.9365 -0.0000 0.3506
vn -0.8406 -0.0000 -0.5416
vn 0.8406 -0.0000 0.5416
vn -0.6783 0.0000 -0.7347
vn -0.5781 0.0000 -0.8159
vn -0.0369 0.9617 0.2715
vn -0.0359 0.9636 0.2650
vn -0.0347 0.9661 0.2559
vn -0.0356 0.9641 0.2630
vn 0.2776 0.9577 0.0762
vn 0.1070 0.9617 -0.2523
vn 0.1036 0.9641 -0.2443
vn 0.1007 0.9661 -0.2378
vn 0.1046 0.9636 -0.2461
vn -0.3621 0.9268 -0.0994
vn -0.0429 0.9483 0.3146
vn -0.0446 0.9438 0.3275
vn -0.0457 0.9408 0.3360
vn -0.0441 0.9452 0.3235
vn -0.0346 0.9664 0.2546
vn 0.1002 0.9664 -0.2366
vn 0.1322 0.9408 -0.3121
vn 0.1289 0.9438 -0.3043
vn 0.1239 0.9483 -0.2923
vn 0.1275 0.9452 -0.3007
vn -0.0460 0.9400 0.3382
vn -0.0369 0.9614 0.2728
vn -0.0381 0.9589 0.2813
vn -0.0398 0.9556 0.2919
vn -0.0391 0.9571 0.2871
vn 0.1331 0.9400 -0.3142
vn 0.1149 0.9556 -0.2713
vn 0.1107 0.9588 -0.2614
vn 0.1074 0.9613 -0.2535
vn 0.1109 0.9586 -0.2621
vn -0.0400 0.9554 0.2925
vn -0.0413 0.9521 0.3030
vn -0.0425 0.9492 0.3118
vn -0.0412 0.9526 0.3015
vn 0.1228 0.9492 -0.2898
vn 0.1193 0.9521 -0.2816
vn 0.1151 0.9554 -0.2718
vn 0.1187 0.9525 -0.2803
vn -0.1513 0.0000 0.9885
vn 0.9643 0.0000 0.2648
vn 0.3748 0.0000 -0.9271
vn -0.9643 0.0000 -0.2648
vn 1.0000 0.0000 0.0081
vn 0.0601 0.0000 -0.9982
vn -0.0047 0.0000 1.0000
vn -0.4636 0.0000 0.8861
vn 0.7673 0.0000 0.6413
vn 0.7898 0.0000 -0.6134
vn -0.7673 0.0000 -0.6413
vn -0.9643 -0.0001 -0.2648
vn -0.3160 0.5141 0.7974
vn 0.6289 0.7581 0.1727
vn 0.1356 0.5141 -0.8470
vn -0.9999 0.0000 -0.0105
usemtl None
s 1
f 1//1 2//1 3//1 4//1
f 5//2 1//2 4//2 6//2
f 7//3 8//3 9//4 10//4
f 11//5 12//5 13//5 14//5
f 15//6 16//6 17//6 18//6
f 19//1 20//1 21//1 22//1
f 23//7 19//7 22//8 24//8
f 25//9 26//10 27//11 28//12 29//6 30//13
f 22//1 21//1 31//1 32//1
f 24//8 22//8 32//14 33//14
f 34//15 35//15 27//11 26//10
f 32//1 31//1 36//1 37//1
f 33//14 32//14 37//16 38//16
f 39//17 40//17 35//15 34//15
f 37//1 36//1 41//1 42//1
f 38//16 37//16 42//18 43//18
f 44//19 45//19 40//17 39//17
f 42//1 41//1 46//1 47//1
f 43//18 42//18 47//20 48//20
f 49//21 3//21 45//19 44//19
f 47//1 46//1 50//1 8//1
f 48//20 47//20 8//3 7//3
f 6//22 4//22 3//21 49//21
f 9//1 8//1 50//1 51//1
f 10//2 9//2 51//2 52//2
f 53//5 54//5 55//5 56//5
f 54//1 57//1 58//1 55//1
f 59//1 60//1 61//1 62//1
f 63//1 64//1 65//1 66//1
f 67//1 68//1 69//1 70//1
f 71//1 72//1 73//1 74//1
f 75//1 76//1 77//1 78//1
f 79//2 75//2 78//2 80//2
f 18//5 17//5 81//5 82//5
f 17//1 16//1 83//1 81//1
f 27//1 84//1 85//1 28//1
f 27//1 35//1 86//1 84//1
f 87//1 88//1 89//1 90//1
f 40//1 45//1 91//1 92//1
f 45//1 3//1 2//1 91//1
f 65//23 93//24 94//25 66//26
f 86//27 92//27 95//27 96//27
f 67//28 70//29 97//30 98//31
f 41//32 36//32 99//32 100//32
f 101//5 102//5 103//5 104//5
f 12//5 11//5 56//5 55//5
f 102//1 105//1 106//1 103//1
f 21//1 20//1 107//1 108//1
f 109//1 110//1 111//1 112//1
f 113//1 114//1 115//1 116//1
f 66//1 36//1 31//1 63//1
f 117//1 118//1 119//1 120//1
f 46//1 41//1 70//1 69//1
f 121//1 122//1 123//1 124//1
f 125//1 126//1 74//1 73//1
f 51//1 50//1 76//1 75//1
f 127//1 128//1 129//1 130//1
f 52//2 51//2 75//2 79//2
f 128//2 131//2 132//2 129//2
f 116//33 115//34 133//35 134//36
f 99//37 36//37 66//26 94//25
f 70//29 41//38 100//38 97//30
f 135//39 117//40 120//41 136//42
f 82//5 81//5 102//5 101//5
f 137//5 138//5 139//5 140//5
f 81//1 83//1 105//1 102//1
f 141//1 142//1 143//1 144//1
f 145//1 146//1 147//1 148//1
f 149//1 150//1 151//1 152//1
f 114//1 84//1 86//1 115//1
f 153//1 154//1 155//1 156//1
f 92//1 91//1 118//1 117//1
f 157//1 158//1 159//1 160//1
f 161//1 162//1 122//1 121//1
f 163//1 164//1 165//1 166//1
f 2//1 1//1 128//1 127//1
f 167//1 168//1 169//1 170//1
f 1//2 5//2 131//2 128//2
f 171//2 167//2 170//2 172//2
f 115//34 86//43 96//43 133//35
f 173//44 154//45 153//46 174//47
f 95//48 92//48 117//40 135//39
f 159//49 158//50 175//51 176//52
f 54//5 53//5 138//5 137//5
f 177//5 178//5 179//5 180//5
f 181//1 182//1 183//1 184//1
f 178//1 185//1 186//1 179//1
f 149//1 152//1 59//1 62//1
f 187//1 188//1 189//1 190//1
f 154//1 65//1 64//1 155//1
f 191//1 192//1 193//1 194//1
f 68//1 67//1 158//1 157//1
f 195//1 196//1 197//1 198//1
f 72//1 71//1 164//1 163//1
f 199//1 200//1 201//1 202//1
f 78//1 77//1 168//1 167//1
f 203//1 204//1 205//1 206//1
f 80//2 78//2 167//2 171//2
f 204//2 207//2 208//2 205//2
f 93//24 65//23 154//45 173//44
f 194//53 193//54 209//55 210//56
f 158//50 67//28 98//31 175//51
f 211//57 195//58 198//59 212//60
f 104//5 103//5 178//5 177//5
f 140//5 139//5 180//5 179//5
f 103//1 106//1 185//1 178//1
f 213//1 214//1 215//1 216//1
f 187//1 190//1 217//1 218//1
f 189//1 188//1 151//1 150//1
f 192//1 113//1 116//1 193//1
f 194//1 153//1 156//1 191//1
f 120//1 119//1 196//1 195//1
f 160//1 159//1 198//1 197//1
f 124//1 123//1 200//1 199//1
f 166//1 165//1 202//1 201//1
f 130//1 129//1 204//1 203//1
f 170//1 169//1 206//1 205//1
f 129//2 132//2 207//2 204//2
f 172//2 170//2 205//2 208//2
f 193//54 116//33 134//36 209//55
f 210//56 174//47 153//46 194//53
f 136//42 120//41 195//58 211//57
f 159//49 176//52 212//60 198//59
f 99//61 94//61 219//61 220//61
f 94//61 93//61 221//61 219//61
f 93//61 173//61 222//61 221//61
f 173//61 174//61 223//61 222//61
f 174//61 210//61 224//61 223//61
f 210//61 209//61 225//61 224//61
f 209//61 134//61 226//61 225//61
f 134//61 133//61 227//61 226//61
f 133//61 96//61 228//61 227//61
f 96//62 95//62 229//62 228//62
f 95//63 135//63 230//63 229//63
f 135//63 136//63 231//63 230//63
f 136//63 211//63 232//63 231//63
f 211//63 212//63 233//63 232//63
f 212//63 176//63 234//63 233//63
f 176//63 175//63 235//63 234//63
f 175//63 98//63 236//63 235//63
f 98//63 97//63 237//63 236//63
f 97//63 100//63 238//63 237//63
f 100//64 99//64 220//64 238//64
f 84//65 145//65 148//65 85//65
f 84//66 114//66 146//66 145//66
f 114//66 113//66 218//66 146//66
f 113//66 192//66 187//66 218//66
f 192//66 191//66 188//66 187//66
f 191//66 156//66 151//66 188//66
f 156//66 155//66 152//66 151//66
f 155//66 64//66 59//66 152//66
f 64//66 63//66 60//66 59//66
f 108//67 181//67 62//67 61//67
f 181//67 184//67 149//67 62//67
f 184//67 213//67 150//67 149//67
f 213//67 216//67 189//67 150//67
f 216//67 239//67 190//67 189//67
f 239//67 240//67 217//67 190//67
f 240//67 241//67 147//67 217//67
f 241//67 85//67 148//67 147//67
f 46//68 69//68 74//68 126//68
f 69//68 68//68 71//68 74//68
f 68//68 157//68 164//68 71//68
f 157//68 160//68 165//68 164//68
f 160//68 197//68 202//68 165//68
f 197//68 196//68 199//68 202//68
f 196//68 119//68 124//68 199//68
f 119//68 118//68 121//68 124//68
f 118//68 91//68 161//68 121//68
f 91//69 2//69 162//69 161//69
f 2//70 127//70 122//70 162//70
f 127//70 130//70 123//70 122//70
f 130//70 203//70 200//70 123//70
f 203//70 206//70 201//70 200//70
f 206//70 169//70 166//70 201//70
f 169//70 168//70 163//70 166//70
f 168//70 77//70 72//70 163//70
f 77//70 76//70 73//70 72//70
f 76//70 50//70 125//70 73//70
f 50//71 46//71 126//71 125//71
f 242//6 243//6 16//6 15//6
f 13//1 12//1 244//1 245//1
f 14//7 13//7 245//7 246//7
f 247//1 248//1 249//1 250//1
f 243//1 251//1 83//1 16//1
f 252//1 253//1 254//1 255//1
f 12//1 55//1 58//1 244//1
f 251//1 256//1 105//1 83//1
f 137//1 140//1 257//1 258//1
f 54//1 137//1 258//1 57//1
f 259//1 260//1 261//1 262//1
f 263//1 264//1 185//1 106//1
f 140//1 179//1 186//1 257//1
f 213//67 184//67 141//67 144//67
f 183//7 142//7 141//7 184//7
f 258//5 257//5 265//5 266//5
f 214//6 143//6 265//6 257//6
f 181//67 108//67 267//67 268//67
f 107//7 248//7 267//7 108//7
f 58//5 57//5 250//5 249//5
f 182//6 247//6 250//6 57//6
f 241//67 240//67 269//67 270//67
f 263//7 253//7 269//7 240//7
f 106//5 105//5 255//5 254//5
f 256//6 252//6 255//6 105//6
f 239//67 216//67 271//67 272//67
f 215//7 260//7 271//7 216//7
f 186//5 185//5 262//5 261//5
f 264//6 259//6 262//6 185//6
f 35//72 40//72 88//72 87//72
f 40//73 92//73 89//73 88//73
f 92//74 86//74 90//74 89//74
f 86//75 35//75 87//75 90//75
f 21//67 108//67 111//67 110//67
f 63//66 31//66 109//66 112//66
f 31//76 21//76 110//76 109//76
f 238//1 220//1 219//1 237//1
f 221//1 236//1 237//1 219//1
f 222//1 235//1 236//1 221//1
f 234//1 235//1 222//1 223//1
f 224//1 233//1 234//1 223//1
f 225//1 232//1 233//1 224//1
f 226//1 231//1 232//1 225//1
f 227//1 230//1 231//1 226//1
f 230//1 227//1 228//1 229//1
f 245//1 244//1 20//1 19//1
f 246//7 245//7 19//7 23//7
f 244//1 58//1 107//1 20//1
f 266//1 265//1 143//1 142//1
f 57//1 258//1 183//1 182//1
f 257//1 186//1 215//1 214//1
f 29//6 28//12 243//6 242//6
f 268//1 267//1 248//1 247//1
f 28//1 85//1 251//1 243//1
f 270//1 269//1 253//1 252//1
f 85//1 241//1 256//1 251//1
f 272//1 271//1 260//1 259//1
f 240//1 239//1 264//1 263//1
f 258//7 266//7 142//7 183//7
f 213//6 144//6 143//6 214//6
f 58//7 249//7 248//7 107//7
f 181//6 268//6 247//6 182//6
f 106//7 254//7 253//7 263//7
f 241//6 270//6 252//6 256//6
f 186//7 261//7 260//7 215//7
f 239//6 272//6 259//6 264//6
f 146//1 218//1 217//1 147//1
