# Blender v2.80 (sub 26) OBJ File: ''
# www.blender.org
o Cylinder_Cylinder.001
v 0.000000 0.000000 -0.791473
v 0.000000 2.000000 -1.000000
v 0.559656 0.000000 -0.559656
v 0.707107 2.000000 -0.707107
v 0.791473 0.000000 0.000000
v 1.000000 2.000000 0.000000
v 0.559656 0.000000 0.559656
v 0.707107 2.000000 0.707107
v -0.000000 0.000000 0.791473
v -0.000000 2.000000 1.000000
v -0.559656 0.000000 0.559656
v -0.707107 2.000000 0.707107
v -0.791473 0.000000 -0.000000
v -1.000000 2.000000 -0.000000
v -0.559656 0.000000 -0.559656
v -0.707107 2.000000 -0.707107
v 0.000000 0.000000 -1.000000
v 0.707107 0.000000 -0.707107
v 1.000000 0.000000 0.000000
v 0.707107 0.000000 0.707107
v -0.000000 0.000000 1.000000
v -0.707107 0.000000 0.707107
v -1.000000 0.000000 -0.000000
v -0.707107 0.000000 -0.707107
v 0.000000 -1.000000 -0.791473
v 0.559656 -1.000000 -0.559656
v 0.791473 -1.000000 0.000000
v 0.559656 -1.000000 0.559656
v -0.000000 -1.000000 0.791473
v -0.559656 -1.000000 0.559656
v -0.791473 -1.000000 -0.000000
v -0.559656 -1.000000 -0.559656
v 0.000000 -1.304405 -4.114556
v 3.774857 -1.304405 -4.114556
v 4.114556 -0.964706 0.000000
v 3.774860 -1.304405 4.110801
v -0.000000 -1.304405 4.124539
v -3.759884 -1.304405 4.110805
v -4.144507 -0.964706 -0.000000
v -3.759882 -1.304405 -4.114556
v 0.000000 -3.025007 -4.114556
v 3.774857 -3.025007 -4.114556
v 3.948229 -3.364706 0.000000
v 3.774860 -3.025007 4.110801
v -0.000000 -3.025007 4.124539
v -3.759884 -3.025007 4.110805
v -3.978170 -3.364706 -0.000001
v -3.759882 -3.025007 -4.114556
v -0.000000 -3.364706 0.000000
v 0.000000 -0.964706 -4.114556
v 4.114556 -0.964706 -4.114556
v 4.114556 -0.964706 4.109564
v -0.000000 -0.964706 4.124539
v -4.099581 -0.964706 4.109564
v -4.099581 -0.964706 -4.114556
v 0.000000 -3.364706 -3.948229
v 3.948229 -3.364706 -3.948229
v 3.948229 -3.364706 3.943841
v 0.000001 -3.364706 3.958211
v -3.935055 -3.364706 3.943837
v -3.935060 -3.364706 -3.948229
v -0.000000 -3.025007 4.124539
v -0.000000 -1.304405 4.124539
v 3.774860 -1.304405 4.110801
v -3.759884 -1.304405 4.110805
v 3.774860 -3.025007 4.110801
v -3.759884 -3.025007 4.110805
v -0.000000 -3.025007 4.124539
v -0.000000 -1.304405 4.124539
v 3.774860 -1.304405 4.110801
v -3.759884 -1.304405 4.110805
v 3.774860 -3.025007 4.110801
v -3.759884 -3.025007 4.110805
v 0.000006 -3.025007 3.124539
v 0.000007 -1.304405 3.124539
v 3.774866 -1.304405 3.110801
v -3.759877 -1.304405 3.110805
v 3.774866 -3.025007 3.110801
v -3.759877 -3.025007 3.110805
v 0.000000 -3.025007 -5.114556
v 0.000000 -1.304405 -5.114556
v 3.774857 -1.304405 -5.114556
v -3.759882 -1.304405 -5.114556
v 3.774857 -3.025007 -5.114556
v -3.759882 -3.025007 -5.114556
v -4.099581 -1.084706 -4.114556
v -4.144507 -1.084706 -0.000000
v -4.099581 -1.084706 4.109564
v 4.114556 -1.084706 4.109564
v 4.114556 -1.084706 0.000000
v 4.114556 -1.084706 -4.114556
v -3.759882 -1.390435 -4.114556
v -3.759884 -1.390435 4.110805
v 3.774860 -1.390435 4.110801
v 3.774857 -1.390435 -4.114556
v -3.759884 -1.390435 4.110805
v 3.774860 -1.390435 4.110801
v -3.759884 -1.390435 4.110805
v 3.774860 -1.390435 4.110801
v 0.000007 -1.390435 3.124539
v -3.759877 -1.390435 3.110805
v 3.774866 -1.390435 3.110801
v 0.000000 -1.390435 -5.114556
v -3.759882 -1.390435 -5.114556
v 3.774857 -1.390435 -5.114556
v -4.099581 -3.250706 -4.114556
v -4.099581 -3.250706 4.109564
v 4.114556 -3.250706 4.109564
v 4.114556 -3.250706 -4.114556
v -3.759882 -2.943279 -4.114556
v -3.759884 -2.943279 4.110805
v 3.774860 -2.943279 4.110801
v 3.774857 -2.943279 -4.114556
v -3.759884 -2.943279 4.110805
v 3.774860 -2.943279 4.110801
v -3.759884 -2.943279 4.110805
v 3.774860 -2.943279 4.110801
v -3.759877 -2.943279 3.110805
v 3.774866 -2.943279 3.110801
v -3.759882 -2.943279 -5.114556
v 3.774857 -2.943279 -5.114556
v -4.144507 -3.250706 -0.000000
v 4.114556 -3.250706 0.000000
v 0.000006 -2.943279 3.124539
v 0.000000 -2.943279 -5.114556
v -3.759882 -3.025007 -4.214556
v 0.000000 -3.025007 -4.214556
v 0.000000 -1.304405 -4.214556
v -3.759882 -1.304405 -4.214556
v 3.774857 -3.025007 -4.214556
v 3.774857 -1.304405 -4.214556
v 3.774857 -1.390435 -4.214556
v -3.759882 -1.390435 -4.214556
v -3.759882 -2.943279 -4.214556
v 3.774857 -2.943279 -4.214556
v -3.759882 -3.025007 -5.024556
v 0.000000 -1.304405 -5.024556
v 3.774857 -1.390435 -5.024556
v -3.759882 -1.390435 -5.024556
v -3.759882 -2.943279 -5.024556
v 3.774857 -2.943279 -5.024556
v 0.000000 -3.025007 -5.024556
v -3.759882 -1.304405 -5.024556
v 3.774857 -3.025007 -5.024556
v 3.774857 -1.304405 -5.024556
v -3.922585 -0.966471 -3.936811
v -3.976856 -0.966471 -0.000000
v -3.922585 -0.966471 3.932069
v -0.000000 -0.966471 3.957886
v 3.936811 -0.966471 3.932069
v 3.948402 -0.966471 0.000000
v 3.936811 -0.966471 -3.936811
v 0.000000 -0.966471 -3.948402
v 0.000000 -3.364706 -4.114556
v 4.114556 -3.364706 -4.114556
v 4.114556 -3.364706 0.000000
v 4.114556 -3.364706 4.109564
v -0.000000 -3.364706 4.124539
v -4.099581 -3.364706 4.109564
v -4.144507 -3.364706 -0.000000
v -4.099581 -3.364706 -4.114556
v 0.000006 -3.025007 3.224539
v -3.759878 -3.025007 3.210805
v -3.759878 -1.304405 3.210805
v 0.000006 -1.304405 3.224539
v 3.774866 -3.025007 3.210801
v 3.774866 -1.304405 3.210801
v 3.774866 -1.390435 3.210801
v -3.759878 -1.390435 3.210805
v 3.774866 -2.943279 3.210801
v -3.759878 -2.943279 3.210805
v -3.759883 -3.025007 3.975805
v 0.000001 -1.304405 3.989539
v 3.774861 -1.304405 3.975801
v 0.000000 -3.025007 3.989539
v -3.759883 -1.304405 3.975805
v 3.774861 -3.025007 3.975801
v 3.774861 -1.390435 3.975801
v -3.759883 -1.390435 3.975805
v 3.774861 -2.943279 3.975801
v -3.759883 -2.943279 3.975805
v -0.000000 -1.032646 4.124539
v 4.046617 -1.032646 4.109812
v -4.031641 -1.032646 4.109812
v 4.046617 -3.296766 4.109812
v -0.000000 -3.296766 4.124539
v -4.031641 -3.296766 4.109812
v 4.046617 -1.145852 4.109812
v -4.031641 -1.145852 4.109812
v -4.031641 -3.189221 4.109812
v 4.046617 -3.189221 4.109812
v 4.046616 -1.032646 -4.114556
v 0.000000 -1.032646 -4.114556
v -4.031641 -1.032646 -4.114556
v 0.000000 -3.296766 -4.114556
v 4.046616 -3.296766 -4.114556
v -4.031641 -3.296766 -4.114556
v 4.046616 -1.145852 -4.114556
v -4.031641 -1.145852 -4.114556
v 4.046616 -3.189221 -4.114556
v -4.031641 -3.189221 -4.114556
v 0.000000 0.100000 -1.000000
v 0.707107 0.100000 -0.707107
v 1.000000 0.100000 0.000000
v 0.707107 0.100000 0.707107
v -0.000000 0.100000 1.000000
v -0.707107 0.100000 0.707107
v -1.000000 0.100000 -0.000000
v -0.707107 0.100000 -0.707107
v 0.559656 -0.100000 -0.559656
v 0.000000 -0.100000 -0.791473
v -0.559656 -0.100000 -0.559656
v -0.791473 -0.100000 -0.000000
v -0.559656 -0.100000 0.559656
v -0.000000 -0.100000 0.791473
v 0.559656 -0.100000 0.559656
v 0.791473 -0.100000 0.000000
v 0.559656 -0.910000 -0.559656
v -0.791473 -0.910000 -0.000000
v -0.000000 -0.910000 0.791473
v 0.791473 -0.910000 0.000000
v 0.000000 -0.910000 -0.791473
v -0.559656 -0.910000 -0.559656
v -0.559656 -0.910000 0.559656
v 0.559656 -0.910000 0.559656
v -0.950742 -0.998324 -0.000000
v -0.000000 -0.998324 0.949793
v 0.949319 -0.998324 0.000000
v 0.000000 -0.998324 -0.949319
v -0.727802 -0.998324 -0.728513
v -0.727802 -0.998324 0.728276
v 0.728514 -0.998324 0.728276
v 0.728514 -0.998324 -0.728513
v 0.000000 1.905000 -1.000000
v 0.707107 1.905000 -0.707107
v 1.000000 1.905000 0.000000
v 0.707107 1.905000 0.707107
v -0.000000 1.905000 1.000000
v -0.707107 1.905000 0.707107
v -1.000000 1.905000 -0.000000
v -0.707107 1.905000 -0.707107
vt 1.000000 0.976250
vt 1.000000 1.000000
vt 0.875000 1.000000
vt 0.875000 0.976250
vt 0.750000 1.000000
vt 0.750000 0.976250
vt 0.625000 1.000000
vt 0.625000 0.976250
vt 0.500000 1.000000
vt 0.500000 0.976250
vt 0.375000 1.000000
vt 0.375000 0.976250
vt 0.250000 1.000000
vt 0.250000 0.976250
vt 0.419706 0.419706
vt 0.250000 0.490000
vt 0.080294 0.419706
vt 0.010000 0.250000
vt 0.125000 1.000000
vt 0.125000 0.976250
vt 0.000000 1.000000
vt 0.000000 0.976250
vt 0.750000 0.439954
vt 0.884317 0.384317
vt 0.884317 0.384317
vt 0.750000 0.439954
vt 0.884317 0.384317
vt 0.750000 0.439954
vt 0.750000 0.490000
vt 0.919706 0.419706
vt 0.939953 0.250000
vt 0.990000 0.250000
vt 0.884317 0.115683
vt 0.919706 0.080294
vt 0.750000 0.060047
vt 0.750000 0.010000
vt 0.615683 0.115683
vt 0.580294 0.080294
vt 0.560046 0.250000
vt 0.510000 0.250000
vt 0.615683 0.384317
vt 0.580294 0.419706
vt 0.560046 0.250000
vt 0.615683 0.384317
vt 0.615683 0.384317
vt 0.560046 0.250000
vt 0.615683 0.384317
vt 0.615683 0.384317
vt 0.615683 0.115683
vt 0.560046 0.250000
vt 0.560046 0.250000
vt 0.615683 0.115683
vt 0.884317 0.115683
vt 0.750000 0.060047
vt 0.750000 0.060047
vt 0.884317 0.115683
vt 0.939953 0.250000
vt 0.939953 0.250000
vt 0.490000 0.250000
vt 0.080294 0.080294
vt 0.419706 0.080294
vt 0.250000 0.010000
vt 0.560047 0.250000
vt 0.615683 0.384317
vt 0.615683 0.384317
vt 0.560046 0.250000
vt 0.750000 0.060047
vt 0.615683 0.115683
vt 0.615683 0.115683
vt 0.750000 0.060047
vt 0.939953 0.250000
vt 0.884317 0.115683
vt 0.884317 0.115683
vt 0.939953 0.250000
vt 0.750000 0.439954
vt 0.884317 0.384317
vt 0.884317 0.384317
vt 0.750000 0.439954
vt 0.750689 0.250000
vt 0.932303 0.250000
vt 0.880723 0.119287
vt 0.750028 0.067707
vt 0.873228 0.111089
vt 0.750000 0.060047
vt 0.750000 0.060047
vt 0.873228 0.111089
vt 0.939953 0.250000
vt 0.884317 0.115683
vt 0.884317 0.115683
vt 0.939953 0.250000
vt 0.626812 0.388928
vt 0.750000 0.439954
vt 0.750000 0.439954
vt 0.626812 0.388928
vt 0.750000 0.439954
vt 0.626812 0.388928
vt 0.626812 0.388927
vt 0.750000 0.439954
vt 0.615683 0.115683
vt 0.615683 0.115683
vt 0.750000 0.060047
vt 0.873228 0.111089
vt 0.873228 0.111089
vt 0.750000 0.060047
vt 0.884317 0.384317
vt 0.884317 0.384317
vt 0.750028 0.432275
vt 0.880723 0.380718
vt 0.567698 0.250000
vt 0.619301 0.119288
vt 0.619301 0.380717
vt 0.882099 0.385236
vt 0.750000 0.439954
vt 0.750000 0.060047
vt 0.882100 0.114764
vt 0.617909 0.114761
vt 0.617909 0.385239
vt 0.750000 0.439954
vt 0.882099 0.385236
vt 0.750000 0.439954
vt 0.882100 0.114764
vt 0.750000 0.060047
vt 0.750000 0.060047
vt 0.617908 0.114761
vt 0.617909 0.385239
vt 0.617909 0.385239
vt 0.617909 0.114761
vt 0.615683 0.115683
vt 0.882100 0.114764
vt 0.882099 0.385236
vt 0.884317 0.384317
vt 0.873228 0.111089
vt 0.750000 0.060047
vt 0.626812 0.111073
vt 0.626812 0.111073
vt 0.626812 0.111073
vt 0.626812 0.111073
vt 0.873228 0.111089
vt 0.873228 0.111089
vt 0.626812 0.111073
vt 0.626812 0.111073
vt 0.626812 0.111073
vt 0.626812 0.111073
vt 0.750000 0.060047
vt 0.626812 0.111073
vt 0.626812 0.111073
vt 0.750000 0.060047
vt 0.626812 0.111073
vt 0.750000 0.060047
vt 0.750000 0.060047
vt 0.626812 0.111073
vt 0.750000 0.060047
vt 0.873228 0.111089
vt 0.873228 0.111089
vt 0.626812 0.111073
vt 0.750000 0.060047
vt 0.626812 0.111073
vt 0.873228 0.111089
vt 0.873228 0.111089
vt 0.626812 0.111073
vt 0.873228 0.111089
vt 0.873228 0.111089
vt 0.873228 0.111089
vt 0.873228 0.111089
vt 0.873228 0.111089
vt 0.750000 0.439954
vt 0.873228 0.388911
vt 0.873228 0.388911
vt 0.626812 0.388928
vt 0.626812 0.388928
vt 0.626812 0.388928
vt 0.873228 0.388911
vt 0.873228 0.388911
vt 0.873228 0.388911
vt 0.873228 0.388911
vt 0.873228 0.388911
vt 0.873228 0.388911
vt 0.626812 0.388928
vt 0.750000 0.439954
vt 0.873228 0.111089
vt 0.626812 0.111073
vt 0.626812 0.111073
vt 0.750000 0.060047
vt 0.873228 0.111089
vt 0.873228 0.111089
vt 0.626812 0.111073
vt 0.626812 0.111073
vt 0.873228 0.111089
vt 0.626812 0.111073
vt 0.882099 0.385236
vt 0.882100 0.114764
vt 0.884317 0.115683
vt 0.617908 0.114761
vt 0.617909 0.385239
vt 0.615683 0.384317
vt 0.939953 0.250000
vt 0.560046 0.250000
vt 0.873228 0.388911
vt 0.873228 0.388911
vt 0.873228 0.388911
vt 0.873228 0.388911
vt 0.626812 0.388927
vt 0.626813 0.388928
vt 0.626812 0.388928
vt 0.626812 0.388927
vt 0.626812 0.388928
vt 0.626812 0.388928
vt 0.873228 0.388911
vt 0.873228 0.388911
vt 0.750000 0.439954
vt 0.750000 0.439954
vt 0.873228 0.388911
vt 0.873228 0.388911
vt 0.750000 0.439954
vt 0.750000 0.439954
vt 0.626812 0.388928
vt 0.626812 0.388928
vt 0.884317 0.384317
vt 0.939953 0.250000
vt 0.884317 0.115683
vt 0.750000 0.060047
vt 0.615683 0.115683
vt 0.560046 0.250000
vt 0.615683 0.384317
vt 0.750000 0.439954
vt 0.626812 0.111073
vt 0.626812 0.111073
vt 0.873228 0.111089
vt 0.873228 0.111089
vt 0.626812 0.111073
vt 0.873228 0.111089
vt 0.873228 0.111089
vt 0.750000 0.060047
vt 0.750000 0.060047
vt 0.626812 0.111073
vt 0.125000 0.500000
vt 0.125000 0.525000
vt 0.000000 0.525000
vt 0.000000 0.500000
vt 0.250000 0.500000
vt 0.250000 0.525000
vt 0.375000 0.500000
vt 0.375000 0.525000
vt 0.500000 0.500000
vt 0.500000 0.525000
vt 0.625000 0.500000
vt 0.625000 0.525000
vt 0.750000 0.500000
vt 0.750000 0.525000
vt 0.875000 0.500000
vt 0.875000 0.525000
vt 1.000000 0.500000
vt 1.000000 0.525000
vt 0.884317 0.115683
vt 0.939954 0.250000
vt 0.615683 0.115683
vt 0.750000 0.060047
vt 0.615683 0.384317
vt 0.560046 0.250000
vt 0.884317 0.384317
vt 0.750000 0.439954
vn 0.3827 0.0000 -0.9239
vn 0.9239 0.0000 -0.3827
vn 0.9239 0.0000 0.3827
vn 0.3827 0.0000 0.9239
vn -0.3827 0.0000 0.9239
vn -0.9239 0.0000 0.3827
vn 0.0000 1.0000 0.0000
vn -0.9239 0.0000 -0.3827
vn -0.3827 0.0000 -0.9239
vn 0.0000 -1.0000 0.0000
vn 0.0102 0.9999 0.0001
vn -0.9999 0.0000 -0.0109
vn 0.0001 0.9999 -0.0102
vn -0.0103 0.9999 -0.0000
vn -0.0000 0.9999 0.0103
vn 0.0102 0.9999 -0.0001
vn -0.0001 0.9999 -0.0102
vn 0.0000 0.0000 1.0000
vn 1.0000 0.0000 -0.0000
vn -0.9999 0.0000 0.0109
vn 0.0000 0.0000 -1.0000
vn 0.0036 0.0000 1.0000
vn -0.0037 -0.0000 1.0000
vn -0.0036 0.0000 1.0000
vn -1.0000 0.0000 -0.0000
vn -0.0100 0.9999 0.0005
vn -0.0005 1.0000 -0.0100
vn 0.0099 1.0000 -0.0006
vn 0.0005 0.9999 0.0100
vn -0.0005 0.9999 0.0100
vn -0.0100 0.9999 -0.0005
vn 0.0005 1.0000 -0.0100
vn 0.0099 1.0000 0.0006
vn 0.0087 1.0000 0.0031
vn 0.0031 1.0000 -0.0087
vn -0.0087 1.0000 -0.0031
vn -0.0031 1.0000 0.0087
vn 0.0031 1.0000 0.0087
vn 0.0087 1.0000 -0.0031
vn -0.0031 1.0000 -0.0087
vn -0.0087 1.0000 0.0031
s off
f 234/1/1 2/2/1 4/3/1 235/4/1
f 235/4/2 4/3/2 6/5/2 236/6/2
f 236/6/3 6/5/3 8/7/3 237/8/3
f 237/8/4 8/7/4 10/9/4 238/10/4
f 238/10/5 10/9/5 12/11/5 239/12/5
f 239/12/6 12/11/6 14/13/6 240/14/6
f 4/15/7 2/16/7 16/17/7 14/18/7
f 240/14/8 14/13/8 16/19/8 241/20/8
f 241/20/9 16/19/9 2/21/9 234/22/9
f 222/23/1 218/24/1 26/25/1 25/26/1
f 3/27/10 1/28/10 17/29/10 18/30/10
f 5/31/10 3/27/10 18/30/10 19/32/10
f 7/33/10 5/31/10 19/32/10 20/34/10
f 9/35/10 7/33/10 20/34/10 21/36/10
f 11/37/10 9/35/10 21/36/10 22/38/10
f 13/39/10 11/37/10 22/38/10 23/40/10
f 15/41/10 13/39/10 23/40/10 24/42/10
f 1/28/10 15/41/10 24/42/10 17/29/10
f 147/43/11 146/44/11 55/45/11 39/46/11
f 223/47/9 222/23/9 25/26/9 32/48/9
f 224/49/6 219/50/6 31/51/6 30/52/6
f 225/53/4 220/54/4 29/55/4 28/56/4
f 218/24/2 221/57/2 27/58/2 26/25/2
f 219/50/8 223/47/8 32/48/8 31/51/8
f 220/54/5 224/49/5 30/52/5 29/55/5
f 221/57/3 225/53/3 28/56/3 27/58/3
f 6/59/7 4/15/7 14/18/7 12/60/7
f 8/61/7 6/59/7 12/60/7 10/62/7
f 122/63/12 106/64/12 161/65/12 160/66/12
f 149/67/13 148/68/13 54/69/13 53/70/13
f 151/71/14 150/72/14 52/73/14 35/74/14
f 153/75/15 152/76/15 51/77/15 50/78/15
f 146/44/15 153/75/15 50/78/15 55/45/15
f 148/68/16 147/43/16 39/46/16 54/69/16
f 150/72/17 149/67/17 53/70/17 52/73/17
f 152/76/14 151/71/14 35/74/14 51/77/14
f 49/79/10 43/80/10 58/81/10 59/82/10
f 36/83/18 37/84/18 63/85/18 64/86/18
f 123/87/19 108/88/19 157/89/19 156/90/19
f 143/91/7 137/92/7 81/93/7 83/94/7
f 142/95/10 136/96/10 85/97/10 80/98/10
f 107/99/20 122/63/20 160/66/20 159/100/20
f 45/101/18 44/102/18 66/103/18 62/104/18
f 109/105/19 123/87/19 156/90/19 155/106/19
f 56/107/10 57/108/10 43/80/10 49/79/10
f 47/109/10 49/79/10 59/82/10 60/110/10
f 61/111/10 56/107/10 49/79/10 47/109/10
f 192/112/21 193/113/21 50/78/21 51/77/21
f 182/114/22 183/115/22 52/73/22 53/70/22
f 184/116/23 182/114/23 53/70/23 54/69/23
f 193/113/21 194/117/21 55/45/21 50/78/21
f 195/118/21 196/119/21 155/106/21 154/120/21
f 185/121/22 186/122/22 158/123/22 157/89/22
f 186/122/23 187/124/23 159/100/23 158/123/23
f 197/125/21 195/118/21 154/120/21 161/65/21
f 201/126/21 197/125/21 161/65/21 106/64/21
f 189/127/24 184/116/24 54/69/24 88/128/24
f 191/129/22 185/121/22 157/89/22 108/88/22
f 198/130/21 192/112/21 51/77/21 91/131/21
f 62/104/18 66/103/18 72/132/18 68/133/18
f 114/134/18 67/135/18 73/136/18 116/137/18
f 94/138/18 36/83/18 64/86/18 97/139/18
f 46/140/18 45/101/18 62/104/18 67/135/18
f 37/84/18 38/141/18 65/142/18 63/85/18
f 111/143/18 46/140/18 67/135/18 114/134/18
f 165/144/10 164/145/10 77/146/10 75/147/10
f 163/148/7 162/149/7 74/150/7 79/151/7
f 64/86/18 63/85/18 69/152/18 70/153/18
f 97/139/18 64/86/18 70/153/18 99/154/18
f 67/135/18 62/104/18 68/133/18 73/136/18
f 63/85/18 65/142/18 71/155/18 69/152/18
f 124/156/23 118/157/23 79/151/23 74/150/23
f 119/158/22 124/156/22 74/150/22 78/159/22
f 171/160/19 163/148/19 79/151/19 118/157/19
f 162/149/7 166/161/7 78/159/7 74/150/7
f 167/162/10 165/144/10 75/147/10 76/163/10
f 168/164/25 167/162/25 76/163/25 102/165/25
f 125/166/21 121/167/21 84/168/21 80/98/21
f 120/169/21 125/166/21 80/98/21 85/97/21
f 139/170/25 143/91/25 83/94/25 104/171/25
f 144/172/10 142/95/10 80/98/10 84/168/10
f 141/173/19 144/172/19 84/168/19 121/167/19
f 137/92/7 145/174/7 82/175/7 81/93/7
f 145/174/19 138/176/19 105/177/19 82/175/19
f 140/178/25 139/170/25 104/171/25 120/169/25
f 83/94/21 81/93/21 103/179/21 104/171/21
f 81/93/21 82/175/21 105/177/21 103/179/21
f 170/180/25 168/164/25 102/165/25 119/158/25
f 164/145/19 169/181/19 101/182/19 77/146/19
f 76/163/22 75/147/22 100/183/22 102/165/22
f 75/147/23 77/146/23 101/182/23 100/183/23
f 115/184/18 97/139/18 99/154/18 117/185/18
f 38/141/18 93/186/18 96/187/18 65/142/18
f 112/188/18 94/138/18 97/139/18 115/184/18
f 65/142/18 96/187/18 98/189/18 71/155/18
f 200/190/21 198/130/21 91/131/21 109/105/21
f 183/115/22 188/191/22 89/192/22 52/73/22
f 190/193/23 189/127/23 88/128/23 107/99/23
f 194/117/21 199/194/21 86/195/21 55/45/21
f 51/77/19 35/74/19 90/196/19 91/131/19
f 54/69/20 39/46/20 87/197/20 88/128/20
f 35/74/19 52/73/19 89/192/19 90/196/19
f 39/46/12 55/45/12 86/195/12 87/197/12
f 187/124/24 190/193/24 107/99/24 159/100/24
f 196/119/21 200/190/21 109/105/21 155/106/21
f 44/102/18 112/188/18 115/184/18 66/103/18
f 66/103/18 115/184/18 117/185/18 72/132/18
f 166/161/25 170/180/25 119/158/25 78/159/25
f 136/96/25 140/178/25 120/169/25 85/97/25
f 138/176/19 141/173/19 121/167/19 105/177/19
f 104/171/21 103/179/21 125/166/21 120/169/21
f 103/179/21 105/177/21 121/167/21 125/166/21
f 169/181/19 171/160/19 118/157/19 101/182/19
f 102/165/22 100/183/22 124/156/22 119/158/22
f 100/183/23 101/182/23 118/157/23 124/156/23
f 93/186/18 111/143/18 114/134/18 96/187/18
f 96/187/18 114/134/18 116/137/18 98/189/18
f 188/191/22 191/129/22 108/88/22 89/192/22
f 199/194/21 201/126/21 106/64/21 86/195/21
f 91/131/19 90/196/19 123/87/19 109/105/19
f 88/128/20 87/197/20 122/63/20 107/99/20
f 90/196/19 89/192/19 108/88/19 123/87/19
f 87/197/12 86/195/12 106/64/12 122/63/12
f 95/198/19 113/199/19 135/200/19 132/201/19
f 48/202/25 110/203/25 134/204/25 126/205/25
f 110/203/25 92/206/25 133/207/25 134/204/25
f 34/208/19 95/198/19 132/201/19 131/209/19
f 33/210/7 34/208/7 131/209/7 128/211/7
f 113/199/19 42/212/19 130/213/19 135/200/19
f 42/212/10 41/214/10 127/215/10 130/213/10
f 92/206/25 40/216/25 129/217/25 133/207/25
f 41/214/10 48/202/10 126/205/10 127/215/10
f 40/216/7 33/210/7 128/211/7 129/217/7
f 132/201/19 135/200/19 141/173/19 138/176/19
f 126/205/25 134/204/25 140/178/25 136/96/25
f 134/204/25 133/207/25 139/170/25 140/178/25
f 131/209/19 132/201/19 138/176/19 145/174/19
f 128/211/7 131/209/7 145/174/7 137/92/7
f 135/200/19 130/213/19 144/172/19 141/173/19
f 130/213/10 127/215/10 142/95/10 144/172/10
f 133/207/25 129/217/25 143/91/25 139/170/25
f 127/215/10 126/205/10 136/96/10 142/95/10
f 129/217/7 128/211/7 137/92/7 143/91/7
f 233/218/26 228/219/26 151/71/26 152/76/26
f 232/220/27 227/221/27 149/67/27 150/72/27
f 231/222/28 226/223/28 147/43/28 148/68/28
f 230/224/29 229/225/29 153/75/29 146/44/29
f 229/225/30 233/218/30 152/76/30 153/75/30
f 228/219/31 232/220/31 150/72/31 151/71/31
f 227/221/32 231/222/32 148/68/32 149/67/32
f 226/223/33 230/224/33 146/44/33 147/43/33
f 57/108/10 56/107/10 154/120/10 155/106/10
f 43/80/10 57/108/10 155/106/10 156/90/10
f 58/81/10 43/80/10 156/90/10 157/89/10
f 59/82/10 58/81/10 157/89/10 158/123/10
f 60/110/10 59/82/10 158/123/10 159/100/10
f 47/109/10 60/110/10 159/100/10 160/66/10
f 61/111/10 47/109/10 160/66/10 161/65/10
f 56/107/10 61/111/10 161/65/10 154/120/10
f 179/226/19 181/227/19 171/160/19 169/181/19
f 177/228/25 180/229/25 170/180/25 166/161/25
f 176/230/19 179/226/19 169/181/19 164/145/19
f 180/229/25 178/231/25 168/164/25 170/180/25
f 178/231/25 174/232/25 167/162/25 168/164/25
f 174/232/10 173/233/10 165/144/10 167/162/10
f 175/234/7 177/228/7 166/161/7 162/149/7
f 181/227/19 172/235/19 163/148/19 171/160/19
f 172/235/7 175/234/7 162/149/7 163/148/7
f 173/233/10 176/230/10 164/145/10 165/144/10
f 69/152/10 71/155/10 176/230/10 173/233/10
f 73/136/7 68/133/7 175/234/7 172/235/7
f 116/137/19 73/136/19 172/235/19 181/227/19
f 68/133/7 72/132/7 177/228/7 175/234/7
f 70/153/10 69/152/10 173/233/10 174/232/10
f 99/154/25 70/153/25 174/232/25 178/231/25
f 117/185/25 99/154/25 178/231/25 180/229/25
f 71/155/19 98/189/19 179/226/19 176/230/19
f 72/132/25 117/185/25 180/229/25 177/228/25
f 98/189/19 116/137/19 181/227/19 179/226/19
f 94/138/22 112/188/22 191/129/22 188/191/22
f 46/140/24 111/143/24 190/193/24 187/124/24
f 111/143/23 93/186/23 189/127/23 190/193/23
f 36/83/22 94/138/22 188/191/22 183/115/22
f 112/188/22 44/102/22 185/121/22 191/129/22
f 93/186/23 38/141/23 184/116/23 189/127/23
f 45/101/23 46/140/23 187/124/23 186/122/23
f 44/102/22 45/101/22 186/122/22 185/121/22
f 38/141/23 37/84/23 182/114/23 184/116/23
f 37/84/22 36/83/22 183/115/22 182/114/22
f 92/206/21 110/203/21 201/126/21 199/194/21
f 42/212/21 113/199/21 200/190/21 196/119/21
f 40/216/21 92/206/21 199/194/21 194/117/21
f 113/199/21 95/198/21 198/130/21 200/190/21
f 95/198/21 34/208/21 192/112/21 198/130/21
f 110/203/21 48/202/21 197/125/21 201/126/21
f 48/202/21 41/214/21 195/118/21 197/125/21
f 41/214/21 42/212/21 196/119/21 195/118/21
f 33/210/21 40/216/21 194/117/21 193/113/21
f 34/208/21 33/210/21 193/113/21 192/112/21
f 24/236/9 209/237/9 202/238/9 17/239/9
f 23/240/8 208/241/8 209/237/8 24/236/8
f 22/242/6 207/243/6 208/241/6 23/240/6
f 21/244/5 206/245/5 207/243/5 22/242/5
f 20/246/4 205/247/4 206/245/4 21/244/4
f 19/248/3 204/249/3 205/247/3 20/246/3
f 18/250/2 203/251/2 204/249/2 19/248/2
f 17/252/1 202/253/1 203/251/1 18/250/1
f 5/31/3 7/33/3 216/254/3 217/255/3
f 9/35/5 11/37/5 214/256/5 215/257/5
f 13/39/8 15/41/8 212/258/8 213/259/8
f 3/27/2 5/31/2 217/255/2 210/260/2
f 7/33/4 9/35/4 215/257/4 216/254/4
f 11/37/6 13/39/6 213/259/6 214/256/6
f 15/41/9 1/28/9 211/261/9 212/258/9
f 1/28/1 3/27/1 210/260/1 211/261/1
f 217/255/3 216/254/3 225/53/3 221/57/3
f 215/257/5 214/256/5 224/49/5 220/54/5
f 213/259/8 212/258/8 223/47/8 219/50/8
f 210/260/2 217/255/2 221/57/2 218/24/2
f 216/254/4 215/257/4 220/54/4 225/53/4
f 214/256/6 213/259/6 219/50/6 224/49/6
f 212/258/9 211/261/9 222/23/9 223/47/9
f 211/261/1 210/260/1 218/24/1 222/23/1
f 31/51/34 32/48/34 230/224/34 226/223/34
f 29/55/35 30/52/35 231/222/35 227/221/35
f 27/58/36 28/56/36 232/220/36 228/219/36
f 25/26/37 26/25/37 233/218/37 229/225/37
f 32/48/38 25/26/38 229/225/38 230/224/38
f 30/52/39 31/51/39 226/223/39 231/222/39
f 28/56/40 29/55/40 227/221/40 232/220/40
f 26/25/41 27/58/41 228/219/41 233/218/41
f 209/237/9 241/20/9 234/22/9 202/238/9
f 208/241/8 240/14/8 241/20/8 209/237/8
f 207/243/6 239/12/6 240/14/6 208/241/6
f 206/245/5 238/10/5 239/12/5 207/243/5
f 205/247/4 237/8/4 238/10/4 206/245/4
f 204/249/3 236/6/3 237/8/3 205/247/3
f 203/251/2 235/4/2 236/6/2 204/249/2
f 202/253/1 234/1/1 235/4/1 203/251/1
