# Blender v2.79 (sub 0) OBJ File: ''
# www.blender.org
mtllib 889399-20-LP.mtl
o Cylinder_Cylinder.001
v 0.000000 0.400000 -0.600000
v 0.000000 1.600000 -0.600000
v 0.424264 0.400000 -0.424264
v 0.424264 1.600000 -0.424264
v 0.600000 0.400000 0.000000
v 0.600000 1.600000 0.000000
v 0.424264 0.400000 0.424264
v 0.424264 1.600000 0.424264
v -0.000000 0.400000 0.600000
v -0.000000 1.600000 0.600000
v -0.424264 0.400000 0.424264
v -0.424264 1.600000 0.424264
v -0.600000 0.400000 -0.000000
v -0.600000 1.600000 -0.000000
v -0.424264 0.400000 -0.424264
v -0.424264 1.600000 -0.424264
v 0.283629 1.600000 -0.283629
v -0.000000 1.600000 -0.401112
v 0.401112 1.600000 0.000000
v 0.283629 1.600000 0.283629
v -0.000000 1.600000 0.401112
v -0.283629 1.600000 0.283629
v -0.401112 1.600000 -0.000000
v -0.283629 1.600000 -0.283629
v 0.283629 0.955549 -0.283629
v -0.000000 0.955549 -0.401112
v 0.401112 0.955549 0.000000
v 0.283629 0.955549 0.283629
v -0.000000 0.955549 0.401112
v -0.283629 0.955549 0.283629
v -0.401112 0.955549 -0.000000
v -0.283629 0.955549 -0.283629
v 0.000000 0.400000 -1.200000
v 1.200000 0.400000 -1.200000
v 1.200000 0.400000 0.000000
v 1.200000 0.400000 1.200000
v -0.000000 0.400000 1.200000
v -1.200000 0.400000 1.200000
v -1.200000 0.400000 -0.000000
v -1.200000 0.400000 -1.200000
v 0.000000 -3.200000 -1.200000
v 1.200000 -3.200000 -1.200000
v 1.200000 -3.200000 0.000000
v 1.200000 -3.200000 1.200000
v -0.000000 -3.200000 1.200000
v -1.200000 -3.200000 1.200000
v -1.200000 -3.200000 -0.000000
v -1.200000 -3.200000 -1.200000
v 1.920000 0.400000 -1.200000
v 2.040000 0.400000 0.000000
v 1.920000 0.400000 1.200000
v 1.920000 -3.200000 -1.200000
v 2.040000 -3.200000 0.000000
v 1.920000 -3.200000 1.200000
v 1.200000 0.400000 1.920000
v -0.000000 0.400000 1.920000
v -1.200000 0.400000 1.920000
v 1.200000 -3.200000 1.920000
v -0.000000 -3.200000 1.920000
v -1.200000 -3.200000 1.920000
v 1.800000 -3.200000 1.920000
v 1.800000 0.400000 1.920000
v -1.680000 0.400000 1.200000
v -1.560000 0.400000 -0.000000
v -1.680000 0.400000 -1.200000
v -1.680000 -3.200000 1.200000
v -1.560000 -3.200000 -0.000000
v -1.680000 -3.200000 -1.200000
v -1.800000 -3.200000 1.920000
v -1.800000 0.400000 1.920000
v 0.000000 0.400000 -1.920000
v 1.200000 0.400000 -1.920000
v -1.200000 0.400000 -1.920000
v 0.000000 -3.200000 -1.920000
v 1.200000 -3.200000 -1.920000
v -1.200000 -3.200000 -1.920000
v 1.800000 0.400000 -1.920000
v 1.800000 -3.200000 -1.920000
v -1.800000 -3.200000 -1.920000
v -1.800000 0.400000 -1.920000
v 1.920000 -0.320000 1.200000
v 2.040000 -0.320000 0.000000
v 1.920000 -0.320000 -1.200000
v 1.200000 -0.320000 1.920000
v -1.200000 -0.320000 1.920000
v -0.000000 -0.320000 1.920000
v 1.800000 -0.320000 1.920000
v -1.680000 -0.320000 -1.200000
v -1.560000 -0.320000 -0.000000
v -1.680000 -0.320000 1.200000
v -1.800000 -0.320000 1.920000
v 1.200000 -0.320000 -1.920000
v 0.000000 -0.320000 -1.920000
v -1.200000 -0.320000 -1.920000
v 1.800000 -0.320000 -1.920000
v -1.800000 -0.320000 -1.920000
v 1.920000 -2.660001 1.200000
v 1.920000 -2.660001 -1.200000
v 1.200000 -2.660001 1.920000
v -0.000000 -2.660001 1.920000
v 1.800000 -2.660001 1.920000
v -1.560000 -2.660001 -0.000000
v 1.200000 -2.660001 -1.920000
v 1.800000 -2.660001 -1.920000
v 2.040000 -2.660001 0.000000
v -1.200000 -2.660001 1.920000
v -1.680000 -2.660001 -1.200000
v -1.680000 -2.660001 1.200000
v -1.800000 -2.660001 1.920000
v 0.000000 -2.660001 -1.920000
v -1.200000 -2.660001 -1.920000
v -1.800000 -2.660001 -1.920000
v -1.200000 -3.200000 1.380000
v -0.000000 -3.200000 1.380000
v 1.879024 0.400000 1.380000
v 1.879024 -3.200000 1.380000
v 1.200000 -3.200000 1.380000
v -0.000000 0.400000 1.380000
v 1.200000 0.400000 1.380000
v -1.200000 0.400000 1.380000
v -1.720976 -3.200000 1.380000
v -1.720976 0.400000 1.380000
v -1.720976 -0.320000 1.380000
v 1.879024 -0.320000 1.380000
v 1.879024 -2.660001 1.380000
v -1.720976 -2.660001 1.380000
v 0.000000 -3.200000 -1.380000
v 1.890769 -3.200000 -1.380000
v 1.200000 -3.200000 -1.380000
v -1.200000 -3.200000 -1.380000
v -1.709231 -3.200000 -1.380000
v 1.200000 0.400000 -1.380000
v 0.000000 0.400000 -1.380000
v -1.200000 0.400000 -1.380000
v -1.709231 0.400000 -1.380000
v 1.890769 0.400000 -1.380000
v 1.890769 -0.320000 -1.380000
v -1.709231 -0.320000 -1.380000
v -1.709231 -2.660001 -1.380000
v 1.890769 -2.660001 -1.380000
v 2.040000 -0.380000 0.000000
v -1.200000 -0.380000 1.920000
v -1.680000 -0.380000 -1.200000
v -1.680000 -0.380000 1.200000
v -1.800000 -0.380000 1.920000
v 0.000000 -0.380000 -1.920000
v -1.200000 -0.380000 -1.920000
v -1.800000 -0.380000 -1.920000
v 1.920000 -0.380000 1.200000
v 1.920000 -0.380000 -1.200000
v 1.200000 -0.380000 1.920000
v -0.000000 -0.380000 1.920000
v 1.800000 -0.380000 1.920000
v -1.560000 -0.380000 -0.000000
v 1.200000 -0.380000 -1.920000
v 1.800000 -0.380000 -1.920000
v -1.720976 -0.380000 1.380000
v 1.879024 -0.380000 1.380000
v 1.890769 -0.380000 -1.380000
v -1.709231 -0.380000 -1.380000
v 1.920000 -2.600001 1.200000
v 1.920000 -2.600001 -1.200000
v 1.200000 -2.600001 1.920000
v -0.000000 -2.600001 1.920000
v 1.800000 -2.600001 1.920000
v -1.560000 -2.600001 -0.000000
v 1.200000 -2.600001 -1.920000
v 1.800000 -2.600001 -1.920000
v 1.879024 -2.600001 1.380000
v -1.709231 -2.600001 -1.380000
v 2.040000 -2.600001 0.000000
v -1.200000 -2.600001 1.920000
v -1.680000 -2.600001 -1.200000
v -1.680000 -2.600001 1.200000
v -1.800000 -2.600001 1.920000
v 0.000000 -2.600001 -1.920000
v -1.200000 -2.600001 -1.920000
v -1.800000 -2.600001 -1.920000
v -1.720976 -2.600001 1.380000
v 1.890769 -2.600001 -1.380000
v -1.200000 -3.200000 1.320000
v 1.888337 -3.200000 1.320000
v 1.200000 -3.200000 1.320000
v 1.200000 0.400000 1.320000
v -1.200000 0.400000 1.320000
v -1.711663 -3.200000 1.320000
v -1.711663 0.400000 1.320000
v -0.000000 -3.200000 1.320000
v 1.888337 0.400000 1.320000
v -0.000000 0.400000 1.320000
v -1.711663 -0.320000 1.320000
v 1.888337 -0.320000 1.320000
v 1.888337 -2.660001 1.320000
v -1.711663 -2.660001 1.320000
v 1.888337 -0.380000 1.320000
v -1.711663 -0.380000 1.320000
v 1.888337 -2.600001 1.320000
v -1.711663 -2.600001 1.320000
v 1.902137 -3.200000 -1.320000
v 0.000000 0.400000 -1.320000
v -1.697863 0.400000 -1.320000
v 1.902137 0.400000 -1.320000
v 0.000000 -3.200000 -1.320000
v 1.200000 -3.200000 -1.320000
v -1.200000 -3.200000 -1.320000
v -1.697863 -3.200000 -1.320000
v 1.200000 0.400000 -1.320000
v -1.200000 0.400000 -1.320000
v 1.902137 -0.320000 -1.320000
v -1.697863 -0.320000 -1.320000
v -1.697863 -2.660001 -1.320000
v 1.902137 -2.660001 -1.320000
v -1.697863 -0.380000 -1.320000
v 1.902137 -0.380000 -1.320000
v -1.697863 -2.600001 -1.320000
v 1.902137 -2.600001 -1.320000
v 1.845905 -2.600001 -0.004893
v 1.845905 -0.380000 -0.004893
v 1.725905 -0.380000 1.195107
v 1.725905 -0.380000 -1.204893
v 1.725905 -2.600001 1.195107
v 1.725905 -2.600001 -1.204893
v 1.694242 -0.380000 1.315107
v 1.694242 -2.600001 1.315107
v 1.708042 -0.380000 -1.324893
v 1.708042 -2.600001 -1.324893
v -1.874095 -2.600001 -1.208037
v -1.874095 -0.380000 -1.208037
v -1.874095 -2.600001 1.191963
v -1.874095 -0.380000 1.191963
v -1.754095 -0.380000 -0.008037
v -1.754095 -2.600001 -0.008037
v -1.905758 -0.380000 1.311963
v -1.905758 -2.600001 1.311963
v -1.891958 -0.380000 -1.328037
v -1.891958 -2.600001 -1.328037
vn 0.3827 0.0000 -0.9239
vn 0.9239 0.0000 -0.3827
vn 0.9239 0.0000 0.3827
vn 0.3827 0.0000 0.9239
vn -0.3827 0.0000 0.9239
vn -0.9239 0.0000 0.3827
vn 0.0000 1.0000 0.0000
vn -0.9239 0.0000 -0.3827
vn -0.3827 0.0000 -0.9239
vn 0.0000 -1.0000 -0.0000
vn 0.9895 0.0000 0.1448
vn 0.9950 0.0000 0.0995
vn 0.9950 0.0000 -0.0995
vn 0.0000 0.0000 1.0000
vn -0.9950 0.0000 -0.0995
vn -0.9950 0.0000 0.0995
vn -0.9895 0.0000 -0.1448
vn 0.0000 0.0000 -1.0000
vn -0.9862 0.0000 0.1658
vn 0.9862 0.0000 -0.1658
vn -0.9882 0.0000 -0.1534
vn 0.9882 0.0000 0.1534
vn 0.9825 0.0000 -0.1861
vn -0.9825 0.0000 0.1861
vn 0.0414 0.0000 -0.9991
vn 0.9669 0.0000 0.2551
vn -0.9669 0.0000 -0.2551
vn -0.9891 0.0000 0.1472
vn 0.9891 0.0000 -0.1472
vn -0.0252 0.0000 0.9997
vn 0.0252 0.0000 -0.9997
vn -0.0414 0.0000 0.9991
usemtl None
s off
f 1//1 2//1 4//1 3//1
f 3//2 4//2 6//2 5//2
f 5//3 6//3 8//3 7//3
f 7//4 8//4 10//4 9//4
f 9//5 10//5 12//5 11//5
f 11//6 12//6 14//6 13//6
f 12//7 10//7 21//7 22//7
f 13//8 14//8 16//8 15//8
f 15//9 16//9 2//9 1//9
f 7//7 9//7 37//7 36//7
f 19//6 17//6 25//6 27//6
f 2//7 16//7 24//7 18//7
f 4//7 2//7 18//7 17//7
f 8//7 6//7 19//7 20//7
f 14//7 12//7 22//7 23//7
f 10//7 8//7 20//7 21//7
f 16//7 14//7 23//7 24//7
f 6//7 4//7 17//7 19//7
f 25//7 26//7 32//7 31//7 30//7 29//7 28//7 27//7
f 24//3 23//3 31//3 32//3
f 22//1 21//1 29//1 30//1
f 20//8 19//8 27//8 28//8
f 17//5 18//5 26//5 25//5
f 18//4 24//4 32//4 26//4
f 23//2 22//2 30//2 31//2
f 21//9 20//9 28//9 29//9
f 35//7 36//7 51//7 50//7
f 13//7 15//7 40//7 39//7
f 3//7 5//7 35//7 34//7
f 9//7 11//7 38//7 37//7
f 15//7 1//7 33//7 40//7
f 1//7 3//7 34//7 33//7
f 5//7 7//7 36//7 35//7
f 11//7 13//7 39//7 38//7
f 41//10 42//10 43//10 44//10 45//10 46//10 47//10 48//10
f 130//10 131//10 79//10 76//10
f 127//10 130//10 76//10 74//10
f 38//7 39//7 64//7 63//7
f 117//10 116//10 61//10 58//10
f 124//11 115//11 62//11 87//11
f 48//10 47//10 67//10 68//10
f 113//10 114//10 59//10 60//10
f 105//12 97//12 54//12 53//12
f 98//13 105//13 53//13 52//13
f 44//10 43//10 53//10 54//10
f 34//7 35//7 50//7 49//7
f 43//10 42//10 52//10 53//10
f 129//10 127//10 74//10 75//10
f 99//14 100//14 59//14 58//14
f 99//14 58//14 61//14 101//14
f 100//14 106//14 60//14 59//14
f 119//7 118//7 56//7 55//7
f 113//10 60//10 69//10 121//10
f 114//10 117//10 58//10 59//10
f 115//7 119//7 55//7 62//7
f 118//7 120//7 57//7 56//7
f 108//15 102//15 67//15 66//15
f 102//16 107//16 68//16 67//16
f 126//17 121//17 69//17 109//17
f 47//10 46//10 66//10 67//10
f 85//14 57//14 70//14 91//14
f 128//10 129//10 75//10 78//10
f 39//7 40//7 65//7 64//7
f 185//7 38//7 63//7 187//7
f 110//18 103//18 75//18 74//18
f 111//18 110//18 74//18 76//18
f 92//18 72//18 77//18 95//18
f 111//18 76//18 79//18 112//18
f 133//7 132//7 72//7 71//7
f 135//7 134//7 73//7 80//7
f 134//7 133//7 71//7 73//7
f 138//19 135//19 80//19 96//19
f 140//20 128//20 78//20 104//20
f 132//7 136//7 77//7 72//7
f 136//20 137//20 95//20 77//20
f 160//19 138//19 96//19 148//19
f 73//18 94//18 96//18 80//18
f 155//18 92//18 95//18 156//18
f 73//18 71//18 93//18 94//18
f 71//18 72//18 92//18 93//18
f 142//14 85//14 91//14 145//14
f 122//17 123//17 91//17 70//17
f 64//16 65//16 88//16 89//16
f 63//15 64//15 89//15 90//15
f 56//14 57//14 85//14 86//14
f 55//14 84//14 87//14 62//14
f 55//14 56//14 86//14 84//14
f 49//13 50//13 82//13 83//13
f 50//12 51//12 81//12 82//12
f 158//11 124//11 87//11 153//11
f 116//11 125//11 101//11 61//11
f 60//14 106//14 109//14 69//14
f 75//18 103//18 104//18 78//18
f 131//19 139//19 112//19 79//19
f 180//20 140//20 104//20 168//20
f 177//18 111//18 112//18 178//18
f 177//18 176//18 110//18 111//18
f 176//18 167//18 103//18 110//18
f 179//17 126//17 109//17 175//17
f 166//16 173//16 107//16 102//16
f 174//15 166//15 102//15 108//15
f 164//14 172//14 106//14 100//14
f 163//14 99//14 101//14 165//14
f 163//14 164//14 100//14 99//14
f 162//13 171//13 105//13 98//13
f 171//12 161//12 97//12 105//12
f 198//21 194//21 126//21 179//21
f 182//22 193//22 125//22 116//22
f 195//22 192//22 124//22 158//22
f 187//21 191//21 123//21 122//21
f 57//7 120//7 122//7 70//7
f 194//21 186//21 121//21 126//21
f 190//7 185//7 120//7 118//7
f 189//7 184//7 119//7 115//7
f 188//10 183//10 117//10 114//10
f 181//10 113//10 121//10 186//10
f 184//7 190//7 118//7 119//7
f 181//10 188//10 114//10 113//10
f 192//22 189//22 115//22 124//22
f 183//10 182//10 116//10 117//10
f 216//23 212//23 140//23 180//23
f 206//24 211//24 139//24 131//24
f 213//24 210//24 138//24 160//24
f 202//23 209//23 137//23 136//23
f 207//7 202//7 136//7 132//7
f 212//23 199//23 128//23 140//23
f 210//24 201//24 135//24 138//24
f 208//7 200//7 133//7 134//7
f 201//7 208//7 134//7 135//7
f 200//7 207//7 132//7 133//7
f 199//10 204//10 129//10 128//10
f 204//10 203//10 127//10 129//10
f 203//10 205//10 130//10 127//10
f 205//10 206//10 131//10 130//10
f 215//24 213//24 160//24 170//24
f 209//23 214//23 159//23 137//23
f 197//22 195//22 158//22 169//22
f 191//21 196//21 157//21 123//21
f 82//12 81//12 149//12 141//12
f 83//13 82//13 141//13 150//13
f 84//14 86//14 152//14 151//14
f 84//14 151//14 153//14 87//14
f 86//14 85//14 142//14 152//14
f 90//15 89//15 154//15 144//15
f 89//16 88//16 143//16 154//16
f 123//17 157//17 145//17 91//17
f 93//18 92//18 155//18 146//18
f 94//18 93//18 146//18 147//18
f 94//18 147//18 148//18 96//18
f 137//20 159//20 156//20 95//20
f 169//11 158//11 153//11 165//11
f 172//14 142//14 145//14 175//14
f 167//18 155//18 156//18 168//18
f 170//19 160//19 148//19 178//19
f 139//19 170//19 178//19 112//19
f 103//18 167//18 168//18 104//18
f 106//14 172//14 175//14 109//14
f 125//11 169//11 165//11 101//11
f 193//22 197//22 169//22 125//22
f 211//24 215//24 170//24 139//24
f 214//23 216//23 180//23 159//23
f 196//21 198//21 179//21 157//21
f 197//7 161//7 221//7 224//7
f 162//7 216//7 226//7 222//7
f 151//14 152//14 164//14 163//14
f 151//14 163//14 165//14 153//14
f 152//14 142//14 172//14 164//14
f 144//7 154//7 231//7 230//7
f 166//10 174//10 229//10 232//10
f 157//17 179//17 175//17 145//17
f 146//18 155//18 167//18 176//18
f 147//18 146//18 176//18 177//18
f 147//18 177//18 178//18 148//18
f 159//20 180//20 168//20 156//20
f 213//25 215//25 236//25 235//25
f 97//26 161//26 197//26 193//26
f 90//27 144//27 196//27 191//27
f 141//10 149//10 219//10 218//10
f 44//10 54//10 182//10 183//10
f 81//26 51//26 189//26 192//26
f 46//10 45//10 188//10 181//10
f 36//7 37//7 190//7 184//7
f 46//10 181//10 186//10 66//10
f 45//10 44//10 183//10 188//10
f 51//7 36//7 184//7 189//7
f 37//7 38//7 185//7 190//7
f 108//27 66//27 186//27 194//27
f 63//27 90//27 191//27 187//27
f 149//26 81//26 192//26 195//26
f 54//26 97//26 193//26 182//26
f 174//27 108//27 194//27 198//27
f 120//7 185//7 187//7 122//7
f 161//7 171//7 217//7 221//7
f 107//28 173//28 215//28 211//28
f 83//29 150//29 214//29 209//29
f 143//7 213//7 235//7 228//7
f 48//10 68//10 206//10 205//10
f 41//10 48//10 205//10 203//10
f 42//10 41//10 203//10 204//10
f 52//10 42//10 204//10 199//10
f 33//7 34//7 207//7 200//7
f 65//7 40//7 208//7 201//7
f 40//7 33//7 200//7 208//7
f 88//28 65//28 201//28 210//28
f 98//29 52//29 199//29 212//29
f 34//7 49//7 202//7 207//7
f 49//29 83//29 209//29 202//29
f 143//28 88//28 210//28 213//28
f 68//28 107//28 211//28 206//28
f 162//29 98//29 212//29 216//29
f 218//12 219//12 221//12 217//12
f 220//13 218//13 217//13 222//13
f 221//26 219//26 223//26 224//26
f 220//29 222//29 226//29 225//29
f 171//7 162//7 222//7 217//7
f 150//10 141//10 218//10 220//10
f 216//30 214//30 225//30 226//30
f 214//10 150//10 220//10 225//10
f 149//10 195//10 223//10 219//10
f 195//31 197//31 224//31 223//31
f 230//15 231//15 232//15 229//15
f 231//16 228//16 227//16 232//16
f 230//27 229//27 234//27 233//27
f 227//28 228//28 235//28 236//28
f 174//10 198//10 234//10 229//10
f 173//10 166//10 232//10 227//10
f 154//7 143//7 228//7 231//7
f 198//32 196//32 233//32 234//32
f 215//10 173//10 227//10 236//10
f 196//7 144//7 230//7 233//7
