# Blender v2.79 (sub 0) OBJ File: ''
# www.blender.org
mtllib 890880-66-LP.mtl
o Cylinder_Cylinder.002
v -0.096791 -1.424209 -2.457633
v -0.096791 -0.117216 -2.457633
v 0.610316 -1.424209 -2.164739
v 0.610316 -0.117216 -2.164739
v 0.903209 -1.424209 -1.457633
v 0.903209 -0.117216 -1.457633
v 0.610316 -1.424209 -0.750526
v 0.610316 -0.117216 -0.750526
v -0.096791 -1.424209 -0.457633
v -0.096791 -0.117216 -0.457633
v -0.803898 -1.424209 -0.750526
v -0.803898 -0.117216 -0.750526
v -1.096791 -1.424209 -1.457633
v -1.096791 -0.117216 -1.457633
v -0.803898 -1.424209 -2.164739
v -0.803898 -0.117216 -2.164739
v -0.096791 -1.135995 -2.457633
v 0.610316 -1.135995 -2.164739
v 0.903209 -1.135995 -1.457633
v 0.610316 -1.135995 -0.750526
v -0.096791 -1.135995 -0.457633
v -0.803898 -1.135995 -0.750526
v -1.096791 -1.135995 -1.457633
v -0.803898 -1.135995 -2.164739
v -0.096791 -1.397101 -2.175470
v 0.410797 -1.397101 -1.965221
v 0.410797 -1.190210 -1.965221
v 0.621047 -1.397101 -1.457633
v 0.621047 -1.190210 -1.457633
v 0.410797 -1.397101 -0.950044
v 0.410797 -1.190210 -0.950044
v -0.096791 -1.397101 -0.739795
v -0.096791 -1.190210 -0.739795
v -0.604379 -1.397101 -0.950045
v -0.604379 -1.190210 -0.950045
v -0.814629 -1.397101 -1.457633
v -0.814629 -1.190210 -1.457633
v -0.604379 -1.397101 -1.965220
v -0.604379 -1.190210 -1.965220
v -0.096791 -1.190210 -2.175470
v -0.096791 -1.424209 -4.402280
v 2.692496 -1.424209 -4.246920
v 2.847856 -1.424209 -1.457632
v 2.692496 -1.424209 1.331655
v -0.096792 -1.424209 1.487015
v -2.886079 -1.424209 1.331654
v -3.041439 -1.424209 -1.457633
v -2.886079 -1.424209 -4.246919
v -0.096791 -1.397101 -2.175470
v 0.410797 -1.397101 -1.965221
v 0.621047 -1.397101 -1.457633
v 0.410797 -1.397101 -0.950044
v -0.096791 -1.397101 -0.739795
v -0.604379 -1.397101 -0.950045
v -0.814629 -1.397101 -1.457633
v -0.604379 -1.397101 -1.965220
v -0.096791 -9.424210 -4.402280
v 2.692496 -9.424210 -4.246920
v 2.847856 -9.424210 -1.457632
v 2.692496 -9.424210 1.331655
v -0.096792 -9.424210 1.487015
v -2.886079 -9.424210 1.331654
v -3.041439 -9.424210 -1.457633
v -2.886079 -9.424210 -4.246919
v -0.096791 -9.397101 -2.175470
v 0.410797 -9.397101 -1.965221
v 0.621047 -9.397101 -1.457633
v 0.410797 -9.397101 -0.950044
v -0.096791 -9.397101 -0.739795
v -0.604379 -9.397101 -0.950045
v -0.814629 -9.397101 -1.457633
v -0.604379 -9.397101 -1.965220
v 2.692496 -1.424209 2.331655
v -0.096792 -1.424209 2.487015
v -2.886079 -1.424209 2.331654
v 2.692496 -9.424210 2.331655
v -0.096792 -9.424210 2.487015
v -2.886079 -9.424210 2.331654
v -0.096791 -1.424209 -5.402280
v 2.692496 -1.424209 -5.246920
v -2.886079 -1.424209 -5.246919
v 2.692496 -9.424210 -5.246920
v -0.096791 -9.424210 -5.402280
v -2.886079 -9.424210 -5.246919
v 2.692496 -1.424209 -4.246920
v 2.847856 -1.424209 -1.457632
v 2.692496 -1.424209 1.331655
v 2.692496 -9.424210 -4.246920
v 2.847856 -9.424210 -1.457632
v 2.692496 -9.424210 1.331655
v 2.692496 -1.424209 2.331655
v 2.692496 -9.424210 2.331655
v 2.692496 -1.424209 -5.246920
v 2.692496 -9.424210 -5.246920
v 2.692496 -1.424209 -4.246920
v 2.847856 -1.424209 -1.457632
v 2.692496 -1.424209 1.331655
v 2.692496 -9.424210 -4.246920
v 2.847856 -9.424210 -1.457632
v 2.692496 -9.424210 1.331655
v 2.692496 -1.424209 2.331655
v 2.692496 -9.424210 2.331655
v 2.692496 -1.424209 -5.246920
v 2.692496 -9.424210 -5.246920
v 3.040843 -1.424209 -4.246920
v 3.196203 -1.424209 -1.457632
v 3.040843 -1.424209 1.331655
v 3.040843 -9.424210 -4.246920
v 3.196203 -9.424210 -1.457632
v 3.040843 -9.424210 1.331655
v 3.040843 -1.424209 2.331655
v 3.040843 -9.424210 2.331655
v 3.040843 -1.424209 -5.246920
v 3.040843 -9.424210 -5.246920
v -3.635720 -1.424209 1.331654
v -3.987620 -1.424209 -1.457633
v -3.635720 -1.424209 -4.246919
v -3.987620 -9.424210 -1.457633
v -3.635720 -9.424210 -4.246919
v -3.635720 -9.424210 1.331654
v -3.197895 -1.424209 2.331654
v -3.197895 -9.424210 2.331654
v -3.197895 -1.424209 -5.246919
v -3.197895 -9.424210 -5.246919
v 2.692496 -1.820094 2.331655
v -0.096792 -1.820094 2.487015
v -2.886079 -1.820094 2.331654
v 2.692496 -1.820094 -5.246920
v -0.096791 -1.820094 -5.402280
v -2.886079 -1.820094 -5.246919
v 2.692496 -1.820094 2.331655
v 2.692496 -1.820094 -5.246920
v 2.692496 -1.820094 2.331655
v 2.692496 -1.820094 -5.246920
v 3.040843 -1.820094 -4.246920
v 3.196203 -1.820094 -1.457632
v 3.040843 -1.820094 1.331655
v 3.040843 -1.820094 2.331655
v 3.040843 -1.820094 -5.246920
v -3.987620 -1.820094 -1.457633
v -3.635720 -1.820094 -4.246919
v -3.635720 -1.820094 1.331654
v -3.197895 -1.820094 2.331654
v -3.197895 -1.820094 -5.246919
v 2.692496 -9.008866 2.331655
v -0.096792 -9.008866 2.487015
v -2.886079 -9.008866 2.331654
v 2.692496 -9.008866 -5.246920
v -0.096791 -9.008866 -5.402280
v -2.886079 -9.008866 -5.246919
v 2.692496 -9.008866 2.331655
v 2.692496 -9.008866 -5.246920
v 2.692496 -9.008866 2.331655
v 2.692496 -9.008866 -5.246920
v 3.040843 -9.008866 -4.246920
v 3.196203 -9.008866 -1.457632
v 3.040843 -9.008866 1.331655
v 3.040843 -9.008866 2.331655
v 3.040843 -9.008866 -5.246920
v -3.635720 -9.008866 -4.246919
v -3.635720 -9.008866 1.331654
v -3.197895 -9.008866 2.331654
v -3.197895 -9.008866 -5.246919
v -3.987620 -9.008866 -1.457633
v -3.987620 -2.754741 -1.457633
v 2.692496 -2.754741 2.331655
v -0.096792 -2.754741 2.487015
v -2.886079 -2.754741 2.331654
v 2.692496 -2.754741 -5.246920
v -0.096791 -2.754741 -5.402280
v -2.886079 -2.754741 -5.246919
v 2.692496 -2.754741 2.331655
v 2.692496 -2.754741 -5.246920
v 2.692496 -2.754741 2.331655
v 2.692496 -2.754741 -5.246920
v 3.040843 -2.754741 -4.246920
v 3.196203 -2.754741 -1.457632
v 3.040843 -2.754741 1.331655
v 3.040843 -2.754741 2.331655
v 3.040843 -2.754741 -5.246920
v -3.635720 -2.754741 -4.246919
v -3.635720 -2.754741 1.331654
v -3.197895 -2.754741 2.331654
v -3.197895 -2.754741 -5.246919
v 2.692496 -8.041870 2.331655
v -0.096792 -8.041870 2.487015
v -2.886079 -8.041870 2.331654
v 2.692496 -8.041870 -5.246920
v -0.096791 -8.041870 -5.402280
v -2.886079 -8.041870 -5.246919
v 2.692496 -8.041870 2.331655
v 2.692496 -8.041870 -5.246920
v 2.692496 -8.041870 2.331655
v 2.692496 -8.041870 -5.246920
v 3.040843 -8.041870 -4.246920
v 3.196203 -8.041870 -1.457632
v 3.040843 -8.041870 1.331655
v 3.040843 -8.041870 2.331655
v 3.040843 -8.041870 -5.246920
v -3.635720 -8.041870 -4.246919
v -3.635720 -8.041870 1.331654
v -3.197895 -8.041870 2.331654
v -3.197895 -8.041870 -5.246919
v -3.987620 -8.041870 -1.457633
v -4.257813 -8.041870 -1.457633
v -4.257813 -2.754741 -1.457633
v -3.905913 -2.754741 -4.246919
v -3.905913 -2.754741 1.331654
v -3.905913 -8.041870 -4.246919
v -3.905913 -8.041870 1.331654
v -4.186292 -8.041870 -1.457633
v -3.834392 -8.041870 -4.246919
v -3.834392 -2.754741 -4.246919
v -4.186292 -2.754741 -1.457633
v -3.834392 -8.041870 1.331654
v -3.834392 -2.754741 1.331654
v -3.685388 -8.041870 -4.246919
v -3.685388 -2.754741 -4.246919
v -4.037288 -2.754741 -1.457633
v -4.037288 -8.041870 -1.457633
v -3.685388 -8.041870 1.331654
v -3.685388 -2.754741 1.331654
v 2.692496 -2.889320 2.331655
v -0.096792 -2.889320 2.487015
v -2.886079 -2.889320 2.331654
v 2.692496 -2.889320 -5.246920
v -0.096791 -2.889320 -5.402280
v -2.886079 -2.889320 -5.246919
v 2.692496 -2.889320 2.331655
v 2.692496 -2.889320 -5.246920
v 2.692496 -2.889320 2.331655
v 2.692496 -2.889320 -5.246920
v 3.040843 -2.889320 -4.246920
v 3.196203 -2.889320 -1.457632
v 3.040843 -2.889320 1.331655
v 3.040843 -2.889320 2.331655
v 3.040843 -2.889320 -5.246920
v -3.635720 -2.889320 -4.246919
v -3.635720 -2.889320 1.331654
v -3.197895 -2.889320 2.331654
v -3.197895 -2.889320 -5.246919
v -4.257813 -2.889320 -1.457633
v -3.905913 -2.889320 -4.246919
v -3.905913 -2.889320 1.331654
v -3.834392 -2.889320 1.331654
v -3.834392 -2.889320 -4.246919
v -3.685388 -2.889320 -4.246919
v -3.685388 -2.889320 1.331654
v 2.692496 -7.968113 2.331655
v -0.096792 -7.968113 2.487015
v -2.886079 -7.968113 2.331654
v 2.692496 -7.968113 -5.246920
v -0.096791 -7.968113 -5.402280
v -2.886079 -7.968113 -5.246919
v 2.692496 -7.968113 2.331655
v 2.692496 -7.968113 -5.246920
v 2.692496 -7.968113 2.331655
v 2.692496 -7.968113 -5.246920
v 3.040843 -7.968113 -4.246920
v 3.196203 -7.968113 -1.457632
v 3.040843 -7.968113 1.331655
v 3.040843 -7.968113 2.331655
v 3.040843 -7.968113 -5.246920
v -3.635720 -7.968113 -4.246919
v -3.635720 -7.968113 1.331654
v -3.197895 -7.968113 2.331654
v -3.197895 -7.968113 -5.246919
v -3.905913 -7.968113 -4.246919
v -3.905913 -7.968113 1.331654
v -3.834392 -7.968113 1.331654
v -3.685388 -7.968113 1.331654
v -4.257813 -7.968113 -1.457633
v -3.834392 -7.968113 -4.246919
v -3.685388 -7.968113 -4.246919
v -0.096791 -0.117216 -1.457633
v -0.096791 -0.205776 -2.457633
v 0.610316 -0.205776 -2.164739
v 0.903209 -0.205776 -1.457633
v 0.610316 -0.205776 -0.750526
v -0.096791 -0.205776 -0.457633
v -0.803898 -0.205776 -0.750526
v -1.096791 -0.205776 -1.457633
v -0.803898 -0.205776 -2.164739
v 0.610316 -1.110557 -2.164739
v 0.903209 -1.110557 -1.457633
v 0.610316 -1.110557 -0.750526
v -0.096791 -1.110557 -0.457633
v -0.803898 -1.110557 -0.750526
v -1.096791 -1.110557 -1.457633
v -0.803898 -1.110557 -2.164739
v -0.096791 -1.110557 -2.457633
vn 0.3827 0.0000 -0.9239
vn 0.9239 0.0000 -0.3827
vn 0.9239 0.0000 0.3827
vn 0.3827 0.0000 0.9239
vn -0.3827 0.0000 0.9239
vn -0.9239 0.0000 0.3827
vn 0.0000 1.0000 0.0000
vn -0.9239 0.0000 -0.3827
vn -0.3827 0.0000 -0.9239
vn -0.0396 0.9946 -0.0956
vn 0.0956 0.9946 0.0396
vn 0.0779 -0.9791 0.1881
vn -0.0396 0.9946 0.0956
vn -0.0779 -0.9791 0.1881
vn -0.1881 -0.9791 0.0779
vn -0.0956 0.9946 -0.0396
vn 0.0956 0.9946 -0.0396
vn 0.1881 -0.9791 0.0779
vn 0.0396 0.9946 -0.0956
vn 0.1881 -0.9791 -0.0779
vn -0.0956 0.9946 0.0396
vn 0.0779 -0.9791 -0.1881
vn -0.0779 -0.9791 -0.1881
vn 0.0396 0.9946 0.0956
vn -0.1881 -0.9791 -0.0779
vn 0.0000 -1.0000 0.0000
vn 0.0000 0.0000 1.0000
vn 0.0114 -0.9999 0.0013
vn 0.0013 -0.9999 -0.0114
vn -0.0114 -0.9999 -0.0013
vn -0.0013 -0.9999 0.0114
vn 0.0013 -0.9999 0.0114
vn 0.0114 -0.9999 -0.0013
vn -0.0013 -0.9999 -0.0114
vn -0.0114 -0.9999 0.0013
vn 0.0000 0.0000 -1.0000
vn 0.0556 0.0000 0.9985
vn -0.0556 0.0000 0.9985
vn 0.0556 0.0000 -0.9985
vn -0.0556 0.0000 -0.9985
vn 0.9985 0.0000 -0.0556
vn 0.9985 0.0000 0.0556
vn 1.0000 0.0000 0.0000
vn -0.9921 0.0000 -0.1252
vn -0.9921 0.0000 0.1252
vn -0.9160 0.0000 0.4011
vn -0.9160 0.0000 -0.4011
usemtl None
s off
f 276//1 2//1 4//1 277//1
f 277//2 4//2 6//2 278//2
f 278//3 6//3 8//3 279//3
f 279//4 8//4 10//4 280//4
f 280//5 10//5 12//5 281//5
f 281//6 12//6 14//6 282//6
f 275//7 14//7 12//7 10//7
f 282//8 14//8 16//8 283//8
f 283//9 16//9 2//9 276//9
f 11//7 13//7 47//7 46//7
f 1//10 15//10 38//10 25//10
f 7//11 5//11 28//11 30//11
f 20//12 21//12 33//12 31//12
f 11//13 9//13 32//13 34//13
f 21//14 22//14 35//14 33//14
f 22//15 23//15 37//15 35//15
f 15//16 13//16 36//16 38//16
f 5//17 3//17 26//17 28//17
f 38//9 39//9 40//9 25//9
f 36//8 37//8 39//8 38//8
f 34//6 35//6 37//6 36//6
f 32//5 33//5 35//5 34//5
f 30//4 31//4 33//4 32//4
f 28//3 29//3 31//3 30//3
f 26//2 27//2 29//2 28//2
f 25//1 40//1 27//1 26//1
f 19//18 20//18 31//18 29//18
f 3//19 1//19 25//19 26//19
f 18//20 19//20 29//20 27//20
f 13//21 11//21 34//21 36//21
f 17//22 18//22 27//22 40//22
f 24//23 17//23 40//23 39//23
f 9//24 7//24 30//24 32//24
f 23//25 24//25 39//25 37//25
f 50//5 49//5 65//5 66//5
f 7//7 9//7 45//7 44//7
f 13//7 15//7 48//7 47//7
f 3//7 5//7 43//7 42//7
f 9//7 11//7 46//7 45//7
f 15//7 1//7 41//7 48//7
f 1//7 3//7 42//7 41//7
f 5//7 7//7 44//7 43//7
f 49//26 50//26 51//26 52//26 53//26 54//26 55//26 56//26
f 44//27 73//27 91//27 87//27
f 49//4 56//4 72//4 65//4
f 57//26 64//26 84//26 83//26
f 56//3 55//3 71//3 72//3
f 58//26 57//26 83//26 82//26
f 55//2 54//2 70//2 71//2
f 48//7 81//7 123//7 117//7
f 63//28 64//28 72//28 71//28
f 61//29 62//29 70//29 69//29
f 59//30 60//30 68//30 67//30
f 57//31 58//31 66//31 65//31
f 64//32 57//32 65//32 72//32
f 62//33 63//33 71//33 70//33
f 60//34 61//34 69//34 68//34
f 58//35 59//35 67//35 66//35
f 145//27 76//27 92//27 151//27
f 51//6 50//6 66//6 67//6
f 61//26 60//26 76//26 77//26
f 52//8 51//8 67//8 68//8
f 45//7 46//7 75//7 74//7
f 53//9 52//9 68//9 69//9
f 150//36 84//36 124//36 163//36
f 54//1 53//1 69//1 70//1
f 145//37 146//37 77//37 76//37
f 146//38 147//38 78//38 77//38
f 46//7 47//7 116//7 115//7
f 60//27 59//27 89//27 90//27
f 44//7 45//7 74//7 73//7
f 62//26 61//26 77//26 78//26
f 149//39 148//39 82//39 83//39
f 150//40 149//40 83//40 84//40
f 41//7 42//7 80//7 79//7
f 64//26 63//26 118//26 119//26
f 48//7 41//7 79//7 81//7
f 80//27 42//27 85//27 93//27
f 92//27 90//27 100//27 102//27
f 86//27 87//27 97//27 96//27
f 88//27 94//27 104//27 98//27
f 90//27 89//27 99//27 100//27
f 76//27 60//27 90//27 92//27
f 42//27 43//27 86//27 85//27
f 58//27 82//27 94//27 88//27
f 43//27 44//27 87//27 86//27
f 59//27 58//27 88//27 89//27
f 128//27 80//27 93//27 132//27
f 103//7 95//7 105//7 113//7
f 102//26 100//26 110//26 112//26
f 96//7 97//7 107//7 106//7
f 98//26 104//26 114//26 108//26
f 93//27 85//27 95//27 103//27
f 87//27 91//27 101//27 97//27
f 89//27 88//27 98//27 99//27
f 132//27 93//27 103//27 134//27
f 85//27 86//27 96//27 95//27
f 151//27 92//27 102//27 153//27
f 155//41 156//41 109//41 108//41
f 156//42 157//42 110//42 109//42
f 137//43 107//43 111//43 138//43
f 155//43 108//43 114//43 159//43
f 97//7 101//7 111//7 107//7
f 99//26 98//26 108//26 109//26
f 134//36 103//36 113//36 139//36
f 95//7 96//7 106//7 105//7
f 153//27 102//27 112//27 158//27
f 100//26 99//26 109//26 110//26
f 164//44 160//44 119//44 118//44
f 161//45 164//45 118//45 120//45
f 161//46 120//46 122//46 162//46
f 141//47 117//47 123//47 144//47
f 127//27 75//27 121//27 143//27
f 75//7 46//7 115//7 121//7
f 84//26 64//26 119//26 124//26
f 47//7 48//7 117//7 116//7
f 62//26 78//26 122//26 120//26
f 63//26 62//26 120//26 118//26
f 168//27 127//27 143//27 183//27
f 181//47 141//47 144//47 184//47
f 115//46 142//46 143//46 121//46
f 115//45 116//45 140//45 142//45
f 116//44 117//44 141//44 140//44
f 101//27 133//27 138//27 111//27
f 175//36 134//36 139//36 180//36
f 105//43 135//43 139//43 113//43
f 178//43 137//43 138//43 179//43
f 106//42 107//42 137//42 136//42
f 105//41 106//41 136//41 135//41
f 91//27 131//27 133//27 101//27
f 173//27 132//27 134//27 175//27
f 169//27 128//27 132//27 173//27
f 81//40 79//40 129//40 130//40
f 79//39 80//39 128//39 129//39
f 74//38 75//38 127//38 126//38
f 73//37 74//37 126//37 125//37
f 81//36 130//36 144//36 123//36
f 73//27 125//27 131//27 91//27
f 82//27 148//27 152//27 94//27
f 94//27 152//27 154//27 104//27
f 110//43 157//43 158//43 112//43
f 104//36 154//36 159//36 114//36
f 119//47 160//47 163//47 124//47
f 78//27 147//27 162//27 122//27
f 201//46 161//46 162//46 202//46
f 201//45 204//45 164//45 161//45
f 204//44 200//44 160//44 164//44
f 193//27 153//27 158//27 198//27
f 195//43 155//43 159//43 199//43
f 196//42 197//42 157//42 156//42
f 195//41 196//41 156//41 155//41
f 191//27 151//27 153//27 193//27
f 190//40 189//40 149//40 150//40
f 189//39 188//39 148//39 149//39
f 186//38 187//38 147//38 146//38
f 185//37 186//37 146//37 145//37
f 190//36 150//36 163//36 203//36
f 185//27 145//27 151//27 191//27
f 125//27 166//27 172//27 131//27
f 130//36 171//36 184//36 144//36
f 125//37 126//37 167//37 166//37
f 126//38 127//38 168//38 167//38
f 129//39 128//39 169//39 170//39
f 130//40 129//40 170//40 171//40
f 131//27 172//27 174//27 133//27
f 135//41 136//41 177//41 176//41
f 136//42 137//42 178//42 177//42
f 135//43 176//43 180//43 139//43
f 133//27 174//27 179//27 138//27
f 140//44 141//44 181//44 165//44
f 142//45 140//45 165//45 182//45
f 142//46 182//46 183//46 143//46
f 226//27 169//27 173//27 230//27
f 230//27 173//27 175//27 232//27
f 235//43 178//43 179//43 236//43
f 232//36 175//36 180//36 237//36
f 238//47 181//47 184//47 241//47
f 225//27 168//27 183//27 240//27
f 147//27 187//27 202//27 162//27
f 160//47 200//47 203//47 163//47
f 154//36 194//36 199//36 159//36
f 157//43 197//43 198//43 158//43
f 152//27 192//27 194//27 154//27
f 148//27 188//27 192//27 152//27
f 249//27 185//27 191//27 255//27
f 254//36 190//36 203//36 267//36
f 249//37 250//37 186//37 185//37
f 250//38 251//38 187//38 186//38
f 253//39 252//39 188//39 189//39
f 254//40 253//40 189//40 190//40
f 255//27 191//27 193//27 257//27
f 259//41 260//41 196//41 195//41
f 260//42 261//42 197//42 196//42
f 259//43 195//43 199//43 263//43
f 257//27 193//27 198//27 262//27
f 273//36 212//36 209//36 268//36
f 212//26 211//26 205//26 209//26
f 265//46 201//46 202//46 266//46
f 272//44 268//44 209//44 205//44
f 269//45 272//45 205//45 210//45
f 214//7 213//7 207//7 206//7
f 211//26 215//26 210//26 205//26
f 245//27 216//27 208//27 244//27
f 216//7 214//7 206//7 208//7
f 222//7 219//7 214//7 216//7
f 248//27 222//27 216//27 245//27
f 220//26 221//26 215//26 211//26
f 219//7 218//7 213//7 214//7
f 217//26 220//26 211//26 212//26
f 274//36 217//36 212//36 273//36
f 264//36 200//36 217//36 274//36
f 200//26 204//26 220//26 217//26
f 165//7 181//7 218//7 219//7
f 204//26 201//26 221//26 220//26
f 239//27 182//27 222//27 248//27
f 182//7 165//7 219//7 222//7
f 265//27 239//27 248//27 271//27
f 181//36 238//36 247//36 218//36
f 218//36 247//36 246//36 213//36
f 271//27 248//27 245//27 270//27
f 270//27 245//27 244//27 269//27
f 208//45 206//45 242//45 244//45
f 206//44 207//44 243//44 242//44
f 182//46 239//46 240//46 183//46
f 213//36 246//36 243//36 207//36
f 174//27 231//27 236//27 179//27
f 176//43 233//43 237//43 180//43
f 177//42 178//42 235//42 234//42
f 176//41 177//41 234//41 233//41
f 172//27 229//27 231//27 174//27
f 171//40 170//40 227//40 228//40
f 170//39 169//39 226//39 227//39
f 167//38 168//38 225//38 224//38
f 166//37 167//37 224//37 223//37
f 171//36 228//36 241//36 184//36
f 166//27 223//27 229//27 172//27
f 251//27 225//27 240//27 266//27
f 264//47 238//47 241//47 267//47
f 258//36 232//36 237//36 263//36
f 261//43 235//43 236//43 262//43
f 256//27 230//27 232//27 258//27
f 252//27 226//27 230//27 256//27
f 188//27 252//27 256//27 192//27
f 192//27 256//27 258//27 194//27
f 197//43 261//43 262//43 198//43
f 194//36 258//36 263//36 199//36
f 200//47 264//47 267//47 203//47
f 187//27 251//27 266//27 202//27
f 215//27 270//27 269//27 210//27
f 221//27 271//27 270//27 215//27
f 201//27 265//27 271//27 221//27
f 238//36 264//36 274//36 247//36
f 247//36 274//36 273//36 246//36
f 244//45 242//45 272//45 269//45
f 242//44 243//44 268//44 272//44
f 239//46 265//46 266//46 240//46
f 246//36 273//36 268//36 243//36
f 231//27 257//27 262//27 236//27
f 233//43 259//43 263//43 237//43
f 234//42 235//42 261//42 260//42
f 233//41 234//41 260//41 259//41
f 229//27 255//27 257//27 231//27
f 228//40 227//40 253//40 254//40
f 227//39 226//39 252//39 253//39
f 224//38 225//38 251//38 250//38
f 223//37 224//37 250//37 249//37
f 228//36 254//36 267//36 241//36
f 223//27 249//27 255//27 229//27
f 2//7 16//7 14//7 275//7
f 6//7 275//7 10//7 8//7
f 4//7 2//7 275//7 6//7
f 290//9 283//9 276//9 291//9
f 289//8 282//8 283//8 290//8
f 288//6 281//6 282//6 289//6
f 287//5 280//5 281//5 288//5
f 286//4 279//4 280//4 287//4
f 285//3 278//3 279//3 286//3
f 284//2 277//2 278//2 285//2
f 291//1 276//1 277//1 284//1
f 17//1 291//1 284//1 18//1
f 18//2 284//2 285//2 19//2
f 19//3 285//3 286//3 20//3
f 20//4 286//4 287//4 21//4
f 21//5 287//5 288//5 22//5
f 22//6 288//6 289//6 23//6
f 23//8 289//8 290//8 24//8
f 24//9 290//9 291//9 17//9
