# 3ds Max Wavefront OBJ Exporter v0.97b - (c)2007 guruware
# File Created: 04.07.2019 11:06:38

mtllib 892759-LP-02.mtl

#
# object Plane001
#

v  -1660.6266 0.0000 -835.9476
v  -1660.6266 0.0000 1264.0524
v  1339.3734 0.0000 1264.0524
v  1339.3734 0.0000 -835.9476
# 4 vertices

vn 0.0000 1.0000 -0.0000
# 1 vertex normals

vt 0.0000 2100.0000 0.0000
vt 0.0000 0.0000 0.0000
vt 3000.0000 0.0000 0.0000
vt 3000.0000 2100.0000 0.0000
# 4 texture coords

g Plane001
usemtl wire_088144225
s 1
f 1/1/1 2/2/1 3/3/1 4/4/1 
# 1 polygons

#
# object Plane002
#

v  -1660.6266 954.3521 -870.0727
v  -1660.6266 -1145.6479 -870.0728
v  1339.3734 -1145.6479 -870.0728
v  1339.3734 954.3521 -870.0727
# 4 vertices

vn 0.0000 -0.0000 1.0000
# 1 vertex normals

vt 0.0000 2100.0000 0.0000
vt 0.0000 0.0000 0.0000
vt 3000.0000 0.0000 0.0000
vt 3000.0000 2100.0000 0.0000
# 4 texture coords

g Plane002
usemtl wire_088144225
s 1
f 5/5/2 6/6/2 7/7/2 8/8/2 
# 1 polygons

#
# object Box001
#

v  -1301.2834 0.0000 556.9864
v  -1301.2834 0.0000 688.5037
v  -1381.2506 0.0000 668.7062
v  -1381.2506 0.0000 536.3648
v  -1301.2834 707.9642 688.5037
v  -1381.2506 707.9642 668.7061
v  -1381.2506 707.9642 801.0475
v  -1301.2834 707.9642 820.0211
v  -1152.7729 580.1393 920.9341
v  -1301.2834 580.1393 920.9341
v  -1301.2834 118.5939 920.9341
v  -1152.7729 118.5939 920.9341
v  -798.5441 580.1393 615.9385
v  -798.5441 118.5939 615.9385
v  -798.5441 118.5939 492.4280
v  -798.5441 580.1393 492.4280
v  -1152.7729 580.1393 456.0733
v  -1004.2625 580.1393 456.0733
v  -1004.2625 118.5939 456.0733
v  -1152.7729 118.5939 456.0733
v  -1507.0018 580.1393 615.9385
v  -1507.0018 118.5939 615.9385
v  -1507.0018 118.5939 739.4490
v  -1507.0018 580.1393 739.4490
v  -798.5441 0.0000 615.9385
v  -924.2953 0.0000 668.7061
v  -924.2953 0.0000 536.3647
v  -798.5441 0.0000 492.4280
v  -1004.2625 0.0000 688.5037
v  -1152.7729 0.0000 688.5037
v  -1152.7729 0.0000 556.9864
v  -1004.2625 0.0000 556.9864
v  -1507.0018 0.0000 739.4490
v  -1507.0018 0.0000 615.9385
v  -1381.2506 0.0000 801.0475
v  -798.5441 707.9642 739.4490
v  -798.5441 707.9642 615.9385
v  -924.2953 707.9642 668.7062
v  -924.2953 707.9642 801.0475
v  -1091.0657 790.7903 688.3907
v  -1152.7729 790.7903 688.5037
v  -1152.6648 790.7903 746.8660
v  -1107.7344 790.7903 731.0717
v  -1507.0018 707.9642 615.9385
v  -1381.2506 707.9642 536.3647
v  -1507.0018 707.9642 492.4280
v  -798.5441 580.1393 928.0439
v  -924.2953 580.1393 1003.1268
v  -924.2953 118.5939 1003.1268
v  -798.5441 118.5939 928.0439
v  -924.2953 580.1393 903.2189
v  -1004.2625 580.1393 920.9341
v  -1004.2625 118.5939 920.9341
v  -924.2953 118.5939 903.2189
v  -1507.0018 118.5939 928.0439
v  -1381.2506 118.5939 1003.1268
v  -1381.2506 580.1393 1003.1268
v  -1507.0018 580.1393 928.0439
v  -1507.0018 580.1393 303.8331
v  -1381.2506 580.1393 334.2856
v  -1381.2506 118.5939 334.2856
v  -1507.0018 118.5939 303.8331
v  -1381.2506 580.1393 434.1935
v  -1301.2834 580.1393 456.0733
v  -1301.2834 118.5939 456.0733
v  -1381.2506 118.5939 434.1935
v  -798.5441 118.5939 303.8331
v  -924.2953 118.5939 334.2856
v  -924.2953 580.1393 334.2856
v  -798.5441 580.1393 303.8331
v  -1152.7729 707.9642 1020.8420
v  -1301.2834 707.9642 1020.8420
v  -1301.2834 580.1393 1020.8420
v  -1152.7729 580.1393 1020.8420
v  -1381.2506 0.0000 1003.1268
v  -1301.2834 0.0000 1020.8420
v  -1301.2834 118.5939 1020.8420
v  -798.5441 707.9642 492.4280
v  -798.5441 118.5939 739.4490
v  -798.5441 0.0000 739.4490
v  -1152.7729 707.9642 356.1654
v  -1004.2625 707.9642 356.1654
v  -1004.2625 580.1393 356.1654
v  -1152.7729 580.1393 356.1654
v  -924.2953 0.0000 334.2856
v  -1004.2625 0.0000 356.1654
v  -1004.2625 118.5939 356.1654
v  -1507.0018 707.9642 739.4490
v  -1507.0018 118.5939 492.4280
v  -1507.0018 0.0000 492.4280
v  -798.5441 707.9642 928.0439
v  -924.2953 707.9642 1003.1268
v  -924.2953 0.0000 1003.1268
v  -798.5441 0.0000 928.0439
v  -1004.2625 707.9642 1020.8420
v  -1004.2625 580.1393 1020.8420
v  -1152.7729 0.0000 1020.8420
v  -1004.2625 0.0000 1020.8420
v  -1004.2625 118.5939 1020.8420
v  -1152.7729 118.5939 1020.8420
v  -1507.0018 0.0000 928.0439
v  -1381.2506 707.9642 1003.1268
v  -1507.0018 707.9642 928.0439
v  -1507.0018 707.9642 303.8331
v  -1381.2506 707.9642 334.2856
v  -1381.2506 0.0000 334.2856
v  -1507.0018 0.0000 303.8331
v  -1301.2834 707.9642 356.1654
v  -1301.2834 580.1393 356.1654
v  -1152.7729 0.0000 356.1654
v  -1301.2834 0.0000 356.1654
v  -1301.2834 118.5939 356.1654
v  -1152.7729 118.5939 356.1654
v  -798.5441 0.0000 303.8331
v  -924.2953 707.9642 334.2856
v  -798.5441 707.9642 303.8331
v  -1381.2506 118.5939 903.2189
v  -1381.2506 580.1393 903.2189
v  -924.2953 118.5939 434.1935
v  -924.2953 580.1393 434.1935
v  -1212.5331 790.7903 688.3890
v  -1195.5381 790.7903 731.1672
v  -1004.2625 707.9642 688.5037
v  -1004.2625 707.9642 820.0211
v  -1301.2834 0.0000 820.0211
v  -1301.2834 707.9642 556.9864
v  -798.5441 580.1393 739.4490
v  -1507.0018 580.1393 492.4280
v  -924.2953 0.0000 801.0475
v  -1152.7729 0.0000 820.0211
v  -1004.2625 0.0000 820.0211
v  -924.2953 707.9642 536.3648
v  -1152.7729 707.9642 556.9864
v  -1004.2625 707.9642 556.9864
v  -1152.7729 707.9642 820.0211
v  -1229.3783 707.9642 688.5037
v  -1207.5326 707.9642 631.2542
v  -1152.7729 707.9642 763.5431
v  -1207.5326 707.9642 743.4919
v  -1095.7329 707.9642 743.4919
v  -1074.2578 707.9642 688.5037
v  -1152.7729 707.9642 608.8610
v  -1095.7329 707.9642 631.2542
v  -1107.9755 790.7903 643.3116
v  -1152.6538 790.7903 625.7715
v  -1195.2926 790.7903 643.2080
v  -1229.3783 907.6908 688.5037
v  -1207.5326 907.6908 631.2542
v  -1207.5326 907.6908 743.4919
v  -1152.7729 907.6908 763.5431
v  -1095.7329 907.6908 743.4919
v  -1074.2578 907.6908 688.5037
v  -1095.7329 907.6908 631.2542
v  -1152.7729 907.6908 608.8610
v  -1212.5331 907.6908 688.3890
v  -1195.2926 907.6908 643.2080
v  -1195.5381 907.6908 731.1672
v  -1152.6648 907.6908 746.8660
v  -1107.7344 907.6908 731.0717
v  -1091.0657 907.6908 688.3907
v  -1107.9755 907.6908 643.3116
v  -1152.6538 907.6908 625.7715
# 162 vertices

vn 0.0000 -1.0000 -0.0000
vn 0.0000 1.0000 -0.0000
vn 0.0000 0.0000 1.0000
vn -0.1088 0.0000 0.9941
vn 1.0000 0.0000 -0.0000
vn 0.0000 0.0000 -1.0000
vn -0.1331 -0.0000 -0.9911
vn -1.0000 0.0000 -0.0000
vn 0.5126 -0.0000 0.8586
vn 0.4186 -0.0000 0.9082
vn 0.5126 0.0000 0.8586
vn 0.2163 -0.0000 0.9763
vn 0.1088 -0.0000 0.9941
vn -0.5126 0.0000 0.8586
vn -0.4186 0.0000 0.9082
vn 0.2354 0.0000 -0.9719
vn 0.2449 0.0000 -0.9695
vn 0.2639 0.0000 -0.9645
vn 0.1331 0.0000 -0.9911
vn -0.2354 -0.0000 -0.9719
vn -0.2449 -0.0000 -0.9695
vn -0.2354 0.0000 -0.9719
vn -0.3692 0.0000 0.9294
vn -0.1331 0.0000 -0.9911
vn -0.2497 0.0000 -0.9683
vn 0.3692 0.0000 0.9294
vn 0.1088 0.0000 0.9941
vn 0.2497 0.0000 -0.9683
vn 1.0000 -0.0000 -0.0000
vn -1.0000 -0.0000 -0.0000
vn -0.0000 1.0000 -0.0000
vn -0.2163 0.0000 0.9763
vn -0.2639 -0.0000 -0.9645
vn -0.9343 0.0000 -0.3565
vn -0.9293 0.0000 0.3692
vn -0.3438 0.0000 0.9390
vn 0.3316 0.0000 0.9434
vn 0.9315 0.0000 0.3638
vn 0.9363 0.0000 -0.3512
vn 0.3654 0.0000 -0.9308
vn -0.3785 0.0000 -0.9256
vn 0.9343 0.0000 0.3565
vn 0.9293 0.0000 -0.3692
vn 0.3438 0.0000 -0.9390
vn -0.3316 0.0000 -0.9434
vn -0.9315 0.0000 -0.3638
vn -0.9363 0.0000 0.3512
vn -0.3654 0.0000 0.9308
vn 0.3785 0.0000 0.9256
# 49 vertex normals

vt -204.7184 463.8557 0.0000
vt -204.7184 332.3383 0.0000
vt -124.7512 332.3383 0.0000
vt -124.7512 463.8557 0.0000
vt 205.7184 332.3383 0.0000
vt 125.7512 332.3383 0.0000
vt 125.7512 200.8210 0.0000
vt 205.7184 200.8210 0.0000
vt 354.2289 580.1393 0.0000
vt 205.7184 580.1393 0.0000
vt 205.7184 118.5939 0.0000
vt 354.2289 118.5939 0.0000
vt 332.3383 580.1393 0.0000
vt 332.3383 118.5939 0.0000
vt 463.8557 118.5939 0.0000
vt 463.8557 580.1393 0.0000
vt -707.4578 332.3383 0.0000
vt -581.7065 332.3383 0.0000
vt -581.7065 463.8557 0.0000
vt -707.4578 463.8557 0.0000
vt -501.7394 332.3383 0.0000
vt -353.2289 332.3383 0.0000
vt -353.2289 463.8557 0.0000
vt -501.7394 463.8557 0.0000
vt 1.0000 200.8210 0.0000
vt 1.0000 332.3383 0.0000
vt -124.7512 200.8210 0.0000
vt 708.4578 200.8210 0.0000
vt 708.4578 332.3383 0.0000
vt 582.7065 332.3383 0.0000
vt 582.7065 200.8210 0.0000
vt 502.7394 332.3383 0.0000
vt 354.2289 332.3383 0.0000
vt 354.2289 200.8210 0.0000
vt 502.7394 200.8210 0.0000
vt 0.0000 332.3383 0.0000
vt 125.7512 463.8557 0.0000
vt 0.0000 463.8557 0.0000
vt 708.4578 580.1393 0.0000
vt 582.7065 580.1393 0.0000
vt 582.7065 118.5939 0.0000
vt 708.4578 118.5939 0.0000
vt 502.7394 580.1393 0.0000
vt 502.7394 118.5939 0.0000
vt 0.0000 118.5939 0.0000
vt 125.7512 118.5939 0.0000
vt 125.7512 580.1393 0.0000
vt 0.0000 580.1393 0.0000
vt 354.2289 707.9642 0.0000
vt 205.7184 707.9642 0.0000
vt 125.7512 0.0000 0.0000
vt 205.7184 0.0000 0.0000
vt 332.3383 707.9642 0.0000
vt 463.8557 707.9642 0.0000
vt 332.3383 0.0000 0.0000
vt 200.8210 118.5939 0.0000
vt 200.8210 0.0000 0.0000
vt 708.4578 707.9642 0.0000
vt 582.7065 707.9642 0.0000
vt 582.7065 0.0000 0.0000
vt 708.4578 0.0000 0.0000
vt 502.7394 707.9642 0.0000
vt 354.2289 0.0000 0.0000
vt 502.7394 0.0000 0.0000
vt 0.0000 0.0000 0.0000
vt 125.7513 707.9642 0.0000
vt 0.0000 707.9642 0.0000
vt -204.7184 200.8210 0.0000
vt -204.7184 0.0000 0.0000
vt -124.7512 0.0000 0.0000
vt -124.7513 664.6766 0.0000
vt -204.7184 664.6766 0.0000
vt 205.7184 664.6766 0.0000
vt 125.7512 664.6766 0.0000
vt 205.7184 463.8557 0.0000
vt 125.7513 0.0000 0.0000
vt 200.8210 580.1393 0.0000
vt 664.6766 118.5939 0.0000
vt 664.6766 580.1393 0.0000
vt -707.4578 0.0000 0.0000
vt -581.7065 0.0000 0.0000
vt -581.7065 200.8210 0.0000
vt -707.4578 200.8210 0.0000
vt -581.7065 664.6766 0.0000
vt -707.4578 664.6766 0.0000
vt -501.7394 0.0000 0.0000
vt -353.2289 0.0000 0.0000
vt -353.2289 200.8210 0.0000
vt -501.7394 200.8210 0.0000
vt -353.2289 664.6766 0.0000
vt -501.7394 664.6766 0.0000
vt 1.0000 463.8557 0.0000
vt 1.0000 664.6766 0.0000
vt 1.0000 0.0000 0.0000
vt 708.4578 463.8557 0.0000
vt 708.4578 664.6766 0.0000
vt 582.7065 664.6766 0.0000
vt 582.7065 463.8557 0.0000
vt 502.7394 664.6766 0.0000
vt 354.2289 664.6766 0.0000
vt 354.2289 463.8557 0.0000
vt 502.7394 463.8557 0.0000
vt 0.0000 200.8210 0.0000
vt 0.0000 664.6766 0.0000
vt 200.8210 707.9642 0.0000
vt 664.6766 707.9642 0.0000
vt 664.6766 0.0000 0.0000
vt 463.8557 0.0000 0.0000
# 108 texture coords

g Box001
usemtl wire_088144225
s 2
f 9/9/3 10/10/3 11/11/3 12/12/3 
s 4
f 13/13/4 14/14/4 15/15/4 16/16/4 
s 8
f 17/17/5 18/18/6 19/19/6 20/20/5 
s 16
f 21/21/7 22/22/7 23/23/7 24/24/7 
s 32
f 25/17/8 26/18/9 27/19/9 28/20/8 
s 64
f 29/21/10 30/22/10 31/23/10 32/24/10 
s 2
f 33/25/3 34/26/3 35/27/3 36/28/3 
f 37/29/3 38/30/3 39/31/3 40/32/3 
f 41/33/3 42/34/3 11/11/3 43/35/3 
s 4
f 44/36/4 45/37/4 46/38/4 47/39/4 
f 48/40/4 49/41/4 50/42/4 51/43/4 
f 52/44/4 14/14/4 53/45/4 54/46/4 
s 8
f 55/47/11 56/48/12 57/49/12 58/50/13 
f 59/48/14 60/51/15 61/52/15 62/49/14 
f 63/53/16 64/54/17 65/55/17 66/56/16 
s 32
f 67/47/18 68/48/19 69/49/19 70/50/18 
f 71/48/20 72/51/21 73/52/21 74/49/20 
f 75/53/22 76/54/23 77/55/23 78/56/24 
s 8
f 79/57/5 80/58/6 81/18/6 82/17/5 
f 83/59/25 84/60/6 85/19/6 64/54/17 
s 16
f 45/61/7 21/21/7 24/24/7 86/62/7 
f 33/63/7 22/22/7 87/64/7 88/65/7 
s 32
f 89/57/8 90/58/26 91/18/26 92/17/8 
f 93/59/27 94/60/26 95/19/26 76/54/23 
s 64
f 52/61/10 29/21/10 32/24/10 96/62/10 
f 42/63/10 30/22/10 97/64/10 98/65/10 
s 8
f 99/66/13 100/67/28 56/48/12 55/47/11 
f 101/68/28 102/69/13 58/50/13 57/49/12 
f 100/67/28 103/70/29 104/51/29 56/48/12 
f 105/71/5 106/72/29 107/52/29 108/20/5 
f 109/73/16 83/59/25 64/54/17 63/53/16 
f 110/74/25 111/75/16 66/56/16 65/55/17 
s 32
f 112/66/18 113/67/30 68/48/19 67/47/18 
f 114/68/30 115/69/18 70/50/18 69/49/19 
f 113/67/30 116/70/21 117/51/21 68/48/19 
f 118/71/8 119/72/21 120/52/21 121/20/8 
f 122/73/24 93/59/27 76/54/23 75/53/22 
f 123/74/27 124/75/24 78/56/24 77/55/23 
s off
f 57/49/10 56/48/10 59/48/10 62/49/10 
f 104/51/3 60/51/3 59/48/3 56/48/3 
f 81/18/3 18/18/3 17/17/3 82/17/3 
f 65/55/31 64/54/31 125/54/31 126/55/31 
f 85/19/4 19/19/4 125/54/4 64/54/4 
f 107/52/4 61/52/4 20/20/4 108/20/4 
f 69/49/7 68/48/7 71/48/7 74/49/7 
f 117/51/3 72/51/3 71/48/3 68/48/3 
f 91/18/3 26/18/3 25/17/3 92/17/3 
f 77/55/32 76/54/32 127/54/32 128/55/32 
f 95/19/33 27/19/33 127/54/33 76/54/33 
f 120/52/4 73/52/4 28/20/4 121/20/4 
s 2
f 38/30/3 10/10/3 9/9/3 39/31/3 
s 4
f 49/41/4 129/13/4 130/16/4 50/42/4 
s 8
f 126/55/34 125/54/34 19/19/6 18/18/6 
s 32
f 25/17/8 28/20/8 73/52/21 72/51/21 
s 8
f 110/74/25 65/55/17 81/18/6 80/58/6 
f 105/71/5 108/20/5 85/19/6 84/60/6 
s 32
f 89/57/8 92/17/8 117/51/21 116/70/21 
f 114/68/30 69/49/19 120/52/21 119/72/21 
s off
f 65/55/3 126/55/3 18/18/3 81/18/3 
f 108/20/4 20/20/4 19/19/4 85/19/4 
f 92/17/3 25/17/3 72/51/3 117/51/3 
f 69/49/33 74/49/33 73/52/33 120/52/33 
s 32
f 128/55/35 127/54/35 27/19/9 26/18/9 
s 2
f 34/26/3 37/29/3 40/32/3 35/27/3 
s 4
f 47/39/4 46/38/4 131/40/4 132/43/4 
s 8
f 17/17/5 20/20/5 61/52/15 60/51/15 
s 32
f 123/74/27 77/55/23 91/18/26 90/58/26 
f 118/71/8 121/20/8 95/19/26 94/60/26 
s 8
f 79/57/5 82/17/5 104/51/29 103/70/29 
f 101/68/28 57/49/12 107/52/29 106/72/29 
s off
f 82/17/3 17/17/3 60/51/3 104/51/3 
f 57/49/4 62/49/4 61/52/4 107/52/4 
f 77/55/3 128/55/3 26/18/3 91/18/3 
f 121/20/33 28/20/33 27/19/33 95/19/33 
s 2
f 133/76/3 84/77/3 83/78/3 43/35/3 
f 12/12/3 114/79/3 119/80/3 9/9/3 
s 4
f 116/81/4 113/82/4 53/45/4 134/83/4 
f 110/84/4 80/60/4 16/16/4 15/15/4 
s 16
f 55/56/7 58/53/7 87/64/7 135/85/7 
f 75/86/7 78/87/7 24/24/7 23/23/7 
s 64
f 67/56/10 70/53/10 97/64/10 136/85/10 
f 63/86/10 66/87/10 32/24/10 31/23/10 
s 2
f 102/88/3 101/89/3 137/90/3 88/91/3 
f 93/92/3 122/93/3 36/28/3 35/27/3 
f 106/94/3 105/95/3 138/96/3 139/97/3 
f 118/98/3 94/99/3 40/32/3 39/31/3 
f 98/100/3 115/101/3 114/79/3 12/12/3 
f 43/35/3 83/78/3 109/102/3 41/33/3 
s 4
f 86/103/4 124/104/4 123/105/4 140/106/4 
f 47/39/4 100/68/4 99/69/4 44/36/4 
f 90/107/4 89/108/4 141/109/4 142/110/4 
f 79/71/4 103/72/4 132/43/4 143/42/4 
f 111/73/4 110/84/4 15/15/4 96/111/4 
f 113/82/4 112/112/4 54/46/4 53/45/4 
s 16
f 99/75/7 55/56/7 135/85/7 44/113/7 
f 78/87/7 124/114/7 86/62/7 24/24/7 
f 122/115/7 75/86/7 23/23/7 36/116/7 
f 58/53/7 102/73/7 88/65/7 87/64/7 
s 64
f 112/75/10 67/56/10 136/85/10 54/113/10 
f 66/87/10 111/114/10 96/62/10 32/24/10 
f 109/115/10 63/86/10 31/23/10 41/116/10 
f 70/53/10 115/73/10 98/65/10 97/64/10 
s 2
f 105/95/3 84/77/3 133/76/3 138/96/3 
f 119/80/3 118/98/3 39/31/3 9/9/3 
s 4
f 89/108/4 116/81/4 134/83/4 141/109/4 
f 80/60/4 79/71/4 143/42/4 16/16/4 
s 2
f 101/89/3 106/94/3 139/97/3 137/90/3 
f 94/99/3 93/92/3 35/27/3 40/32/3 
s 4
f 140/106/4 123/105/4 90/107/4 142/110/4 
f 132/43/4 103/72/4 100/68/4 47/39/4 
s off
f 13/13/4 144/13/4 145/83/4 134/83/4 
f 16/16/4 143/42/4 146/42/4 147/16/4 
f 143/42/4 132/43/4 148/43/4 146/42/4 
f 131/40/4 149/40/4 148/43/4 132/43/4 
f 142/110/4 141/109/4 150/109/4 151/110/4 
f 141/109/4 134/83/4 145/83/4 150/109/4 
s 2
f 10/10/3 133/76/3 43/35/3 11/11/3 
s 4
f 134/83/4 53/45/4 14/14/4 13/13/4 
s 16
f 135/85/7 87/64/7 22/22/7 21/21/7 
s 64
f 136/85/10 97/64/10 30/22/10 29/21/10 
s 2
f 88/91/3 137/90/3 34/26/3 33/25/3 
f 139/97/3 138/96/3 38/30/3 37/29/3 
f 42/34/3 98/100/3 12/12/3 11/11/3 
s 4
f 45/37/4 86/103/4 140/106/4 46/38/4 
f 152/110/4 153/109/4 49/41/4 48/40/4 
f 96/111/4 15/15/4 14/14/4 52/44/4 
s 16
f 44/113/7 135/85/7 21/21/7 45/61/7 
f 36/116/7 23/23/7 22/22/7 33/63/7 
s 64
f 54/113/10 136/85/10 29/21/10 52/61/10 
f 41/116/10 31/23/10 30/22/10 42/63/10 
s 2
f 138/96/3 133/76/3 10/10/3 38/30/3 
s 4
f 153/109/4 154/83/4 129/13/4 49/41/4 
s 2
f 137/90/3 139/97/3 37/29/3 34/26/3 
s 4
f 46/38/4 140/106/4 142/110/4 131/40/4 
s off
f 13/13/4 16/16/4 147/16/4 144/13/4 
f 131/40/4 142/110/4 151/110/4 149/40/4 
f 145/83/36 144/13/36 155/13/36 156/83/36 
f 144/13/37 147/16/37 157/16/37 155/13/37 
f 147/16/38 146/42/38 158/42/38 157/16/38 
f 146/42/39 148/43/39 159/43/39 158/42/39 
f 148/43/40 149/40/40 160/40/40 159/43/40 
f 149/40/41 151/110/41 161/110/41 160/40/41 
f 151/110/42 150/109/42 162/109/42 161/110/42 
f 150/109/43 145/83/43 156/83/43 162/109/43 
f 156/83/4 155/13/4 163/13/4 164/83/4 
f 155/13/4 157/16/4 165/16/4 163/13/4 
f 157/16/4 158/42/4 166/42/4 165/16/4 
f 158/42/4 159/43/4 167/43/4 166/42/4 
f 159/43/4 160/40/4 168/40/4 167/43/4 
f 160/40/4 161/110/4 169/110/4 168/40/4 
f 161/110/4 162/109/4 170/109/4 169/110/4 
f 162/109/4 156/83/4 164/83/4 170/109/4 
f 164/83/44 163/13/44 129/13/44 154/83/44 
f 163/13/45 165/16/45 130/16/45 129/13/45 
f 165/16/46 166/42/46 50/42/46 130/16/46 
f 166/42/47 167/43/47 51/43/47 50/42/47 
f 167/43/48 168/40/48 48/40/48 51/43/48 
f 168/40/49 169/110/49 152/110/49 48/40/49 
f 169/110/50 170/109/50 153/109/50 152/110/50 
f 170/109/51 164/83/51 154/83/51 153/109/51 
# 160 polygons

