# 3ds Max Wavefront OBJ Exporter v0.97b - (c)2007 guruware
# File Created: 16.10.2018 22:22:09

#
# object Cylinder001
#

v  7.7609 9.6718 23.8932
v  6.2479 13.3244 23.8932
v  2.5954 14.8373 23.8932
v  -1.0572 13.3244 23.8932
v  -2.5702 9.6718 23.8932
v  -1.0572 6.0192 23.8932
v  2.5954 4.5063 23.8932
v  6.2479 6.0192 23.8932
v  7.7609 9.6718 26.2696
v  6.2479 13.3244 26.2696
v  2.5954 14.8373 26.2696
v  -1.0572 13.3244 26.2696
v  -2.5702 9.6718 26.2696
v  -1.0572 6.0192 26.2696
v  2.5954 4.5063 26.2696
v  6.2479 6.0192 26.2696
v  7.7609 9.6718 28.6459
v  6.2479 13.3244 28.6459
v  2.5954 14.8373 28.6459
v  -1.0572 13.3244 28.6459
v  -2.5702 9.6718 28.6459
v  -1.0572 6.0192 28.6459
v  2.5954 4.5063 28.6459
v  6.2479 6.0192 28.6459
v  7.7609 9.6718 31.0223
v  6.2479 13.3244 31.0223
v  2.5954 14.8373 31.0223
v  -1.0572 13.3244 31.0223
v  -2.5702 9.6718 31.0223
v  -1.0572 6.0192 31.0223
v  2.5954 4.5063 31.0223
v  6.2479 6.0192 31.0223
v  7.7609 9.6718 33.3987
v  6.2479 13.3244 33.3987
v  2.5954 14.8373 33.3987
v  -1.0572 13.3244 33.3987
v  -2.5702 9.6718 33.3987
v  -1.0572 6.0192 33.3987
v  2.5954 4.5063 33.3987
v  6.2479 6.0192 33.3987
v  7.7609 9.6718 35.7750
v  6.2479 13.3244 35.7750
v  2.5954 14.8373 35.7750
v  -1.0572 13.3244 35.7750
v  -2.5702 9.6718 35.7750
v  -1.0572 6.0192 35.7750
v  2.5954 4.5063 35.7750
v  6.2479 6.0192 35.7750
v  21.3300 28.4065 23.8932
v  21.3300 9.6718 23.8932
v  21.3300 -9.0628 23.8932
v  2.5954 -9.0628 23.8932
v  -16.1393 -9.0628 23.8932
v  -16.1393 9.6718 23.8932
v  -16.1393 28.4065 23.8932
v  2.5954 28.4065 23.8932
v  6.4960 9.6718 35.7750
v  5.3535 12.4300 35.7750
v  2.5954 13.5724 35.7750
v  -0.1628 12.4300 35.7750
v  -1.3053 9.6718 35.7750
v  -0.1628 6.9137 35.7750
v  2.5954 5.7712 35.7750
v  5.3535 6.9137 35.7750
v  6.4960 9.6718 33.6974
v  5.3535 12.4300 33.6974
v  2.5954 13.5724 33.6974
v  -0.1628 12.4300 33.6974
v  -1.3053 9.6718 33.6974
v  -0.1628 6.9137 33.6974
v  2.5954 5.7712 33.6974
v  5.3535 6.9137 33.6974
v  21.3300 28.4065 -5.5822
v  21.3300 9.6718 -5.5822
v  21.3300 -9.0628 -5.5822
v  2.5954 -9.0628 -5.5822
v  -16.1393 -9.0628 -5.5822
v  -16.1393 9.6718 -5.5822
v  -16.1393 28.4065 -5.5822
v  2.5954 28.4065 -5.5822
v  2.5954 9.6718 -5.5822
v  21.3300 23.1545 18.6412
v  21.3300 9.6718 18.6412
v  21.3300 -3.8108 18.6412
v  21.3300 -3.8108 -0.3301
v  21.3300 9.6718 -0.3301
v  21.3300 23.1545 -0.3301
v  15.8764 23.1545 18.6412
v  15.8764 9.6718 18.6412
v  15.8764 -3.8108 18.6412
v  15.8764 -3.8108 -0.3301
v  15.8764 9.6718 -0.3301
v  15.8764 23.1545 -0.3301
v  15.8764 23.1545 12.1559
v  18.9619 9.6718 12.1559
v  15.8764 -3.8108 12.1559
v  21.3300 -3.8108 12.1559
v  21.3300 -9.0628 13.8172
v  2.5954 -9.0628 13.8172
v  -16.1393 -9.0628 13.8172
v  -16.1393 9.6718 13.8172
v  -16.1393 28.4065 13.8172
v  2.5954 28.4065 13.8172
v  21.3300 28.4065 13.8172
v  21.3300 23.1545 12.1559
v  21.3300 23.1545 0.8911
v  15.8764 23.1545 0.8911
v  18.9619 9.6718 0.8911
v  15.8764 -3.8108 0.8911
v  21.3300 -3.8108 0.8911
v  21.3300 -9.0628 -3.6848
v  2.5954 -9.0628 -3.6848
v  -16.1393 -9.0628 -3.6848
v  -16.1393 9.6718 -3.6848
v  -16.1393 28.4065 -3.6848
v  2.5954 28.4065 -3.6848
v  21.3300 28.4065 -3.6848
v  21.3300 23.1545 15.9093
v  15.8764 23.1545 15.9093
v  18.9725 9.6718 15.9093
v  15.8764 -3.8108 15.9093
v  21.3300 -3.8108 15.9093
v  21.3300 -9.0628 19.6487
v  2.5954 -9.0628 19.6487
v  -16.1393 -9.0628 19.6487
v  -16.1393 9.6718 19.6487
v  -16.1393 28.4065 19.6487
v  2.5954 28.4065 19.6487
v  21.3300 28.4065 19.6487
# 129 vertices

vn 1.0000 0.0000 0.0000
vn 0.7071 0.7071 0.0000
vn 0.7071 0.7071 0.0000
vn 1.0000 0.0000 0.0000
vn 0.7071 0.7071 0.0000
vn -0.0000 1.0000 0.0000
vn -0.0000 1.0000 0.0000
vn 0.7071 0.7071 0.0000
vn -0.0000 1.0000 0.0000
vn -0.7071 0.7071 0.0000
vn -0.7071 0.7071 0.0000
vn -0.0000 1.0000 0.0000
vn -0.7071 0.7071 0.0000
vn -1.0000 -0.0000 0.0000
vn -1.0000 -0.0000 0.0000
vn -0.7071 0.7071 0.0000
vn -1.0000 -0.0000 0.0000
vn -0.7071 -0.7071 0.0000
vn -0.7071 -0.7071 0.0000
vn -1.0000 -0.0000 0.0000
vn -0.7071 -0.7071 0.0000
vn -0.0000 -1.0000 0.0000
vn -0.0000 -1.0000 0.0000
vn -0.7071 -0.7071 0.0000
vn -0.0000 -1.0000 0.0000
vn 0.7071 -0.7071 0.0000
vn 0.7071 -0.7071 0.0000
vn -0.0000 -1.0000 0.0000
vn 0.7071 -0.7071 0.0000
vn 1.0000 0.0000 0.0000
vn 1.0000 0.0000 0.0000
vn 0.7071 -0.7071 0.0000
vn 1.0000 0.0000 0.0000
vn 0.7071 0.7071 0.0000
vn 0.7071 0.7071 0.0000
vn 1.0000 0.0000 0.0000
vn 0.7071 0.7071 0.0000
vn -0.0000 1.0000 0.0000
vn -0.0000 1.0000 0.0000
vn 0.7071 0.7071 0.0000
vn -0.0000 1.0000 0.0000
vn -0.7071 0.7071 0.0000
vn -0.7071 0.7071 0.0000
vn -0.0000 1.0000 0.0000
vn -0.7071 0.7071 0.0000
vn -1.0000 -0.0000 0.0000
vn -1.0000 -0.0000 0.0000
vn -0.7071 0.7071 0.0000
vn -1.0000 -0.0000 0.0000
vn -0.7071 -0.7071 0.0000
vn -0.7071 -0.7071 0.0000
vn -1.0000 -0.0000 0.0000
vn -0.7071 -0.7071 0.0000
vn -0.0000 -1.0000 0.0000
vn -0.0000 -1.0000 0.0000
vn -0.7071 -0.7071 0.0000
vn -0.0000 -1.0000 0.0000
vn 0.7071 -0.7071 0.0000
vn 0.7071 -0.7071 0.0000
vn -0.0000 -1.0000 0.0000
vn 0.7071 -0.7071 0.0000
vn 1.0000 0.0000 0.0000
vn 1.0000 0.0000 0.0000
vn 0.7071 -0.7071 0.0000
vn 1.0000 0.0000 0.0000
vn 0.7071 0.7071 0.0000
vn 0.7071 0.7071 0.0000
vn 1.0000 0.0000 0.0000
vn 0.7071 0.7071 0.0000
vn -0.0000 1.0000 0.0000
vn -0.0000 1.0000 0.0000
vn 0.7071 0.7071 0.0000
vn -0.0000 1.0000 0.0000
vn -0.7071 0.7071 0.0000
vn -0.7071 0.7071 0.0000
vn -0.0000 1.0000 0.0000
vn -0.7071 0.7071 0.0000
vn -1.0000 -0.0000 0.0000
vn -1.0000 -0.0000 0.0000
vn -0.7071 0.7071 0.0000
vn -1.0000 -0.0000 0.0000
vn -0.7071 -0.7071 0.0000
vn -0.7071 -0.7071 0.0000
vn -1.0000 -0.0000 0.0000
vn -0.7071 -0.7071 0.0000
vn -0.0000 -1.0000 0.0000
vn -0.0000 -1.0000 0.0000
vn -0.7071 -0.7071 0.0000
vn -0.0000 -1.0000 0.0000
vn 0.7071 -0.7071 0.0000
vn 0.7071 -0.7071 0.0000
vn -0.0000 -1.0000 0.0000
vn 0.7071 -0.7071 0.0000
vn 1.0000 0.0000 0.0000
vn 1.0000 0.0000 0.0000
vn 0.7071 -0.7071 0.0000
vn 1.0000 0.0000 0.0000
vn 0.7071 0.7071 0.0000
vn 0.7071 0.7071 0.0000
vn 1.0000 0.0000 0.0000
vn 0.7071 0.7071 0.0000
vn -0.0000 1.0000 0.0000
vn -0.0000 1.0000 0.0000
vn 0.7071 0.7071 0.0000
vn -0.0000 1.0000 0.0000
vn -0.7071 0.7071 0.0000
vn -0.7071 0.7071 0.0000
vn -0.0000 1.0000 0.0000
vn -0.7071 0.7071 0.0000
vn -1.0000 -0.0000 0.0000
vn -1.0000 -0.0000 0.0000
vn -0.7071 0.7071 0.0000
vn -1.0000 -0.0000 0.0000
vn -0.7071 -0.7071 0.0000
vn -0.7071 -0.7071 0.0000
vn -1.0000 -0.0000 0.0000
vn -0.7071 -0.7071 0.0000
vn -0.0000 -1.0000 0.0000
vn -0.0000 -1.0000 0.0000
vn -0.7071 -0.7071 0.0000
vn -0.0000 -1.0000 0.0000
vn 0.7071 -0.7071 0.0000
vn 0.7071 -0.7071 0.0000
vn -0.0000 -1.0000 0.0000
vn 0.7071 -0.7071 0.0000
vn 1.0000 0.0000 0.0000
vn 1.0000 0.0000 0.0000
vn 0.7071 -0.7071 0.0000
vn 1.0000 0.0000 0.0000
vn 0.7071 0.7071 0.0000
vn 0.7071 0.7071 0.0000
vn 1.0000 0.0000 0.0000
vn 0.7071 0.7071 0.0000
vn -0.0000 1.0000 0.0000
vn -0.0000 1.0000 0.0000
vn 0.7071 0.7071 0.0000
vn -0.0000 1.0000 0.0000
vn -0.7071 0.7071 0.0000
vn -0.7071 0.7071 0.0000
vn -0.0000 1.0000 0.0000
vn -0.7071 0.7071 0.0000
vn -1.0000 -0.0000 0.0000
vn -1.0000 -0.0000 0.0000
vn -0.7071 0.7071 0.0000
vn -1.0000 -0.0000 0.0000
vn -0.7071 -0.7071 0.0000
vn -0.7071 -0.7071 0.0000
vn -1.0000 -0.0000 0.0000
vn -0.7071 -0.7071 0.0000
vn -0.0000 -1.0000 0.0000
vn -0.0000 -1.0000 0.0000
vn -0.7071 -0.7071 0.0000
vn -0.0000 -1.0000 0.0000
vn 0.7071 -0.7071 0.0000
vn 0.7071 -0.7071 0.0000
vn -0.0000 -1.0000 0.0000
vn 0.7071 -0.7071 0.0000
vn 1.0000 0.0000 0.0000
vn 1.0000 0.0000 0.0000
vn 0.7071 -0.7071 0.0000
vn 0.0000 0.0000 -1.0000
vn 0.0000 0.0000 -1.0000
vn 0.0000 0.0000 -1.0000
vn 0.0000 0.0000 -1.0000
vn 0.0000 0.0000 1.0000
vn 0.0000 0.0000 1.0000
vn 0.0000 0.0000 1.0000
vn 0.0000 0.0000 1.0000
vn 0.0000 0.0000 1.0000
vn 0.0000 0.0000 1.0000
vn 0.0000 0.0000 1.0000
vn 0.0000 0.0000 1.0000
vn 0.0000 0.0000 1.0000
vn 0.0000 0.0000 1.0000
vn 0.0000 0.0000 1.0000
vn 0.0000 0.0000 1.0000
vn 0.0000 0.0000 1.0000
vn 0.0000 0.0000 1.0000
vn 0.0000 0.0000 1.0000
vn 0.0000 0.0000 1.0000
vn 0.0000 0.0000 1.0000
vn 0.0000 0.0000 1.0000
vn 0.0000 0.0000 1.0000
vn 0.0000 0.0000 1.0000
vn 0.0000 0.0000 1.0000
vn 0.0000 0.0000 1.0000
vn 0.0000 0.0000 1.0000
vn 0.0000 0.0000 1.0000
vn 0.0000 0.0000 1.0000
vn 0.0000 0.0000 1.0000
vn 0.0000 0.0000 1.0000
vn 0.0000 0.0000 1.0000
vn 0.0000 0.0000 1.0000
vn 0.0000 0.0000 1.0000
vn 0.0000 0.0000 1.0000
vn 0.0000 0.0000 1.0000
vn 0.0000 0.0000 1.0000
vn 0.0000 0.0000 1.0000
vn 0.0000 0.0000 1.0000
vn 0.0000 0.0000 1.0000
vn 0.0000 0.0000 1.0000
vn 0.0000 0.0000 1.0000
vn 0.0000 0.0000 1.0000
vn 0.0000 0.0000 1.0000
vn 0.0000 0.0000 1.0000
vn 0.0000 0.0000 1.0000
vn 0.0000 0.0000 1.0000
vn 0.0000 0.0000 1.0000
vn -0.0000 -0.0000 1.0000
vn -0.0000 -0.0000 1.0000
vn -0.0000 -0.0000 1.0000
vn -0.0000 -0.0000 1.0000
vn -0.0000 -0.0000 1.0000
vn -0.0000 -0.0000 1.0000
vn -0.0000 -0.0000 1.0000
vn -0.0000 -0.0000 1.0000
vn 0.0000 -0.0000 1.0000
vn 0.0000 -0.0000 1.0000
vn 0.0000 -0.0000 1.0000
vn 0.0000 -0.0000 1.0000
vn 0.0000 -0.0000 1.0000
vn 0.0000 -0.0000 1.0000
vn 0.0000 -0.0000 1.0000
vn 0.0000 -0.0000 1.0000
vn 0.0000 0.0000 1.0000
vn 0.0000 0.0000 1.0000
vn 0.0000 0.0000 1.0000
vn 0.0000 0.0000 1.0000
vn 0.0000 0.0000 1.0000
vn 0.0000 0.0000 1.0000
vn 0.0000 0.0000 1.0000
vn 0.0000 0.0000 1.0000
vn -0.0000 0.0000 1.0000
vn -0.0000 0.0000 1.0000
vn -0.0000 0.0000 1.0000
vn -0.0000 0.0000 1.0000
vn -0.0000 0.0000 1.0000
vn -0.0000 0.0000 1.0000
vn -0.0000 0.0000 1.0000
vn -0.0000 0.0000 1.0000
vn -0.9239 -0.3827 0.0000
vn -0.9239 -0.3827 0.0000
vn -0.9239 -0.3827 0.0000
vn -0.9239 -0.3827 0.0000
vn -0.3827 -0.9239 0.0000
vn -0.3827 -0.9239 0.0000
vn -0.3827 -0.9239 0.0000
vn -0.3827 -0.9239 0.0000
vn 0.3827 -0.9239 0.0000
vn 0.3827 -0.9239 0.0000
vn 0.3827 -0.9239 0.0000
vn 0.3827 -0.9239 0.0000
vn 0.9239 -0.3827 0.0000
vn 0.9239 -0.3827 0.0000
vn 0.9239 -0.3827 0.0000
vn 0.9239 -0.3827 0.0000
vn 0.9239 0.3827 0.0000
vn 0.9239 0.3827 0.0000
vn 0.9239 0.3827 0.0000
vn 0.9239 0.3827 0.0000
vn 0.3827 0.9239 0.0000
vn 0.3827 0.9239 0.0000
vn 0.3827 0.9239 0.0000
vn 0.3827 0.9239 0.0000
vn -0.3827 0.9239 0.0000
vn -0.3827 0.9239 0.0000
vn -0.3827 0.9239 0.0000
vn -0.3827 0.9239 0.0000
vn -0.9239 0.3827 0.0000
vn -0.9239 0.3827 0.0000
vn -0.9239 0.3827 0.0000
vn -0.9239 0.3827 0.0000
vn 0.8657 0.0994 0.4906
vn 0.8657 0.0994 0.4906
vn 0.8657 0.0994 0.4906
vn 0.8657 0.0994 0.4906
vn 0.8657 -0.0994 0.4906
vn 0.8657 -0.0994 0.4906
vn 0.8657 -0.0994 0.4906
vn 0.8657 -0.0994 0.4906
vn 0.0000 -1.0000 0.0000
vn 0.0000 -1.0000 0.0000
vn 0.0000 -1.0000 0.0000
vn 0.0000 -1.0000 0.0000
vn -0.0000 -1.0000 0.0000
vn -0.0000 -1.0000 0.0000
vn -0.0000 -1.0000 0.0000
vn -0.0000 -1.0000 0.0000
vn -1.0000 -0.0000 0.0000
vn -1.0000 -0.0000 0.0000
vn -1.0000 -0.0000 0.0000
vn -1.0000 -0.0000 0.0000
vn -1.0000 0.0000 0.0000
vn -1.0000 0.0000 0.0000
vn -1.0000 0.0000 0.0000
vn -1.0000 0.0000 0.0000
vn 0.0000 1.0000 -0.0000
vn 0.0000 1.0000 -0.0000
vn 0.0000 1.0000 -0.0000
vn 0.0000 1.0000 -0.0000
vn -0.0000 1.0000 -0.0000
vn -0.0000 1.0000 -0.0000
vn -0.0000 1.0000 -0.0000
vn -0.0000 1.0000 -0.0000
vn 0.0000 0.0000 -1.0000
vn 0.0000 0.0000 -1.0000
vn 0.0000 0.0000 -1.0000
vn 0.0000 0.0000 -1.0000
vn 0.0000 0.0000 -1.0000
vn 0.0000 0.0000 -1.0000
vn 0.0000 0.0000 -1.0000
vn 0.0000 0.0000 -1.0000
vn 0.0000 0.0000 -1.0000
vn 0.0000 0.0000 -1.0000
vn 0.0000 0.0000 -1.0000
vn 0.0000 0.0000 -1.0000
vn 1.0000 -0.0000 -0.0000
vn 1.0000 -0.0000 -0.0000
vn 1.0000 -0.0000 -0.0000
vn 1.0000 -0.0000 -0.0000
vn 1.0000 0.0000 0.0000
vn 1.0000 0.0000 0.0000
vn 1.0000 0.0000 0.0000
vn 1.0000 0.0000 0.0000
vn 1.0000 0.0000 0.0000
vn 1.0000 0.0000 0.0000
vn 1.0000 0.0000 0.0000
vn 1.0000 0.0000 0.0000
vn 1.0000 0.0000 0.0000
vn 1.0000 0.0000 0.0000
vn 1.0000 0.0000 0.0000
vn 1.0000 0.0000 0.0000
vn 1.0000 -0.0000 0.0000
vn 1.0000 -0.0000 0.0000
vn 1.0000 -0.0000 0.0000
vn 1.0000 -0.0000 0.0000
vn 1.0000 -0.0000 0.0000
vn 1.0000 -0.0000 0.0000
vn 1.0000 -0.0000 0.0000
vn 1.0000 -0.0000 0.0000
vn 0.0000 0.0000 -1.0000
vn 0.0000 0.0000 -1.0000
vn 0.0000 0.0000 -1.0000
vn 0.0000 0.0000 -1.0000
vn 0.0000 0.0000 -1.0000
vn 0.0000 0.0000 -1.0000
vn 0.0000 0.0000 -1.0000
vn 0.0000 0.0000 -1.0000
vn 0.0000 1.0000 0.0000
vn 0.0000 1.0000 0.0000
vn 0.0000 1.0000 0.0000
vn 0.0000 1.0000 0.0000
vn 0.0000 0.0000 1.0000
vn 0.0000 0.0000 1.0000
vn 0.0000 0.0000 1.0000
vn 0.0000 0.0000 1.0000
vn 0.0000 0.0000 1.0000
vn 0.0000 0.0000 1.0000
vn 0.0000 0.0000 1.0000
vn 0.0000 0.0000 1.0000
vn 0.0000 -1.0000 0.0000
vn 0.0000 -1.0000 0.0000
vn 0.0000 -1.0000 0.0000
vn 0.0000 -1.0000 0.0000
vn 0.9748 0.2231 0.0000
vn 0.9748 0.2231 0.0000
vn 0.9748 0.2231 0.0000
vn 0.9748 0.2231 0.0000
vn 0.9748 -0.2231 0.0000
vn 0.9748 -0.2231 0.0000
vn 0.9748 -0.2231 0.0000
vn 0.9748 -0.2231 0.0000
vn 0.0000 -1.0000 0.0000
vn 0.0000 -1.0000 0.0000
vn 0.0000 -1.0000 0.0000
vn 0.0000 -1.0000 0.0000
vn -0.0000 -1.0000 0.0000
vn -0.0000 -1.0000 0.0000
vn -0.0000 -1.0000 0.0000
vn -0.0000 -1.0000 0.0000
vn -1.0000 -0.0000 0.0000
vn -1.0000 -0.0000 0.0000
vn -1.0000 -0.0000 0.0000
vn -1.0000 -0.0000 0.0000
vn -1.0000 0.0000 0.0000
vn -1.0000 0.0000 0.0000
vn -1.0000 0.0000 0.0000
vn -1.0000 0.0000 0.0000
vn 0.0000 1.0000 0.0000
vn 0.0000 1.0000 0.0000
vn 0.0000 1.0000 0.0000
vn 0.0000 1.0000 0.0000
vn -0.0000 1.0000 0.0000
vn -0.0000 1.0000 0.0000
vn -0.0000 1.0000 0.0000
vn -0.0000 1.0000 0.0000
vn 1.0000 0.0000 0.0000
vn 1.0000 0.0000 0.0000
vn 1.0000 0.0000 0.0000
vn 1.0000 0.0000 0.0000
vn 1.0000 -0.0000 -0.0000
vn 1.0000 -0.0000 -0.0000
vn 1.0000 -0.0000 -0.0000
vn 1.0000 -0.0000 -0.0000
vn 0.0000 1.0000 0.0000
vn 0.0000 1.0000 0.0000
vn 0.0000 1.0000 0.0000
vn 0.0000 1.0000 0.0000
vn 0.0000 -1.0000 0.0000
vn 0.0000 -1.0000 0.0000
vn 0.0000 -1.0000 0.0000
vn 0.0000 -1.0000 0.0000
vn 1.0000 -0.0000 -0.0000
vn 1.0000 -0.0000 -0.0000
vn 1.0000 -0.0000 -0.0000
vn 1.0000 -0.0000 -0.0000
vn 0.0000 -1.0000 -0.0000
vn 0.0000 -1.0000 -0.0000
vn 0.0000 -1.0000 -0.0000
vn 0.0000 -1.0000 -0.0000
vn 0.6191 0.0708 -0.7821
vn 0.6191 0.0708 -0.7821
vn 0.6191 0.0708 -0.7821
vn 0.6191 0.0708 -0.7821
vn 0.6191 -0.0708 -0.7821
vn 0.6191 -0.0708 -0.7821
vn 0.6191 -0.0708 -0.7821
vn 0.6191 -0.0708 -0.7821
vn 0.0000 -1.0000 0.0000
vn 0.0000 -1.0000 0.0000
vn 0.0000 -1.0000 0.0000
vn 0.0000 -1.0000 0.0000
vn -0.0000 -1.0000 0.0000
vn -0.0000 -1.0000 0.0000
vn -0.0000 -1.0000 0.0000
vn -0.0000 -1.0000 0.0000
vn -1.0000 -0.0000 0.0000
vn -1.0000 -0.0000 0.0000
vn -1.0000 -0.0000 0.0000
vn -1.0000 -0.0000 0.0000
vn -1.0000 0.0000 0.0000
vn -1.0000 0.0000 0.0000
vn -1.0000 0.0000 0.0000
vn -1.0000 0.0000 0.0000
vn 0.0000 1.0000 -0.0000
vn 0.0000 1.0000 -0.0000
vn 0.0000 1.0000 -0.0000
vn 0.0000 1.0000 -0.0000
vn -0.0000 1.0000 -0.0000
vn -0.0000 1.0000 -0.0000
vn -0.0000 1.0000 -0.0000
vn -0.0000 1.0000 -0.0000
vn 1.0000 0.0000 0.0000
vn 1.0000 0.0000 0.0000
vn 1.0000 0.0000 0.0000
vn 1.0000 0.0000 0.0000
vn 0.0000 1.0000 0.0000
vn 0.0000 1.0000 0.0000
vn 0.0000 1.0000 0.0000
vn 0.0000 1.0000 0.0000
vn 0.9747 0.2234 -0.0014
vn 0.9747 0.2234 -0.0014
vn 0.9747 0.2234 -0.0014
vn 0.9747 0.2234 -0.0014
vn 0.9747 -0.2234 -0.0014
vn 0.9747 -0.2234 -0.0014
vn 0.9747 -0.2234 -0.0014
vn 0.9747 -0.2234 -0.0014
vn 0.0000 -1.0000 0.0000
vn 0.0000 -1.0000 0.0000
vn 0.0000 -1.0000 0.0000
vn 0.0000 -1.0000 0.0000
vn -0.0000 -1.0000 0.0000
vn -0.0000 -1.0000 0.0000
vn -0.0000 -1.0000 0.0000
vn -0.0000 -1.0000 0.0000
vn -1.0000 -0.0000 0.0000
vn -1.0000 -0.0000 0.0000
vn -1.0000 -0.0000 0.0000
vn -1.0000 -0.0000 0.0000
vn -1.0000 0.0000 0.0000
vn -1.0000 0.0000 0.0000
vn -1.0000 0.0000 0.0000
vn -1.0000 0.0000 0.0000
vn 0.0000 1.0000 0.0000
vn 0.0000 1.0000 0.0000
vn 0.0000 1.0000 0.0000
vn 0.0000 1.0000 0.0000
vn -0.0000 1.0000 0.0000
vn -0.0000 1.0000 0.0000
vn -0.0000 1.0000 0.0000
vn -0.0000 1.0000 0.0000
vn 1.0000 0.0000 0.0000
vn 1.0000 0.0000 0.0000
vn 1.0000 0.0000 0.0000
vn 1.0000 0.0000 0.0000
vn 0.0000 1.0000 0.0000
vn 0.0000 1.0000 0.0000
vn 0.0000 1.0000 0.0000
vn 0.0000 1.0000 0.0000
vn 1.0000 -0.0000 0.0000
vn 1.0000 -0.0000 0.0000
vn 1.0000 -0.0000 0.0000
vn 1.0000 -0.0000 0.0000
vn 0.0000 -1.0000 0.0000
vn 0.0000 -1.0000 0.0000
vn 0.0000 -1.0000 0.0000
vn 0.0000 -1.0000 0.0000
# 508 vertex normals

g Cylinder001
f 1//1 2//2 10//3 9//4 
f 2//5 3//6 11//7 10//8 
f 3//9 4//10 12//11 11//12 
f 4//13 5//14 13//15 12//16 
f 5//17 6//18 14//19 13//20 
f 6//21 7//22 15//23 14//24 
f 7//25 8//26 16//27 15//28 
f 8//29 1//30 9//31 16//32 
f 9//33 10//34 18//35 17//36 
f 10//37 11//38 19//39 18//40 
f 11//41 12//42 20//43 19//44 
f 12//45 13//46 21//47 20//48 
f 13//49 14//50 22//51 21//52 
f 14//53 15//54 23//55 22//56 
f 15//57 16//58 24//59 23//60 
f 16//61 9//62 17//63 24//64 
f 17//65 18//66 26//67 25//68 
f 18//69 19//70 27//71 26//72 
f 19//73 20//74 28//75 27//76 
f 20//77 21//78 29//79 28//80 
f 21//81 22//82 30//83 29//84 
f 22//85 23//86 31//87 30//88 
f 23//89 24//90 32//91 31//92 
f 24//93 17//94 25//95 32//96 
f 25//97 26//98 34//99 33//100 
f 26//101 27//102 35//103 34//104 
f 27//105 28//106 36//107 35//108 
f 28//109 29//110 37//111 36//112 
f 29//113 30//114 38//115 37//116 
f 30//117 31//118 39//119 38//120 
f 31//121 32//122 40//123 39//124 
f 32//125 25//126 33//127 40//128 
f 33//129 34//130 42//131 41//132 
f 34//133 35//134 43//135 42//136 
f 35//137 36//138 44//139 43//140 
f 36//141 37//142 45//143 44//144 
f 37//145 38//146 46//147 45//148 
f 38//149 39//150 47//151 46//152 
f 39//153 40//154 48//155 47//156 
f 40//157 33//158 41//159 48//160 
f 76//161 81//162 74//163 75//164 
f 68//165 69//166 72//167 65//168 
f 2//169 1//170 50//171 49//172 
f 1//173 8//174 51//175 50//176 
f 8//177 7//178 52//179 51//180 
f 7//181 6//182 53//183 52//184 
f 6//185 5//186 54//187 53//188 
f 5//189 4//190 55//191 54//192 
f 4//193 3//194 56//195 55//196 
f 3//197 2//198 49//199 56//200 
f 70//201 71//202 72//203 69//204 
f 66//205 67//206 68//207 65//208 
f 41//209 42//210 58//211 57//212 
f 42//213 43//214 59//215 58//216 
f 43//217 44//218 60//219 59//220 
f 44//221 45//222 61//223 60//224 
f 45//225 46//226 62//227 61//228 
f 46//229 47//230 63//231 62//232 
f 47//233 48//234 64//235 63//236 
f 48//237 41//238 57//239 64//240 
f 57//241 58//242 66//243 65//244 
f 58//245 59//246 67//247 66//248 
f 59//249 60//250 68//251 67//252 
f 60//253 61//254 69//255 68//256 
f 61//257 62//258 70//259 69//260 
f 62//261 63//262 71//263 70//264 
f 63//265 64//266 72//267 71//268 
f 64//269 57//270 65//271 72//272 
f 89//273 120//274 119//275 88//276 
f 90//277 121//278 120//279 89//280 
f 52//281 124//282 123//283 51//284 
f 53//285 125//286 124//287 52//288 
f 54//289 126//290 125//291 53//292 
f 55//293 127//294 126//295 54//296 
f 56//297 128//298 127//299 55//300 
f 49//301 129//302 128//303 56//304 
f 77//305 78//306 81//307 76//308 
f 79//309 80//310 81//311 78//312 
f 80//313 73//314 74//315 81//316 
f 49//317 50//318 83//319 82//320 
f 50//321 51//322 84//323 83//324 
f 123//325 122//326 84//327 51//328 
f 75//329 74//330 86//331 85//332 
f 74//333 73//334 87//335 86//336 
f 117//337 106//338 87//339 73//340 
f 82//341 83//342 89//343 88//344 
f 83//345 84//346 90//347 89//348 
f 122//349 121//350 90//351 84//352 
f 85//353 86//354 92//355 91//356 
f 86//357 87//358 93//359 92//360 
f 106//361 107//362 93//363 87//364 
f 108//365 107//366 94//367 95//368 
f 109//369 108//370 95//371 96//372 
f 112//373 111//374 98//375 99//376 
f 113//377 112//378 99//379 100//380 
f 114//381 113//382 100//383 101//384 
f 115//385 114//386 101//387 102//388 
f 116//389 115//390 102//391 103//392 
f 117//393 116//394 103//395 104//396 
f 98//397 111//398 110//399 97//400 
f 104//401 129//402 118//403 105//404 
f 110//405 109//406 96//407 97//408 
f 118//409 119//410 94//411 105//412 
f 104//413 105//414 106//415 117//416 
f 105//417 94//418 107//419 106//420 
f 92//421 93//422 107//423 108//424 
f 91//425 92//426 108//427 109//428 
f 76//429 75//430 111//431 112//432 
f 77//433 76//434 112//435 113//436 
f 78//437 77//438 113//439 114//440 
f 79//441 78//442 114//443 115//444 
f 80//445 79//446 115//447 116//448 
f 73//449 80//450 116//451 117//452 
f 111//453 75//454 85//455 110//456 
f 85//457 91//458 109//459 110//460 
f 95//461 94//462 119//463 120//464 
f 96//465 95//466 120//467 121//468 
f 99//469 98//470 123//471 124//472 
f 100//473 99//474 124//475 125//476 
f 101//477 100//478 125//479 126//480 
f 102//481 101//482 126//483 127//484 
f 103//485 102//486 127//487 128//488 
f 104//489 103//490 128//491 129//492 
f 98//493 97//494 122//495 123//496 
f 97//497 96//498 121//499 122//500 
f 129//501 49//502 82//503 118//504 
f 82//505 88//506 119//507 118//508 
# 127 polygons

