# Blender v2.79 (sub 0) OBJ File: ''
# www.blender.org
mtllib 893077-EXE64.mtl
o Cube
v -0.787611 0.832164 0.788977
v -0.787611 0.832164 2.788977
v -2.787611 0.832164 2.788976
v -2.787611 0.832164 0.788976
v -0.787610 2.832164 0.788977
v -0.787611 2.832164 2.788977
v -2.787611 2.832164 2.788976
v -2.787611 2.832164 0.788977
v -0.787610 2.362284 0.788977
v -0.787611 2.362284 2.788977
v -2.787611 2.362284 2.788976
v -2.787611 2.362284 0.788976
v -2.312991 0.832164 0.788976
v -2.312992 0.832164 2.788976
v -2.312991 2.832164 0.788977
v -2.312992 2.832164 2.788976
v -2.312991 2.362284 0.788977
v -2.312992 2.362284 2.788976
v -0.787611 1.280671 0.788977
v -0.787611 1.280671 2.788977
v -2.787611 1.280671 2.788976
v -2.787611 1.280671 0.788976
v -2.312992 1.280671 2.788976
v -2.312991 1.280671 0.788976
v -1.246857 0.832164 0.788977
v -1.246857 0.832164 2.788976
v -1.246857 2.832164 0.788977
v -1.246858 2.832164 2.788977
v -1.246857 2.362284 0.788977
v -1.246858 2.362284 2.788977
v -1.246857 1.280671 0.788977
v -1.246857 1.280671 2.788977
v -1.246857 1.280671 2.893226
v -1.246858 2.362284 2.893226
v -2.312992 2.362284 2.893226
v -2.312992 1.280671 2.893226
v -1.246857 2.362284 0.684727
v -1.246857 1.280671 0.684727
v -2.312991 1.280671 0.684727
v -2.312991 2.362284 0.684727
v -1.779925 2.362284 2.788977
v -1.246858 1.821477 2.893226
v -1.779925 2.362284 2.893226
v -2.312992 1.821477 2.893226
v -1.779925 1.280671 2.893226
v -1.246858 2.362284 2.841102
v -2.312992 2.362284 2.841101
v -1.779925 2.362284 2.841101
v -1.779925 1.821477 2.893226
v -1.246857 1.551074 0.684727
v -1.246857 1.821477 0.684727
v -1.246857 2.091881 0.684727
v -2.046458 1.280671 0.684727
v -1.779924 1.280671 0.684727
v -1.513391 1.280671 0.684727
v -2.312991 2.091881 0.684727
v -2.312991 1.821477 0.684727
v -2.312991 1.551074 0.684727
v -1.513391 2.362284 0.684727
v -1.779924 2.362284 0.684727
v -2.046458 2.362284 0.684727
v -1.513391 2.091881 0.684727
v -1.779924 2.091881 0.684727
v -2.046458 2.091881 0.684727
v -1.513391 1.821477 0.684727
v -1.779924 1.821477 0.684727
v -2.046458 1.821477 0.684727
v -1.513391 1.551074 0.684727
v -1.779924 1.551074 0.684727
v -2.046458 1.551074 0.684727
v -0.787611 0.832164 1.518606
v -2.787611 0.832164 1.518606
v -0.787611 2.832164 1.518607
v -2.787611 2.832164 1.518606
v -2.787611 2.362284 1.518606
v -0.787611 2.362284 1.518607
v -2.312992 2.832164 1.518606
v -2.312991 0.832164 1.518606
v -0.787611 1.280671 1.518606
v -2.787611 1.280671 1.518606
v -1.246857 0.832164 1.518606
v -1.246857 2.832164 1.518607
v -1.677616 2.832164 0.788977
v -1.677616 2.832164 2.788977
v -1.677616 2.362284 0.788977
v -1.677616 2.832164 1.518606
v -1.985859 2.832164 0.788977
v -1.985859 2.832164 2.788977
v -1.985859 2.362284 0.788977
v -1.985859 2.832164 1.518606
v -0.787611 0.832164 1.996863
v -0.787611 2.832164 1.996864
v -0.787611 2.362284 1.996864
v -2.312992 2.832164 1.996863
v -0.787611 1.280671 1.996863
v -1.246857 2.832164 1.996864
v -2.787611 0.832164 1.996863
v -2.787611 2.832164 1.996863
v -2.787611 2.362284 1.996863
v -2.312991 0.832164 1.996863
v -2.787611 1.280671 1.996863
v -1.246857 0.832164 1.996863
v -1.677616 2.832164 1.996863
v -1.985859 2.832164 1.996863
v -2.041729 2.832164 1.547744
v -1.831738 2.832164 1.460763
v -2.041729 2.832164 1.547744
v -2.128710 2.832164 1.757735
v -2.041729 2.832164 1.967726
v -1.831738 2.832164 2.054707
v -1.621746 2.832164 1.967726
v -1.534765 2.832164 1.757735
v -1.621746 2.832164 1.547744
v -1.831738 2.832164 1.460763
v -2.128710 2.832164 1.757735
v -2.041729 2.832164 1.967726
v -1.831738 2.832164 2.054707
v -1.621746 2.832164 1.967726
v -1.534765 2.832164 1.757735
v -1.621746 2.832164 1.547744
v -1.831738 2.989595 1.460763
v -1.621746 2.989595 1.547744
v -1.534765 2.989595 1.757735
v -1.621746 2.989595 1.967726
v -1.831738 2.989595 2.054707
v -2.041729 2.989595 1.967726
v -2.128710 2.989595 1.757735
v -2.041729 2.989595 1.547744
v -1.831738 3.023275 1.330345
v -1.529527 3.023275 1.455524
v -1.404347 3.023275 1.757735
v -1.529527 3.023275 2.059945
v -1.831738 3.023275 2.185125
v -2.133948 3.023275 2.059945
v -2.259128 3.023275 1.757735
v -2.133948 3.023275 1.455524
v -1.831738 3.200513 1.330345
v -1.529527 3.200513 1.455524
v -1.404347 3.200513 1.757735
v -1.529527 3.200513 2.059945
v -1.831738 3.200513 2.185125
v -2.133948 3.200513 2.059945
v -2.259128 3.200513 1.757735
v -2.133948 3.200513 1.455524
vn 0.0000 -1.0000 0.0000
vn 0.0000 1.0000 0.0000
vn 1.0000 0.0000 0.0000
vn -0.0000 0.0000 1.0000
vn -1.0000 -0.0000 -0.0000
vn 0.0000 0.0000 -1.0000
vn -0.9239 0.0000 0.3827
vn -0.2487 -0.9631 -0.1030
vn -0.3827 0.0000 0.9239
vn 0.3827 0.0000 0.9239
vn 0.9239 0.0000 0.3827
vn 0.9239 0.0000 -0.3827
vn -0.3827 0.0000 -0.9239
vn -0.9239 0.0000 -0.3827
vn 0.3827 0.0000 -0.9239
vn -0.1030 -0.9631 0.2487
vn 0.2487 -0.9631 0.1030
vn 0.1030 -0.9631 -0.2487
vn -0.1030 -0.9631 -0.2487
vn -0.2487 -0.9631 0.1030
vn 0.1030 -0.9631 0.2487
vn 0.2487 -0.9631 -0.1030
usemtl Material
s off
f 100//1 14//1 3//1 97//1
f 94//2 98//2 7//2 16//2
f 93//3 92//3 6//3 10//3
f 18//4 16//4 7//4 11//4
f 75//5 74//5 8//5 12//5
f 24//6 13//6 4//6 22//6
f 15//6 17//6 12//6 8//6
f 80//5 75//5 12//5 22//5
f 23//4 18//4 11//4 21//4
f 95//3 93//3 10//3 20//3
f 87//6 89//6 17//6 15//6
f 31//6 25//6 13//6 24//6
f 30//4 28//4 84//4 88//4 16//4 18//4 41//4
f 104//2 94//2 16//2 88//2
f 102//1 26//1 14//1 100//1
f 26//4 32//4 23//4 14//4
f 91//3 95//3 20//3 2//3
f 14//4 23//4 21//4 3//4
f 72//5 80//5 22//5 4//5
f 17//6 24//6 22//6 12//6
f 2//4 20//4 32//4 26//4
f 9//6 19//6 31//6 29//6
f 91//1 2//1 26//1 102//1
f 92//2 96//2 28//2 6//2
f 10//4 6//4 28//4 30//4
f 19//6 1//6 25//6 31//6
f 5//6 9//6 29//6 27//6
f 20//4 10//4 30//4 32//4
f 49//4 43//4 35//4 44//4
f 46//3 34//3 42//3
f 48//2 43//2 34//2 46//2
f 47//5 44//5 35//5
f 32//1 33//1 45//1 36//1 23//1
f 70//6 53//6 39//6 58//6
f 31//3 38//3 50//3 51//3 52//3 37//3 29//3
f 24//1 39//1 53//1 54//1 55//1 38//1 31//1
f 17//5 40//5 56//5 57//5 58//5 39//5 24//5
f 29//2 37//2 59//2 60//2 61//2 40//2 17//2 89//2 85//2
f 23//5 36//5 44//5 47//5 18//5
f 41//2 48//2 46//2 30//2
f 18//2 47//2 48//2 41//2
f 47//2 35//2 43//2 48//2
f 30//3 46//3 42//3 33//3 32//3
f 45//4 49//4 44//4 36//4
f 33//4 42//4 49//4 45//4
f 42//4 34//4 43//4 49//4
f 61//6 64//6 56//6 40//6
f 64//6 67//6 57//6 56//6
f 67//6 70//6 58//6 57//6
f 37//6 52//6 62//6 59//6
f 59//6 62//6 63//6 60//6
f 60//6 63//6 64//6 61//6
f 52//6 51//6 65//6 62//6
f 62//6 65//6 66//6 63//6
f 63//6 66//6 67//6 64//6
f 51//6 50//6 68//6 65//6
f 65//6 68//6 69//6 66//6
f 66//6 69//6 70//6 67//6
f 50//6 38//6 55//6 68//6
f 68//6 55//6 54//6 69//6
f 69//6 54//6 53//6 70//6
f 5//2 27//2 82//2 73//2
f 1//1 71//1 81//1 25//1
f 97//5 101//5 80//5 72//5
f 1//3 19//3 79//3 71//3
f 25//1 81//1 78//1 13//1
f 87//2 15//2 77//2 90//2
f 19//3 9//3 76//3 79//3
f 101//5 99//5 75//5 80//5
f 99//5 98//5 74//5 75//5
f 9//3 5//3 73//3 76//3
f 15//2 8//2 74//2 77//2
f 13//1 78//1 72//1 4//1
f 27//2 83//2 86//2 82//2
f 96//2 103//2 84//2 28//2
f 27//6 29//6 85//6 83//6
f 83//2 87//2 90//2 86//2
f 103//2 104//2 88//2 84//2
f 83//6 85//6 89//6 87//6
f 86//2 90//2 104//2 103//2
f 82//2 86//2 103//2 96//2
f 11//5 7//5 98//5 99//5
f 21//5 11//5 99//5 101//5
f 3//5 21//5 101//5 97//5
f 73//2 82//2 96//2 92//2
f 71//1 91//1 102//1 81//1
f 71//3 79//3 95//3 91//3
f 81//1 102//1 100//1 78//1
f 90//2 77//2 94//2 104//2
f 79//3 76//3 93//3 95//3
f 76//3 73//3 92//3 93//3
f 77//2 74//2 98//2 94//2
f 78//1 100//1 97//1 72//1
f 109//4 110//4 117//4 116//4
f 108//4 109//4 116//4 115//4
f 106//4 107//4 105//4 114//4
f 111//4 112//4 119//4 118//4
f 112//4 113//4 120//4 119//4
f 113//4 106//4 114//4 120//4
f 115//7 116//7 126//7 127//7
f 110//4 111//4 118//4 117//4
f 106//1 113//1 112//1 111//1 110//1 109//1 108//1 107//1
f 107//4 108//4 115//4 105//4
f 128//8 127//8 135//8 136//8
f 116//9 117//9 125//9 126//9
f 117//10 118//10 124//10 125//10
f 118//11 119//11 123//11 124//11
f 119//12 120//12 122//12 123//12
f 114//13 105//13 128//13 121//13
f 105//14 115//14 127//14 128//14
f 120//15 114//15 121//15 122//15
f 133//10 132//10 140//10 141//10
f 126//16 125//16 133//16 134//16
f 124//17 123//17 131//17 132//17
f 122//18 121//18 129//18 130//18
f 121//19 128//19 136//19 129//19
f 127//20 126//20 134//20 135//20
f 125//21 124//21 132//21 133//21
f 123//22 122//22 130//22 131//22
f 137//2 144//2 143//2 142//2 141//2 140//2 139//2 138//2
f 131//12 130//12 138//12 139//12
f 136//14 135//14 143//14 144//14
f 134//9 133//9 141//9 142//9
f 132//11 131//11 139//11 140//11
f 130//15 129//15 137//15 138//15
f 129//13 136//13 144//13 137//13
f 135//7 134//7 142//7 143//7
