# Blender v2.79 (sub 0) OBJ File: 'es 2 .blend'
# www.blender.org
mtllib 983145-2 .mtl
o Cylinder_Cylinder.001
v 0.787079 -0.950313 -2.057695
v 0.787079 0.023897 -2.057695
v 1.131514 -0.950313 -1.915026
v 1.131514 0.023897 -1.915026
v 1.274184 -0.950313 -1.570590
v 1.274184 0.023897 -1.570590
v 1.131514 -0.950313 -1.226155
v 1.131514 0.023897 -1.226155
v 0.787079 -0.950313 -1.083485
v 0.787079 0.023897 -1.083485
v 0.442644 -0.950313 -1.226155
v 0.442644 0.023897 -1.226155
v 0.299974 -0.950313 -1.570590
v 0.299974 0.023897 -1.570590
v 0.442644 -0.950313 -1.915026
v 0.442644 0.023897 -1.915026
v 0.787079 -0.950313 -2.287844
v 1.294254 -0.950313 -2.077765
v 1.504333 -0.950313 -1.570590
v 1.294254 -0.950313 -1.063415
v 0.787079 -0.950313 -0.853336
v 0.279904 -0.950313 -1.063415
v 0.069825 -0.950313 -1.570590
v 0.279904 -0.950313 -2.077765
v 0.787079 -1.151371 -2.287844
v 1.294254 -1.151371 -2.077765
v 1.504333 -1.151371 -1.570590
v 1.294254 -1.151371 -1.063415
v 0.787079 -1.151371 -0.853336
v 0.279904 -1.151371 -1.063415
v 0.069825 -1.151371 -1.570590
v 0.279904 -1.151371 -2.077765
v 0.787079 -1.151371 -4.539865
v 3.756354 -1.151371 -4.539865
v 3.756354 -1.151371 -1.570590
v 3.756354 -1.151371 1.398684
v 0.787079 -1.151371 1.398684
v -2.182196 -1.151371 1.398684
v -2.182196 -1.151371 -1.570590
v -2.182196 -1.151371 -4.539865
v 0.787079 -3.467211 -4.539865
v 3.756354 -3.467211 -4.539865
v 3.756354 -3.467211 -1.570590
v 3.756354 -3.467211 1.398684
v 0.787079 -3.467211 1.398684
v -2.182196 -3.467211 1.398684
v -2.182196 -3.467211 -1.570590
v -2.182196 -3.467211 -4.539865
v 3.756354 -1.151371 1.645870
v 0.787079 -1.151371 1.818533
v -2.182196 -1.151371 1.645870
v 3.756354 -3.467211 1.645870
v 0.787079 -3.467211 1.818533
v -2.182196 -3.467211 1.645870
v -2.503981 -1.151371 1.398684
v -2.503981 -1.151371 -1.570590
v -2.503981 -1.151371 -4.539865
v -2.503981 -3.467211 1.398684
v -2.503981 -3.467211 -1.570590
v -2.503981 -3.467211 -4.539865
v -2.503981 -3.467211 1.645870
v -2.503981 -1.151371 1.645870
v 0.787079 -1.151371 -4.984287
v 3.756354 -1.151371 -4.823381
v -2.182196 -1.151371 -4.823381
v 0.787079 -3.467211 -4.984287
v 3.756354 -3.467211 -4.823381
v -2.182196 -3.467211 -4.823381
v -2.503981 -3.467211 -4.823381
v -2.503981 -1.151371 -4.823381
v 4.137281 -1.151371 -4.539865
v 4.137281 -1.151371 -1.570590
v 4.137281 -1.151371 1.398684
v 4.137281 -3.467211 -4.539865
v 4.137281 -3.467211 -1.570590
v 4.137281 -3.467211 1.398684
v 4.137281 -1.151371 1.645870
v 4.137281 -3.467211 1.645870
v 4.137281 -3.467211 -4.823381
v 4.137281 -1.151371 -4.823381
v -2.182196 -1.333622 1.645870
v 0.787079 -1.333622 1.818533
v 3.756354 -1.333622 1.645870
v -2.503981 -1.333622 -4.539865
v -2.503981 -1.333622 -1.570590
v -2.503981 -1.333622 1.398684
v -2.503981 -1.333622 1.645870
v 0.787079 -1.333622 -4.984287
v -2.182196 -1.333622 -4.823381
v 3.756354 -1.333622 -4.823381
v -2.503981 -1.333622 -4.823381
v 4.137281 -1.333622 1.398684
v 4.137281 -1.333622 -1.570590
v 4.137281 -1.333622 -4.539865
v 4.137281 -1.333622 1.645870
v 4.137281 -1.333622 -4.823381
v 0.787079 -3.260194 1.818533
v -2.503981 -3.260194 -1.570590
v 0.787079 -3.260194 -4.984287
v 4.137281 -3.260194 -1.570590
v -2.182196 -3.260194 1.645870
v 3.756354 -3.260194 1.645870
v -2.503981 -3.260194 -4.539865
v -2.503981 -3.260194 1.398684
v -2.503981 -3.260194 1.645870
v -2.182196 -3.260194 -4.823381
v 3.756354 -3.260194 -4.823381
v -2.503981 -3.260194 -4.823381
v 4.137281 -3.260194 1.398684
v 4.137281 -3.260194 -4.539865
v 4.137281 -3.260194 1.645870
v 4.137281 -3.260194 -4.823381
v -2.182196 -3.260194 -5.240576
v -2.182196 -1.333622 -5.240576
v 3.756354 -3.260194 -5.240576
v 3.756354 -1.333622 -5.240576
v 0.787079 -1.333622 -5.401482
v 0.787079 -3.260194 -5.401482
v -2.182196 -3.260194 1.238750
v -2.182196 -1.333622 1.238750
v 3.756354 -3.260194 1.238750
v 3.756354 -1.333622 1.238750
v 0.787079 -1.333622 1.411413
v 0.787079 -3.260194 1.411413
v -2.182196 -2.110365 1.645870
v 3.756354 -2.110365 1.645870
v -2.503981 -2.110365 -4.539865
v -2.503981 -2.110365 1.398684
v -2.503981 -2.110365 1.645870
v -2.182196 -2.110365 -4.823381
v 3.756354 -2.110365 -4.823381
v -2.503981 -2.110365 -4.823381
v 4.137281 -2.110365 1.398684
v 4.137281 -2.110365 -4.539865
v 4.137281 -2.110365 1.645870
v 4.137281 -2.110365 -4.823381
v -2.503981 -2.110365 -1.570590
v 4.137281 -2.110365 -1.570590
v -2.182196 -2.110365 -5.240576
v 3.756354 -2.110365 -5.240576
v 0.787079 -2.110365 -5.401482
v -2.182196 -2.110365 1.238750
v 3.756354 -2.110365 1.238750
v 0.787079 -2.110365 1.411413
v -2.182196 -1.387191 1.645870
v 3.756354 -1.387191 1.645870
v -2.503981 -1.387191 -4.539865
v -2.503981 -1.387191 1.398684
v -2.503981 -1.387191 1.645870
v -2.182196 -1.387191 -4.823381
v 3.756354 -1.387191 -4.823381
v -2.503981 -1.387191 -4.823381
v 4.137281 -1.387191 1.398684
v 4.137281 -1.387191 -4.539865
v 4.137281 -1.387191 1.645870
v 4.137281 -1.387191 -4.823381
v -2.182196 -1.387191 -5.240576
v 3.756354 -1.387191 -5.240576
v -2.182196 -1.387191 1.238750
v 3.756354 -1.387191 1.238750
v -2.503981 -1.387191 -1.570590
v 4.137281 -1.387191 -1.570590
v 0.787079 -1.387191 -5.401482
v 0.787079 -1.387191 1.411413
v -2.503981 -3.195177 -1.570590
v 4.137281 -3.195177 -1.570590
v 0.787079 -3.195177 -5.401482
v 0.787079 -3.195177 1.411413
v -2.182196 -3.195177 1.645870
v 3.756354 -3.195177 1.645870
v -2.503981 -3.195177 -4.539865
v -2.503981 -3.195177 1.398684
v -2.503981 -3.195177 1.645870
v -2.182196 -3.195177 -4.823381
v 3.756354 -3.195177 -4.823381
v -2.503981 -3.195177 -4.823381
v 4.137281 -3.195177 1.398684
v 4.137281 -3.195177 -4.539865
v 4.137281 -3.195177 1.645870
v 4.137281 -3.195177 -4.823381
v -2.182196 -3.195177 -5.240576
v 3.756354 -3.195177 -5.240576
v -2.182196 -3.195177 1.238750
v 3.756354 -3.195177 1.238750
v -2.182196 -1.333622 -5.168472
v -2.182196 -3.260194 -5.168472
v 0.787079 -3.260194 -5.329378
v 3.756354 -3.260194 -5.168472
v 0.787079 -1.333622 -5.329378
v 3.756354 -1.333622 -5.168472
v 3.756354 -2.110365 -5.168472
v -2.182196 -2.110365 -5.168472
v 3.756354 -1.387191 -5.168472
v -2.182196 -1.387191 -5.168472
v -2.182196 -3.195177 -5.168472
v 3.756354 -3.195177 -5.168472
v -2.182196 -3.260194 -4.876296
v 3.756354 -3.260194 -4.876296
v 3.756354 -1.333622 -4.876296
v -2.182196 -1.333622 -4.876296
v 0.787079 -3.260194 -5.037201
v 0.787079 -1.333622 -5.037201
v 3.756354 -2.110365 -4.876296
v -2.182196 -2.110365 -4.876296
v 3.756354 -1.387191 -4.876296
v -2.182196 -1.387191 -4.876296
v -2.182196 -3.195177 -4.876296
v 3.756354 -3.195177 -4.876296
v 0.787079 -0.016602 -2.057695
v 1.131514 -0.016602 -1.915026
v 1.274184 -0.016602 -1.570590
v 1.131514 -0.016602 -1.226155
v 0.787079 -0.016602 -1.083485
v 0.442644 -0.016602 -1.226155
v 0.299974 -0.016602 -1.570590
v 0.442644 -0.016602 -1.915026
v 1.131514 -0.865042 -1.915026
v 1.274184 -0.865042 -1.570590
v 1.131514 -0.865042 -1.226155
v 0.787079 -0.865042 -1.083485
v 0.442644 -0.865042 -1.226155
v 0.299974 -0.865042 -1.570590
v 0.442644 -0.865042 -1.915026
v 0.787079 -0.865042 -2.057695
v 0.437219 -0.950313 -1.920450
v 0.292302 -0.950313 -1.570590
v 1.281856 -0.950313 -1.570590
v 1.136939 -0.950313 -1.920450
v 0.437219 -0.950313 -1.220731
v 0.787079 -0.950313 -1.075814
v 0.787079 -0.950313 -2.065367
v 1.136939 -0.950313 -1.220730
v 0.279904 -1.151371 -2.077765
v 0.069825 -1.151371 -1.570590
v 0.279904 -1.151371 -1.063415
v 0.787079 -1.151371 -0.853336
v 1.294254 -1.151371 -1.063415
v 1.504333 -1.151371 -1.570590
v 1.294254 -1.151371 -2.077765
v 0.787079 -1.151371 -2.287844
v 1.891188 -1.151371 -1.570590
v 1.717196 -1.151371 -2.500707
v -0.143038 -1.151371 -2.500707
v -0.317029 -1.151371 -1.570590
v -0.143038 -1.151371 -0.640473
v 0.787079 -1.151371 -0.466482
v 1.717196 -1.151371 -0.640473
v 0.787079 -1.151371 -2.674699
v 0.069825 -0.981434 -1.570590
v 0.787079 -0.981434 -0.853336
v 1.504333 -0.981434 -1.570590
v 0.787079 -0.981434 -2.287844
v 0.279904 -0.981434 -2.077765
v 0.279904 -0.981434 -1.063415
v 1.294254 -0.981434 -1.063415
v 1.294254 -0.981434 -2.077765
v 0.279904 -1.092253 -2.077765
v 0.279904 -1.092253 -1.063415
v 1.294254 -1.092253 -1.063415
v 1.294254 -1.092253 -2.077765
v 0.069825 -1.092253 -1.570590
v 0.787079 -1.092253 -0.853336
v 1.504333 -1.092253 -1.570590
v 0.787079 -1.092253 -2.287844
v 0.491884 -1.791874 -2.021497
v 0.447537 -1.645206 -1.018786
v 1.457402 -1.555285 -0.987275
v 1.501750 -1.701953 -1.989986
v 0.260561 -1.737163 -1.526668
v 0.943285 -1.569870 -0.795363
v 1.688726 -1.609996 -1.482105
v 1.006001 -1.777289 -2.213409
v 0.758633 -2.454431 -1.855864
v 0.658449 -2.168834 -0.887720
v 1.654996 -1.986137 -0.838492
v 1.755180 -2.271733 -1.806636
v 0.502150 -2.349470 -1.381987
v 1.135974 -2.018337 -0.662596
v 1.911479 -2.091097 -1.312368
v 1.277655 -2.422231 -2.031759
v 1.072046 -3.059792 -1.585900
v 0.906233 -2.647228 -0.674197
v 1.881032 -2.371717 -0.621584
v 2.046845 -2.784281 -1.533288
v 0.787252 -2.910570 -1.140945
v 1.359292 -2.424028 -0.459071
v 2.165826 -2.520938 -1.066539
v 1.593786 -3.007481 -1.748414
v 1.183360 -3.065851 -0.384707
v 2.128643 -2.700309 -0.343144
v 2.367882 -3.224023 -1.178245
v 1.107206 -3.403414 -0.810865
v 1.606453 -2.774616 -0.190970
v 2.444037 -2.886460 -0.752087
v 1.481409 -3.411984 -0.028045
v 2.390304 -2.961930 -0.011632
v 1.869948 -3.059448 0.133559
v 2.737659 -3.176555 -0.378565
v 2.658066 -3.148631 0.362880
v 2.141770 -3.269871 0.504656
v 3.037772 -3.382410 0.042676
v 2.923792 -3.254738 0.769013
v 2.413661 -3.399492 0.911045
v 3.179409 -3.277028 1.194425
v 2.677359 -3.444370 1.340379
v 0.787079 -0.070221 -2.057695
v 1.131514 -0.070221 -1.915026
v 1.274184 -0.070221 -1.570590
v 1.131514 -0.070221 -1.226155
v 0.787079 -0.070221 -1.083485
v 0.442644 -0.070221 -1.226155
v 0.299974 -0.070221 -1.570590
v 0.442644 -0.070221 -1.915026
vn 0.3827 0.0000 -0.9239
vn 0.9239 0.0000 -0.3827
vn 0.9239 0.0000 0.3827
vn 0.3827 0.0000 0.9239
vn -0.3827 0.0000 0.9239
vn -0.9239 0.0000 0.3827
vn 0.0000 1.0000 0.0000
vn -0.9239 0.0000 -0.3827
vn -0.3827 0.0000 -0.9239
vn 0.0000 0.0000 1.0000
vn 0.0000 -1.0000 0.0000
vn 0.0000 0.0000 -1.0000
vn 0.0581 0.0000 0.9983
vn -0.0581 0.0000 0.9983
vn -1.0000 0.0000 0.0000
vn -0.0541 0.0000 -0.9985
vn 0.0541 0.0000 -0.9985
vn 1.0000 0.0000 0.0000
vn -0.8811 -0.2917 -0.3722
vn -0.8963 -0.2406 0.3724
vn 0.3957 0.0153 -0.9182
vn -0.3945 -0.0325 0.9183
vn -0.3566 -0.1972 -0.9132
vn -0.8886 -0.2628 0.3759
vn 0.4329 -0.0826 -0.8977
vn -0.4302 0.0657 0.9003
vn 0.2901 0.4062 0.8665
vn -0.2987 -0.3580 -0.8847
vn 0.8095 0.4874 0.3273
vn -0.8367 -0.4194 -0.3522
vn 0.8845 0.2740 -0.3775
vn -0.7827 -0.5384 -0.3122
vn 0.8744 0.2938 -0.3862
vn -0.8793 -0.2834 0.3828
vn 0.4771 -0.1728 -0.8617
vn -0.4731 0.1568 0.8669
vn 0.2172 0.5513 0.8055
vn -0.2290 -0.5072 -0.8309
vn 0.7511 0.5995 0.2766
vn 0.1351 0.6791 0.7215
vn 0.6858 0.6974 0.2082
vn 0.8630 0.3112 -0.3980
vn -0.8686 -0.3019 0.3930
vn -0.5220 0.2380 0.8191
vn -0.5753 0.3067 0.7583
vn 0.0465 0.7855 0.6171
vn 0.6157 0.7781 0.1240
vn -0.0460 0.8675 0.4953
vn 0.5429 0.8394 0.0267
vn -0.1395 0.9225 0.3599
vn -0.2313 0.9488 0.2151
usemtl None
s off
f 209//1 2//1 4//1 210//1
f 210//2 4//2 6//2 211//2
f 211//3 6//3 8//3 212//3
f 212//4 8//4 10//4 213//4
f 213//5 10//5 12//5 214//5
f 214//6 12//6 14//6 215//6
f 8//7 14//7 12//7 10//7
f 215//8 14//8 16//8 216//8
f 216//9 16//9 2//9 209//9
f 226//7 225//7 24//7 23//7
f 234//10 233//10 32//10 31//10
f 228//7 227//7 19//7 18//7
f 230//7 229//7 22//7 21//7
f 225//7 231//7 17//7 24//7
f 231//7 228//7 18//7 17//7
f 227//7 232//7 20//7 19//7
f 229//7 226//7 23//7 22//7
f 232//7 230//7 21//7 20//7
f 242//7 241//7 35//7 34//7
f 236//10 235//10 30//10 29//10
f 238//10 237//10 28//10 27//10
f 240//10 239//10 26//10 25//10
f 233//10 240//10 25//10 32//10
f 235//10 234//10 31//10 30//10
f 237//10 236//10 29//10 28//10
f 239//10 238//10 27//10 26//10
f 57//7 40//7 65//7 70//7
f 244//7 243//7 40//7 39//7
f 246//7 245//7 38//7 37//7
f 241//7 247//7 36//7 35//7
f 248//7 242//7 34//7 33//7
f 243//7 248//7 33//7 40//7
f 245//7 244//7 39//7 38//7
f 247//7 246//7 37//7 36//7
f 41//11 42//11 43//11 44//11 45//11 46//11 47//11 48//11
f 81//10 51//10 62//10 87//10
f 38//7 39//7 56//7 55//7
f 90//12 64//12 80//12 96//12
f 46//11 54//11 61//11 58//11
f 44//11 43//11 75//11 76//11
f 34//7 35//7 72//7 71//7
f 42//11 41//11 66//11 67//11
f 102//13 97//13 53//13 52//13
f 97//14 101//14 54//14 53//14
f 36//7 37//7 50//7 49//7
f 45//11 44//11 52//11 53//11
f 37//7 38//7 51//7 50//7
f 46//11 45//11 53//11 54//11
f 104//15 98//15 59//15 58//15
f 104//15 58//15 61//15 105//15
f 98//15 103//15 60//15 59//15
f 40//7 33//7 63//7 65//7
f 47//11 46//11 58//11 59//11
f 51//7 38//7 55//7 62//7
f 39//7 40//7 57//7 56//7
f 48//11 47//11 59//11 60//11
f 106//16 99//16 66//16 68//16
f 99//17 107//17 67//17 66//17
f 106//12 68//12 69//12 108//12
f 41//11 48//11 68//11 66//11
f 84//15 57//15 70//15 91//15
f 48//11 60//11 69//11 68//11
f 33//7 34//7 64//7 63//7
f 36//7 49//7 77//7 73//7
f 110//18 100//18 75//18 74//18
f 92//18 73//18 77//18 95//18
f 100//18 109//18 76//18 75//18
f 110//18 74//18 79//18 112//18
f 52//11 44//11 76//11 78//11
f 35//7 36//7 73//7 72//7
f 42//11 67//11 79//11 74//11
f 43//11 42//11 74//11 75//11
f 64//7 34//7 71//7 80//7
f 102//10 52//10 78//10 111//10
f 49//10 83//10 95//10 77//10
f 71//18 94//18 96//18 80//18
f 72//18 73//18 92//18 93//18
f 153//18 92//18 95//18 155//18
f 71//18 72//18 93//18 94//18
f 147//15 84//15 91//15 152//15
f 65//12 89//12 91//12 70//12
f 63//17 64//17 90//17 88//17
f 65//16 63//16 88//16 89//16
f 56//15 57//15 84//15 85//15
f 55//15 86//15 87//15 62//15
f 55//15 56//15 85//15 86//15
f 50//14 51//14 81//14 82//14
f 49//13 50//13 82//13 83//13
f 151//12 90//12 96//12 156//12
f 145//10 81//10 87//10 149//10
f 54//10 101//10 105//10 61//10
f 67//12 107//12 112//12 79//12
f 60//15 103//15 108//15 69//15
f 76//18 109//18 111//18 78//18
f 170//10 102//10 111//10 179//10
f 178//18 110//18 112//18 180//18
f 166//18 177//18 109//18 100//18
f 178//18 166//18 100//18 110//18
f 174//12 106//12 108//12 176//12
f 188//11 187//11 118//11 115//11
f 194//15 185//15 114//15 157//15
f 165//15 171//15 103//15 98//15
f 172//15 104//15 105//15 173//15
f 172//15 165//15 98//15 104//15
f 82//11 81//11 120//11 123//11
f 97//7 102//7 121//7 124//7
f 167//17 182//17 115//17 118//17
f 181//16 167//16 118//16 113//16
f 185//7 189//7 117//7 114//7
f 196//18 188//18 115//18 182//18
f 187//11 186//11 113//11 118//11
f 189//7 190//7 116//7 117//7
f 168//14 183//14 119//14 124//14
f 184//13 168//13 124//13 121//13
f 146//15 83//15 122//15 160//15
f 169//18 101//18 119//18 183//18
f 101//7 97//7 124//7 119//7
f 83//11 82//11 123//11 122//11
f 145//18 125//18 142//18 159//18
f 170//15 126//15 143//15 184//15
f 160//13 164//13 144//13 143//13
f 164//14 159//14 142//14 144//14
f 193//18 191//18 140//18 158//18
f 157//16 163//16 141//16 139//16
f 163//17 158//17 140//17 141//17
f 148//15 161//15 137//15 128//15
f 148//15 128//15 129//15 149//15
f 161//15 147//15 127//15 137//15
f 195//15 192//15 139//15 181//15
f 150//12 130//12 132//12 152//12
f 154//18 162//18 138//18 134//18
f 162//18 153//18 133//18 138//18
f 154//18 134//18 136//18 156//18
f 146//10 126//10 135//10 155//10
f 169//10 125//10 129//10 173//10
f 175//12 131//12 136//12 180//12
f 171//15 127//15 132//15 176//15
f 177//18 133//18 135//18 179//18
f 83//10 146//10 155//10 95//10
f 94//18 154//18 156//18 96//18
f 93//18 92//18 153//18 162//18
f 94//18 93//18 162//18 154//18
f 89//12 150//12 152//12 91//12
f 85//15 84//15 147//15 161//15
f 86//15 148//15 149//15 87//15
f 86//15 85//15 161//15 148//15
f 117//17 116//17 158//17 163//17
f 114//16 117//16 163//16 157//16
f 190//18 193//18 158//18 116//18
f 123//14 120//14 159//14 164//14
f 122//13 123//13 164//13 160//13
f 81//18 145//18 159//18 120//18
f 126//15 146//15 160//15 143//15
f 192//15 194//15 157//15 139//15
f 125//10 145//10 149//10 129//10
f 131//12 151//12 156//12 136//12
f 127//15 147//15 152//15 132//15
f 133//18 153//18 155//18 135//18
f 109//18 177//18 179//18 111//18
f 103//15 171//15 176//15 108//15
f 107//12 175//12 180//12 112//12
f 101//10 169//10 173//10 105//10
f 186//15 195//15 181//15 113//15
f 102//15 170//15 184//15 121//15
f 125//18 169//18 183//18 142//18
f 143//13 144//13 168//13 184//13
f 144//14 142//14 183//14 168//14
f 191//18 196//18 182//18 140//18
f 139//16 141//16 167//16 181//16
f 141//17 140//17 182//17 167//17
f 128//15 137//15 165//15 172//15
f 128//15 172//15 173//15 129//15
f 137//15 127//15 171//15 165//15
f 130//12 174//12 176//12 132//12
f 134//18 138//18 166//18 178//18
f 138//18 133//18 177//18 166//18
f 134//18 178//18 180//18 136//18
f 126//10 170//10 179//10 135//10
f 203//18 208//18 196//18 191//18
f 197//15 207//15 195//15 186//15
f 204//15 206//15 194//15 192//15
f 199//18 205//18 193//18 190//18
f 207//15 204//15 192//15 195//15
f 205//18 203//18 191//18 193//18
f 202//7 199//7 190//7 189//7
f 201//11 197//11 186//11 187//11
f 208//18 198//18 188//18 196//18
f 200//7 202//7 189//7 185//7
f 206//15 200//15 185//15 194//15
f 198//11 201//11 187//11 188//11
f 107//11 99//11 201//11 198//11
f 150//15 89//15 200//15 206//15
f 89//7 88//7 202//7 200//7
f 175//18 107//18 198//18 208//18
f 99//11 106//11 197//11 201//11
f 88//7 90//7 199//7 202//7
f 151//18 131//18 203//18 205//18
f 174//15 130//15 204//15 207//15
f 90//18 151//18 205//18 199//18
f 130//15 150//15 206//15 204//15
f 106//15 174//15 207//15 197//15
f 131//18 175//18 208//18 203//18
f 313//9 216//9 209//9 306//9
f 312//8 215//8 216//8 313//8
f 311//6 214//6 215//6 312//6
f 310//5 213//5 214//5 311//5
f 309//4 212//4 213//4 310//4
f 308//3 211//3 212//3 309//3
f 307//2 210//2 211//2 308//2
f 306//1 209//1 210//1 307//1
f 1//1 224//1 217//1 3//1
f 3//2 217//2 218//2 5//2
f 5//3 218//3 219//3 7//3
f 7//4 219//4 220//4 9//4
f 9//5 220//5 221//5 11//5
f 11//6 221//6 222//6 13//6
f 13//8 222//8 223//8 15//8
f 15//9 223//9 224//9 1//9
f 7//7 9//7 230//7 232//7
f 11//7 13//7 226//7 229//7
f 5//7 7//7 232//7 227//7
f 1//7 3//7 228//7 231//7
f 15//7 1//7 231//7 225//7
f 9//7 11//7 229//7 230//7
f 3//7 5//7 227//7 228//7
f 13//7 15//7 225//7 226//7
f 260//2 263//2 238//2 239//2
f 259//4 262//4 236//4 237//4
f 258//6 261//6 234//6 235//6
f 257//9 264//9 240//9 233//9
f 264//1 260//1 239//1 240//1
f 263//3 259//3 237//3 238//3
f 261//8 257//8 233//8 234//8
f 28//7 29//7 246//7 247//7
f 30//7 31//7 244//7 245//7
f 32//7 25//7 248//7 243//7
f 25//7 26//7 242//7 248//7
f 27//7 28//7 247//7 241//7
f 29//7 30//7 245//7 246//7
f 31//7 32//7 243//7 244//7
f 26//7 27//7 241//7 242//7
f 23//8 24//8 253//8 249//8
f 21//5 22//5 254//5 250//5
f 19//3 20//3 255//3 251//3
f 17//1 18//1 256//1 252//1
f 24//9 17//9 252//9 253//9
f 22//6 23//6 249//6 254//6
f 20//4 21//4 250//4 255//4
f 18//2 19//2 251//2 256//2
f 249//8 253//8 257//8 261//8
f 250//5 254//5 258//5 262//5
f 251//3 255//3 259//3 263//3
f 252//1 256//1 260//1 264//1
f 253//9 252//9 264//9 257//9
f 254//6 249//6 261//6 258//6
f 255//4 250//4 262//4 259//4
f 256//2 251//2 263//2 260//2
f 261//19 257//19 265//19 269//19
f 258//20 261//20 269//20 266//20
f 264//21 260//21 268//21 272//21
f 262//22 258//22 266//22 270//22
f 257//23 264//23 272//23 265//23
f 266//24 269//24 277//24 274//24
f 272//25 268//25 276//25 280//25
f 270//26 266//26 274//26 278//26
f 267//27 270//27 278//27 275//27
f 265//28 272//28 280//28 273//28
f 271//29 267//29 275//29 279//29
f 269//30 265//30 273//30 277//30
f 268//31 271//31 279//31 276//31
f 277//32 273//32 281//32 285//32
f 276//33 279//33 287//33 284//33
f 274//34 277//34 285//34 282//34
f 280//35 276//35 284//35 288//35
f 278//36 274//36 282//36 286//36
f 275//37 278//37 286//37 283//37
f 273//38 280//38 288//38 281//38
f 279//39 275//39 283//39 287//39
f 283//40 286//40 293//40 290//40
f 287//41 283//41 290//41 294//41
f 284//42 287//42 294//42 291//42
f 282//43 285//43 292//43 289//43
f 286//44 282//44 289//44 293//44
f 293//45 289//45 295//45 297//45
f 290//46 293//46 297//46 296//46
f 294//47 290//47 296//47 298//47
f 296//48 297//48 300//48 299//48
f 298//49 296//49 299//49 301//49
f 299//50 300//50 303//50 302//50
f 302//51 303//51 305//51 304//51
f 224//1 306//1 307//1 217//1
f 217//2 307//2 308//2 218//2
f 218//3 308//3 309//3 219//3
f 219//4 309//4 310//4 220//4
f 220//5 310//5 311//5 221//5
f 221//6 311//6 312//6 222//6
f 222//8 312//8 313//8 223//8
f 223//9 313//9 306//9 224//9
f 4//7 2//7 16//7 6//7
f 6//7 16//7 14//7 8//7
