# Blender v2.79 (sub 0) OBJ File: 'untitled.blend'
# www.blender.org
mtllib 893361-51.mtl
o Circle
v 0.000000 0.975846 -0.390507
v -0.276130 0.975846 -0.276130
v -0.390507 0.975846 0.000000
v -0.276130 0.975846 0.276130
v 0.000000 0.975846 0.390507
v 0.276130 0.975846 0.276130
v 0.390507 0.975846 -0.000000
v 0.276130 0.975846 -0.276130
v 0.000000 1.183355 -0.390507
v -0.276130 1.183355 -0.276130
v -0.390507 1.183355 0.000000
v -0.276130 1.183355 0.276130
v 0.000000 1.183355 0.390507
v 0.276130 1.183355 0.276130
v 0.390507 1.183355 -0.000000
v 0.276130 1.183355 -0.276130
v 0.000000 1.183354 -0.196959
v -0.139271 1.183354 -0.139271
v -0.196959 1.183354 -0.000000
v -0.139271 1.183354 0.139271
v 0.000000 1.183354 0.196959
v 0.139271 1.183354 0.139271
v 0.196959 1.183354 -0.000000
v 0.139271 1.183354 -0.139271
v 0.000000 1.525838 -0.196959
v -0.139271 1.525838 -0.139271
v -0.196959 1.525838 -0.000000
v -0.139271 1.525838 0.139271
v 0.000000 1.525838 0.196959
v 0.139271 1.525838 0.139271
v 0.196959 1.525838 -0.000000
v 0.139271 1.525838 -0.139271
v 1.942086 0.975846 -1.942086
v -1.942086 0.975846 -1.942086
v 1.942086 0.975846 1.942086
v -1.942086 0.975846 1.942086
v 1.942086 0.016811 -1.942086
v -1.942086 0.016811 -1.942086
v 1.942086 0.016811 1.942086
v -1.942086 0.016811 1.942086
v -1.416016 0.975846 -2.010536
v -1.416016 0.975846 2.010530
v -1.416016 0.016811 -1.998644
v -1.416016 0.016811 2.010530
v 1.507118 0.975846 2.010530
v 1.507118 0.016811 2.010530
v 1.507118 0.975846 -1.998644
v 1.507118 0.016811 -1.998644
v -1.942086 0.254837 1.942086
v -1.942086 0.254837 -1.942086
v 1.942086 0.254837 -1.942086
v 1.942086 0.254837 1.942086
v -1.416016 0.254837 -1.998644
v -1.416016 0.254837 2.010530
v 1.507118 0.254837 -1.998644
v 1.507118 0.254837 2.010530
v -1.942086 0.744002 -1.942086
v 1.942086 0.744002 1.942086
v -1.942086 0.744002 1.942086
v 1.942086 0.744002 -1.942086
v -1.416016 0.744002 -1.999407
v -1.416016 0.744002 2.010530
v 1.507118 0.744002 -1.998644
v 1.507118 0.744002 2.010530
v -1.416016 0.744002 1.764022
v -1.416016 0.254837 1.764022
v 1.507118 0.744002 1.764022
v 1.507118 0.254837 1.764022
v -1.416016 0.744002 -1.942086
v -1.416016 0.254837 -1.942086
v 1.507118 0.744002 -1.942086
v 1.507118 0.254837 -1.942086
v -1.416016 0.744002 -2.239907
v -1.416016 0.254837 -2.239907
v 1.507118 0.744002 -2.239907
v 1.507118 0.254837 -2.239907
v 0.045551 0.975846 -2.092196
v 0.045551 0.016811 -2.092196
v 0.045551 0.975846 2.059577
v 0.045551 0.016811 2.059577
v 0.045551 0.254837 2.059577
v 0.045551 0.254837 -2.092196
v 0.045551 0.744002 -2.092196
v 0.045551 0.744002 2.059577
v 0.045551 0.254837 1.764022
v 0.045551 0.744002 1.764022
v 0.045551 0.254837 -1.942086
v 0.045551 0.744002 -1.942086
v 0.045551 0.254837 -2.296465
v 0.045551 0.744002 -2.296465
v 1.942086 0.975846 0.000000
v -1.942086 0.975846 0.000000
v 1.942086 0.016811 0.000000
v -1.942086 0.016811 0.000000
v -1.416016 0.016811 0.068445
v -1.416016 0.975846 0.000757
v 1.507118 0.016811 0.068445
v 1.507118 0.975846 0.011886
v 1.942086 0.254837 0.000000
v -1.942086 0.254837 0.000000
v -1.942086 0.744002 0.000000
v 1.942086 0.744002 0.000000
v 0.045551 0.975846 -0.032619
v 0.045551 0.016811 0.023940
vn 0.3827 0.0000 -0.9239
vn 0.9239 0.0000 0.3827
vn -0.3827 0.0000 0.9239
vn -0.9239 0.0000 -0.3827
vn 0.9239 0.0000 -0.3827
vn 0.3827 0.0000 0.9239
vn -0.9239 0.0000 0.3827
vn -0.3827 0.0000 -0.9239
vn -0.0000 1.0000 -0.0000
vn 0.0000 -1.0000 0.0000
vn 1.0000 0.0000 0.0000
vn -1.0000 0.0000 0.0000
vn -0.1554 0.0000 -0.9878
vn 0.1069 0.0000 0.9943
vn 0.0639 -0.0000 0.9980
vn 0.1290 0.0000 -0.9916
vn -0.1289 0.0000 0.9917
vn -0.0335 0.0000 -0.9994
vn 0.1076 0.0008 0.9942
vn 0.1187 0.0238 0.9926
vn 0.0596 0.0240 0.9979
vn 0.0000 0.0000 -1.0000
vn 0.0387 0.0000 0.9993
vn -0.0387 0.0000 0.9993
vn 0.0335 0.0000 -0.9994
vn -0.0639 -0.0000 0.9980
usemtl None
s off
f 8//1 1//1 9//1 16//1
f 6//2 7//2 15//2 14//2
f 4//3 5//3 13//3 12//3
f 2//4 3//4 11//4 10//4
f 7//5 8//5 16//5 15//5
f 5//6 6//6 14//6 13//6
f 3//7 4//7 12//7 11//7
f 1//8 2//8 10//8 9//8
f 23//5 24//5 32//5 31//5
f 21//6 22//6 30//6 29//6
f 19//7 20//7 28//7 27//7
f 17//8 18//8 26//8 25//8
f 24//1 17//1 25//1 32//1
f 22//2 23//2 31//2 30//2
f 20//3 21//3 29//3 28//3
f 18//4 19//4 27//4 26//4
f 9//9 17//9 24//9 16//9
f 16//9 24//9 23//9 15//9
f 15//9 23//9 22//9 14//9
f 14//9 22//9 21//9 13//9
f 13//9 21//9 20//9 12//9
f 12//9 20//9 19//9 11//9
f 11//9 19//9 18//9 10//9
f 10//9 18//9 17//9 9//9
f 26//9 27//9 28//9 29//9 30//9 31//9 32//9 25//9
f 98//10 47//10 33//10 91//10
f 97//9 93//9 37//9 48//9
f 100//11 49//11 40//11 94//11
f 99//12 51//12 37//12 93//12
f 56//13 52//13 39//13 46//13
f 53//14 50//14 38//14 43//14
f 82//15 53//15 43//15 78//15
f 49//16 54//16 44//16 40//16
f 94//9 95//9 43//9 38//9
f 92//10 34//10 41//10 96//10
f 51//17 55//17 48//17 37//17
f 81//18 56//18 46//18 80//18
f 104//9 97//9 48//9 78//9
f 103//10 77//10 47//10 98//10
f 81//10 54//10 66//10 85//10
f 60//17 63//17 55//17 51//17
f 59//16 62//16 54//16 49//16
f 55//11 63//11 71//11 72//11
f 61//19 57//19 50//19 53//19
f 64//13 58//13 52//13 56//13
f 102//12 60//12 51//12 99//12
f 101//11 59//11 49//11 100//11
f 92//11 36//11 59//11 101//11
f 91//12 33//12 60//12 102//12
f 45//13 35//13 58//13 64//13
f 41//20 34//20 57//20 61//20
f 77//21 41//21 61//21 83//21
f 36//16 42//16 62//16 59//16
f 33//17 47//17 63//17 60//17
f 79//18 45//18 64//18 84//18
f 86//22 67//22 68//22 85//22
f 84//9 64//9 67//9 86//9
f 64//11 56//11 68//11 67//11
f 54//12 62//12 65//12 66//12
f 72//12 71//12 75//12 76//12
f 83//9 61//9 69//9 88//9
f 61//12 53//12 70//12 69//12
f 82//10 55//10 72//10 87//10
f 90//23 73//23 74//23 89//23
f 87//9 72//9 76//9 89//9
f 69//11 70//11 74//11 73//11
f 88//10 69//10 73//10 90//10
f 71//10 88//10 90//10 75//10
f 70//9 87//9 89//9 74//9
f 75//24 90//24 89//24 76//24
f 53//10 82//10 87//10 70//10
f 63//9 83//9 88//9 71//9
f 62//9 84//9 86//9 65//9
f 65//22 86//22 85//22 66//22
f 42//25 79//25 84//25 62//25
f 47//26 77//26 83//26 63//26
f 56//10 81//10 85//10 68//10
f 96//10 41//10 77//10 103//10
f 95//9 104//9 78//9 43//9
f 54//25 81//25 80//25 44//25
f 55//26 82//26 78//26 48//26
f 44//9 80//9 104//9 95//9
f 42//10 96//10 103//10 79//10
f 35//12 91//12 102//12 58//12
f 34//11 92//11 101//11 57//11
f 57//11 101//11 100//11 50//11
f 58//12 102//12 99//12 52//12
f 79//10 103//10 98//10 45//10
f 80//9 46//9 97//9 104//9
f 36//10 92//10 96//10 42//10
f 40//9 44//9 95//9 94//9
f 52//12 99//12 93//12 39//12
f 50//11 100//11 94//11 38//11
f 46//9 39//9 93//9 97//9
f 45//10 98//10 91//10 35//10
