# Blender v2.79 (sub 0) OBJ File: ''
# www.blender.org
mtllib 893365-EX03-LP.mtl
o Cylinder
v -0.000000 -0.853156 -0.853156
v -0.000000 0.853156 -0.853156
v 0.603272 -0.853156 -0.603273
v 0.603272 0.853156 -0.603273
v 0.853156 -0.853156 0.000000
v 0.853156 0.853156 0.000000
v 0.603272 -0.853156 0.603273
v 0.603272 0.853156 0.603273
v -0.000000 -0.853156 0.853156
v -0.000000 0.853156 0.853156
v -0.603273 -0.853156 0.603272
v -0.603273 0.853156 0.603272
v -0.853156 -0.853156 -0.000000
v -0.853156 0.853156 -0.000000
v -0.603273 -0.853156 -0.603272
v -0.603273 0.853156 -0.603272
v 0.496769 0.853156 -0.496769
v -0.000000 0.853156 -0.702537
v 0.702537 0.853156 0.000000
v 0.496769 0.853156 0.496769
v -0.000000 0.853156 0.702537
v -0.496769 0.853156 0.496769
v -0.702537 0.853156 -0.000000
v -0.496769 0.853156 -0.496769
v 0.496769 -0.809923 -0.496769
v -0.000000 -0.809923 -0.702537
v 0.702537 -0.809923 0.000000
v 0.496769 -0.809923 0.496769
v -0.000000 -0.809923 0.702537
v -0.496769 -0.809923 0.496769
v -0.702537 -0.809923 -0.000000
v -0.496769 -0.809923 -0.496769
v -0.000000 -0.853156 -0.853156
v 0.603272 -0.853156 -0.603273
v 0.853156 -0.853156 0.000000
v 0.603272 -0.853156 0.603273
v -0.000000 -0.853156 0.853156
v -0.603273 -0.853156 0.603272
v -0.853156 -0.853156 -0.000000
v -0.603273 -0.853156 -0.603272
v 0.000000 -0.853156 -2.090158
v 1.836579 -0.853156 -2.090158
v 2.597315 -0.853156 0.000000
v 1.836579 -0.853156 2.090158
v -0.000000 -0.853156 2.090158
v -1.836579 -0.853156 2.090158
v -2.597315 -0.853156 -0.000000
v -1.836579 -0.853156 -2.090158
v 0.000000 -0.853156 -2.090158
v 1.836579 -0.853156 -2.090158
v 2.597315 -0.853156 0.000000
v 1.836579 -0.853156 2.090158
v -0.000000 -0.853156 2.090158
v -1.836579 -0.853156 2.090158
v -2.597315 -0.853156 -0.000000
v -1.836579 -0.853156 -2.090158
v 0.000000 -0.853156 -2.090158
v 2.373800 -0.853156 -2.090158
v 2.765036 -0.853156 0.000000
v 2.373800 -0.853156 2.090158
v -0.000000 -0.853156 2.090158
v -2.350215 -0.853156 2.090158
v -2.830483 -0.853156 -0.000000
v -2.350215 -0.853156 -2.090158
v 0.000000 -7.983531 -2.090158
v 2.373800 -7.983531 -2.090158
v 2.765036 -7.983531 0.000000
v 2.373800 -7.983531 2.090158
v -0.000000 -7.983531 2.090158
v -2.350215 -7.983531 2.090158
v -2.830483 -7.983531 -0.000000
v -2.350215 -7.983531 -2.090158
v 0.000000 -0.853156 -3.912212
v 1.836579 -0.853156 -3.912212
v -1.836579 -0.853156 -3.912212
v 0.000000 -7.983531 -3.912212
v 1.836579 -7.983531 -3.912212
v -1.836579 -7.983531 -3.912212
v 1.836579 -0.853156 4.028881
v -0.000000 -0.853156 4.028881
v -1.836579 -0.853156 4.028881
v 1.836579 -7.983531 4.028881
v -0.000000 -7.983531 4.028881
v -1.836579 -7.983531 4.028881
v 2.765036 -7.287309 0.000000
v 2.373800 -7.287309 -2.090158
v -2.350215 -7.287309 -2.090158
v -2.830483 -7.287309 -0.000000
v -2.350215 -7.287309 2.090158
v 2.373800 -7.287309 2.090158
v 1.836579 -7.287309 -3.912212
v -1.836579 -7.287309 -3.912212
v 0.000000 -7.287309 -3.912212
v -1.836579 -7.287309 4.028881
v -0.000000 -7.287309 4.028881
v 1.836579 -7.287309 4.028881
v 2.373800 -1.560702 -2.090158
v -2.830483 -1.560702 -0.000000
v 1.836579 -1.560702 -3.912212
v 0.000000 -1.560702 -3.912212
v -0.000000 -1.560702 4.028881
v 2.765036 -1.560702 0.000000
v -2.350215 -1.560702 -2.090158
v -2.350215 -1.560702 2.090158
v 2.373800 -1.560702 2.090158
v -1.836579 -1.560702 -3.912212
v -1.836579 -1.560702 4.028881
v 1.836579 -1.560702 4.028881
v 1.989195 -0.853156 3.478119
v 1.989195 -7.983531 3.478119
v -0.000000 -7.983531 3.478119
v -1.982495 -7.983531 3.478119
v -1.982495 -0.853156 3.478119
v -0.000000 -0.853156 3.478119
v -1.982495 -7.287309 3.478119
v 1.989195 -7.287309 3.478119
v -1.982495 -1.560702 3.478119
v 1.989195 -1.560702 3.478119
v -2.001721 -7.983531 -3.326395
v 0.000000 -7.983531 -3.326395
v -2.001721 -0.853156 -3.326395
v 2.009303 -0.853156 -3.326395
v 0.000000 -0.853156 -3.326395
v 2.009303 -7.983531 -3.326395
v 2.009303 -7.287309 -3.326395
v -2.001721 -7.287309 -3.326395
v 2.009303 -1.560702 -3.326395
v -2.001721 -1.560702 -3.326395
v 2.765036 -1.560702 0.000000
v 2.765036 -7.287309 0.000000
v 2.373800 -1.560702 2.090158
v 2.373800 -7.287309 2.090158
v 2.373800 -7.287309 -2.090158
v 2.373800 -1.560702 -2.090158
v 1.989195 -7.287309 3.478119
v 1.989195 -1.560702 3.478119
v 2.009303 -7.287309 -3.326395
v 2.009303 -1.560702 -3.326395
v 2.222391 -1.560702 0.002201
v 2.222391 -7.287309 0.002201
v 1.831155 -1.560702 2.092358
v 1.831155 -7.287309 2.092358
v 1.831155 -7.287309 -2.087957
v 1.831155 -1.560702 -2.087957
v 1.446550 -7.287309 3.480319
v 1.446550 -1.560702 3.480319
v 1.466658 -7.287309 -3.324195
v 1.466658 -1.560702 -3.324195
v -1.908089 -1.560702 -2.088422
v -1.908089 -7.287309 -2.088422
v -1.908089 -1.560702 2.091893
v -1.908089 -7.287309 2.091893
v -2.388357 -7.287309 0.001736
v -2.388357 -1.560702 0.001736
v -1.540369 -7.287309 3.479855
v -1.540369 -1.560702 3.479855
v -1.559595 -7.287309 -3.324660
v -1.559595 -1.560702 -3.324660
vn 0.3827 0.0000 -0.9239
vn 0.9239 0.0000 -0.3827
vn 0.9239 0.0000 0.3827
vn 0.3827 0.0000 0.9239
vn -0.3827 0.0000 0.9239
vn -0.9239 0.0000 0.3827
vn 0.0000 1.0000 0.0000
vn -0.9239 0.0000 -0.3827
vn -0.3827 0.0000 -0.9239
vn 0.0000 0.0000 1.0000
vn 0.9829 0.0000 -0.1840
vn 0.0000 -1.0000 0.0000
vn -0.9746 0.0000 -0.2239
vn 0.9829 0.0000 0.1840
vn -0.9625 0.0000 -0.2713
vn -0.9746 0.0000 0.2239
vn 0.9637 0.0000 0.2670
vn 0.0000 0.0000 -1.0000
vn 0.9592 0.0000 -0.2828
vn -0.9667 0.0000 0.2561
vn 0.0041 0.0000 1.0000
vn -0.0041 0.0000 -1.0000
vn -0.0039 0.0000 1.0000
vn 0.0039 0.0000 -1.0000
usemtl None
s off
f 1//1 2//1 4//1 3//1
f 3//2 4//2 6//2 5//2
f 5//3 6//3 8//3 7//3
f 7//4 8//4 10//4 9//4
f 9//5 10//5 12//5 11//5
f 11//6 12//6 14//6 13//6
f 14//7 12//7 22//7 23//7
f 13//8 14//8 16//8 15//8
f 15//9 16//9 2//9 1//9
f 3//10 5//10 35//10 34//10
f 22//1 21//1 29//1 30//1
f 10//7 8//7 20//7 21//7
f 16//7 14//7 23//7 24//7
f 6//7 4//7 17//7 19//7
f 12//7 10//7 21//7 22//7
f 2//7 16//7 24//7 18//7
f 4//7 2//7 18//7 17//7
f 8//7 6//7 19//7 20//7
f 25//7 26//7 32//7 31//7 30//7 29//7 28//7 27//7
f 20//8 19//8 27//8 28//8
f 17//5 18//5 26//5 25//5
f 18//4 24//4 32//4 26//4
f 23//2 22//2 30//2 31//2
f 21//9 20//9 28//9 29//9
f 19//6 17//6 25//6 27//6
f 24//3 23//3 31//3 32//3
f 38//7 39//7 47//7 46//7
f 9//10 11//10 38//10 37//10
f 15//10 1//10 33//10 40//10
f 1//10 3//10 34//10 33//10
f 5//10 7//10 36//10 35//10
f 11//10 13//10 39//10 38//10
f 7//10 9//10 37//10 36//10
f 13//10 15//10 40//10 39//10
f 41//10 42//10 50//10 49//10
f 36//7 37//7 45//7 44//7
f 34//7 35//7 43//7 42//7
f 39//7 40//7 48//7 47//7
f 37//7 38//7 46//7 45//7
f 35//7 36//7 44//7 43//7
f 33//7 34//7 42//7 41//7
f 40//7 33//7 41//7 48//7
f 55//7 56//7 64//7 63//7
f 48//10 41//10 49//10 56//10
f 46//10 47//10 55//10 54//10
f 44//10 45//10 53//10 52//10
f 42//10 43//10 51//10 50//10
f 47//10 48//10 56//10 55//10
f 45//10 46//10 54//10 53//10
f 43//10 44//10 52//10 51//10
f 86//11 85//11 67//11 66//11
f 53//10 54//10 62//10 61//10
f 51//7 52//7 60//7 59//7
f 49//10 50//10 58//10 57//10
f 56//10 49//10 57//10 64//10
f 54//7 55//7 63//7 62//7
f 52//10 53//10 61//10 60//10
f 50//7 51//7 59//7 58//7
f 65//12 66//12 67//12 68//12 69//12 70//12 71//12 72//12
f 88//13 87//13 72//13 71//13
f 111//12 110//12 82//12 83//12
f 85//14 90//14 68//14 67//14
f 128//15 121//15 75//15 106//15
f 120//12 119//12 78//12 76//12
f 89//16 88//16 71//16 70//16
f 118//17 109//17 79//17 108//17
f 93//18 91//18 77//18 76//18
f 92//18 93//18 76//18 78//18
f 123//7 122//7 74//7 73//7
f 121//7 123//7 73//7 75//7
f 124//12 120//12 76//12 77//12
f 125//19 124//19 77//19 91//19
f 95//10 94//10 84//10 83//10
f 96//10 95//10 83//10 82//10
f 115//20 112//20 84//20 94//20
f 114//7 113//7 81//7 80//7
f 112//12 111//12 83//12 84//12
f 109//7 114//7 80//7 79//7
f 117//20 115//20 94//20 107//20
f 108//10 101//10 95//10 96//10
f 101//10 107//10 94//10 95//10
f 127//19 125//19 91//19 99//19
f 106//18 100//18 93//18 92//18
f 100//18 99//18 91//18 93//18
f 110//17 116//17 96//17 82//17
f 88//7 89//7 152//7 153//7
f 119//15 126//15 92//15 78//15
f 127//10 97//10 134//10 138//10
f 87//7 88//7 153//7 150//7
f 116//10 90//10 132//10 135//10
f 58//11 59//11 102//11 97//11
f 63//13 64//13 103//13 98//13
f 59//14 60//14 105//14 102//14
f 62//16 63//16 98//16 104//16
f 73//18 74//18 99//18 100//18
f 75//18 73//18 100//18 106//18
f 122//19 127//19 99//19 74//19
f 80//10 81//10 107//10 101//10
f 79//10 80//10 101//10 108//10
f 113//20 117//20 107//20 81//20
f 116//17 118//17 108//17 96//17
f 126//15 128//15 106//15 92//15
f 102//10 105//10 131//10 129//10
f 62//20 104//20 117//20 113//20
f 68//17 90//17 116//17 110//17
f 117//12 104//12 151//12 156//12
f 60//7 61//7 114//7 109//7
f 70//12 69//12 111//12 112//12
f 61//7 62//7 113//7 114//7
f 89//20 70//20 112//20 115//20
f 105//17 60//17 109//17 118//17
f 69//12 68//12 110//12 111//12
f 104//12 98//12 154//12 151//12
f 58//19 97//19 127//19 122//19
f 72//15 87//15 126//15 119//15
f 90//10 85//10 130//10 132//10
f 86//19 66//19 124//19 125//19
f 66//12 65//12 120//12 124//12
f 64//7 57//7 123//7 121//7
f 57//7 58//7 122//7 123//7
f 65//12 72//12 119//12 120//12
f 103//15 64//15 121//15 128//15
f 137//21 138//21 148//21 147//21
f 134//12 129//12 139//12 144//12
f 131//12 136//12 146//12 141//12
f 138//12 134//12 144//12 148//12
f 97//10 102//10 129//10 134//10
f 105//10 118//10 136//10 131//10
f 86//10 125//10 137//10 133//10
f 85//10 86//10 133//10 130//10
f 125//10 127//10 138//10 137//10
f 118//10 116//10 135//10 136//10
f 139//14 141//14 142//14 140//14
f 144//11 139//11 140//11 143//11
f 142//17 141//17 146//17 145//17
f 144//19 143//19 147//19 148//19
f 132//7 130//7 140//7 142//7
f 136//22 135//22 145//22 146//22
f 129//12 131//12 141//12 139//12
f 130//7 133//7 143//7 140//7
f 133//7 137//7 147//7 143//7
f 135//7 132//7 142//7 145//7
f 151//16 154//16 153//16 152//16
f 154//13 149//13 150//13 153//13
f 151//20 152//20 155//20 156//20
f 150//15 149//15 158//15 157//15
f 103//12 128//12 158//12 149//12
f 98//12 103//12 149//12 154//12
f 89//7 115//7 155//7 152//7
f 128//23 126//23 157//23 158//23
f 115//24 117//24 156//24 155//24
f 126//7 87//7 150//7 157//7
