# Blender v2.79 (sub 0) OBJ File: ''
# www.blender.org
mtllib 893401-13-LP.mtl
o Cylinder
v -0.000000 -0.158149 -0.158149
v -0.000000 0.158149 -0.127283
v 0.111828 -0.158149 -0.111828
v 0.090003 0.158149 -0.090003
v 0.158149 -0.158149 0.000000
v 0.127283 0.158149 0.000000
v 0.111828 -0.158149 0.111828
v 0.090003 0.158149 0.090003
v -0.000000 -0.158149 0.158149
v -0.000000 0.158149 0.127283
v -0.111828 -0.158149 0.111828
v -0.090003 0.158149 0.090003
v -0.158149 -0.158149 -0.000000
v -0.127283 0.158149 -0.000000
v -0.111828 -0.158149 -0.111828
v -0.090003 0.158149 -0.090003
v 0.111828 0.158149 -0.111828
v -0.000000 0.158149 -0.158149
v 0.158149 0.158149 0.000000
v 0.111828 0.158149 0.111828
v -0.000000 0.158149 0.158149
v -0.111828 0.158149 0.111828
v -0.158149 0.158149 -0.000000
v -0.111828 0.158149 -0.111828
v 0.090003 0.158149 -0.090003
v -0.000000 0.158149 -0.127283
v 0.127283 0.158149 0.000000
v 0.090003 0.158149 0.090003
v -0.000000 0.158149 0.127283
v -0.090003 0.158149 0.090003
v -0.127283 0.158149 -0.000000
v -0.090003 0.158149 -0.090003
v 0.090003 -0.137065 -0.090003
v -0.000000 -0.137065 -0.127283
v 0.127283 -0.137065 0.000000
v 0.090003 -0.137065 0.090003
v -0.000000 -0.137065 0.127283
v -0.090003 -0.137065 0.090003
v -0.127283 -0.137065 -0.000000
v -0.090003 -0.137065 -0.090003
v -0.000000 -0.137065 0.000000
v -0.000000 -0.158149 -0.418290
v 0.448738 -0.158149 -0.418290
v 0.357393 -0.158149 0.000000
v 0.448738 -0.158149 0.418290
v -0.000000 -0.158149 0.418290
v -0.448738 -0.158149 0.418290
v -0.357394 -0.158149 -0.000000
v -0.448738 -0.158149 -0.418290
v -0.000000 -1.974862 0.418290
v 0.448738 -0.158149 0.418290
v -0.000000 -0.158149 0.418290
v -0.448738 -0.158149 0.418290
v 0.448738 -0.158149 0.418290
v -0.000000 -0.158149 0.418290
v -0.448738 -0.158149 0.418290
v 0.357393 -0.158149 0.000000
v 0.448738 -0.158149 -0.418290
v -0.000000 -0.158149 -0.418290
v 0.448738 -0.158149 0.418290
v -0.000000 -0.158149 0.418290
v -0.448738 -0.158149 0.418290
v -0.357394 -0.158149 -0.000000
v -0.448738 -0.158149 -0.418290
v -0.000000 -0.158149 0.810526
v -0.448738 -1.974862 0.418290
v 0.448738 -1.974862 0.418290
v 0.357393 -1.974862 0.000000
v 0.448738 -1.974862 -0.418290
v -0.000000 -1.974862 -0.418290
v -0.357394 -1.974862 -0.000000
v -0.448738 -1.974862 -0.418290
v -0.000000 -1.974862 0.000000
v -0.448738 -0.158149 0.810526
v 0.448738 -0.158149 0.810526
v -0.448738 -1.974862 0.810526
v -0.000000 -1.974862 0.810526
v 0.448738 -1.974862 0.810526
v -0.000000 -0.158149 -0.807634
v 0.448738 -0.158149 -0.807634
v -0.448738 -0.158149 -0.807634
v 0.448738 -1.974862 -0.807634
v -0.000000 -1.974862 -0.807634
v -0.448738 -1.974862 -0.807634
v 0.450201 -0.158149 0.000000
v 0.482012 -0.158149 0.418290
v 0.482012 -0.158149 -0.418290
v 0.482012 -1.974862 -0.418290
v 0.450201 -1.974862 0.000000
v 0.482012 -1.974862 0.418290
v 0.514958 -1.974862 0.810526
v 0.514958 -0.158149 0.810526
v 0.514958 -1.974862 -0.807634
v 0.514958 -0.158149 -0.807634
v -0.479310 -0.158149 0.418290
v -0.445640 -0.158149 -0.000000
v -0.479310 -0.158149 -0.418290
v -0.479310 -1.974862 0.418290
v -0.445640 -1.974862 -0.000000
v -0.479310 -1.974862 -0.418290
v -0.526693 -1.974862 -0.807634
v -0.526693 -1.974862 0.810526
v -0.526693 -0.158149 0.810526
v -0.526693 -0.158149 -0.807634
v -0.479310 -0.158149 -0.418290
v -0.479310 -1.974862 -0.418290
v -0.448738 -0.355846 0.810526
v -0.000000 -0.355846 0.810526
v 0.448738 -0.355846 0.810526
v 0.448738 -0.355846 -0.807634
v -0.448738 -0.355846 -0.807634
v -0.000000 -0.355846 -0.807634
v 0.482012 -0.355846 -0.418290
v 0.450201 -0.355846 0.000000
v 0.482012 -0.355846 0.418290
v 0.514958 -0.355846 0.810526
v 0.514958 -0.355846 -0.807634
v -0.479310 -0.355846 0.418290
v -0.445640 -0.355846 -0.000000
v -0.479310 -0.355846 -0.418290
v -0.526693 -0.355846 0.810526
v -0.526693 -0.355846 -0.807634
v -0.000000 -1.772485 0.810526
v -0.448738 -1.772485 -0.807634
v 0.450201 -1.772485 0.000000
v -0.445640 -1.772485 -0.000000
v -0.479310 -1.772485 -0.418290
v -0.526693 -1.772485 -0.807634
v -0.448738 -1.772485 0.810526
v 0.448738 -1.772485 0.810526
v 0.448738 -1.772485 -0.807634
v -0.000000 -1.772485 -0.807634
v 0.482012 -1.772485 -0.418290
v 0.482012 -1.772485 0.418290
v 0.514958 -1.772485 0.810526
v 0.514958 -1.772485 -0.807634
v -0.479310 -1.772485 0.418290
v -0.526693 -1.772485 0.810526
v -0.000000 -1.974862 0.614408
v -0.448738 -1.974862 0.614408
v -0.000000 -0.158149 0.614408
v 0.448738 -0.158149 0.614408
v -0.448738 -0.158149 0.614408
v 0.448738 -1.974862 0.614408
v 0.498485 -0.158149 0.614408
v 0.498485 -1.974862 0.614408
v -0.503002 -1.974862 0.614408
v -0.503002 -0.158149 0.614408
v -0.503002 -0.355846 0.614408
v 0.498485 -0.355846 0.614408
v 0.498485 -1.772485 0.614408
v -0.503002 -1.772485 0.614408
v -0.448738 -1.974862 -0.612962
v -0.000000 -1.974862 -0.612962
v -0.448738 -0.158149 -0.612962
v 0.448738 -1.974862 -0.612962
v 0.448738 -0.158149 -0.612962
v -0.000000 -0.158149 -0.612962
v 0.498485 -1.974862 -0.612962
v 0.498485 -0.158149 -0.612962
v -0.503002 -1.974862 -0.612962
v -0.503002 -0.158149 -0.612962
v -0.503002 -0.355846 -0.612962
v 0.498485 -0.355846 -0.612962
v -0.503002 -1.772485 -0.612962
v 0.498485 -1.772485 -0.612962
v 0.482012 -1.772485 -0.418290
v 0.482012 -0.355846 -0.418290
v 0.482012 -1.772485 0.418290
v 0.482012 -0.355846 0.418290
v 0.450201 -0.355846 0.000000
v 0.450201 -1.772485 0.000000
v 0.498485 -0.355846 0.614408
v 0.498485 -1.772485 0.614408
v 0.498485 -0.355846 -0.612962
v 0.498485 -1.772485 -0.612962
v 0.589813 -1.772485 -0.418273
v 0.589813 -0.355846 -0.418273
v 0.589813 -1.772485 0.418307
v 0.589813 -0.355846 0.418307
v 0.558002 -0.355846 0.000017
v 0.558002 -1.772485 0.000017
v 0.606286 -0.355846 0.614425
v 0.606286 -1.772485 0.614425
v 0.606286 -0.355846 -0.612945
v 0.606286 -1.772485 -0.612945
v -0.594696 -1.772485 0.418316
v -0.594696 -0.355846 0.418316
v -0.561025 -0.355846 0.000025
v -0.594696 -0.355846 -0.418265
v -0.561025 -1.772485 0.000025
v -0.594696 -1.772485 -0.418265
v -0.618387 -0.355846 0.614433
v -0.618387 -1.772485 0.614433
v -0.618387 -0.355846 -0.612937
v -0.618387 -1.772485 -0.612937
vn 0.3827 0.0000 -0.9239
vn 0.9239 0.0000 -0.3827
vn 0.9239 0.0000 0.3827
vn 0.3827 0.0000 0.9239
vn -0.3827 0.0000 0.9239
vn -0.9239 0.0000 0.3827
vn 0.0000 0.0000 1.0000
vn -0.9239 0.0000 -0.3827
vn -0.3827 0.0000 -0.9239
vn 0.0000 1.0000 0.0000
vn 0.0000 -1.0000 -0.0000
vn 0.0000 0.0000 -1.0000
vn 0.9971 0.0000 0.0758
vn 0.9971 0.0000 -0.0758
vn 0.9965 0.0000 -0.0837
vn 0.9964 0.0000 0.0843
vn -0.9968 0.0000 0.0802
vn -0.9968 0.0000 -0.0802
vn -0.9927 0.0000 0.1208
vn -0.9928 0.0000 -0.1199
vn 0.0002 0.0000 -1.0000
vn -0.0002 0.0000 1.0000
vn 0.0002 0.0000 1.0000
vn -0.0002 0.0000 -1.0000
usemtl None
s off
f 1//1 18//1 17//1 3//1
f 3//2 17//2 19//2 5//2
f 5//3 19//3 20//3 7//3
f 7//4 20//4 21//4 9//4
f 9//5 21//5 22//5 11//5
f 11//6 22//6 23//6 13//6
f 16//7 14//7 31//7 32//7
f 13//8 23//8 24//8 15//8
f 15//9 24//9 18//9 1//9
f 9//10 11//10 47//10 46//10
f 2//10 4//10 17//10 18//10
f 4//10 6//10 19//10 17//10
f 6//10 8//10 20//10 19//10
f 8//10 10//10 21//10 20//10
f 10//10 12//10 22//10 21//10
f 12//10 14//10 23//10 22//10
f 14//10 16//10 24//10 23//10
f 16//10 2//10 18//10 24//10
f 31//2 30//2 38//2 39//2
f 12//7 10//7 29//7 30//7
f 8//7 6//7 27//7 28//7
f 4//7 2//7 26//7 25//7
f 2//7 16//7 32//7 26//7
f 14//7 12//7 30//7 31//7
f 10//7 8//7 28//7 29//7
f 6//7 4//7 25//7 27//7
f 41//10 39//10 38//10 37//10
f 29//9 28//9 36//9 37//9
f 27//6 25//6 33//6 35//6
f 32//3 31//3 39//3 40//3
f 30//1 29//1 37//1 38//1
f 28//8 27//8 35//8 36//8
f 25//5 26//5 34//5 33//5
f 26//4 32//4 40//4 34//4
f 35//10 41//10 37//10 36//10
f 34//10 40//10 39//10 41//10
f 33//10 34//10 41//10 35//10
f 3//10 5//10 44//10 43//10
f 13//10 15//10 49//10 48//10
f 7//10 9//10 46//10 45//10
f 43//7 44//7 57//7 58//7
f 45//7 46//7 61//7 60//7
f 47//7 48//7 63//7 62//7
f 49//7 42//7 59//7 64//7
f 15//10 1//10 42//10 49//10
f 1//10 3//10 43//10 42//10
f 5//10 7//10 45//10 44//10
f 11//10 13//10 48//10 47//10
f 47//7 46//7 52//7 53//7
f 46//7 45//7 51//7 52//7
f 53//7 52//7 55//7 56//7
f 52//7 51//7 54//7 55//7
f 72//11 71//11 99//11 100//11
f 142//10 141//10 65//10 75//10
f 57//10 60//10 86//10 85//10
f 124//12 84//12 101//12 128//12
f 48//7 49//7 64//7 63//7
f 46//7 47//7 62//7 61//7
f 44//7 45//7 60//7 57//7
f 42//7 43//7 58//7 59//7
f 71//11 73//11 50//11 66//11
f 73//11 68//11 67//11 50//11
f 72//11 70//11 73//11 71//11
f 70//11 69//11 68//11 73//11
f 143//10 62//10 95//10 148//10
f 156//11 82//11 93//11 159//11
f 140//11 139//11 77//11 76//11
f 154//11 153//11 84//11 83//11
f 130//7 123//7 77//7 78//7
f 123//7 129//7 76//7 77//7
f 155//10 81//10 104//10 162//10
f 139//11 144//11 78//11 77//11
f 141//10 143//10 74//10 65//10
f 110//12 80//12 94//12 117//12
f 132//12 131//12 82//12 83//12
f 124//12 132//12 83//12 84//12
f 67//11 68//11 89//11 90//11
f 158//10 157//10 80//10 79//10
f 156//11 154//11 83//11 82//11
f 155//10 158//10 79//10 81//10
f 133//13 125//13 89//13 88//13
f 125//14 134//14 90//14 89//14
f 150//15 145//15 92//15 116//15
f 166//16 159//16 93//16 136//16
f 68//11 69//11 88//11 89//11
f 144//11 67//11 90//11 146//11
f 157//10 58//10 87//10 160//10
f 58//10 57//10 85//10 87//10
f 142//10 75//10 92//10 145//10
f 130//7 78//7 91//7 135//7
f 126//17 127//17 100//17 99//17
f 137//18 126//18 99//18 98//18
f 163//19 162//19 104//19 122//19
f 152//20 147//20 102//20 138//20
f 140//11 76//11 102//11 147//11
f 62//10 63//10 96//10 95//10
f 63//10 64//10 97//10 96//10
f 107//7 74//7 103//7 121//7
f 153//11 72//11 100//11 161//11
f 71//11 66//11 98//11 99//11
f 129//7 107//7 121//7 138//7
f 148//20 149//20 121//20 103//20
f 165//19 163//19 122//19 128//19
f 95//18 96//18 119//18 118//18
f 96//17 97//17 120//17 119//17
f 75//7 109//7 116//7 92//7
f 160//16 164//16 117//16 94//16
f 151//15 150//15 116//15 135//15
f 85//14 86//14 115//14 114//14
f 87//13 85//13 114//13 113//13
f 81//12 79//12 112//12 111//12
f 79//12 80//12 110//12 112//12
f 131//12 110//12 117//12 136//12
f 65//7 74//7 107//7 108//7
f 75//7 65//7 108//7 109//7
f 81//12 111//12 122//12 104//12
f 82//12 131//12 136//12 93//12
f 146//15 151//15 135//15 91//15
f 161//19 165//19 128//19 101//19
f 76//7 129//7 138//7 102//7
f 149//20 152//20 138//20 121//20
f 137//11 152//11 194//11 187//11
f 118//10 119//10 189//10 188//10
f 109//7 130//7 135//7 116//7
f 164//16 166//16 136//16 117//16
f 114//7 115//7 170//7 171//7
f 115//7 150//7 173//7 170//7
f 111//12 112//12 132//12 124//12
f 112//12 110//12 131//12 132//12
f 108//7 107//7 129//7 123//7
f 109//7 108//7 123//7 130//7
f 111//12 124//12 128//12 122//12
f 126//11 137//11 187//11 191//11
f 90//15 134//15 151//15 146//15
f 133//7 166//7 176//7 167//7
f 95//20 118//20 149//20 148//20
f 66//11 140//11 147//11 98//11
f 137//20 98//20 147//20 152//20
f 60//10 142//10 145//10 86//10
f 78//11 144//11 146//11 91//11
f 115//15 86//15 145//15 150//15
f 61//10 62//10 143//10 141//10
f 50//11 67//11 144//11 139//11
f 66//11 50//11 139//11 140//11
f 74//10 143//10 148//10 103//10
f 60//10 61//10 141//10 142//10
f 134//7 125//7 172//7 169//7
f 100//19 127//19 165//19 161//19
f 87//16 113//16 164//16 160//16
f 165//11 127//11 192//11 196//11
f 84//11 153//11 161//11 101//11
f 120//19 97//19 162//19 163//19
f 80//10 157//10 160//10 94//10
f 133//16 88//16 159//16 166//16
f 64//10 59//10 158//10 155//10
f 69//11 70//11 154//11 156//11
f 59//10 58//10 157//10 158//10
f 64//10 155//10 162//10 97//10
f 70//11 72//11 153//11 154//11
f 69//11 156//11 159//11 88//11
f 167//11 176//11 186//11 177//11
f 170//10 173//10 183//10 180//10
f 175//10 168//10 178//10 185//10
f 168//10 171//10 181//10 178//10
f 125//7 133//7 167//7 172//7
f 166//7 164//7 175//7 176//7
f 164//7 113//7 168//7 175//7
f 151//7 134//7 169//7 174//7
f 113//7 114//7 171//7 168//7
f 150//7 151//7 174//7 173//7
f 181//14 180//14 179//14 182//14
f 178//13 181//13 182//13 177//13
f 179//15 180//15 183//15 184//15
f 178//16 177//16 186//16 185//16
f 174//11 169//11 179//11 184//11
f 169//11 172//11 182//11 179//11
f 176//21 175//21 185//21 186//21
f 171//10 170//10 180//10 181//10
f 173//22 174//22 184//22 183//22
f 172//11 167//11 177//11 182//11
f 188//18 189//18 191//18 187//18
f 189//17 190//17 192//17 191//17
f 188//20 187//20 194//20 193//20
f 192//19 190//19 195//19 196//19
f 149//10 118//10 188//10 193//10
f 127//11 126//11 191//11 192//11
f 119//10 120//10 190//10 189//10
f 152//23 149//23 193//23 194//23
f 120//10 163//10 195//10 190//10
f 163//24 165//24 196//24 195//24
l 105 106
