# Blender v2.79 (sub 0) OBJ File: ''
# www.blender.org
mtllib 914571-15-LP.mtl
o Cylinder
v 0.000000 -1.000000 -1.000000
v 0.000000 1.000000 -1.000000
v 0.707107 -1.000000 -0.707107
v 0.707107 1.000000 -0.707107
v 1.000000 -1.000000 0.000000
v 1.000000 1.000000 0.000000
v 0.707107 -1.000000 0.707107
v 0.707107 1.000000 0.707107
v -0.000000 -1.000000 1.000000
v -0.000000 1.000000 1.000000
v -0.707107 -1.000000 0.707107
v -0.707107 1.000000 0.707107
v -1.000000 -1.000000 -0.000000
v -1.000000 1.000000 -0.000000
v -0.707107 -1.000000 -0.707107
v -0.707107 1.000000 -0.707107
v 0.588830 1.000000 -0.588830
v -0.000000 1.000000 -0.832731
v 0.832731 1.000000 0.000000
v 0.588830 1.000000 0.588830
v -0.000000 1.000000 0.832731
v -0.588830 1.000000 0.588830
v -0.832731 1.000000 -0.000000
v -0.588830 1.000000 -0.588830
v 0.000000 -1.001000 -3.790000
v 4.000000 -1.001000 -4.000000
v 4.000000 -1.001000 0.000000
v 4.000000 -1.001000 4.000000
v -0.000000 -1.001000 3.690000
v -4.000000 -1.001000 4.000000
v -4.000000 -1.001000 -0.000000
v -4.000000 -1.001000 -4.000000
v 0.000000 -4.001000 -3.790000
v 4.000000 -4.001000 -4.000000
v 4.000000 -4.001000 0.000000
v 4.000000 -4.001000 4.000000
v -0.000000 -4.001000 3.690000
v -4.000000 -4.001000 4.000000
v -4.000000 -4.001000 -0.000000
v -4.000000 -4.001000 -4.000000
v -4.000000 -1.751000 -0.000000
v -4.000000 -2.501000 -0.000000
v -4.000000 -3.251000 -0.000000
v -4.000000 -3.251000 4.000000
v -4.000000 -2.501000 4.000000
v -4.000000 -1.751000 4.000000
v -0.000000 -1.751000 3.690000
v -0.000000 -3.251000 3.690000
v 4.000000 -3.251000 4.000000
v 4.000000 -2.501000 4.000000
v 4.000000 -1.751000 4.000000
v 4.000000 -1.751000 0.000000
v 4.000000 -2.501000 0.000000
v 4.000000 -3.251000 0.000000
v 4.000000 -3.251000 -4.000000
v 4.000000 -2.501000 -4.000000
v 4.000000 -1.751000 -4.000000
v -4.000000 -1.751000 -4.000000
v -4.000000 -2.501000 -4.000000
v -4.000000 -3.251000 -4.000000
v 0.000000 -3.251000 -3.790000
v -1.000000 -2.501000 4.500000
v 0.000000 -1.751000 -3.790000
v -4.000000 -1.001000 -1.000000
v -4.000000 -1.001000 -2.000000
v -4.000000 -1.001000 -3.000000
v -4.000000 -4.001000 -1.000000
v -4.000000 -4.001000 -2.000000
v -4.000000 -4.001000 -3.000000
v -4.000000 -1.751000 -3.000000
v -4.000000 -1.751000 -2.000000
v -4.000000 -1.751000 -1.000000
v -4.000000 -2.501000 -3.000000
v -4.000000 -2.501000 -2.000000
v -4.000000 -2.501000 -1.000000
v -4.000000 -3.251000 -3.000000
v -4.000000 -3.251000 -2.000000
v -4.000000 -3.251000 -1.000000
v -4.000000 -1.001000 3.000000
v -4.000000 -1.001000 2.000000
v -4.000000 -1.001000 1.000000
v -4.000000 -4.001000 3.000000
v -4.000000 -4.001000 2.000000
v -4.000000 -4.001000 1.000000
v -4.000000 -1.751000 1.000000
v -4.000000 -1.751000 2.000000
v -4.000000 -1.751000 3.000000
v -4.000000 -2.501000 1.000000
v -4.000000 -2.501000 2.000000
v -4.000000 -2.501000 3.000000
v -4.000000 -3.251000 1.000000
v -4.000000 -3.251000 2.000000
v -4.000000 -3.251000 3.000000
v -1.000000 -1.001000 3.790000
v -2.000000 -1.001000 3.880000
v -3.000000 -1.001000 3.950000
v -1.000000 -4.001000 3.790000
v -2.000000 -4.001000 3.880000
v -3.000000 -4.001000 3.950000
v -3.000000 -1.751000 3.950000
v -2.000000 -1.751000 3.880000
v -1.000000 -1.751000 3.790000
v -3.000000 -2.501000 4.000000
v -3.000000 -3.251000 3.950000
v -2.000000 -3.251000 3.880000
v -1.000000 -3.251000 3.790000
v 3.000000 -1.001000 3.950000
v 2.000000 -1.001000 3.880000
v 1.000000 -1.001000 3.790000
v 3.000000 -4.001000 3.950000
v 2.000000 -4.001000 3.880000
v 1.000000 -4.001000 3.790000
v 1.000000 -1.751000 3.790000
v 2.000000 -1.751000 3.880000
v 3.000000 -1.751000 3.950000
v 3.000000 -2.501000 4.000000
v 1.000000 -3.251000 3.790000
v 2.000000 -3.251000 3.880000
v 3.000000 -3.251000 3.950000
v 4.000000 -1.001000 1.000000
v 4.000000 -1.001000 2.000000
v 4.000000 -1.001000 3.000000
v 4.000000 -4.001000 1.000000
v 4.000000 -4.001000 2.000000
v 4.000000 -4.001000 3.000000
v 4.000000 -1.751000 3.000000
v 4.000000 -1.751000 2.000000
v 4.000000 -1.751000 1.000000
v 4.000000 -2.501000 3.000000
v 4.000000 -2.501000 2.000000
v 4.000000 -2.501000 1.000000
v 4.000000 -3.251000 3.000000
v 4.000000 -3.251000 2.000000
v 4.000000 -3.251000 1.000000
v 4.000000 -1.001000 -3.000000
v 4.000000 -1.001000 -2.000000
v 4.000000 -1.001000 -1.000000
v 4.000000 -4.001000 -3.000000
v 4.000000 -4.001000 -2.000000
v 4.000000 -4.001000 -1.000000
v 4.000000 -1.751000 -1.000000
v 4.000000 -1.751000 -2.000000
v 4.000000 -1.751000 -3.000000
v 4.000000 -2.501000 -1.000000
v 4.000000 -2.501000 -2.000000
v 4.000000 -2.501000 -3.000000
v 4.000000 -3.251000 -1.000000
v 4.000000 -3.251000 -2.000000
v 4.000000 -3.251000 -3.000000
v 1.000000 -1.001000 -3.790000
v 2.000000 -1.001000 -3.880000
v 3.000000 -1.001000 -3.950000
v 1.000000 -4.001000 -3.790000
v 2.000000 -4.001000 -3.880000
v 3.000000 -4.001000 -3.950000
v 3.000000 -1.751000 -3.950000
v 2.000000 -1.751000 -3.880000
v 1.000000 -1.751000 -3.790000
v 3.000000 -2.501000 -4.000000
v -1.000000 -1.751000 4.500000
v -0.000000 -3.251000 4.500000
v 3.000000 -3.251000 -3.950000
v 2.000000 -3.251000 -3.880000
v 1.000000 -3.251000 -3.790000
v -3.000000 -1.001000 -3.950000
v -2.000000 -1.001000 -3.880000
v -1.000000 -1.001000 -3.790000
v -3.000000 -4.001000 -3.950000
v -2.000000 -4.001000 -3.880000
v -1.000000 -4.001000 -3.790000
v -1.000000 -1.751000 -3.790000
v -2.000000 -1.751000 -3.880000
v -3.000000 -1.751000 -3.950000
v -0.000000 -2.501000 4.500000
v -0.000000 -1.751000 4.500000
v -3.000000 -2.501000 -4.000000
v -1.000000 -3.251000 -3.790000
v -2.000000 -3.251000 -3.880000
v -3.000000 -3.251000 -3.950000
v 0.000000 -3.251000 -4.500000
v 0.000000 -2.501000 -4.500000
v 0.000000 -1.751000 -4.500000
v 1.000000 -1.751000 -4.500000
v 1.000000 -2.501000 -4.500000
v 1.000000 -3.251000 -4.500000
v 3.000000 -1.751000 -4.500000
v 2.000000 -1.751000 -4.500000
v 3.000000 -2.501000 -4.500000
v 2.000000 -2.501000 -4.500000
v 3.000000 -3.251000 -4.500000
v 2.000000 -3.251000 -4.500000
v -1.000000 -1.751000 -4.500000
v -2.000000 -1.751000 -4.500000
v -3.000000 -1.751000 -4.500000
v -1.000000 -2.501000 -4.500000
v -2.000000 -2.501000 -4.500000
v -3.000000 -2.501000 -4.500000
v -1.000000 -3.251000 -4.500000
v -2.000000 -3.251000 -4.500000
v -3.000000 -3.251000 -4.500000
v -1.000000 -3.251000 4.500000
v -3.000000 -1.751000 4.500000
v -2.000000 -1.751000 4.500000
v -3.000000 -2.501000 4.500000
v -2.000000 -2.501000 4.500000
v -3.000000 -3.251000 4.500000
v -2.000000 -3.251000 4.500000
v 1.000000 -1.751000 4.500000
v 2.000000 -1.751000 4.500000
v 3.000000 -1.751000 4.500000
v 1.000000 -2.501000 4.500000
v 2.000000 -2.501000 4.500000
v 3.000000 -2.501000 4.500000
v 1.000000 -3.251000 4.500000
v 2.000000 -3.251000 4.500000
v 3.000000 -3.251000 4.500000
v -4.000000 -1.101032 4.000000
v 4.000000 -1.101032 4.000000
v 4.000000 -1.101032 -4.000000
v 0.000000 -1.101032 -3.790000
v -4.000000 -1.101033 -0.000000
v -0.000000 -1.101033 3.690000
v 4.000000 -1.101033 0.000000
v -4.000000 -1.101033 -4.000000
v -4.000000 -1.101033 -1.000000
v -4.000000 -1.101033 -2.000000
v -4.000000 -1.101033 -3.000000
v -4.000000 -1.101032 3.000000
v -4.000000 -1.101033 2.000000
v -4.000000 -1.101033 1.000000
v -1.000000 -1.101032 3.790000
v -2.000000 -1.101032 3.880000
v -3.000000 -1.101032 3.950000
v 3.000000 -1.101032 3.950000
v 2.000000 -1.101033 3.880000
v 1.000000 -1.101033 3.790000
v 4.000000 -1.101032 1.000000
v 4.000000 -1.101032 2.000000
v 4.000000 -1.101032 3.000000
v 4.000000 -1.101032 -3.000000
v 4.000000 -1.101033 -2.000000
v 4.000000 -1.101033 -1.000000
v 1.000000 -1.101032 -3.790000
v 2.000000 -1.101032 -3.880000
v 3.000000 -1.101032 -3.950000
v -3.000000 -1.101032 -3.950000
v -2.000000 -1.101032 -3.880000
v -1.000000 -1.101032 -3.790000
v 0.000000 0.765599 -1.000000
v 0.707107 0.765599 -0.707107
v 1.000000 0.765599 0.000000
v 0.707107 0.765599 0.707107
v -0.000000 0.765599 1.000000
v -0.707107 0.765599 0.707107
v -1.000000 0.765599 -0.000000
v -0.707107 0.765599 -0.707107
v 0.707107 -0.807937 -0.707107
v 1.000000 -0.807937 0.000000
v 0.707107 -0.807937 0.707107
v -0.000000 -0.807937 1.000000
v -0.707107 -0.807937 0.707107
v -1.000000 -0.807937 -0.000000
v -0.707107 -0.807937 -0.707107
v 0.000000 -0.807937 -1.000000
v -4.000000 -3.804977 -0.000000
v -0.000000 -3.804977 3.690000
v 4.000000 -3.804977 0.000000
v -4.000000 -3.804977 -4.000000
v -4.000000 -3.804977 4.000000
v 4.000000 -3.804977 4.000000
v 4.000000 -3.804977 -4.000000
v 0.000000 -3.804977 -3.790000
v -4.000000 -3.804977 -1.000000
v -4.000000 -3.804977 -2.000000
v -4.000000 -3.804977 -3.000000
v -4.000000 -3.804977 3.000000
v -4.000000 -3.804977 2.000000
v -4.000000 -3.804977 1.000000
v -1.000000 -3.804977 3.790000
v -2.000000 -3.804977 3.880000
v -3.000000 -3.804977 3.950000
v 3.000000 -3.804977 3.950000
v 2.000000 -3.804977 3.880000
v 1.000000 -3.804977 3.790000
v 4.000000 -3.804977 1.000000
v 4.000000 -3.804977 2.000000
v 4.000000 -3.804977 3.000000
v 4.000000 -3.804977 -3.000000
v 4.000000 -3.804977 -2.000000
v 4.000000 -3.804977 -1.000000
v 1.000000 -3.804977 -3.790000
v 2.000000 -3.804977 -3.880000
v 3.000000 -3.804977 -3.950000
v -3.000000 -3.804977 -3.950000
v -2.000000 -3.804977 -3.880000
v -1.000000 -3.804977 -3.790000
v 2.703208 -1.001000 3.929224
v 2.703208 -4.001000 3.929224
v 2.703208 -1.751000 3.929224
v 2.703208 -3.251000 3.929224
v 2.703208 -1.751000 4.500000
v 2.703208 -2.501000 4.500000
v 2.703208 -3.251000 4.500000
v 2.703208 -1.101032 3.929224
v 2.703208 -3.804977 3.929224
v -2.787234 -1.001000 3.935106
v -2.787234 -4.001000 3.935106
v -2.787234 -1.751000 3.935106
v -2.787234 -3.251000 3.935106
v -2.787234 -1.751000 4.500000
v -2.787234 -2.501000 4.500000
v -2.787234 -3.251000 4.500000
v -2.787234 -1.101032 3.935106
v -2.787234 -3.804977 3.935106
v 2.754149 -1.001000 -3.932791
v 2.754149 -4.001000 -3.932791
v 2.754149 -1.751000 -3.932791
v 2.754149 -3.251000 -3.932791
v 2.754149 -1.751000 -4.500000
v 2.754149 -2.501000 -4.500000
v 2.754149 -3.251000 -4.500000
v 2.754149 -1.101032 -3.932791
v 2.754149 -3.804977 -3.932791
v -2.773230 -1.001000 -3.934126
v -2.773230 -4.001000 -3.934126
v -2.773230 -1.751000 -3.934126
v -2.773230 -3.251000 -3.934126
v -2.773230 -1.751000 -4.500000
v -2.773230 -2.501000 -4.500000
v -2.773230 -3.251000 -4.500000
v -2.773230 -1.101032 -3.934126
v -2.773230 -3.804977 -3.934126
vn 0.3827 0.0000 -0.9239
vn 0.9239 0.0000 -0.3827
vn 0.9239 0.0000 0.3827
vn 0.3827 0.0000 0.9239
vn -0.3827 0.0000 0.9239
vn -0.9239 0.0000 0.3827
vn 0.0000 1.0000 0.0000
vn -0.9239 0.0000 -0.3827
vn -0.3827 0.0000 -0.9239
vn 0.0000 -1.0000 -0.0000
vn -1.0000 0.0000 0.0000
vn -0.0995 0.0000 0.9950
vn 1.0000 0.0000 0.0000
vn 0.0499 0.0000 0.9988
vn -0.0499 0.0000 -0.9988
vn 0.0000 0.0000 -1.0000
vn -0.0250 0.0333 -0.9991
vn -0.0250 -0.0333 -0.9991
vn 0.0250 0.0333 0.9991
vn 0.0250 -0.0333 0.9991
vn 0.0995 0.0000 0.9950
vn 0.0896 0.0000 0.9960
vn 0.0698 0.0000 0.9976
vn -0.0250 -0.0333 0.9991
vn -0.0250 0.0333 0.9991
vn -0.0499 0.0000 0.9988
vn -0.0698 0.0000 0.9976
vn -0.0896 0.0000 0.9960
vn -0.0896 0.0000 -0.9960
vn -0.0698 0.0000 -0.9976
vn 0.0250 -0.0333 -0.9991
vn 0.0250 0.0333 -0.9991
vn 0.0499 0.0000 -0.9988
vn 0.0698 0.0000 -0.9976
vn 0.0896 0.0000 -0.9960
vn 0.0000 0.0000 1.0000
usemtl None
s off
f 249//1 2//1 4//1 250//1
f 250//2 4//2 6//2 251//2
f 251//3 6//3 8//3 252//3
f 252//4 8//4 10//4 253//4
f 253//5 10//5 12//5 254//5
f 254//6 12//6 14//6 255//6
f 2//7 16//7 24//7 18//7
f 255//8 14//8 16//8 256//8
f 256//9 16//9 2//9 249//9
f 17//7 18//7 24//7 23//7 22//7 21//7 20//7 19//7
f 4//7 2//7 18//7 17//7
f 8//7 6//7 19//7 20//7
f 14//7 12//7 22//7 23//7
f 10//7 8//7 20//7 21//7
f 16//7 14//7 23//7 24//7
f 6//7 4//7 17//7 19//7
f 12//7 10//7 21//7 22//7
f 25//7 167//7 166//7 324//7 165//7 32//7 66//7 65//7 64//7 31//7 81//7 80//7 79//7 30//7 96//7 306//7 95//7 94//7 29//7 109//7 108//7 297//7 107//7 28//7 122//7 121//7 120//7 27//7 137//7 136//7 135//7 26//7 152//7 315//7 151//7 150//7
f 33//10 153//10 154//10 316//10 155//10 34//10 138//10 139//10 140//10 35//10 123//10 124//10 125//10 36//10 110//10 298//10 111//10 112//10 37//10 97//10 98//10 307//10 99//10 38//10 82//10 83//10 84//10 39//10 67//10 68//10 69//10 40//10 168//10 325//10 169//10 170//10
f 278//11 265//11 39//11 84//11
f 284//12 266//12 37//12 112//12
f 290//13 267//13 35//13 140//13
f 275//11 268//11 40//11 69//11
f 281//14 269//14 38//14 99//14
f 287//13 270//13 36//13 125//13
f 293//15 271//15 34//15 155//15
f 296//16 272//16 33//16 170//16
f 248//16 220//16 63//16 171//16
f 318//10 163//10 191//10 321//10
f 326//7 172//7 193//7 328//7
f 245//15 219//15 57//15 156//15
f 156//17 57//17 56//17 159//17
f 159//18 56//18 55//18 162//18
f 239//13 218//13 51//13 126//13
f 126//13 51//13 50//13 129//13
f 129//13 50//13 49//13 132//13
f 233//14 217//14 46//14 100//14
f 100//19 46//19 45//19 103//19
f 103//20 45//20 44//20 104//20
f 227//11 224//11 58//11 70//11
f 70//11 58//11 59//11 73//11
f 73//11 59//11 60//11 76//11
f 242//13 223//13 52//13 141//13
f 141//13 52//13 53//13 144//13
f 144//13 53//13 54//13 147//13
f 236//12 222//12 47//12 113//12
f 119//13 116//13 213//13 216//13
f 114//7 113//7 208//7 209//7
f 230//11 221//11 41//11 85//11
f 85//11 41//11 42//11 88//11
f 88//11 42//11 43//11 91//11
f 42//11 75//11 78//11 43//11
f 75//11 74//11 77//11 78//11
f 74//11 73//11 76//11 77//11
f 41//11 72//11 75//11 42//11
f 72//11 71//11 74//11 75//11
f 71//11 70//11 73//11 74//11
f 221//11 225//11 72//11 41//11
f 225//11 226//11 71//11 72//11
f 226//11 227//11 70//11 71//11
f 265//11 273//11 67//11 39//11
f 273//11 274//11 68//11 67//11
f 274//11 275//11 69//11 68//11
f 45//11 90//11 93//11 44//11
f 90//11 89//11 92//11 93//11
f 89//11 88//11 91//11 92//11
f 46//11 87//11 90//11 45//11
f 87//11 86//11 89//11 90//11
f 86//11 85//11 88//11 89//11
f 217//11 228//11 87//11 46//11
f 228//11 229//11 86//11 87//11
f 229//11 230//11 85//11 86//11
f 269//11 276//11 82//11 38//11
f 276//11 277//11 83//11 82//11
f 277//11 278//11 84//11 83//11
f 300//10 119//10 216//10 303//10
f 113//7 47//7 175//7 208//7
f 117//10 118//10 215//10 214//10
f 103//11 104//11 206//11 204//11
f 48//10 117//10 214//10 161//10
f 102//7 101//7 203//7 160//7
f 222//21 231//21 102//21 47//21
f 231//22 232//22 101//22 102//22
f 313//23 233//23 100//23 308//23
f 266//21 279//21 97//21 37//21
f 279//22 280//22 98//22 97//22
f 314//23 281//23 99//23 307//23
f 50//24 116//24 119//24 49//24
f 116//13 115//13 210//13 213//13
f 308//7 100//7 202//7 310//7
f 51//25 115//25 116//25 50//25
f 106//10 48//10 161//10 201//10
f 105//10 106//10 201//10 207//10
f 218//26 234//26 115//26 51//26
f 304//27 235//27 114//27 299//27
f 235//28 236//28 113//28 114//28
f 270//26 282//26 110//26 36//26
f 305//27 283//27 111//27 298//27
f 283//28 284//28 112//28 111//28
f 53//13 131//13 134//13 54//13
f 131//13 130//13 133//13 134//13
f 130//13 129//13 132//13 133//13
f 52//13 128//13 131//13 53//13
f 128//13 127//13 130//13 131//13
f 127//13 126//13 129//13 130//13
f 223//13 237//13 128//13 52//13
f 237//13 238//13 127//13 128//13
f 238//13 239//13 126//13 127//13
f 267//13 285//13 123//13 35//13
f 285//13 286//13 124//13 123//13
f 286//13 287//13 125//13 124//13
f 56//13 146//13 149//13 55//13
f 146//13 145//13 148//13 149//13
f 145//13 144//13 147//13 148//13
f 57//13 143//13 146//13 56//13
f 143//13 142//13 145//13 146//13
f 142//13 141//13 144//13 145//13
f 219//13 240//13 143//13 57//13
f 240//13 241//13 142//13 143//13
f 241//13 242//13 141//13 142//13
f 271//13 288//13 138//13 34//13
f 288//13 289//13 139//13 138//13
f 289//13 290//13 140//13 139//13
f 156//13 159//13 188//13 186//13
f 179//11 176//11 197//11 200//11
f 172//7 171//7 192//7 193//7
f 164//10 61//10 180//10 185//10
f 327//10 179//10 200//10 330//10
f 171//7 63//7 182//7 192//7
f 220//16 243//16 158//16 63//16
f 243//29 244//29 157//29 158//29
f 322//30 245//30 156//30 317//30
f 272//16 291//16 153//16 33//16
f 291//29 292//29 154//29 153//29
f 323//30 293//30 155//30 316//30
f 59//31 176//31 179//31 60//31
f 177//10 178//10 199//10 198//10
f 159//13 162//13 190//13 188//13
f 58//32 173//32 176//32 59//32
f 61//10 177//10 198//10 180//10
f 63//7 158//7 183//7 182//7
f 224//33 246//33 173//33 58//33
f 331//34 247//34 172//34 326//34
f 247//35 248//35 171//35 172//35
f 268//33 294//33 168//33 40//33
f 332//34 295//34 169//34 325//34
f 295//35 296//35 170//35 169//35
f 192//16 182//16 181//16 195//16
f 195//16 181//16 180//16 198//16
f 181//16 184//16 185//16 180//16
f 184//16 189//16 191//16 185//16
f 320//16 188//16 190//16 321//16
f 182//16 183//16 184//16 181//16
f 183//16 187//16 189//16 184//16
f 319//16 186//16 188//16 320//16
f 329//16 196//16 199//16 330//16
f 196//16 195//16 198//16 199//16
f 328//16 193//16 196//16 329//16
f 193//16 192//16 195//16 196//16
f 163//10 164//10 185//10 191//10
f 317//7 156//7 186//7 319//7
f 176//11 173//11 194//11 197//11
f 158//7 157//7 187//7 183//7
f 208//36 175//36 174//36 211//36
f 211//36 174//36 161//36 214//36
f 174//36 62//36 201//36 161//36
f 62//36 205//36 207//36 201//36
f 311//36 204//36 206//36 312//36
f 175//36 160//36 62//36 174//36
f 160//36 203//36 205//36 62//36
f 310//36 202//36 204//36 311//36
f 302//36 212//36 215//36 303//36
f 212//36 211//36 214//36 215//36
f 301//36 209//36 212//36 302//36
f 209//36 208//36 211//36 212//36
f 47//7 102//7 160//7 175//7
f 100//11 103//11 204//11 202//11
f 299//7 114//7 209//7 301//7
f 309//10 105//10 207//10 312//10
f 166//35 167//35 248//35 247//35
f 324//34 166//34 247//34 331//34
f 32//33 165//33 246//33 224//33
f 315//30 152//30 245//30 322//30
f 150//29 151//29 244//29 243//29
f 25//16 150//16 243//16 220//16
f 136//13 137//13 242//13 241//13
f 135//13 136//13 241//13 240//13
f 26//13 135//13 240//13 219//13
f 121//13 122//13 239//13 238//13
f 120//13 121//13 238//13 237//13
f 27//13 120//13 237//13 223//13
f 108//28 109//28 236//28 235//28
f 297//27 108//27 235//27 304//27
f 28//26 107//26 234//26 218//26
f 306//23 96//23 233//23 313//23
f 94//22 95//22 232//22 231//22
f 29//21 94//21 231//21 222//21
f 80//11 81//11 230//11 229//11
f 79//11 80//11 229//11 228//11
f 30//11 79//11 228//11 217//11
f 65//11 66//11 227//11 226//11
f 64//11 65//11 226//11 225//11
f 31//11 64//11 225//11 221//11
f 81//11 31//11 221//11 230//11
f 109//12 29//12 222//12 236//12
f 137//13 27//13 223//13 242//13
f 66//11 32//11 224//11 227//11
f 96//14 30//14 217//14 233//14
f 122//13 28//13 218//13 239//13
f 152//15 26//15 219//15 245//15
f 167//16 25//16 220//16 248//16
f 263//9 256//9 249//9 264//9
f 262//8 255//8 256//8 263//8
f 261//6 254//6 255//6 262//6
f 260//5 253//5 254//5 261//5
f 259//4 252//4 253//4 260//4
f 258//3 251//3 252//3 259//3
f 257//2 250//2 251//2 258//2
f 264//1 249//1 250//1 257//1
f 1//1 264//1 257//1 3//1
f 3//2 257//2 258//2 5//2
f 5//3 258//3 259//3 7//3
f 7//4 259//4 260//4 9//4
f 9//5 260//5 261//5 11//5
f 11//6 261//6 262//6 13//6
f 13//8 262//8 263//8 15//8
f 15//9 263//9 264//9 1//9
f 178//35 177//35 296//35 295//35
f 327//34 178//34 295//34 332//34
f 60//33 179//33 294//33 268//33
f 318//30 162//30 293//30 323//30
f 164//29 163//29 292//29 291//29
f 61//16 164//16 291//16 272//16
f 148//13 147//13 290//13 289//13
f 149//13 148//13 289//13 288//13
f 55//13 149//13 288//13 271//13
f 133//13 132//13 287//13 286//13
f 134//13 133//13 286//13 285//13
f 54//13 134//13 285//13 267//13
f 118//28 117//28 284//28 283//28
f 300//27 118//27 283//27 305//27
f 49//26 119//26 282//26 270//26
f 309//23 104//23 281//23 314//23
f 106//22 105//22 280//22 279//22
f 48//21 106//21 279//21 266//21
f 92//11 91//11 278//11 277//11
f 93//11 92//11 277//11 276//11
f 44//11 93//11 276//11 269//11
f 77//11 76//11 275//11 274//11
f 78//11 77//11 274//11 273//11
f 43//11 78//11 273//11 265//11
f 177//16 61//16 272//16 296//16
f 162//15 55//15 271//15 293//15
f 132//13 49//13 270//13 287//13
f 104//14 44//14 269//14 281//14
f 76//11 60//11 268//11 275//11
f 147//13 54//13 267//13 290//13
f 117//12 48//12 266//12 284//12
f 91//11 43//11 265//11 278//11
f 119//27 300//27 305//27 282//27
f 107//27 297//27 304//27 234//27
f 115//7 299//7 301//7 210//7
f 210//36 301//36 302//36 213//36
f 213//36 302//36 303//36 216//36
f 282//27 305//27 298//27 110//27
f 234//27 304//27 299//27 115//27
f 118//10 300//10 303//10 215//10
f 105//23 309//23 314//23 280//23
f 95//23 306//23 313//23 232//23
f 104//10 309//10 312//10 206//10
f 203//36 310//36 311//36 205//36
f 205//36 311//36 312//36 207//36
f 101//7 308//7 310//7 203//7
f 280//23 314//23 307//23 98//23
f 232//23 313//23 308//23 101//23
f 163//30 318//30 323//30 292//30
f 151//30 315//30 322//30 244//30
f 157//7 317//7 319//7 187//7
f 187//16 319//16 320//16 189//16
f 189//16 320//16 321//16 191//16
f 292//30 323//30 316//30 154//30
f 244//30 322//30 317//30 157//30
f 162//10 318//10 321//10 190//10
f 179//34 327//34 332//34 294//34
f 165//34 324//34 331//34 246//34
f 194//16 328//16 329//16 197//16
f 197//16 329//16 330//16 200//16
f 294//34 332//34 325//34 168//34
f 246//34 331//34 326//34 173//34
f 178//10 327//10 330//10 199//10
f 173//7 326//7 328//7 194//7
