# Blender v2.79 (sub 0) OBJ File: '914571-23.blend'
# www.blender.org
mtllib 914571-23-LP.mtl
o Circle
v 0.166511 0.658281 -0.209300
v 0.157513 0.658281 -0.205572
v 0.153785 0.658281 -0.196573
v 0.157513 0.658281 -0.187575
v 0.166511 0.658281 -0.183847
v 0.175510 0.658281 -0.187575
v 0.179237 0.658281 -0.196573
v 0.175510 0.658281 -0.205572
v 0.166511 0.658281 -0.196573
v 0.166511 0.684934 -0.209300
v 0.157513 0.684934 -0.205572
v 0.153785 0.684934 -0.196573
v 0.157513 0.684934 -0.187575
v 0.166511 0.684934 -0.183847
v 0.175510 0.684934 -0.187575
v 0.179237 0.684934 -0.196573
v 0.175510 0.684934 -0.205572
v 0.166511 0.684934 -0.215214
v 0.153330 0.684934 -0.209754
v 0.147871 0.684934 -0.196573
v 0.153330 0.684934 -0.183393
v 0.166511 0.684934 -0.177933
v 0.179692 0.684934 -0.183393
v 0.185152 0.684934 -0.196573
v 0.179692 0.684934 -0.209754
v 0.166511 0.644609 -0.215214
v 0.153330 0.644609 -0.209754
v 0.147871 0.644609 -0.196573
v 0.153330 0.644609 -0.183393
v 0.166511 0.644609 -0.177933
v 0.179692 0.644609 -0.183393
v 0.185152 0.644609 -0.196573
v 0.179692 0.644609 -0.209754
v 0.179692 0.680838 -0.209754
v 0.185152 0.680838 -0.196573
v 0.179692 0.680838 -0.183393
v 0.166511 0.680838 -0.177933
v 0.153330 0.680838 -0.183393
v 0.147871 0.680838 -0.196573
v 0.153330 0.680838 -0.209754
v 0.166511 0.680838 -0.215214
v 0.166511 0.644609 -0.217721
v 0.145364 0.644609 -0.217721
v 0.145364 0.644609 -0.196573
v 0.145364 0.644609 -0.175426
v 0.166511 0.644609 -0.175426
v 0.187659 0.644609 -0.175426
v 0.187659 0.644609 -0.196573
v 0.187659 0.644609 -0.217721
v 0.185152 0.648756 -0.196573
v 0.166511 0.648756 -0.177933
v 0.147871 0.648756 -0.196573
v 0.166511 0.648756 -0.215214
v 0.179692 0.648756 -0.209754
v 0.179692 0.648756 -0.183393
v 0.153330 0.648756 -0.183393
v 0.153330 0.648756 -0.209754
v 0.166511 0.644609 -0.242084
v 0.145364 0.644609 -0.242084
v 0.145364 0.644609 -0.132729
v 0.166511 0.644609 -0.132729
v 0.187659 0.644609 -0.132729
v 0.187659 0.644609 -0.242084
v 0.080563 0.644609 -0.217721
v 0.080563 0.644609 -0.196573
v 0.080563 0.644609 -0.175426
v 0.252459 0.644609 -0.175426
v 0.252459 0.644609 -0.196573
v 0.252459 0.644609 -0.217721
v 0.080563 0.644609 -0.251251
v 0.080563 0.644609 -0.141896
v 0.252459 0.644609 -0.141896
v 0.252459 0.644609 -0.251251
v 0.166511 0.381225 -0.242084
v 0.145364 0.381225 -0.242084
v 0.145364 0.381225 -0.132729
v 0.166511 0.381225 -0.132729
v 0.187659 0.381225 -0.132729
v 0.187659 0.381225 -0.242084
v 0.080563 0.381225 -0.217721
v 0.080563 0.381225 -0.196573
v 0.080563 0.381225 -0.175426
v 0.252459 0.381225 -0.175426
v 0.252459 0.381225 -0.196573
v 0.252459 0.381225 -0.217721
v 0.080563 0.381225 -0.251251
v 0.080563 0.381225 -0.141896
v 0.252459 0.381225 -0.141896
v 0.252459 0.381225 -0.251251
v 0.187659 0.381225 -0.175426
v 0.166511 0.381225 -0.175426
v 0.145364 0.381225 -0.175426
v 0.187659 0.381225 -0.196573
v 0.166511 0.381225 -0.196573
v 0.145364 0.381225 -0.196573
v 0.187659 0.381225 -0.217721
v 0.166511 0.381225 -0.217721
v 0.145364 0.381225 -0.217721
v 0.080563 0.641404 -0.251251
v 0.145364 0.641404 -0.242084
v 0.252459 0.641404 -0.196573
v 0.252459 0.641404 -0.175426
v 0.252459 0.641404 -0.141896
v 0.187659 0.641404 -0.132729
v 0.145364 0.641404 -0.132729
v 0.080563 0.641404 -0.141896
v 0.252459 0.641404 -0.217721
v 0.187659 0.641404 -0.242084
v 0.252459 0.641404 -0.251251
v 0.080563 0.641404 -0.217721
v 0.166511 0.641404 -0.242084
v 0.166511 0.641404 -0.132729
v 0.080563 0.641404 -0.175426
v 0.080563 0.641404 -0.196573
v 0.145364 0.385948 -0.242084
v 0.252459 0.385948 -0.175426
v 0.187659 0.385948 -0.132729
v 0.080563 0.385948 -0.141896
v 0.252459 0.385948 -0.251251
v 0.166511 0.385948 -0.242084
v 0.080563 0.385948 -0.175426
v 0.080563 0.385948 -0.251251
v 0.252459 0.385948 -0.196573
v 0.252459 0.385948 -0.141896
v 0.145364 0.385948 -0.132729
v 0.252459 0.385948 -0.217721
v 0.187659 0.385948 -0.242084
v 0.080563 0.385948 -0.217721
v 0.166511 0.385948 -0.132729
v 0.080563 0.385948 -0.196573
v 0.080563 0.501059 -0.251251
v 0.252459 0.501059 -0.196573
v 0.252459 0.501059 -0.141896
v 0.252459 0.501059 -0.217721
v 0.080563 0.501059 -0.217721
v 0.080563 0.501059 -0.196573
v 0.252459 0.501059 -0.175426
v 0.080563 0.501059 -0.141896
v 0.252459 0.501059 -0.251251
v 0.080563 0.501059 -0.175426
v 0.111962 0.644609 -0.175426
v 0.111962 0.644609 -0.196573
v 0.111962 0.644609 -0.135784
v 0.111962 0.644609 -0.217721
v 0.111962 0.644609 -0.245139
v 0.111962 0.381225 -0.135784
v 0.111962 0.381225 -0.245139
v 0.111962 0.381225 -0.175426
v 0.111962 0.381225 -0.196573
v 0.111962 0.381225 -0.217721
v 0.111962 0.641404 -0.135784
v 0.111962 0.641404 -0.245139
v 0.111962 0.385948 -0.135784
v 0.111962 0.385948 -0.245139
v 0.111962 0.501059 -0.245139
v 0.111962 0.501059 -0.135784
v 0.221061 0.644609 -0.245139
v 0.221061 0.644609 -0.217721
v 0.221061 0.644609 -0.196573
v 0.221061 0.644609 -0.175426
v 0.221061 0.644609 -0.135784
v 0.221061 0.381225 -0.245139
v 0.221061 0.381225 -0.135784
v 0.221061 0.381225 -0.175426
v 0.221061 0.381225 -0.196573
v 0.221061 0.381225 -0.217721
v 0.221061 0.641404 -0.245139
v 0.221061 0.641404 -0.135784
v 0.221061 0.385948 -0.245139
v 0.221061 0.385948 -0.135784
v 0.221061 0.501059 -0.135784
v 0.221061 0.501059 -0.245139
v 0.145364 0.406360 -0.242084
v 0.252459 0.406360 -0.175426
v 0.187659 0.406360 -0.132729
v 0.080563 0.406360 -0.141896
v 0.252459 0.406360 -0.251251
v 0.166511 0.406360 -0.242084
v 0.080563 0.406360 -0.175426
v 0.080563 0.406360 -0.251251
v 0.252459 0.406360 -0.196573
v 0.252459 0.406360 -0.141896
v 0.145364 0.406360 -0.132729
v 0.252459 0.406360 -0.217721
v 0.187659 0.406360 -0.242084
v 0.080563 0.406360 -0.217721
v 0.166511 0.406360 -0.132729
v 0.080563 0.406360 -0.196573
v 0.111962 0.406360 -0.245139
v 0.111962 0.406360 -0.135784
v 0.221061 0.406360 -0.135784
v 0.221061 0.406360 -0.245139
v 0.080563 0.616128 -0.251251
v 0.252459 0.616128 -0.196573
v 0.252459 0.616128 -0.141896
v 0.145364 0.616128 -0.132729
v 0.252459 0.616128 -0.217721
v 0.187659 0.616128 -0.242084
v 0.080563 0.616128 -0.217721
v 0.166511 0.616128 -0.132729
v 0.080563 0.616128 -0.196573
v 0.145364 0.616128 -0.242084
v 0.252459 0.616128 -0.175426
v 0.187659 0.616128 -0.132729
v 0.080563 0.616128 -0.141896
v 0.252459 0.616128 -0.251251
v 0.166511 0.616128 -0.242084
v 0.080563 0.616128 -0.175426
v 0.111962 0.616128 -0.135784
v 0.111962 0.616128 -0.245139
v 0.221061 0.616128 -0.245139
v 0.221061 0.616128 -0.135784
v 0.091202 0.644609 -0.196573
v 0.091202 0.644609 -0.249277
v 0.091202 0.381225 -0.249277
v 0.091202 0.381225 -0.175426
v 0.091202 0.381225 -0.196573
v 0.091202 0.381225 -0.217721
v 0.091202 0.641404 -0.249277
v 0.091202 0.385948 -0.249277
v 0.091202 0.501059 -0.249277
v 0.091202 0.644609 -0.175426
v 0.091202 0.644609 -0.139922
v 0.091202 0.644609 -0.217721
v 0.091202 0.381225 -0.139922
v 0.091202 0.641404 -0.139922
v 0.091202 0.385948 -0.139922
v 0.091202 0.501059 -0.139922
v 0.091202 0.406360 -0.249277
v 0.091202 0.406360 -0.139922
v 0.091202 0.616128 -0.249277
v 0.091202 0.616128 -0.139922
v 0.242978 0.644609 -0.217721
v 0.242978 0.644609 -0.175426
v 0.242978 0.644609 -0.140200
v 0.242978 0.381225 -0.140200
v 0.242978 0.381225 -0.175426
v 0.242978 0.381225 -0.196573
v 0.242978 0.381225 -0.217721
v 0.242978 0.641404 -0.140200
v 0.242978 0.385948 -0.140200
v 0.242978 0.501059 -0.140200
v 0.242978 0.644609 -0.249556
v 0.242978 0.644609 -0.196573
v 0.242978 0.381225 -0.249556
v 0.242978 0.641404 -0.249556
v 0.242978 0.385948 -0.249556
v 0.242978 0.501059 -0.249556
v 0.242978 0.406360 -0.140200
v 0.242978 0.406360 -0.249556
v 0.242978 0.616128 -0.140200
v 0.242978 0.616128 -0.249556
v 0.145364 0.406360 -0.146064
v 0.145364 0.501059 -0.146064
v 0.187659 0.406360 -0.255420
v 0.187659 0.501059 -0.255420
v 0.166511 0.406360 -0.146064
v 0.166511 0.501059 -0.146064
v 0.145364 0.616128 -0.255420
v 0.145364 0.501059 -0.255420
v 0.187659 0.616128 -0.146064
v 0.187659 0.501059 -0.146064
v 0.166511 0.616128 -0.255420
v 0.166511 0.501059 -0.255420
v 0.111962 0.501059 -0.149119
v 0.221061 0.501059 -0.258474
v 0.111962 0.501059 -0.258474
v 0.111962 0.616128 -0.149119
v 0.111962 0.616128 -0.258474
v 0.221061 0.501059 -0.149119
v 0.221061 0.616128 -0.258474
v 0.221061 0.616128 -0.149119
v 0.145364 0.406360 -0.255420
v 0.187659 0.406360 -0.146064
v 0.166511 0.406360 -0.255420
v 0.111962 0.406360 -0.258474
v 0.111962 0.406360 -0.149119
v 0.221061 0.406360 -0.149119
v 0.221061 0.406360 -0.258474
v 0.145364 0.616128 -0.146064
v 0.187659 0.616128 -0.255420
v 0.166511 0.616128 -0.146064
vn 0.0000 1.0000 0.0000
vn 0.9239 0.0000 0.3827
vn -0.9239 0.0000 0.3827
vn -0.3827 0.0000 -0.9239
vn 0.9239 0.0000 -0.3827
vn 0.3827 0.0000 0.9239
vn -0.3827 0.0000 0.9239
vn -0.9239 0.0000 -0.3827
vn 0.3827 0.0000 -0.9239
vn 0.0911 0.0000 -0.9958
vn 1.0000 0.0000 0.0000
vn 0.0911 0.0000 0.9958
vn -0.1824 0.0000 0.9832
vn -0.1760 0.0000 -0.9844
vn -1.0000 0.0000 0.0000
vn 0.0000 0.0000 -1.0000
vn 0.0000 0.0000 1.0000
vn 0.0000 -1.0000 0.0000
vn 0.1955 0.0000 -0.9807
vn -0.0911 0.0000 0.9958
vn 0.1975 0.0000 0.9803
vn -0.0911 0.0000 -0.9958
vn -0.1955 0.0000 0.9807
vn 0.1824 0.0000 -0.9832
vn -0.1975 0.0000 -0.9803
vn 0.1760 0.0000 0.9844
usemtl None
s off
f 9//1 5//1 6//1 7//1
f 3//1 4//1 5//1 9//1
f 1//1 9//1 7//1 8//1
f 2//1 3//1 9//1 1//1
f 3//2 2//2 11//2 12//2
f 8//3 7//3 16//3 17//3
f 6//4 5//4 14//4 15//4
f 4//5 3//5 12//5 13//5
f 2//6 1//6 10//6 11//6
f 1//7 8//7 17//7 10//7
f 7//8 6//8 15//8 16//8
f 5//9 4//9 13//9 14//9
f 11//1 10//1 18//1 19//1
f 10//1 17//1 25//1 18//1
f 16//1 15//1 23//1 24//1
f 14//1 13//1 21//1 22//1
f 12//1 11//1 19//1 20//1
f 17//1 16//1 24//1 25//1
f 15//1 14//1 22//1 23//1
f 13//1 12//1 20//1 21//1
f 54//5 50//5 32//5 33//5
f 55//6 51//6 30//6 31//6
f 56//3 52//3 28//3 29//3
f 57//4 53//4 26//4 27//4
f 53//9 54//9 33//9 26//9
f 50//2 55//2 31//2 32//2
f 51//7 56//7 29//7 30//7
f 52//8 57//8 27//8 28//8
f 20//8 19//8 40//8 39//8
f 22//7 21//7 38//7 37//7
f 24//2 23//2 36//2 35//2
f 18//9 25//9 34//9 41//9
f 19//4 18//4 41//4 40//4
f 21//3 20//3 39//3 38//3
f 23//6 22//6 37//6 36//6
f 25//5 24//5 35//5 34//5
f 28//1 27//1 43//1 44//1
f 33//1 32//1 48//1 49//1
f 31//1 30//1 46//1 47//1
f 29//1 28//1 44//1 45//1
f 27//1 26//1 42//1 43//1
f 26//1 33//1 49//1 42//1
f 32//1 31//1 47//1 48//1
f 30//1 29//1 45//1 46//1
f 39//8 40//8 57//8 52//8
f 37//7 38//7 56//7 51//7
f 35//2 36//2 55//2 50//2
f 41//9 34//9 54//9 53//9
f 40//4 41//4 53//4 57//4
f 38//3 39//3 52//3 56//3
f 36//6 37//6 51//6 55//6
f 34//5 35//5 50//5 54//5
f 43//1 42//1 58//1 59//1
f 42//1 49//1 63//1 58//1
f 46//1 45//1 60//1 61//1
f 47//1 46//1 61//1 62//1
f 222//1 213//1 65//1 66//1
f 223//1 222//1 66//1 71//1
f 243//1 233//1 69//1 73//1
f 244//1 234//1 67//1 68//1
f 224//1 214//1 70//1 64//1
f 213//1 224//1 64//1 65//1
f 234//1 235//1 72//1 67//1
f 233//1 244//1 68//1 69//1
f 154//10 115//10 75//10 147//10
f 123//11 116//11 83//11 84//11
f 170//12 117//12 78//12 163//12
f 227//13 118//13 87//13 225//13
f 126//11 123//11 84//11 85//11
f 247//14 119//14 89//14 245//14
f 128//15 122//15 86//15 80//15
f 115//16 120//16 74//16 75//16
f 119//11 126//11 85//11 89//11
f 129//17 125//17 76//17 77//17
f 118//15 121//15 82//15 87//15
f 117//17 129//17 77//17 78//17
f 116//11 124//11 88//11 83//11
f 130//15 128//15 80//15 81//15
f 120//16 127//16 79//16 74//16
f 121//15 130//15 81//15 82//15
f 239//18 245//18 89//18 85//18
f 91//18 90//18 78//18 77//18
f 92//18 91//18 77//18 76//18
f 148//18 92//18 76//18 146//18
f 95//18 94//18 91//18 92//18
f 94//18 93//18 90//18 91//18
f 236//18 237//18 83//18 88//18
f 149//18 95//18 92//18 148//18
f 98//18 97//18 94//18 95//18
f 97//18 96//18 93//18 94//18
f 237//18 238//18 84//18 83//18
f 150//18 98//18 95//18 149//18
f 75//18 74//18 97//18 98//18
f 74//18 79//18 96//18 97//18
f 238//18 239//18 85//18 84//18
f 147//18 75//18 98//18 150//18
f 66//15 65//15 114//15 113//15
f 58//16 63//16 108//16 111//16
f 65//15 64//15 110//15 114//15
f 67//11 72//11 103//11 102//11
f 62//17 61//17 112//17 104//17
f 71//15 66//15 113//15 106//15
f 61//17 60//17 105//17 112//17
f 73//11 69//11 107//11 109//11
f 59//16 58//16 111//16 100//16
f 64//15 70//15 99//15 110//15
f 243//14 73//14 109//14 246//14
f 69//11 68//11 101//11 107//11
f 223//13 71//13 106//13 226//13
f 161//12 62//12 104//12 168//12
f 68//11 67//11 102//11 101//11
f 145//10 59//10 100//10 152//10
f 179//15 188//15 130//15 121//15
f 178//16 185//16 127//16 120//16
f 188//15 186//15 128//15 130//15
f 174//11 182//11 124//11 116//11
f 175//17 187//17 129//17 117//17
f 176//15 179//15 121//15 118//15
f 187//17 183//17 125//17 129//17
f 177//11 184//11 126//11 119//11
f 173//16 178//16 120//16 115//16
f 186//15 180//15 122//15 128//15
f 250//14 177//14 119//14 247//14
f 184//11 181//11 123//11 126//11
f 230//13 176//13 118//13 227//13
f 191//12 175//12 117//12 170//12
f 181//11 174//11 116//11 123//11
f 189//10 173//10 115//10 154//10
f 173//18 189//18 276//18 273//18
f 194//11 203//11 137//11 132//11
f 198//1 211//1 271//1 281//1
f 232//13 205//13 138//13 228//13
f 197//11 194//11 132//11 134//11
f 252//14 206//14 139//14 248//14
f 199//15 193//15 131//15 135//15
f 178//18 173//18 273//18 275//18
f 206//11 197//11 134//11 139//11
f 204//18 200//18 282//18 261//18
f 205//15 208//15 140//15 138//15
f 189//15 155//15 267//15 276//15
f 203//11 195//11 133//11 137//11
f 201//15 199//15 135//15 136//15
f 185//18 178//18 275//18 255//18
f 208//15 201//15 136//15 140//15
f 190//1 183//1 253//1 277//1
f 231//19 210//19 155//19 221//19
f 229//19 189//19 154//19 220//19
f 183//20 190//20 153//20 125//20
f 214//19 145//19 152//19 219//19
f 60//20 143//20 151//20 105//20
f 215//18 147//18 150//18 218//18
f 218//18 150//18 149//18 217//18
f 217//18 149//18 148//18 216//18
f 216//18 148//18 146//18 225//18
f 125//20 153//20 146//20 76//20
f 220//19 154//19 147//19 215//19
f 44//1 43//1 144//1 142//1
f 43//1 59//1 145//1 144//1
f 60//1 45//1 141//1 143//1
f 45//1 44//1 142//1 141//1
f 171//15 212//15 272//15 270//15
f 251//21 212//21 171//21 242//21
f 249//21 191//21 170//21 241//21
f 185//22 192//22 169//22 127//22
f 235//21 161//21 168//21 240//21
f 63//22 157//22 167//22 108//22
f 93//18 96//18 166//18 165//18
f 90//18 93//18 165//18 164//18
f 78//18 90//18 164//18 163//18
f 96//18 79//18 162//18 166//18
f 127//22 169//22 162//22 79//22
f 241//21 170//21 163//21 236//21
f 49//1 48//1 159//1 158//1
f 47//1 62//1 161//1 160//1
f 48//1 47//1 160//1 159//1
f 63//1 49//1 158//1 157//1
f 211//11 172//11 266//11 271//11
f 242//21 171//21 191//21 249//21
f 207//1 198//1 281//1 263//1
f 221//19 155//19 189//19 229//19
f 187//1 175//1 274//1 257//1
f 132//11 137//11 174//11 181//11
f 202//1 207//1 263//1 259//1
f 228//13 138//13 176//13 230//13
f 134//11 132//11 181//11 184//11
f 248//14 139//14 177//14 250//14
f 135//15 131//15 180//15 186//15
f 192//18 185//18 255//18 279//18
f 139//11 134//11 184//11 177//11
f 210//1 202//1 259//1 269//1
f 138//15 140//15 179//15 176//15
f 155//15 210//15 269//15 267//15
f 137//11 133//11 182//11 174//11
f 136//15 135//15 186//15 188//15
f 172//11 192//11 279//11 266//11
f 140//15 136//15 188//15 179//15
f 240//21 168//21 212//21 251//21
f 108//22 167//22 211//22 198//22
f 219//19 152//19 210//19 231//19
f 105//20 151//20 209//20 196//20
f 113//15 114//15 201//15 208//15
f 111//16 108//16 198//16 207//16
f 114//15 110//15 199//15 201//15
f 102//11 103//11 195//11 203//11
f 104//17 112//17 200//17 204//17
f 106//15 113//15 208//15 205//15
f 112//17 105//17 196//17 200//17
f 109//11 107//11 197//11 206//11
f 100//16 111//16 207//16 202//16
f 110//15 99//15 193//15 199//15
f 246//14 109//14 206//14 252//14
f 107//11 101//11 194//11 197//11
f 226//13 106//13 205//13 232//13
f 168//12 104//12 204//12 212//12
f 101//11 102//11 203//11 194//11
f 152//10 100//10 202//10 210//10
f 151//23 226//23 232//23 209//23
f 99//24 219//24 231//24 193//24
f 156//23 228//23 230//23 190//23
f 131//24 221//24 229//24 180//24
f 122//24 220//24 215//24 86//24
f 82//18 216//18 225//18 87//18
f 81//18 217//18 216//18 82//18
f 80//18 218//18 217//18 81//18
f 86//18 215//18 218//18 80//18
f 70//24 214//24 219//24 99//24
f 180//24 229//24 220//24 122//24
f 193//24 231//24 221//24 131//24
f 209//23 232//23 228//23 156//23
f 190//23 230//23 227//23 153//23
f 143//23 223//23 226//23 151//23
f 153//23 227//23 225//23 146//23
f 142//1 144//1 224//1 213//1
f 144//1 145//1 214//1 224//1
f 143//1 141//1 222//1 223//1
f 141//1 142//1 213//1 222//1
f 167//25 246//25 252//25 211//25
f 103//26 240//26 251//26 195//26
f 172//25 248//25 250//25 192//25
f 133//26 242//26 249//26 182//26
f 124//26 241//26 236//26 88//26
f 72//26 235//26 240//26 103//26
f 182//26 249//26 241//26 124//26
f 195//26 251//26 242//26 133//26
f 211//25 252//25 248//25 172//25
f 192//25 250//25 247//25 169//25
f 157//25 243//25 246//25 167//25
f 165//18 166//18 239//18 238//18
f 164//18 165//18 238//18 237//18
f 163//18 164//18 237//18 236//18
f 166//18 162//18 245//18 239//18
f 169//25 247//25 245//25 162//25
f 158//1 159//1 244//1 233//1
f 160//1 161//1 235//1 234//1
f 159//1 160//1 234//1 244//1
f 157//1 158//1 233//1 243//1
f 269//10 259//10 260//10 267//10
f 272//12 261//12 262//12 270//12
f 259//16 263//16 264//16 260//16
f 282//17 280//17 254//17 258//17
f 261//17 282//17 258//17 262//17
f 263//16 281//16 256//16 264//16
f 280//20 268//20 265//20 254//20
f 281//22 271//22 266//22 256//22
f 256//22 266//22 279//22 255//22
f 254//20 265//20 277//20 253//20
f 267//10 260//10 273//10 276//10
f 270//12 262//12 274//12 278//12
f 260//16 264//16 275//16 273//16
f 258//17 254//17 253//17 257//17
f 262//17 258//17 257//17 274//17
f 264//16 256//16 255//16 275//16
f 156//11 190//11 277//11 265//11
f 212//18 204//18 261//18 272//18
f 191//15 171//15 270//15 278//15
f 200//18 196//18 280//18 282//18
f 183//1 187//1 257//1 253//1
f 196//18 209//18 268//18 280//18
f 209//11 156//11 265//11 268//11
f 175//1 191//1 278//1 274//1
