# Blender v2.79 (sub 0) OBJ File: '914571-54.blend'
# www.blender.org
mtllib 914571-54-LP.mtl
o Circle
v 0.166567 0.684853 0.661981
v 0.184951 0.684853 0.654366
v 0.192566 0.684853 0.635982
v 0.184951 0.684853 0.617598
v 0.166567 0.684853 0.609984
v 0.148183 0.684853 0.617598
v 0.140568 0.684853 0.635982
v 0.148183 0.684853 0.654366
v 0.166567 0.684853 0.635982
v 0.166567 0.654031 0.661981
v 0.184951 0.654031 0.654366
v 0.192566 0.654031 0.635982
v 0.184951 0.654031 0.617598
v 0.166567 0.654031 0.609984
v 0.148183 0.654031 0.617598
v 0.140568 0.654031 0.635982
v 0.148183 0.654031 0.654366
v 0.148183 0.681802 0.654366
v 0.140568 0.681802 0.635982
v 0.148183 0.681802 0.617598
v 0.166567 0.681802 0.609984
v 0.184951 0.681802 0.617598
v 0.192566 0.681802 0.635982
v 0.184951 0.681802 0.654366
v 0.166567 0.681802 0.661981
v 0.166567 0.654031 0.654160
v 0.179775 0.654031 0.648836
v 0.185246 0.654031 0.635982
v 0.179775 0.654031 0.623128
v 0.166567 0.654031 0.617804
v 0.153359 0.654031 0.623128
v 0.147888 0.654031 0.635982
v 0.153359 0.654031 0.648836
v 0.140568 0.657288 0.635982
v 0.166567 0.657288 0.609984
v 0.192566 0.657288 0.635982
v 0.166567 0.657288 0.661981
v 0.148183 0.657288 0.654366
v 0.148183 0.657288 0.617598
v 0.184951 0.657288 0.617598
v 0.184951 0.657288 0.654366
v 0.166567 0.644395 0.654160
v 0.179775 0.644395 0.648836
v 0.185246 0.644395 0.635982
v 0.179775 0.644395 0.623128
v 0.166567 0.644395 0.617804
v 0.153359 0.644395 0.623128
v 0.147888 0.644395 0.635982
v 0.153359 0.644395 0.648836
v 0.153359 0.652088 0.648836
v 0.147888 0.652088 0.635982
v 0.153359 0.652088 0.623128
v 0.166567 0.652088 0.617804
v 0.179775 0.652088 0.623128
v 0.185246 0.652088 0.635982
v 0.179775 0.652088 0.648836
v 0.166567 0.652088 0.654160
v 0.166567 0.644395 0.661960
v 0.193260 0.644395 0.661960
v 0.193260 0.644395 0.635982
v 0.193260 0.644395 0.610005
v 0.166567 0.644395 0.610005
v 0.139874 0.644395 0.610005
v 0.139874 0.644395 0.635982
v 0.139874 0.644395 0.661960
v 0.147888 0.649826 0.635982
v 0.166567 0.649826 0.617804
v 0.185246 0.649826 0.635982
v 0.166567 0.649826 0.654160
v 0.153359 0.649826 0.648836
v 0.153359 0.649826 0.623128
v 0.179775 0.649826 0.623128
v 0.179775 0.649826 0.648836
v 0.166567 0.644395 0.699651
v 0.192914 0.644395 0.699064
v 0.192914 0.644395 0.590100
v 0.166567 0.644395 0.590686
v 0.140220 0.644395 0.590100
v 0.140220 0.644395 0.699064
v 0.253864 0.644395 0.661960
v 0.253864 0.644395 0.635982
v 0.253864 0.644395 0.610005
v 0.079270 0.644395 0.610005
v 0.079270 0.644395 0.635982
v 0.079270 0.644395 0.661960
v 0.252732 0.644395 0.690465
v 0.252732 0.644395 0.581500
v 0.080402 0.644395 0.581500
v 0.080402 0.644395 0.690465
v 0.166567 0.380800 0.699651
v 0.192914 0.380800 0.699064
v 0.192914 0.380800 0.590100
v 0.166567 0.380800 0.590686
v 0.140220 0.380800 0.590100
v 0.140220 0.380800 0.699064
v 0.253864 0.380800 0.661960
v 0.253864 0.380800 0.635982
v 0.253864 0.380800 0.610005
v 0.079270 0.380800 0.610005
v 0.079270 0.380800 0.635982
v 0.079270 0.380800 0.661960
v 0.252732 0.380800 0.690465
v 0.252732 0.380800 0.581500
v 0.080402 0.380800 0.581500
v 0.080402 0.380800 0.690465
v 0.140220 0.380800 0.661960
v 0.166567 0.380800 0.661960
v 0.192914 0.380800 0.661960
v 0.140220 0.380800 0.635982
v 0.166567 0.380800 0.635982
v 0.192914 0.380800 0.635982
v 0.140220 0.380800 0.610005
v 0.166567 0.380800 0.610005
v 0.192914 0.380800 0.610005
v 0.140220 0.637104 0.590100
v 0.166567 0.637104 0.590686
v 0.252732 0.637104 0.581500
v 0.253864 0.637104 0.610005
v 0.253864 0.637104 0.635982
v 0.253864 0.637104 0.661960
v 0.252732 0.637104 0.690465
v 0.192914 0.637104 0.699064
v 0.166567 0.637104 0.699651
v 0.140220 0.637104 0.699064
v 0.192914 0.637104 0.590100
v 0.079270 0.637104 0.635982
v 0.079270 0.637104 0.610005
v 0.080402 0.637104 0.581500
v 0.079270 0.637104 0.661960
v 0.080402 0.637104 0.690465
v 0.166567 0.644395 0.655290
v 0.151406 0.644395 0.650737
v 0.146727 0.644395 0.635982
v 0.151406 0.644395 0.621227
v 0.166567 0.644395 0.616674
v 0.181729 0.644395 0.621227
v 0.186407 0.644395 0.635982
v 0.181729 0.644395 0.650737
v 0.166567 0.388968 0.590686
v 0.253864 0.388968 0.610005
v 0.253864 0.388968 0.661960
v 0.192914 0.388968 0.699064
v 0.140220 0.388968 0.699064
v 0.079270 0.388968 0.610005
v 0.080402 0.388968 0.690465
v 0.140220 0.388968 0.590100
v 0.252732 0.388968 0.581500
v 0.253864 0.388968 0.635982
v 0.252732 0.388968 0.690465
v 0.166567 0.388968 0.699651
v 0.192914 0.388968 0.590100
v 0.079270 0.388968 0.635982
v 0.080402 0.388968 0.581500
v 0.079270 0.388968 0.661960
v 0.243741 0.644395 0.582832
v 0.244751 0.644395 0.610005
v 0.244751 0.644395 0.635982
v 0.244751 0.644395 0.661960
v 0.243741 0.644395 0.691796
v 0.243470 0.380800 0.582832
v 0.243470 0.380800 0.691796
v 0.244427 0.380800 0.661960
v 0.244427 0.380800 0.635982
v 0.244427 0.380800 0.610005
v 0.243470 0.637104 0.582832
v 0.243470 0.637104 0.691796
v 0.243470 0.388968 0.582832
v 0.243470 0.388968 0.691796
v 0.088982 0.644395 0.661960
v 0.088982 0.644395 0.635982
v 0.089988 0.644395 0.691843
v 0.088982 0.644395 0.610005
v 0.089988 0.644395 0.582878
v 0.089988 0.380800 0.691843
v 0.089988 0.380800 0.582878
v 0.089038 0.380800 0.661960
v 0.089038 0.380800 0.635982
v 0.089038 0.380800 0.610005
v 0.089988 0.637104 0.691843
v 0.089988 0.637104 0.582878
v 0.089988 0.388968 0.691843
v 0.089988 0.388968 0.582878
v 0.140220 0.406089 0.590100
v 0.140220 0.615458 0.590100
v 0.252732 0.406089 0.581500
v 0.252732 0.615458 0.581500
v 0.253864 0.406089 0.635982
v 0.253864 0.615458 0.635982
v 0.252732 0.406089 0.690464
v 0.252732 0.615458 0.690464
v 0.166567 0.406089 0.699651
v 0.166567 0.615458 0.699651
v 0.192914 0.406089 0.590100
v 0.192914 0.615458 0.590100
v 0.079270 0.406089 0.635982
v 0.079270 0.615458 0.635982
v 0.080402 0.406089 0.581500
v 0.080402 0.615458 0.581500
v 0.079270 0.406089 0.661960
v 0.079270 0.615458 0.661960
v 0.166567 0.615458 0.590686
v 0.166567 0.406089 0.590686
v 0.253864 0.615458 0.610005
v 0.253864 0.406089 0.610005
v 0.253864 0.615458 0.661960
v 0.253864 0.406089 0.661960
v 0.192914 0.615458 0.699064
v 0.192914 0.406089 0.699064
v 0.140220 0.615458 0.699064
v 0.140220 0.406089 0.699064
v 0.079270 0.615458 0.610005
v 0.079270 0.406089 0.610005
v 0.080402 0.615458 0.690464
v 0.080402 0.406089 0.690464
v 0.243470 0.615458 0.691796
v 0.243470 0.406089 0.691796
v 0.243470 0.615458 0.582832
v 0.243470 0.406089 0.582832
v 0.089988 0.615458 0.582878
v 0.089988 0.406089 0.582878
v 0.089988 0.615458 0.691843
v 0.089988 0.406089 0.691843
v 0.221260 0.644395 0.586046
v 0.221976 0.644395 0.661960
v 0.221109 0.380800 0.586046
v 0.221109 0.637104 0.586046
v 0.221109 0.388968 0.586046
v 0.221976 0.644395 0.610005
v 0.221976 0.644395 0.635982
v 0.221260 0.644395 0.695011
v 0.221109 0.380800 0.695011
v 0.221642 0.380800 0.661960
v 0.221642 0.380800 0.635982
v 0.221642 0.380800 0.610005
v 0.221109 0.637104 0.695011
v 0.221109 0.388968 0.695011
v 0.221109 0.615458 0.586046
v 0.221109 0.406089 0.586046
v 0.221109 0.615458 0.695011
v 0.221109 0.406089 0.695011
v 0.111872 0.644395 0.661960
v 0.112576 0.644395 0.695148
v 0.112576 0.380800 0.695148
v 0.112576 0.637104 0.695148
v 0.112576 0.388968 0.695148
v 0.111872 0.644395 0.635982
v 0.111872 0.644395 0.610005
v 0.112576 0.644395 0.586183
v 0.112576 0.380800 0.586183
v 0.112060 0.380800 0.661960
v 0.112060 0.380800 0.635982
v 0.112060 0.380800 0.610005
v 0.112576 0.637104 0.586183
v 0.112576 0.388968 0.586183
v 0.112576 0.615458 0.695148
v 0.112576 0.406089 0.695148
v 0.112576 0.615458 0.586183
v 0.112576 0.406089 0.586183
v 0.140220 0.406089 0.592680
v 0.140220 0.615458 0.592680
v 0.166567 0.406089 0.696898
v 0.166567 0.615458 0.696898
v 0.192914 0.406089 0.592680
v 0.192914 0.615458 0.592680
v 0.166567 0.615458 0.593238
v 0.166567 0.406089 0.593238
v 0.192914 0.615458 0.696340
v 0.192914 0.406089 0.696340
v 0.140220 0.615458 0.696340
v 0.140220 0.406089 0.696340
v 0.112576 0.615458 0.692614
v 0.112576 0.406089 0.692614
v 0.221109 0.615458 0.588824
v 0.221109 0.406089 0.588824
v 0.221109 0.615458 0.692484
v 0.221109 0.406089 0.692484
v 0.112576 0.615458 0.588954
v 0.112576 0.406089 0.588954
vn 0.0000 -1.0000 0.0000
vn 0.9239 0.0000 -0.3827
vn 0.3827 0.0000 0.9239
vn -0.9239 0.0000 0.3827
vn -0.3827 0.0000 -0.9239
vn 0.3827 0.0000 -0.9239
vn 0.9239 0.0000 0.3827
vn -0.3827 0.0000 0.9239
vn -0.9239 0.0000 -0.3827
vn 0.0000 1.0000 0.0000
vn 0.9201 0.0000 -0.3916
vn 0.3739 0.0000 0.9275
vn -0.9201 0.0000 0.3916
vn -0.3739 0.0000 -0.9275
vn 0.3739 0.0000 -0.9275
vn 0.9201 0.0000 0.3916
vn -0.3739 0.0000 0.9275
vn -0.9201 0.0000 -0.3916
vn -0.0222 0.0000 0.9998
vn -0.9992 0.0000 0.0397
vn -1.0000 0.0000 0.0000
vn -0.1423 0.0000 -0.9898
vn 0.0222 0.0000 -0.9998
vn 0.1423 0.0000 0.9898
vn 1.0000 0.0000 0.0000
vn -0.1403 0.0000 0.9901
vn 0.9992 0.0000 0.0397
vn -0.0222 0.0000 -0.9998
vn -0.9992 0.0000 -0.0397
vn 0.1423 0.0000 -0.9898
vn 0.0222 0.0000 0.9998
vn 0.9992 0.0000 -0.0397
vn 0.1444 -0.0027 0.9895
vn -0.1419 0.0015 -0.9899
vn -0.1444 0.0027 -0.9895
vn 0.1419 -0.0041 0.9899
vn -0.1423 -0.0000 0.9898
vn 0.1448 -0.0000 -0.9895
vn 0.1419 -0.0015 0.9899
vn -0.1419 0.0041 -0.9899
vn -0.1448 0.0000 0.9895
vn 0.1403 0.0000 -0.9901
vn -0.0212 0.0000 0.9998
vn -0.1355 0.0000 -0.9908
vn 0.0212 0.0000 -0.9998
vn -0.1336 0.0000 0.9910
vn -0.0212 0.0000 -0.9998
vn 0.0212 0.0000 0.9998
vn 0.1355 0.0000 0.9908
vn 0.1336 0.0000 -0.9910
usemtl None
s off
f 9//1 7//1 6//1 5//1
f 3//1 9//1 5//1 4//1
f 1//1 8//1 7//1 9//1
f 2//1 1//1 9//1 3//1
f 38//2 17//2 16//2 34//2
f 39//3 15//3 14//3 35//3
f 40//4 13//4 12//4 36//4
f 41//5 11//5 10//5 37//5
f 37//6 10//6 17//6 38//6
f 34//7 16//7 15//7 39//7
f 35//8 14//8 13//8 40//8
f 36//9 12//9 11//9 41//9
f 3//9 23//9 24//9 2//9
f 5//8 21//8 22//8 4//8
f 7//7 19//7 20//7 6//7
f 1//6 25//6 18//6 8//6
f 2//5 24//5 25//5 1//5
f 4//4 22//4 23//4 3//4
f 6//3 20//3 21//3 5//3
f 8//2 18//2 19//2 7//2
f 10//10 26//10 33//10 17//10
f 16//10 32//10 31//10 15//10
f 14//10 30//10 29//10 13//10
f 12//10 28//10 27//10 11//10
f 17//10 33//10 32//10 16//10
f 15//10 31//10 30//10 14//10
f 13//10 29//10 28//10 12//10
f 11//10 27//10 26//10 10//10
f 23//9 36//9 41//9 24//9
f 21//8 35//8 40//8 22//8
f 19//7 34//7 39//7 20//7
f 25//6 37//6 38//6 18//6
f 24//5 41//5 37//5 25//5
f 22//4 40//4 36//4 23//4
f 20//3 39//3 35//3 21//3
f 18//2 38//2 34//2 19//2
f 70//11 49//11 48//11 66//11
f 71//12 47//12 46//12 67//12
f 72//13 45//13 44//13 68//13
f 73//14 43//14 42//14 69//14
f 69//15 42//15 49//15 70//15
f 66//16 48//16 47//16 71//16
f 67//17 46//17 45//17 72//17
f 68//18 44//18 43//18 73//18
f 28//18 55//18 56//18 27//18
f 30//17 53//17 54//17 29//17
f 32//16 51//16 52//16 31//16
f 26//15 57//15 50//15 33//15
f 27//14 56//14 57//14 26//14
f 29//13 54//13 55//13 28//13
f 31//12 52//12 53//12 30//12
f 33//11 50//11 51//11 32//11
f 131//1 58//1 65//1 132//1
f 133//1 64//1 63//1 134//1
f 135//1 62//1 61//1 136//1
f 137//1 60//1 59//1 138//1
f 132//1 65//1 64//1 133//1
f 134//1 63//1 62//1 135//1
f 136//1 61//1 60//1 137//1
f 138//1 59//1 58//1 131//1
f 55//18 68//18 73//18 56//18
f 53//17 67//17 72//17 54//17
f 51//16 66//16 71//16 52//16
f 57//15 69//15 70//15 50//15
f 56//14 73//14 69//14 57//14
f 54//13 72//13 68//13 55//13
f 52//12 71//12 67//12 53//12
f 50//11 70//11 66//11 51//11
f 63//1 78//1 77//1 62//1
f 59//1 75//1 74//1 58//1
f 58//1 74//1 79//1 65//1
f 62//1 77//1 76//1 61//1
f 155//1 87//1 82//1 156//1
f 169//1 85//1 84//1 170//1
f 156//1 82//1 81//1 157//1
f 171//1 89//1 85//1 169//1
f 158//1 80//1 86//1 159//1
f 170//1 84//1 83//1 172//1
f 172//1 83//1 88//1 173//1
f 157//1 81//1 80//1 158//1
f 146//19 94//19 93//19 139//19
f 147//20 103//20 98//20 140//20
f 148//21 97//21 96//21 141//21
f 236//22 231//22 91//22 142//22
f 150//23 90//23 95//23 143//23
f 167//24 160//24 103//24 147//24
f 140//21 98//21 97//21 148//21
f 152//25 100//25 99//25 144//25
f 254//26 249//26 94//26 146//26
f 154//25 101//25 100//25 152//25
f 144//27 99//27 104//27 153//27
f 142//28 91//28 90//28 150//28
f 141//29 96//29 102//29 149//29
f 181//30 174//30 105//30 145//30
f 139//31 93//31 92//31 151//31
f 145//32 105//32 101//32 154//32
f 176//10 101//10 105//10 174//10
f 113//10 93//10 94//10 112//10
f 114//10 92//10 93//10 113//10
f 234//10 225//10 92//10 114//10
f 91//10 108//10 107//10 90//10
f 90//10 107//10 106//10 95//10
f 177//10 100//10 101//10 176//10
f 231//10 232//10 108//10 91//10
f 108//10 111//10 110//10 107//10
f 107//10 110//10 109//10 106//10
f 178//10 99//10 100//10 177//10
f 232//10 233//10 111//10 108//10
f 111//10 114//10 113//10 110//10
f 110//10 113//10 112//10 109//10
f 175//10 104//10 99//10 178//10
f 233//10 234//10 114//10 111//10
f 89//32 130//32 129//32 85//32
f 77//31 116//31 125//31 76//31
f 171//30 179//30 130//30 89//30
f 80//29 120//29 121//29 86//29
f 75//28 122//28 123//28 74//28
f 83//27 127//27 128//27 88//27
f 85//25 129//25 126//25 84//25
f 248//26 253//26 115//26 78//26
f 84//25 126//25 127//25 83//25
f 82//21 118//21 119//21 81//21
f 155//33 165//33 117//33 87//33
f 74//23 123//23 124//23 79//23
f 230//34 235//34 122//34 75//34
f 81//21 119//21 120//21 80//21
f 87//20 117//20 118//20 82//20
f 78//19 115//19 116//19 77//19
f 43//1 138//1 131//1 42//1
f 45//1 136//1 137//1 44//1
f 47//1 134//1 135//1 46//1
f 49//1 132//1 133//1 48//1
f 44//1 137//1 138//1 43//1
f 46//1 135//1 136//1 45//1
f 48//1 133//1 134//1 47//1
f 42//1 131//1 132//1 49//1
f 214//32 145//32 154//32 199//32
f 202//31 139//31 151//31 193//31
f 222//30 181//30 145//30 214//30
f 206//29 141//29 149//29 189//29
f 208//28 142//28 150//28 191//28
f 212//27 144//27 153//27 197//27
f 199//25 154//25 152//25 195//25
f 258//26 254//26 146//26 183//26
f 195//25 152//25 144//25 212//25
f 204//21 140//21 148//21 187//21
f 218//24 167//24 147//24 185//24
f 191//23 150//23 143//23 210//23
f 240//22 236//22 142//22 208//22
f 187//21 148//21 141//21 206//21
f 185//20 147//20 140//20 204//20
f 183//19 146//19 139//19 202//19
f 189//22 149//22 168//22 216//22
f 238//24 227//24 167//24 218//24
f 86//35 121//35 166//35 159//35
f 223//36 226//36 165//36 155//36
f 97//10 98//10 164//10 163//10
f 96//10 97//10 163//10 162//10
f 102//10 96//10 162//10 161//10
f 98//10 103//10 160//10 164//10
f 227//24 225//24 160//24 167//24
f 149//22 102//22 161//22 168//22
f 229//1 157//1 158//1 224//1
f 224//1 158//1 159//1 230//1
f 228//1 156//1 157//1 229//1
f 223//1 155//1 156//1 228//1
f 197//37 153//37 182//37 220//37
f 256//38 245//38 181//38 222//38
f 88//37 128//37 180//37 173//37
f 242//38 244//38 179//38 171//38
f 249//10 175//10 178//10 252//10
f 252//10 178//10 177//10 251//10
f 251//10 177//10 176//10 250//10
f 250//10 176//10 174//10 243//10
f 245//38 243//38 174//38 181//38
f 153//37 104//37 175//37 182//37
f 247//1 172//1 173//1 248//1
f 246//1 170//1 172//1 247//1
f 242//1 171//1 169//1 241//1
f 241//1 169//1 170//1 246//1
f 244//38 255//38 221//38 179//38
f 255//38 256//38 222//38 221//38
f 128//37 198//37 219//37 180//37
f 198//37 197//37 220//37 219//37
f 226//24 237//24 217//24 165//24
f 237//24 238//24 218//24 217//24
f 121//22 190//22 215//22 166//22
f 190//22 189//22 216//22 215//22
f 115//19 184//19 201//19 116//19
f 194//10 264//10 273//10 237//10
f 117//20 186//20 203//20 118//20
f 186//20 185//20 204//20 203//20
f 119//21 188//21 205//21 120//21
f 188//21 187//21 206//21 205//21
f 235//22 239//22 207//22 122//22
f 257//10 277//10 260//10 184//10
f 123//23 192//23 209//23 124//23
f 210//1 270//1 261//1 191//1
f 165//24 217//24 186//24 117//24
f 217//24 218//24 185//24 186//24
f 118//21 203//21 188//21 119//21
f 203//21 204//21 187//21 188//21
f 126//25 196//25 211//25 127//25
f 196//25 195//25 212//25 211//25
f 253//26 257//26 184//26 115//26
f 202//1 266//1 259//1 183//1
f 129//25 200//25 196//25 126//25
f 200//25 199//25 195//25 196//25
f 127//27 211//27 198//27 128//27
f 211//27 212//27 197//27 198//27
f 122//28 207//28 192//28 123//28
f 191//1 261//1 268//1 208//1
f 120//29 205//29 190//29 121//29
f 205//29 206//29 189//29 190//29
f 179//30 221//30 213//30 130//30
f 221//30 222//30 214//30 213//30
f 116//31 201//31 194//31 125//31
f 192//10 262//10 269//10 209//10
f 130//32 213//32 200//32 129//32
f 213//32 214//32 199//32 200//32
f 215//22 216//22 240//22 239//22
f 166//22 215//22 239//22 235//22
f 256//1 272//1 270//1 210//1
f 125//24 194//24 237//24 226//24
f 76//1 223//1 228//1 61//1
f 61//1 228//1 229//1 60//1
f 59//1 224//1 230//1 75//1
f 60//1 229//1 224//1 59//1
f 151//24 92//24 225//24 227//24
f 76//39 125//39 226//39 223//39
f 193//24 151//24 227//24 238//24
f 216//22 168//22 236//22 240//22
f 159//40 166//40 235//40 230//40
f 163//10 164//10 234//10 233//10
f 162//10 163//10 233//10 232//10
f 161//10 162//10 232//10 231//10
f 164//10 160//10 225//10 234//10
f 168//22 161//22 231//22 236//22
f 219//41 220//41 258//41 257//41
f 180//41 219//41 257//41 253//41
f 237//25 273//25 274//25 238//25
f 124//42 209//42 255//42 244//42
f 65//1 241//1 246//1 64//1
f 79//1 242//1 241//1 65//1
f 64//1 246//1 247//1 63//1
f 63//1 247//1 248//1 78//1
f 143//42 95//42 243//42 245//42
f 106//10 250//10 243//10 95//10
f 109//10 251//10 250//10 106//10
f 112//10 252//10 251//10 109//10
f 94//10 249//10 252//10 112//10
f 79//42 124//42 244//42 242//42
f 210//42 143//42 245//42 256//42
f 220//41 182//41 254//41 258//41
f 173//41 180//41 253//41 248//41
f 182//41 175//41 249//41 254//41
f 260//43 259//43 266//43 265//43
f 275//44 276//44 268//44 267//44
f 262//45 261//45 270//45 269//45
f 277//46 278//46 259//46 260//46
f 267//47 268//47 261//47 262//47
f 265//48 266//48 263//48 264//48
f 264//49 263//49 274//49 273//49
f 269//50 270//50 272//50 271//50
f 183//1 259//1 278//1 258//1
f 239//10 275//10 267//10 207//10
f 238//1 274//1 263//1 193//1
f 258//21 278//21 277//21 257//21
f 208//1 268//1 276//1 240//1
f 240//25 276//25 275//25 239//25
f 201//10 265//10 264//10 194//10
f 255//21 271//21 272//21 256//21
f 209//10 269//10 271//10 255//10
f 193//1 263//1 266//1 202//1
f 207//10 267//10 262//10 192//10
f 184//10 260//10 265//10 201//10
