# Blender v2.79 (sub 0) OBJ File: '914571-79.blend'
# www.blender.org
mtllib 914571-79-LP.mtl
o Circle
v 0.166683 0.622412 -0.229120
v 0.142392 0.622412 -0.219058
v 0.132330 0.622412 -0.194767
v 0.142392 0.622412 -0.170476
v 0.166683 0.622412 -0.160415
v 0.190974 0.622412 -0.170477
v 0.201036 0.622412 -0.194767
v 0.190974 0.622412 -0.219058
v 0.166683 0.622412 -0.194767
v 0.166683 0.580563 -0.229120
v 0.142392 0.580563 -0.219058
v 0.132330 0.580563 -0.194767
v 0.142392 0.580563 -0.170476
v 0.166683 0.580563 -0.160415
v 0.190974 0.580563 -0.170477
v 0.201036 0.580563 -0.194767
v 0.190974 0.580563 -0.219058
v 0.201036 0.615550 -0.194767
v 0.190974 0.615550 -0.170477
v 0.166683 0.615550 -0.160415
v 0.142392 0.615550 -0.170476
v 0.132330 0.615550 -0.194767
v 0.142392 0.615550 -0.219058
v 0.190974 0.615550 -0.219058
v 0.166683 0.615550 -0.229120
v 0.166683 0.580563 -0.222326
v 0.147196 0.580563 -0.214254
v 0.139125 0.580563 -0.194767
v 0.147196 0.580563 -0.175281
v 0.166683 0.580563 -0.167209
v 0.186170 0.580563 -0.175281
v 0.194241 0.580563 -0.194767
v 0.186170 0.580563 -0.214254
v 0.166683 0.568212 -0.222326
v 0.147196 0.568212 -0.214254
v 0.139125 0.568212 -0.194767
v 0.147196 0.568212 -0.175281
v 0.166683 0.568212 -0.167209
v 0.186170 0.568212 -0.175281
v 0.194241 0.568212 -0.194767
v 0.186170 0.568212 -0.214254
v 0.190974 0.588835 -0.170477
v 0.142392 0.588835 -0.170476
v 0.142392 0.588835 -0.219058
v 0.166683 0.588835 -0.229120
v 0.201036 0.588835 -0.194767
v 0.166683 0.588835 -0.160415
v 0.132330 0.588835 -0.194767
v 0.190974 0.588835 -0.219058
v 0.166683 0.568212 -0.224112
v 0.137338 0.568212 -0.224112
v 0.137338 0.568212 -0.194767
v 0.137338 0.568212 -0.165423
v 0.166683 0.568212 -0.165423
v 0.196028 0.568212 -0.165423
v 0.196028 0.568212 -0.194767
v 0.196028 0.568212 -0.224112
v 0.017869 0.568212 -0.222001
v 0.017869 0.568212 -0.194767
v 0.017869 0.568212 -0.167534
v 0.315497 0.568212 -0.167534
v 0.315497 0.568212 -0.194767
v 0.315497 0.568212 -0.222001
v 0.166683 0.568212 -0.330192
v 0.139450 0.568212 -0.331051
v 0.139450 0.568212 -0.058484
v 0.166683 0.568212 -0.059343
v 0.193916 0.568212 -0.058484
v 0.193916 0.568212 -0.331051
v 0.017869 0.568212 -0.343916
v 0.017869 0.568212 -0.045619
v 0.315497 0.568212 -0.045619
v 0.315497 0.568212 -0.343916
v 0.017869 0.441278 -0.222001
v 0.017869 0.441278 -0.194767
v 0.017869 0.441278 -0.167534
v 0.315497 0.441278 -0.167534
v 0.315497 0.441278 -0.194767
v 0.315497 0.441278 -0.222001
v 0.166683 0.441278 -0.330192
v 0.139450 0.441278 -0.331051
v 0.139450 0.441278 -0.058484
v 0.166683 0.441278 -0.059343
v 0.193916 0.441278 -0.058484
v 0.193916 0.441278 -0.331051
v 0.017869 0.441278 -0.343916
v 0.017869 0.441278 -0.045619
v 0.315497 0.441278 -0.045619
v 0.315497 0.441278 -0.343916
v 0.193916 0.441278 -0.167534
v 0.166683 0.441278 -0.167534
v 0.139450 0.441278 -0.167534
v 0.193916 0.441278 -0.194767
v 0.166683 0.441278 -0.194767
v 0.139450 0.441278 -0.194767
v 0.193916 0.441278 -0.222001
v 0.166683 0.441278 -0.222001
v 0.139450 0.441278 -0.222001
v 0.017869 0.562426 -0.194767
v 0.017869 0.562426 -0.222001
v 0.193916 0.562426 -0.331051
v 0.315497 0.562426 -0.343916
v 0.017869 0.562426 -0.045619
v 0.017869 0.562426 -0.167534
v 0.139450 0.562426 -0.058484
v 0.315497 0.562426 -0.194767
v 0.315497 0.562426 -0.167534
v 0.315497 0.562426 -0.045619
v 0.193916 0.562426 -0.058484
v 0.139450 0.562426 -0.331051
v 0.166683 0.562426 -0.330192
v 0.315497 0.562426 -0.222001
v 0.017869 0.562426 -0.343916
v 0.166683 0.562426 -0.059343
v 0.017869 0.448689 -0.222001
v 0.315497 0.448689 -0.343916
v 0.017869 0.448689 -0.167534
v 0.315497 0.448689 -0.167534
v 0.193916 0.448689 -0.058484
v 0.166683 0.448689 -0.330192
v 0.315497 0.448689 -0.222001
v 0.017869 0.448689 -0.343916
v 0.017869 0.448689 -0.194767
v 0.193916 0.448689 -0.331051
v 0.017869 0.448689 -0.045619
v 0.139450 0.448689 -0.058484
v 0.315497 0.448689 -0.194767
v 0.315497 0.448689 -0.045619
v 0.139450 0.448689 -0.331051
v 0.166683 0.448689 -0.059343
v 0.308935 0.568212 -0.222130
v 0.308935 0.568212 -0.194767
v 0.308935 0.568212 -0.167404
v 0.308805 0.568212 -0.343125
v 0.308805 0.568212 -0.046410
v 0.308805 0.441278 -0.343125
v 0.308805 0.441278 -0.046410
v 0.308805 0.441278 -0.167534
v 0.308805 0.441278 -0.194767
v 0.308805 0.441278 -0.222001
v 0.308805 0.562426 -0.046410
v 0.308805 0.562426 -0.343125
v 0.308805 0.448689 -0.046410
v 0.308805 0.448689 -0.343125
v 0.024888 0.568212 -0.194767
v 0.024888 0.568212 -0.222125
v 0.024888 0.568212 -0.167410
v 0.025012 0.568212 -0.343160
v 0.025012 0.568212 -0.046375
v 0.025012 0.441278 -0.343160
v 0.025012 0.441278 -0.046375
v 0.025012 0.441278 -0.167534
v 0.025012 0.441278 -0.194767
v 0.025012 0.441278 -0.222001
v 0.025012 0.562426 -0.343160
v 0.025012 0.562426 -0.046375
v 0.025012 0.448689 -0.343160
v 0.025012 0.448689 -0.046375
v 0.017869 0.531318 -0.194767
v 0.193916 0.531318 -0.331051
v 0.017869 0.531318 -0.045619
v 0.139450 0.531318 -0.058484
v 0.315497 0.531318 -0.194767
v 0.315497 0.531318 -0.045619
v 0.139450 0.531318 -0.331051
v 0.166683 0.531318 -0.059343
v 0.017869 0.531318 -0.222001
v 0.315497 0.531318 -0.343916
v 0.017869 0.531318 -0.167534
v 0.315497 0.531318 -0.167534
v 0.193916 0.531318 -0.058484
v 0.166683 0.531318 -0.330192
v 0.315497 0.531318 -0.222001
v 0.017869 0.531318 -0.343916
v 0.308805 0.531318 -0.343125
v 0.308805 0.531318 -0.046410
v 0.025012 0.531318 -0.046375
v 0.025012 0.531318 -0.343160
v 0.017869 0.475908 -0.222001
v 0.315497 0.475908 -0.343916
v 0.017869 0.475908 -0.167534
v 0.315497 0.475908 -0.167534
v 0.193916 0.475908 -0.058484
v 0.166683 0.475908 -0.330192
v 0.315497 0.475908 -0.222001
v 0.017869 0.475908 -0.343916
v 0.308805 0.475908 -0.343125
v 0.308805 0.475908 -0.046410
v 0.025012 0.475908 -0.046375
v 0.025012 0.475908 -0.343160
v 0.017869 0.475908 -0.194767
v 0.193916 0.475908 -0.331051
v 0.017869 0.475908 -0.045619
v 0.139450 0.475908 -0.058484
v 0.315497 0.475908 -0.194767
v 0.315497 0.475908 -0.045619
v 0.139450 0.475908 -0.331051
v 0.166683 0.475908 -0.059343
v 0.288011 0.568212 -0.222550
v 0.287461 0.568212 -0.340567
v 0.287461 0.441278 -0.340567
v 0.287461 0.562426 -0.340567
v 0.287461 0.448689 -0.340567
v 0.288011 0.568212 -0.194767
v 0.288011 0.568212 -0.166985
v 0.287461 0.568212 -0.048968
v 0.287461 0.441278 -0.048968
v 0.287461 0.441278 -0.167534
v 0.287461 0.441278 -0.194767
v 0.287461 0.441278 -0.222001
v 0.287461 0.562426 -0.048968
v 0.287461 0.448689 -0.048968
v 0.287461 0.531318 -0.340567
v 0.287461 0.531318 -0.048968
v 0.287461 0.475908 -0.340567
v 0.287461 0.475908 -0.048968
v 0.045854 0.568212 -0.194767
v 0.045854 0.568212 -0.167040
v 0.046348 0.568212 -0.048632
v 0.046348 0.441278 -0.048632
v 0.046348 0.441278 -0.194767
v 0.046348 0.441278 -0.222001
v 0.046348 0.562426 -0.048632
v 0.046348 0.448689 -0.048632
v 0.045854 0.568212 -0.222495
v 0.046348 0.568212 -0.340902
v 0.046348 0.441278 -0.340902
v 0.046348 0.441278 -0.167534
v 0.046348 0.562426 -0.340902
v 0.046348 0.448689 -0.340902
v 0.046348 0.531318 -0.048632
v 0.046348 0.531318 -0.340902
v 0.046348 0.475908 -0.048632
v 0.046348 0.475908 -0.340902
v 0.193916 0.475908 -0.348072
v 0.193916 0.531318 -0.348072
v 0.139450 0.475908 -0.075506
v 0.139450 0.531318 -0.075506
v 0.139450 0.475908 -0.348072
v 0.139450 0.531318 -0.348072
v 0.166683 0.475908 -0.076364
v 0.166683 0.531318 -0.076364
v 0.046348 0.531318 -0.065654
v 0.287461 0.531318 -0.357589
v 0.166683 0.531318 -0.347214
v 0.193916 0.531318 -0.075506
v 0.193916 0.475908 -0.075506
v 0.166683 0.475908 -0.347214
v 0.046348 0.475908 -0.065654
v 0.287461 0.475908 -0.357589
v 0.287461 0.531318 -0.065990
v 0.287461 0.475908 -0.065990
v 0.046348 0.531318 -0.357924
v 0.046348 0.475908 -0.357924
vn 0.0000 1.0000 0.0000
vn 0.9239 0.0000 0.3827
vn -0.3827 0.0000 0.9239
vn -0.9239 0.0000 -0.3827
vn 0.9239 0.0000 -0.3827
vn 0.3827 0.0000 0.9239
vn -0.9239 0.0000 0.3827
vn -0.3827 0.0000 -0.9239
vn 0.3827 0.0000 -0.9239
vn 0.0000 -1.0000 0.0000
vn -1.0000 0.0000 0.0000
vn -0.1174 0.0000 -0.9931
vn 0.1052 0.0000 0.9944
vn 1.0000 0.0000 -0.0000
vn -0.1012 0.0000 0.9949
vn 0.0315 0.0000 -0.9995
vn 0.0315 0.0000 0.9995
vn -0.0315 0.0000 0.9995
vn -0.0315 0.0000 -0.9995
vn 0.1052 0.0000 -0.9944
vn -0.1190 0.0000 -0.9929
vn -0.1174 0.0000 0.9931
vn -0.1190 0.0000 0.9929
vn -0.1012 0.0000 -0.9949
usemtl None
s off
f 9//1 5//1 6//1 7//1
f 3//1 4//1 5//1 9//1
f 1//1 9//1 7//1 8//1
f 2//1 3//1 9//1 1//1
f 46//2 42//2 15//2 16//2
f 47//3 43//3 13//3 14//3
f 48//4 44//4 11//4 12//4
f 49//5 46//5 16//5 17//5
f 42//6 47//6 14//6 15//6
f 43//7 48//7 12//7 13//7
f 44//8 45//8 10//8 11//8
f 45//9 49//9 17//9 10//9
f 1//9 8//9 24//9 25//9
f 2//8 1//8 25//8 23//8
f 4//7 3//7 22//7 21//7
f 6//6 5//6 20//6 19//6
f 8//5 7//5 18//5 24//5
f 3//4 2//4 23//4 22//4
f 5//3 4//3 21//3 20//3
f 7//2 6//2 19//2 18//2
f 15//10 14//10 30//10 31//10
f 13//10 12//10 28//10 29//10
f 11//10 10//10 26//10 27//10
f 10//10 17//10 33//10 26//10
f 16//10 15//10 31//10 32//10
f 14//10 13//10 29//10 30//10
f 12//10 11//10 27//10 28//10
f 17//10 16//10 32//10 33//10
f 32//2 31//2 39//2 40//2
f 30//3 29//3 37//3 38//3
f 28//4 27//4 35//4 36//4
f 33//5 32//5 40//5 41//5
f 31//6 30//6 38//6 39//6
f 29//7 28//7 36//7 37//7
f 27//8 26//8 34//8 35//8
f 26//9 33//9 41//9 34//9
f 25//9 24//9 49//9 45//9
f 23//8 25//8 45//8 44//8
f 21//7 22//7 48//7 43//7
f 19//6 20//6 47//6 42//6
f 24//5 18//5 46//5 49//5
f 22//4 23//4 44//4 48//4
f 20//3 21//3 43//3 47//3
f 18//2 19//2 42//2 46//2
f 35//1 34//1 50//1 51//1
f 34//1 41//1 57//1 50//1
f 40//1 39//1 55//1 56//1
f 38//1 37//1 53//1 54//1
f 36//1 35//1 51//1 52//1
f 41//1 40//1 56//1 57//1
f 39//1 38//1 54//1 55//1
f 37//1 36//1 52//1 53//1
f 145//1 146//1 58//1 59//1
f 131//1 132//1 62//1 63//1
f 147//1 145//1 59//1 60//1
f 132//1 133//1 61//1 62//1
f 225//1 51//1 65//1 226//1
f 55//1 54//1 67//1 68//1
f 147//1 60//1 71//1 149//1
f 131//1 63//1 73//1 134//1
f 51//1 50//1 64//1 65//1
f 50//1 57//1 69//1 64//1
f 205//1 55//1 68//1 206//1
f 54//1 53//1 66//1 67//1
f 123//11 115//11 74//11 75//11
f 144//12 116//12 89//12 136//12
f 125//11 117//11 76//11 87//11
f 117//11 123//11 75//11 76//11
f 158//13 125//13 87//13 151//13
f 127//14 118//14 77//14 78//14
f 212//15 119//15 84//15 207//15
f 129//16 120//16 80//16 81//16
f 116//14 121//14 79//14 89//14
f 121//14 127//14 78//14 79//14
f 115//11 122//11 86//11 74//11
f 130//17 126//17 82//17 83//17
f 119//18 130//18 83//18 84//18
f 118//14 128//14 88//14 77//14
f 120//19 124//19 85//19 80//19
f 230//20 129//20 81//20 227//20
f 140//10 136//10 89//10 79//10
f 228//10 92//10 82//10 220//10
f 98//10 81//10 80//10 97//10
f 97//10 80//10 85//10 96//10
f 82//10 92//10 91//10 83//10
f 83//10 91//10 90//10 84//10
f 137//10 138//10 77//10 88//10
f 222//10 227//10 81//10 98//10
f 92//10 95//10 94//10 91//10
f 91//10 94//10 93//10 90//10
f 138//10 139//10 78//10 77//10
f 228//10 221//10 95//10 92//10
f 95//10 98//10 97//10 94//10
f 94//10 97//10 96//10 93//10
f 139//10 140//10 79//10 78//10
f 221//10 222//10 98//10 95//10
f 226//20 65//20 110//20 229//20
f 64//19 69//19 101//19 111//19
f 61//14 72//14 108//14 107//14
f 68//18 67//18 114//18 109//18
f 67//17 66//17 105//17 114//17
f 58//11 70//11 113//11 100//11
f 63//14 62//14 106//14 112//14
f 73//14 63//14 112//14 102//14
f 65//16 64//16 111//16 110//16
f 206//15 68//15 109//15 211//15
f 62//14 61//14 107//14 106//14
f 149//13 71//13 103//13 156//13
f 60//11 59//11 99//11 104//11
f 71//11 60//11 104//11 103//11
f 134//12 73//12 102//12 142//12
f 59//11 58//11 100//11 99//11
f 234//20 197//20 129//20 230//20
f 184//19 192//19 124//19 120//19
f 182//14 196//14 128//14 118//14
f 183//18 198//18 130//18 119//18
f 198//17 194//17 126//17 130//17
f 179//11 186//11 122//11 115//11
f 185//14 195//14 127//14 121//14
f 180//14 185//14 121//14 116//14
f 197//16 184//16 120//16 129//16
f 216//15 183//15 119//15 212//15
f 195//14 182//14 118//14 127//14
f 189//13 193//13 125//13 158//13
f 181//11 191//11 123//11 117//11
f 193//11 181//11 117//11 125//11
f 187//12 180//12 116//12 144//12
f 191//11 179//11 115//11 123//11
f 215//21 187//21 144//21 203//21
f 196//22 188//22 143//22 128//22
f 200//21 134//21 142//21 202//21
f 72//22 135//22 141//22 108//22
f 209//10 210//10 140//10 139//10
f 208//10 209//10 139//10 138//10
f 207//10 208//10 138//10 137//10
f 210//10 201//10 136//10 140//10
f 128//22 143//22 137//22 88//22
f 203//21 144//21 136//21 201//21
f 61//1 133//1 135//1 72//1
f 199//1 131//1 134//1 200//1
f 204//1 205//1 133//1 132//1
f 199//1 204//1 132//1 131//1
f 233//13 189//13 158//13 224//13
f 186//20 190//20 157//20 122//20
f 219//13 149//13 156//13 223//13
f 70//20 148//20 155//20 113//20
f 75//10 74//10 154//10 153//10
f 76//10 75//10 153//10 152//10
f 74//10 86//10 150//10 154//10
f 76//10 152//10 151//10 87//10
f 122//20 157//20 150//20 86//20
f 224//13 158//13 151//13 220//13
f 218//1 147//1 149//1 219//1
f 58//1 146//1 148//1 70//1
f 218//1 217//1 145//1 147//1
f 217//1 225//1 146//1 145//1
f 113//20 155//20 178//20 174//20
f 223//13 156//13 177//13 231//13
f 108//22 141//22 176//22 164//22
f 202//21 142//21 175//21 213//21
f 99//11 100//11 167//11 159//11
f 142//12 102//12 168//12 175//12
f 103//11 104//11 169//11 161//11
f 104//11 99//11 159//11 169//11
f 156//13 103//13 161//13 177//13
f 106//14 107//14 170//14 163//14
f 211//15 109//15 171//15 214//15
f 110//16 111//16 172//16 165//16
f 102//14 112//14 173//14 168//14
f 112//14 106//14 163//14 173//14
f 100//11 113//11 174//11 167//11
f 114//17 105//17 162//17 166//17
f 109//18 114//18 166//18 171//18
f 107//14 108//14 164//14 170//14
f 111//19 101//19 160//19 172//19
f 229//20 110//20 165//20 232//20
f 174//20 178//20 190//20 186//20
f 231//13 177//13 189//13 233//13
f 164//22 176//22 188//22 196//22
f 213//21 175//21 187//21 215//21
f 159//11 167//11 179//11 191//11
f 175//12 168//12 180//12 187//12
f 161//11 169//11 181//11 193//11
f 169//11 159//11 191//11 181//11
f 177//13 161//13 193//13 189//13
f 163//14 170//14 182//14 195//14
f 171//10 166//10 242//10 246//10
f 162//10 231//10 243//10 238//10
f 168//14 173//14 185//14 180//14
f 173//14 163//14 195//14 185//14
f 167//11 174//11 186//11 179//11
f 214//10 171//10 246//10 251//10
f 166//10 162//10 238//10 242//10
f 170//14 164//14 196//14 182//14
f 232//1 165//1 240//1 253//1
f 184//10 197//10 239//10 248//10
f 176//23 214//23 216//23 188//23
f 192//10 184//10 248//10 235//10
f 141//23 211//23 214//23 176//23
f 101//24 202//24 213//24 160//24
f 57//1 56//1 204//1 199//1
f 56//1 55//1 205//1 204//1
f 57//1 199//1 200//1 69//1
f 124//24 203//24 201//24 85//24
f 96//10 85//10 201//10 210//10
f 84//10 90//10 208//10 207//10
f 90//10 93//10 209//10 208//10
f 93//10 96//10 210//10 209//10
f 69//24 200//24 202//24 101//24
f 192//24 215//24 203//24 124//24
f 188//23 216//23 212//23 143//23
f 135//23 206//23 211//23 141//23
f 143//23 212//23 207//23 137//23
f 133//1 205//1 206//1 135//1
f 178//20 232//20 234//20 190//20
f 215//10 192//10 235//10 250//10
f 155//20 229//20 232//20 178//20
f 105//13 223//13 231//13 162//13
f 52//1 51//1 225//1 217//1
f 53//1 52//1 217//1 218//1
f 53//1 218//1 219//1 66//1
f 126//13 224//13 220//13 82//13
f 66//13 219//13 223//13 105//13
f 194//13 233//13 224//13 126//13
f 190//20 234//20 230//20 157//20
f 148//20 226//20 229//20 155//20
f 153//10 154//10 222//10 221//10
f 152//10 153//10 221//10 228//10
f 154//10 150//10 227//10 222//10
f 152//10 228//10 220//10 151//10
f 157//20 230//20 227//20 150//20
f 146//1 225//1 226//1 148//1
f 251//15 246//15 247//15 252//15
f 240//16 245//16 248//16 239//16
f 242//17 238//17 237//17 241//17
f 246//18 242//18 241//18 247//18
f 245//19 236//19 235//19 248//19
f 253//20 240//20 239//20 254//20
f 236//24 244//24 250//24 235//24
f 238//13 243//13 249//13 237//13
f 197//10 234//10 254//10 239//10
f 234//11 232//11 253//11 254//11
f 183//1 216//1 252//1 247//1
f 160//1 213//1 244//1 236//1
f 172//1 160//1 236//1 245//1
f 194//1 198//1 241//1 237//1
f 165//1 172//1 245//1 240//1
f 231//14 233//14 249//14 243//14
f 216//11 214//11 251//11 252//11
f 233//1 194//1 237//1 249//1
f 198//1 183//1 247//1 241//1
f 213//14 215//14 250//14 244//14
