# Blender v2.79 (sub 0) OBJ File: ''
# www.blender.org
mtllib 914767-02-LP.mtl
o Cube_Cube.001
v 0.010245 -0.168855 -2.010648
v 0.010245 2.989109 -2.010648
v 1.025216 -0.168855 -2.010648
v 1.025216 2.989109 -2.010648
v 0.010245 -0.168855 -1.010648
v 0.010245 2.989109 -1.010648
v 1.025216 -0.168855 -1.010648
v 1.025216 2.989109 -1.010648
v 2.896665 2.989109 -2.010648
v 2.896665 -0.168855 -2.010648
v 2.896665 -0.168855 -1.010648
v 2.896665 2.989109 -1.010648
v 0.010245 -0.168855 1.000705
v 0.010245 2.989109 1.000705
v 1.025216 2.989109 1.000705
v 1.025216 -0.168855 1.000705
vn -1.0000 0.0000 0.0000
vn 0.0000 0.0000 -1.0000
vn 0.0000 -1.0000 0.0000
vn 0.0000 1.0000 0.0000
vn 1.0000 0.0000 0.0000
vn 0.0000 0.0000 1.0000
usemtl None
s off
f 5//1 6//1 2//1 1//1
f 1//2 2//2 4//2 3//2
f 7//3 16//3 13//3 5//3
f 6//4 14//4 15//4 8//4
f 4//4 2//4 6//4 8//4
f 1//3 3//3 7//3 5//3
f 3//2 4//2 9//2 10//2
f 8//5 15//5 16//5 7//5
f 10//5 9//5 12//5 11//5
f 4//4 8//4 12//4 9//4
f 7//3 3//3 10//3 11//3
f 8//6 7//6 11//6 12//6
f 16//6 15//6 14//6 13//6
f 5//1 13//1 14//1 6//1
