# Blender v2.79 (sub 0) OBJ File: '892062-07-LP.obj'
# www.blender.org
o Cylinder.003_Cylinder.004
v 3.130342 2.282729 -3.140685
v 3.130342 4.282729 -3.140685
v 3.837449 2.282729 -2.847792
v 3.837449 4.282729 -2.847792
v 4.130342 2.282729 -2.140685
v 4.130342 4.282729 -2.140685
v 3.837449 2.282729 -1.433578
v 3.837449 4.282729 -1.433578
v 3.130342 2.282729 -1.140685
v 3.130342 4.282729 -1.140685
v 2.423235 2.282729 -1.433578
v 2.423235 4.282729 -1.433578
v 2.130342 2.282729 -2.140685
v 2.130342 4.282729 -2.140685
v 2.423235 2.282729 -2.847792
v 2.423235 4.282729 -2.847792
v 3.130342 4.282729 -3.140685
v 3.837449 4.282729 -2.847792
v 4.130342 4.282729 -2.140685
v 3.837449 4.282729 -1.433578
v 3.130342 4.282729 -1.140685
v 2.423235 4.282729 -1.433578
v 2.130342 4.282729 -2.140685
v 2.423235 4.282729 -2.847792
v 3.130342 4.282729 -3.140685
v 3.837449 4.341908 -2.855117
v 4.130342 4.484776 -2.165696
v 3.837449 4.627645 -1.476275
v 3.130342 4.686822 -1.190707
v 2.423235 4.627644 -1.476275
v 2.130342 4.484776 -2.165696
v 2.423235 4.341908 -2.855117
v 3.130342 4.282729 -3.140685
v 3.837449 4.408978 -2.876698
v 4.130342 4.713771 -2.239375
v 3.837449 5.018564 -1.602053
v 3.130342 5.144813 -1.338066
v 2.423235 5.018564 -1.602053
v 2.130342 4.713771 -2.239375
v 2.423235 4.408978 -2.876698
v 3.130342 4.282729 -3.140685
v 3.837449 4.468993 -2.915748
v 4.130342 4.918674 -2.372703
v 3.837449 5.368356 -1.829657
v 3.130342 5.554620 -1.604720
v 2.423235 5.368356 -1.829657
v 2.130342 4.918674 -2.372703
v 2.423235 4.468994 -2.915748
v 3.130342 4.282729 -3.140685
v 3.837449 4.516121 -2.969404
v 4.130342 5.079577 -2.555895
v 3.837449 5.643034 -2.142385
v 3.130342 5.876425 -1.971104
v 2.423235 5.643034 -2.142385
v 2.130342 5.079577 -2.555895
v 2.423235 4.516121 -2.969404
v 3.130342 4.282729 -3.140685
v 3.837449 4.551576 -3.033670
v 4.130342 5.200630 -2.775311
v 3.837449 5.849685 -2.516954
v 3.130342 6.118531 -2.409938
v 2.423235 5.849684 -2.516954
v 2.130342 5.200630 -2.775311
v 2.423235 4.551577 -3.033670
v 3.130342 4.282729 -3.140685
v 3.837449 4.575190 -3.124775
v 4.130342 5.281253 -3.086366
v 3.837449 5.987316 -3.047957
v 3.130342 6.279777 -3.032047
v 2.423235 5.987316 -3.047957
v 2.130342 5.281253 -3.086366
v 2.423235 4.575191 -3.124775
v 3.130342 4.282729 -4.723756
v 3.837449 4.575190 -4.707846
v 4.130342 5.281253 -4.669437
v 3.837449 5.987316 -4.631028
v 3.130342 6.279777 -4.615118
v 2.423235 5.987316 -4.631028
v 2.130342 5.281253 -4.669437
v 2.423235 4.575191 -4.707846
v 3.837449 5.987316 -4.571626
v 3.130342 6.279777 -4.555716
v 3.837449 4.575190 -4.648444
v 4.130342 5.281253 -4.610035
v 2.130342 5.281253 -4.610035
v 2.423235 4.575191 -4.648444
v 2.423235 5.987316 -4.571626
v 3.130342 4.282729 -4.664353
v 3.130342 2.349396 -3.140685
v 3.837449 2.349396 -2.847792
v 4.130342 2.349396 -2.140685
v 3.837449 2.349396 -1.433578
v 3.130342 2.349396 -1.140685
v 2.423235 2.349396 -1.433578
v 2.130342 2.349396 -2.140685
v 2.423235 2.349396 -2.847792
vn 0.3827 0.0000 -0.9239
vn 0.9239 0.0000 -0.3827
vn 0.9239 0.0000 0.3827
vn 0.3827 0.0000 0.9239
vn -0.3827 0.0000 0.9239
vn -0.9239 0.0000 0.3827
vn 0.0000 0.0000 1.0000
vn -0.9239 0.0000 -0.3827
vn -0.3827 0.0000 -0.9239
vn 0.0000 -1.0000 0.0000
vn 0.3802 -0.1136 -0.9179
vn -0.9225 -0.1182 -0.3674
vn -0.3802 -0.1136 -0.9179
vn -0.9228 0.0473 0.3823
vn 0.3802 0.1136 0.9179
vn 0.9228 -0.0473 -0.3823
vn -0.9228 -0.0473 -0.3823
vn -0.3802 0.1136 0.9179
vn 0.9228 0.0473 0.3823
vn 0.9226 -0.2104 -0.3234
vn -0.3794 0.2834 0.8808
vn 0.9225 0.1182 0.3674
vn 0.3794 -0.2834 -0.8808
vn -0.3794 -0.2834 -0.8808
vn -0.9225 0.1182 0.3674
vn 0.3794 0.2834 0.8808
vn 0.9225 -0.1182 -0.3674
vn -0.3776 -0.6957 -0.6111
vn -0.9226 -0.2104 -0.3234
vn -0.3796 0.5046 0.7754
vn 0.9226 0.2104 0.3234
vn 0.3796 -0.5046 -0.7754
vn -0.3796 -0.5046 -0.7754
vn -0.9226 0.2104 0.3234
vn 0.3796 0.5046 0.7754
vn 0.9211 0.3408 0.1880
vn -0.9218 0.2913 0.2559
vn 0.3776 0.6957 0.6111
vn 0.9218 -0.2913 -0.2559
vn -0.9218 -0.2913 -0.2559
vn -0.3776 0.6957 0.6111
vn 0.9218 0.2913 0.2559
vn 0.3776 -0.6957 -0.6111
vn -0.9211 -0.3768 -0.0977
vn 0.3762 -0.8113 -0.4476
vn -0.3762 -0.8113 -0.4476
vn -0.9211 0.3408 0.1880
vn 0.3762 0.8113 0.4476
vn 0.9211 -0.3408 -0.1880
vn -0.9211 -0.3408 -0.1880
vn -0.3762 0.8113 0.4476
vn 0.3822 0.9241 0.0000
vn -0.3762 0.8969 0.2325
vn 0.9211 0.3768 0.0977
vn 0.3762 -0.8969 -0.2325
vn -0.3762 -0.8969 -0.2325
vn -0.9211 0.3768 0.0977
vn 0.3762 0.8969 0.2325
vn 0.9211 -0.3768 -0.0977
vn 0.0000 0.0543 -0.9985
vn 0.9237 -0.3832 0.0000
vn -0.9237 -0.3832 0.0000
vn -0.3822 0.9241 0.0000
vn 0.9237 0.3832 0.0000
vn 0.3822 -0.9241 0.0000
vn -0.3822 -0.9241 0.0000
vn -0.9237 0.3832 0.0000
s off
f 89//1 2//1 4//1 90//1
f 90//2 4//2 6//2 91//2
f 91//3 6//3 8//3 92//3
f 92//4 8//4 10//4 93//4
f 93//5 10//5 12//5 94//5
f 94//6 12//6 14//6 95//6
f 10//7 8//7 20//7 21//7
f 95//8 14//8 16//8 96//8
f 96//9 16//9 2//9 89//9
f 1//10 3//10 5//10 7//10 9//10 11//10 13//10 15//10
f 18//11 17//11 25//11 26//11
f 16//7 14//7 23//7 24//7
f 6//7 4//7 18//7 19//7
f 12//7 10//7 21//7 22//7
f 2//7 16//7 24//7 17//7
f 4//7 2//7 17//7 18//7
f 8//7 6//7 19//7 20//7
f 14//7 12//7 22//7 23//7
f 32//12 31//12 39//12 40//12
f 17//13 24//13 32//13 25//13
f 23//14 22//14 30//14 31//14
f 21//15 20//15 28//15 29//15
f 19//16 18//16 26//16 27//16
f 24//17 23//17 31//17 32//17
f 22//18 21//18 29//18 30//18
f 20//19 19//19 27//19 28//19
f 35//20 34//20 42//20 43//20
f 30//21 29//21 37//21 38//21
f 28//22 27//22 35//22 36//22
f 26//23 25//23 33//23 34//23
f 25//24 32//24 40//24 33//24
f 31//25 30//25 38//25 39//25
f 29//26 28//26 36//26 37//26
f 27//27 26//27 34//27 35//27
f 41//28 48//28 56//28 49//28
f 40//29 39//29 47//29 48//29
f 38//30 37//30 45//30 46//30
f 36//31 35//31 43//31 44//31
f 34//32 33//32 41//32 42//32
f 33//33 40//33 48//33 41//33
f 39//34 38//34 46//34 47//34
f 37//35 36//35 44//35 45//35
f 52//36 51//36 59//36 60//36
f 47//37 46//37 54//37 55//37
f 45//38 44//38 52//38 53//38
f 43//39 42//39 50//39 51//39
f 48//40 47//40 55//40 56//40
f 46//41 45//41 53//41 54//41
f 44//42 43//42 51//42 52//42
f 42//43 41//43 49//43 50//43
f 64//44 63//44 71//44 72//44
f 50//45 49//45 57//45 58//45
f 49//46 56//46 64//46 57//46
f 55//47 54//47 62//47 63//47
f 53//48 52//48 60//48 61//48
f 51//49 50//49 58//49 59//49
f 56//50 55//50 63//50 64//50
f 54//51 53//51 61//51 62//51
f 82//52 81//52 76//52 77//52
f 62//53 61//53 69//53 70//53
f 60//54 59//54 67//54 68//54
f 58//55 57//55 65//55 66//55
f 57//56 64//56 72//56 65//56
f 63//57 62//57 70//57 71//57
f 61//58 60//58 68//58 69//58
f 59//59 58//59 66//59 67//59
f 74//60 73//60 80//60 79//60 78//60 77//60 76//60 75//60
f 84//61 83//61 74//61 75//61
f 86//62 85//62 79//62 80//62
f 87//63 82//63 77//63 78//63
f 81//64 84//64 75//64 76//64
f 83//65 88//65 73//65 74//65
f 88//66 86//66 80//66 73//66
f 85//67 87//67 78//67 79//67
f 71//67 70//67 87//67 85//67
f 65//66 72//66 86//66 88//66
f 66//65 65//65 88//65 83//65
f 68//64 67//64 84//64 81//64
f 70//63 69//63 82//63 87//63
f 72//62 71//62 85//62 86//62
f 67//61 66//61 83//61 84//61
f 69//52 68//52 81//52 82//52
f 15//9 96//9 89//9 1//9
f 13//8 95//8 96//8 15//8
f 11//6 94//6 95//6 13//6
f 9//5 93//5 94//5 11//5
f 7//4 92//4 93//4 9//4
f 5//3 91//3 92//3 7//3
f 3//2 90//2 91//2 5//2
f 1//1 89//1 90//1 3//1
