# Blender v2.79 (sub 0) OBJ File: 'untitled.blend'
# www.blender.org
mtllib 889606_62_LP.mtl
o Cylinder
v -0.002445 2.676436 -0.219518
v -0.002445 3.064320 -0.219518
v 0.147928 2.676436 -0.157231
v 0.147928 3.064320 -0.157231
v 0.210215 2.676436 -0.006858
v 0.210215 3.064320 -0.006858
v 0.147928 2.676436 0.143516
v 0.147928 3.064320 0.143516
v -0.002445 2.676436 0.205802
v -0.002445 3.064320 0.205802
v -0.152818 2.676436 0.143516
v -0.152818 3.064320 0.143516
v -0.215104 2.676436 -0.006858
v -0.215104 3.064320 -0.006858
v -0.152818 2.676436 -0.157231
v -0.152818 3.064320 -0.157231
v -0.002445 2.676436 -0.313705
v 0.214529 2.676436 -0.223831
v 0.304402 2.676436 -0.006858
v 0.214529 2.676436 0.210116
v -0.002445 2.676436 0.299989
v -0.219418 2.676436 0.210116
v -0.309292 2.676436 -0.006858
v -0.219418 2.676436 -0.223831
v -0.002445 2.482452 -0.313705
v 0.214529 2.482452 -0.223831
v 0.304402 2.482452 -0.006858
v 0.214529 2.482452 0.210116
v -0.002445 2.482452 0.299989
v -0.219418 2.482452 0.210116
v -0.309292 2.482452 -0.006858
v -0.219418 2.482452 -0.223831
v 1.223907 2.482452 -0.006857
v -1.228740 2.482452 -0.006858
v 1.223907 0.018210 -0.006857
v -1.228740 0.018210 -0.006858
v -0.002416 0.018210 -0.006858
v -0.002416 2.015667 -1.045185
v 0.868719 2.015667 -1.176988
v 0.869267 2.015667 1.124852
v -0.002416 2.015667 1.272431
v -0.860674 2.015667 1.124852
v -0.860126 2.015667 -1.176988
v -0.002416 0.426344 -1.045185
v 0.868719 0.426344 -1.176988
v 0.869267 0.426344 1.124852
v -0.002416 0.426344 1.272431
v -0.860674 0.426344 1.124852
v -0.860126 0.426344 -1.176988
v -0.002416 2.482452 -1.045185
v 1.223907 2.482452 -1.215906
v 1.223907 2.482452 1.081386
v -0.002416 2.482452 1.272431
v -1.228740 2.482452 1.081386
v -1.228740 2.482452 -1.215906
v -0.002416 0.018210 -1.045185
v 1.223907 0.018210 -1.215906
v 1.223907 0.018210 1.081386
v -0.002416 0.018210 1.272431
v -1.228740 0.018210 1.081386
v -1.228740 0.018210 -1.215906
v -0.002416 2.015667 0.847235
v -0.002416 0.426344 0.847235
v 0.869267 2.015667 0.847235
v -0.860674 2.015667 0.847235
v 0.869267 0.426344 0.847235
v -0.860674 0.426344 0.847235
v -0.002430 0.426344 -0.802342
v -0.002430 2.015667 -0.802342
v 0.868704 2.015667 -0.802342
v -0.860140 2.015667 -0.802342
v 0.868704 0.426344 -0.802342
v -0.860140 0.426344 -0.802342
v -0.002445 3.041863 -0.219518
v 0.147928 3.041863 -0.157231
v 0.210215 3.041863 -0.006858
v 0.147928 3.041863 0.143516
v -0.002445 3.041863 0.205802
v -0.152818 3.041863 0.143516
v -0.215104 3.041863 -0.006858
v -0.152818 3.041863 -0.157231
v 0.147928 2.699018 -0.157231
v 0.210215 2.699018 -0.006858
v 0.147928 2.699018 0.143516
v -0.002445 2.699018 0.205802
v -0.152818 2.699018 0.143516
v -0.215104 2.699018 -0.006858
v -0.152818 2.699018 -0.157231
v -0.002445 2.699018 -0.219518
v -0.002445 2.482452 -0.327297
v -0.237041 2.482452 -0.241453
v -0.325524 2.482452 -0.006858
v -0.237041 2.482452 0.224784
v -0.002445 2.482452 0.316222
v 0.232151 2.482452 0.224784
v 0.320635 2.482452 -0.006858
v 0.232151 2.482452 -0.241453
v -1.228740 2.446664 1.081386
v 1.223907 2.446664 1.081386
v 1.223907 2.446664 -1.215906
v -1.228740 2.446664 -0.006858
v 1.223907 2.446664 -0.006857
v -1.228740 2.446664 -1.215906
v -0.860674 1.986723 1.124852
v 0.869267 1.986723 1.124852
v 0.868719 1.986723 -1.176988
v -0.860126 1.986723 -1.176988
v -0.002416 1.986723 0.847235
v -0.860674 1.986723 0.847235
v 0.869267 1.986723 0.847235
v -0.002430 1.986723 -0.802342
v 0.868704 1.986723 -0.802342
v -0.860140 1.986723 -0.802342
v -1.228740 0.038617 1.081386
v 1.223907 0.038617 1.081386
v 1.223907 0.038617 -1.215906
v -1.228740 0.038617 -0.006858
v -0.860674 0.442848 1.124852
v 0.869267 0.442848 1.124852
v 0.868719 0.442848 -1.176988
v -0.002416 0.442848 0.847235
v -0.860674 0.442848 0.847235
v 0.869267 0.442848 0.847235
v 0.868704 0.442848 -0.802342
v 1.223907 0.038617 -0.006857
v -1.228740 0.038617 -1.215906
v -0.860126 0.442848 -1.176988
v -0.002430 0.442848 -0.802342
v -0.860140 0.442848 -0.802342
v -0.002445 2.656059 0.299989
v 0.214529 2.656059 0.210116
v 0.304402 2.656059 -0.006858
v 0.214529 2.656059 -0.223831
v -0.219418 2.656059 -0.223831
v -0.309292 2.656059 -0.006858
v -0.219418 2.656059 0.210116
v -0.002445 2.656059 -0.313705
v 0.868706 0.426344 -0.836884
v 0.868706 2.015667 -0.836884
v -0.002429 0.426344 -0.824731
v -0.860139 2.015667 -0.836884
v -0.860139 0.426344 -0.836884
v -0.002429 2.015667 -0.824731
v -0.860139 1.986723 -0.836884
v 0.868706 1.986723 -0.836884
v -0.860139 0.442848 -0.836884
v 0.868706 0.442848 -0.836884
v 0.868717 2.015667 -1.134118
v -0.860128 0.426344 -1.134118
v -0.002418 2.015667 -1.017397
v 0.868717 0.426344 -1.134118
v -0.002418 0.426344 -1.017397
v -0.860128 2.015667 -1.134118
v -0.860128 1.986723 -1.134118
v 0.868717 1.986723 -1.134118
v -0.860128 0.442848 -1.134118
v 0.868717 0.442848 -1.134118
v -0.002416 2.015667 0.871845
v 0.869267 2.015667 0.863303
v -0.860674 0.426344 0.863303
v -0.860674 2.015667 0.863303
v -0.002416 0.426344 0.871845
v 0.869267 0.426344 0.863303
v 0.869267 1.986723 0.863303
v -0.860674 1.986723 0.863303
v 0.869267 0.442848 0.863303
v -0.860674 0.442848 0.863303
v 0.869267 2.015667 1.107506
v -0.860674 2.015667 1.107506
v 0.869267 0.426344 1.107506
v -0.002416 2.015667 1.245863
v -0.860674 0.426344 1.107506
v -0.002416 0.426344 1.245863
v 0.869267 1.986723 1.107506
v -0.860674 1.986723 1.107506
v 0.869267 0.442848 1.107506
v -0.860674 0.442848 1.107506
vn 0.3827 0.0000 -0.9239
vn 0.9239 0.0000 -0.3827
vn 0.9239 0.0000 0.3827
vn 0.3827 0.0000 0.9239
vn -0.3827 0.0000 0.9239
vn -0.9239 0.0000 0.3827
vn -0.9239 0.0000 -0.3827
vn -0.3827 0.0000 -0.9239
vn 0.0000 1.0000 0.0000
vn 0.0000 -1.0000 0.0000
vn 1.0000 0.0000 0.0000
vn -1.0000 0.0000 0.0000
vn -0.1427 0.0131 -0.9897
vn 0.1593 -0.0146 0.9871
vn -0.1603 -0.0173 0.9869
vn 0.1436 0.0155 -0.9895
vn -0.1427 -0.0149 -0.9896
vn 0.1593 0.0167 0.9871
vn -0.1603 0.0197 0.9869
vn 0.1436 -0.0177 -0.9895
vn -0.1173 0.0000 0.9931
vn 0.1217 0.0000 0.9926
vn -0.1089 0.0000 -0.9941
vn 0.1050 0.0000 -0.9945
vn 0.0000 0.0000 1.0000
vn 0.0000 0.0000 -1.0000
usemtl None
s off
f 74//1 2//1 4//1 75//1
f 75//2 4//2 6//2 76//2
f 76//3 6//3 8//3 77//3
f 77//4 8//4 10//4 78//4
f 78//5 10//5 12//5 79//5
f 79//6 12//6 14//6 80//6
f 80//7 14//7 16//7 81//7
f 81//8 16//8 2//8 74//8
f 11//9 13//9 23//9 22//9
f 131//4 130//4 29//4 28//4
f 7//9 9//9 21//9 20//9
f 13//9 15//9 24//9 23//9
f 3//9 5//9 19//9 18//9
f 9//9 11//9 22//9 21//9
f 15//9 1//9 17//9 24//9
f 1//9 3//9 18//9 17//9
f 5//9 7//9 20//9 19//9
f 91//9 90//9 50//9 55//9
f 133//2 132//2 27//2 26//2
f 135//7 134//7 32//7 31//7
f 130//5 136//5 30//5 29//5
f 132//3 131//3 28//3 27//3
f 137//1 133//1 26//1 25//1
f 134//8 137//8 25//8 32//8
f 136//6 135//6 31//6 30//6
f 93//9 92//9 34//9 54//9
f 95//9 94//9 53//9 52//9
f 97//9 96//9 33//9 51//9
f 92//9 91//9 55//9 34//9
f 94//9 93//9 54//9 53//9
f 96//9 95//9 52//9 33//9
f 90//9 97//9 51//9 50//9
f 37//10 35//10 58//10 59//10
f 125//11 115//11 58//11 35//11
f 114//12 117//12 36//12 60//12
f 116//11 125//11 35//11 57//11
f 4//9 2//9 16//9 14//9 12//9 10//9 8//9 6//9
f 36//10 37//10 59//10 60//10
f 61//10 56//10 37//10 36//10
f 56//10 57//10 35//10 37//10
f 117//12 126//12 61//12 36//12
f 167//11 160//11 67//11 122//11
f 138//9 140//9 68//9 72//9
f 159//10 158//10 62//10 64//10
f 147//12 138//12 72//12 124//12
f 39//13 38//13 50//13 51//13
f 41//14 40//14 52//14 53//14
f 42//15 41//15 53//15 54//15
f 38//16 43//16 55//16 50//16
f 44//17 45//17 57//17 56//17
f 46//18 47//18 59//18 58//18
f 47//19 48//19 60//19 59//19
f 49//20 44//20 56//20 61//20
f 104//21 42//21 54//21 98//21
f 119//22 46//22 58//22 115//22
f 106//23 39//23 51//23 100//23
f 127//24 49//24 61//24 126//24
f 108//25 62//25 65//25 109//25
f 123//25 121//25 63//25 66//25
f 160//9 162//9 63//9 67//9
f 158//10 161//10 65//10 62//10
f 164//12 159//12 64//12 110//12
f 162//9 163//9 66//9 63//9
f 111//26 69//26 70//26 112//26
f 129//26 128//26 68//26 73//26
f 144//11 141//11 71//11 113//11
f 143//10 139//10 70//10 69//10
f 140//9 142//9 73//9 68//9
f 141//10 143//10 69//10 71//10
f 88//8 81//8 74//8 89//8
f 87//7 80//7 81//7 88//7
f 86//6 79//6 80//6 87//6
f 85//5 78//5 79//5 86//5
f 84//4 77//4 78//4 85//4
f 83//3 76//3 77//3 84//3
f 82//2 75//2 76//2 83//2
f 89//1 74//1 75//1 82//1
f 1//1 89//1 82//1 3//1
f 3//2 82//2 83//2 5//2
f 5//3 83//3 84//3 7//3
f 7//4 84//4 85//4 9//4
f 9//5 85//5 86//5 11//5
f 11//6 86//6 87//6 13//6
f 13//7 87//7 88//7 15//7
f 15//8 88//8 89//8 1//8
f 25//9 26//9 97//9 90//9
f 27//9 28//9 95//9 96//9
f 29//9 30//9 93//9 94//9
f 31//9 32//9 91//9 92//9
f 26//9 27//9 96//9 97//9
f 28//9 29//9 94//9 95//9
f 30//9 31//9 92//9 93//9
f 32//9 25//9 90//9 91//9
f 146//11 144//11 113//11 129//11
f 71//26 69//26 111//26 113//26
f 128//26 111//26 112//26 124//26
f 166//12 164//12 110//12 123//12
f 64//25 62//25 108//25 110//25
f 121//25 108//25 109//25 122//25
f 43//24 107//24 103//24 55//24
f 120//23 106//23 100//23 116//23
f 40//22 105//22 99//22 52//22
f 118//21 104//21 98//21 114//21
f 139//12 145//12 112//12 70//12
f 161//11 165//11 109//11 65//11
f 34//12 55//12 103//12 101//12
f 51//11 33//11 102//11 100//11
f 54//12 34//12 101//12 98//12
f 33//11 52//11 99//11 102//11
f 48//21 118//21 114//21 60//21
f 45//23 120//23 116//23 57//23
f 63//25 121//25 122//25 67//25
f 163//12 166//12 123//12 66//12
f 68//26 128//26 124//26 72//26
f 142//11 146//11 129//11 73//11
f 113//26 111//26 128//26 129//26
f 110//25 108//25 121//25 123//25
f 107//24 127//24 126//24 103//24
f 105//22 119//22 115//22 99//22
f 145//12 147//12 124//12 112//12
f 165//11 167//11 122//11 109//11
f 101//12 103//12 126//12 117//12
f 100//11 102//11 125//11 116//11
f 98//12 101//12 117//12 114//12
f 102//11 99//11 115//11 125//11
f 22//6 23//6 135//6 136//6
f 24//8 17//8 137//8 134//8
f 17//1 18//1 133//1 137//1
f 19//3 20//3 131//3 132//3
f 21//5 22//5 136//5 130//5
f 23//7 24//7 134//7 135//7
f 18//2 19//2 132//2 133//2
f 20//4 21//4 130//4 131//4
f 155//12 157//12 147//12 145//12
f 149//11 156//11 146//11 142//11
f 148//12 155//12 145//12 139//12
f 156//11 154//11 144//11 146//11
f 153//10 150//10 143//10 141//10
f 152//9 149//9 142//9 140//9
f 150//10 148//10 139//10 143//10
f 154//11 153//11 141//11 144//11
f 157//12 151//12 138//12 147//12
f 151//9 152//9 140//9 138//9
f 45//9 44//9 152//9 151//9
f 120//12 45//12 151//12 157//12
f 107//11 43//11 153//11 154//11
f 38//10 39//10 148//10 150//10
f 44//9 49//9 149//9 152//9
f 43//10 38//10 150//10 153//10
f 127//11 107//11 154//11 156//11
f 39//12 106//12 155//12 148//12
f 49//11 127//11 156//11 149//11
f 106//12 120//12 157//12 155//12
f 175//11 177//11 167//11 165//11
f 170//12 176//12 166//12 163//12
f 169//11 175//11 165//11 161//11
f 176//12 174//12 164//12 166//12
f 173//9 170//9 163//9 162//9
f 174//12 168//12 159//12 164//12
f 171//10 169//10 161//10 158//10
f 172//9 173//9 162//9 160//9
f 168//10 171//10 158//10 159//10
f 177//11 172//11 160//11 167//11
f 118//11 48//11 172//11 177//11
f 40//10 41//10 171//10 168//10
f 48//9 47//9 173//9 172//9
f 41//10 42//10 169//10 171//10
f 105//12 40//12 168//12 174//12
f 47//9 46//9 170//9 173//9
f 119//12 105//12 174//12 176//12
f 42//11 104//11 175//11 169//11
f 46//12 119//12 176//12 170//12
f 104//11 118//11 177//11 175//11
