# Blender v2.79 (sub 0) OBJ File: 'BOCCETTA ESAME.blend'
# www.blender.org
o Circle
v 0.166650 0.303555 0.107120
v 0.138243 0.303555 0.118887
v 0.126477 0.303555 0.147293
v 0.138243 0.303555 0.175700
v 0.166650 0.303555 0.187467
v 0.195057 0.303555 0.175700
v 0.206823 0.303555 0.147293
v 0.195057 0.303555 0.118887
v 0.166650 0.303555 0.147293
v 0.166650 0.254274 0.107120
v 0.138243 0.254274 0.118887
v 0.126477 0.254274 0.147293
v 0.138243 0.254274 0.175700
v 0.166650 0.254274 0.187467
v 0.195057 0.254274 0.175700
v 0.206823 0.254274 0.147293
v 0.195057 0.254274 0.118887
v 0.166650 0.254274 0.119173
v 0.146766 0.254274 0.127410
v 0.138530 0.254274 0.147293
v 0.146766 0.254274 0.167177
v 0.166650 0.254274 0.175414
v 0.186534 0.254274 0.167177
v 0.194770 0.254274 0.147293
v 0.186534 0.254274 0.127410
v 0.166650 0.238899 0.119173
v 0.146766 0.238899 0.127410
v 0.138530 0.238899 0.147293
v 0.146766 0.238899 0.167177
v 0.166650 0.238899 0.175414
v 0.186534 0.238899 0.167177
v 0.194770 0.238899 0.147293
v 0.186534 0.238899 0.127410
v 0.166650 0.238899 0.094740
v 0.114097 0.238899 0.094740
v 0.114097 0.238899 0.147293
v 0.114097 0.238899 0.199847
v 0.166650 0.238899 0.199847
v 0.219203 0.238899 0.199847
v 0.219203 0.238899 0.147293
v 0.219203 0.238899 0.094740
v 0.166650 0.000458 0.094740
v 0.114097 0.000458 0.094740
v 0.114097 0.000458 0.147293
v 0.114097 0.000458 0.199847
v 0.166650 0.000458 0.199847
v 0.219203 0.000458 0.199847
v 0.219203 0.000458 0.147293
v 0.219203 0.000458 0.094740
v 0.126477 0.256083 0.147293
v 0.126477 0.301747 0.147293
v 0.138243 0.301747 0.118887
v 0.138243 0.256083 0.118887
v 0.195057 0.256083 0.118887
v 0.195057 0.301747 0.118887
v 0.206823 0.301747 0.147293
v 0.206823 0.256083 0.147293
v 0.195057 0.256083 0.175700
v 0.195057 0.301747 0.175700
v 0.166650 0.301747 0.187467
v 0.166650 0.256083 0.187467
v 0.138243 0.256083 0.175700
v 0.138243 0.301747 0.175700
v 0.166650 0.301747 0.107120
v 0.166650 0.256083 0.107120
v 0.114097 0.238899 0.042357
v 0.166650 0.238899 0.044231
v 0.166650 0.238899 0.250356
v 0.114097 0.238899 0.252230
v 0.219203 0.238899 0.252230
v 0.219203 0.238899 0.042357
v 0.114097 0.000458 0.042357
v 0.166650 0.000458 0.044231
v 0.166650 0.000458 0.250356
v 0.114097 0.000458 0.252230
v 0.219203 0.000458 0.252230
v 0.219203 0.000458 0.042357
v 0.045321 0.238899 0.147293
v 0.045321 0.238899 0.094740
v 0.045321 0.238899 0.199847
v 0.287980 0.238899 0.147293
v 0.287980 0.238899 0.199847
v 0.287980 0.238899 0.094740
v 0.045321 0.000458 0.147293
v 0.045321 0.000458 0.094740
v 0.045321 0.000458 0.199847
v 0.287980 0.000458 0.147293
v 0.287980 0.000458 0.199847
v 0.287980 0.000458 0.094740
v 0.287980 0.238899 0.026224
v 0.287980 0.000458 0.026224
v 0.287980 0.238899 0.268363
v 0.287980 0.000458 0.268363
v 0.045321 0.238899 0.268363
v 0.045321 0.000458 0.268363
v 0.045321 0.238899 0.026224
v 0.045321 0.000458 0.026224
v 0.166650 0.008232 0.044231
v 0.166650 0.231125 0.044231
v 0.219203 0.231125 0.042357
v 0.219203 0.008232 0.042357
v 0.219203 0.231125 0.252230
v 0.219203 0.008232 0.252230
v 0.166650 0.008232 0.250356
v 0.166650 0.231125 0.250356
v 0.114097 0.231125 0.252230
v 0.114097 0.008232 0.252230
v 0.114097 0.231125 0.042357
v 0.114097 0.008232 0.042357
v 0.287980 0.231125 0.094740
v 0.287980 0.008232 0.094740
v 0.287980 0.008232 0.147293
v 0.287980 0.231125 0.147293
v 0.287980 0.231125 0.199847
v 0.287980 0.008232 0.199847
v 0.045321 0.231125 0.199847
v 0.045321 0.008232 0.199847
v 0.045321 0.008232 0.147293
v 0.045321 0.231125 0.147293
v 0.045321 0.231125 0.094740
v 0.045321 0.008232 0.094740
v 0.287980 0.231125 0.026224
v 0.287980 0.008232 0.026224
v 0.287980 0.231125 0.268363
v 0.287980 0.008232 0.268363
v 0.045321 0.231125 0.268363
v 0.045321 0.008232 0.268363
v 0.045321 0.231125 0.026224
v 0.045321 0.008232 0.026224
v 0.270069 0.238899 0.147293
v 0.270069 0.238899 0.199847
v 0.270069 0.000458 0.030425
v 0.270069 0.000458 0.094740
v 0.270069 0.238899 0.094740
v 0.270069 0.000458 0.147293
v 0.270069 0.000458 0.199847
v 0.270069 0.238899 0.030425
v 0.270069 0.000458 0.264162
v 0.270069 0.238899 0.264162
v 0.270069 0.231125 0.264162
v 0.270069 0.008232 0.264162
v 0.270069 0.008232 0.030425
v 0.270069 0.231125 0.030425
v 0.061983 0.238899 0.264455
v 0.061983 0.238899 0.199847
v 0.061983 0.000458 0.199847
v 0.061983 0.000458 0.264455
v 0.061983 0.238899 0.030132
v 0.061983 0.238899 0.094740
v 0.061983 0.000458 0.094740
v 0.061983 0.000458 0.030132
v 0.061983 0.238899 0.147293
v 0.061983 0.000458 0.147293
v 0.061983 0.231125 0.030132
v 0.061983 0.008232 0.030132
v 0.061983 0.008232 0.264455
v 0.061983 0.231125 0.264455
v 0.166650 0.041250 0.044231
v 0.166650 0.191720 0.044231
v 0.219203 0.191720 0.042357
v 0.219203 0.041250 0.042357
v 0.219203 0.191720 0.252230
v 0.219203 0.041250 0.252230
v 0.166650 0.041250 0.250356
v 0.166650 0.191720 0.250356
v 0.114097 0.191720 0.252230
v 0.114097 0.041250 0.252230
v 0.114097 0.191720 0.042357
v 0.114097 0.041250 0.042357
v 0.287980 0.191720 0.094740
v 0.287980 0.041250 0.094740
v 0.287980 0.041250 0.147293
v 0.287980 0.191720 0.147293
v 0.287980 0.191720 0.199847
v 0.287980 0.041250 0.199847
v 0.045321 0.191720 0.199847
v 0.045321 0.041250 0.199847
v 0.045321 0.041250 0.147293
v 0.045321 0.191720 0.147293
v 0.045321 0.191720 0.094740
v 0.045321 0.041250 0.094740
v 0.287980 0.191720 0.026224
v 0.287980 0.041250 0.026224
v 0.287980 0.191720 0.268363
v 0.287980 0.041250 0.268363
v 0.045321 0.191720 0.268363
v 0.045321 0.041250 0.268363
v 0.045321 0.191720 0.026224
v 0.045321 0.041250 0.026224
v 0.270069 0.191720 0.030425
v 0.270069 0.041250 0.030425
v 0.270069 0.041250 0.264162
v 0.270069 0.191720 0.264162
v 0.061983 0.191720 0.264455
v 0.061983 0.041250 0.264455
v 0.061983 0.041250 0.030132
v 0.061983 0.191720 0.030132
v 0.083110 0.238899 0.259499
v 0.083110 0.000458 0.199847
v 0.083110 0.238899 0.094740
v 0.083110 0.000458 0.035088
v 0.083110 0.238899 0.147293
v 0.083110 0.238899 0.199847
v 0.083110 0.000458 0.259499
v 0.083110 0.238899 0.035088
v 0.083110 0.000458 0.094740
v 0.083110 0.000458 0.147293
v 0.083110 0.231125 0.035088
v 0.083110 0.008232 0.035088
v 0.083110 0.008232 0.259499
v 0.083110 0.231125 0.259499
v 0.083110 0.191720 0.035088
v 0.083110 0.041250 0.035088
v 0.083110 0.041250 0.259499
v 0.083110 0.191720 0.259499
v 0.249651 0.238899 0.147293
v 0.249651 0.000458 0.094740
v 0.249651 0.238899 0.094740
v 0.249651 0.000458 0.199847
v 0.249651 0.238899 0.259372
v 0.249651 0.238899 0.199847
v 0.249651 0.000458 0.035215
v 0.249651 0.000458 0.147293
v 0.249651 0.238899 0.035215
v 0.249651 0.000458 0.259372
v 0.249651 0.231125 0.259372
v 0.249651 0.008232 0.259372
v 0.249651 0.008232 0.035215
v 0.249651 0.231125 0.035215
v 0.249651 0.191720 0.259372
v 0.249651 0.041250 0.259372
v 0.249651 0.041250 0.035215
v 0.249651 0.191720 0.035215
v 0.166650 0.041250 0.024204
v 0.166650 0.191720 0.024204
v 0.219203 0.191720 0.021967
v 0.219203 0.041250 0.021967
v 0.219203 0.191720 0.272620
v 0.219203 0.041250 0.272620
v 0.166650 0.041250 0.270383
v 0.166650 0.191720 0.270383
v 0.114097 0.191720 0.272620
v 0.114097 0.041250 0.272620
v 0.114097 0.191720 0.021967
v 0.114097 0.041250 0.021967
v 0.083110 0.191720 0.013285
v 0.083110 0.041250 0.013285
v 0.083110 0.041250 0.281302
v 0.083110 0.191720 0.281302
v 0.249651 0.191720 0.281151
v 0.249651 0.041250 0.281151
v 0.249651 0.041250 0.013436
v 0.249651 0.191720 0.013436
v 0.249651 0.191720 0.024325
v 0.249651 0.041250 0.024325
v 0.083110 0.191720 0.024187
v 0.083110 0.041250 0.024187
v 0.166650 0.191720 0.034217
v 0.114097 0.191720 0.032162
v 0.114097 0.041250 0.032162
v 0.166650 0.041250 0.034217
v 0.219203 0.191720 0.032162
v 0.219203 0.041250 0.032162
v 0.166650 0.041250 0.260370
v 0.083110 0.191720 0.270400
v 0.166650 0.191720 0.260370
v 0.114097 0.191720 0.262425
v 0.114097 0.041250 0.262425
v 0.083110 0.041250 0.270400
v 0.219203 0.191720 0.262425
v 0.249651 0.191720 0.270262
v 0.249651 0.041250 0.270262
v 0.219203 0.041250 0.262425
v 0.086984 0.238899 0.258590
v 0.086984 0.000458 0.199847
v 0.086984 0.238899 0.094740
v 0.086984 0.000458 0.035997
v 0.086984 0.238899 0.147293
v 0.086984 0.238899 0.199847
v 0.086984 0.000458 0.258590
v 0.086984 0.238899 0.035997
v 0.086984 0.000458 0.094740
v 0.086984 0.000458 0.147293
v 0.086984 0.231125 0.035997
v 0.086984 0.008232 0.035997
v 0.086984 0.008232 0.258590
v 0.086984 0.231125 0.258590
v 0.086984 0.191720 0.035997
v 0.086984 0.041250 0.035997
v 0.086984 0.041250 0.258590
v 0.086984 0.191720 0.258590
v 0.086984 0.191720 0.014370
v 0.086984 0.041250 0.014370
v 0.086984 0.041250 0.280217
v 0.086984 0.191720 0.280217
v 0.086984 0.041250 0.025184
v 0.086984 0.191720 0.025184
v 0.086984 0.041250 0.269403
v 0.086984 0.191720 0.269403
v 0.245664 0.238899 0.147293
v 0.245664 0.000458 0.094740
v 0.245664 0.238899 0.094740
v 0.245664 0.000458 0.199847
v 0.245664 0.238899 0.258437
v 0.245664 0.238899 0.199847
v 0.245664 0.000458 0.036150
v 0.245664 0.000458 0.147293
v 0.245664 0.238899 0.036150
v 0.245664 0.000458 0.258437
v 0.245664 0.231125 0.258437
v 0.245664 0.008232 0.258437
v 0.245664 0.008232 0.036150
v 0.245664 0.231125 0.036150
v 0.245664 0.191720 0.258437
v 0.245664 0.041250 0.258437
v 0.245664 0.041250 0.036150
v 0.245664 0.191720 0.036150
v 0.245664 0.191720 0.280034
v 0.245664 0.041250 0.280034
v 0.245664 0.041250 0.014553
v 0.245664 0.191720 0.014553
v 0.245664 0.191720 0.025352
v 0.245664 0.041250 0.025352
v 0.245664 0.041250 0.269235
v 0.245664 0.191720 0.269235
v 0.166650 0.000458 0.147293
v 0.287980 0.187860 0.094740
v 0.287980 0.045109 0.094740
v 0.287980 0.045109 0.147293
v 0.287980 0.187860 0.147293
v 0.287980 0.187860 0.199847
v 0.287980 0.045109 0.199847
v 0.045321 0.187860 0.199847
v 0.045321 0.045109 0.199847
v 0.045321 0.045109 0.147293
v 0.045321 0.187860 0.147293
v 0.045321 0.187860 0.094740
v 0.045321 0.045109 0.094740
v 0.287980 0.187860 0.026224
v 0.287980 0.045109 0.026224
v 0.287980 0.187860 0.268363
v 0.287980 0.045109 0.268363
v 0.045321 0.187860 0.268363
v 0.045321 0.045109 0.268363
v 0.045321 0.187860 0.026224
v 0.045321 0.045109 0.026224
v 0.270069 0.187860 0.030425
v 0.270069 0.045109 0.030425
v 0.270069 0.045109 0.264162
v 0.270069 0.187860 0.264162
v 0.061983 0.187860 0.264455
v 0.061983 0.045109 0.264455
v 0.061983 0.045109 0.030132
v 0.061983 0.187860 0.030132
v 0.083110 0.187860 0.259499
v 0.083110 0.045109 0.259499
v 0.083110 0.045109 0.035088
v 0.083110 0.187860 0.035088
v 0.249651 0.187860 0.035215
v 0.249651 0.045109 0.035215
v 0.249651 0.045109 0.259372
v 0.249651 0.187860 0.259372
v 0.166650 0.045109 0.024204
v 0.166650 0.187860 0.024204
v 0.219203 0.187860 0.021967
v 0.219203 0.045109 0.021967
v 0.219203 0.187860 0.272620
v 0.219203 0.045109 0.272620
v 0.166650 0.045109 0.270383
v 0.166650 0.187860 0.270383
v 0.114097 0.187860 0.272620
v 0.114097 0.045109 0.272620
v 0.114097 0.187860 0.021967
v 0.114097 0.045109 0.021967
v 0.083110 0.187860 0.281302
v 0.083110 0.045109 0.281302
v 0.083110 0.045109 0.013285
v 0.083110 0.187860 0.013285
v 0.249651 0.187860 0.013436
v 0.249651 0.045109 0.013436
v 0.249651 0.045109 0.281151
v 0.249651 0.187860 0.281151
v 0.083110 0.187860 0.024187
v 0.083110 0.045109 0.024187
v 0.249651 0.045109 0.024325
v 0.249651 0.187860 0.024325
v 0.083110 0.045109 0.270400
v 0.083110 0.187860 0.270400
v 0.249651 0.187860 0.270262
v 0.249651 0.045109 0.270262
v 0.086984 0.045109 0.014370
v 0.086984 0.187860 0.014370
v 0.086984 0.187860 0.280217
v 0.086984 0.045109 0.280217
v 0.245664 0.045109 0.280034
v 0.245664 0.187860 0.280034
v 0.245664 0.187860 0.014553
v 0.245664 0.045109 0.014553
vn 0.0000 1.0000 0.0000
vn -0.9239 0.0000 -0.3827
vn 0.9239 0.0000 -0.3827
vn 0.3827 0.0000 0.9239
vn -0.9239 0.0000 0.3827
vn -0.3827 0.0000 -0.9239
vn 0.3827 0.0000 -0.9239
vn 0.9239 0.0000 0.3827
vn -0.3827 0.0000 0.9239
vn 0.0000 -1.0000 0.0000
vn -0.2284 0.0000 -0.9736
vn -0.0356 0.0000 -0.9994
vn 0.0356 0.0000 0.9994
vn -0.0356 0.0000 0.9994
vn 0.0356 0.0000 -0.9994
vn 1.0000 0.0000 0.0000
vn -1.0000 0.0000 0.0000
vn -0.2284 0.0000 0.9736
vn 0.2284 0.0000 0.9736
vn 0.2284 0.0000 -0.9736
vn -0.0425 0.0000 -0.9991
vn 0.0425 0.0000 0.9991
vn -0.0425 0.0000 0.9991
vn 0.0425 0.0000 -0.9991
vn 0.2698 0.0000 0.9629
vn 0.2698 0.0000 -0.9629
vn -0.2698 0.0000 -0.9629
vn -0.2698 0.0000 0.9629
s off
f 9//1 5//1 6//1 7//1
f 1//1 9//1 7//1 8//1
f 3//1 4//1 5//1 9//1
f 2//1 3//1 9//1 1//1
f 50//2 53//2 11//2 12//2
f 54//3 57//3 16//3 17//3
f 58//4 61//4 14//4 15//4
f 62//5 50//5 12//5 13//5
f 53//6 65//6 10//6 11//6
f 65//7 54//7 17//7 10//7
f 57//8 58//8 15//8 16//8
f 61//9 62//9 13//9 14//9
f 11//10 10//10 18//10 19//10
f 10//10 17//10 25//10 18//10
f 16//10 15//10 23//10 24//10
f 14//10 13//10 21//10 22//10
f 12//10 11//10 19//10 20//10
f 17//10 16//10 24//10 25//10
f 15//10 14//10 22//10 23//10
f 13//10 12//10 20//10 21//10
f 25//3 24//3 32//3 33//3
f 23//4 22//4 30//4 31//4
f 21//5 20//5 28//5 29//5
f 19//6 18//6 26//6 27//6
f 18//7 25//7 33//7 26//7
f 24//8 23//8 31//8 32//8
f 22//9 21//9 29//9 30//9
f 20//2 19//2 27//2 28//2
f 28//1 27//1 35//1 36//1
f 33//1 32//1 40//1 41//1
f 31//1 30//1 38//1 39//1
f 29//1 28//1 36//1 37//1
f 27//1 26//1 34//1 35//1
f 26//1 33//1 41//1 34//1
f 32//1 31//1 39//1 40//1
f 30//1 29//1 37//1 38//1
f 42//10 43//10 72//10 73//10
f 143//11 137//11 90//11 122//11
f 45//10 46//10 74//10 75//10
f 136//10 135//10 87//10 88//10
f 134//1 130//1 81//1 83//1
f 133//10 132//10 91//10 89//10
f 149//1 148//1 96//1 79//1
f 130//1 131//1 82//1 81//1
f 5//9 4//9 63//9 60//9
f 60//9 63//9 62//9 61//9
f 7//8 6//8 59//8 56//8
f 56//8 59//8 58//8 57//8
f 1//7 8//7 55//7 64//7
f 64//7 55//7 54//7 65//7
f 2//6 1//6 64//6 52//6
f 52//6 64//6 65//6 53//6
f 4//5 3//5 51//5 63//5
f 63//5 51//5 50//5 62//5
f 6//4 5//4 60//4 59//4
f 59//4 60//4 61//4 58//4
f 8//3 7//3 56//3 55//3
f 55//3 56//3 57//3 54//3
f 3//2 2//2 52//2 51//2
f 51//2 52//2 53//2 50//2
f 98//12 101//12 77//12 73//12
f 104//13 107//13 75//13 74//13
f 103//14 104//14 74//14 76//14
f 109//15 98//15 73//15 72//15
f 49//10 42//10 73//10 77//10
f 46//10 47//10 76//10 74//10
f 38//1 37//1 69//1 68//1
f 144//1 145//1 80//1 94//1
f 35//1 34//1 67//1 66//1
f 34//1 41//1 71//1 67//1
f 146//10 147//10 95//10 86//10
f 39//1 38//1 68//1 70//1
f 112//16 115//16 88//16 87//16
f 118//17 121//17 85//17 84//17
f 111//16 112//16 87//16 89//16
f 117//17 86//17 95//17 127//17
f 117//17 118//17 84//17 86//17
f 111//16 89//16 91//16 123//16
f 114//16 82//16 92//16 124//16
f 120//17 79//17 96//17 128//17
f 151//10 150//10 85//10 97//10
f 135//10 133//10 89//10 87//10
f 141//18 138//18 93//18 125//18
f 152//1 149//1 79//1 78//1
f 138//10 136//10 88//10 93//10
f 137//1 134//1 83//1 90//1
f 145//1 152//1 78//1 80//1
f 157//19 144//19 94//19 126//19
f 150//10 153//10 84//10 85//10
f 155//20 151//20 97//20 129//20
f 153//10 146//10 86//10 84//10
f 131//1 139//1 92//1 82//1
f 148//20 154//20 128//20 96//20
f 196//20 155//20 129//20 189//20
f 147//19 156//19 127//19 95//19
f 194//19 157//19 126//19 186//19
f 139//18 140//18 124//18 92//18
f 192//18 141//18 125//18 185//18
f 85//17 121//17 129//17 97//17
f 180//17 120//17 128//17 188//17
f 88//16 115//16 125//16 93//16
f 174//16 114//16 124//16 184//16
f 83//16 110//16 122//16 90//16
f 171//16 111//16 123//16 183//16
f 80//17 78//17 119//17 116//17
f 177//17 178//17 118//17 117//17
f 80//17 116//17 126//17 94//17
f 177//17 117//17 127//17 187//17
f 83//16 81//16 113//16 110//16
f 171//16 172//16 112//16 111//16
f 78//17 79//17 120//17 119//17
f 178//17 181//17 121//17 118//17
f 81//16 82//16 114//16 113//16
f 172//16 175//16 115//16 112//16
f 66//15 67//15 99//15 108//15
f 169//15 158//15 98//15 109//15
f 70//14 68//14 105//14 102//14
f 163//14 164//14 104//14 103//14
f 68//13 69//13 106//13 105//13
f 164//13 167//13 107//13 104//13
f 67//12 71//12 100//12 99//12
f 158//12 161//12 101//12 98//12
f 132//11 142//11 123//11 91//11
f 190//11 143//11 122//11 182//11
f 233//11 229//11 143//11 190//11
f 222//11 228//11 142//11 132//11
f 231//18 227//18 141//18 192//18
f 220//18 226//18 140//18 139//18
f 221//1 220//1 139//1 131//1
f 224//1 218//1 134//1 137//1
f 225//10 219//10 136//10 138//10
f 227//18 225//18 138//18 141//18
f 223//10 217//10 133//10 135//10
f 216//1 221//1 131//1 130//1
f 217//10 222//10 132//10 133//10
f 218//1 216//1 130//1 134//1
f 219//10 223//10 135//10 136//10
f 229//11 224//11 137//11 143//11
f 215//19 211//19 157//19 194//19
f 204//19 210//19 156//19 147//19
f 213//20 209//20 155//20 196//20
f 205//20 208//20 154//20 148//20
f 207//10 199//10 146//10 153//10
f 209//20 201//20 151//20 155//20
f 206//10 207//10 153//10 150//10
f 211//19 198//19 144//19 157//19
f 203//1 202//1 152//1 145//1
f 202//1 200//1 149//1 152//1
f 201//10 206//10 150//10 151//10
f 199//10 204//10 147//10 146//10
f 198//1 203//1 145//1 144//1
f 200//1 205//1 148//1 149//1
f 208//20 212//20 197//20 154//20
f 357//20 213//20 196//20 353//20
f 210//19 214//19 195//19 156//19
f 355//19 215//19 194//19 351//19
f 226//18 230//18 193//18 140//18
f 361//18 231//18 192//18 349//18
f 228//11 232//11 191//11 142//11
f 359//11 233//11 190//11 347//11
f 142//11 191//11 183//11 123//11
f 347//11 190//11 182//11 339//11
f 99//12 100//12 160//12 159//12
f 264//10 273//10 239//10 240//10
f 105//13 106//13 166//13 165//13
f 389//16 271//16 250//16 382//16
f 102//14 105//14 165//14 162//14
f 270//1 266//1 241//1 238//1
f 108//15 99//15 159//15 168//15
f 387//17 269//17 248//17 376//17
f 113//16 114//16 174//16 173//16
f 329//16 332//16 175//16 172//16
f 119//17 120//17 180//17 179//17
f 335//17 338//17 181//17 178//17
f 110//16 113//16 173//16 170//16
f 328//16 329//16 172//16 171//16
f 116//17 176//17 186//17 126//17
f 334//17 177//17 187//17 344//17
f 116//17 119//17 179//17 176//17
f 334//17 335//17 178//17 177//17
f 110//16 170//16 182//16 122//16
f 328//16 171//16 183//16 340//16
f 115//16 175//16 185//16 125//16
f 331//16 174//16 184//16 341//16
f 121//17 181//17 189//17 129//17
f 337//17 180//17 188//17 345//17
f 140//18 193//18 184//18 124//18
f 349//18 192//18 185//18 342//18
f 156//19 195//19 187//19 127//19
f 351//19 194//19 186//19 343//19
f 154//20 197//20 188//20 128//20
f 353//20 196//20 189//20 346//20
f 268//10 264//10 240//10 243//10
f 286//19 290//19 214//19 210//19
f 299//1 265//1 249//1 295//1
f 284//20 288//20 212//20 208//20
f 276//1 281//1 205//1 200//1
f 274//1 279//1 203//1 198//1
f 275//10 280//10 204//10 199//10
f 277//10 282//10 206//10 201//10
f 278//1 276//1 200//1 202//1
f 279//1 278//1 202//1 203//1
f 287//19 274//19 198//19 211//19
f 282//10 283//10 207//10 206//10
f 285//20 277//20 201//20 209//20
f 283//10 275//10 199//10 207//10
f 281//20 284//20 208//20 205//20
f 289//20 285//20 209//20 213//20
f 280//19 286//19 210//19 204//19
f 291//19 287//19 211//19 215//19
f 385//16 255//16 252//16 380//16
f 312//11 316//11 232//11 228//11
f 266//1 267//1 242//1 241//1
f 310//18 314//18 230//18 226//18
f 313//11 308//11 224//11 229//11
f 303//10 307//10 223//10 219//10
f 302//1 300//1 216//1 218//1
f 301//10 306//10 222//10 217//10
f 300//1 305//1 221//1 216//1
f 307//10 301//10 217//10 223//10
f 311//18 309//18 225//18 227//18
f 309//10 303//10 219//10 225//10
f 308//1 302//1 218//1 224//1
f 305//1 304//1 220//1 221//1
f 304//18 310//18 226//18 220//18
f 315//18 311//18 227//18 231//18
f 306//11 312//11 228//11 222//11
f 317//11 313//11 229//11 233//11
f 363//21 366//21 237//21 234//21
f 369//22 372//22 243//22 240//22
f 368//23 369//23 240//23 239//23
f 374//24 363//24 234//24 245//24
f 393//25 295//25 249//25 375//25
f 391//26 293//26 247//26 377//26
f 397//27 321//27 253//27 379//27
f 395//28 319//28 251//28 381//28
f 383//17 256//17 246//17 378//17
f 325//1 270//1 238//1 318//1
f 259//1 258//1 235//1 244//1
f 324//10 272//10 251//10 319//10
f 261//10 260//10 245//10 234//10
f 297//1 259//1 244//1 292//1
f 258//1 262//1 236//1 235//1
f 323//10 263//10 237//10 320//10
f 296//10 257//10 247//10 293//10
f 263//10 261//10 234//10 237//10
f 322//1 254//1 253//1 321//1
f 298//10 268//10 243//10 294//10
f 317//1 233//1 254//1 322//1
f 161//10 158//10 261//10 263//10
f 289//10 213//10 257//10 296//10
f 316//10 161//10 263//10 323//10
f 159//1 160//1 262//1 258//1
f 288//1 168//1 259//1 297//1
f 158//10 169//10 260//10 261//10
f 168//1 159//1 258//1 259//1
f 358//17 212//17 256//17 383//17
f 360//16 232//16 255//16 385//16
f 290//10 167//10 268//10 298//10
f 315//10 231//10 272//10 324//10
f 314//1 162//1 270//1 325//1
f 165//1 166//1 267//1 266//1
f 291//1 215//1 265//1 299//1
f 167//10 164//10 264//10 268//10
f 356//17 214//17 269//17 387//17
f 162//1 165//1 266//1 270//1
f 362//16 230//16 271//16 389//16
f 164//10 163//10 273//10 264//10
f 166//1 291//1 299//1 267//1
f 214//10 290//10 298//10 269//10
f 212//1 288//1 297//1 256//1
f 169//10 289//10 296//10 260//10
f 269//10 298//10 294//10 248//10
f 260//10 296//10 293//10 245//10
f 256//1 297//1 292//1 246//1
f 374//26 245//26 293//26 391//26
f 371//25 242//25 295//25 393//25
f 166//19 106//19 287//19 291//19
f 75//19 107//19 286//19 280//19
f 169//20 109//20 285//20 289//20
f 66//20 108//20 284//20 281//20
f 44//10 45//10 275//10 283//10
f 109//20 72//20 277//20 285//20
f 43//10 44//10 283//10 282//10
f 106//19 69//19 274//19 287//19
f 37//1 36//1 278//1 279//1
f 36//1 35//1 276//1 278//1
f 72//10 43//10 282//10 277//10
f 45//10 75//10 280//10 275//10
f 69//1 37//1 279//1 274//1
f 35//1 66//1 281//1 276//1
f 108//20 168//20 288//20 284//20
f 267//1 299//1 295//1 242//1
f 107//19 167//19 290//19 286//19
f 230//1 314//1 325//1 271//1
f 163//10 315//10 324//10 273//10
f 232//10 316//10 323//10 255//10
f 160//1 317//1 322//1 262//1
f 262//1 322//1 321//1 236//1
f 255//10 323//10 320//10 252//10
f 273//10 324//10 319//10 239//10
f 271//1 325//1 318//1 250//1
f 368//28 239//28 319//28 395//28
f 365//27 236//27 321//27 397//27
f 160//11 100//11 313//11 317//11
f 77//11 101//11 312//11 306//11
f 163//18 103//18 311//18 315//18
f 70//18 102//18 310//18 304//18
f 39//1 70//1 304//1 305//1
f 71//1 41//1 302//1 308//1
f 76//10 47//10 303//10 309//10
f 103//18 76//18 309//18 311//18
f 48//10 49//10 301//10 307//10
f 40//1 39//1 305//1 300//1
f 49//10 77//10 306//10 301//10
f 41//1 40//1 300//1 302//1
f 47//10 48//10 307//10 303//10
f 100//11 71//11 308//11 313//11
f 102//18 162//18 314//18 310//18
f 101//11 161//11 316//11 312//11
f 326//10 48//10 47//10 46//10
f 42//10 49//10 48//10 326//10
f 44//10 326//10 46//10 45//10
f 43//10 42//10 326//10 44//10
f 237//27 366//27 398//27 320//27
f 366//27 365//27 397//27 398//27
f 238//28 367//28 396//28 318//28
f 367//28 368//28 395//28 396//28
f 243//25 372//25 394//25 294//25
f 372//25 371//25 393//25 394//25
f 244//26 373//26 392//26 292//26
f 373//26 374//26 391//26 392//26
f 231//16 361//16 390//16 272//16
f 361//16 362//16 389//16 390//16
f 215//17 355//17 388//17 265//17
f 355//17 356//17 387//17 388//17
f 233//16 359//16 386//16 254//16
f 359//16 360//16 385//16 386//16
f 213//17 357//17 384//17 257//17
f 357//17 358//17 383//17 384//17
f 257//17 384//17 377//17 247//17
f 384//17 383//17 378//17 377//17
f 318//28 396//28 382//28 250//28
f 396//28 395//28 381//28 382//28
f 320//27 398//27 380//27 252//27
f 398//27 397//27 379//27 380//27
f 292//26 392//26 378//26 246//26
f 392//26 391//26 377//26 378//26
f 294//25 394//25 376//25 248//25
f 394//25 393//25 375//25 376//25
f 244//24 235//24 364//24 373//24
f 373//24 364//24 363//24 374//24
f 238//23 241//23 370//23 367//23
f 367//23 370//23 369//23 368//23
f 241//22 242//22 371//22 370//22
f 370//22 371//22 372//22 369//22
f 235//21 236//21 365//21 364//21
f 364//21 365//21 366//21 363//21
f 254//16 386//16 379//16 253//16
f 386//16 385//16 380//16 379//16
f 197//20 354//20 345//20 188//20
f 354//20 353//20 346//20 345//20
f 195//19 352//19 344//19 187//19
f 352//19 351//19 343//19 344//19
f 193//18 350//18 341//18 184//18
f 350//18 349//18 342//18 341//18
f 181//17 338//17 346//17 189//17
f 338//17 337//17 345//17 346//17
f 175//16 332//16 342//16 185//16
f 332//16 331//16 341//16 342//16
f 170//16 327//16 339//16 182//16
f 327//16 328//16 340//16 339//16
f 176//17 179//17 336//17 333//17
f 333//17 336//17 335//17 334//17
f 176//17 333//17 343//17 186//17
f 333//17 334//17 344//17 343//17
f 170//16 173//16 330//16 327//16
f 327//16 330//16 329//16 328//16
f 179//17 180//17 337//17 336//17
f 336//17 337//17 338//17 335//17
f 173//16 174//16 331//16 330//16
f 330//16 331//16 332//16 329//16
f 265//17 388//17 375//17 249//17
f 388//17 387//17 376//17 375//17
f 272//16 390//16 381//16 251//16
f 390//16 389//16 382//16 381//16
f 191//11 348//11 340//11 183//11
f 348//11 347//11 339//11 340//11
f 232//11 360//11 348//11 191//11
f 360//11 359//11 347//11 348//11
f 230//18 362//18 350//18 193//18
f 362//18 361//18 349//18 350//18
f 214//19 356//19 352//19 195//19
f 356//19 355//19 351//19 352//19
f 212//20 358//20 354//20 197//20
f 358//20 357//20 353//20 354//20
