# 3ds Max Wavefront OBJ Exporter v0.97b - (c)2007 guruware
# File Created: 03.11.2018 18:47:53

#
# object Cylinder001
#

v  16.3143 0.0000 -3.1626
v  16.3143 0.0000 -18.4700
v  5.4904 0.0000 -29.2939
v  -9.8169 0.0000 -29.2939
v  -20.6408 0.0000 -18.4700
v  -20.6408 0.0000 -3.1626
v  -9.8169 0.0000 7.6613
v  5.4904 0.0000 7.6613
v  16.3143 16.0000 -3.1626
v  16.3143 16.0000 -18.4700
v  5.4904 16.0000 -29.2939
v  -9.8169 16.0000 -29.2939
v  -20.6408 16.0000 -18.4700
v  -20.6408 16.0000 -3.1626
v  -9.8169 16.0000 7.6613
v  5.4904 16.0000 7.6613
v  16.3143 42.4497 -3.1626
v  16.3143 42.4497 -18.4700
v  5.4904 53.7080 -28.8132
v  5.4904 53.7080 7.6613
v  -9.8169 69.0150 -29.2939
v  -9.8169 69.0150 7.6613
v  -20.6408 80.0000 -18.4700
v  -20.6408 80.0000 -3.1626
v  57.8751 79.8388 -18.4700
v  57.8751 69.0149 -29.2939
v  57.8751 53.7076 -29.2939
v  57.8751 42.8837 -18.4700
v  57.8751 42.8837 -3.1626
v  57.8751 53.7076 7.6613
v  57.8751 69.0149 7.6613
v  57.8751 79.8388 -3.1626
v  41.8751 79.8388 -18.4700
v  41.8751 69.0149 -29.2939
v  41.8751 53.7076 -29.2939
v  41.8751 42.8837 -18.4700
v  41.8751 42.8837 -3.1626
v  41.8751 53.7076 7.6613
v  41.8751 69.0149 7.6613
v  41.8751 79.8388 -3.1626
v  25.8751 79.8388 -18.4700
v  25.8751 69.0149 -29.2939
v  25.8751 53.7076 -29.2939
v  25.8751 42.8837 -18.4700
v  25.8751 42.8837 -3.1626
v  25.8751 53.7076 7.6613
v  25.8751 69.0149 7.6613
v  25.8751 79.8388 -3.1626
v  -9.8169 31.1251 -29.2939
v  -20.6408 31.1251 -18.4700
v  -20.6408 31.1251 -3.1626
v  -9.8169 31.1251 7.6613
v  5.4904 31.1251 7.6613
v  16.3143 31.1251 -3.1626
v  16.3143 31.1251 -18.4700
v  5.4904 31.1251 -29.1144
v  16.3143 31.4595 -3.1626
# 57 vertices

vn 0.9239 0.0000 0.3827
vn 0.9239 0.0000 -0.3827
vn 0.9239 0.0000 -0.3827
vn 0.9239 -0.0000 0.3827
vn 0.9239 0.0000 -0.3827
vn 0.3827 0.0000 -0.9239
vn 0.3812 0.0044 -0.9245
vn 0.9239 0.0000 -0.3827
vn 0.3827 0.0000 -0.9239
vn -0.3827 0.0000 -0.9239
vn -0.3813 0.0016 -0.9244
vn 0.3812 0.0044 -0.9245
vn -0.3827 0.0000 -0.9239
vn -0.9239 0.0000 -0.3827
vn -0.9239 0.0000 -0.3827
vn -0.3813 0.0016 -0.9244
vn -0.9239 0.0000 -0.3827
vn -0.9239 0.0000 0.3827
vn -0.9239 0.0000 0.3827
vn -0.9239 0.0000 -0.3827
vn -0.9239 0.0000 0.3827
vn -0.3827 0.0000 0.9239
vn -0.3827 0.0000 0.9239
vn -0.9239 0.0000 0.3827
vn -0.3827 0.0000 0.9239
vn 0.3827 0.0000 0.9239
vn 0.3827 -0.0000 0.9239
vn -0.3827 0.0000 0.9239
vn 0.3827 0.0000 0.9239
vn 0.9239 0.0000 0.3827
vn 0.9239 -0.0000 0.3827
vn 0.3827 -0.0000 0.9239
vn 0.9239 0.0000 -0.3827
vn 0.9227 0.0011 -0.3856
vn 0.9239 -0.0000 0.3827
vn 0.9239 -0.0000 0.3827
vn 0.3812 0.0044 -0.9245
vn 0.3837 0.0063 -0.9234
vn 0.9227 0.0011 -0.3856
vn 0.9239 0.0000 -0.3827
vn -0.9239 0.0000 -0.3827
vn -0.9239 0.0000 -0.3827
vn -0.3773 0.0000 -0.9261
vn -0.3813 0.0016 -0.9244
vn -0.9239 0.0000 0.3827
vn -0.3827 0.0000 0.9239
vn -0.3827 0.0000 0.9239
vn -0.9239 -0.0000 0.3827
vn -0.3827 0.0000 0.9239
vn 0.3827 -0.0000 0.9239
vn 0.3827 0.0000 0.9239
vn -0.3827 0.0000 0.9239
vn 0.3827 -0.0000 0.9239
vn 0.9239 -0.0000 0.3827
vn 0.9239 -0.0000 0.3827
vn 0.3827 0.0000 0.9239
vn -0.2979 0.2955 -0.9077
vn 0.0000 0.3827 -0.9239
vn -0.0022 -0.2575 -0.9663
vn 0.1293 -0.0164 -0.9915
vn -0.2979 0.2955 -0.9077
vn -0.8293 0.2490 -0.5003
vn 0.0002 0.8625 -0.5060
vn 0.0000 0.3827 -0.9239
vn 0.0000 -1.0000 -0.0000
vn 0.0000 -1.0000 -0.0000
vn 0.0000 -1.0000 -0.0000
vn 0.0000 -1.0000 -0.0000
vn 0.0035 1.0000 0.0000
vn 0.0035 1.0000 0.0000
vn 0.0035 1.0000 -0.0000
vn 0.0035 1.0000 -0.0000
vn 0.6303 0.7173 -0.2971
vn 0.6303 0.2971 -0.7173
vn 0.0000 0.3827 -0.9239
vn 0.0000 0.9239 -0.3827
vn 0.6303 0.2971 -0.7173
vn 0.6303 -0.2971 -0.7173
vn 0.0000 -0.3827 -0.9239
vn 0.0000 0.3827 -0.9239
vn 0.6303 -0.7173 -0.2971
vn 0.6303 -0.7173 0.2971
vn -0.0000 -0.9239 0.3827
vn 0.0000 -0.9239 -0.3827
vn 0.6303 -0.7173 0.2971
vn 0.6303 -0.2971 0.7173
vn -0.0000 -0.3827 0.9239
vn -0.0000 -0.9239 0.3827
vn 0.6303 -0.2971 0.7173
vn 0.6303 0.2971 0.7173
vn -0.0000 0.3827 0.9239
vn -0.0000 -0.3827 0.9239
vn 0.6303 0.2971 0.7173
vn 0.6303 0.7173 0.2971
vn -0.0000 0.9239 0.3827
vn -0.0000 0.3827 0.9239
vn 0.6303 0.7173 0.2971
vn 0.6303 0.7173 -0.2971
vn 0.0000 0.9239 -0.3827
vn -0.0000 0.9239 0.3827
vn 0.0000 0.9239 -0.3827
vn 0.0000 0.3827 -0.9239
vn 0.0000 0.3827 -0.9239
vn 0.0002 0.8625 -0.5060
vn 0.0000 0.3827 -0.9239
vn 0.0000 -0.3827 -0.9239
vn -0.0022 -0.2575 -0.9663
vn 0.0000 0.3827 -0.9239
vn 0.0000 -0.3827 -0.9239
vn 0.0000 -0.9239 -0.3827
vn 0.0000 -0.9239 -0.3827
vn -0.0022 -0.2575 -0.9663
vn 0.0000 -0.9239 -0.3827
vn -0.0000 -0.9239 0.3827
vn 0.0047 -0.8588 0.5122
vn 0.0000 -0.9239 -0.3827
vn -0.0000 -0.9239 0.3827
vn -0.0000 -0.3827 0.9239
vn -0.0000 -0.3827 0.9239
vn 0.0047 -0.8588 0.5122
vn -0.0000 -0.3827 0.9239
vn -0.0000 0.3827 0.9239
vn 0.0000 0.3827 0.9239
vn -0.0000 -0.3827 0.9239
vn -0.0000 0.3827 0.9239
vn -0.0000 0.9239 0.3827
vn 0.0002 0.8625 0.5060
vn 0.0000 0.3827 0.9239
vn -0.0000 0.9239 0.3827
vn 0.0000 0.9239 -0.3827
vn 0.0002 0.8625 -0.5060
vn 0.0002 0.8625 0.5060
vn 0.0453 -0.9990 0.0000
vn 0.0453 -0.9990 0.0000
vn 0.0453 -0.9990 0.0000
vn 0.0453 -0.9990 0.0000
vn -0.0016 -0.6924 -0.7215
vn -0.0016 -0.6924 -0.7215
vn -0.0016 -0.6924 -0.7215
vn -0.0016 -0.6924 -0.7215
vn -0.2979 0.2955 -0.9077
vn 0.1293 -0.0164 -0.9915
vn 0.3837 0.0063 -0.9234
vn -0.3773 0.0000 -0.9261
vn 0.9227 0.0011 -0.3856
vn 0.8913 0.0035 -0.4534
vn 0.6790 -0.3085 0.6661
vn 0.9239 0.0000 0.3827
vn 0.9227 0.0011 -0.3856
vn 0.9239 0.0000 0.3827
vn 0.9239 -0.0000 0.3827
vn 0.3837 0.0063 -0.9234
vn 0.1293 -0.0164 -0.9915
vn 0.8913 0.0035 -0.4534
vn 0.9227 0.0011 -0.3856
vn -0.9239 0.0000 -0.3827
vn -0.8293 0.2490 -0.5003
vn -0.2979 0.2955 -0.9077
vn -0.3773 0.0000 -0.9261
vn -0.8293 0.2490 0.5003
vn -0.8293 0.2490 -0.5003
vn -0.9239 0.0000 -0.3827
vn -0.9239 -0.0000 0.3827
vn -0.3000 0.2980 0.9062
vn -0.8293 0.2490 0.5003
vn -0.9239 -0.0000 0.3827
vn -0.3827 0.0000 0.9239
vn 0.1095 -0.1096 0.9879
vn -0.3000 0.2980 0.9062
vn -0.3827 0.0000 0.9239
vn 0.3827 0.0000 0.9239
vn 0.9239 0.0000 0.3827
vn 0.6790 -0.3085 0.6661
vn 0.1095 -0.1096 0.9879
vn 0.3827 0.0000 0.9239
vn 0.9239 0.0000 0.3827
vn 0.3827 0.0000 0.9239
vn 0.9239 -0.0000 0.3827
vn 0.3837 0.0063 -0.9234
vn 0.3812 0.0044 -0.9245
vn -0.3813 0.0016 -0.9244
vn -0.3773 0.0000 -0.9261
vn 0.6303 0.2971 -0.7173
vn 0.6303 0.7173 -0.2971
vn 0.6303 -0.7173 -0.2971
vn 0.6303 -0.2971 -0.7173
vn 0.0000 0.3827 0.9239
vn -0.3000 0.2980 0.9062
vn 0.1095 -0.1096 0.9879
vn -0.0000 -0.3827 0.9239
vn -0.9239 0.0000 0.3827
vn -0.9239 -0.0000 0.3827
vn -0.9239 0.0000 -0.3827
vn -0.9239 0.0000 -0.3827
vn 0.6303 -0.2971 -0.7173
vn 0.6303 -0.7173 -0.2971
vn 0.0000 -0.9239 -0.3827
vn 0.0000 -0.3827 -0.9239
vn 0.0002 0.8625 0.5060
vn -0.8293 0.2490 0.5003
vn -0.3000 0.2980 0.9062
vn 0.0000 0.3827 0.9239
vn 0.1095 -0.1096 0.9879
vn 0.6790 -0.3085 0.6661
vn 0.0047 -0.8588 0.5122
vn -0.0000 -0.3827 0.9239
vn 0.6303 0.7173 0.2971
vn 0.6303 -0.7173 0.2971
vn 0.6303 -0.7173 -0.2971
vn 0.6303 0.7173 -0.2971
vn 0.6303 0.2971 0.7173
vn 0.6303 -0.2971 0.7173
vn 0.6303 -0.7173 0.2971
vn 0.6303 0.7173 0.2971
vn 0.0000 -1.0000 -0.0000
vn 0.0000 -1.0000 -0.0000
vn 0.0000 -1.0000 -0.0000
vn 0.0000 -1.0000 -0.0000
vn 0.0000 -1.0000 -0.0000
vn 0.0000 -1.0000 -0.0000
vn 0.0000 -1.0000 -0.0000
vn 0.0000 -1.0000 -0.0000
# 222 vertex normals

g Cylinder001
f 1//1 2//2 10//3 9//4 
f 2//5 3//6 11//7 10//8 
f 3//9 4//10 12//11 11//12 
f 4//13 5//14 13//15 12//16 
f 5//17 6//18 14//19 13//20 
f 6//21 7//22 15//23 14//24 
f 7//25 8//26 16//27 15//28 
f 8//29 1//30 9//31 16//32 
f 10//33 55//34 54//35 9//36 
f 11//37 56//38 55//39 10//40 
f 13//41 50//42 49//43 12//44 
f 14//45 15//46 52//47 51//48 
f 15//49 16//50 53//51 52//52 
f 16//53 9//54 54//55 53//56 
f 21//57 42//58 43//59 19//60 
f 21//61 23//62 41//63 42//64 
f 4//65 3//66 2//67 5//68 
f 48//69 41//70 23//71 24//72 
f 25//73 26//74 34//75 33//76 
f 26//77 27//78 35//79 34//80 
f 28//81 29//82 37//83 36//84 
f 29//85 30//86 38//87 37//88 
f 30//89 31//90 39//91 38//92 
f 31//93 32//94 40//95 39//96 
f 32//97 25//98 33//99 40//100 
f 33//101 34//102 42//103 41//104 
f 34//105 35//106 43//107 42//108 
f 35//109 36//110 44//111 43//112 
f 36//113 37//114 45//115 44//116 
f 37//117 38//118 46//119 45//120 
f 38//121 39//122 47//123 46//124 
f 39//125 40//126 48//127 47//128 
f 40//129 33//130 41//131 48//132 
f 18//133 44//134 45//135 17//136 
f 43//137 44//138 18//139 19//140 
f 21//141 19//142 56//143 49//144 
f 55//145 18//146 17//147 57//148 
f 55//149 57//150 54//151 
f 56//152 19//153 18//154 55//155 
f 50//156 23//157 21//158 49//159 
f 24//160 23//161 50//162 51//163 
f 22//164 24//165 51//166 52//167 
f 20//168 22//169 52//170 53//171 
f 57//172 17//173 20//174 53//175 
f 57//176 53//177 54//178 
f 56//179 11//180 12//181 49//182 
f 26//183 25//184 28//185 27//186 
f 47//187 22//188 20//189 46//190 
f 14//191 51//192 50//193 13//194 
f 27//195 28//196 36//197 35//198 
f 48//199 24//200 22//201 47//202 
f 20//203 17//204 45//205 46//206 
f 32//207 29//208 28//209 25//210 
f 31//211 30//212 29//213 32//214 
f 1//215 6//216 5//217 2//218 
f 8//219 7//220 6//221 1//222 
# 54 polygons - 2 triangles

