# 3ds Max Wavefront OBJ Exporter v0.97b - (c)2007 guruware
# File Created: 07.10.2018 22:24:31

mtllib 886410-03-LP.mtl

#
# object Box001
#

v  -100.0000 0.0000 -61.9910
v  -100.0000 0.0000 -80.0905
v  20.3620 0.0000 -80.0905
v  20.3620 0.0000 -61.9910
v  -100.0000 98.6425 -61.9910
v  20.3620 98.6425 -61.9910
v  20.3620 98.6425 -80.0905
v  -100.0000 98.6425 -80.0905
# 8 vertices

vn 0.0000 -1.0000 -0.0000
vn 0.0000 1.0000 -0.0000
vn 0.0000 0.0000 1.0000
vn 1.0000 0.0000 -0.0000
vn 0.0000 0.0000 -1.0000
vn -1.0000 0.0000 -0.0000
# 6 vertex normals

vt 120.3620 0.0000 0.0000
vt 120.3620 18.0995 0.0000
vt 0.0000 18.0995 0.0000
vt 0.0000 0.0000 0.0000
vt 120.3620 98.6425 0.0000
vt 0.0000 98.6425 0.0000
vt 18.0995 0.0000 0.0000
vt 18.0995 98.6425 0.0000
# 8 texture coords

g Box001
usemtl wire_088144225
s 2
f 1/1/1 2/2/1 3/3/1 4/4/1 
s 4
f 5/4/2 6/1/2 7/2/2 8/3/2 
s 8
f 1/4/3 4/1/3 6/5/3 5/6/3 
s 16
f 4/4/4 3/7/4 7/8/4 6/6/4 
s 32
f 3/4/5 2/1/5 8/5/5 7/6/5 
s 64
f 2/4/6 1/7/6 5/8/6 8/6/6 
# 6 polygons

#
# object Box002
#

v  -49.2878 0.0000 7.9778
v  -49.2878 0.0000 -63.0528
v  -29.4504 0.0000 -63.0528
v  -29.4504 0.0000 7.9778
v  -49.2878 99.1869 7.9778
v  -29.4504 99.1869 7.9778
v  -29.4504 99.1869 -63.0528
v  -49.2878 99.1869 -63.0528
# 8 vertices

vn 0.0000 -1.0000 -0.0000
vn 0.0000 1.0000 -0.0000
vn 0.0000 0.0000 1.0000
vn 1.0000 0.0000 -0.0000
vn 0.0000 0.0000 -1.0000
vn -1.0000 0.0000 -0.0000
# 6 vertex normals

vt 19.8374 0.0000 0.0000
vt 19.8374 71.0306 0.0000
vt 0.0000 71.0306 0.0000
vt 0.0000 0.0000 0.0000
vt 19.8374 99.1869 0.0000
vt 0.0000 99.1869 0.0000
vt 71.0306 0.0000 0.0000
vt 71.0306 99.1869 0.0000
# 8 texture coords

g Box002
usemtl wire_088144225
s 2
f 9/9/7 10/10/7 11/11/7 12/12/7 
s 4
f 13/12/8 14/9/8 15/10/8 16/11/8 
s 8
f 9/12/9 12/9/9 14/13/9 13/14/9 
s 16
f 12/12/10 11/15/10 15/16/10 14/14/10 
s 32
f 11/12/11 10/9/11 16/13/11 15/14/11 
s 64
f 10/12/12 9/15/12 13/16/12 16/14/12 
# 6 polygons

