# Blender v2.79 (sub 0) OBJ File: ''
# www.blender.org
mtllib 889060-Exe23.mtl
o Plane
v -0.612580 0.999993 0.230827
v -1.069856 0.999993 0.230827
v -0.612580 0.999993 -1.769173
v -1.069856 0.999993 -1.769173
v -0.612580 -0.807990 -1.769173
v -0.612580 -0.807990 0.230827
v -1.069856 -0.807990 0.230827
v -1.069856 -0.807990 -1.769173
v -0.612580 0.999993 -1.369173
v -0.612580 0.999993 -0.969173
v -0.612580 0.999993 -0.569173
v -0.612580 0.999993 -0.169173
v -1.069856 0.999993 -0.169173
v -1.069856 0.999993 -0.569173
v -1.069856 0.999993 -0.969173
v -1.069856 0.999993 -1.369173
v -0.612580 -0.807990 -1.369173
v -0.612580 -0.807990 -0.969173
v -0.612580 -0.807990 -0.569173
v -0.612580 -0.807990 -0.169173
v -1.069856 -0.807990 -0.169173
v -1.069856 -0.807990 -0.569173
v -1.069856 -0.807990 -0.969173
v -1.069856 -0.807990 -1.369173
v 0.586086 0.999993 -0.969173
v 0.586086 0.999993 -0.569173
v 0.586086 -0.807990 -0.969173
v 0.586086 -0.807990 -0.569173
vn 0.0000 -1.0000 0.0000
vn 0.0000 1.0000 0.0000
vn -1.0000 0.0000 0.0000
vn 0.0000 0.0000 1.0000
vn 0.0000 0.0000 -1.0000
vn 1.0000 0.0000 0.0000
usemtl None
s off
f 9//1 16//1 4//1 3//1
f 17//2 5//2 8//2 24//2
f 12//3 20//3 6//3 1//3
f 4//4 8//4 5//4 3//4
f 1//5 6//5 7//5 2//5
f 16//6 24//6 8//6 4//6
f 2//6 7//6 21//6 13//6
f 13//6 21//6 22//6 14//6
f 14//6 22//6 23//6 15//6
f 15//6 23//6 24//6 16//6
f 3//3 5//3 17//3 9//3
f 9//3 17//3 18//3 10//3
f 19//2 28//2 27//2 18//2
f 11//3 19//3 20//3 12//3
f 6//2 20//2 21//2 7//2
f 20//2 19//2 22//2 21//2
f 19//2 18//2 23//2 22//2
f 18//2 17//2 24//2 23//2
f 1//1 2//1 13//1 12//1
f 12//1 13//1 14//1 11//1
f 11//1 14//1 15//1 10//1
f 10//1 15//1 16//1 9//1
f 25//3 27//3 28//3 26//3
f 18//4 27//4 25//4 10//4
f 10//1 25//1 26//1 11//1
f 11//5 26//5 28//5 19//5
