# Blender v2.79 (sub 0) OBJ File: ''
# www.blender.org
mtllib 889060-04-LP.mtl
o Cube_Cube.001
v -1.767596 -1.319044 -1.573737
v -1.767596 0.680956 -1.573737
v -1.767596 -1.319044 -1.964611
v -1.767596 0.680956 -1.964611
v 0.232404 -1.319044 -1.573737
v 0.232404 0.680956 -1.573737
v 0.232404 -1.319044 -1.964611
v 0.232404 0.680956 -1.964611
v -1.489442 -1.319044 -1.964611
v -1.489442 0.680956 -1.964611
v -1.489442 -1.319044 -1.573737
v -1.489442 0.680956 -1.573737
v -0.073076 0.680956 -1.964611
v -0.073076 -1.319044 -1.573737
v -0.073076 -1.319044 -1.964611
v -0.073076 0.680956 -1.573737
v -1.489442 -1.319044 -0.200144
v -1.489442 0.680956 -0.200144
v -1.767596 0.680956 -0.200144
v -1.767596 -1.319044 -0.200144
v 0.232404 -1.319044 -0.200144
v 0.232404 0.680956 -0.200144
v -0.073076 0.680956 -0.200144
v -0.073076 -1.319044 -0.200144
vn -1.0000 0.0000 0.0000
vn 0.0000 0.0000 -1.0000
vn 1.0000 0.0000 0.0000
vn 0.0000 -1.0000 0.0000
vn 0.0000 1.0000 0.0000
vn 0.0000 0.0000 1.0000
usemtl None
s off
f 1//1 2//1 4//1 3//1
f 15//2 13//2 8//2 7//2
f 7//3 8//3 6//3 5//3
f 15//4 7//4 5//4 14//4
f 10//5 4//5 2//5 12//5
f 13//5 10//5 12//5 16//5
f 3//4 9//4 11//4 1//4
f 14//6 16//6 12//6 11//6
f 3//2 4//2 10//2 9//2
f 8//5 13//5 16//5 6//5
f 9//4 15//4 14//4 11//4
f 9//2 10//2 13//2 15//2
f 17//6 18//6 19//6 20//6
f 12//3 18//3 17//3 11//3
f 2//5 19//5 18//5 12//5
f 1//1 20//1 19//1 2//1
f 11//4 17//4 20//4 1//4
f 21//6 22//6 23//6 24//6
f 6//3 22//3 21//3 5//3
f 16//5 23//5 22//5 6//5
f 14//1 24//1 23//1 16//1
f 5//4 21//4 24//4 14//4
