# Blender v2.79 (sub 0) OBJ File: ''
# www.blender.org
mtllib 889399-EXE-03.mtl
o Cube
v 0.200000 0.000000 -1.000000
v 0.200000 0.000000 1.000000
v -0.200000 0.000000 1.000000
v -0.200000 0.000000 -1.000000
v 0.200000 2.000000 -1.000000
v 0.200000 2.000000 1.000001
v -0.200000 2.000000 1.000000
v -0.200000 2.000000 -1.000000
v 0.200000 0.000000 0.200000
v -0.200000 0.000000 0.200000
v 0.200000 2.000000 0.200000
v -0.200000 2.000000 0.200000
v -0.200000 0.000000 -0.200000
v -0.200000 2.000000 -0.200000
v 0.200000 0.000000 -0.200000
v 0.200000 2.000000 -0.200000
v 1.400000 0.000000 -0.200000
v 1.400000 0.000000 0.200000
v 1.400000 2.000000 -0.199999
v 1.400000 2.000000 0.200001
vn 0.0000 -1.0000 0.0000
vn 0.0000 1.0000 -0.0000
vn 1.0000 0.0000 0.0000
vn -0.0000 -0.0000 1.0000
vn -1.0000 -0.0000 -0.0000
vn 0.0000 0.0000 -1.0000
usemtl Material
s off
f 9//1 2//1 3//1 10//1
f 11//2 12//2 7//2 6//2
f 9//3 11//3 6//3 2//3
f 2//4 6//4 7//4 3//4
f 13//5 14//5 8//5 4//5
f 5//6 1//6 4//6 8//6
f 3//5 7//5 12//5 10//5
f 16//2 11//2 20//2 19//2
f 16//2 14//2 12//2 11//2
f 15//1 9//1 10//1 13//1
f 1//1 15//1 13//1 4//1
f 5//2 8//2 14//2 16//2
f 1//3 5//3 16//3 15//3
f 10//5 12//5 14//5 13//5
f 17//3 19//3 20//3 18//3
f 9//1 15//1 17//1 18//1
f 11//4 9//4 18//4 20//4
f 15//6 16//6 19//6 17//6
