# Blender v2.79 (sub 0) OBJ File: 'TUBO CON FACCE .blend'
# www.blender.org
mtllib 891278-13-LP .mtl
o Circle
v 0.000000 0.000000 -1.000000
v -0.707107 0.000000 -0.707107
v -1.000000 0.000000 0.000000
v -0.707107 0.000000 0.707107
v 0.000000 0.000000 1.000000
v 0.707107 0.000000 0.707107
v 1.000000 0.000000 -0.000000
v 0.707107 0.000000 -0.707107
v 0.000000 3.000000 -1.000000
v -0.707107 3.000000 -0.707107
v -1.000000 3.000000 0.000000
v -0.707107 3.000000 0.707107
v 0.000000 3.000000 1.000000
v 0.707107 3.000000 0.707107
v 1.000000 3.000000 -0.000000
v 0.707107 3.000000 -0.707107
v 1.000000 0.385002 -0.000000
v 1.000000 2.539712 -0.000000
v 0.000000 1.819443 -1.000000
v 0.000000 1.227876 -1.000000
v 0.707107 2.278002 0.707107
v 0.707107 0.682622 0.707107
v 0.000000 1.227876 1.000000
v 0.000000 1.819443 1.000000
v 0.707107 0.682623 -0.707107
v 0.707107 2.278002 -0.707107
v 0.539540 0.714079 -0.776515
v 0.539540 2.267105 -0.776515
v 0.539543 0.714078 0.776514
v 0.539543 2.267105 0.776514
v -0.707107 0.750000 -0.707107
v -0.707107 2.250000 -0.707107
v -1.000000 2.250000 0.000000
v -1.000000 0.750000 0.000000
v -0.707107 0.750000 0.707107
v -0.707107 2.250000 0.707107
v 0.353553 3.000000 0.853553
v 0.353553 0.000000 0.853553
v 0.353553 3.000000 -0.853553
v 0.353553 0.000000 -0.853553
v 0.353553 0.000000 0.000000
v 0.000000 0.000000 0.000000
v 0.353553 3.000000 0.000000
v 0.000000 3.000000 0.000000
v 3.499043 0.385002 -0.000000
v 3.499043 2.539712 -0.000000
v 3.499043 1.819443 -1.000000
v 3.499043 1.227876 -1.000000
v 3.499043 2.278002 0.707107
v 3.499043 0.682622 0.707107
v 3.499043 1.227876 1.000000
v 3.499043 1.819443 1.000000
v 3.499043 0.682623 -0.707107
v 3.499043 2.278002 -0.707107
v 3.499043 0.714079 -0.776515
v 3.499043 2.267105 -0.776515
v 3.499043 0.714078 0.776514
v 3.499043 2.267105 0.776514
v 3.426927 2.278002 0.707107
v 3.422599 2.267105 0.776514
v 3.422599 0.714079 -0.776515
v 3.408663 1.227876 -1.000000
v 3.408663 1.819443 1.000000
v 3.408663 1.227876 1.000000
v 3.426927 0.682623 -0.707107
v 3.422599 2.267105 -0.776515
v 3.426927 2.278002 -0.707107
v 3.408663 1.819443 -1.000000
v 3.434493 0.385002 -0.000000
v 3.422599 0.714078 0.776514
v 3.426927 0.682622 0.707107
v 3.434493 2.539712 -0.000000
v 0.860423 2.278002 0.707107
v 0.702058 0.714079 -0.776515
v 0.192146 1.819443 1.000000
v 0.860423 0.682623 -0.707107
v 0.702057 2.267105 -0.776515
v 0.192146 1.819443 -1.000000
v 1.137232 0.385002 -0.000000
v 0.702061 0.714078 0.776514
v 0.702060 2.267105 0.776514
v 0.192146 1.227876 -1.000000
v 0.192146 1.227876 1.000000
v 0.860423 2.278002 -0.707107
v 0.860423 0.682622 0.707107
v 1.137232 2.539712 -0.000000
v 0.112843 0.000000 0.953259
v 0.112843 3.000000 0.953259
v 0.172203 1.063889 -0.928671
v 0.172203 1.962322 -0.928671
v 0.172205 1.063889 0.928671
v 0.172204 1.962322 0.928671
v 0.112843 3.000000 -0.953259
v 0.112843 0.000000 -0.953259
v 0.112843 0.000000 0.000000
v 0.112843 3.000000 0.000000
v 3.499043 1.063889 -0.928671
v 3.499043 1.962322 -0.928671
v 3.499043 1.063889 0.928671
v 3.499043 1.962322 0.928671
v 3.413111 1.962322 0.928671
v 3.413111 1.063889 0.928671
v 3.413111 1.962322 -0.928671
v 3.413111 1.063889 -0.928671
v 0.354893 1.063889 -0.928671
v 0.354893 1.962322 -0.928671
v 0.354894 1.063889 0.928671
v 0.354894 1.962322 0.928671
v 1.000000 2.942688 -0.000000
v 0.000000 2.853004 1.000000
v -1.000000 2.906615 0.000000
v 0.707107 2.910101 -0.707107
v 0.000000 2.853004 -1.000000
v 0.707107 2.910101 0.707107
v -0.707107 2.906615 -0.707107
v -0.707107 2.906615 0.707107
v 0.376712 2.908745 0.843961
v 0.376711 2.908745 -0.843961
v 0.120234 2.870795 0.950197
v 0.120234 2.870795 -0.950198
v 0.707107 0.091386 0.707107
v -0.707107 0.100407 0.707107
v -0.707107 0.100407 -0.707107
v 0.000000 0.164382 -1.000000
v 1.000000 0.051542 -0.000000
v 0.000000 0.164382 1.000000
v 0.707107 0.091386 -0.707107
v -1.000000 0.100407 0.000000
v 0.378453 0.095598 0.843240
v 0.378452 0.095598 -0.843240
v 0.120790 0.142429 0.949967
v 0.120790 0.142429 -0.949967
v -0.937145 0.000000 0.151746
v 0.937145 0.000000 0.151746
v -0.937145 3.000000 0.151746
v 0.937145 3.000000 0.151746
v 0.937145 0.448872 0.151746
v 0.937145 2.483549 0.151746
v -0.937145 2.250000 0.151746
v -0.937145 0.750000 0.151746
v 0.353553 0.000000 0.183174
v 0.000000 0.000000 0.214602
v 0.353553 3.000000 0.183174
v 0.000000 3.000000 0.214602
v 3.499043 0.448872 0.151746
v 3.499043 2.483549 0.151746
v 3.432869 2.483549 0.151746
v 3.432869 0.448872 0.151746
v 1.077828 0.448872 0.151746
v 1.077828 2.483549 0.151746
v 0.112843 3.000000 0.204571
v 0.112843 0.000000 0.204571
v 0.937145 2.935695 0.151746
v -0.937145 2.906615 0.151746
v -0.937145 0.100407 0.151746
v 0.937145 0.060093 0.151746
v 0.930407 0.061010 -0.168013
v -0.930407 0.100407 -0.168013
v -0.930407 2.906615 -0.168013
v 0.930407 2.934945 -0.168013
v 0.112843 0.000000 -0.226501
v 0.112843 3.000000 -0.226501
v 1.071460 2.477528 -0.168013
v 1.071460 0.455719 -0.168013
v 3.432695 0.455719 -0.168013
v 3.432695 2.477528 -0.168013
v 3.499043 2.477528 -0.168013
v 0.000000 3.000000 -0.237607
v 0.353553 3.000000 -0.202810
v 0.000000 0.000000 -0.237607
v 0.353553 0.000000 -0.202810
v -0.930407 0.750000 -0.168013
v -0.930407 2.250000 -0.168013
v 0.930407 2.477528 -0.168013
v 0.930407 0.455719 -0.168013
v 3.499043 0.455719 -0.168013
v 0.930407 3.000000 -0.168013
v -0.930407 3.000000 -0.168013
v 0.930407 0.000000 -0.168013
v -0.930407 0.000000 -0.168013
vn 0.9239 0.0000 0.3827
vn -0.3827 0.0000 0.9239
vn 0.9239 0.0000 -0.3827
vn -0.9239 0.0000 -0.3827
vn 0.3827 -0.0000 0.9239
vn -0.9239 0.0000 0.3827
vn -0.3827 0.0000 -0.9239
vn 0.3827 0.0000 -0.9239
vn 0.0000 -0.9108 -0.4128
vn 0.0000 0.0000 1.0000
vn 0.0000 0.9879 -0.1551
vn 0.0000 -0.3989 -0.9170
vn 0.0000 -1.0000 0.0000
vn 0.0000 1.0000 -0.0000
vn 0.0000 0.9879 0.1551
vn 0.0000 0.4467 -0.8947
vn 0.0000 0.0000 -1.0000
vn 0.0000 -0.9108 0.4128
vn 0.0000 -0.9217 -0.3879
vn 0.0000 -0.3989 0.9170
vn 0.0000 -0.9217 0.3879
vn 0.0000 0.4467 0.8947
vn 0.0000 0.9378 0.3471
vn 1.0000 0.0000 0.0000
vn 0.0000 0.9378 -0.3471
usemtl None
s off
f 156//1 125//1 17//1 137//1
f 116//2 110//2 13//2 12//2
f 7//3 179//3 157//3 125//3
f 159//4 111//4 11//4 178//4
f 129//5 121//5 22//5 29//5
f 154//6 116//6 12//6 135//6
f 113//7 115//7 10//7 9//7
f 132//8 124//8 20//8 89//8
f 65//9 61//9 55//9 53//9
f 157//3 127//3 25//3 175//3
f 63//10 64//10 51//10 52//10
f 153//1 109//1 15//1 136//1
f 66//11 67//11 54//11 56//11
f 120//8 113//8 9//8 93//8
f 104//12 62//12 48//12 97//12
f 117//5 114//5 14//5 37//5
f 20//7 31//7 32//7 19//7
f 124//7 123//7 31//7 20//7
f 35//2 23//2 24//2 36//2
f 122//2 126//2 23//2 35//2
f 140//6 35//6 36//6 139//6
f 155//6 122//6 35//6 140//6
f 160//3 112//3 16//3 177//3
f 172//4 34//4 33//4 173//4
f 119//5 117//5 37//5 88//5
f 131//5 129//5 29//5 91//5
f 112//8 118//8 39//8 16//8
f 127//8 130//8 27//8 25//8
f 158//4 128//4 34//4 172//4
f 152//13 141//13 38//13 87//13
f 141//13 41//13 7//13 134//13
f 171//13 40//13 8//13 179//13
f 133//13 142//13 5//13 4//13
f 161//13 171//13 41//13 95//13
f 143//14 37//14 14//14 136//14
f 151//14 88//14 37//14 143//14
f 180//13 170//13 42//13 3//13
f 169//14 43//14 15//14 177//14
f 135//14 12//14 13//14 144//14
f 162//14 96//14 43//14 169//14
f 59//15 60//15 58//15 49//15
f 103//16 66//16 56//16 98//16
f 178//14 11//14 44//14 168//14
f 62//17 68//17 47//17 48//17
f 70//18 71//18 50//18 57//18
f 165//19 65//19 53//19 176//19
f 102//20 70//20 57//20 99//20
f 148//21 69//21 45//21 145//21
f 101//22 63//22 52//22 100//22
f 147//23 59//23 49//23 146//23
f 98//24 97//24 48//24 47//24
f 166//25 72//25 46//25 167//25
f 54//24 53//24 55//24 56//24
f 57//24 50//24 49//24 58//24
f 99//24 57//24 58//24 100//24
f 146//24 145//24 45//24 46//24
f 150//23 73//23 59//23 147//23
f 108//22 75//22 63//22 101//22
f 149//21 79//21 69//21 148//21
f 107//20 80//20 70//20 102//20
f 167//24 176//24 53//24 54//24
f 80//18 85//18 71//18 70//18
f 82//17 78//17 68//17 62//17
f 163//25 86//25 72//25 166//25
f 106//16 77//16 66//16 103//16
f 73//15 81//15 60//15 59//15
f 105//12 82//12 62//12 104//12
f 77//11 84//11 67//11 66//11
f 75//10 83//10 64//10 63//10
f 76//9 74//9 61//9 65//9
f 25//9 27//9 74//9 76//9
f 24//10 23//10 83//10 75//10
f 28//11 26//11 84//11 77//11
f 89//12 20//12 82//12 105//12
f 21//15 30//15 81//15 73//15
f 90//16 28//16 77//16 106//16
f 164//19 76//19 65//19 165//19
f 20//17 19//17 78//17 82//17
f 29//18 22//18 85//18 80//18
f 175//19 25//19 76//19 164//19
f 91//20 29//20 80//20 107//20
f 137//21 17//21 79//21 149//21
f 92//22 24//22 75//22 108//22
f 138//23 21//23 73//23 150//23
f 30//22 92//22 108//22 81//22
f 23//20 91//20 107//20 83//20
f 19//16 90//16 106//16 78//16
f 27//12 89//12 105//12 74//12
f 74//12 105//12 104//12 61//12
f 78//16 106//16 103//16 68//16
f 83//20 107//20 102//20 64//20
f 81//22 108//22 101//22 60//22
f 51//24 99//24 100//24 52//24
f 56//24 55//24 97//24 98//24
f 60//22 101//22 100//22 58//22
f 64//20 102//20 99//20 51//20
f 68//16 103//16 98//16 47//16
f 174//25 18//25 86//25 163//25
f 144//14 13//14 88//14 151//14
f 168//14 44//14 96//14 162//14
f 142//13 152//13 87//13 5//13
f 126//5 131//5 91//5 23//5
f 110//5 119//5 88//5 13//5
f 61//12 104//12 97//12 55//12
f 118//8 120//8 93//8 39//8
f 130//8 132//8 89//8 27//8
f 28//8 90//8 120//8 118//8
f 24//5 92//5 119//5 110//5
f 26//8 28//8 118//8 112//8
f 92//5 30//5 117//5 119//5
f 30//5 21//5 114//5 117//5
f 90//8 19//8 113//8 120//8
f 138//1 18//1 109//1 153//1
f 170//13 161//13 95//13 42//13
f 19//7 32//7 115//7 113//7
f 139//6 36//6 116//6 154//6
f 174//3 26//3 112//3 160//3
f 36//2 24//2 110//2 116//2
f 40//8 94//8 132//8 130//8
f 5//5 87//5 131//5 126//5
f 8//8 40//8 130//8 127//8
f 87//5 38//5 129//5 131//5
f 173//4 33//4 111//4 159//4
f 133//6 4//6 122//6 155//6
f 4//2 5//2 126//2 122//2
f 1//7 2//7 123//7 124//7
f 94//8 1//8 124//8 132//8
f 38//5 6//5 121//5 129//5
f 180//4 3//4 128//4 158//4
f 134//1 7//1 125//1 156//1
f 6//1 134//1 156//1 121//1
f 3//6 133//6 155//6 128//6
f 33//6 139//6 154//6 111//6
f 21//1 138//1 153//1 114//1
f 42//13 95//13 152//13 142//13
f 44//14 144//14 151//14 96//14
f 18//23 138//23 150//23 86//23
f 22//21 137//21 149//21 85//21
f 85//21 149//21 148//21 71//21
f 86//23 150//23 147//23 72//23
f 49//24 50//24 145//24 146//24
f 72//23 147//23 146//23 46//23
f 71//21 148//21 145//21 50//21
f 11//14 135//14 144//14 44//14
f 96//14 151//14 143//14 43//14
f 43//14 143//14 136//14 15//14
f 3//13 42//13 142//13 133//13
f 38//13 141//13 134//13 6//13
f 95//13 41//13 141//13 152//13
f 128//6 155//6 140//6 34//6
f 34//6 140//6 139//6 33//6
f 114//1 153//1 136//1 14//1
f 111//6 154//6 135//6 11//6
f 121//1 156//1 137//1 22//1
f 115//4 159//4 178//4 10//4
f 125//3 157//3 175//3 17//3
f 109//3 160//3 177//3 15//3
f 31//4 172//4 173//4 32//4
f 123//4 158//4 172//4 31//4
f 41//13 171//13 179//13 7//13
f 94//13 40//13 171//13 161//13
f 2//13 1//13 170//13 180//13
f 39//14 169//14 177//14 16//14
f 93//14 162//14 169//14 39//14
f 10//14 178//14 168//14 9//14
f 69//19 165//19 176//19 45//19
f 67//25 166//25 167//25 54//25
f 46//24 45//24 176//24 167//24
f 84//25 163//25 166//25 67//25
f 79//19 164//19 165//19 69//19
f 17//19 175//19 164//19 79//19
f 26//25 174//25 163//25 84//25
f 9//14 168//14 162//14 93//14
f 1//13 94//13 161//13 170//13
f 18//3 174//3 160//3 109//3
f 32//4 173//4 159//4 115//4
f 2//4 180//4 158//4 123//4
f 179//3 8//3 127//3 157//3
