# Blender v2.79 (sub 0) OBJ File: 'exe-01 893145.blend'
# www.blender.org
mtllib 893145-02.mtl
o Cube_Cube.001
v 1.221123 1.840720 0.959748
v 1.221123 3.840720 0.959748
v 1.221123 1.840720 -1.040252
v 1.221123 3.840720 -1.040252
v 1.621123 1.840720 0.959748
v 1.621123 3.840720 0.959748
v 1.621123 1.840720 -1.040252
v 1.621123 3.840720 -1.040252
v 1.221123 1.840720 -0.640252
v 1.221123 3.840720 -0.640252
v 1.621123 1.840720 -0.640252
v 1.621123 3.840720 -0.640252
v 3.321123 3.840720 -1.040252
v 3.321123 1.840720 -1.040252
v 3.321123 1.840720 -0.640252
v 3.321123 3.840720 -0.640252
vn -1.0000 0.0000 0.0000
vn 0.0000 0.0000 -1.0000
vn 1.0000 0.0000 0.0000
vn 0.0000 0.0000 1.0000
vn 0.0000 -1.0000 0.0000
vn 0.0000 1.0000 0.0000
usemtl None
s off
f 9//1 10//1 4//1 3//1
f 3//2 4//2 8//2 7//2
f 11//3 12//3 6//3 5//3
f 5//4 6//4 2//4 1//4
f 9//5 11//5 5//5 1//5
f 12//6 10//6 2//6 6//6
f 8//6 4//6 10//6 12//6
f 3//5 7//5 11//5 9//5
f 7//2 8//2 13//2 14//2
f 1//1 2//1 10//1 9//1
f 14//3 13//3 16//3 15//3
f 8//6 12//6 16//6 13//6
f 11//5 7//5 14//5 15//5
f 12//4 11//4 15//4 16//4
