# Blender v2.79 (sub 0) OBJ File: 'exe-01 893145.blend'
# www.blender.org
mtllib 893145-07 LP.mtl
o Cube_Cube.006
v 1.460316 -0.514879 0.321229
v 1.460316 1.485121 0.321229
v 1.460316 -0.514879 -1.678771
v 1.460316 1.485121 -1.678771
v 1.860317 -0.514879 0.321229
v 1.860317 1.485121 0.321229
v 1.860317 -0.514879 -1.678771
v 1.860317 1.485121 -1.678771
v 1.460316 -0.514879 -0.078771
v 1.460316 1.485121 -0.078771
v 1.860317 -0.514879 -0.078771
v 1.860317 1.485121 -0.078771
v 3.260316 1.485121 -0.078771
v 3.260316 1.485121 0.321229
v 3.260316 -0.514879 0.321229
v 3.260316 -0.514879 -0.078771
v 1.460316 1.485121 -1.118771
v 1.860317 -0.514879 -1.118771
v 1.460316 -0.514879 -1.118771
v 1.860317 1.485121 -1.118771
v 1.460316 -0.514879 -0.598771
v 1.860317 1.485121 -0.598771
v 1.460316 1.485121 -0.598770
v 1.860317 -0.514879 -0.598770
v 1.460316 -0.014879 0.321229
v 1.460316 -0.014879 -1.678771
v 1.860317 -0.014879 -1.678771
v 1.860317 -0.014879 0.321229
v 1.860317 -0.014879 -0.078771
v 1.460316 -0.014879 -0.078771
v 3.260316 -0.014879 0.321229
v 3.260316 -0.014879 -0.078771
v 1.860317 -0.014879 -1.118771
v 1.460316 -0.014879 -1.118771
v 1.460316 -0.014879 -0.598771
v 1.860317 -0.014879 -0.598770
v 2.350317 1.485121 0.321229
v 2.350317 1.485121 -0.078771
v 2.350317 -0.514879 0.321229
v 2.350317 -0.514879 -0.078771
v 2.350317 -0.014879 -0.078771
v 2.350317 -0.014879 0.321229
v 2.759816 1.485121 0.321229
v 2.759816 -0.514879 0.321229
v 2.759816 -0.014879 -0.078771
v 2.759816 -0.014879 0.321229
v 2.759816 1.485121 -0.078771
v 2.759816 -0.514879 -0.078771
v 1.460316 0.285121 0.321229
v 1.860317 0.285121 0.321229
v 1.860317 0.285121 -0.078771
v 1.460316 0.285121 -0.078771
v 3.260316 0.285121 0.321229
v 3.260316 0.285121 -0.078771
v 1.460316 0.285121 -0.598771
v 1.860317 0.285121 -0.598770
v 2.350317 0.285121 0.321229
v 2.350317 0.285121 -0.078771
v 2.759816 0.285121 0.321229
v 2.759816 0.285121 -0.078771
v 1.460316 0.645121 0.321229
v 2.350317 0.645121 0.321229
v 2.759816 0.645121 0.321229
v 1.860317 0.645121 0.321229
v 1.860317 0.645121 -0.078771
v 1.460316 0.645121 -0.078771
v 3.260316 0.645121 0.321229
v 3.260316 0.645121 -0.078771
v 1.460316 0.645121 -0.598770
v 1.860317 0.645121 -0.598771
v 2.350317 0.645121 -0.078771
v 2.759816 0.645121 -0.078771
vn -1.0000 0.0000 0.0000
vn 0.0000 0.0000 -1.0000
vn 0.0000 1.0000 0.0000
vn 0.0000 0.0000 1.0000
vn 0.0000 -1.0000 0.0000
vn 1.0000 0.0000 0.0000
usemtl None
s off
f 34//1 17//1 4//1 26//1
f 26//2 4//2 8//2 27//2
f 47//3 43//3 14//3 13//3
f 64//4 6//4 2//4 61//4
f 9//5 11//5 5//5 1//5
f 12//3 10//3 2//3 6//3
f 22//3 23//3 10//3 12//3
f 21//5 24//5 11//5 9//5
f 70//6 22//6 12//6 65//6
f 61//1 2//1 10//1 66//1
f 68//6 13//6 14//6 67//6
f 46//4 44//4 15//4 31//4
f 72//2 47//2 13//2 68//2
f 44//5 48//5 16//5 15//5
f 27//6 8//6 20//6 33//6
f 3//5 7//5 18//5 19//5
f 8//3 4//3 17//3 20//3
f 33//4 20//4 17//4 34//4
f 66//1 10//1 23//1 69//1
f 50//4 28//4 42//4 57//4
f 19//5 18//5 24//5 21//5
f 70//2 69//2 23//2 22//2
f 18//6 33//6 36//6 24//6
f 9//1 30//1 35//1 21//1
f 21//1 35//1 34//1 19//1
f 7//6 27//6 33//6 18//6
f 48//2 45//2 32//2 16//2
f 59//4 46//4 31//4 53//4
f 16//6 32//6 31//6 15//6
f 1//1 25//1 30//1 9//1
f 24//6 36//6 29//6 11//6
f 5//4 28//4 25//4 1//4
f 3//2 26//2 27//2 7//2
f 19//1 34//1 26//1 3//1
f 11//2 29//2 41//2 40//2
f 5//5 11//5 40//5 39//5
f 65//2 12//2 38//2 71//2
f 28//4 5//4 39//4 42//4
f 12//3 6//3 37//3 38//3
f 40//2 41//2 45//2 48//2
f 39//5 40//5 48//5 44//5
f 71//2 38//2 47//2 72//2
f 42//4 39//4 44//4 46//4
f 38//3 37//3 43//3 47//3
f 29//2 51//2 58//2 41//2
f 63//4 59//4 53//4 67//4
f 36//2 35//2 55//2 56//2
f 64//4 50//4 57//4 62//4
f 30//1 52//1 55//1 35//1
f 45//2 60//2 54//2 32//2
f 32//6 54//6 53//6 31//6
f 25//1 49//1 52//1 30//1
f 36//6 56//6 51//6 29//6
f 28//4 50//4 49//4 25//4
f 6//4 64//4 62//4 37//4
f 43//4 63//4 67//4 14//4
f 37//4 62//4 63//4 43//4
f 72//5 63//5 62//5 71//5
f 51//2 65//2 71//2 58//2
f 56//2 55//2 69//2 70//2
f 52//1 66//1 69//1 55//1
f 60//2 72//2 68//2 54//2
f 54//6 68//6 67//6 53//6
f 49//1 61//1 66//1 52//1
f 56//6 70//6 65//6 51//6
f 50//4 64//4 61//4 49//4
f 60//1 45//1 46//1 59//1
f 58//6 57//6 42//6 41//6
f 72//1 60//1 59//1 63//1
f 71//6 62//6 57//6 58//6
f 33//3 34//3 35//3 36//3
