# Blender v2.79 (sub 0) OBJ File: 'exe-01 893145.blend'
# www.blender.org
mtllib 893145-04 LP.mtl
o Cube_Cube.003
v 0.275362 -0.483398 2.638041
v 0.275362 1.516602 2.638041
v 0.275362 -0.483398 0.638040
v 0.275362 1.516602 0.638040
v 0.675362 -0.483398 2.638041
v 0.675362 1.516602 2.638041
v 0.675362 -0.483398 0.638040
v 0.675362 1.516602 0.638040
v 0.275362 -0.483398 2.338040
v 0.275362 1.516602 2.338040
v 0.675362 -0.483398 2.338040
v 0.675362 1.516602 2.338040
v 0.275362 1.516602 0.978040
v 0.675362 -0.483398 0.978040
v 0.275362 -0.483398 0.978040
v 0.675362 1.516602 0.978040
v 1.675362 1.516602 0.638040
v 1.675362 -0.483398 0.638040
v 1.675362 -0.483398 0.978040
v 1.675362 1.516602 2.338040
v 1.675362 1.516602 2.638041
v 1.675362 -0.483398 2.638041
v 1.675362 -0.483398 2.338040
v 1.675362 1.516602 0.978040
vn -1.0000 0.0000 0.0000
vn 0.0000 0.0000 -1.0000
vn 0.0000 1.0000 0.0000
vn 0.0000 0.0000 1.0000
vn 0.0000 -1.0000 0.0000
vn 1.0000 0.0000 0.0000
usemtl None
s off
f 15//1 13//1 4//1 3//1
f 3//2 4//2 8//2 7//2
f 12//3 6//3 21//3 20//3
f 5//4 6//4 2//4 1//4
f 9//5 11//5 5//5 1//5
f 12//3 10//3 2//3 6//3
f 16//3 13//3 10//3 12//3
f 15//5 14//5 11//5 9//5
f 14//6 16//6 12//6 11//6
f 1//1 2//1 10//1 9//1
f 8//3 16//3 24//3 17//3
f 3//5 7//5 14//5 15//5
f 8//3 4//3 13//3 16//3
f 9//1 10//1 13//1 15//1
f 23//6 20//6 21//6 22//6
f 18//6 17//6 24//6 19//6
f 7//2 8//2 17//2 18//2
f 16//4 14//4 19//4 24//4
f 6//4 5//4 22//4 21//4
f 11//2 12//2 20//2 23//2
f 14//5 7//5 18//5 19//5
f 5//5 11//5 23//5 22//5
