# Blender v2.79 (sub 0) OBJ File: ''
# www.blender.org
mtllib 893145-14-LP.mtl
o Cylinder_Cylinder.024
v -3.797441 1.716001 -2.273366
v -3.797441 2.716225 -2.273366
v -3.090334 1.716001 -1.980473
v -3.090334 2.716225 -1.980473
v -2.797441 1.716001 -1.273366
v -2.797441 2.716225 -1.273366
v -3.090334 1.716001 -0.566260
v -3.090334 2.716225 -0.566260
v -3.797441 1.716001 -0.273366
v -3.797441 2.716225 -0.273366
v -4.504548 1.716001 -0.566260
v -4.504548 2.716225 -0.566260
v -4.797441 1.716001 -1.273366
v -4.797441 2.716225 -1.273366
v -4.504548 1.716001 -1.980473
v -4.504548 2.716225 -1.980473
v -3.797441 1.716001 -1.945292
v -3.322318 1.716001 -1.748489
v -3.125515 1.716001 -1.273366
v -3.322318 1.716001 -0.798244
v -3.797441 1.716001 -0.601441
v -4.272564 1.716001 -0.798244
v -4.469366 1.716001 -1.273366
v -4.272564 1.716001 -1.748489
v -3.797441 1.413057 -1.945292
v -3.322318 1.413057 -1.748489
v -3.125515 1.413057 -1.273366
v -3.322318 1.413057 -0.798244
v -3.797441 1.413057 -0.601441
v -4.272564 1.413057 -0.798244
v -4.469366 1.413057 -1.273366
v -4.272564 1.413057 -1.748489
v -3.797441 1.025415 -2.135088
v -3.188111 1.025415 -1.882696
v -2.935719 1.025415 -1.273366
v -3.188111 1.025415 -0.664037
v -3.797441 1.025415 -0.411645
v -4.406770 1.025415 -0.664037
v -4.659163 1.025415 -1.273366
v -4.406770 1.025415 -1.882696
v -3.797441 0.228032 -2.781445
v -2.731068 0.228032 -2.339739
v -2.289362 0.228032 -1.273366
v -2.731068 0.228032 -0.206994
v -3.797441 0.228032 0.234712
v -4.863814 0.228032 -0.206994
v -5.305520 0.228032 -1.273366
v -4.863814 0.228032 -2.339739
v -3.797441 -0.598444 -3.549349
v -2.188078 -0.598444 -2.882729
v -1.521458 -0.598444 -1.273366
v -2.188078 -0.598444 0.335996
v -3.797441 -0.598444 1.002616
v -5.406804 -0.598444 0.335996
v -6.073423 -0.598444 -1.273366
v -5.406804 -0.598444 -2.882729
v -3.797441 -1.225831 -4.057143
v -1.829014 -1.225831 -3.241793
v -1.013664 -1.225831 -1.273366
v -1.829014 -1.225831 0.695060
v -3.797441 -1.225831 1.510410
v -5.765868 -1.225831 0.695060
v -6.581217 -1.225831 -1.273366
v -5.765868 -1.225831 -3.241793
v -3.797441 -2.743289 -4.057143
v -1.829014 -2.743289 -3.241793
v -1.013664 -2.743289 -1.273366
v -1.829014 -2.743289 0.695060
v -3.797441 -2.743289 1.510410
v -5.765868 -2.743289 0.695060
v -6.581217 -2.743289 -1.273366
v -5.765868 -2.743289 -3.241793
v -3.797441 -6.860376 -4.057143
v -1.829014 -6.860376 -3.241793
v -1.013664 -6.860376 -1.273366
v -1.829014 -6.860376 0.695060
v -3.797441 -6.860376 1.510410
v -5.765868 -6.860376 0.695060
v -6.581217 -6.860376 -1.273366
v -5.765868 -6.860376 -3.241793
v -5.689471 -0.185206 -1.273366
v -5.135309 -0.185206 0.064501
v -3.797441 -0.185206 0.618664
v -2.459573 -0.185206 0.064501
v -1.905410 -0.185206 -1.273366
v -2.459573 -0.185206 -2.611234
v -5.135309 -0.185206 -2.611234
v -3.797441 -0.185206 -3.165397
v -5.765868 -1.984560 -3.241793
v -6.581217 -1.984560 -1.273366
v -5.765868 -1.984560 0.695060
v -3.797441 -1.984560 1.510410
v -1.829014 -1.984560 0.695060
v -1.013664 -1.984560 -1.273366
v -1.829014 -1.984560 -3.241793
v -3.797441 -1.984560 -4.057143
v -1.013664 -6.766885 -1.273366
v -1.829014 -6.766885 -3.241793
v -5.765868 -6.766885 -3.241793
v -6.581217 -6.766885 -1.273366
v -5.765868 -6.766885 0.695060
v -3.797441 -6.766885 1.510410
v -1.829014 -6.766885 0.695060
v -3.797441 -6.766885 -4.057143
v -3.797441 2.663312 -2.273366
v -3.090334 2.663312 -1.980473
v -2.797441 2.663312 -1.273366
v -3.090334 2.663312 -0.566260
v -3.797441 2.663312 -0.273366
v -4.504548 2.663312 -0.566260
v -4.797441 2.663312 -1.273366
v -4.504548 2.663312 -1.980473
v -3.090334 1.795113 -1.980473
v -2.797441 1.795113 -1.273366
v -3.090334 1.795113 -0.566260
v -3.797441 1.795113 -0.273366
v -4.504548 1.795113 -0.566260
v -4.797441 1.795113 -1.273366
v -4.504548 1.795113 -1.980473
v -3.797441 1.795113 -2.273366
v -2.163531 -0.641335 -2.907276
v -3.797441 -0.641335 -3.584064
v -5.431351 -0.641335 -2.907276
v -6.108138 -0.641335 -1.273366
v -5.431351 -0.641335 0.360543
v -3.797441 -0.641335 1.037331
v -2.163531 -0.641335 0.360543
v -1.486743 -0.641335 -1.273366
v -1.864643 -1.163577 -3.206164
v -6.530829 -1.163577 -1.273366
v -3.797441 -1.163577 1.460023
v -1.064051 -1.163577 -1.273366
v -3.797441 -1.163577 -4.006756
v -5.730239 -1.163577 -3.206164
v -5.730239 -1.163577 0.659431
v -1.864643 -1.163577 0.659431
v -4.425893 0.992053 -1.901818
v -4.686206 0.992053 -1.273366
v -4.425893 0.992053 -0.644915
v -3.797441 0.992053 -0.384601
v -3.168989 0.992053 -0.644915
v -2.908675 0.992053 -1.273366
v -3.168989 0.992053 -1.901818
v -3.797441 0.992053 -2.162132
v -3.797441 1.684039 -1.945292
v -4.272564 1.684039 -1.748489
v -4.469366 1.684039 -1.273366
v -4.272564 1.684039 -0.798244
v -3.797441 1.684039 -0.601441
v -3.322318 1.684039 -0.798244
v -3.125515 1.684039 -1.273366
v -3.322318 1.684039 -1.748489
v -3.797441 1.436229 -1.945292
v -4.469366 1.436229 -1.273366
v -3.797441 1.436229 -0.601441
v -3.125515 1.436229 -1.273366
v -4.272564 1.436229 -1.748489
v -4.272564 1.436229 -0.798244
v -3.322318 1.436229 -0.798244
v -3.322318 1.436229 -1.748489
v -3.797441 -0.902456 -3.795410
v -5.580795 -0.902456 -3.056720
v -5.580795 -0.902456 0.509987
v -2.014087 -0.902456 0.509987
v -2.014087 -0.902456 -3.056720
v -6.319484 -0.902456 -1.273366
v -3.797441 -0.902456 1.248677
v -1.275397 -0.902456 -1.273366
v -6.581217 -1.282253 -1.273366
v -3.797441 -1.282253 1.510410
v -1.013664 -1.282253 -1.273366
v -3.797441 -1.282253 -4.057143
v -5.765868 -1.282253 -3.241793
v -5.765868 -1.282253 0.695060
v -1.829014 -1.282253 0.695060
v -1.829014 -1.282253 -3.241793
v -5.765868 -1.923308 -3.241793
v -5.765868 -1.923308 0.695060
v -1.829014 -1.923308 0.695060
v -1.829014 -1.923308 -3.241793
v -6.581217 -1.923308 -1.273366
v -3.797441 -1.923308 1.510410
v -1.013664 -1.923308 -1.273366
v -3.797441 -1.923308 -4.057143
v -1.829014 -6.596454 -3.241793
v -6.581217 -6.596454 -1.273366
v -3.797441 -6.596454 1.510410
v -3.797441 -6.596454 -4.057143
v -1.013664 -6.596454 -1.273366
v -5.765868 -6.596454 -3.241793
v -5.765868 -6.596454 0.695060
v -1.829014 -6.596454 0.695060
vn 0.3827 0.0000 -0.9239
vn 0.9239 0.0000 -0.3827
vn 0.9239 0.0000 0.3827
vn 0.3827 0.0000 0.9239
vn -0.3827 0.0000 0.9239
vn -0.9239 0.0000 0.3827
vn 0.0000 1.0000 0.0000
vn -0.9239 0.0000 -0.3827
vn -0.3827 0.0000 -0.9239
vn 0.0000 -1.0000 0.0000
vn -0.3487 0.4121 0.8418
vn -0.7395 0.5994 -0.3063
vn 0.8418 0.4121 0.3487
vn 0.3487 0.4121 -0.8418
vn -0.3487 0.4121 -0.8418
vn -0.8418 0.4121 0.3487
vn 0.3487 0.4121 0.8418
vn 0.8418 0.4121 -0.3487
vn -0.8418 0.4121 -0.3487
vn -0.7010 0.6513 0.2904
vn -0.3063 0.5994 0.7395
vn 0.7395 0.5994 0.3063
vn 0.3063 0.5994 -0.7395
vn -0.3063 0.5994 -0.7395
vn -0.7395 0.5994 0.3063
vn 0.3063 0.5994 0.7395
vn 0.7395 0.5994 -0.3063
vn 0.3065 0.5989 -0.7399
vn 0.2904 0.6513 0.7010
vn 0.7010 0.6513 -0.2904
vn -0.7010 0.6513 -0.2904
vn -0.2904 0.6513 0.7010
vn 0.7010 0.6513 0.2904
vn 0.2904 0.6513 -0.7010
vn -0.2904 0.6513 -0.7010
vn -0.3065 0.5989 -0.7399
vn -0.7399 0.5989 0.3065
vn 0.3065 0.5989 0.7399
vn 0.7399 0.5989 -0.3065
vn -0.7399 0.5989 -0.3065
vn -0.3065 0.5989 0.7399
vn 0.7399 0.5989 0.3065
usemtl None
s off
f 105//1 2//1 4//1 106//1
f 106//2 4//2 6//2 107//2
f 107//3 6//3 8//3 108//3
f 108//4 8//4 10//4 109//4
f 109//5 10//5 12//5 110//5
f 110//6 12//6 14//6 111//6
f 4//7 2//7 16//7 14//7 12//7 10//7 8//7 6//7
f 111//8 14//8 16//8 112//8
f 112//9 16//9 2//9 105//9
f 15//10 1//10 17//10 24//10
f 157//9 153//9 25//9 32//9
f 1//10 3//10 18//10 17//10
f 5//10 7//10 20//10 19//10
f 11//10 13//10 23//10 22//10
f 7//10 9//10 21//10 20//10
f 13//10 15//10 24//10 23//10
f 3//10 5//10 19//10 18//10
f 9//10 11//10 22//10 21//10
f 29//11 30//11 38//11 37//11
f 158//6 154//6 31//6 30//6
f 159//4 155//4 29//4 28//4
f 160//2 156//2 27//2 26//2
f 154//8 157//8 32//8 31//8
f 155//5 158//5 30//5 29//5
f 156//3 159//3 28//3 27//3
f 153//1 160//1 26//1 25//1
f 138//12 137//12 48//12 47//12
f 27//13 28//13 36//13 35//13
f 25//14 26//14 34//14 33//14
f 32//15 25//15 33//15 40//15
f 30//16 31//16 39//16 38//16
f 28//17 29//17 37//17 36//17
f 26//18 27//18 35//18 34//18
f 31//19 32//19 40//19 39//19
f 82//20 81//20 55//20 54//20
f 140//21 139//21 46//21 45//21
f 142//22 141//22 44//22 43//22
f 144//23 143//23 42//23 41//23
f 137//24 144//24 41//24 48//24
f 139//25 138//25 47//25 46//25
f 141//26 140//26 45//26 44//26
f 143//27 142//27 43//27 42//27
f 133//28 129//28 58//28 57//28
f 84//29 83//29 53//29 52//29
f 86//30 85//30 51//30 50//30
f 81//31 87//31 56//31 55//31
f 83//32 82//32 54//32 53//32
f 85//33 84//33 52//33 51//33
f 88//34 86//34 50//34 49//34
f 87//35 88//35 49//35 56//35
f 90//8 89//8 72//8 71//8
f 134//36 133//36 57//36 64//36
f 135//37 130//37 63//37 62//37
f 136//38 131//38 61//38 60//38
f 129//39 132//39 59//39 58//39
f 130//40 134//40 64//40 63//40
f 131//41 135//41 62//41 61//41
f 132//42 136//42 60//42 59//42
f 98//2 97//2 75//2 74//2
f 92//5 91//5 70//5 69//5
f 94//3 93//3 68//3 67//3
f 96//1 95//1 66//1 65//1
f 89//9 96//9 65//9 72//9
f 91//6 90//6 71//6 70//6
f 93//4 92//4 69//4 68//4
f 95//2 94//2 67//2 66//2
f 73//10 74//10 75//10 76//10 77//10 78//10 79//10 80//10
f 100//8 99//8 80//8 79//8
f 102//5 101//5 78//5 77//5
f 97//3 103//3 76//3 75//3
f 104//1 98//1 74//1 73//1
f 99//9 104//9 73//9 80//9
f 101//6 100//6 79//6 78//6
f 103//4 102//4 77//4 76//4
f 48//35 41//35 88//35 87//35
f 41//34 42//34 86//34 88//34
f 43//33 44//33 84//33 85//33
f 45//32 46//32 82//32 83//32
f 47//31 48//31 87//31 81//31
f 42//30 43//30 85//30 86//30
f 44//29 45//29 83//29 84//29
f 46//20 47//20 81//20 82//20
f 180//2 183//2 94//2 95//2
f 179//4 182//4 92//4 93//4
f 178//6 181//6 90//6 91//6
f 177//9 184//9 96//9 89//9
f 184//1 180//1 95//1 96//1
f 183//3 179//3 93//3 94//3
f 182//5 178//5 91//5 92//5
f 181//8 177//8 89//8 90//8
f 192//4 187//4 102//4 103//4
f 191//6 186//6 100//6 101//6
f 190//9 188//9 104//9 99//9
f 188//1 185//1 98//1 104//1
f 189//3 192//3 103//3 97//3
f 187//5 191//5 101//5 102//5
f 186//8 190//8 99//8 100//8
f 185//2 189//2 97//2 98//2
f 119//9 112//9 105//9 120//9
f 118//8 111//8 112//8 119//8
f 117//6 110//6 111//6 118//6
f 116//5 109//5 110//5 117//5
f 115//4 108//4 109//4 116//4
f 114//3 107//3 108//3 115//3
f 113//2 106//2 107//2 114//2
f 120//1 105//1 106//1 113//1
f 1//1 120//1 113//1 3//1
f 3//2 113//2 114//2 5//2
f 5//3 114//3 115//3 7//3
f 7//4 115//4 116//4 9//4
f 9//5 116//5 117//5 11//5
f 11//6 117//6 118//6 13//6
f 13//8 118//8 119//8 15//8
f 15//9 119//9 120//9 1//9
f 51//42 52//42 127//42 128//42
f 53//41 54//41 125//41 126//41
f 55//40 56//40 123//40 124//40
f 50//39 51//39 128//39 121//39
f 52//38 53//38 126//38 127//38
f 54//37 55//37 124//37 125//37
f 56//36 49//36 122//36 123//36
f 49//28 50//28 121//28 122//28
f 168//42 164//42 136//42 132//42
f 167//41 163//41 135//41 131//41
f 166//40 162//40 134//40 130//40
f 165//39 168//39 132//39 129//39
f 164//38 167//38 131//38 136//38
f 163//37 166//37 130//37 135//37
f 162//36 161//36 133//36 134//36
f 161//28 165//28 129//28 133//28
f 34//27 35//27 142//27 143//27
f 36//26 37//26 140//26 141//26
f 38//25 39//25 138//25 139//25
f 40//24 33//24 144//24 137//24
f 33//23 34//23 143//23 144//23
f 35//22 36//22 141//22 142//22
f 37//21 38//21 139//21 140//21
f 39//12 40//12 137//12 138//12
f 17//1 18//1 152//1 145//1
f 19//3 20//3 150//3 151//3
f 21//5 22//5 148//5 149//5
f 23//8 24//8 146//8 147//8
f 18//2 19//2 151//2 152//2
f 20//4 21//4 149//4 150//4
f 22//6 23//6 147//6 148//6
f 24//9 17//9 145//9 146//9
f 145//1 152//1 160//1 153//1
f 151//3 150//3 159//3 156//3
f 149//5 148//5 158//5 155//5
f 147//8 146//8 157//8 154//8
f 152//2 151//2 156//2 160//2
f 150//4 149//4 155//4 159//4
f 148//6 147//6 154//6 158//6
f 146//9 145//9 153//9 157//9
f 122//28 121//28 165//28 161//28
f 123//36 122//36 161//36 162//36
f 125//37 124//37 166//37 163//37
f 127//38 126//38 167//38 164//38
f 121//39 128//39 168//39 165//39
f 124//40 123//40 162//40 166//40
f 126//41 125//41 163//41 167//41
f 128//42 127//42 164//42 168//42
f 63//8 64//8 173//8 169//8
f 61//5 62//5 174//5 170//5
f 59//3 60//3 175//3 171//3
f 57//1 58//1 176//1 172//1
f 64//9 57//9 172//9 173//9
f 62//6 63//6 169//6 174//6
f 60//4 61//4 170//4 175//4
f 58//2 59//2 171//2 176//2
f 169//8 173//8 177//8 181//8
f 170//5 174//5 178//5 182//5
f 171//3 175//3 179//3 183//3
f 172//1 176//1 180//1 184//1
f 173//9 172//9 184//9 177//9
f 174//6 169//6 181//6 178//6
f 175//4 170//4 182//4 179//4
f 176//2 171//2 183//2 180//2
f 66//2 67//2 189//2 185//2
f 71//8 72//8 190//8 186//8
f 69//5 70//5 191//5 187//5
f 67//3 68//3 192//3 189//3
f 65//1 66//1 185//1 188//1
f 72//9 65//9 188//9 190//9
f 70//6 71//6 186//6 191//6
f 68//4 69//4 187//4 192//4
l 8 14
l 6 16
l 76 79
l 75 80
