# Blender v2.79 (sub 0) OBJ File: 'exe-01 893145.blend'
# www.blender.org
mtllib 893145-05 LP.mtl
o Cube_Cube.004
v -4.006690 -1.991102 2.820741
v -4.006690 0.008898 2.820741
v -4.006690 -1.991102 0.820741
v -4.006690 0.008898 0.820741
v -3.646690 -1.991102 2.820741
v -3.646690 0.008898 2.820741
v -3.646690 -1.991102 0.820741
v -3.646690 0.008898 0.820741
v -4.006690 -1.691102 2.820741
v -4.006690 -1.691102 0.820741
v -3.646690 -1.691102 0.820741
v -3.646690 -1.691102 2.820741
v -4.006690 -1.991102 1.120741
v -4.006690 0.008898 1.120741
v -3.646690 -1.991102 1.120741
v -3.646690 0.008898 1.120741
v -3.646690 -1.691102 1.120741
v -4.006690 -1.691102 1.120741
v -1.646690 0.008898 0.820741
v -1.646690 -1.691102 0.820741
v -1.646690 0.008898 1.120741
v -1.646690 -1.691102 1.120741
v -1.646690 -1.691102 0.820741
v -1.646690 -1.991102 0.820741
v -1.646690 -1.991102 1.120741
v -1.646690 -1.691102 2.820741
v -1.646690 -1.991102 2.820741
v -1.646690 -1.691102 1.120741
vn -1.0000 0.0000 0.0000
vn 0.0000 0.0000 -1.0000
vn 1.0000 0.0000 0.0000
vn 0.0000 0.0000 1.0000
vn 0.0000 -1.0000 0.0000
vn 0.0000 1.0000 0.0000
usemtl None
s off
f 18//1 14//1 4//1 10//1
f 10//2 4//2 8//2 11//2
f 17//3 16//3 6//3 12//3
f 12//4 6//4 2//4 9//4
f 13//5 15//5 5//5 1//5
f 16//6 14//6 2//6 6//6
f 5//4 12//4 9//4 1//4
f 17//6 12//6 26//6 28//6
f 3//2 10//2 11//2 7//2
f 13//1 18//1 10//1 3//1
f 1//1 9//1 18//1 13//1
f 7//2 11//2 23//2 24//2
f 8//6 4//6 14//6 16//6
f 3//5 7//5 15//5 13//5
f 17//5 11//5 20//5 22//5
f 9//1 2//1 14//1 18//1
f 20//3 19//3 21//3 22//3
f 11//2 8//2 19//2 20//2
f 8//6 16//6 21//6 19//6
f 16//4 17//4 22//4 21//4
f 25//3 28//3 26//3 27//3
f 24//3 23//3 28//3 25//3
f 11//6 17//6 28//6 23//6
f 5//5 15//5 25//5 27//5
f 12//4 5//4 27//4 26//4
f 15//5 7//5 24//5 25//5
