# Blender v2.79 (sub 0) OBJ File: ''
# www.blender.org
mtllib 893145-16-LP.mtl
o Cylinder_Cylinder.017
v -6.073266 4.265137 -7.591905
v -6.073266 6.265137 -6.783724
v -4.265085 4.265137 -7.591905
v -5.366159 6.265137 -6.490831
v -4.265085 4.265137 -5.783724
v -5.073266 6.265137 -5.783724
v -4.265085 4.265137 -3.975543
v -5.366159 6.265137 -5.076618
v -6.073266 4.265137 -3.975543
v -6.073266 6.265137 -4.783724
v -7.881446 4.265137 -3.975543
v -6.780373 6.265137 -5.076618
v -7.881446 4.265137 -5.783724
v -7.073266 6.265137 -5.783724
v -7.881446 4.265137 -7.591905
v -6.780373 6.265137 -6.490831
v -6.073266 4.265137 -5.783724
v -6.073266 5.265137 -7.187815
v -4.815622 5.265137 -7.041368
v -4.669175 5.265137 -5.783724
v -4.815622 5.265137 -4.526081
v -6.073266 5.265137 -4.379634
v -7.330910 5.265137 -4.526081
v -7.477356 5.265137 -5.783724
v -7.330910 5.265137 -7.041368
v -6.073266 6.223629 -6.800497
v -5.343307 6.223629 -6.513683
v -5.056493 6.223629 -5.783724
v -5.343307 6.223629 -5.053766
v -6.073266 6.223629 -4.766952
v -6.803224 6.223629 -5.053766
v -7.090038 6.223629 -5.783724
v -6.803224 6.223629 -6.513682
v -4.302397 4.332910 -7.554593
v -4.292471 4.332910 -5.783724
v -4.302397 4.332910 -4.012856
v -6.073266 4.332910 -4.002930
v -7.844135 4.332910 -4.012856
v -7.854060 4.332910 -5.783724
v -7.844135 4.332910 -7.554593
v -6.073266 4.332910 -7.564518
v -6.073266 5.172809 -7.225123
v -4.764792 5.172809 -7.092198
v -4.631866 5.172809 -5.783724
v -4.764792 5.172809 -4.475251
v -6.073266 5.172809 -4.342325
v -7.381740 5.172809 -4.475251
v -7.514665 5.172809 -5.783724
v -7.381740 5.172809 -7.092198
v -5.316788 6.175459 -6.540202
v -5.037027 6.175459 -5.783724
v -5.316788 6.175459 -5.027246
v -6.073266 6.175459 -4.747486
v -6.829743 6.175459 -5.027246
v -7.109504 6.175459 -5.783724
v -6.829743 6.175459 -6.540202
v -6.073266 6.175459 -6.819963
v -5.169175 4.265137 -7.591905
v -5.719712 6.265137 -6.637278
v -4.265085 4.265137 -6.687815
v -5.219712 6.265137 -6.137278
v -4.265085 4.265137 -4.879634
v -5.219712 6.265137 -5.430171
v -5.169175 4.265137 -3.975543
v -5.719712 6.265137 -4.930171
v -6.977356 4.265137 -3.975543
v -6.426819 6.265137 -4.930171
v -7.881446 4.265137 -4.879634
v -6.926819 6.265137 -5.430171
v -7.881446 4.265137 -6.687815
v -6.926819 6.265137 -6.137278
v -6.977356 4.265137 -7.591905
v -6.426819 6.265137 -6.637278
v -5.719712 6.265137 -5.637278
v -6.426819 6.265137 -5.930171
v -6.977356 4.265137 -5.783724
v -5.169175 4.265137 -5.783724
v -6.073266 4.265137 -4.879634
v -6.073266 4.265137 -6.687815
v -6.702087 5.265137 -7.114592
v -7.404133 5.265137 -6.412546
v -7.404133 5.265137 -5.154902
v -6.702087 5.265137 -4.452857
v -5.444444 5.265137 -4.452857
v -4.742398 5.265137 -5.154902
v -4.742398 5.265137 -6.412546
v -5.444444 5.265137 -7.114592
v -6.438245 6.223629 -6.657090
v -6.946631 6.223629 -6.148704
v -6.946631 6.223629 -5.418745
v -6.438245 6.223629 -4.910358
v -5.708286 6.223629 -4.910358
v -5.199900 6.223629 -5.418745
v -5.199900 6.223629 -6.148704
v -5.708286 6.223629 -6.657090
v -5.187831 4.332910 -7.559556
v -4.297434 4.332910 -6.669159
v -4.297434 4.332910 -4.898290
v -5.187831 4.332910 -4.007893
v -6.958700 4.332910 -4.007893
v -7.849097 4.332910 -4.898290
v -7.849097 4.332910 -6.669159
v -6.958700 4.332910 -7.559556
v -5.419029 5.172809 -7.158661
v -4.698329 5.172809 -6.437961
v -4.698329 5.172809 -5.129488
v -5.419029 5.172809 -4.408788
v -6.727502 5.172809 -4.408788
v -7.448202 5.172809 -5.129488
v -7.448202 5.172809 -6.437961
v -6.727502 5.172809 -7.158661
v -5.695027 6.175459 -6.680082
v -5.176908 6.175459 -6.161963
v -5.176908 6.175459 -5.405485
v -5.695027 6.175459 -4.887366
v -6.451505 6.175459 -4.887366
v -6.969624 6.175459 -5.405486
v -6.969624 6.175459 -6.161963
v -6.451505 6.175459 -6.680082
v -6.977356 4.265137 -6.687815
v -6.977356 4.265137 -4.879634
v -5.169175 4.265137 -6.687815
v -6.073266 6.265137 -5.783724
v -5.469712 6.265137 -5.533724
v -5.169175 4.265137 -4.879634
v -6.676819 6.265137 -6.033724
vn 0.3210 0.4765 -0.8185
vn 0.1915 0.8590 -0.4748
vn 0.3881 0.8359 -0.3881
vn 0.5829 0.5661 -0.5829
vn 0.8185 0.4765 -0.3210
vn 0.4748 0.8590 -0.1915
vn 0.6063 0.7953 0.0000
vn 0.8964 0.4433 0.0000
vn 0.3210 0.4765 0.8185
vn 0.1915 0.8590 0.4748
vn 0.0000 0.7953 0.6063
vn 0.0000 0.4433 0.8964
vn -0.3210 0.4765 0.8185
vn -0.1915 0.8590 0.4748
vn -0.3881 0.8359 0.3881
vn -0.5829 0.5661 0.5829
vn -0.8185 0.4765 0.3210
vn -0.4748 0.8590 0.1915
vn -0.6062 0.7953 0.0000
vn -0.8964 0.4433 0.0000
vn 0.8185 0.4765 0.3210
vn 0.4748 0.8590 0.1915
vn 0.3881 0.8359 0.3881
vn 0.5829 0.5661 0.5829
vn -0.8185 0.4765 -0.3210
vn -0.4748 0.8590 -0.1915
vn -0.3881 0.8359 -0.3881
vn -0.5829 0.5661 -0.5829
vn 0.0000 1.0000 0.0000
vn -0.3210 0.4765 -0.8185
vn -0.1915 0.8590 -0.4748
vn 0.0000 0.7953 -0.6063
vn 0.0000 0.4433 -0.8964
vn -0.8929 0.4449 -0.0691
vn -0.8782 0.4572 -0.1400
vn -0.5770 0.5781 -0.5770
vn -0.5745 0.5830 -0.5745
vn -0.8929 0.4449 0.0691
vn -0.8782 0.4572 0.1400
vn -0.9076 0.4198 0.0000
vn -0.9115 0.4113 0.0000
vn -0.0691 0.4449 0.8929
vn -0.1400 0.4572 0.8782
vn -0.5770 0.5781 0.5770
vn -0.5745 0.5830 0.5745
vn 0.0691 0.4449 0.8929
vn 0.1400 0.4572 0.8782
vn 0.0000 0.4198 0.9076
vn 0.0000 0.4113 0.9115
vn -0.0691 0.4449 -0.8929
vn -0.1400 0.4572 -0.8782
vn 0.0000 0.4198 -0.9076
vn 0.0000 0.4113 -0.9115
vn 0.8929 0.4449 0.0691
vn 0.8782 0.4572 0.1400
vn 0.5770 0.5781 0.5770
vn 0.5745 0.5830 0.5745
vn 0.8929 0.4449 -0.0691
vn 0.8782 0.4572 -0.1400
vn 0.9076 0.4198 0.0000
vn 0.9115 0.4113 0.0000
vn 0.0691 0.4449 -0.8929
vn 0.1400 0.4572 -0.8782
vn 0.5770 0.5781 -0.5770
vn 0.5745 0.5830 -0.5745
vn -0.8464 0.4708 -0.2488
vn -0.5805 0.5710 -0.5805
vn -0.8464 0.4709 0.2488
vn -0.9014 0.4329 0.0000
vn -0.2488 0.4708 0.8464
vn -0.5805 0.5710 0.5805
vn 0.2488 0.4708 0.8464
vn 0.0000 0.4329 0.9014
vn -0.2488 0.4709 -0.8464
vn 0.0000 0.4329 -0.9014
vn 0.8464 0.4709 0.2488
vn 0.5805 0.5710 0.5805
vn 0.8464 0.4708 -0.2488
vn 0.9014 0.4329 0.0000
vn 0.2488 0.4708 -0.8464
vn 0.5805 0.5710 -0.5805
vn 0.0023 -0.5317 -0.8469
vn 0.0220 0.4354 -0.8999
vn 0.5727 0.5865 -0.5727
vn 0.6600 -0.3590 -0.6600
vn 0.8469 -0.5317 -0.0023
vn 0.8999 0.4354 -0.0220
vn 0.9139 0.4058 0.0000
vn 0.8377 -0.5461 0.0000
vn 0.0023 -0.5317 0.8469
vn 0.0220 0.4354 0.8999
vn 0.0000 0.4058 0.9139
vn 0.0000 -0.5461 0.8377
vn -0.0023 -0.5317 0.8469
vn -0.0220 0.4354 0.8999
vn -0.5727 0.5865 0.5727
vn -0.6600 -0.3590 0.6600
vn -0.8469 -0.5317 0.0023
vn -0.8999 0.4354 0.0220
vn -0.9139 0.4058 0.0000
vn -0.8377 -0.5461 0.0000
vn -0.8469 -0.5317 -0.0023
vn -0.8999 0.4354 -0.0220
vn -0.5727 0.5865 -0.5727
vn -0.6600 -0.3590 -0.6600
vn 0.8469 -0.5317 0.0023
vn 0.8999 0.4354 0.0220
vn 0.5727 0.5865 0.5727
vn 0.6600 -0.3590 0.6600
vn -0.0023 -0.5317 -0.8469
vn -0.0220 0.4354 -0.8999
vn 0.0000 0.4058 -0.9139
vn 0.0000 -0.5461 -0.8377
vn 0.0000 -1.0000 0.0000
usemtl None
s 1
f 95//1 59//2 4//3 27//4
f 94//5 61//6 6//7 28//8
f 92//9 65//10 10//11 30//12
f 91//13 67//14 12//15 31//16
f 90//17 69//18 14//19 32//20
f 93//21 63//22 8//23 29//24
f 89//25 71//26 16//27 33//28
f 126//29 71//26 14//19 69//18
f 88//30 73//31 2//32 26//33
f 124//29 74//29 10//11 65//10
f 123//29 75//29 12//15 67//14
f 110//34 81//35 25//36 49//37
f 109//38 82//39 24//40 48//41
f 108//42 83//43 23//44 47//45
f 107//46 84//47 22//48 46//49
f 111//50 80//51 18//52 42//53
f 106//54 85//55 21//56 45//57
f 105//58 86//59 20//60 44//61
f 104//62 87//63 19//64 43//65
f 118//66 89//25 33//28 56//67
f 117//68 90//17 32//20 55//69
f 116//70 91//13 31//16 54//71
f 115//72 92//9 30//12 53//73
f 119//74 88//30 26//33 57//75
f 114//76 93//21 29//24 52//77
f 113//78 94//5 28//8 51//79
f 112//80 95//1 27//4 50//81
f 58//82 96//83 34//84 3//85
f 60//86 97//87 35//88 5//89
f 64//90 99//91 37//92 9//93
f 66//94 100//95 38//96 11//97
f 68//98 101//99 39//100 13//101
f 70//102 102//103 40//104 15//105
f 62//106 98//107 36//108 7//109
f 72//110 103//111 41//112 1//113
f 96//83 104//62 43//65 34//84
f 97//87 105//58 44//61 35//88
f 99//91 107//46 46//49 37//92
f 100//95 108//42 47//45 38//96
f 101//99 109//38 48//41 39//100
f 102//103 110//34 49//37 40//104
f 98//107 106//54 45//57 36//108
f 103//111 111//50 42//53 41//112
f 87//63 112//80 50//81 19//64
f 86//59 113//78 51//79 20//60
f 84//47 115//72 53//73 22//48
f 83//43 116//70 54//71 23//44
f 82//39 117//68 55//69 24//40
f 81//35 118//66 56//67 25//36
f 85//55 114//76 52//77 21//56
f 25//36 56//67 119//74 80//51
f 80//51 119//74 57//75 18//52
f 24//40 55//69 118//66 81//35
f 23//44 54//71 117//68 82//39
f 22//48 53//73 116//70 83//43
f 20//60 51//79 114//76 85//55
f 19//64 50//81 113//78 86//59
f 18//52 57//75 112//80 87//63
f 40//104 49//37 111//50 103//111
f 21//56 52//77 115//72 84//47
f 39//100 48//41 110//34 102//103
f 38//96 47//45 109//38 101//99
f 37//92 46//49 108//42 100//95
f 35//88 44//61 106//54 98//107
f 34//84 43//65 105//58 97//87
f 41//112 42//53 104//62 96//83
f 15//105 40//104 103//111 72//110
f 36//108 45//57 107//46 99//91
f 13//101 39//100 102//103 70//102
f 11//97 38//96 101//99 68//98
f 9//93 37//92 100//95 66//94
f 5//89 35//88 98//107 62//106
f 3//85 34//84 97//87 60//86
f 1//113 41//112 96//83 58//82
f 57//75 26//33 95//1 112//80
f 50//81 27//4 94//5 113//78
f 51//79 28//8 93//21 114//76
f 7//109 36//108 99//91 64//90
f 52//77 29//24 92//9 115//72
f 53//73 30//12 91//13 116//70
f 54//71 31//16 90//17 117//68
f 56//67 33//28 88//30 119//74
f 42//53 18//52 87//63 104//62
f 43//65 19//64 86//59 105//58
f 44//61 20//60 85//55 106//54
f 55//69 32//20 89//25 118//66
f 45//57 21//56 84//47 107//46
f 46//49 22//48 83//43 108//42
f 47//45 23//44 82//39 109//38
f 49//37 25//36 80//51 111//50
f 48//41 24//40 81//35 110//34
f 15//105 72//110 120//114 70//102
f 70//102 120//114 76//114 13//101
f 72//110 1//113 79//114 120//114
f 13//101 76//114 121//114 68//98
f 68//98 121//114 66//94 11//97
f 76//114 17//114 78//114 121//114
f 1//113 58//82 122//114 79//114
f 79//114 122//114 77//114 17//114
f 58//82 3//85 60//86 122//114
f 59//2 2//32 75//29 123//29
f 4//3 59//2 123//29 74//29
f 61//6 4//3 74//29 124//29
f 6//7 61//6 124//29 63//22
f 17//114 77//114 125//114 78//114
f 78//114 125//114 64//90 9//93
f 33//28 16//27 73//31 88//30
f 77//114 5//89 62//106 125//114
f 32//20 14//19 71//26 89//25
f 73//31 16//27 71//26 126//29
f 2//32 73//31 126//29 75//29
f 31//16 12//15 69//18 90//17
f 30//12 10//11 67//14 91//13
f 28//8 6//7 63//22 93//21
f 27//4 4//3 61//6 94//5
f 26//33 2//32 59//2 95//1
f 75//29 126//29 69//18 12//15
f 63//22 124//29 65//10 8//23
f 74//29 123//29 67//14 10//11
f 120//114 79//114 17//114 76//114
f 121//114 78//114 9//93 66//94
f 122//114 60//86 5//89 77//114
f 125//114 62//106 7//109 64//90
f 29//24 8//23 65//10 92//9
