# Blender v2.79 (sub 0) OBJ File: 'exe-01 893145.blend'
# www.blender.org
mtllib 893145-03 LP.mtl
o Cube_Cube.002
v 1.439705 1.070190 2.746792
v 1.439705 2.670190 2.746792
v 1.439705 1.070190 0.746792
v 1.439705 2.670190 0.746792
v 1.079705 1.070190 2.746792
v 1.079705 2.670190 2.746792
v 1.079705 1.070190 0.746792
v 1.079705 2.670190 0.746792
v 1.439705 1.070190 1.946792
v 1.439705 2.670190 1.946792
v 1.079705 1.070190 1.946792
v 1.079705 2.670190 1.946792
v 1.439705 2.670190 1.586792
v 1.079705 1.070190 1.586792
v 1.439705 1.070190 1.586792
v 1.079705 2.670190 1.586792
v 2.439705 1.070190 1.586792
v 2.439705 1.070190 1.946792
v 2.439705 2.670190 1.946792
v 2.439705 2.670190 1.586792
vn 1.0000 0.0000 0.0000
vn 0.0000 0.0000 -1.0000
vn -1.0000 0.0000 0.0000
vn 0.0000 0.0000 1.0000
vn 0.0000 -1.0000 0.0000
vn 0.0000 1.0000 0.0000
usemtl None
s off
f 15//1 3//1 4//1 13//1
f 3//2 7//2 8//2 4//2
f 11//3 5//3 6//3 12//3
f 5//4 1//4 2//4 6//4
f 9//5 1//5 5//5 11//5
f 12//6 6//6 2//6 10//6
f 16//6 12//6 10//6 13//6
f 15//5 9//5 11//5 14//5
f 14//3 11//3 12//3 16//3
f 1//1 9//1 10//1 2//1
f 7//3 14//3 16//3 8//3
f 3//5 15//5 14//5 7//5
f 8//6 16//6 13//6 4//6
f 10//6 19//6 20//6 13//6
f 18//1 17//1 20//1 19//1
f 13//2 20//2 17//2 15//2
f 15//5 17//5 18//5 9//5
f 9//4 18//4 19//4 10//4
