# Blender v2.79 (sub 0) OBJ File: ''
# www.blender.org
mtllib 893401-02.mtl
o Cube
v -0.000000 -0.767513 0.236690
v -0.000000 0.767513 0.236691
v 0.235073 0.000000 0.236691
v -0.000000 0.000000 0.764411
v -0.178225 0.000000 -0.763310
v 0.000000 0.000000 -0.940389
v -0.178225 0.000000 0.236690
v 1.007199 -0.000000 -0.940389
v 0.000000 0.767513 -0.763309
v 0.000000 -0.767513 -0.763310
v 1.538837 -0.000000 -0.763309
v 1.007199 0.767513 -0.763309
v 1.007199 -0.767513 -0.763309
v 1.007199 -0.000000 -0.529793
v 0.235073 -0.767513 0.236690
v 0.000000 -0.767513 -0.940389
v 0.370910 -0.000000 -0.940389
v -0.000000 -0.767513 0.764411
v 0.235073 0.000000 0.764411
v -0.178225 -0.767513 -0.763310
v -0.178225 0.000000 0.764411
v -0.178225 0.000000 -0.940389
v 0.235073 0.767513 0.236691
v 0.000000 0.767513 -0.940389
v -0.000000 0.767513 0.764411
v -0.178225 0.767513 -0.763309
v 0.370910 -0.767513 -0.763310
v -0.178225 -0.767513 0.236690
v 0.370910 0.767513 -0.763309
v -0.178225 0.767513 0.236690
v -0.178225 0.000000 -0.394964
v 0.235073 -0.000000 -0.529793
v -0.000000 0.767513 -0.394964
v 0.000000 -0.767513 -0.394964
v 1.538837 -0.000000 -0.940389
v 1.538837 -0.767513 -0.763309
v 1.538837 0.767513 -0.763309
v 1.538837 -0.000000 -0.529793
v 1.007199 0.767513 -0.940389
v 1.007199 -0.767513 -0.940389
v 1.007199 0.767513 -0.529793
v 1.007199 -0.767513 -0.529793
v 0.370910 -0.767513 -0.940389
v 0.235073 -0.767513 0.764411
v -0.178225 -0.767513 0.764411
v -0.178225 -0.767513 -0.940389
v 0.370910 0.767513 -0.940389
v 0.235073 0.767513 0.764411
v -0.178225 0.767513 0.764411
v -0.178225 0.767513 -0.940389
v 0.235073 -0.767513 -0.529793
v -0.178225 -0.767513 -0.394965
v 0.235073 0.767513 -0.529793
v -0.178225 0.767513 -0.394964
v 1.538837 -0.767513 -0.940389
v 1.538837 0.767513 -0.940389
v 1.538837 -0.767513 -0.529793
v 1.538837 0.767513 -0.529793
vn 0.0000 -1.0000 0.0000
vn 0.0000 1.0000 0.0000
vn 1.0000 0.0000 0.0000
vn 0.0000 0.0000 1.0000
vn -1.0000 0.0000 0.0000
vn 0.0000 0.0000 -1.0000
usemtl Material
s off
f 1//1 34//1 51//1 15//1
f 1//1 15//1 44//1 18//1
f 1//1 18//1 45//1 28//1
f 1//1 28//1 52//1 34//1
f 2//2 23//2 53//2 33//2
f 2//2 33//2 54//2 30//2
f 2//2 30//2 49//2 25//2
f 2//2 25//2 48//2 23//2
f 3//3 15//3 51//3 32//3
f 3//3 32//3 53//3 23//3
f 3//3 23//3 48//3 19//3
f 3//3 19//3 44//3 15//3
f 4//4 18//4 44//4 19//4
f 4//4 19//4 48//4 25//4
f 4//4 25//4 49//4 21//4
f 4//4 21//4 45//4 18//4
f 5//5 20//5 52//5 31//5
f 5//5 31//5 54//5 26//5
f 5//5 26//5 50//5 22//5
f 5//5 22//5 46//5 20//5
f 6//6 24//6 47//6 17//6
f 6//6 17//6 43//6 16//6
f 6//6 16//6 46//6 22//6
f 6//6 22//6 50//6 24//6
f 7//5 28//5 45//5 21//5
f 7//5 21//5 49//5 30//5
f 7//5 30//5 54//5 31//5
f 7//5 31//5 52//5 28//5
f 8//6 40//6 43//6 17//6
f 8//6 17//6 47//6 39//6
f 8//6 39//6 56//6 35//6
f 8//6 35//6 55//6 40//6
f 9//2 29//2 47//2 24//2
f 9//2 24//2 50//2 26//2
f 9//2 26//2 54//2 33//2
f 9//2 33//2 53//2 29//2
f 10//1 16//1 43//1 27//1
f 10//1 27//1 51//1 34//1
f 10//1 34//1 52//1 20//1
f 10//1 20//1 46//1 16//1
f 11//3 36//3 55//3 35//3
f 11//3 35//3 56//3 37//3
f 11//3 37//3 58//3 38//3
f 11//3 38//3 57//3 36//3
f 12//2 39//2 47//2 29//2
f 12//2 29//2 53//2 41//2
f 12//2 41//2 58//2 37//2
f 12//2 37//2 56//2 39//2
f 13//1 42//1 51//1 27//1
f 13//1 27//1 43//1 40//1
f 13//1 40//1 55//1 36//1
f 13//1 36//1 57//1 42//1
f 14//4 41//4 53//4 32//4
f 14//4 32//4 51//4 42//4
f 14//4 42//4 57//4 38//4
f 14//4 38//4 58//4 41//4
