# Blender v2.79 (sub 0) OBJ File: ''
# www.blender.org
mtllib 914571-09-LP.mtl
o Cube
v 0.520857 -0.282137 0.303582
v 0.559875 -0.285980 0.303582
v 0.597394 -0.297361 0.303582
v 0.631971 -0.315843 0.303582
v 0.662279 -0.340716 0.303582
v 0.687151 -0.371023 0.303582
v 0.705633 -0.405600 0.303582
v 0.717014 -0.443119 0.303582
v 0.720857 -0.482137 0.303582
v 0.717014 -0.521155 0.303582
v 0.705633 -0.558674 0.303582
v 0.687151 -0.593251 0.303582
v 0.662279 -0.623558 0.303582
v 0.631971 -0.648431 0.303582
v 0.597394 -0.666913 0.303582
v 0.559875 -0.678294 0.303582
v 0.520857 -0.682137 0.303582
v 0.481839 -0.678294 0.303582
v 0.444321 -0.666913 0.303582
v 0.409743 -0.648431 0.303582
v 0.379436 -0.623558 0.303582
v 0.354563 -0.593251 0.303582
v 0.336082 -0.558674 0.303582
v 0.324700 -0.521155 0.303582
v 0.320857 -0.482137 0.303582
v 0.324700 -0.443119 0.303582
v 0.336082 -0.405600 0.303582
v 0.354564 -0.371023 0.303582
v 0.379436 -0.340715 0.303582
v 0.409744 -0.315843 0.303582
v 0.444321 -0.297361 0.303582
v 0.481840 -0.285980 0.303582
v 1.000000 -1.000000 -1.000000
v 1.000000 -1.000000 1.000000
v -1.000000 -1.000000 1.000000
v -1.000000 -1.000000 -1.000000
v 1.000000 1.000000 -0.999999
v 0.999999 1.000000 1.000001
v -1.000000 1.000000 1.000000
v -1.000000 1.000000 -1.000000
v -0.314564 -1.000000 -0.383773
v -0.314564 1.000000 -0.383773
v -0.480858 -1.000000 -0.694887
v -0.480858 1.000000 -0.694887
v -0.519876 -1.000000 -0.691044
v -0.519876 1.000000 -0.691044
v -0.557394 -1.000000 -0.679663
v -0.557394 1.000000 -0.679663
v -0.665634 -1.000000 -0.418351
v -0.665634 1.000000 -0.418351
v -0.647152 -1.000000 -0.383773
v -0.647152 1.000000 -0.383773
v -0.677015 -1.000000 -0.455869
v -0.677015 1.000000 -0.455869
v -0.622279 -1.000000 -0.353466
v -0.622279 1.000000 -0.353466
v -0.519876 -1.000000 -0.298730
v -0.519876 1.000000 -0.298730
v -0.480858 -1.000000 -0.294887
v -0.480858 1.000000 -0.294887
v -0.557395 -1.000000 -0.310112
v -0.557395 1.000000 -0.310112
v -0.284701 -1.000000 -0.533905
v -0.284701 1.000000 -0.533905
v -0.369744 -1.000000 -0.661181
v -0.369744 1.000000 -0.661181
v -0.280858 -1.000000 -0.494887
v -0.280858 1.000000 -0.494887
v -0.296082 -1.000000 -0.571424
v -0.296082 1.000000 -0.571424
v -0.441840 -1.000000 -0.298730
v -0.441840 1.000000 -0.298730
v -0.622279 -1.000000 -0.636309
v -0.622279 1.000000 -0.636309
v -0.591972 -1.000000 -0.661181
v -0.591972 1.000000 -0.661181
v -0.647152 -1.000000 -0.606002
v -0.647152 1.000000 -0.606002
v -0.284701 -1.000000 -0.455869
v -0.284701 1.000000 -0.455869
v -0.369744 -1.000000 -0.328593
v -0.369744 1.000000 -0.328593
v -0.339437 -1.000000 -0.353466
v -0.339437 1.000000 -0.353466
v -0.296082 -1.000000 -0.418351
v -0.296082 1.000000 -0.418351
v -0.680858 -1.000000 -0.494888
v -0.680858 1.000000 -0.494888
v -0.591972 -1.000000 -0.328594
v -0.591972 1.000000 -0.328594
v -0.677015 -1.000000 -0.533906
v -0.677015 1.000000 -0.533906
v -0.339437 -1.000000 -0.636309
v -0.339437 1.000000 -0.636309
v -0.404321 -1.000000 -0.310111
v -0.404321 1.000000 -0.310111
v -0.314564 -1.000000 -0.606001
v -0.314564 1.000000 -0.606001
v -0.665634 -1.000000 -0.571424
v -0.665634 1.000000 -0.571424
v -0.404321 -1.000000 -0.679663
v -0.404321 1.000000 -0.679663
v -0.441840 -1.000000 -0.691044
v -0.441840 1.000000 -0.691044
v 0.444321 -0.297361 1.000000
v 0.520857 -0.282137 1.000000
v 0.481840 -0.285980 1.000000
v 0.354563 -0.593251 1.000000
v 0.379436 -0.623558 1.000000
v 0.336082 -0.558674 1.000000
v 0.409743 -0.648431 1.000000
v 0.520857 -0.682137 1.000000
v 0.559875 -0.678294 1.000000
v 0.481839 -0.678294 1.000000
v 0.717014 -0.443119 1.000000
v 0.662279 -0.340716 1.000000
v 0.631971 -0.315843 1.000000
v 0.597394 -0.666913 1.000000
v 0.705633 -0.405600 1.000000
v 0.354564 -0.371023 1.000000
v 0.379436 -0.340716 1.000000
v 0.559875 -0.285980 1.000000
v 0.336082 -0.405600 1.000000
v 0.705633 -0.558674 1.000000
v 0.717014 -0.521155 1.000000
v 0.687151 -0.593251 1.000000
v 0.720857 -0.482137 1.000000
v 0.324700 -0.521155 1.000000
v 0.409744 -0.315843 1.000000
v 0.444321 -0.666913 1.000000
v 0.320857 -0.482137 1.000000
v 0.687151 -0.371023 1.000000
v 0.662279 -0.623558 1.000000
v 0.631971 -0.648431 1.000000
v 0.324700 -0.443119 1.000000
v 0.597394 -0.297361 1.000000
vn -0.0980 -0.9952 -0.0000
vn -0.2903 -0.9569 -0.0000
vn -0.4714 -0.8819 -0.0000
vn -0.6344 -0.7730 -0.0000
vn -0.7730 -0.6344 0.0000
vn -0.8819 -0.4714 -0.0000
vn -0.9569 -0.2903 -0.0000
vn -0.9952 -0.0980 0.0000
vn -0.9952 0.0980 0.0000
vn -0.9569 0.2903 0.0000
vn -0.8819 0.4714 0.0000
vn -0.7730 0.6344 0.0000
vn -0.6344 0.7730 0.0000
vn -0.4714 0.8819 0.0000
vn -0.2903 0.9569 0.0000
vn -0.0980 0.9952 0.0000
vn 0.0980 0.9952 0.0000
vn 0.2903 0.9569 0.0000
vn 0.4714 0.8819 0.0000
vn 0.6344 0.7730 0.0000
vn 0.7730 0.6344 0.0000
vn 0.8819 0.4714 0.0000
vn 0.9569 0.2903 0.0000
vn 0.9952 0.0980 0.0000
vn 0.9952 -0.0980 -0.0000
vn 0.9569 -0.2903 -0.0000
vn 0.8819 -0.4714 -0.0000
vn 0.7730 -0.6344 -0.0000
vn 0.6344 -0.7730 -0.0000
vn 0.4714 -0.8819 0.0000
vn 0.2903 -0.9569 -0.0000
vn 0.0980 -0.9952 -0.0000
vn 0.0000 0.0000 1.0000
vn -0.0000 -1.0000 -0.0000
vn -0.0000 1.0000 0.0000
vn 1.0000 0.0000 0.0000
vn -1.0000 -0.0000 -0.0000
vn 0.0000 0.0000 -1.0000
vn -0.9952 -0.0000 -0.0980
vn -0.7730 -0.0000 -0.6344
vn -0.8819 0.0000 -0.4714
vn 0.9952 0.0000 0.0980
vn -0.9569 0.0000 0.2903
vn -0.9952 0.0000 0.0980
vn -0.7730 0.0000 0.6344
vn 0.0980 0.0000 0.9952
vn 0.0980 0.0000 -0.9952
vn 0.8819 0.0000 0.4714
vn -0.0980 -0.0000 -0.9952
vn 0.2903 0.0000 0.9569
vn -0.6344 0.0000 0.7730
vn 0.4714 0.0000 -0.8819
vn -0.4714 0.0000 0.8819
vn -0.6344 0.0000 -0.7730
vn 0.6344 0.0000 0.7730
vn 0.9569 0.0000 0.2903
vn -0.4714 0.0000 -0.8819
vn 0.6344 0.0000 -0.7730
vn 0.8819 0.0000 -0.4714
vn -0.0980 0.0000 0.9952
vn -0.8819 0.0000 0.4714
vn 0.9952 0.0000 -0.0980
vn -0.9569 -0.0000 -0.2903
vn 0.2903 0.0000 -0.9569
vn 0.4714 0.0000 0.8819
vn -0.2903 0.0000 0.9569
vn -0.2903 -0.0000 -0.9569
vn 0.9569 0.0000 -0.2903
vn 0.7730 0.0000 0.6344
vn 0.7730 0.0000 -0.6344
usemtl Material
s off
f 1//1 2//1 122//1 106//1
f 2//2 3//2 136//2 122//2
f 3//3 4//3 117//3 136//3
f 4//4 5//4 116//4 117//4
f 5//5 6//5 132//5 116//5
f 6//6 7//6 119//6 132//6
f 7//7 8//7 115//7 119//7
f 8//8 9//8 127//8 115//8
f 9//9 10//9 125//9 127//9
f 10//10 11//10 124//10 125//10
f 11//11 12//11 126//11 124//11
f 12//12 13//12 133//12 126//12
f 13//13 14//13 134//13 133//13
f 14//14 15//14 118//14 134//14
f 15//15 16//15 113//15 118//15
f 16//16 17//16 112//16 113//16
f 17//17 18//17 114//17 112//17
f 18//18 19//18 130//18 114//18
f 19//19 20//19 111//19 130//19
f 20//20 21//20 109//20 111//20
f 21//21 22//21 108//21 109//21
f 22//22 23//22 110//22 108//22
f 23//23 24//23 128//23 110//23
f 24//24 25//24 131//24 128//24
f 25//25 26//25 135//25 131//25
f 26//26 27//26 123//26 135//26
f 27//27 28//27 120//27 123//27
f 28//28 29//28 121//28 120//28
f 29//29 30//29 129//29 121//29
f 30//30 31//30 105//30 129//30
f 31//31 32//31 107//31 105//31
f 32//32 1//32 106//32 107//32
f 1//33 32//33 31//33 30//33 29//33 28//33 27//33 26//33 25//33 24//33 23//33 22//33 21//33 20//33 19//33 18//33 17//33 16//33 15//33 14//33 13//33 12//33 11//33 10//33 9//33 8//33 7//33 6//33 5//33 4//33 3//33 2//33
f 33//34 67//34 63//34 69//34 97//34 93//34 65//34 101//34 103//34 43//34 45//34 47//34 75//34 73//34 77//34 99//34 91//34 87//34 36//34
f 37//35 40//35 88//35 92//35 100//35 78//35 74//35 76//35 48//35 46//35 44//35 104//35 102//35 66//35 94//35 98//35 70//35 64//35 68//35
f 33//36 37//36 38//36 34//36
f 34//33 38//33 39//33 35//33 131//33 135//33 123//33 120//33 121//33 129//33 105//33 107//33 106//33 122//33 136//33 117//33 116//33 132//33 119//33 115//33 127//33
f 35//37 39//37 40//37 36//37
f 37//38 33//38 36//38 40//38
f 79//39 80//39 68//39 67//39
f 36//34 87//34 53//34 49//34 51//34 55//34 89//34 61//34 57//34 59//34 71//34 95//34 81//34 83//34 41//34 85//34 79//34 67//34 33//34 34//34 35//34
f 83//40 84//40 42//40 41//40
f 41//41 42//41 86//41 85//41
f 91//42 92//42 88//42 87//42
f 63//43 64//43 70//43 69//43
f 67//44 68//44 64//44 63//44
f 97//45 98//45 94//45 93//45
f 43//46 44//46 46//46 45//46
f 57//47 58//47 60//47 59//47
f 77//48 78//48 100//48 99//48
f 59//49 60//49 72//49 71//49
f 45//50 46//50 48//50 47//50
f 93//51 94//51 66//51 65//51
f 89//52 90//52 62//52 61//52
f 65//53 66//53 102//53 101//53
f 81//54 82//54 84//54 83//54
f 75//55 76//55 74//55 73//55
f 99//56 100//56 92//56 91//56
f 68//35 80//35 86//35 42//35 84//35 82//35 96//35 72//35 60//35 58//35 62//35 90//35 56//35 52//35 50//35 54//35 88//35 40//35 39//35 38//35 37//35
f 95//57 96//57 82//57 81//57
f 55//58 56//58 90//58 89//58
f 49//59 50//59 52//59 51//59
f 103//60 104//60 44//60 43//60
f 69//61 70//61 98//61 97//61
f 87//62 88//62 54//62 53//62
f 85//63 86//63 80//63 79//63
f 61//64 62//64 58//64 57//64
f 47//65 48//65 76//65 75//65
f 101//66 102//66 104//66 103//66
f 71//67 72//67 96//67 95//67
f 53//68 54//68 50//68 49//68
f 73//69 74//69 78//69 77//69
f 51//70 52//70 56//70 55//70
f 127//33 125//33 124//33 126//33 133//33 134//33 118//33 113//33 112//33 114//33 130//33 111//33 109//33 108//33 110//33 128//33 131//33 35//33 34//33
