# Blender v2.79 (sub 0) OBJ File: ''
# www.blender.org
mtllib 914571-05.mtl
o Cube
v 1.000000 -1.000000 -1.000000
v 1.000000 -1.000000 1.000000
v -1.000000 -1.000000 1.000000
v -1.000000 -1.000000 -1.000000
v 1.000000 1.000000 -0.999999
v -1.000000 1.000000 1.000000
v -1.000000 1.000000 -1.000000
v 1.000000 -0.500000 -1.000000
v 1.000000 0.000000 -1.000000
v 1.000000 0.500000 -1.000000
v 1.000000 -0.500000 1.000000
v -1.000000 -0.500000 1.000000
v -1.000000 0.000000 1.000000
v -1.000000 0.500000 1.000000
v -1.000000 -0.500000 -1.000000
v -1.000000 0.000000 -1.000000
v -1.000000 0.500000 -1.000000
v 0.600000 -1.000000 -1.000000
v 0.200000 -1.000000 -1.000000
v -0.200000 -1.000000 -1.000000
v -0.600000 -1.000000 -1.000000
v 0.600000 -1.000000 1.000000
v 0.200000 -1.000000 1.000000
v -0.200000 -1.000000 1.000000
v -0.600000 -1.000000 1.000000
v 0.600000 1.000000 -1.000000
v 0.200000 1.000000 -1.000000
v -0.200000 1.000000 -1.000000
v -0.600000 1.000000 -1.000000
v -0.600000 1.000000 1.000000
v 0.600000 0.500000 -1.000000
v 0.200000 0.500000 -1.000000
v -0.200000 0.500000 -1.000000
v -0.600000 0.500000 -1.000000
v 0.600000 0.000000 -1.000000
v 0.200000 0.000000 -1.000000
v -0.200000 0.000000 -1.000000
v -0.600000 0.000000 -1.000000
v 0.600000 -0.500000 -1.000000
v 0.200000 -0.500000 -1.000000
v -0.200000 -0.500000 -1.000000
v -0.600000 -0.500000 -1.000000
v 0.600000 -0.500000 1.000000
v 0.200000 -0.500000 1.000000
v -0.200000 -0.500000 1.000000
v -0.600000 -0.500000 1.000000
v -0.600000 0.000000 1.000000
v -0.600000 0.500000 1.000000
v 1.000000 -1.000000 -0.600000
v 1.000000 -1.000000 -0.200000
v 1.000000 -1.000000 0.200000
v 1.000000 -1.000000 0.600000
v -1.000000 -1.000000 0.600000
v -1.000000 -1.000000 0.200000
v -1.000000 -1.000000 -0.200000
v -1.000000 -1.000000 -0.600000
v 1.000000 1.000000 -0.599999
v -1.000000 1.000000 0.600000
v -1.000000 1.000000 0.200000
v -1.000000 1.000000 -0.200000
v -1.000000 1.000000 -0.600000
v -1.000000 -0.500000 0.600000
v -1.000000 -0.500000 0.200000
v -1.000000 -0.500000 -0.200000
v -1.000000 -0.500000 -0.600000
v -1.000000 0.000000 0.600000
v -1.000000 0.000000 0.200000
v -1.000000 0.000000 -0.200000
v -1.000000 0.000000 -0.600000
v -1.000000 0.500000 0.600000
v -1.000000 0.500000 0.200000
v -1.000000 0.500000 -0.200000
v -1.000000 0.500000 -0.600000
v 1.000000 -0.500000 -0.600000
v 1.000000 -0.500000 -0.200000
v 1.000000 -0.500000 0.200000
v 1.000000 -0.500000 0.600000
v 1.000000 0.000000 -0.600000
v 1.000000 0.500000 -0.600000
v 0.600000 1.000000 -0.600000
v 0.200000 1.000000 -0.600000
v -0.200000 1.000000 -0.600000
v 0.889258 0.981021 1.466885
v -0.600000 1.000000 -0.600000
v -0.600000 1.000000 -0.200000
v -0.600000 1.000000 0.200000
v -0.600000 1.000000 0.600000
v 0.600000 -1.000000 0.600000
v 0.600000 -1.000000 0.200000
v 0.600000 -1.000000 -0.200000
v 0.600000 -1.000000 -0.600000
v 0.200000 -1.000000 0.600000
v 0.200000 -1.000000 0.200000
v 0.200000 -1.000000 -0.200000
v 0.200000 -1.000000 -0.600000
v -0.200000 -1.000000 0.600000
v -0.200000 -1.000000 0.200000
v -0.200000 -1.000000 -0.200000
v -0.200000 -1.000000 -0.600000
v -0.600000 -1.000000 0.600000
v -0.600000 -1.000000 0.200000
v -0.600000 -1.000000 -0.200000
v -0.600000 -1.000000 -0.600000
vn 0.4472 -0.8944 0.0000
vn 0.3333 -0.6666 0.6666
vn -0.5773 -0.5773 0.5773
vn -0.7071 -0.7071 0.0000
vn 0.7071 0.7071 0.0000
vn -0.7071 0.7071 0.0000
vn -0.5773 0.5773 0.5773
vn 0.5773 0.5773 0.5773
vn 0.0000 0.0000 1.0000
vn -0.7071 0.0000 0.7071
vn -1.0000 0.0000 0.0000
vn -0.5773 0.5773 -0.5773
vn -0.7071 0.0000 -0.7071
vn 0.0000 0.2425 -0.9701
vn 0.0000 -0.7071 -0.7071
vn -0.5773 -0.5773 -0.5773
vn 0.0000 0.7071 -0.7071
vn 0.0000 0.0000 -1.0000
vn 0.0000 0.3162 0.9487
vn 0.7071 -0.7071 0.0000
vn 1.0000 0.0000 0.0000
vn 0.5773 -0.5773 0.5773
vn 0.0000 0.7071 0.7071
vn 0.0000 -0.7071 0.7071
vn 0.7071 0.0000 -0.7071
vn 0.6666 0.3333 -0.6666
vn 0.0000 0.4472 -0.8944
vn 0.5773 0.5773 -0.5773
vn 0.5773 -0.5773 -0.5773
vn 0.0000 -1.0000 0.0000
vn 0.0000 -0.8944 0.4472
vn 0.2357 -0.9428 0.2357
vn 0.6666 -0.6666 0.3333
vn 0.3015 0.9045 0.3015
usemtl Material
s 1
f 100//1 25//2 3//3 53//4
f 87//5 58//6 6//7 30//8
f 48//9 30//8 6//7 14//10
f 73//11 61//6 7//12 17//13
f 42//14 21//15 4//16 15//13
f 29//17 34//18 17//13 7//12
f 34//18 38//18 16//13 17//13
f 38//18 42//14 15//13 16//13
f 56//4 65//11 15//13 4//16
f 65//11 69//11 16//13 15//13
f 69//11 73//11 17//13 16//13
f 25//2 46//19 12//10 3//3
f 46//19 47//9 13//10 12//10
f 47//9 48//9 14//10 13//10
f 52//20 77//21 11//8 2//22
f 2//22 11//8 43//23 22//24
f 22//24 43//23 44//23 23//24
f 23//24 44//23 45//23 24//24
f 24//24 45//23 46//19 25//2
f 9//25 8//26 39//27 35//18
f 35//18 39//27 40//27 36//18
f 36//18 40//27 41//27 37//18
f 37//18 41//27 42//14 38//18
f 10//25 9//25 35//18 31//18
f 31//18 35//18 36//18 32//18
f 32//18 36//18 37//18 33//18
f 33//18 37//18 38//18 34//18
f 5//28 10//25 31//18 26//17
f 26//17 31//18 32//18 27//17
f 27//17 32//18 33//18 28//17
f 28//17 33//18 34//18 29//17
f 8//26 1//29 18//15 39//27
f 39//27 18//15 19//15 40//27
f 40//27 19//15 20//15 41//27
f 41//27 20//15 21//15 42//14
f 52//20 2//22 22//24 88//30
f 88//30 22//24 23//24 92//30
f 92//30 23//24 24//24 96//30
f 96//30 24//24 25//2 100//1
f 20//15 99//31 103//32 21//15
f 99//31 98//30 102//1 103//32
f 98//30 97//30 101//1 102//1
f 97//30 96//30 100//1 101//1
f 19//15 95//31 99//31 20//15
f 95//31 94//30 98//30 99//31
f 94//30 93//30 97//30 98//30
f 93//30 92//30 96//30 97//30
f 18//15 91//31 95//31 19//15
f 91//31 90//30 94//30 95//31
f 90//30 89//30 93//30 94//30
f 89//30 88//30 92//30 93//30
f 1//29 49//33 91//31 18//15
f 49//33 50//20 90//30 91//31
f 50//20 51//20 89//30 90//30
f 51//20 52//20 88//30 89//30
f 28//17 29//17 84//34 82//23
f 27//17 28//17 82//23 81//23
f 26//17 27//17 81//23 80//23
f 5//28 26//17 80//23 57//8
f 9//25 10//25 79//21 78//21
f 80//23 91//31 49//33 57//8
f 81//23 95//31 91//31 80//23
f 8//26 9//25 78//21 74//21
f 82//23 99//31 95//31 81//23
f 84//34 103//32 99//31 82//23
f 85//5 102//1 103//32 84//34
f 1//29 8//26 74//21 49//33
f 49//33 74//21 75//21 50//20
f 50//20 75//21 76//21 51//20
f 51//20 76//21 77//21 52//20
f 13//10 14//10 70//11 66//11
f 66//11 70//11 71//11 67//11
f 67//11 71//11 72//11 68//11
f 68//11 72//11 73//11 69//11
f 12//10 13//10 66//11 62//11
f 62//11 66//11 67//11 63//11
f 63//11 67//11 68//11 64//11
f 64//11 68//11 69//11 65//11
f 3//3 12//10 62//11 53//4
f 53//4 62//11 63//11 54//4
f 54//4 63//11 64//11 55//4
f 55//4 64//11 65//11 56//4
f 14//10 6//7 58//6 70//11
f 70//11 58//6 59//6 71//11
f 71//11 59//6 60//6 72//11
f 72//11 60//6 61//6 73//11
f 10//25 5//28 57//8 79//21
f 86//5 101//1 102//1 85//5
f 87//5 100//1 101//1 86//5
f 30//8 25//2 100//1 87//5
f 29//17 7//12 61//6 84//34
f 84//34 61//6 60//6 85//5
f 85//5 60//6 59//6 86//5
f 86//5 59//6 58//6 87//5
f 21//15 103//32 56//4 4//16
f 103//32 102//1 55//4 56//4
f 102//1 101//1 54//4 55//4
f 101//1 100//1 53//4 54//4
f 42//14 46//19 45//23 41//27
f 41//27 45//23 44//23 40//27
f 40//27 44//23 43//23 39//27
f 39//27 43//23 11//8 8//26
