# Blender v2.79 (sub 0) OBJ File: ''
# www.blender.org
mtllib 914571-03.mtl
o Cube
v -1.000000 -1.000000 1.000000
v -1.000000 -1.000000 -1.000000
v -1.000000 1.000000 1.000000
v -1.000000 1.000000 -1.000000
v 1.000000 -1.000000 -0.200000
v 1.000000 -1.000000 0.200000
v -1.000000 -1.000000 0.600000
v -1.000000 -1.000000 0.200000
v -1.000000 -1.000000 -0.200000
v -1.000000 -1.000000 -0.600000
v 1.000000 1.000000 -0.199999
v 1.000000 1.000000 0.200001
v -1.000000 1.000000 0.600000
v -1.000000 1.000000 0.200000
v -1.000000 1.000000 -0.200000
v -1.000000 1.000000 -0.600000
v -0.500000 -1.000000 -1.000000
v -0.500000 -1.000000 1.000000
v -0.500000 1.000000 -1.000000
v -0.500000 1.000000 1.000000
v -0.500000 1.000000 -0.600000
v -0.500000 1.000000 -0.200000
v 0.000000 1.000000 -0.200000
v 0.500000 1.000000 -0.200000
v -0.500000 1.000000 0.200000
v -0.000000 1.000000 0.200000
v 0.500000 1.000000 0.200000
v -0.500000 1.000000 0.600000
v -0.500000 -1.000000 -0.600000
v 0.500000 -1.000000 -0.200000
v 0.000000 -1.000000 -0.200000
v -0.500000 -1.000000 -0.200000
v 0.500000 -1.000000 0.200000
v 0.000000 -1.000000 0.200000
v -0.500000 -1.000000 0.200000
v -0.500000 -1.000000 0.600000
vn 0.7071 -0.7071 0.0000
vn 0.5773 -0.5773 0.5773
vn -0.5773 -0.5773 0.5773
vn -0.7071 -0.7071 0.0000
vn 0.7071 0.7071 0.0000
vn -0.7071 0.7071 0.0000
vn -0.5773 0.5773 0.5773
vn 0.5773 0.5773 0.5773
vn -0.5773 0.5773 -0.5773
vn -0.5773 -0.5773 -0.5773
vn 0.5773 0.5773 -0.5773
vn 0.5773 -0.5773 -0.5773
vn 0.3015 0.9045 -0.3015
vn 0.3015 0.9045 0.3015
vn 0.3015 -0.9045 -0.3015
vn 0.3015 -0.9045 0.3015
vn 0.0000 -0.7071 0.7071
vn 0.0000 -0.7071 -0.7071
vn 0.0000 0.7071 0.7071
vn 0.0000 0.7071 -0.7071
usemtl Material
s 1
f 36//1 18//2 1//3 7//4
f 28//5 13//6 3//7 20//8
f 18//2 20//8 3//7 1//3
f 10//4 16//6 4//9 2//10
f 19//11 17//12 2//10 4//9
f 1//3 3//7 13//6 7//4
f 7//4 13//6 14//6 8//4
f 8//4 14//6 15//6 9//4
f 9//4 15//6 16//6 10//4
f 5//12 11//11 12//8 6//2
f 19//11 4//9 16//6 21//5
f 21//5 16//6 15//6 22//13
f 22//13 15//6 14//6 25//14
f 25//14 14//6 13//6 28//5
f 17//12 29//1 10//4 2//10
f 29//1 32//15 9//4 10//4
f 32//15 35//16 8//4 9//4
f 35//16 36//1 7//4 8//4
f 5//12 6//2 33//17 30//18
f 30//18 33//17 34//17 31//18
f 31//18 34//17 35//16 32//15
f 27//19 33//17 6//2 12//8
f 11//11 24//20 27//19 12//8
f 24//20 23//20 26//19 27//19
f 23//20 22//13 25//14 26//19
f 26//19 34//17 33//17 27//19
f 25//14 35//16 34//17 26//19
f 28//5 36//1 35//16 25//14
f 20//8 18//2 36//1 28//5
f 21//5 29//1 17//12 19//11
f 22//13 32//15 29//1 21//5
f 23//20 31//18 32//15 22//13
f 24//20 30//18 31//18 23//20
f 11//11 5//12 30//18 24//20
