# Blender v2.79 (sub 0) OBJ File: ''
# www.blender.org
mtllib 914571-05-LP.mtl
o Cube
v 1.000000 -1.000000 -1.000000
v 1.000000 -1.000000 1.000000
v -1.000000 -1.000000 1.000000
v -1.000000 -1.000000 -1.000000
v 1.000000 1.000000 -0.999999
v -1.000000 1.000000 1.000000
v -1.000000 1.000000 -1.000000
v 1.000000 -0.500000 -1.000000
v 1.000000 0.000000 -1.000000
v 1.000000 0.500000 -1.000000
v 1.000000 -0.500000 1.000000
v -1.000000 -0.500000 1.000000
v -1.000000 0.000000 1.000000
v -1.000000 0.500000 1.000000
v -1.000000 -0.500000 -1.000000
v -1.000000 0.000000 -1.000000
v -1.000000 0.500000 -1.000000
v 0.600000 -1.000000 -1.000000
v 0.200000 -1.000000 -1.000000
v -0.200000 -1.000000 -1.000000
v -0.600000 -1.000000 -1.000000
v 0.600000 -1.000000 1.000000
v 0.200000 -1.000000 1.000000
v -0.200000 -1.000000 1.000000
v -0.600000 -1.000000 1.000000
v 0.600000 1.000000 -1.000000
v 0.200000 1.000000 -1.000000
v -0.200000 1.000000 -1.000000
v -0.600000 1.000000 -1.000000
v -0.600000 1.000000 1.000000
v 0.600000 0.500000 -1.000000
v 0.200000 0.500000 -1.000000
v -0.200000 0.500000 -1.000000
v -0.600000 0.500000 -1.000000
v 0.600000 0.000000 -1.000000
v 0.200000 0.000000 -1.000000
v -0.200000 0.000000 -1.000000
v -0.600000 0.000000 -1.000000
v 0.600000 -0.500000 -1.000000
v 0.200000 -0.500000 -1.000000
v -0.200000 -0.500000 -1.000000
v -0.600000 -0.500000 -1.000000
v 0.600000 -0.500000 1.000000
v 0.200000 -0.500000 1.000000
v -0.200000 -0.500000 1.000000
v -0.600000 -0.500000 1.000000
v -0.600000 0.000000 1.000000
v -0.600000 0.500000 1.000000
v 1.000000 -1.000000 -0.600000
v 1.000000 -1.000000 -0.200000
v 1.000000 -1.000000 0.200000
v 1.000000 -1.000000 0.600000
v -1.000000 -1.000000 0.600000
v -1.000000 -1.000000 0.200000
v -1.000000 -1.000000 -0.200000
v -1.000000 -1.000000 -0.600000
v 1.000000 1.000000 -0.599999
v -1.000000 1.000000 0.600000
v -1.000000 1.000000 0.200000
v -1.000000 1.000000 -0.200000
v -1.000000 1.000000 -0.600000
v -1.000000 -0.500000 0.600000
v -1.000000 -0.500000 0.200000
v -1.000000 -0.500000 -0.200000
v -1.000000 -0.500000 -0.600000
v -1.000000 0.000000 0.600000
v -1.000000 0.000000 0.200000
v -1.000000 0.000000 -0.200000
v -1.000000 0.000000 -0.600000
v -1.000000 0.500000 0.600000
v -1.000000 0.500000 0.200000
v -1.000000 0.500000 -0.200000
v -1.000000 0.500000 -0.600000
v 1.000000 -0.500000 -0.600000
v 1.000000 -0.500000 -0.200000
v 1.000000 -0.500000 0.200000
v 1.000000 -0.500000 0.600000
v 1.000000 0.000000 -0.600000
v 1.000000 0.500000 -0.600000
v 0.600000 1.000000 -0.600000
v 0.200000 1.000000 -0.600000
v -0.200000 1.000000 -0.600000
v 0.889258 0.981021 1.466885
v -0.600000 1.000000 -0.600000
v -0.600000 1.000000 -0.200000
v -0.600000 1.000000 0.200000
v -0.600000 1.000000 0.600000
v 0.600000 -1.000000 0.600000
v 0.600000 -1.000000 0.200000
v 0.600000 -1.000000 -0.200000
v 0.600000 -1.000000 -0.600000
v 0.200000 -1.000000 0.600000
v 0.200000 -1.000000 0.200000
v 0.200000 -1.000000 -0.200000
v 0.200000 -1.000000 -0.600000
v -0.200000 -1.000000 0.600000
v -0.200000 -1.000000 0.200000
v -0.200000 -1.000000 -0.200000
v -0.200000 -1.000000 -0.600000
v -0.600000 -1.000000 0.600000
v -0.600000 -1.000000 0.200000
v -0.600000 -1.000000 -0.200000
v -0.600000 -1.000000 -0.600000
vn 0.0000 -1.0000 0.0000
vn 0.0000 1.0000 0.0000
vn -0.0000 -0.0000 1.0000
vn -1.0000 -0.0000 -0.0000
vn 0.0000 0.0000 -1.0000
vn 1.0000 0.0000 0.0000
usemtl Material
s off
f 100//1 25//1 3//1 53//1
f 87//2 58//2 6//2 30//2
f 48//3 30//3 6//3 14//3
f 73//4 61//4 7//4 17//4
f 42//5 21//5 4//5 15//5
f 29//5 34//5 17//5 7//5
f 34//5 38//5 16//5 17//5
f 38//5 42//5 15//5 16//5
f 56//4 65//4 15//4 4//4
f 65//4 69//4 16//4 15//4
f 69//4 73//4 17//4 16//4
f 25//3 46//3 12//3 3//3
f 46//3 47//3 13//3 12//3
f 47//3 48//3 14//3 13//3
f 52//6 77//6 11//6 2//6
f 2//3 11//3 43//3 22//3
f 22//3 43//3 44//3 23//3
f 23//3 44//3 45//3 24//3
f 24//3 45//3 46//3 25//3
f 9//5 8//5 39//5 35//5
f 35//5 39//5 40//5 36//5
f 36//5 40//5 41//5 37//5
f 37//5 41//5 42//5 38//5
f 10//5 9//5 35//5 31//5
f 31//5 35//5 36//5 32//5
f 32//5 36//5 37//5 33//5
f 33//5 37//5 38//5 34//5
f 5//5 10//5 31//5 26//5
f 26//5 31//5 32//5 27//5
f 27//5 32//5 33//5 28//5
f 28//5 33//5 34//5 29//5
f 8//5 1//5 18//5 39//5
f 39//5 18//5 19//5 40//5
f 40//5 19//5 20//5 41//5
f 41//5 20//5 21//5 42//5
f 52//1 2//1 22//1 88//1
f 88//1 22//1 23//1 92//1
f 92//1 23//1 24//1 96//1
f 96//1 24//1 25//1 100//1
f 20//1 99//1 103//1 21//1
f 99//1 98//1 102//1 103//1
f 98//1 97//1 101//1 102//1
f 97//1 96//1 100//1 101//1
f 19//1 95//1 99//1 20//1
f 95//1 94//1 98//1 99//1
f 94//1 93//1 97//1 98//1
f 93//1 92//1 96//1 97//1
f 18//1 91//1 95//1 19//1
f 91//1 90//1 94//1 95//1
f 90//1 89//1 93//1 94//1
f 89//1 88//1 92//1 93//1
f 1//1 49//1 91//1 18//1
f 49//1 50//1 90//1 91//1
f 50//1 51//1 89//1 90//1
f 51//1 52//1 88//1 89//1
f 28//2 29//2 84//2 82//2
f 27//2 28//2 82//2 81//2
f 26//2 27//2 81//2 80//2
f 5//2 26//2 80//2 57//2
f 9//6 10//6 79//6 78//6
f 80//3 91//3 49//3 57//3
f 81//3 95//3 91//3 80//3
f 8//6 9//6 78//6 74//6
f 82//3 99//3 95//3 81//3
f 84//3 103//3 99//3 82//3
f 85//6 102//6 103//6 84//6
f 1//6 8//6 74//6 49//6
f 49//6 74//6 75//6 50//6
f 50//6 75//6 76//6 51//6
f 51//6 76//6 77//6 52//6
f 13//4 14//4 70//4 66//4
f 66//4 70//4 71//4 67//4
f 67//4 71//4 72//4 68//4
f 68//4 72//4 73//4 69//4
f 12//4 13//4 66//4 62//4
f 62//4 66//4 67//4 63//4
f 63//4 67//4 68//4 64//4
f 64//4 68//4 69//4 65//4
f 3//4 12//4 62//4 53//4
f 53//4 62//4 63//4 54//4
f 54//4 63//4 64//4 55//4
f 55//4 64//4 65//4 56//4
f 14//4 6//4 58//4 70//4
f 70//4 58//4 59//4 71//4
f 71//4 59//4 60//4 72//4
f 72//4 60//4 61//4 73//4
f 10//6 5//6 57//6 79//6
f 86//6 101//6 102//6 85//6
f 87//6 100//6 101//6 86//6
f 30//6 25//6 100//6 87//6
f 29//2 7//2 61//2 84//2
f 84//2 61//2 60//2 85//2
f 85//2 60//2 59//2 86//2
f 86//2 59//2 58//2 87//2
f 21//1 103//1 56//1 4//1
f 103//1 102//1 55//1 56//1
f 102//1 101//1 54//1 55//1
f 101//1 100//1 53//1 54//1
f 42//2 46//2 45//2 41//2
f 41//2 45//2 44//2 40//2
f 40//2 44//2 43//2 39//2
f 39//2 43//2 11//2 8//2
