# Blender v2.79 (sub 0) OBJ File: ''
# www.blender.org
o Cube.001
v 1.000000 0.666667 0.500000
v 1.000000 1.000000 0.500001
v 0.999999 1.000000 1.000001
v 0.999999 0.666667 1.000000
v -1.000000 0.666667 -0.500000
v -1.000000 1.000000 -0.500000
v -1.000000 1.000000 -1.000000
v -1.000000 0.666667 -1.000000
v -0.500000 -0.666667 -1.000000
v -0.500000 -1.000000 -1.000000
v -1.000000 -1.000000 -1.000000
v -1.000000 -0.666667 -1.000000
v 1.000000 0.666667 -1.000000
v 1.000000 1.000000 -0.999999
v 1.000000 1.000000 -0.499999
v 1.000000 0.666667 -0.500000
v 1.000000 1.000000 0.000001
v 1.000000 0.666667 0.000000
v -0.500000 1.000000 -1.000000
v -0.500000 1.000000 -0.500000
v -0.500000 -1.000000 -0.500000
v -1.000000 -1.000000 -0.500000
v 1.000000 -1.000000 -0.000000
v 1.000000 -0.666667 -0.000000
v 1.000000 -0.666667 0.500000
v 1.000000 -1.000000 0.500000
v 1.000000 -0.333333 -0.000000
v 1.000000 -0.333333 0.500000
v 1.000000 0.000000 0.000000
v 1.000000 -0.000000 0.500000
v 1.000000 -1.000000 -0.500000
v 1.000000 -0.666667 -0.500000
v 1.000000 -0.333333 -0.500000
v 1.000000 0.000000 -0.500000
v 1.000000 0.333333 -0.500000
v 1.000000 0.333333 0.000000
v 1.000000 -1.000000 -1.000000
v 1.000000 -0.666667 -1.000000
v 1.000000 -0.333333 -1.000000
v 1.000000 0.000000 -1.000000
v 1.000000 0.333333 -1.000000
v -0.500000 0.666667 -1.000000
v -0.500000 0.333333 -1.000000
v -1.000000 0.333333 -1.000000
v -0.500000 0.000000 -1.000000
v -1.000000 0.000000 -1.000000
v -0.500000 -0.333333 -1.000000
v -1.000000 -0.333333 -1.000000
v -1.000000 -0.666667 -0.500000
v -1.000000 -0.333333 -0.500000
v -1.000000 0.000000 -0.500000
v -1.000000 0.333333 -0.500000
v 1.000000 -0.666667 1.000000
v 1.000000 -1.000000 1.000000
v 1.000000 -0.333333 1.000000
v 1.000000 -0.000000 1.000000
v 1.000000 0.333333 0.500000
v 1.000000 0.333333 1.000000
v 0.499999 0.666667 1.000000
v 0.500000 0.333333 1.000000
v 0.500000 -0.000000 1.000000
v 0.500000 -0.333333 1.000000
v 0.500000 -0.666667 1.000000
v 0.500000 -1.000000 1.000000
v 0.500000 -0.666667 -1.000000
v 0.500000 -0.333333 -1.000000
v 0.000000 -0.666667 -1.000000
v 0.000000 -0.333333 -1.000000
v 0.500000 0.000000 -1.000000
v 0.000000 0.000000 -1.000000
v 0.500000 0.333333 -1.000000
v 0.000000 0.333333 -1.000000
v 0.500000 0.666667 -1.000000
v 0.000000 0.666667 -1.000000
v 0.500000 1.000000 -1.000000
v 0.000000 1.000000 -1.000000
v 0.500000 -1.000000 0.500000
v 0.500000 -1.000000 -0.000000
v 0.500000 -1.000000 -0.500000
v 0.500000 -1.000000 -1.000000
v 0.000000 -1.000000 -0.500000
v 0.000000 -1.000000 -1.000000
v 0.500000 1.000000 0.000000
v 0.500000 1.000000 0.500000
v 0.500000 1.000000 -0.500000
v 0.000000 1.000000 -0.500000
v 0.499999 1.000000 1.000000
v -0.500000 0.666667 -0.500000
v -0.500000 1.000000 -0.500000
v 0.000000 1.000000 -1.000000
v 0.000000 0.666667 -1.000000
v -0.500000 0.666667 -1.000000
v -0.500000 1.000000 -1.000000
v 0.000000 1.000000 -0.500000
v 0.000000 0.666667 -0.500000
v 0.500000 -0.333333 -0.000000
v 0.500000 0.000000 0.000000
v 0.500000 -0.000000 0.500000
v 0.500000 -0.333333 0.500000
v 0.500000 -0.333333 -0.500000
v 0.500000 -0.666667 -0.500000
v 0.000000 -0.666667 -0.500000
v 0.000000 -0.333333 -0.500000
v 0.500000 -0.666667 -0.000000
v 0.500000 -0.666667 0.500000
v 0.500000 0.000000 -0.500000
v 0.000000 0.000000 -0.500000
v 0.500000 -1.000000 -0.000000
v 0.500000 -1.000000 0.500000
v 0.500000 0.333333 -0.500000
v 0.000000 0.333333 -0.500000
v 0.500000 0.666667 0.000000
v 0.500000 1.000000 0.000001
v 0.500000 1.000000 0.500001
v 0.500000 0.666667 0.500000
v 0.500000 0.666667 -0.500000
v 0.000000 0.666667 -0.500000
v 0.500000 0.666667 -0.500000
v 0.500000 1.000000 -0.499999
v 0.500000 1.000000 -0.500000
v 0.000000 1.000000 -0.500000
v 0.499999 1.000000 1.000001
v 0.499999 0.666667 1.000000
v 0.500000 -1.000000 -0.500000
v 0.000000 -1.000000 -0.500000
v 0.500000 -1.000000 -0.500000
v 0.500000 -0.666667 -0.500000
v 0.500000 -0.333333 -0.500000
v 0.500000 0.000000 -0.500000
v 0.500000 0.333333 -0.500000
v 0.500000 0.333333 0.000000
v 0.500000 -0.666667 1.000000
v 0.500000 -1.000000 1.000000
v 0.500000 -0.333333 1.000000
v 0.500000 -0.000000 1.000000
v 0.500000 0.333333 0.500000
v 0.500000 0.333333 1.000000
v -0.500000 -0.666667 -0.500000
v -0.500000 -1.000000 -0.500000
v -1.000000 -1.000000 -0.500000
v -1.000000 -0.666667 -0.500000
v -0.500000 0.666667 -0.500000
v -0.500000 0.333333 -0.500000
v -1.000000 0.333333 -0.500000
v -1.000000 0.666667 -0.500000
v -0.500000 0.000000 -0.500000
v -1.000000 0.000000 -0.500000
v -0.500000 -0.333333 -0.500000
v -1.000000 -0.333333 -0.500000
v 1.000000 0.666667 0.000000
v 1.000000 0.333333 0.000000
v 0.500000 0.666667 0.000000
v 0.500000 0.333333 0.000000
v 1.000000 0.000000 0.000000
v 0.500000 0.000000 0.000000
vn 0.9045 -0.3015 -0.3015
vn 0.7071 0.7071 0.0000
vn 0.5773 0.5773 0.5774
vn 0.7071 -0.0000 0.7071
vn -0.8944 -0.0000 0.4472
vn -0.5774 0.5774 0.5774
vn -0.5774 0.5774 -0.5774
vn -0.7071 0.0000 -0.7071
vn 0.7071 0.0000 -0.7071
vn 0.5774 -0.5774 -0.5774
vn -0.5774 -0.5774 -0.5774
vn 0.5774 0.5774 -0.5773
vn 1.0000 0.0000 0.0000
vn 0.9045 -0.3015 0.3015
vn 0.0000 0.7071 -0.7071
vn 0.0000 1.0000 0.0000
vn 0.0000 -1.0000 -0.0000
vn -0.7071 -0.7071 -0.0000
vn 0.7071 -0.7071 -0.0000
vn 0.8018 -0.2673 0.5345
vn 0.3162 0.0000 -0.9487
vn -1.0000 0.0000 0.0000
vn 0.5774 -0.5774 0.5774
vn -0.0000 -0.0000 1.0000
vn 0.0000 -0.7071 0.7071
vn 0.0000 0.0000 -1.0000
vn 0.0000 -0.7071 -0.7071
vn 0.5773 -0.5773 -0.5774
vn -0.0000 0.7071 0.7071
vn -0.6466 0.2155 0.7317
vn -0.6466 0.2155 0.7318
vn 0.9045 0.0000 0.3015
vn 0.4472 0.0000 -0.8944
vn 0.0002 0.7071 -0.7071
vn 0.5774 -0.5773 -0.5774
vn 0.7071 0.0002 -0.7071
vn -0.7238 0.6900 -0.0000
vn 0.0000 0.3947 0.0000
vn 0.0000 0.0000 0.0000
vn 0.9045 -0.3016 -0.3015
s 1
f 1//1 2//2 3//3 4//4
f 5//5 6//6 7//7 8//8
f 9//9 10//10 11//11 12//8
f 13//9 14//12 15//2 16//13
f 16//13 15//2 17//2 18//14
f 18//14 17//2 2//2 1//1
f 19//15 7//7 6//6 20//16
f 10//10 21//17 22//18 11//11
f 23//19 24//13 25//13 26//19
f 24//13 27//13 28//13 25//13
f 27//13 29//20 30//1 28//13
f 31//19 32//13 24//13 23//19
f 32//13 33//13 27//13 24//13
f 33//13 34//13 29//20 27//13
f 34//13 35//13 36//4 29//20
f 35//13 16//13 18//14 36//4
f 37//10 38//9 32//13 31//19
f 38//9 39//9 33//13 32//13
f 39//9 40//9 34//13 33//13
f 40//9 41//9 35//13 34//13
f 41//9 13//9 16//13 35//13
f 19//15 42//21 8//8 7//7
f 42//21 43//9 44//8 8//8
f 43//9 45//9 46//8 44//8
f 45//9 47//9 48//8 46//8
f 47//9 9//9 12//8 48//8
f 22//18 49//22 12//8 11//11
f 49//22 50//22 48//8 12//8
f 50//22 51//22 46//8 48//8
f 51//22 52//22 44//8 46//8
f 52//22 5//5 8//8 44//8
f 26//19 25//13 53//4 54//23
f 25//13 28//13 55//4 53//4
f 28//13 30//1 56//4 55//4
f 30//1 57//9 58//4 56//4
f 57//9 1//1 4//4 58//4
f 58//4 4//4 59//24 60//24
f 56//4 58//4 60//24 61//24
f 55//4 56//4 61//24 62//24
f 53//4 55//4 62//24 63//24
f 54//23 53//4 63//24 64//25
f 39//9 38//9 65//26 66//26
f 66//26 65//26 67//9 68//9
f 40//9 39//9 66//26 69//26
f 69//26 66//26 68//9 70//9
f 41//9 40//9 69//26 71//26
f 71//26 69//26 70//9 72//9
f 13//9 41//9 71//26 73//26
f 73//26 71//26 72//9 74//21
f 14//12 13//9 73//26 75//15
f 75//15 73//26 74//21 76//15
f 76//15 74//21 42//21 19//15
f 23//19 26//19 77//17 78//17
f 31//19 23//19 78//17 79//17
f 37//10 31//19 79//17 80//27
f 80//27 79//17 81//17 82//28
f 17//2 83//16 84//16 2//2
f 15//2 85//16 83//16 17//2
f 14//12 75//15 85//16 15//2
f 75//15 76//15 86//16 85//16
f 76//15 19//15 20//16 86//16
f 38//9 37//10 80//27 65//26
f 65//26 80//27 82//28 67//9
f 4//4 3//3 87//29 59//24
f 2//2 84//16 87//29 3//3
f 26//19 54//23 64//25 77//17
f 5//5 88//16 89//30 6//6
f 90//26 91//15 92//15 93//26
f 94//26 95//15 88//16 89//31
f 96//13 97//20 98//1 99//13
f 100//26 101//26 102//9 103//9
f 104//13 96//13 99//13 105//13
f 106//26 100//26 103//9 107//9
f 108//13 104//13 105//13 109//13
f 110//26 106//26 107//9 111//9
f 112//32 113//13 114//13 115//1
f 116//26 110//26 111//9 117//33
f 118//13 119//13 113//13 112//32
f 120//26 116//26 117//33 121//26
f 115//1 114//13 122//13 123//13
f 101//26 124//26 125//9 102//9
f 126//13 127//13 104//13 108//13
f 127//13 128//13 96//13 104//13
f 128//13 129//13 97//20 96//13
f 129//13 130//13 131//4 97//20
f 130//13 118//13 112//32 131//4
f 109//13 105//13 132//13 133//13
f 105//13 99//13 134//13 132//13
f 99//13 98//1 135//13 134//13
f 98//1 136//9 137//13 135//13
f 136//9 115//1 123//13 137//13
f 92//34 88//16 95//15 91//15
f 74//21 117//33 111//9 72//9
f 72//9 111//9 107//9 70//9
f 70//9 107//9 103//9 68//9
f 68//9 103//9 102//9 67//9
f 67//9 102//9 125//9 82//35
f 138//9 139//36 140//26 141//26
f 142//9 143//9 144//26 145//26
f 143//9 146//9 147//26 144//26
f 146//9 148//9 149//26 147//26
f 148//9 138//9 141//26 149//26
f 42//21 142//9 143//9 43//9
f 43//9 143//9 146//9 45//9
f 45//9 146//9 148//9 47//9
f 47//9 148//9 138//9 9//9
f 9//9 138//9 139//9 10//10
f 36//4 18//14 150//16 151//16
f 131//4 112//32 152//37 153//38
f 29//20 36//4 151//16 154//24
f 97//20 131//4 153//38 155//24
f 154//39 155//24 153//38 151//16
f 151//16 153//38 152//37 150//16
f 30//1 98//1 97//20 29//20
f 29//20 97//20 155//24 154//39
f 30//1 98//1 136//9 57//9
f 57//9 136//9 115//40 1//1
f 1//1 115//40 112//14 18//14
