# Blender v2.79 (sub 0) OBJ File: ''
# www.blender.org
mtllib 914571-02-LP.mtl
o Cube
v 1.000000 -0.983000 -0.983000
v 0.983000 -1.000000 -0.983000
v 0.983000 -0.983000 -1.000000
v -0.983000 -1.000000 0.983000
v -0.983000 -0.983000 1.000000
v -1.000000 -0.983000 0.983000
v -0.983000 -0.983000 -1.000000
v -0.983000 -1.000000 -0.983000
v -1.000000 -0.983000 -0.983000
v 1.000000 0.983000 -0.982999
v 0.983000 0.983000 -0.999999
v 0.983000 1.000000 -0.982999
v -1.000000 0.983000 0.983000
v -0.983000 0.983000 1.000000
v -0.983000 1.000000 0.983000
v -1.000000 0.983000 -0.983000
v -0.983000 1.000000 -0.983000
v -0.983000 0.983000 -1.000000
v 0.017000 -1.000000 -0.983000
v -0.017000 -1.000000 -0.983000
v -0.017000 -0.983000 -1.000000
v 0.017000 -0.983000 -1.000000
v 0.017000 1.000000 -0.983000
v 0.017000 0.983000 -1.000000
v -0.017000 0.983000 -1.000000
v -0.017000 1.000000 -0.983000
v 0.483000 -0.983000 -1.000000
v 0.517000 -0.983000 -1.000000
v 0.517000 -1.000000 -0.983000
v 0.483000 -1.000000 -0.983000
v 0.483000 1.000000 -0.983000
v 0.517000 1.000000 -0.983000
v 0.517000 0.983000 -1.000000
v 0.483000 0.983000 -1.000000
v -0.517000 -1.000000 -0.983000
v -0.517000 -0.983000 -1.000000
v -0.483000 -0.983000 -1.000000
v -0.483000 -1.000000 -0.983000
v -0.517000 -1.000000 0.983000
v -0.500000 -0.983000 0.983000
v -0.517000 -0.983000 1.000000
v -0.517000 1.000000 -0.983000
v -0.483000 1.000000 -0.983000
v -0.483000 0.983000 -1.000000
v -0.517000 0.983000 -1.000000
v -0.517000 1.000000 0.983000
v -0.517000 0.983000 1.000000
v -0.500000 0.983000 0.983000
v -0.983000 -1.000000 0.017000
v -1.000000 -0.983000 0.017000
v -1.000000 -0.983000 -0.017000
v -0.983000 -1.000000 -0.017000
v -0.983000 1.000000 0.017000
v -0.983000 1.000000 -0.017000
v -1.000000 0.983000 -0.017000
v -1.000000 0.983000 0.017000
v -0.500000 0.983000 -0.017000
v -0.517000 1.000000 -0.017000
v -0.517000 1.000000 0.017000
v -0.500000 0.983000 0.017000
v -0.500000 -0.983000 0.017000
v -0.517000 -1.000000 0.017000
v -0.517000 -1.000000 -0.017000
v -0.500000 -0.983000 -0.017000
v -0.500000 0.983000 0.517000
v -0.500000 0.983000 0.483000
v -0.517000 1.000000 0.483000
v -0.517000 1.000000 0.517000
v -0.983000 -1.000000 0.483000
v -0.983000 -1.000000 0.517000
v -1.000000 -0.983000 0.517000
v -1.000000 -0.983000 0.483000
v -0.983000 1.000000 0.483000
v -1.000000 0.983000 0.483000
v -1.000000 0.983000 0.517000
v -0.983000 1.000000 0.517000
v -0.500000 -0.983000 0.483000
v -0.500000 -0.983000 0.517000
v -0.517000 -1.000000 0.517000
v -0.517000 -1.000000 0.483000
v -1.000000 -0.983000 -0.517000
v -0.983000 -1.000000 -0.517000
v -0.983000 -1.000000 -0.483000
v -1.000000 -0.983000 -0.483000
v -1.000000 0.983000 -0.517000
v -1.000000 0.983000 -0.483000
v -0.983000 1.000000 -0.483000
v -0.983000 1.000000 -0.517000
v -0.017000 -1.000000 -0.517000
v 0.017000 -1.000000 -0.517000
v 0.017000 -0.983000 -0.500000
v -0.017000 -0.983000 -0.500000
v 0.517000 -1.000000 -0.517000
v 0.517000 -0.983000 -0.500000
v 0.483000 -0.983000 -0.500000
v 0.483000 -1.000000 -0.517000
v -0.483000 -1.000000 -0.517000
v -0.483000 -0.983000 -0.500000
v -0.500000 -0.983000 -0.483000
v -0.517000 -1.000000 -0.483000
v -0.517000 -1.000000 -0.517000
v 0.983000 -1.000000 -0.517000
v 1.000000 -0.983000 -0.517000
v 0.983000 -0.983000 -0.500000
v 0.983000 1.000000 -0.516999
v 0.983000 0.983000 -0.499999
v 1.000000 0.983000 -0.516999
v -0.017000 1.000000 -0.517000
v -0.017000 0.983000 -0.500000
v 0.017000 0.983000 -0.500000
v 0.017000 1.000000 -0.517000
v 0.517000 1.000000 -0.517000
v 0.483000 1.000000 -0.517000
v 0.483000 0.983000 -0.500000
v 0.517000 0.983000 -0.500000
v -0.500000 0.983000 -0.483000
v -0.483000 0.983000 -0.500000
v -0.483000 1.000000 -0.517000
v -0.517000 1.000000 -0.517000
v -0.517000 1.000000 -0.483000
vn 0.0000 -1.0000 0.0000
vn 0.0000 1.0000 0.0000
vn -1.0000 -0.0000 -0.0000
vn 0.0000 0.0000 -1.0000
vn 1.0000 0.0000 0.0000
vn -0.0000 0.0000 1.0000
vn 0.5774 -0.5774 -0.5774
vn -0.5774 -0.5774 0.5774
vn -0.5774 -0.5773 -0.5773
vn 0.5773 0.5774 -0.5773
vn -0.5773 0.5774 0.5773
vn -0.5774 0.5774 -0.5774
vn 0.0000 -0.7071 -0.7071
vn 0.0000 0.7071 -0.7071
vn 0.5774 -0.5773 0.5774
vn 0.5773 0.5774 0.5773
vn -0.7071 -0.7071 0.0000
vn -0.7071 0.7071 0.0000
vn 0.7071 0.7071 0.0000
vn 0.7071 -0.7071 0.0000
vn 0.0000 -0.7071 0.7071
vn 0.3665 -0.8552 0.3665
vn 0.5773 -0.5774 0.5774
vn 0.5773 0.5774 0.5774
vn 0.0000 0.7071 0.7071
vn 0.3665 0.8552 0.3665
vn 0.7071 -0.0000 -0.7071
vn -0.7071 -0.0000 0.7071
vn -0.7071 0.0000 -0.7071
vn 0.7071 0.0000 0.7071
usemtl Material
s off
f 35//1 101//1 82//1 8//1
f 42//2 17//2 88//2 119//2
f 6//3 13//3 75//3 71//3
f 45//4 36//4 7//4 18//4
f 12//2 32//2 112//2 105//2
f 20//1 89//1 97//1 38//1
f 2//1 102//1 93//1 29//1
f 31//2 23//2 111//2 113//2
f 51//3 55//3 86//3 84//3
f 57//5 64//5 99//5 116//5
f 72//3 74//3 56//3 50//3
f 79//1 39//1 4//1 70//1
f 120//2 87//2 54//2 58//2
f 100//1 63//1 52//1 83//1
f 81//3 85//3 16//3 9//3
f 30//1 96//1 90//1 19//1
f 11//4 3//4 28//4 33//4
f 26//2 43//2 118//2 108//2
f 34//4 27//4 22//4 24//4
f 41//6 47//6 14//6 5//6
f 68//2 76//2 15//2 46//2
f 48//5 40//5 78//5 65//5
f 25//4 21//4 37//4 44//4
f 59//2 53//2 73//2 67//2
f 110//6 91//6 95//6 114//6
f 62//1 80//1 69//1 49//1
f 61//5 60//5 66//5 77//5
f 104//6 106//6 115//6 94//6
f 117//6 98//6 92//6 109//6
f 1//7 2//7 3//7
f 4//8 5//8 6//8
f 7//9 8//9 9//9
f 10//10 11//10 12//10
f 13//11 14//11 15//11
f 16//12 17//12 18//12
f 19//13 20//13 21//13 22//13
f 23//14 24//14 25//14 26//14
f 27//13 28//13 29//13 30//13
f 31//14 32//14 33//14 34//14
f 35//13 36//13 37//13 38//13
f 39//15 40//15 41//15
f 42//14 43//14 44//14 45//14
f 46//16 47//16 48//16
f 49//17 50//17 51//17 52//17
f 53//18 54//18 55//18 56//18
f 57//19 58//19 59//19 60//19
f 61//20 62//20 63//20 64//20
f 65//19 66//19 67//19 68//19
f 69//17 70//17 71//17 72//17
f 73//18 74//18 75//18 76//18
f 77//20 78//20 79//20 80//20
f 81//17 82//17 83//17 84//17
f 85//18 86//18 87//18 88//18
f 89//21 90//21 91//21 92//21
f 93//21 94//21 95//21 96//21
f 97//22 98//22 99//22 100//22 101//22
f 102//23 103//23 104//23
f 105//24 106//24 107//24
f 108//25 109//25 110//25 111//25
f 112//25 113//25 114//25 115//25
f 116//26 117//26 118//26 119//26 120//26
f 35//13 8//13 7//13 36//13
f 3//27 11//27 10//27 1//27
f 41//21 5//21 4//21 39//21
f 81//17 9//17 8//17 82//17
f 5//28 14//28 13//28 6//28
f 9//29 16//29 18//29 7//29
f 45//14 18//14 17//14 42//14
f 46//25 15//25 14//25 47//25
f 88//18 17//18 16//18 85//18
f 30//13 19//13 22//13 27//13
f 34//14 24//14 23//14 31//14
f 21//4 25//4 24//4 22//4
f 89//1 20//1 19//1 90//1
f 2//13 29//13 28//13 3//13
f 11//14 33//14 32//14 12//14
f 96//1 30//1 29//1 93//1
f 27//4 34//4 33//4 28//4
f 20//13 38//13 37//13 21//13
f 25//14 44//14 43//14 26//14
f 36//4 45//4 44//4 37//4
f 47//30 41//30 40//30 48//30
f 68//19 46//19 48//19 65//19
f 101//1 35//1 38//1 97//1
f 72//17 50//17 49//17 69//17
f 73//18 53//18 56//18 74//18
f 120//19 58//19 57//19 116//19
f 80//20 62//20 61//20 77//20
f 55//3 51//3 50//3 56//3
f 53//2 59//2 58//2 54//2
f 62//1 49//1 52//1 63//1
f 59//19 67//19 66//19 60//19
f 6//17 71//17 70//17 4//17
f 15//18 76//18 75//18 13//18
f 39//20 79//20 78//20 40//20
f 74//3 72//3 71//3 75//3
f 76//2 68//2 67//2 73//2
f 79//1 70//1 69//1 80//1
f 51//17 84//17 83//17 52//17
f 54//18 87//18 86//18 55//18
f 63//20 100//20 99//20 64//20
f 1//20 103//20 102//20 2//20
f 12//19 105//19 107//19 10//19
f 26//2 108//2 111//2 23//2
f 31//2 113//2 112//2 32//2
f 42//2 119//2 118//2 43//2
f 100//1 83//1 82//1 101//1
f 87//2 120//2 119//2 88//2
f 106//30 104//30 103//30 107//30
f 110//25 114//25 113//25 111//25
f 95//21 91//21 90//21 96//21
f 104//21 94//21 93//21 102//21
f 115//25 106//25 105//25 112//25
f 117//25 109//25 108//25 118//25
f 92//21 98//21 97//21 89//21
f 85//3 81//3 84//3 86//3
f 64//5 57//5 60//5 61//5
f 65//5 78//5 77//5 66//5
f 98//30 117//30 116//30 99//30
f 91//6 110//6 109//6 92//6
f 94//6 115//6 114//6 95//6
f 1//5 10//5 107//5 103//5
