# Blender v2.79 (sub 0) OBJ File: ''
# www.blender.org
mtllib 914571-04-LP.mtl
o Cube
v 1.000000 -0.983000 -0.983000
v 0.983000 -1.000000 -0.983000
v 0.983000 -0.983000 -1.000000
v 0.983000 -1.000000 0.983000
v 1.000000 -0.983000 0.983000
v 0.983000 -0.983000 1.000000
v -0.983000 -1.000000 0.983000
v -0.983000 -0.983000 1.000000
v -1.000000 -0.983000 0.983000
v -0.983000 -0.983000 -1.000000
v -0.983000 -1.000000 -0.983000
v -1.000000 -0.983000 -0.983000
v 1.000000 0.983000 -0.982999
v 0.983000 0.983000 -0.999999
v 0.983000 1.000000 -0.982999
v 0.982999 0.983000 1.000001
v 0.999999 0.983000 0.983001
v 0.982999 1.000000 0.983001
v -1.000000 0.983000 0.983000
v -0.983000 0.983000 1.000000
v -0.983000 1.000000 0.983000
v -1.000000 0.983000 -0.983000
v -0.983000 1.000000 -0.983000
v -0.983000 0.983000 -1.000000
v 0.617000 -1.000000 -0.983000
v 0.583000 -1.000000 -0.983000
v 0.583000 -0.983000 -1.000000
v 0.617000 -0.983000 -1.000000
v 0.217000 -1.000000 -0.983000
v 0.183000 -1.000000 -0.983000
v 0.183000 -0.983000 -1.000000
v 0.217000 -0.983000 -1.000000
v -0.183000 -1.000000 -0.983000
v -0.217000 -1.000000 -0.983000
v -0.217000 -0.983000 -1.000000
v -0.183000 -0.983000 -1.000000
v -0.617000 -1.000000 -0.983000
v -0.617000 -0.983000 -1.000000
v -0.583000 -0.983000 -1.000000
v -0.583000 -1.000000 -0.983000
v 0.617000 -1.000000 0.983000
v 0.617000 -0.983000 1.000000
v 0.583000 -0.983000 1.000000
v 0.583000 -1.000000 0.983000
v 0.217000 -1.000000 0.983000
v 0.217000 -0.983000 1.000000
v 0.183000 -0.983000 1.000000
v 0.183000 -1.000000 0.983000
v -0.183000 -1.000000 0.983000
v -0.183000 -0.983000 1.000000
v -0.217000 -0.983000 1.000000
v -0.217000 -1.000000 0.983000
v -0.617000 -1.000000 0.983000
v -0.583000 -1.000000 0.983000
v -0.583000 -0.983000 1.000000
v -0.617000 -0.983000 1.000000
v 0.617000 1.000000 -0.983000
v 0.617000 0.983000 -1.000000
v 0.583000 0.983000 -1.000000
v 0.583000 1.000000 -0.983000
v 0.217000 1.000000 -0.983000
v 0.217000 0.983000 -1.000000
v 0.183000 0.983000 -1.000000
v 0.183000 1.000000 -0.983000
v -0.183000 1.000000 -0.983000
v -0.183000 0.983000 -1.000000
v -0.217000 0.983000 -1.000000
v -0.217000 1.000000 -0.983000
v -0.617000 1.000000 -0.983000
v -0.583000 1.000000 -0.983000
v -0.583000 0.983000 -1.000000
v -0.617000 0.983000 -1.000000
v 0.616999 1.000000 0.983000
v 0.582999 1.000000 0.983000
v 0.582999 0.983000 1.000000
v 0.616999 0.983000 1.000000
v 0.216999 1.000000 0.983000
v 0.182999 1.000000 0.983000
v 0.182999 0.983000 1.000000
v 0.216999 0.983000 1.000000
v -0.183000 1.000000 0.983000
v -0.217000 1.000000 0.983000
v -0.217000 0.983000 1.000000
v -0.183000 0.983000 1.000000
v -0.617000 1.000000 0.983000
v -0.617000 0.983000 1.000000
v -0.583000 0.983000 1.000000
v -0.583000 1.000000 0.983000
v 1.000000 -0.983000 -0.617000
v 1.000000 -0.983000 -0.583000
v 0.983000 -1.000000 -0.583000
v 0.983000 -1.000000 -0.617000
v 1.000000 -0.983000 -0.217000
v 1.000000 -0.983000 -0.183000
v 0.983000 -1.000000 -0.183000
v 0.983000 -1.000000 -0.217000
v 1.000000 -0.983000 0.183000
v 1.000000 -0.983000 0.217000
v 0.983000 -1.000000 0.217000
v 0.983000 -1.000000 0.183000
v 1.000000 -0.983000 0.617000
v 0.983000 -1.000000 0.617000
v 0.983000 -1.000000 0.583000
v 1.000000 -0.983000 0.583000
v -0.983000 -1.000000 0.617000
v -1.000000 -0.983000 0.617000
v -0.983000 -0.983000 0.600000
v -0.983000 -1.000000 -0.617000
v -0.983000 -0.983000 -0.600000
v -1.000000 -0.983000 -0.617000
v 1.000000 0.983000 -0.616999
v 0.983000 1.000000 -0.616999
v 0.983000 1.000000 -0.582999
v 1.000000 0.983000 -0.582999
v 1.000000 0.983000 -0.216999
v 0.983000 1.000000 -0.216999
v 0.983000 1.000000 -0.182999
v 1.000000 0.983000 -0.182999
v 1.000000 0.983000 0.183001
v 0.983000 1.000000 0.183001
v 0.983000 1.000000 0.217001
v 1.000000 0.983000 0.217001
v 1.000000 0.983000 0.617001
v 1.000000 0.983000 0.583001
v 0.983000 1.000000 0.583001
v 0.983000 1.000000 0.617001
v -0.983000 1.000000 0.617000
v -0.983000 0.983000 0.600000
v -1.000000 0.983000 0.617000
v -0.983000 1.000000 -0.617000
v -1.000000 0.983000 -0.617000
v -0.983000 0.983000 -0.600000
v 0.617000 1.000000 -0.617000
v 0.583000 1.000000 -0.617000
v 0.583000 0.983000 -0.600000
v 0.600000 0.983000 -0.583000
v 0.617000 1.000000 -0.583000
v 0.600000 0.983000 -0.217000
v 0.600000 0.983000 -0.183000
v 0.617000 1.000000 -0.183000
v 0.617000 1.000000 -0.217000
v 0.600000 0.983000 0.183000
v 0.600000 0.983000 0.217000
v 0.617000 1.000000 0.217000
v 0.617000 1.000000 0.183000
v 0.617000 1.000000 0.617000
v 0.617000 1.000000 0.583000
v 0.600000 0.983000 0.583000
v 0.583000 0.983000 0.600000
v 0.583000 1.000000 0.617000
v 0.217000 1.000000 -0.617000
v 0.183000 1.000000 -0.617000
v 0.183000 0.983000 -0.600000
v 0.217000 0.983000 -0.600000
v 0.217000 1.000000 0.617000
v 0.217000 0.983000 0.600000
v 0.183000 0.983000 0.600000
v 0.183000 1.000000 0.617000
v -0.183000 1.000000 -0.617000
v -0.217000 1.000000 -0.617000
v -0.217000 0.983000 -0.600000
v -0.183000 0.983000 -0.600000
v -0.183000 1.000000 0.617000
v -0.183000 0.983000 0.600000
v -0.217000 0.983000 0.600000
v -0.217000 1.000000 0.617000
v -0.617000 1.000000 -0.617000
v -0.617000 0.983000 -0.600000
v -0.583000 0.983000 -0.600000
v -0.583000 1.000000 -0.617000
v -0.617000 1.000000 0.617000
v -0.583000 1.000000 0.617000
v -0.583000 0.983000 0.600000
v -0.617000 0.983000 0.600000
v 0.617000 -1.000000 0.617000
v 0.583000 -1.000000 0.617000
v 0.583000 -0.983000 0.600000
v 0.600000 -0.983000 0.583000
v 0.617000 -1.000000 0.583000
v 0.600000 -0.983000 0.217000
v 0.600000 -0.983000 0.183000
v 0.617000 -1.000000 0.183000
v 0.617000 -1.000000 0.217000
v 0.600000 -0.983000 -0.183000
v 0.600000 -0.983000 -0.217000
v 0.617000 -1.000000 -0.217000
v 0.617000 -1.000000 -0.183000
v 0.617000 -1.000000 -0.617000
v 0.617000 -1.000000 -0.583000
v 0.600000 -0.983000 -0.583000
v 0.583000 -0.983000 -0.600000
v 0.583000 -1.000000 -0.617000
v 0.217000 -1.000000 0.617000
v 0.183000 -1.000000 0.617000
v 0.183000 -0.983000 0.600000
v 0.217000 -0.983000 0.600000
v 0.217000 -1.000000 -0.617000
v 0.217000 -0.983000 -0.600000
v 0.183000 -0.983000 -0.600000
v 0.183000 -1.000000 -0.617000
v -0.183000 -1.000000 0.617000
v -0.217000 -1.000000 0.617000
v -0.217000 -0.983000 0.600000
v -0.183000 -0.983000 0.600000
v -0.183000 -1.000000 -0.617000
v -0.183000 -0.983000 -0.600000
v -0.217000 -0.983000 -0.600000
v -0.217000 -1.000000 -0.617000
v -0.617000 -1.000000 0.617000
v -0.617000 -0.983000 0.600000
v -0.583000 -0.983000 0.600000
v -0.583000 -1.000000 0.617000
v -0.617000 -1.000000 -0.617000
v -0.583000 -1.000000 -0.617000
v -0.583000 -0.983000 -0.600000
v -0.617000 -0.983000 -0.600000
vn 0.0000 -1.0000 0.0000
vn 0.0000 1.0000 0.0000
vn -0.0000 -0.0000 1.0000
vn -1.0000 -0.0000 -0.0000
vn 0.0000 0.0000 -1.0000
vn 1.0000 -0.0000 0.0000
vn 0.5774 -0.5774 -0.5774
vn 0.5774 -0.5774 0.5774
vn -0.5774 -0.5774 0.5774
vn -0.5774 -0.5773 -0.5773
vn 0.5773 0.5774 -0.5773
vn 0.5774 0.5773 0.5773
vn -0.5773 0.5774 0.5773
vn -0.5774 0.5774 -0.5774
vn 0.0000 -0.7071 -0.7071
vn 0.0000 -0.7071 0.7071
vn 0.0000 0.7071 -0.7071
vn 0.0000 0.7071 0.7071
vn 0.7071 -0.7071 0.0000
vn -0.5774 -0.5774 -0.5774
vn -0.5773 -0.5774 0.5774
vn 0.7071 0.7071 0.0000
vn -0.5774 0.5773 0.5773
vn -0.3665 0.8552 0.3665
vn -0.7071 0.7071 0.0000
vn -0.3665 0.8552 -0.3665
vn -0.3665 -0.8552 -0.3665
vn -0.7071 -0.7071 0.0000
vn -0.3665 -0.8552 0.3665
vn 0.7071 -0.0000 -0.7071
vn 0.7071 0.0000 0.7071
vn -0.7071 -0.0000 0.7071
vn -0.7071 0.0000 -0.7071
usemtl Material
s off
f 37//1 213//1 108//1 11//1
f 69//2 23//2 130//2 167//2
f 6//3 16//3 76//3 42//3
f 9//4 19//4 129//4 106//4
f 72//5 38//5 10//5 24//5
f 15//2 57//2 133//2 112//2
f 2//1 92//1 188//1 25//1
f 30//1 200//1 205//1 33//1
f 34//1 208//1 214//1 40//1
f 176//1 44//1 45//1 193//1
f 56//3 86//3 20//3 8//3
f 194//1 48//1 49//1 201//1
f 202//1 52//1 54//1 212//1
f 60//2 61//2 151//2 134//2
f 171//2 127//2 21//2 85//2
f 158//2 163//2 81//2 78//2
f 166//2 172//2 88//2 82//2
f 90//6 114//6 115//6 93//6
f 101//6 123//6 17//6 5//6
f 43//3 75//3 80//3 46//3
f 47//3 79//3 84//3 50//3
f 51//3 83//3 87//3 55//3
f 67//5 35//5 39//5 71//5
f 63//5 31//5 36//5 66//5
f 59//5 27//5 32//5 62//5
f 102//1 4//1 41//1 175//1
f 94//6 118//6 119//6 97//6
f 98//6 122//6 124//6 104//6
f 174//5 210//5 107//5 128//5
f 150//2 155//2 77//2 74//2
f 68//2 70//2 170//2 160//2
f 64//2 65//2 159//2 152//2
f 126//2 146//2 73//2 18//2
f 117//2 140//2 145//2 120//2
f 121//2 144//2 147//2 125//2
f 136//4 190//4 185//4 138//4
f 209//1 53//1 7//1 105//1
f 14//5 3//5 28//5 58//5
f 91//1 96//1 186//1 189//1
f 95//1 100//1 182//1 187//1
f 99//1 103//1 179//1 183//1
f 26//1 192//1 197//1 29//1
f 110//4 131//4 22//4 12//4
f 113//2 137//2 141//2 116//2
f 165//5 203//5 211//5 173//5
f 157//5 195//5 204//5 164//5
f 139//4 184//4 181//4 142//4
f 154//3 198//3 191//3 135//3
f 143//4 180//4 178//4 148//4
f 149//5 177//5 196//5 156//5
f 162//3 206//3 199//3 153//3
f 169//3 215//3 207//3 161//3
f 132//3 109//3 216//3 168//3
f 1//7 2//7 3//7
f 4//8 5//8 6//8
f 7//9 8//9 9//9
f 10//10 11//10 12//10
f 13//11 14//11 15//11
f 16//12 17//12 18//12
f 19//13 20//13 21//13
f 22//14 23//14 24//14
f 25//15 26//15 27//15 28//15
f 29//15 30//15 31//15 32//15
f 33//15 34//15 35//15 36//15
f 37//15 38//15 39//15 40//15
f 41//16 42//16 43//16 44//16
f 45//16 46//16 47//16 48//16
f 49//16 50//16 51//16 52//16
f 53//16 54//16 55//16 56//16
f 57//17 58//17 59//17 60//17
f 61//17 62//17 63//17 64//17
f 65//17 66//17 67//17 68//17
f 69//17 70//17 71//17 72//17
f 73//18 74//18 75//18 76//18
f 77//18 78//18 79//18 80//18
f 81//18 82//18 83//18 84//18
f 85//18 86//18 87//18 88//18
f 89//19 90//19 91//19 92//19
f 93//19 94//19 95//19 96//19
f 97//19 98//19 99//19 100//19
f 101//19 102//19 103//19 104//19
f 105//20 106//20 107//20
f 108//21 109//21 110//21
f 111//22 112//22 113//22 114//22
f 115//22 116//22 117//22 118//22
f 119//22 120//22 121//22 122//22
f 123//22 124//22 125//22 126//22
f 127//14 128//14 129//14
f 130//23 131//23 132//23
f 133//24 134//24 135//24 136//24 137//24
f 138//25 139//25 140//25 141//25
f 142//25 143//25 144//25 145//25
f 146//26 147//26 148//26 149//26 150//26
f 151//18 152//18 153//18 154//18
f 155//17 156//17 157//17 158//17
f 159//18 160//18 161//18 162//18
f 163//17 164//17 165//17 166//17
f 167//18 168//18 169//18 170//18
f 171//17 172//17 173//17 174//17
f 175//27 176//27 177//27 178//27 179//27
f 180//28 181//28 182//28 183//28
f 184//28 185//28 186//28 187//28
f 188//29 189//29 190//29 191//29 192//29
f 193//15 194//15 195//15 196//15
f 197//16 198//16 199//16 200//16
f 201//15 202//15 203//15 204//15
f 205//16 206//16 207//16 208//16
f 209//15 210//15 211//15 212//15
f 213//16 214//16 215//16 216//16
f 101//19 5//19 4//19 102//19
f 37//15 11//15 10//15 38//15
f 3//30 14//30 13//30 1//30
f 56//16 8//16 7//16 53//16
f 5//31 17//31 16//31 6//31
f 110//28 12//28 11//28 108//28
f 8//32 20//32 19//32 9//32
f 12//33 22//33 24//33 10//33
f 126//22 18//22 17//22 123//22
f 72//17 24//17 23//17 69//17
f 85//18 21//18 20//18 86//18
f 130//25 23//25 22//25 131//25
f 2//15 25//15 28//15 3//15
f 26//15 29//15 32//15 27//15
f 30//15 33//15 36//15 31//15
f 34//15 40//15 39//15 35//15
f 6//16 42//16 41//16 4//16
f 43//16 46//16 45//16 44//16
f 47//16 50//16 49//16 48//16
f 51//16 55//16 54//16 52//16
f 14//17 58//17 57//17 15//17
f 59//17 62//17 61//17 60//17
f 63//17 66//17 65//17 64//17
f 67//17 71//17 70//17 68//17
f 18//18 73//18 76//18 16//18
f 74//18 77//18 80//18 75//18
f 78//18 81//18 84//18 79//18
f 82//18 88//18 87//18 83//18
f 27//5 59//5 58//5 28//5
f 31//5 63//5 62//5 32//5
f 35//5 67//5 66//5 36//5
f 38//5 72//5 71//5 39//5
f 75//3 43//3 42//3 76//3
f 79//3 47//3 46//3 80//3
f 83//3 51//3 50//3 84//3
f 86//3 56//3 55//3 87//3
f 150//2 74//2 73//2 146//2
f 158//2 78//2 77//2 155//2
f 166//2 82//2 81//2 163//2
f 171//2 85//2 88//2 172//2
f 192//1 26//1 25//1 188//1
f 200//1 30//1 29//1 197//1
f 208//1 34//1 33//1 205//1
f 213//1 37//1 40//1 214//1
f 1//19 89//19 92//19 2//19
f 90//19 93//19 96//19 91//19
f 94//19 97//19 100//19 95//19
f 98//19 104//19 103//19 99//19
f 9//28 106//28 105//28 7//28
f 15//22 112//22 111//22 13//22
f 113//22 116//22 115//22 114//22
f 117//22 120//22 119//22 118//22
f 121//22 125//22 124//22 122//22
f 21//25 127//25 129//25 19//25
f 60//2 134//2 133//2 57//2
f 136//25 138//25 141//25 137//25
f 139//25 142//25 145//25 140//25
f 143//25 148//25 147//25 144//25
f 64//2 152//2 151//2 61//2
f 68//2 160//2 159//2 65//2
f 69//2 167//2 170//2 70//2
f 44//1 176//1 175//1 41//1
f 178//28 180//28 183//28 179//28
f 181//28 184//28 187//28 182//28
f 185//28 190//28 189//28 186//28
f 48//1 194//1 193//1 45//1
f 52//1 202//1 201//1 49//1
f 53//1 209//1 212//1 54//1
f 207//16 215//16 214//16 208//16
f 202//15 212//15 211//15 203//15
f 199//16 206//16 205//16 200//16
f 194//15 201//15 204//15 195//15
f 191//16 198//16 197//16 192//16
f 176//15 193//15 196//15 177//15
f 91//1 189//1 188//1 92//1
f 95//1 187//1 186//1 96//1
f 99//1 183//1 182//1 100//1
f 102//1 175//1 179//1 103//1
f 169//18 161//18 160//18 170//18
f 172//17 166//17 165//17 173//17
f 162//18 153//18 152//18 159//18
f 163//17 158//17 157//17 164//17
f 154//18 135//18 134//18 151//18
f 155//17 150//17 149//17 156//17
f 137//2 113//2 112//2 133//2
f 140//2 117//2 116//2 141//2
f 144//2 121//2 120//2 145//2
f 146//2 126//2 125//2 147//2
f 128//33 107//33 106//33 129//33
f 131//32 110//32 109//32 132//32
f 114//6 90//6 89//6 111//6
f 118//6 94//6 93//6 115//6
f 122//6 98//6 97//6 119//6
f 123//6 101//6 104//6 124//6
f 132//18 168//18 167//18 130//18
f 127//17 171//17 174//17 128//17
f 216//16 109//16 108//16 213//16
f 209//15 105//15 107//15 210//15
f 215//3 169//3 168//3 216//3
f 206//3 162//3 161//3 207//3
f 198//3 154//3 153//3 199//3
f 190//32 136//32 135//32 191//32
f 184//4 139//4 138//4 185//4
f 180//4 143//4 142//4 181//4
f 177//33 149//33 148//33 178//33
f 195//5 157//5 156//5 196//5
f 203//5 165//5 164//5 204//5
f 210//5 174//5 173//5 211//5
f 1//6 13//6 111//6 89//6
