# Blender v2.79 (sub 0) OBJ File: ''
# www.blender.org
o Cube.001
v 1.000000 -1.000000 -1.000000
v 0.200000 -1.000000 -0.000000
v 0.196157 -1.000000 -0.039018
v 0.184776 -1.000000 -0.076537
v 0.166294 -1.000000 -0.111114
v 0.141421 -1.000000 -0.141421
v 0.111114 -1.000000 -0.166294
v 0.076537 -1.000000 -0.184776
v 0.039018 -1.000000 -0.196157
v 0.000000 -1.000000 -0.200000
v -0.039018 -1.000000 -0.196157
v -0.076536 -1.000000 -0.184776
v -0.111114 -1.000000 -0.166294
v -0.141421 -1.000000 -0.141422
v -0.166294 -1.000000 -0.111114
v -0.184776 -1.000000 -0.076537
v -0.196157 -1.000000 -0.039018
v -0.200000 -1.000000 -0.000000
v -1.000000 -1.000000 1.000000
v -1.000000 -1.000000 -1.000000
v 1.000000 1.000000 -0.999999
v -1.000000 1.000000 -1.000000
v -0.200000 1.000000 0.000000
v -0.196157 1.000000 -0.039018
v -0.184776 1.000000 -0.076537
v -0.166294 1.000000 -0.111114
v -0.141421 1.000000 -0.141422
v -0.111114 1.000000 -0.166294
v -0.076536 1.000000 -0.184776
v -0.039018 1.000000 -0.196157
v 0.000000 1.000000 -0.200000
v 0.039018 1.000000 -0.196157
v 0.076537 1.000000 -0.184776
v 0.111114 1.000000 -0.166294
v 0.141421 1.000000 -0.141421
v 0.166294 1.000000 -0.111114
v 0.184776 1.000000 -0.076537
v 0.196157 1.000000 -0.039018
v 0.200000 1.000000 0.000000
v 0.999999 1.000000 1.000001
v 1.000000 -1.000000 1.000000
v -1.000000 1.000000 1.000000
v 0.196157 -1.000000 0.039018
v 0.196157 1.000000 0.039018
v -0.196157 -1.000000 0.039018
v -0.184776 -1.000000 0.076537
v -0.166294 -1.000000 0.111114
v -0.141421 -1.000000 0.141421
v -0.111114 -1.000000 0.166294
v -0.076537 -1.000000 0.184776
v -0.039018 -1.000000 0.196157
v 0.000000 -1.000000 0.200000
v 0.039018 -1.000000 0.196157
v 0.076537 -1.000000 0.184776
v 0.111114 -1.000000 0.166294
v 0.141421 -1.000000 0.141421
v 0.166294 -1.000000 0.111114
v 0.184776 -1.000000 0.076537
v 0.141421 1.000000 0.141421
v 0.166294 1.000000 0.111114
v 0.184776 1.000000 0.076537
v -0.039018 1.000000 0.196157
v 0.000000 1.000000 0.200000
v 0.039018 1.000000 0.196157
v -0.111114 1.000000 0.166294
v -0.076537 1.000000 0.184776
v 0.111114 1.000000 0.166294
v 0.076537 1.000000 0.184776
v -0.141421 1.000000 0.141421
v -0.166294 1.000000 0.111114
v -0.184776 1.000000 0.076537
v -0.196157 1.000000 0.039018
vn 0.5774 -0.5774 -0.5774
vn -0.6836 -0.7298 -0.0000
vn -0.7139 -0.6857 0.1420
vn -0.6725 -0.6857 0.2786
vn -0.6052 -0.6857 0.4044
vn -0.5147 -0.6857 0.5147
vn -0.4044 -0.6857 0.6052
vn -0.2786 -0.6857 0.6725
vn -0.1420 -0.6857 0.7139
vn -0.0000 -0.6857 0.7279
vn 0.1420 -0.6857 0.7139
vn 0.2785 -0.6857 0.6725
vn 0.4044 -0.6857 0.6052
vn 0.5147 -0.6857 0.5147
vn 0.6052 -0.6857 0.4044
vn 0.6725 -0.6857 0.2786
vn 0.7139 -0.6857 0.1420
vn 0.6836 -0.7298 -0.0000
vn -0.5774 -0.5774 0.5774
vn -0.5774 -0.5774 -0.5774
vn 0.5774 0.5774 -0.5773
vn -0.5774 0.5774 -0.5774
vn 0.6836 0.7298 0.0000
vn 0.7139 0.6857 0.1420
vn 0.6725 0.6857 0.2786
vn 0.6052 0.6857 0.4044
vn 0.5147 0.6857 0.5147
vn 0.4044 0.6857 0.6052
vn 0.2785 0.6857 0.6725
vn 0.1420 0.6857 0.7139
vn 0.0000 0.6857 0.7279
vn -0.1420 0.6857 0.7139
vn -0.2786 0.6857 0.6725
vn -0.4044 0.6857 0.6052
vn -0.5147 0.6857 0.5147
vn -0.6052 0.6857 0.4044
vn -0.6725 0.6857 0.2786
vn -0.7139 0.6857 0.1420
vn -0.6836 0.7298 0.0000
vn 0.5774 0.5774 0.5774
vn 0.5774 -0.5774 0.5774
vn -0.5774 0.5774 0.5774
vn -0.7139 -0.6857 -0.1420
vn -0.7139 0.6857 -0.1420
vn 0.7139 -0.6857 -0.1420
vn 0.6725 -0.6857 -0.2786
vn 0.6052 -0.6857 -0.4044
vn 0.5147 -0.6857 -0.5147
vn 0.4044 -0.6857 -0.6052
vn 0.2786 -0.6857 -0.6725
vn 0.1420 -0.6857 -0.7139
vn 0.0000 -0.6857 -0.7279
vn -0.1420 -0.6857 -0.7139
vn -0.2786 -0.6857 -0.6725
vn -0.4044 -0.6857 -0.6052
vn -0.5147 -0.6857 -0.5147
vn -0.6052 -0.6857 -0.4044
vn -0.6725 -0.6857 -0.2786
vn -0.5147 0.6857 -0.5147
vn -0.6052 0.6857 -0.4044
vn -0.6725 0.6857 -0.2786
vn 0.1420 0.6857 -0.7139
vn 0.0000 0.6857 -0.7279
vn -0.1420 0.6857 -0.7139
vn 0.4044 0.6857 -0.6052
vn 0.2786 0.6857 -0.6725
vn -0.4044 0.6857 -0.6052
vn -0.2786 0.6857 -0.6725
vn 0.5147 0.6857 -0.5147
vn 0.6052 0.6857 -0.4044
vn 0.6725 0.6857 -0.2786
vn 0.7139 0.6857 -0.1420
s 1
f 1//1 2//2 3//3 4//4 5//5 6//6 7//7 8//8 9//9 10//10 11//11 12//12 13//13 14//14 15//15 16//16 17//17 18//18 19//19 20//20
f 21//21 22//22 23//23 24//24 25//25 26//26 27//27 28//28 29//29 30//30 31//31 32//32 33//33 34//34 35//35 36//36 37//37 38//38 39//39
f 1//1 21//21 40//40 41//41
f 41//41 40//40 42//42 19//19
f 19//19 42//42 22//22 20//20
f 21//21 1//1 20//20 22//22
f 43//43 44//44 39//39 2//2
f 19//19 18//18 45//45 46//46 47//47 48//48 49//49 50//50 51//51 52//52 53//53 54//54 55//55 56//56 57//57 58//58 43//43 2//2 1//1 41//41
f 56//56 59//59 60//60 57//57
f 57//57 60//60 61//61 58//58
f 17//17 24//24 23//23 18//18
f 3//3 38//38 37//37 4//4
f 2//2 39//39 38//38 3//3
f 5//5 36//36 35//35 6//6
f 10//10 31//31 30//30 11//11
f 51//51 62//62 63//63 52//52
f 15//15 26//26 25//25 16//16
f 52//52 63//63 64//64 53//53
f 11//11 30//30 29//29 12//12
f 6//6 35//35 34//34 7//7
f 49//49 65//65 66//66 50//50
f 7//7 34//34 33//33 8//8
f 55//55 67//67 59//59 56//56
f 13//13 28//28 27//27 14//14
f 16//16 25//25 24//24 17//17
f 39//39 44//44 61//61 60//60 59//59 67//67 68//68 64//64 63//63 62//62 66//66 65//65 69//69 70//70 71//71 72//72 23//23 22//22 42//42 40//40 21//21
f 54//54 68//68 67//67 55//55
f 48//48 69//69 65//65 49//49
f 46//46 71//71 70//70 47//47
f 9//9 32//32 31//31 10//10
f 4//4 37//37 36//36 5//5
f 18//18 23//23 72//72 45//45
f 58//58 61//61 44//44 43//43
f 50//50 66//66 62//62 51//51
f 12//12 29//29 28//28 13//13
f 8//8 33//33 32//32 9//9
f 53//53 64//64 68//68 54//54
f 45//45 72//72 71//71 46//46
f 14//14 27//27 26//26 15//15
f 47//47 70//70 69//69 48//48
