# Blender v2.79 (sub 0) OBJ File: ''
# www.blender.org
o Cube.001
v -0.600000 -1.000000 0.600000
v -0.600000 -1.000000 1.000000
v -1.000000 -1.000000 1.000000
v -1.000000 -1.000000 0.600000
v -0.600000 1.000000 0.600000
v -1.000000 1.000000 0.600000
v -1.000000 1.000000 1.000000
v -0.600000 1.000000 1.000000
v -0.600000 0.500000 1.000000
v -1.000000 0.500000 1.000000
v -1.000000 0.500000 -0.600000
v -1.000000 1.000000 -0.600000
v -1.000000 1.000000 -1.000000
v -1.000000 0.500000 -1.000000
v -0.600000 -0.500000 -1.000000
v -0.600000 -1.000000 -1.000000
v -1.000000 -1.000000 -1.000000
v -1.000000 -0.500000 -1.000000
v -0.600000 1.000000 -1.000000
v -0.600000 0.500000 -1.000000
v -0.600000 0.000000 -1.000000
v -1.000000 0.000000 -1.000000
v -1.000000 -1.000000 -0.600000
v -1.000000 -0.500000 -0.600000
v -1.000000 0.000000 -0.600000
v -0.600000 -0.500000 1.000000
v -1.000000 -0.500000 1.000000
v -0.600000 -0.000000 1.000000
v -1.000000 -0.000000 1.000000
v 1.000000 -1.000000 0.600000
v 1.000000 -0.500000 0.600000
v 1.000000 -0.500000 1.000000
v 1.000000 -1.000000 1.000000
v 0.600000 -0.500000 1.000000
v 0.600000 -1.000000 1.000000
v 0.200000 -0.500000 1.000000
v 0.200000 -1.000000 1.000000
v -0.200000 -0.500000 1.000000
v -0.200000 -1.000000 1.000000
v 1.000000 0.000000 -1.000000
v 1.000000 -0.500000 -1.000000
v 0.600000 -0.500000 -1.000000
v 0.600000 0.000000 -1.000000
v 0.200000 -0.500000 -1.000000
v 0.200000 0.000000 -1.000000
v -0.200000 -0.500000 -1.000000
v -0.200000 0.000000 -1.000000
v 1.000000 0.500000 -1.000000
v 0.600000 0.500000 -1.000000
v 0.200000 0.500000 -1.000000
v -0.200000 0.500000 -1.000000
v 1.000000 1.000000 -0.999999
v 0.600000 1.000000 -1.000000
v 0.200000 1.000000 -1.000000
v -0.200000 1.000000 -1.000000
v 1.000000 -1.000000 -1.000000
v 0.600000 -1.000000 -1.000000
v 0.200000 -1.000000 -1.000000
v -0.200000 -1.000000 -1.000000
v 0.600000 -1.000000 0.600000
v 0.200000 -1.000000 0.600000
v -0.200000 -1.000000 0.600000
v -0.200000 -1.000000 -0.600000
v -0.600000 -1.000000 -0.600000
v -0.200000 -1.000000 -0.200000
v -0.600000 -1.000000 -0.200000
v -0.200000 -1.000000 0.200000
v -0.600000 -1.000000 0.200000
v 0.200000 -1.000000 -0.600000
v 0.200000 -1.000000 -0.200000
v 0.200000 -1.000000 0.200000
v 0.600000 -1.000000 -0.600000
v 0.600000 -1.000000 -0.200000
v 0.600000 -1.000000 0.200000
v 1.000000 -1.000000 -0.600000
v 1.000000 -1.000000 -0.200000
v 1.000000 -1.000000 0.200000
v -0.600000 1.000000 -0.600000
v -0.200000 1.000000 -0.600000
v 0.200000 1.000000 -0.600000
v 0.600000 1.000000 -0.600000
v 1.000000 1.000000 -0.599999
v 1.000000 0.500000 -0.600000
v 1.000000 0.000000 -0.600000
v 1.000000 -0.500000 -0.600000
v 1.000000 -0.500000 -0.200000
v 1.000000 -0.500000 0.200000
v -1.000000 0.500000 0.600000
v -1.000000 -0.000000 0.600000
v -1.000000 0.500000 0.200000
v -1.000000 -0.000000 0.200000
v -1.000000 0.500000 -0.200000
v -1.000000 0.000000 -0.200000
v -1.000000 -0.500000 0.600000
v -1.000000 -0.500000 0.200000
v -1.000000 -0.500000 -0.200000
v -1.000000 -1.000000 0.200000
v -1.000000 -1.000000 -0.200000
v -1.000000 1.000000 0.200000
v -1.000000 1.000000 -0.200000
v -0.600000 1.000000 -0.200000
v -0.600000 1.000000 0.200000
v 1.000000 -0.500000 0.600000
v 1.000000 -0.500000 1.000000
v 0.600000 -0.500000 1.000000
v 0.600000 -0.500000 0.600000
v 0.200000 -0.500000 1.000000
v 0.200000 -0.500000 0.600000
v -0.200000 -0.500000 1.000000
v -0.200000 -0.500000 0.600000
v -0.600000 -0.500000 1.000000
v -0.600000 -0.500000 0.600000
v -0.200000 -0.500000 -0.600000
v -0.200000 -0.500000 -0.200000
v -0.600000 -0.500000 -0.200000
v -0.600000 -0.500000 -0.600000
v -0.200000 -0.500000 0.200000
v -0.600000 -0.500000 0.200000
v 0.200000 -0.500000 -0.600000
v 0.200000 -0.500000 -0.200000
v 0.200000 -0.500000 0.200000
v 0.600000 -0.500000 -0.600000
v 0.600000 -0.500000 -0.200000
v 0.600000 -0.500000 0.200000
v 1.000000 -0.500000 -0.600000
v 1.000000 -0.500000 -0.200000
v 1.000000 -0.500000 0.200000
v -0.600000 -0.000000 1.000000
v -0.600000 0.500000 1.000000
v -0.600000 0.500000 0.600000
v -0.600000 -0.000000 0.600000
v -0.600000 0.500000 0.200000
v -0.600000 -0.000000 0.200000
v -0.600000 0.500000 -0.200000
v -0.600000 0.000000 -0.200000
v -0.600000 0.500000 -0.600000
v -0.600000 0.000000 -0.600000
v -0.600000 -0.500000 1.000000
v -0.600000 -0.500000 0.600000
v -0.600000 -0.500000 0.200000
v -0.600000 -0.500000 -0.200000
v -0.600000 -0.500000 -0.600000
v -0.600000 1.000000 1.000000
v -0.600000 1.000000 0.600000
v -0.600000 1.000000 0.200000
v -0.600000 1.000000 -0.200000
v -0.600000 1.000000 -0.600000
v 1.000000 0.000000 -0.600000
v 1.000000 -0.500000 -0.600000
v 0.600000 -0.500000 -0.600000
v 0.600000 0.000000 -0.600000
v 0.200000 -0.500000 -0.600000
v 0.200000 0.000000 -0.600000
v -0.200000 -0.500000 -0.600000
v -0.200000 0.000000 -0.600000
v -0.600000 -0.500000 -0.600000
v -0.600000 0.000000 -0.600000
v 1.000000 0.500000 -0.600000
v 0.600000 0.500000 -0.600000
v 0.200000 0.500000 -0.600000
v -0.200000 0.500000 -0.600000
v -0.600000 0.500000 -0.600000
v 1.000000 1.000000 -0.599999
v 0.600000 1.000000 -0.600000
v 0.200000 1.000000 -0.600000
v -0.200000 1.000000 -0.600000
v -0.600000 1.000000 -0.600000
vn 0.0000 -1.0000 -0.0000
vn 0.0000 -0.7071 0.7071
vn -0.5774 -0.5774 0.5774
vn -0.7071 -0.7071 -0.0000
vn 0.0000 1.0000 0.0000
vn -0.7071 0.7071 0.0000
vn -0.5774 0.5774 0.5774
vn 0.0000 0.7071 0.7071
vn 0.0000 -0.0000 1.0000
vn -0.7071 -0.0000 0.7071
vn -1.0000 0.0000 0.0000
vn -0.5774 0.5774 -0.5774
vn -0.7071 0.0000 -0.7071
vn 0.0000 0.0000 -1.0000
vn 0.0000 -0.7071 -0.7071
vn -0.5774 -0.5774 -0.5774
vn 0.0000 0.7071 -0.7071
vn 0.7071 -0.7071 -0.0000
vn 1.0000 0.0000 0.0000
vn 0.7071 -0.0000 0.7071
vn 0.5774 -0.5774 0.5774
vn 0.7071 0.0000 -0.7071
vn 0.5774 0.5774 -0.5773
vn 0.5774 -0.5774 -0.5774
vn 0.7071 0.7071 0.0000
s 1
f 1//1 2//2 3//3 4//4
f 5//5 6//6 7//7 8//8
f 9//9 8//8 7//7 10//10
f 11//11 12//6 13//12 14//13
f 15//14 16//15 17//16 18//13
f 19//17 20//14 14//13 13//12
f 20//14 21//14 22//13 14//13
f 21//14 15//14 18//13 22//13
f 23//4 24//11 18//13 17//16
f 24//11 25//11 22//13 18//13
f 25//11 11//11 14//13 22//13
f 2//2 26//9 27//10 3//3
f 26//9 28//9 29//10 27//10
f 28//9 9//9 10//10 29//10
f 30//18 31//19 32//20 33//21
f 33//21 32//20 34//9 35//2
f 35//2 34//9 36//9 37//2
f 37//2 36//9 38//9 39//2
f 39//2 38//9 26//9 2//2
f 40//22 41//22 42//14 43//14
f 43//14 42//14 44//14 45//14
f 45//14 44//14 46//14 47//14
f 47//14 46//14 15//14 21//14
f 48//22 40//22 43//14 49//14
f 49//14 43//14 45//14 50//14
f 50//14 45//14 47//14 51//14
f 51//14 47//14 21//14 20//14
f 52//23 48//22 49//14 53//17
f 53//17 49//14 50//14 54//17
f 54//17 50//14 51//14 55//17
f 55//17 51//14 20//14 19//17
f 41//22 56//24 57//15 42//14
f 42//14 57//15 58//15 44//14
f 44//14 58//15 59//15 46//14
f 46//14 59//15 16//15 15//14
f 30//18 33//21 35//2 60//1
f 60//1 35//2 37//2 61//1
f 61//1 37//2 39//2 62//1
f 62//1 39//2 2//2 1//1
f 59//15 63//1 64//1 16//15
f 63//1 65//1 66//1 64//1
f 65//1 67//1 68//1 66//1
f 67//1 62//1 1//1 68//1
f 58//15 69//1 63//1 59//15
f 69//1 70//1 65//1 63//1
f 70//1 71//1 67//1 65//1
f 71//1 61//1 62//1 67//1
f 57//15 72//1 69//1 58//15
f 72//1 73//1 70//1 69//1
f 73//1 74//1 71//1 70//1
f 74//1 60//1 61//1 71//1
f 56//24 75//18 72//1 57//15
f 75//18 76//18 73//1 72//1
f 76//18 77//18 74//1 73//1
f 77//18 30//18 60//1 74//1
f 55//17 19//17 78//5 79//5
f 54//17 55//17 79//5 80//5
f 53//17 54//17 80//5 81//5
f 52//23 53//17 81//5 82//25
f 40//22 48//22 83//19 84//19
f 41//22 40//22 84//19 85//19
f 56//24 41//22 85//19 75//18
f 75//18 85//19 86//19 76//18
f 76//18 86//19 87//19 77//18
f 77//18 87//19 31//19 30//18
f 29//10 10//10 88//11 89//11
f 89//11 88//11 90//11 91//11
f 91//11 90//11 92//11 93//11
f 93//11 92//11 11//11 25//11
f 27//10 29//10 89//11 94//11
f 94//11 89//11 91//11 95//11
f 95//11 91//11 93//11 96//11
f 96//11 93//11 25//11 24//11
f 3//3 27//10 94//11 4//4
f 4//4 94//11 95//11 97//4
f 97//4 95//11 96//11 98//4
f 98//4 96//11 24//11 23//4
f 10//10 7//7 6//6 88//11
f 88//11 6//6 99//6 90//11
f 90//11 99//6 100//6 92//11
f 92//11 100//6 12//6 11//11
f 48//22 52//23 82//25 83//19
f 19//17 13//12 12//6 78//5
f 78//5 12//6 100//6 101//5
f 101//5 100//6 99//6 102//5
f 102//5 99//6 6//6 5//5
f 16//15 64//1 23//4 17//16
f 64//1 66//1 98//4 23//4
f 66//1 68//1 97//4 98//4
f 68//1 1//1 4//4 97//4
f 103//1 104//1 105//1 106//1
f 106//1 105//1 107//1 108//1
f 108//1 107//1 109//1 110//1
f 110//1 109//1 111//1 112//1
f 113//1 114//1 115//1 116//1
f 114//1 117//1 118//1 115//1
f 117//1 110//1 112//1 118//1
f 119//1 120//1 114//1 113//1
f 120//1 121//1 117//1 114//1
f 121//1 108//1 110//1 117//1
f 122//1 123//1 120//1 119//1
f 123//1 124//1 121//1 120//1
f 124//1 106//1 108//1 121//1
f 125//1 126//1 123//1 122//1
f 126//1 127//1 124//1 123//1
f 127//1 103//1 106//1 124//1
f 128//11 129//11 130//11 131//11
f 131//11 130//11 132//11 133//11
f 133//11 132//11 134//11 135//11
f 135//11 134//11 136//11 137//11
f 138//11 128//11 131//11 139//11
f 139//11 131//11 133//11 140//11
f 140//11 133//11 135//11 141//11
f 141//11 135//11 137//11 142//11
f 129//11 143//11 144//11 130//11
f 130//11 144//11 145//11 132//11
f 132//11 145//11 146//11 134//11
f 134//11 146//11 147//11 136//11
f 148//14 149//14 150//14 151//14
f 151//14 150//14 152//14 153//14
f 153//14 152//14 154//14 155//14
f 155//14 154//14 156//14 157//14
f 158//14 148//14 151//14 159//14
f 159//14 151//14 153//14 160//14
f 160//14 153//14 155//14 161//14
f 161//14 155//14 157//14 162//14
f 163//14 158//14 159//14 164//14
f 164//14 159//14 160//14 165//14
f 165//14 160//14 161//14 166//14
f 166//14 161//14 162//14 167//14
