# Blender v2.79 (sub 0) OBJ File: ''
# www.blender.org
mtllib 914571-02.mtl
o Cube
v 1.000000 -1.000000 -1.000000
v -1.000000 -1.000000 1.000000
v -1.000000 -1.000000 -1.000000
v 1.000000 1.000000 -0.999999
v -1.000000 1.000000 1.000000
v -1.000000 1.000000 -1.000000
v 0.000000 -1.000000 -1.000000
v 0.000000 1.000000 -1.000000
v -1.000000 -1.000000 -0.000000
v -1.000000 1.000000 -0.000000
v -1.000000 -1.000000 0.500000
v -1.000000 1.000000 0.500000
v -1.000000 -1.000000 -0.500000
v -1.000000 1.000000 -0.500000
v 0.000000 -1.000000 -0.500000
v 1.000000 -1.000000 -0.500000
v 1.000000 1.000000 -0.499999
v 0.000000 1.000000 -0.500000
v 0.500000 -1.000000 -1.000000
v 0.500000 1.000000 -1.000000
v 0.500000 1.000000 -0.500000
v 0.500000 -1.000000 -0.500000
v -0.500000 -1.000000 -1.000000
v -0.500000 -1.000000 1.000000
v -0.500000 1.000000 -1.000000
v -0.500000 1.000000 1.000000
v -0.500000 1.000000 0.000000
v -0.500000 -1.000000 -0.000000
v -0.500000 1.000000 0.500000
v -0.500000 -1.000000 0.500000
v -0.500000 -1.000000 -0.500000
v -0.500000 1.000000 -0.500000
vn 0.7071 -0.7071 0.0000
vn 0.5773 -0.5773 0.5773
vn -0.5773 -0.5773 0.5773
vn -0.7071 -0.7071 0.0000
vn 0.7071 0.7071 0.0000
vn -0.7071 0.7071 0.0000
vn -0.5773 0.5773 0.5773
vn 0.5773 0.5773 0.5773
vn -0.5773 0.5773 -0.5773
vn -0.5773 -0.5773 -0.5773
vn 0.0000 0.7071 -0.7071
vn 0.0000 -0.7071 -0.7071
vn 0.3015 0.9045 0.3015
vn 0.3015 -0.9045 0.3015
vn 0.5773 -0.5773 -0.5773
vn 0.5773 0.5773 -0.5773
vn 0.0000 0.7071 0.7071
vn 0.0000 -0.7071 0.7071
usemtl Material
s 1
f 30//1 24//2 2//3 11//4
f 29//5 12//6 5//7 26//8
f 24//2 26//8 5//7 2//3
f 13//4 14//6 6//9 3//10
f 25//11 23//12 3//10 6//9
f 20//11 19//12 7//12 8//11
f 11//4 12//6 10//6 9//4
f 32//13 14//6 10//6 27//5
f 31//14 28//1 9//4 13//4
f 2//3 5//7 12//6 11//4
f 27//5 10//6 12//6 29//5
f 28//1 30//1 11//4 9//4
f 23//12 31//14 13//4 3//10
f 25//11 6//9 14//6 32//13
f 1//15 4//16 17//8 16//2
f 20//11 8//11 18//17 21//17
f 19//12 22//18 15//18 7//12
f 9//4 10//6 14//6 13//4
f 1//15 16//2 22//18 19//12
f 4//16 20//11 21//17 17//8
f 4//16 1//15 19//12 20//11
f 8//11 25//11 32//13 18//17
f 7//12 15//18 31//14 23//12
f 8//11 7//12 23//12 25//11
f 26//8 24//2 30//1 29//5
f 29//5 30//1 28//1 27//5
f 27//5 28//1 31//14 32//13
f 32//13 31//14 15//18 18//17
f 18//17 15//18 22//18 21//17
f 21//17 22//18 16//2 17//8
