# Blender v2.79 (sub 0) OBJ File: ''
# www.blender.org
mtllib 914571-03-LP.mtl
o Cube
v -1.000000 -1.000000 1.000000
v -1.000000 -1.000000 -1.000000
v -1.000000 1.000000 1.000000
v -1.000000 1.000000 -1.000000
v 1.000000 -1.000000 -0.200000
v 1.000000 -1.000000 0.200000
v -1.000000 -1.000000 0.600000
v -1.000000 -1.000000 0.200000
v -1.000000 -1.000000 -0.200000
v -1.000000 -1.000000 -0.600000
v 1.000000 1.000000 -0.199999
v 1.000000 1.000000 0.200001
v -1.000000 1.000000 0.600000
v -1.000000 1.000000 0.200000
v -1.000000 1.000000 -0.200000
v -1.000000 1.000000 -0.600000
v -0.500000 -1.000000 -1.000000
v -0.500000 -1.000000 1.000000
v -0.500000 1.000000 -1.000000
v -0.500000 1.000000 1.000000
v -0.500000 1.000000 -0.600000
v -0.500000 1.000000 -0.200000
v 0.000000 1.000000 -0.200000
v 0.500000 1.000000 -0.200000
v -0.500000 1.000000 0.200000
v -0.000000 1.000000 0.200000
v 0.500000 1.000000 0.200000
v -0.500000 1.000000 0.600000
v -0.500000 -1.000000 -0.600000
v 0.500000 -1.000000 -0.200000
v 0.000000 -1.000000 -0.200000
v -0.500000 -1.000000 -0.200000
v 0.500000 -1.000000 0.200000
v 0.000000 -1.000000 0.200000
v -0.500000 -1.000000 0.200000
v -0.500000 -1.000000 0.600000
vn 0.0000 -1.0000 0.0000
vn 0.0000 1.0000 0.0000
vn -0.0000 0.0000 1.0000
vn -1.0000 -0.0000 -0.0000
vn 0.0000 0.0000 -1.0000
vn 1.0000 0.0000 0.0000
usemtl Material
s off
f 36//1 18//1 1//1 7//1
f 28//2 13//2 3//2 20//2
f 18//3 20//3 3//3 1//3
f 10//4 16//4 4//4 2//4
f 19//5 17//5 2//5 4//5
f 1//4 3//4 13//4 7//4
f 7//4 13//4 14//4 8//4
f 8//4 14//4 15//4 9//4
f 9//4 15//4 16//4 10//4
f 5//6 11//6 12//6 6//6
f 19//2 4//2 16//2 21//2
f 21//2 16//2 15//2 22//2
f 22//2 15//2 14//2 25//2
f 25//2 14//2 13//2 28//2
f 17//1 29//1 10//1 2//1
f 29//1 32//1 9//1 10//1
f 32//1 35//1 8//1 9//1
f 35//1 36//1 7//1 8//1
f 5//1 6//1 33//1 30//1
f 30//1 33//1 34//1 31//1
f 31//1 34//1 35//1 32//1
f 27//3 33//3 6//3 12//3
f 11//2 24//2 27//2 12//2
f 24//2 23//2 26//2 27//2
f 23//2 22//2 25//2 26//2
f 26//3 34//3 33//3 27//3
f 25//3 35//3 34//3 26//3
f 28//6 36//6 35//6 25//6
f 20//6 18//6 36//6 28//6
f 21//6 29//6 17//6 19//6
f 22//6 32//6 29//6 21//6
f 23//5 31//5 32//5 22//5
f 24//5 30//5 31//5 23//5
f 11//5 5//5 30//5 24//5
