# Blender v2.79 (sub 0) OBJ File: ''
# www.blender.org
mtllib 914571-03.mtl
o Cube
v -0.991000 -1.000000 0.991000
v -0.991000 -0.991000 1.000000
v -1.000000 -0.991000 0.991000
v -0.991000 -0.991000 -1.000000
v -0.991000 -1.000000 -0.991000
v -1.000000 -0.991000 -0.991000
v -1.000000 0.991000 0.991000
v -0.991000 0.991000 1.000000
v -0.991000 1.000000 0.991000
v -1.000000 0.991000 -0.991000
v -0.991000 1.000000 -0.991000
v -0.991000 0.991000 -1.000000
v 0.991000 -1.000000 -0.191000
v 0.991000 -0.991000 -0.200000
v 1.000000 -0.991000 -0.191000
v 0.991000 -1.000000 0.191000
v 1.000000 -0.991000 0.191000
v 0.991000 -0.991000 0.200000
v -0.991000 -1.000000 0.609000
v -1.000000 -0.991000 0.609000
v -1.000000 -0.991000 0.591000
v -0.991000 -1.000000 0.591000
v -0.991000 -1.000000 0.209000
v -1.000000 -0.991000 0.209000
v -1.000000 -0.991000 0.191000
v -0.991000 -1.000000 0.191000
v -0.991000 -1.000000 -0.191000
v -1.000000 -0.991000 -0.191000
v -1.000000 -0.991000 -0.209000
v -0.991000 -1.000000 -0.209000
v -0.991000 -1.000000 -0.609000
v -0.991000 -1.000000 -0.591000
v -1.000000 -0.991000 -0.591000
v -1.000000 -0.991000 -0.609000
v 0.991000 1.000000 -0.190999
v 1.000000 0.991000 -0.190999
v 0.991000 0.991000 -0.199999
v 0.991000 1.000000 0.191001
v 0.991000 0.991000 0.200001
v 1.000000 0.991000 0.191001
v -0.991000 1.000000 0.609000
v -0.991000 1.000000 0.591000
v -1.000000 0.991000 0.591000
v -1.000000 0.991000 0.609000
v -0.991000 1.000000 0.209000
v -0.991000 1.000000 0.191000
v -1.000000 0.991000 0.191000
v -1.000000 0.991000 0.209000
v -0.991000 1.000000 -0.191000
v -0.991000 1.000000 -0.209000
v -1.000000 0.991000 -0.209000
v -1.000000 0.991000 -0.191000
v -0.991000 1.000000 -0.609000
v -1.000000 0.991000 -0.609000
v -1.000000 0.991000 -0.591000
v -0.991000 1.000000 -0.591000
v -0.509000 -0.991000 -1.000000
v -0.500000 -0.991000 -0.991000
v -0.509000 -1.000000 -0.991000
v -0.509000 -1.000000 0.991000
v -0.500000 -0.991000 0.991000
v -0.509000 -0.991000 1.000000
v -0.509000 0.991000 -1.000000
v -0.509000 1.000000 -0.991000
v -0.500000 0.991000 -0.991000
v -0.509000 1.000000 0.991000
v -0.509000 0.991000 1.000000
v -0.500000 0.991000 0.991000
v -0.509000 1.000000 -0.609000
v -0.509000 1.000000 -0.591000
v -0.500000 0.991000 -0.591000
v -0.500000 0.991000 -0.609000
v -0.509000 1.000000 -0.209000
v -0.509000 1.000000 -0.191000
v -0.491000 1.000000 -0.191000
v -0.491000 0.991000 -0.200000
v -0.500000 0.991000 -0.209000
v -0.009000 0.991000 -0.200000
v -0.009000 1.000000 -0.191000
v 0.009000 1.000000 -0.191000
v 0.009000 0.991000 -0.200000
v 0.509000 0.991000 -0.200000
v 0.491000 0.991000 -0.200000
v 0.491000 1.000000 -0.191000
v 0.509000 1.000000 -0.191000
v -0.509000 1.000000 0.191000
v -0.509000 1.000000 0.209000
v -0.500000 0.991000 0.209000
v -0.491000 0.991000 0.200000
v -0.491000 1.000000 0.191000
v -0.009000 0.991000 0.200000
v 0.009000 0.991000 0.200000
v 0.009000 1.000000 0.191000
v -0.009000 1.000000 0.191000
v 0.509000 0.991000 0.200000
v 0.509000 1.000000 0.191000
v 0.491000 1.000000 0.191000
v 0.491000 0.991000 0.200000
v -0.509000 1.000000 0.609000
v -0.500000 0.991000 0.609000
v -0.500000 0.991000 0.591000
v -0.509000 1.000000 0.591000
v -0.509000 -1.000000 -0.609000
v -0.500000 -0.991000 -0.609000
v -0.500000 -0.991000 -0.591000
v -0.509000 -1.000000 -0.591000
v 0.509000 -0.991000 -0.200000
v 0.509000 -1.000000 -0.191000
v 0.491000 -1.000000 -0.191000
v 0.491000 -0.991000 -0.200000
v 0.009000 -0.991000 -0.200000
v 0.009000 -1.000000 -0.191000
v -0.009000 -1.000000 -0.191000
v -0.009000 -0.991000 -0.200000
v -0.509000 -1.000000 -0.209000
v -0.500000 -0.991000 -0.209000
v -0.491000 -0.991000 -0.200000
v -0.491000 -1.000000 -0.191000
v -0.509000 -1.000000 -0.191000
v 0.509000 -0.991000 0.200000
v 0.491000 -0.991000 0.200000
v 0.491000 -1.000000 0.191000
v 0.509000 -1.000000 0.191000
v 0.009000 -0.991000 0.200000
v -0.009000 -0.991000 0.200000
v -0.009000 -1.000000 0.191000
v 0.009000 -1.000000 0.191000
v -0.509000 -1.000000 0.191000
v -0.491000 -1.000000 0.191000
v -0.491000 -0.991000 0.200000
v -0.500000 -0.991000 0.209000
v -0.509000 -1.000000 0.209000
v -0.509000 -1.000000 0.609000
v -0.509000 -1.000000 0.591000
v -0.500000 -0.991000 0.591000
v -0.500000 -0.991000 0.609000
vn 0.3416 -0.8756 -0.3416
vn 0.3827 -0.9239 0.0000
vn -0.3827 -0.9239 0.0000
vn -0.3416 -0.8756 -0.3416
vn 0.3416 0.8756 -0.3416
vn -0.3416 0.8756 -0.3416
vn -0.3827 0.9239 0.0000
vn 0.3827 0.9239 0.0000
vn -0.8756 -0.3416 0.3416
vn -0.8756 0.3416 0.3416
vn -0.9239 0.3827 0.0000
vn -0.9239 -0.3827 0.0000
vn 0.3416 0.3416 -0.8756
vn 0.3416 -0.3416 -0.8756
vn -0.3416 -0.3416 -0.8756
vn -0.3416 0.3416 -0.8756
vn -0.3416 0.8756 0.3416
vn 0.3416 0.8756 0.3416
vn 0.3416 -0.8756 0.3416
vn -0.3416 -0.8756 0.3416
vn 0.0942 -0.9911 -0.0942
vn 0.0942 -0.9911 0.0942
vn 0.2871 -0.9528 -0.0980
vn 0.0000 0.9239 -0.3827
vn 0.0000 0.9239 0.3827
vn 0.0000 -0.3827 -0.9239
vn 0.0000 0.3827 -0.9239
vn 0.0000 -0.9239 0.3827
vn 0.0000 -0.9239 -0.3827
vn 0.9239 0.3827 0.0000
vn 0.9239 -0.3827 0.0000
vn 0.8756 -0.3416 -0.3416
vn 0.8756 0.3416 -0.3416
vn 0.2871 0.9528 -0.0980
vn 0.0942 0.9911 -0.0942
vn 0.0942 0.9911 0.0942
vn -0.8756 0.3416 -0.3416
vn -0.8756 -0.3416 -0.3416
vn 0.8756 0.3416 0.3416
vn 0.8756 -0.3416 0.3416
vn 0.0980 -0.9528 0.2871
vn 0.0980 -0.9528 -0.2871
vn 0.2871 0.9528 0.0980
vn 0.3283 0.5071 0.7969
vn 0.3283 -0.5071 0.7969
vn 0.0000 -0.3827 0.9239
vn 0.0000 0.3827 0.9239
vn 0.7969 0.5071 -0.3283
vn 0.7969 -0.5071 -0.3283
vn 0.7969 -0.5071 0.3283
vn 0.7969 0.5071 0.3283
vn 0.2871 -0.9528 0.0980
vn 0.3416 -0.3416 0.8756
vn 0.3416 0.3416 0.8756
vn 0.0980 0.9528 -0.2871
vn 0.0980 0.9528 0.2871
vn 0.3283 -0.5071 -0.7969
vn 0.3283 0.5071 -0.7969
vn -0.3416 -0.3416 0.8756
vn -0.3416 0.3416 0.8756
usemtl Material
s 1
f 59//1 103//2 31//3 5//4
f 64//5 11//6 53//7 69//8
f 3//9 7//10 44//11 20//12
f 63//13 57//14 4//15 12//16
f 99//8 41//7 9//17 66//18
f 133//2 60//19 1//20 19//3
f 119//21 128//22 26//3 27//3
f 106//2 115//23 30//3 32//3
f 35//5 85//24 96//25 38//18
f 37//13 14//14 107//26 82//27
f 13//1 16//19 123//28 108//29
f 72//30 104//31 58//32 65//33
f 70//8 56//7 50//7 73//34
f 74//35 49//7 46//7 86//36
f 34//12 54//11 10//37 6//38
f 29//12 51//11 55//11 33//12
f 25//12 47//11 52//11 28//12
f 21//12 43//11 48//11 24//12
f 15//32 36//33 40//39 17//40
f 113//29 126//28 129//41 118//42
f 87//43 45//7 42//7 102//8
f 89//44 130//45 125//46 91//47
f 83//27 110//26 111//26 81//27
f 77//48 116//49 105//31 71//30
f 92//47 124//46 121//46 98//47
f 101//30 135//31 131//50 88//51
f 109//29 122//28 127//28 112//29
f 132//52 134//2 22//3 23//3
f 95//47 120//46 18//53 39//54
f 84//24 80//24 93//25 97//25
f 79//24 75//55 90//56 94//25
f 78//27 114//26 117//57 76//58
f 68//39 61//40 136//31 100//30
f 1//20 2//59 3//9
f 4//15 5//4 6//38
f 7//10 8//60 9//17
f 10//37 11//6 12//16
f 13//1 14//14 15//32
f 16//19 17//40 18//53
f 19//3 20//12 21//12 22//3
f 23//3 24//12 25//12 26//3
f 27//3 28//12 29//12 30//3
f 31//3 32//3 33//12 34//12
f 35//5 36//33 37//13
f 38//18 39//54 40//39
f 41//7 42//7 43//11 44//11
f 45//7 46//7 47//11 48//11
f 49//7 50//7 51//11 52//11
f 53//7 54//11 55//11 56//7
f 57//14 58//32 59//1
f 60//19 61//40 62//53
f 63//13 64//5 65//33
f 66//18 67//54 68//39
f 69//8 70//8 71//30 72//30
f 73//34 74//35 75//55 76//58 77//48
f 78//27 79//24 80//24 81//27
f 82//27 83//27 84//24 85//24
f 86//36 87//43 88//51 89//44 90//56
f 91//47 92//47 93//25 94//25
f 95//47 96//25 97//25 98//47
f 99//8 100//30 101//30 102//8
f 103//2 104//31 105//31 106//2
f 107//26 108//29 109//29 110//26
f 111//26 112//29 113//29 114//26
f 115//23 116//49 117//57 118//42 119//21
f 120//46 121//46 122//28 123//28
f 124//46 125//46 126//28 127//28
f 128//22 129//41 130//45 131//50 132//52
f 133//2 134//2 135//31 136//31
f 59//1 5//4 4//15 57//14
f 62//53 2//59 1//20 60//19
f 34//12 6//38 5//4 31//3
f 2//59 8//60 7//10 3//9
f 6//38 10//37 12//16 4//15
f 63//13 12//16 11//6 64//5
f 66//18 9//17 8//60 67//54
f 53//7 11//6 10//37 54//11
f 15//32 17//40 16//19 13//1
f 3//9 20//12 19//3 1//20
f 21//12 24//12 23//3 22//3
f 25//12 28//12 27//3 26//3
f 29//12 33//12 32//3 30//3
f 35//5 38//18 40//39 36//33
f 9//17 41//7 44//11 7//10
f 42//7 45//7 48//11 43//11
f 46//7 49//7 52//11 47//11
f 50//7 56//7 55//11 51//11
f 43//11 21//12 20//12 44//11
f 47//11 25//12 24//12 48//11
f 51//11 29//12 28//12 52//11
f 54//11 34//12 33//12 55//11
f 36//33 15//32 14//14 37//13
f 39//54 18//53 17//40 40//39
f 85//24 35//5 37//13 82//27
f 95//47 39//54 38//18 96//25
f 106//2 32//3 31//3 103//2
f 119//21 27//3 30//3 115//23
f 132//52 23//3 26//3 128//22
f 133//2 19//3 22//3 134//2
f 56//7 70//8 69//8 53//7
f 49//7 74//35 73//34 50//7
f 75//55 79//24 78//27 76//58
f 80//24 84//24 83//27 81//27
f 45//7 87//43 86//36 46//7
f 89//44 91//47 94//25 90//56
f 92//47 98//47 97//25 93//25
f 41//7 99//8 102//8 42//7
f 13//1 108//29 107//26 14//14
f 109//29 112//29 111//26 110//26
f 113//29 118//42 117//57 114//26
f 18//53 120//46 123//28 16//19
f 121//46 124//46 127//28 122//28
f 125//46 130//45 129//41 126//28
f 134//2 132//52 131//50 135//31
f 122//28 109//29 108//29 123//28
f 126//28 113//29 112//29 127//28
f 128//22 119//21 118//42 129//41
f 115//23 106//2 105//31 116//49
f 103//2 59//1 58//32 104//31
f 87//43 102//8 101//30 88//51
f 84//24 97//25 96//25 85//24
f 79//24 94//25 93//25 80//24
f 74//35 86//36 90//56 75//55
f 70//8 73//34 77//48 71//30
f 64//5 69//8 72//30 65//33
f 57//14 63//13 65//33 58//32
f 67//54 62//53 61//40 68//39
f 99//8 66//18 68//39 100//30
f 60//19 133//2 136//31 61//40
f 135//31 101//30 100//30 136//31
f 130//45 89//44 88//51 131//50
f 124//46 92//47 91//47 125//46
f 120//46 95//47 98//47 121//46
f 110//26 83//27 82//27 107//26
f 114//26 78//27 81//27 111//26
f 116//49 77//48 76//58 117//57
f 104//31 72//30 71//30 105//31
f 62//53 67//54 8//60 2//59
