# Blender v2.79 (sub 0) OBJ File: ''
# www.blender.org
o Cube
v 1.000000 -1.000000 -1.000000
v 1.000000 -1.000000 1.000000
v -1.000000 -1.000000 -1.000000
v 1.000000 1.000000 -0.999999
v 0.999999 1.000000 1.000001
v -1.000000 1.000000 -1.000000
v 1.000000 -1.000000 -0.500000
v 1.000000 -1.000000 0.000000
v 1.000000 -1.000000 0.500000
v -1.000000 -1.000000 -0.500000
v 1.000000 1.000000 -0.499999
v 1.000000 1.000000 0.000001
v 1.000000 1.000000 0.500001
v -1.000000 1.000000 -0.500000
v 1.000000 -0.666667 -1.000000
v 1.000000 -0.333333 -1.000000
v 1.000000 0.000000 -1.000000
v 1.000000 0.333333 -1.000000
v 1.000000 0.666667 -1.000000
v 1.000000 -0.666667 1.000000
v 1.000000 -0.333333 1.000000
v 1.000000 0.000000 1.000000
v 1.000000 0.333333 1.000000
v 0.999999 0.666667 1.000000
v -1.000000 -0.666667 -1.000000
v -1.000000 -0.333333 -1.000000
v -1.000000 0.000000 -1.000000
v -1.000000 0.333333 -1.000000
v -1.000000 0.666667 -1.000000
v -1.000000 0.666667 -0.500000
v -1.000000 0.333333 -0.500000
v -1.000000 -0.000000 -0.500000
v -1.000000 -0.333333 -0.500000
v -1.000000 -0.666667 -0.500000
v 1.000000 0.666667 -0.500000
v 1.000000 0.333333 -0.500000
v 1.000000 -0.000000 -0.500000
v 1.000000 -0.333333 -0.500000
v 1.000000 -0.666667 -0.500000
v 1.000000 0.666667 0.000000
v 1.000000 0.333333 0.000000
v 1.000000 -0.000000 0.000000
v 1.000000 -0.333333 0.000000
v 1.000000 -0.666667 0.000000
v 1.000000 0.666667 0.500000
v 1.000000 0.333333 0.500000
v 1.000000 -0.000000 0.500000
v 1.000000 -0.333333 0.500000
v 1.000000 -0.666667 0.500000
v 0.500000 -1.000000 -1.000000
v 0.000000 -1.000000 -1.000000
v -0.500000 -1.000000 -1.000000
v 0.500000 -1.000000 1.000000
v 0.500000 1.000000 -1.000000
v 0.000000 1.000000 -1.000000
v -0.500000 1.000000 -1.000000
v 0.499999 1.000000 1.000000
v -0.500000 1.000000 -0.500000
v 0.000000 1.000000 -0.500000
v 0.500000 1.000000 -0.500000
v 0.500000 1.000000 0.000000
v 0.500000 1.000000 0.500000
v 0.500000 -1.000000 -0.500000
v 0.000000 -1.000000 -0.500000
v -0.500000 -1.000000 -0.500000
v 0.500000 -1.000000 -0.000000
v 0.500000 -1.000000 0.500000
v 0.500000 0.666667 -1.000000
v 0.000000 0.666667 -1.000000
v -0.500000 0.666667 -1.000000
v 0.500000 0.333333 -1.000000
v 0.000000 0.333333 -1.000000
v -0.500000 0.333333 -1.000000
v 0.500000 0.000000 -1.000000
v 0.000000 0.000000 -1.000000
v -0.500000 0.000000 -1.000000
v 0.500000 -0.333333 -1.000000
v 0.000000 -0.333333 -1.000000
v -0.500000 -0.333333 -1.000000
v 0.500000 -0.666667 -1.000000
v 0.000000 -0.666667 -1.000000
v -0.500000 -0.666667 -1.000000
v 0.500000 -0.666667 1.000000
v 0.500000 -0.333333 1.000000
v 0.500000 0.000000 1.000000
v 0.500000 0.333333 1.000000
v 0.499999 0.666667 1.000000
v 0.000000 1.000000 -1.000000
v -0.500000 1.000000 -1.000000
v 0.000000 0.666667 -1.000000
v -0.500000 0.666667 -1.000000
v 0.000000 1.000000 -0.500000
v -0.500000 1.000000 -0.500000
v 0.000000 0.666667 -0.500000
v -0.500000 0.666667 -0.500000
v 0.500000 1.000000 0.000001
v 0.500000 1.000000 -0.499999
v 0.500000 -1.000000 0.500000
v 0.500000 -1.000000 0.000000
v 0.500000 -1.000000 -0.500000
v 0.499999 1.000000 1.000001
v 0.500000 -1.000000 1.000000
v 0.500000 -1.000000 -0.500000
v 0.000000 -1.000000 -0.500000
v 0.500000 1.000000 -0.500000
v 0.000000 1.000000 -0.500000
v 0.500000 0.666667 -0.500000
v 0.000000 0.666667 -0.500000
v 0.500000 0.333333 -0.500000
v 0.000000 0.333333 -0.500000
v 0.500000 0.000000 -0.500000
v 0.000000 0.000000 -0.500000
v 0.500000 -0.333333 -0.500000
v 0.000000 -0.333333 -0.500000
v 0.500000 -0.666667 -0.500000
v 0.000000 -0.666667 -0.500000
v 0.500000 1.000000 0.500001
v 0.500000 -0.666667 1.000000
v 0.500000 -0.333333 1.000000
v 0.500000 0.000000 1.000000
v 0.500000 0.333333 1.000000
v 0.499999 0.666667 1.000000
v 0.500000 0.666667 -0.500000
v 0.500000 0.333333 -0.500000
v 0.500000 -0.000000 -0.500000
v 0.500000 -0.333333 -0.500000
v 0.500000 -0.666667 -0.500000
v 0.500000 0.666667 0.000000
v 0.500000 0.333333 0.000000
v 0.500000 -0.000000 0.000000
v 0.500000 -0.333333 0.000000
v 0.500000 -0.666667 0.000000
v 0.500000 0.666667 0.500000
v 0.500000 0.333333 0.500000
v 0.500000 -0.000000 0.500000
v 0.500000 -0.333333 0.500000
v 0.500000 -0.666667 0.500000
v -1.000000 -1.000000 -0.500000
v -1.000000 -0.666667 -0.500000
v -1.000000 -0.333333 -0.500000
v -1.000000 0.000000 -0.500000
v -1.000000 0.333333 -0.500000
v -1.000000 0.666667 -0.500000
v -0.500000 -1.000000 -0.500000
v -0.500000 0.666667 -0.500000
v -0.500000 0.333333 -0.500000
v -0.500000 0.000000 -0.500000
v -0.500000 -0.333333 -0.500000
v -0.500000 -0.666667 -0.500000
v 1.000000 0.666667 0.000000
v 1.000000 0.333333 0.000000
v 1.000000 -0.000000 0.000000
v 0.500000 0.666667 0.000000
v 0.500000 0.333333 0.000000
v 0.500000 -0.000000 0.000000
vn 1.0000 -0.0000 0.0000
vn -1.0000 -0.0000 -0.0000
vn 0.0000 0.0000 -1.0000
vn 0.0000 1.0000 0.0000
vn 0.0000 -1.0000 0.0000
vn -0.0000 -0.0000 1.0000
s off
f 45//1 13//1 5//1 24//1
f 30//2 14//2 6//2 29//2
f 82//3 52//3 3//3 25//3
f 19//1 4//1 11//1 35//1
f 35//1 11//1 12//1 40//1
f 40//1 12//1 13//1 45//1
f 56//4 6//4 14//4 58//4
f 52//5 65//5 10//5 3//5
f 8//1 44//1 49//1 9//1
f 44//1 43//1 48//1 49//1
f 43//1 42//1 47//1 48//1
f 7//1 39//1 44//1 8//1
f 39//1 38//1 43//1 44//1
f 38//1 37//1 42//1 43//1
f 37//1 36//1 41//1 42//1
f 36//1 35//1 40//1 41//1
f 1//1 15//1 39//1 7//1
f 15//1 16//1 38//1 39//1
f 16//1 17//1 37//1 38//1
f 17//1 18//1 36//1 37//1
f 18//1 19//1 35//1 36//1
f 56//3 70//3 29//3 6//3
f 70//3 73//3 28//3 29//3
f 73//3 76//3 27//3 28//3
f 76//3 79//3 26//3 27//3
f 79//3 82//3 25//3 26//3
f 10//2 34//2 25//2 3//2
f 34//2 33//2 26//2 25//2
f 33//2 32//2 27//2 26//2
f 32//2 31//2 28//2 27//2
f 31//2 30//2 29//2 28//2
f 9//1 49//1 20//1 2//1
f 49//1 48//1 21//1 20//1
f 48//1 47//1 22//1 21//1
f 47//1 46//1 23//1 22//1
f 46//1 45//1 24//1 23//1
f 23//6 24//6 87//6 86//6
f 22//6 23//6 86//6 85//6
f 21//6 22//6 85//6 84//6
f 20//6 21//6 84//6 83//6
f 2//6 20//6 83//6 53//6
f 16//3 15//3 80//3 77//3
f 77//3 80//3 81//3 78//3
f 17//3 16//3 77//3 74//3
f 74//3 77//3 78//3 75//3
f 18//3 17//3 74//3 71//3
f 71//3 74//3 75//3 72//3
f 19//3 18//3 71//3 68//3
f 68//3 71//3 72//3 69//3
f 4//3 19//3 68//3 54//3
f 54//3 68//3 69//3 55//3
f 55//3 69//3 70//3 56//3
f 8//5 9//5 67//5 66//5
f 7//5 8//5 66//5 63//5
f 1//5 7//5 63//5 50//5
f 50//5 63//5 64//5 51//5
f 12//4 61//4 62//4 13//4
f 11//4 60//4 61//4 12//4
f 4//4 54//4 60//4 11//4
f 54//4 55//4 59//4 60//4
f 55//4 56//4 58//4 59//4
f 15//3 1//3 50//3 80//3
f 80//3 50//3 51//3 81//3
f 24//6 5//6 57//6 87//6
f 13//4 62//4 57//4 5//4
f 9//5 2//5 53//5 67//5
f 30//6 95//6 93//6 14//6
f 88//3 90//3 91//3 89//3
f 92//3 94//3 95//3 93//3
f 131//1 130//1 135//1 136//1
f 113//3 115//3 116//3 114//3
f 132//1 131//1 136//1 137//1
f 111//3 113//3 114//3 112//3
f 99//1 132//1 137//1 98//1
f 109//3 111//3 112//3 110//3
f 128//1 96//1 117//1 133//1
f 107//3 109//3 110//3 108//3
f 123//1 97//1 96//1 128//1
f 105//3 107//3 108//3 106//3
f 133//1 117//1 101//1 122//1
f 115//3 103//3 104//3 116//3
f 100//1 127//1 132//1 99//1
f 127//1 126//1 131//1 132//1
f 126//1 125//1 130//1 131//1
f 125//1 124//1 129//1 130//1
f 124//1 123//1 128//1 129//1
f 98//1 137//1 118//1 102//1
f 137//1 136//1 119//1 118//1
f 136//1 135//1 120//1 119//1
f 135//1 134//1 121//1 120//1
f 134//1 133//1 122//1 121//1
f 91//4 95//4 94//4 90//4
f 69//1 108//1 110//1 72//1
f 72//1 110//1 112//1 75//1
f 75//1 112//1 114//1 78//1
f 78//1 114//1 116//1 81//1
f 81//1 116//1 104//1 51//1
f 149//3 144//3 138//3 139//3
f 145//3 146//3 142//3 143//3
f 146//3 147//3 141//3 142//3
f 147//3 148//3 140//3 141//3
f 148//3 149//3 139//3 140//3
f 70//1 145//1 146//1 73//1
f 73//1 146//1 147//1 76//1
f 76//1 147//1 148//1 79//1
f 79//1 148//1 149//1 82//1
f 82//1 149//1 144//1 52//1
f 41//6 40//6 150//6 151//6
f 129//6 128//6 153//6 154//6
f 42//6 41//6 151//6 152//6
f 130//6 129//6 154//6 155//6
f 152//3 155//3 154//3 151//3
f 151//3 154//3 153//3 150//3
f 47//5 135//5 130//5 42//5
f 42//6 130//6 155//6 152//6
f 47//3 135//3 134//3 46//3
f 46//3 134//3 133//3 45//3
f 45//5 133//5 128//5 40//5
