# Blender v2.79 (sub 0) OBJ File: ''
# www.blender.org
o Cube.001
v -0.500000 -1.000000 0.600000
v -0.500000 -1.000000 1.000000
v -1.000000 -1.000000 1.000000
v -1.000000 -1.000000 0.600000
v -0.500000 1.000000 0.600000
v -1.000000 1.000000 0.600000
v -1.000000 1.000000 1.000000
v -0.500000 1.000000 1.000000
v -1.000000 -1.000000 -0.600000
v -1.000000 1.000000 -0.600000
v -1.000000 1.000000 -1.000000
v -1.000000 -1.000000 -1.000000
v -0.500000 1.000000 -1.000000
v -0.500000 -1.000000 -1.000000
v -1.000000 1.000000 0.200000
v -1.000000 -1.000000 0.200000
v -1.000000 1.000000 -0.200000
v -1.000000 -1.000000 -0.200000
v 1.000000 -1.000000 -0.200000
v 1.000000 1.000000 -0.199999
v 1.000000 1.000000 0.200001
v 1.000000 -1.000000 0.200000
v -0.500000 1.000000 -0.600000
v -0.500000 1.000000 -0.200000
v -0.500000 1.000000 0.200000
v -0.500000 -1.000000 -0.600000
v -0.500000 -1.000000 -0.200000
v -0.500000 -1.000000 0.200000
v 0.500000 -1.000000 0.200000
v 0.500000 -1.000000 -0.200000
v 0.000000 -1.000000 0.200000
v 0.000000 -1.000000 -0.200000
v 0.500000 1.000000 0.200000
v 0.500000 1.000000 -0.200000
v 0.000000 1.000000 -0.200000
v 0.000000 1.000000 0.200000
vn 0.7071 -0.7071 -0.0000
vn 0.5774 -0.5774 0.5774
vn -0.5774 -0.5774 0.5774
vn -0.7071 -0.7071 -0.0000
vn 0.7071 0.7071 0.0000
vn -0.7071 0.7071 0.0000
vn -0.5774 0.5774 0.5774
vn 0.5774 0.5774 0.5774
vn -0.5774 0.5774 -0.5774
vn -0.5774 -0.5774 -0.5774
vn 0.5774 0.5774 -0.5774
vn 0.5774 -0.5774 -0.5774
vn 0.5774 -0.5773 -0.5774
vn 0.5774 0.5774 -0.5773
vn 0.5774 0.5773 0.5774
vn 0.5773 -0.5774 0.5774
vn 0.3015 0.9045 -0.3015
vn 0.3015 0.9045 0.3015
vn 0.3015 -0.9045 -0.3015
vn 0.3015 -0.9045 0.3015
vn -0.0000 -0.7071 0.7071
vn 0.0000 -0.7071 -0.7071
vn -0.0000 0.7071 0.7071
vn 0.0000 0.7071 -0.7071
s 1
f 1//1 2//2 3//3 4//4
f 5//5 6//6 7//7 8//8
f 2//2 8//8 7//7 3//3
f 9//4 10//6 11//9 12//10
f 13//11 14//12 12//10 11//9
f 3//3 7//7 6//6 4//4
f 4//4 6//6 15//6 16//4
f 16//4 15//6 17//6 18//4
f 18//4 17//6 10//6 9//4
f 19//13 20//14 21//15 22//16
f 13//11 11//9 10//6 23//5
f 23//5 10//6 17//6 24//17
f 24//17 17//6 15//6 25//18
f 25//18 15//6 6//6 5//5
f 14//12 26//1 9//4 12//10
f 26//1 27//19 18//4 9//4
f 27//19 28//20 16//4 18//4
f 28//20 1//1 4//4 16//4
f 19//13 22//16 29//21 30//22
f 30//22 29//21 31//21 32//22
f 32//22 31//21 28//20 27//19
f 33//23 29//21 22//16 21//15
f 20//14 34//24 33//23 21//15
f 34//24 35//24 36//23 33//23
f 35//24 24//17 25//18 36//23
f 36//23 31//21 29//21 33//23
f 25//18 28//20 31//21 36//23
f 5//5 1//1 28//20 25//18
f 8//8 2//2 1//1 5//5
f 23//5 26//1 14//12 13//11
f 24//17 27//19 26//1 23//5
f 35//24 32//22 27//19 24//17
f 34//24 30//22 32//22 35//24
f 20//14 19//13 30//22 34//24
