# Blender v2.79 (sub 0) OBJ File: ''
# www.blender.org
mtllib 914571-02.mtl
o Cube
v 1.000000 -0.983000 -0.983000
v 0.983000 -1.000000 -0.983000
v 0.983000 -0.983000 -1.000000
v -0.983000 -1.000000 0.983000
v -0.983000 -0.983000 1.000000
v -1.000000 -0.983000 0.983000
v -0.983000 -0.983000 -1.000000
v -0.983000 -1.000000 -0.983000
v -1.000000 -0.983000 -0.983000
v 1.000000 0.983000 -0.982999
v 0.983000 0.983000 -0.999999
v 0.983000 1.000000 -0.982999
v -1.000000 0.983000 0.983000
v -0.983000 0.983000 1.000000
v -0.983000 1.000000 0.983000
v -1.000000 0.983000 -0.983000
v -0.983000 1.000000 -0.983000
v -0.983000 0.983000 -1.000000
v 0.017000 -1.000000 -0.983000
v -0.017000 -1.000000 -0.983000
v -0.017000 -0.983000 -1.000000
v 0.017000 -0.983000 -1.000000
v 0.017000 1.000000 -0.983000
v 0.017000 0.983000 -1.000000
v -0.017000 0.983000 -1.000000
v -0.017000 1.000000 -0.983000
v 0.483000 -0.983000 -1.000000
v 0.517000 -0.983000 -1.000000
v 0.517000 -1.000000 -0.983000
v 0.483000 -1.000000 -0.983000
v 0.483000 1.000000 -0.983000
v 0.517000 1.000000 -0.983000
v 0.517000 0.983000 -1.000000
v 0.483000 0.983000 -1.000000
v -0.517000 -1.000000 -0.983000
v -0.517000 -0.983000 -1.000000
v -0.483000 -0.983000 -1.000000
v -0.483000 -1.000000 -0.983000
v -0.517000 -1.000000 0.983000
v -0.500000 -0.983000 0.983000
v -0.517000 -0.983000 1.000000
v -0.517000 1.000000 -0.983000
v -0.483000 1.000000 -0.983000
v -0.483000 0.983000 -1.000000
v -0.517000 0.983000 -1.000000
v -0.517000 1.000000 0.983000
v -0.517000 0.983000 1.000000
v -0.500000 0.983000 0.983000
v -0.983000 -1.000000 0.017000
v -1.000000 -0.983000 0.017000
v -1.000000 -0.983000 -0.017000
v -0.983000 -1.000000 -0.017000
v -0.983000 1.000000 0.017000
v -0.983000 1.000000 -0.017000
v -1.000000 0.983000 -0.017000
v -1.000000 0.983000 0.017000
v -0.500000 0.983000 -0.017000
v -0.517000 1.000000 -0.017000
v -0.517000 1.000000 0.017000
v -0.500000 0.983000 0.017000
v -0.500000 -0.983000 0.017000
v -0.517000 -1.000000 0.017000
v -0.517000 -1.000000 -0.017000
v -0.500000 -0.983000 -0.017000
v -0.500000 0.983000 0.517000
v -0.500000 0.983000 0.483000
v -0.517000 1.000000 0.483000
v -0.517000 1.000000 0.517000
v -0.983000 -1.000000 0.483000
v -0.983000 -1.000000 0.517000
v -1.000000 -0.983000 0.517000
v -1.000000 -0.983000 0.483000
v -0.983000 1.000000 0.483000
v -1.000000 0.983000 0.483000
v -1.000000 0.983000 0.517000
v -0.983000 1.000000 0.517000
v -0.500000 -0.983000 0.483000
v -0.500000 -0.983000 0.517000
v -0.517000 -1.000000 0.517000
v -0.517000 -1.000000 0.483000
v -1.000000 -0.983000 -0.517000
v -0.983000 -1.000000 -0.517000
v -0.983000 -1.000000 -0.483000
v -1.000000 -0.983000 -0.483000
v -1.000000 0.983000 -0.517000
v -1.000000 0.983000 -0.483000
v -0.983000 1.000000 -0.483000
v -0.983000 1.000000 -0.517000
v -0.017000 -1.000000 -0.517000
v 0.017000 -1.000000 -0.517000
v 0.017000 -0.983000 -0.500000
v -0.017000 -0.983000 -0.500000
v 0.517000 -1.000000 -0.517000
v 0.517000 -0.983000 -0.500000
v 0.483000 -0.983000 -0.500000
v 0.483000 -1.000000 -0.517000
v -0.483000 -1.000000 -0.517000
v -0.483000 -0.983000 -0.500000
v -0.500000 -0.983000 -0.483000
v -0.517000 -1.000000 -0.483000
v -0.517000 -1.000000 -0.517000
v 0.983000 -1.000000 -0.517000
v 1.000000 -0.983000 -0.517000
v 0.983000 -0.983000 -0.500000
v 0.983000 1.000000 -0.516999
v 0.983000 0.983000 -0.499999
v 1.000000 0.983000 -0.516999
v -0.017000 1.000000 -0.517000
v -0.017000 0.983000 -0.500000
v 0.017000 0.983000 -0.500000
v 0.017000 1.000000 -0.517000
v 0.517000 1.000000 -0.517000
v 0.483000 1.000000 -0.517000
v 0.483000 0.983000 -0.500000
v 0.517000 0.983000 -0.500000
v -0.500000 0.983000 -0.483000
v -0.483000 0.983000 -0.500000
v -0.483000 1.000000 -0.517000
v -0.517000 1.000000 -0.517000
v -0.517000 1.000000 -0.483000
vn 0.0000 -0.9239 -0.3827
vn 0.0942 -0.9911 0.0942
vn -0.3827 -0.9239 0.0000
vn -0.3416 -0.8756 -0.3416
vn 0.0000 0.9239 -0.3827
vn -0.3416 0.8756 -0.3416
vn -0.3827 0.9239 0.0000
vn 0.0942 0.9911 0.0942
vn -0.8756 -0.3416 0.3416
vn -0.8756 0.3416 0.3416
vn -0.9239 0.3827 0.0000
vn -0.9239 -0.3827 0.0000
vn 0.0000 0.3827 -0.9239
vn 0.0000 -0.3827 -0.9239
vn -0.3416 -0.3416 -0.8756
vn -0.3416 0.3416 -0.8756
vn 0.3416 0.8756 -0.3416
vn 0.0000 0.9239 0.3827
vn 0.3416 0.8756 0.3416
vn 0.0000 -0.9239 0.3827
vn 0.0980 -0.9528 0.2871
vn 0.3416 -0.8756 -0.3416
vn 0.3416 -0.8756 0.3416
vn 0.9239 0.3827 0.0000
vn 0.9239 -0.3827 0.0000
vn 0.7969 -0.5071 0.3283
vn 0.7969 0.5071 0.3283
vn 0.3827 -0.9239 0.0000
vn -0.3416 -0.8756 0.3416
vn 0.2871 0.9528 0.0980
vn 0.3827 0.9239 0.0000
vn 0.2871 -0.9528 0.0980
vn -0.8756 0.3416 -0.3416
vn -0.8756 -0.3416 -0.3416
vn 0.3416 0.3416 -0.8756
vn 0.3416 -0.3416 -0.8756
vn 0.0980 0.9528 0.2871
vn 0.3416 -0.3416 0.8756
vn 0.3416 0.3416 0.8756
vn -0.3416 0.3416 0.8756
vn -0.3416 -0.3416 0.8756
vn -0.3416 0.8756 0.3416
vn 0.8756 0.3416 0.3416
vn 0.8756 -0.3416 0.3416
vn 0.0000 0.3827 0.9239
vn 0.0000 -0.3827 0.9239
vn 0.3283 0.5071 0.7969
vn 0.3283 -0.5071 0.7969
vn 0.8756 -0.3416 -0.3416
vn 0.8756 0.3416 -0.3416
usemtl Material
s 1
f 35//1 101//2 82//3 8//4
f 42//5 17//6 88//7 119//8
f 6//9 13//10 75//11 71//12
f 45//13 36//14 7//15 18//16
f 12//17 32//5 112//18 105//19
f 20//1 89//20 97//21 38//1
f 2//22 102//23 93//20 29//1
f 31//5 23//5 111//18 113//18
f 51//12 55//11 86//11 84//12
f 57//24 64//25 99//26 116//27
f 72//12 74//11 56//11 50//12
f 79//28 39//23 4//29 70//3
f 120//30 87//7 54//7 58//31
f 100//32 63//28 52//3 83//3
f 81//12 85//11 16//33 9//34
f 30//1 96//20 90//20 19//1
f 11//35 3//36 28//14 33//13
f 26//5 43//5 118//37 108//18
f 34//13 27//14 22//14 24//13
f 41//38 47//39 14//40 5//41
f 68//31 76//7 15//42 46//19
f 48//43 40//44 78//25 65//24
f 25//13 21//14 37//14 44//13
f 59//31 53//7 73//7 67//31
f 110//45 91//46 95//46 114//45
f 62//28 80//28 69//3 49//3
f 61//25 60//24 66//24 77//25
f 104//38 106//39 115//45 94//46
f 117//47 98//48 92//46 109//45
f 1//49 2//22 3//36
f 4//29 5//41 6//9
f 7//15 8//4 9//34
f 10//50 11//35 12//17
f 13//10 14//40 15//42
f 16//33 17//6 18//16
f 19//1 20//1 21//14 22//14
f 23//5 24//13 25//13 26//5
f 27//14 28//14 29//1 30//1
f 31//5 32//5 33//13 34//13
f 35//1 36//14 37//14 38//1
f 39//23 40//44 41//38
f 42//5 43//5 44//13 45//13
f 46//19 47//39 48//43
f 49//3 50//12 51//12 52//3
f 53//7 54//7 55//11 56//11
f 57//24 58//31 59//31 60//24
f 61//25 62//28 63//28 64//25
f 65//24 66//24 67//31 68//31
f 69//3 70//3 71//12 72//12
f 73//7 74//11 75//11 76//7
f 77//25 78//25 79//28 80//28
f 81//12 82//3 83//3 84//12
f 85//11 86//11 87//7 88//7
f 89//20 90//20 91//46 92//46
f 93//20 94//46 95//46 96//20
f 97//21 98//48 99//26 100//32 101//2
f 102//23 103//44 104//38
f 105//19 106//39 107//43
f 108//18 109//45 110//45 111//18
f 112//18 113//18 114//45 115//45
f 116//27 117//47 118//37 119//8 120//30
f 35//1 8//4 7//15 36//14
f 3//36 11//35 10//50 1//49
f 41//38 5//41 4//29 39//23
f 81//12 9//34 8//4 82//3
f 5//41 14//40 13//10 6//9
f 9//34 16//33 18//16 7//15
f 45//13 18//16 17//6 42//5
f 46//19 15//42 14//40 47//39
f 88//7 17//6 16//33 85//11
f 30//1 19//1 22//14 27//14
f 34//13 24//13 23//5 31//5
f 21//14 25//13 24//13 22//14
f 89//20 20//1 19//1 90//20
f 2//22 29//1 28//14 3//36
f 11//35 33//13 32//5 12//17
f 96//20 30//1 29//1 93//20
f 27//14 34//13 33//13 28//14
f 20//1 38//1 37//14 21//14
f 25//13 44//13 43//5 26//5
f 36//14 45//13 44//13 37//14
f 47//39 41//38 40//44 48//43
f 68//31 46//19 48//43 65//24
f 101//2 35//1 38//1 97//21
f 72//12 50//12 49//3 69//3
f 73//7 53//7 56//11 74//11
f 120//30 58//31 57//24 116//27
f 80//28 62//28 61//25 77//25
f 55//11 51//12 50//12 56//11
f 53//7 59//31 58//31 54//7
f 62//28 49//3 52//3 63//28
f 59//31 67//31 66//24 60//24
f 6//9 71//12 70//3 4//29
f 15//42 76//7 75//11 13//10
f 39//23 79//28 78//25 40//44
f 74//11 72//12 71//12 75//11
f 76//7 68//31 67//31 73//7
f 79//28 70//3 69//3 80//28
f 51//12 84//12 83//3 52//3
f 54//7 87//7 86//11 55//11
f 63//28 100//32 99//26 64//25
f 1//49 103//44 102//23 2//22
f 12//17 105//19 107//43 10//50
f 26//5 108//18 111//18 23//5
f 31//5 113//18 112//18 32//5
f 42//5 119//8 118//37 43//5
f 100//32 83//3 82//3 101//2
f 87//7 120//30 119//8 88//7
f 106//39 104//38 103//44 107//43
f 110//45 114//45 113//18 111//18
f 95//46 91//46 90//20 96//20
f 104//38 94//46 93//20 102//23
f 115//45 106//39 105//19 112//18
f 117//47 109//45 108//18 118//37
f 92//46 98//48 97//21 89//20
f 85//11 81//12 84//12 86//11
f 64//25 57//24 60//24 61//25
f 65//24 78//25 77//25 66//24
f 98//48 117//47 116//27 99//26
f 91//46 110//45 109//45 92//46
f 94//46 115//45 114//45 95//46
f 1//49 10//50 107//43 103//44
