# Blender v2.79 (sub 6) OBJ File: 'check.blend'
# www.blender.org
o Cylinder.001
v 3.304924 -1.000000 0.000000
v 3.304924 1.000000 0.000000
v 3.304924 -1.000000 -1.000000
v 3.304924 1.000000 -1.000000
v 4.012031 -1.000000 -0.707107
v 4.012031 1.000000 -0.707107
v 4.304924 -1.000000 0.000000
v 4.304924 1.000000 0.000000
v 4.012031 -1.000000 0.707107
v 4.012031 1.000000 0.707107
v 3.304924 -1.000000 1.000000
v 3.304924 1.000000 1.000000
v 2.597817 -1.000000 0.707107
v 2.597817 1.000000 0.707107
v 2.304924 -1.000000 -0.000000
v 2.304924 1.000000 -0.000000
v 2.597817 -1.000000 -0.707107
v 2.597817 1.000000 -0.707107
vn 0.0000 -1.0000 0.0000
vn 0.0000 1.0000 0.0000
vn 0.9239 0.0000 0.3827
vn -0.9239 0.0000 -0.3827
vn -0.3827 0.0000 -0.9239
vn 0.9239 0.0000 -0.3827
vn -0.9239 0.0000 0.3827
vn 0.3827 0.0000 -0.9239
vn -0.3827 0.0000 0.9239
vn 0.3827 0.0000 0.9239
s off
f 9//1 11//1 1//1 7//1
f 2//2 12//2 10//2 8//2
f 7//3 8//3 10//3 9//3
f 15//4 16//4 18//4 17//4
f 13//1 15//1 1//1 11//1
f 2//2 16//2 14//2 12//2
f 17//1 3//1 1//1 15//1
f 2//2 4//2 18//2 16//2
f 5//1 7//1 1//1 3//1
f 2//2 8//2 6//2 4//2
f 18//5 4//5 3//5 17//5
f 5//6 6//6 8//6 7//6
f 14//7 16//7 15//7 13//7
f 4//8 6//8 5//8 3//8
f 12//9 14//9 13//9 11//9
f 10//10 12//10 11//10 9//10
o Cylinder
v 0.000000 0.000000 -1.000000
v 0.000000 2.000000 -1.000000
v 0.707107 2.000000 -0.707107
v 0.707107 0.000000 -0.707107
v 1.000000 2.000000 0.000000
v 1.000000 0.000000 0.000000
v 0.707107 2.000000 0.707107
v 0.707107 -0.000000 0.707107
v 0.000000 2.000000 1.000000
v 0.000000 -0.000000 1.000000
v -0.707107 2.000000 0.707107
v -0.707107 -0.000000 0.707107
v -1.000000 2.000000 0.000000
v -1.000000 0.000000 0.000000
v 0.000000 2.000000 0.000000
v -0.707107 2.000000 -0.707107
v -0.707107 0.000000 -0.707107
v 0.000000 0.000000 0.000000
vn 0.3827 0.0000 -0.9239
vn 0.0000 1.0000 0.0000
vn 0.0000 -1.0000 -0.0000
vn 0.9239 0.0000 -0.3827
vn 0.9239 -0.0000 0.3827
vn 0.3827 -0.0000 0.9239
vn -0.3827 -0.0000 0.9239
vn -0.9239 -0.0000 0.3827
vn -0.9239 0.0000 -0.3827
vn -0.3827 0.0000 -0.9239
s 1
f 20//11 21//11 22//11 19//11
f 33//12 31//12 29//12 27//12
f 36//13 24//13 26//13 28//13
f 20//12 34//12 31//12 33//12
f 23//12 33//12 27//12 25//12
f 21//12 20//12 33//12 23//12
f 32//13 36//13 28//13 30//13
f 35//13 19//13 36//13 32//13
f 19//13 22//13 24//13 36//13
f 22//14 21//14 23//14 24//14
f 24//15 23//15 25//15 26//15
f 26//16 25//16 27//16 28//16
f 28//17 27//17 29//17 30//17
f 30//18 29//18 31//18 32//18
f 32//19 31//19 34//19 35//19
f 35//20 34//20 20//20 19//20
