# 3ds Max Wavefront OBJ Exporter v0.97b - (c)2007 guruware
# File Created: 29.09.2018 15:29:32

mtllib cyl_LP.mtl

#
# object Cylinder001
#

v  33.7935 0.0000 -23.6737
v  21.4508 0.0000 -53.4716
v  21.4508 9.9527 -53.4716
v  33.7935 9.9527 -23.6737
v  -8.3471 0.0000 -65.8143
v  -8.3471 9.9527 -65.8143
v  -38.1450 0.0000 -53.4716
v  -38.1450 9.9527 -53.4716
v  -50.4877 0.0000 -23.6737
v  -50.4877 9.9527 -23.6737
v  -38.1450 0.0000 6.1242
v  -38.1450 9.9527 6.1242
v  -8.3471 0.0000 18.4669
v  -8.3471 9.9527 18.4669
v  21.4508 0.0000 6.1242
v  21.4508 9.9527 6.1242
v  21.4508 19.9054 -53.4716
v  33.7935 19.9054 -23.6737
v  -8.3471 19.9054 -65.8143
v  -38.1450 19.9054 -53.4716
v  -50.4877 19.9054 -23.6737
v  -38.1450 19.9054 6.1242
v  -8.3471 19.9054 18.4669
v  21.4508 19.9054 6.1242
v  21.4508 29.8581 -53.4716
v  33.7935 29.8581 -23.6737
v  -8.3471 29.8581 -65.8143
v  -38.1450 29.8581 -53.4716
v  -50.4877 29.8581 -23.6737
v  -38.1450 29.8581 6.1242
v  -8.3471 29.8581 18.4669
v  21.4508 29.8581 6.1242
v  21.4508 45.4980 -53.4716
v  33.7935 45.4980 -23.6737
v  -8.3471 45.4980 -65.8143
v  -38.1450 45.4980 -53.4716
v  -50.4877 45.4980 -23.6737
v  -38.1450 45.4980 6.1242
v  -8.3471 45.4980 18.4669
v  21.4508 45.4980 6.1242
v  6.0057 45.4980 -38.0265
v  11.9508 45.4980 -23.6737
v  -8.3471 45.4980 -43.9716
v  -22.6999 45.4980 -38.0265
v  -28.6451 45.4980 -23.6737
v  -22.6999 45.4980 -9.3209
v  -8.3471 45.4980 -3.3757
v  6.0057 45.4980 -9.3209
v  -8.3471 0.0000 -23.6737
v  -8.3471 45.4980 -23.6737
# 50 vertices

vn 1.0000 0.0000 0.0000
vn 0.7071 0.0000 -0.7071
vn 0.7071 -0.0000 -0.7071
vn 1.0000 -0.0000 -0.0000
vn -0.0000 0.0000 -1.0000
vn -0.0000 -0.0000 -1.0000
vn -0.7071 0.0000 -0.7071
vn -0.7071 -0.0000 -0.7071
vn -1.0000 0.0000 0.0000
vn -1.0000 -0.0000 0.0000
vn -0.7071 0.0000 0.7071
vn -0.7071 -0.0000 0.7071
vn -0.0000 0.0000 1.0000
vn -0.0000 -0.0000 1.0000
vn 0.7071 0.0000 0.7071
vn 0.7071 -0.0000 0.7071
vn 1.0000 -0.0000 0.0000
vn 0.0000 -0.0000 1.0000
vn 1.0000 0.0000 -0.0000
vn 0.5490 0.6303 -0.5490
vn 0.7764 0.6303 0.0000
vn -0.0000 0.6303 -0.7764
vn -0.5490 0.6303 -0.5490
vn -0.7764 0.6303 0.0000
vn -0.5490 0.6303 0.5490
vn -0.0000 0.6303 0.7764
vn 0.5490 0.6303 0.5490
vn 0.0000 1.0000 -0.0000
vn 0.0000 -1.0000 -0.0000
# 29 vertex normals

vt 0.7500 0.0000 1.0000
vt 0.8750 0.0000 1.0000
vt 0.8750 0.2000 1.0000
vt 0.7500 0.2000 1.0000
vt 1.0000 0.0000 1.0000
vt 1.0000 0.2000 1.0000
vt 0.0000 0.0000 1.0000
vt 0.1250 0.0000 1.0000
vt 0.1250 0.2000 1.0000
vt 0.0000 0.2000 1.0000
vt 0.2500 0.0000 1.0000
vt 0.2500 0.2000 1.0000
vt 0.3750 0.0000 1.0000
vt 0.3750 0.2000 1.0000
vt 0.5000 0.0000 1.0000
vt 0.5000 0.2000 1.0000
vt 0.6250 0.0000 1.0000
vt 0.6250 0.2000 1.0000
vt 0.8750 0.4000 1.0000
vt 0.7500 0.4000 1.0000
vt 1.0000 0.4000 1.0000
vt 0.1250 0.4000 1.0000
vt 0.0000 0.4000 1.0000
vt 0.2500 0.4000 1.0000
vt 0.3750 0.4000 1.0000
vt 0.5000 0.4000 1.0000
vt 0.6250 0.4000 1.0000
vt 0.8750 0.6000 1.0000
vt 0.7500 0.6000 1.0000
vt 1.0000 0.6000 1.0000
vt 0.1250 0.6000 1.0000
vt 0.0000 0.6000 1.0000
vt 0.2500 0.6000 1.0000
vt 0.3750 0.6000 1.0000
vt 0.5000 0.6000 1.0000
vt 0.6250 0.6000 1.0000
vt 0.8750 0.8000 1.0000
vt 0.7500 0.8000 1.0000
vt 1.0000 0.8000 1.0000
vt 0.1250 0.8000 1.0000
vt 0.0000 0.8000 1.0000
vt 0.2500 0.8000 1.0000
vt 0.3750 0.8000 1.0000
vt 0.5000 0.8000 1.0000
vt 0.6250 0.8000 1.0000
vt 0.8750 1.0000 1.0000
vt 0.7500 1.0000 1.0000
vt 1.0000 1.0000 1.0000
vt 0.1250 1.0000 1.0000
vt 0.0000 1.0000 1.0000
vt 0.2500 1.0000 1.0000
vt 0.3750 1.0000 1.0000
vt 0.5000 1.0000 1.0000
vt 0.6250 1.0000 1.0000
vt 0.5000 0.5000 -0.2500
vt 0.1464 0.8536 -0.2500
vt 0.5000 1.0000 -0.2500
vt 0.8536 0.8536 -0.2500
vt 0.1464 0.8536 0.2500
vt 0.5000 0.5000 0.2500
vt 0.8536 0.8536 0.2500
vt 0.5000 1.0000 0.2500
vt 0.0000 0.5000 0.2500
vt 0.1464 0.1464 0.2500
vt 0.5000 0.0000 0.2500
vt 0.8536 0.1464 0.2500
vt 1.0000 0.5000 0.2500
vt 0.0000 0.5000 -0.2500
vt 0.1464 0.1464 -0.2500
vt 1.0000 0.5000 -0.2500
vt 0.8536 0.1464 -0.2500
vt 0.5000 0.0000 -0.2500
# 72 texture coords

g Cylinder001
usemtl wire_198225087
s 8
f 1/1/1 2/2/2 3/3/3 4/4/4 
f 2/2/2 5/5/5 6/6/6 3/3/3 
f 5/7/5 7/8/7 8/9/8 6/10/6 
f 7/8/7 9/11/9 10/12/10 8/9/8 
f 9/11/9 11/13/11 12/14/12 10/12/10 
f 11/13/11 13/15/13 14/16/14 12/14/12 
f 13/15/13 15/17/15 16/18/16 14/16/14 
f 15/17/15 1/1/1 4/4/4 16/18/16 
f 4/4/4 3/3/3 17/19/2 18/20/17 
f 3/3/3 6/6/6 19/21/5 17/19/2 
f 6/10/6 8/9/8 20/22/8 19/23/5 
f 8/9/8 10/12/10 21/24/9 20/22/8 
f 10/12/10 12/14/12 22/25/11 21/24/9 
f 12/14/12 14/16/14 23/26/18 22/25/11 
f 14/16/14 16/18/16 24/27/15 23/26/18 
f 16/18/16 4/4/4 18/20/17 24/27/15 
f 18/20/17 17/19/2 25/28/2 26/29/19 
f 17/19/2 19/21/5 27/30/5 25/28/2 
f 19/23/5 20/22/8 28/31/7 27/32/5 
f 20/22/8 21/24/9 29/33/9 28/31/7 
f 21/24/9 22/25/11 30/34/11 29/33/9 
f 22/25/11 23/26/18 31/35/13 30/34/11 
f 23/26/18 24/27/15 32/36/15 31/35/13 
f 24/27/15 18/20/17 26/29/19 32/36/15 
f 26/29/19 25/28/2 33/37/20 34/38/21 
f 25/28/2 27/30/5 35/39/22 33/37/20 
f 27/32/5 28/31/7 36/40/23 35/41/22 
f 28/31/7 29/33/9 37/42/24 36/40/23 
f 29/33/9 30/34/11 38/43/25 37/42/24 
f 30/34/11 31/35/13 39/44/26 38/43/25 
f 31/35/13 32/36/15 40/45/27 39/44/26 
f 32/36/15 26/29/19 34/38/21 40/45/27 
f 34/38/21 33/37/20 41/46/28 42/47/28 
f 33/37/20 35/39/22 43/48/28 41/46/28 
f 35/41/22 36/40/23 44/49/28 43/50/28 
f 36/40/23 37/42/24 45/51/28 44/49/28 
f 37/42/24 38/43/25 46/52/28 45/51/28 
f 38/43/25 39/44/26 47/53/28 46/52/28 
f 39/44/26 40/45/27 48/54/28 47/53/28 
f 40/45/27 34/38/21 42/47/28 48/54/28 
s 1
f 49/55/29 2/56/29 1/57/29 15/58/29 
f 41/59/28 50/60/28 48/61/28 42/62/28 
f 43/63/28 44/64/28 50/60/28 41/59/28 
f 45/65/28 46/66/28 50/60/28 44/64/28 
f 46/66/28 47/67/28 48/61/28 50/60/28 
f 5/68/29 2/56/29 49/55/29 7/69/29 
f 13/70/29 11/71/29 49/55/29 15/58/29 
f 49/55/29 11/71/29 9/72/29 7/69/29 
# 48 polygons

