# Blender v2.79 (sub 0) OBJ File: ''
# www.blender.org
mtllib 869260-78-LP.mtl
o Cube_Cube.001
v -0.381436 1.085211 3.104856
v -0.458836 1.085211 3.110646
v -0.458836 1.085210 3.822723
v -0.381436 1.085210 3.802698
v 1.453596 0.527831 3.109148
v 1.541164 0.527831 3.110646
v 1.541164 0.527831 3.822723
v 1.453596 0.527831 3.802698
v -0.381436 1.009551 3.802698
v -0.458836 1.009551 3.822723
v 1.541164 1.009552 3.110646
v 1.541164 1.085211 3.110646
v 1.541164 1.085210 3.822723
v 1.541164 1.009551 3.822723
v 1.453596 1.009552 1.847895
v 1.453596 1.085211 1.847895
v 1.541164 1.085211 1.822723
v 1.541164 1.009552 1.822723
v -0.458836 1.009552 2.605332
v -0.458836 1.085211 2.605332
v -0.458836 1.085211 1.822723
v -0.458836 1.009552 1.822723
v 1.057380 1.009552 1.908081
v 1.057380 1.085211 1.908081
v 1.297921 1.085211 1.876117
v 1.297921 1.009552 1.876117
v 1.453596 1.009551 3.802698
v 1.453596 1.085210 3.802698
v 1.297921 1.085210 3.781438
v 1.297921 1.009551 3.781438
v 1.057380 0.527831 3.109830
v 1.297921 0.527831 3.108173
v 1.297921 0.527831 3.781438
v 1.057380 0.527831 3.762039
v 1.453596 1.085211 3.109148
v 1.297921 1.085211 3.108173
v 0.806476 0.527831 3.110722
v 0.806476 0.527831 3.748550
v 0.806476 1.009552 1.929675
v 0.806476 1.085211 1.929675
v 1.057380 1.085210 3.762039
v 1.057380 1.009551 3.762039
v 1.057380 1.085211 3.109830
v 0.684811 1.009552 1.934244
v 0.684811 1.085211 1.934244
v 0.684811 0.527831 3.112598
v 0.684811 0.527831 3.748554
v 0.806476 1.085210 3.748550
v 0.806476 1.009551 3.748550
v 0.806476 1.085211 3.110722
v 0.437427 0.527831 3.111501
v 0.563147 0.527831 3.114473
v 0.563147 0.527831 3.748558
v 0.437427 0.527831 3.748554
v 0.437427 1.009552 1.931567
v 0.437427 1.085211 1.931567
v 0.563147 1.085211 1.938813
v 0.563147 1.009552 1.938813
v 0.684811 1.009551 3.748554
v 0.684811 1.085210 3.748554
v 0.563147 1.085210 3.748558
v 0.563147 1.009551 3.748558
v 0.684811 1.085211 3.112598
v 0.563147 1.085211 3.114473
v 0.039592 1.009552 1.901013
v 0.039592 1.085211 1.901013
v 0.311707 1.085211 1.924322
v 0.311707 1.009552 1.924322
v 0.039592 0.527831 3.106932
v 0.311707 0.527831 3.108528
v 0.311707 0.527831 3.748550
v 0.039592 0.527831 3.762039
v 0.437427 1.009551 3.748554
v 0.437427 1.085210 3.748554
v 0.311707 1.085210 3.748550
v 0.311707 1.009551 3.748550
v 0.437427 1.085211 3.111501
v 0.311707 1.085211 3.108528
v -0.204263 0.527831 3.105059
v -0.204263 0.527831 3.781438
v -0.204263 1.009552 1.868521
v -0.204263 1.085211 1.868521
v 0.039592 1.085210 3.762039
v 0.039592 1.009551 3.762039
v 0.039592 1.085211 3.106932
v -0.381436 1.009552 1.837425
v -0.381436 1.085211 1.837425
v -0.381436 0.527831 3.104856
v -0.381436 0.527831 3.802698
v -0.204263 1.085210 3.781438
v -0.204263 1.009551 3.781438
v -0.204263 1.085211 3.105059
v 0.039592 0.606954 3.922938
v 0.039592 1.009551 3.922938
v -0.204263 1.009551 3.922938
v -0.204263 0.606954 3.922938
v -0.381436 0.606955 1.723984
v -0.381436 1.009552 1.723984
v -0.204263 1.009552 1.723984
v -0.204263 0.606955 1.723984
v 0.311707 0.606954 3.922938
v 0.311707 1.009551 3.922938
v 0.039592 1.009552 1.723984
v 0.039592 0.606955 1.723984
v 0.437427 0.606954 3.922938
v 0.437427 1.009551 3.922938
v 0.311707 1.009552 1.723984
v 0.311707 0.606955 1.723984
v 0.684811 0.606954 3.922938
v 0.684811 1.009551 3.922938
v 0.563147 1.009551 3.922938
v 0.563147 0.606954 3.922938
v 0.437427 0.606955 1.723984
v 0.437427 1.009552 1.723984
v 0.563147 1.009552 1.723984
v 0.563147 0.606955 1.723984
v 1.057380 0.606954 3.922938
v 1.057380 1.009551 3.922938
v 0.806476 1.009551 3.922938
v 0.806476 0.606954 3.922938
v 0.684811 0.606955 1.723984
v 0.684811 1.009552 1.723984
v 0.806476 1.009552 1.723984
v 0.806476 0.606955 1.723984
v 1.297921 0.606954 3.922938
v 1.297921 1.009551 3.922938
v 1.057380 1.009552 1.723984
v 1.057380 0.606955 1.723984
v 1.453596 0.606954 3.922938
v 1.453596 1.009551 3.922938
v 1.297921 1.009552 1.723984
v 1.297921 0.606955 1.723984
v -0.458836 0.606955 2.605332
v -0.458836 0.606955 1.822723
v 1.453596 0.606955 1.847895
v 1.541164 0.606955 1.822723
v 1.541164 0.606954 3.110646
v 1.541164 0.606954 3.822723
v -0.381436 0.606954 3.802698
v -0.458836 0.606954 3.822723
v -0.458836 0.527831 3.822723
v 1.453596 0.527832 1.847895
v 1.541164 0.527832 1.822723
v -0.458836 0.527832 2.605332
v -0.458836 0.527832 1.822723
v 1.057380 0.527832 1.908081
v 1.057380 0.606955 1.908081
v 1.297921 0.606955 1.876117
v 1.297921 0.527832 1.876117
v 1.453596 0.606954 3.802698
v 1.297921 0.606954 3.781438
v 0.806476 0.527832 1.929675
v 0.806476 0.606955 1.929675
v 1.057380 0.606954 3.762039
v 0.684811 0.527832 1.934244
v 0.684811 0.606955 1.934244
v 0.806476 0.606954 3.748550
v 0.437427 0.527832 1.931567
v 0.437427 0.606955 1.931567
v 0.563147 0.606955 1.938813
v 0.563147 0.527832 1.938813
v 0.684811 0.606954 3.748554
v 0.563147 0.606954 3.748558
v 0.039592 0.527832 1.901013
v 0.039592 0.606955 1.901013
v 0.311707 0.606955 1.924322
v 0.311707 0.527832 1.924322
v 0.437427 0.606954 3.748554
v 0.311707 0.606954 3.748550
v -0.204263 0.527832 1.868521
v -0.204263 0.606955 1.868521
v 0.039592 0.606954 3.762039
v -0.381436 0.527832 1.837425
v -0.381436 0.606955 1.837425
v -0.204263 0.606954 3.781438
v 1.453596 1.009552 1.723984
v 1.453596 0.606955 1.723984
v -0.381436 1.009551 3.922938
v -0.381436 0.606954 3.922938
v -0.458836 0.527831 3.110646
v -0.204263 1.085211 2.983058
v -0.381436 1.085211 2.980253
v -0.458836 0.527831 2.984318
v -0.381436 0.527831 2.980253
v 1.297921 0.527831 2.986549
v 1.453596 0.527831 2.985065
v 1.541164 1.085211 2.984318
v 1.453596 1.085211 2.985065
v -0.458836 0.606954 3.110646
v 1.541164 0.527831 2.984318
v 1.541164 0.606955 2.984318
v 1.541164 1.009552 2.984318
v -0.458836 1.009552 3.110646
v 0.039592 1.085211 2.987509
v -0.204263 0.527831 2.983058
v 0.311707 1.085211 2.990933
v 0.039592 0.527831 2.987509
v 0.437427 1.139798 2.994266
v 0.311707 0.527831 2.990933
v 0.684811 1.139798 2.995496
v 0.563147 1.139798 3.019216
v 0.437427 0.527831 2.994266
v 0.563147 0.527831 2.997598
v 1.057380 1.085211 2.990758
v 0.806476 1.085211 2.993394
v 0.684811 0.527831 2.995496
v 0.806476 0.527831 2.993394
v 1.297921 1.085211 2.986549
v 1.057380 0.527831 2.990758
v -0.458836 1.085211 2.984318
v -0.381436 1.085211 2.606445
v 1.541164 0.527832 2.605332
v 1.453596 0.527832 2.612818
v 1.541164 1.085211 2.605332
v 1.541164 1.009552 2.605332
v 1.297921 0.527832 2.621677
v 1.057380 0.527832 2.633543
v 1.297921 1.085211 2.621677
v 1.453596 1.085211 2.612818
v 0.806476 0.527832 2.641408
v 1.057380 1.085211 2.633543
v 0.684811 0.527832 2.644191
v 0.806476 1.085211 2.641408
v 0.563147 0.527832 2.646974
v 0.437427 0.527832 2.642562
v 0.563147 1.085211 2.646974
v 0.684811 1.085211 2.644191
v 0.311707 0.527832 2.638150
v 0.039592 0.527832 2.629240
v 0.311707 1.085211 2.638150
v 0.437427 1.085211 2.642562
v -0.204263 0.527832 2.617054
v 0.039592 1.085211 2.629240
v -0.381436 0.527832 2.606445
v -0.204263 1.085211 2.617054
v 1.541164 0.606955 2.605332
v -0.458836 0.527832 2.731661
v -0.458836 0.606955 2.731661
v -0.458836 1.009552 2.731661
v -0.458836 1.085211 2.731661
v -0.458836 1.009552 2.984318
v -0.458836 1.085211 2.857989
v -0.458836 1.009552 2.857989
v -0.458836 0.606955 2.984318
v -0.458836 0.606955 2.857989
v -0.458836 0.527831 2.857989
v -0.381436 1.085211 2.731048
v -0.381436 1.085211 2.855650
v 1.453596 0.527832 2.736900
v 1.541164 0.527832 2.731661
v 1.541164 0.527831 2.857989
v 1.453596 0.527831 2.860983
v 1.541164 1.009552 2.731661
v 1.541164 1.085211 2.731661
v 1.541164 1.085211 2.857989
v 1.541164 1.009552 2.857989
v 1.057380 0.527831 2.752614
v 1.297921 0.527832 2.743301
v 1.297921 0.527831 2.864925
v 1.057380 0.527831 2.871686
v 1.453596 1.085211 2.736900
v 1.297921 1.085211 2.743301
v 1.297921 1.085211 2.864925
v 1.453596 1.085211 2.860983
v 0.806476 0.527831 2.758737
v 0.806476 0.527831 2.876065
v 1.057380 1.085211 2.752614
v 1.057380 1.085211 2.871686
v 0.684811 0.527831 2.761293
v 0.684811 0.527831 2.878394
v 0.806476 1.085211 2.758737
v 0.806476 1.085211 2.876065
v 0.437427 0.527831 2.759797
v 0.563147 0.527831 2.763849
v 0.563147 0.527831 2.880723
v 0.437427 0.527831 2.877031
v 0.609251 1.257463 2.838222
v 0.562451 1.257463 2.823009
v 0.563147 1.139798 2.880723
v 0.622879 1.257463 2.878541
v 0.039592 0.527831 2.748663
v 0.311707 0.527831 2.755745
v 0.311707 0.527831 2.873339
v 0.039592 0.527831 2.868086
v 0.437427 1.139798 2.759797
v 0.311707 1.085211 2.755745
v 0.311707 1.085211 2.873339
v 0.416482 1.139798 2.877031
v -0.204263 0.527832 2.739055
v -0.204263 0.527831 2.861056
v 0.039592 1.085211 2.748663
v 0.039592 1.085211 2.868086
v -0.381436 0.527832 2.731048
v -0.381436 0.527831 2.855650
v -0.204263 1.085211 2.739055
v -0.204263 1.085211 2.861056
v 1.541164 0.606955 2.731661
v 1.541164 0.606955 2.857989
v 0.563381 1.257463 2.968354
v 0.609093 1.257463 2.920545
v 0.563147 1.139798 2.739242
v 0.684811 1.139798 2.761293
v 0.500281 1.257463 2.877246
v 0.513419 1.257463 2.919719
v 0.513077 1.257463 2.837706
v 0.706840 1.139798 2.878394
v 0.437427 1.085211 2.994266
v 0.563147 1.085211 3.019216
v 0.684811 1.085211 2.761293
v 0.706840 1.085211 2.878394
v 0.684811 1.085211 2.995496
v 0.437427 1.085211 2.759797
v 0.416482 1.085211 2.877031
v 0.563147 1.085211 2.739242
v 0.467332 1.257463 2.877031
v 0.488277 1.257463 2.812312
v 0.562862 1.257463 2.790109
v 0.563243 1.257463 2.935381
v 0.633961 1.257463 2.945517
v 0.633961 1.257463 2.813222
v 0.655990 1.257463 2.878394
v 0.488277 1.257463 2.944746
v 0.467332 1.139798 2.877031
v 0.488277 1.139798 2.812312
v 0.562862 1.139798 2.790109
v 0.563381 1.139798 2.968354
v 0.633961 1.139798 2.945517
v 0.633961 1.139798 2.813222
v 0.655990 1.139798 2.878394
v 0.488277 1.139798 2.944746
v 0.500281 1.139798 2.877246
v 0.513077 1.139798 2.837706
v 0.562451 1.139798 2.823009
v 0.563243 1.139798 2.935381
v 0.609093 1.139798 2.920545
v 0.609251 1.139798 2.838222
v 0.622879 1.139798 2.878541
v 0.513419 1.139798 2.919719
vn 0.0000 1.0000 0.0000
vn -0.0000 -1.0000 -0.0000
vn 0.2505 -0.0000 0.9681
vn 1.0000 -0.0000 0.0000
vn -0.2763 0.0000 -0.9611
vn -1.0000 -0.0000 0.0000
vn -0.1317 0.0000 -0.9913
vn -0.1353 0.0000 0.9908
vn -0.0857 0.0000 -0.9963
vn -0.0804 0.0000 0.9968
vn -0.0375 0.0000 -0.9993
vn -0.0537 0.0000 0.9986
vn 0.0575 0.0000 -0.9983
vn 0.0000 0.0000 1.0000
vn 0.0853 0.0000 -0.9964
vn 0.1321 0.0000 -0.9912
vn 0.0495 0.0000 0.9988
vn 0.1820 0.0000 -0.9833
vn 0.1797 0.0000 -0.9837
vn 0.1729 0.0000 -0.9849
vn 0.0793 0.0000 0.9969
vn 0.0000 0.0000 -1.0000
vn -0.2229 0.0000 0.9748
vn -0.1784 0.0000 -0.9840
vn 0.1866 0.0000 -0.9824
vn 0.1191 0.0000 0.9929
vn -0.0017 0.0000 1.0000
vn -0.7138 0.0000 0.7003
vn 0.7048 0.0000 -0.7095
vn 0.7094 0.0000 0.7048
vn -0.7019 0.0000 -0.7123
vn 0.0086 0.0000 -1.0000
vn -1.0000 0.0000 -0.0065
vn -0.6987 0.0000 -0.7154
vn 0.0125 0.0000 -0.9999
vn 0.7056 0.0000 0.7086
vn 0.0042 0.0000 1.0000
vn 0.7030 0.0000 -0.7112
vn 1.0000 0.0000 -0.0044
vn -0.7087 0.0000 0.7055
vn 0.6987 0.0000 0.7154
vn 1.0000 0.0000 0.0065
vn -0.0125 0.0000 0.9999
vn -0.0042 0.0000 -1.0000
vn -0.7056 0.0000 -0.7086
vn -0.7030 0.0000 0.7112
vn -1.0000 0.0000 0.0044
vn 0.7087 0.0000 -0.7055
usemtl None
s 1
f 1//1 2//1 3//1 4//1
f 5//2 6//2 7//2 8//2
f 9//3 4//3 3//3 10//3
f 11//4 12//4 13//4 14//4
f 15//5 16//5 17//5 18//5
f 19//6 20//6 21//6 22//6
f 23//7 24//7 25//7 26//7
f 27//8 28//8 29//8 30//8
f 31//2 32//2 33//2 34//2
f 35//1 36//1 29//1 28//1
f 37//2 31//2 34//2 38//2
f 39//9 40//9 24//9 23//9
f 30//10 29//10 41//10 42//10
f 36//1 43//1 41//1 29//1
f 44//11 45//11 40//11 39//11
f 46//2 37//2 38//2 47//2
f 42//12 41//12 48//12 49//12
f 43//1 50//1 48//1 41//1
f 51//2 52//2 53//2 54//2
f 55//13 56//13 57//13 58//13
f 59//14 60//14 61//14 62//14
f 63//1 64//1 61//1 60//1
f 65//15 66//15 67//15 68//15
f 69//2 70//2 71//2 72//2
f 73//14 74//14 75//14 76//14
f 77//1 78//1 75//1 74//1
f 79//2 69//2 72//2 80//2
f 81//16 82//16 66//16 65//16
f 76//17 75//17 83//17 84//17
f 78//1 85//1 83//1 75//1
f 86//18 87//19 82//20 81//20
f 88//2 79//2 80//2 89//2
f 84//21 83//21 90//21 91//21
f 85//1 92//1 90//1 83//1
f 93//14 94//14 95//14 96//14
f 97//22 98//22 99//22 100//22
f 101//14 102//14 94//14 93//14
f 100//22 99//22 103//22 104//22
f 105//14 106//14 102//14 101//14
f 104//22 103//22 107//22 108//22
f 109//14 110//14 111//14 112//14
f 113//22 114//22 115//22 116//22
f 117//14 118//14 119//14 120//14
f 121//22 122//22 123//22 124//22
f 125//14 126//14 118//14 117//14
f 124//22 123//22 127//22 128//22
f 129//14 130//14 126//14 125//14
f 128//22 127//22 131//22 132//22
f 133//6 19//6 22//6 134//6
f 135//5 15//5 18//5 136//5
f 137//4 11//4 14//4 138//4
f 139//3 9//3 10//3 140//3
f 89//3 139//3 140//3 141//3
f 6//4 137//4 138//4 7//4
f 142//5 135//5 136//5 143//5
f 144//6 133//6 134//6 145//6
f 146//7 147//7 148//7 149//7
f 8//8 150//8 151//8 33//8
f 152//9 153//9 147//9 146//9
f 33//10 151//10 154//10 34//10
f 155//11 156//11 153//11 152//11
f 34//12 154//12 157//12 38//12
f 158//13 159//13 160//13 161//13
f 47//14 162//14 163//14 53//14
f 164//15 165//15 166//15 167//15
f 54//14 168//14 169//14 71//14
f 170//16 171//16 165//16 164//16
f 71//17 169//17 172//17 72//17
f 173//19 174//18 171//20 170//20
f 72//21 172//21 175//21 80//21
f 7//23 138//23 150//23 8//23
f 149//24 148//24 135//24 142//24
f 132//22 131//22 176//22 177//22
f 138//23 14//23 27//23 150//23
f 12//1 35//1 28//1 13//1
f 14//23 13//23 28//23 27//23
f 26//24 25//24 16//24 15//24
f 32//2 5//2 8//2 33//2
f 145//25 134//25 174//18 173//19
f 80//26 175//26 139//26 89//26
f 96//14 95//14 178//14 179//14
f 134//25 22//25 86//18 174//18
f 180//2 88//2 89//2 141//2
f 22//25 21//25 87//19 86//18
f 91//26 90//26 4//26 9//26
f 92//1 1//1 4//1 90//1
f 95//1 94//1 84//1 91//1
f 94//1 102//1 76//1 84//1
f 106//1 111//1 62//1 73//1
f 110//1 119//1 49//1 59//1
f 119//1 118//1 42//1 49//1
f 118//1 126//1 30//1 42//1
f 126//1 130//1 27//1 30//1
f 129//2 125//2 151//2 150//2
f 125//2 117//2 154//2 151//2
f 117//2 120//2 157//2 154//2
f 109//2 112//2 163//2 162//2
f 105//2 101//2 169//2 168//2
f 101//2 93//2 172//2 169//2
f 93//2 96//2 175//2 172//2
f 130//4 129//4 150//4 27//4
f 178//1 95//1 91//1 9//1
f 96//2 179//2 139//2 175//2
f 179//6 178//6 9//6 139//6
f 99//1 98//1 86//1 81//1
f 103//1 99//1 81//1 65//1
f 107//1 103//1 65//1 68//1
f 114//1 107//1 68//1 55//1
f 122//1 115//1 58//1 44//1
f 127//1 123//1 39//1 23//1
f 131//1 127//1 23//1 26//1
f 128//2 132//2 148//2 147//2
f 124//2 128//2 147//2 153//2
f 121//2 124//2 153//2 156//2
f 113//2 116//2 160//2 159//2
f 104//2 108//2 166//2 165//2
f 100//2 104//2 165//2 171//2
f 97//2 100//2 171//2 174//2
f 176//1 131//1 26//1 15//1
f 132//2 177//2 135//2 148//2
f 177//4 176//4 15//4 135//4
f 98//6 97//6 174//6 86//6
f 181//1 182//1 1//1 92//1
f 183//2 184//2 88//2 180//2
f 185//2 186//2 5//2 32//2
f 187//1 188//1 35//1 12//1
f 141//6 140//6 189//6 180//6
f 190//4 191//4 137//4 6//4
f 191//4 192//4 11//4 137//4
f 140//6 10//6 193//6 189//6
f 194//1 181//1 92//1 85//1
f 184//2 195//2 79//2 88//2
f 196//1 194//1 85//1 78//1
f 195//2 197//2 69//2 79//2
f 307//1 196//1 78//1 77//1
f 197//2 199//2 70//2 69//2
f 311//1 308//1 64//1 63//1
f 202//2 203//2 52//2 51//2
f 204//1 205//1 50//1 43//1
f 206//2 207//2 37//2 46//2
f 208//1 204//1 43//1 36//1
f 207//2 209//2 31//2 37//2
f 188//1 208//1 36//1 35//1
f 209//2 185//2 32//2 31//2
f 10//6 3//6 2//6 193//6
f 192//4 187//4 12//4 11//4
f 186//2 190//2 6//2 5//2
f 182//1 210//1 2//1 1//1
f 87//1 21//1 20//1 211//1
f 142//2 143//2 212//2 213//2
f 18//4 17//4 214//4 215//4
f 146//2 149//2 216//2 217//2
f 16//1 25//1 218//1 219//1
f 152//2 146//2 217//2 220//2
f 25//1 24//1 221//1 218//1
f 155//2 152//2 220//2 222//2
f 24//1 40//1 223//1 221//1
f 158//2 161//2 224//2 225//2
f 45//1 57//1 226//1 227//1
f 164//2 167//2 228//2 229//2
f 56//1 67//1 230//1 231//1
f 170//2 164//2 229//2 232//2
f 67//1 66//1 233//1 230//1
f 173//2 170//2 232//2 234//2
f 66//1 82//1 235//1 233//1
f 136//4 18//4 215//4 236//4
f 143//4 136//4 236//4 212//4
f 17//1 16//1 219//1 214//1
f 149//2 142//2 213//2 216//2
f 145//2 173//2 234//2 144//2
f 82//1 87//1 211//1 235//1
f 237//6 238//6 133//6 144//6
f 238//6 239//6 19//6 133//6
f 239//6 240//6 20//6 19//6
f 241//6 210//6 242//6 243//6
f 244//6 241//6 243//6 245//6
f 183//6 244//6 245//6 246//6
f 247//1 240//1 242//1 248//1
f 249//2 250//2 251//2 252//2
f 253//4 254//4 255//4 256//4
f 257//2 258//2 259//2 260//2
f 261//1 262//1 263//1 264//1
f 265//2 257//2 260//2 266//2
f 262//1 267//1 268//1 263//1
f 269//2 265//2 266//2 270//2
f 267//1 271//1 272//1 268//1
f 273//2 274//2 275//2 276//2
f 336//1 333//1 279//1 337//1
f 281//2 282//2 283//2 284//2
f 312//1 286//1 287//1 313//1
f 289//2 281//2 284//2 290//2
f 286//1 291//1 292//1 287//1
f 293//2 289//2 290//2 294//2
f 291//1 295//1 296//1 292//1
f 297//4 253//4 256//4 298//4
f 250//4 297//4 298//4 251//4
f 254//1 261//1 264//1 255//1
f 258//2 249//2 252//2 259//2
f 237//2 293//2 294//2 246//2
f 295//1 247//1 248//1 296//1
f 180//6 189//6 244//6 183//6
f 189//6 193//6 241//6 244//6
f 193//6 2//6 210//6 241//6
f 248//1 242//1 210//1 182//1
f 252//2 251//2 190//2 186//2
f 256//4 255//4 187//4 192//4
f 260//2 259//2 185//2 209//2
f 264//1 263//1 208//1 188//1
f 266//2 260//2 209//2 207//2
f 263//1 268//1 204//1 208//1
f 270//2 266//2 207//2 206//2
f 268//1 272//1 205//1 204//1
f 276//2 275//2 203//2 202//2
f 337//1 279//1 334//1 335//1
f 284//2 283//2 199//2 197//2
f 313//1 287//1 196//1 307//1
f 290//2 284//2 197//2 195//2
f 287//1 292//1 194//1 196//1
f 294//2 290//2 195//2 184//2
f 292//1 296//1 181//1 194//1
f 298//4 256//4 192//4 191//4
f 251//4 298//4 191//4 190//4
f 255//1 264//1 188//1 187//1
f 259//2 252//2 186//2 185//2
f 246//2 294//2 184//2 183//2
f 296//1 248//1 182//1 181//1
f 235//1 211//1 247//1 295//1
f 144//2 234//2 293//2 237//2
f 216//2 213//2 249//2 258//2
f 214//1 219//1 261//1 254//1
f 212//4 236//4 297//4 250//4
f 236//4 215//4 253//4 297//4
f 233//1 235//1 295//1 291//1
f 234//2 232//2 289//2 293//2
f 230//1 233//1 291//1 286//1
f 232//2 229//2 281//2 289//2
f 231//1 230//1 286//1 312//1
f 229//2 228//2 282//2 281//2
f 227//1 226//1 314//1 309//1
f 225//2 224//2 274//2 273//2
f 221//1 223//1 271//1 267//1
f 222//2 220//2 265//2 269//2
f 218//1 221//1 267//1 262//1
f 220//2 217//2 257//2 265//2
f 219//1 218//1 262//1 261//1
f 217//2 216//2 258//2 257//2
f 215//4 214//4 254//4 253//4
f 213//2 212//2 250//2 249//2
f 211//1 20//1 240//1 247//1
f 243//6 242//6 240//6 239//6
f 245//6 243//6 239//6 238//6
f 246//6 245//6 238//6 237//6
f 228//2 225//2 273//2 282//2
f 226//1 231//1 312//1 314//1
f 279//1 331//1 338//1 334//1
f 283//2 276//2 202//2 199//2
f 333//1 332//1 331//1 279//1
f 282//2 273//2 276//2 283//2
f 57//1 56//1 231//1 226//1
f 167//2 158//2 225//2 228//2
f 199//2 202//2 51//2 70//2
f 308//1 307//1 77//1 64//1
f 108//2 113//2 159//2 166//2
f 115//1 114//1 55//1 58//1
f 112//2 105//2 168//2 163//2
f 102//1 106//1 73//1 76//1
f 53//14 163//14 168//14 54//14
f 167//13 166//13 159//13 158//13
f 108//22 107//22 114//22 113//22
f 112//14 111//14 106//14 105//14
f 64//1 77//1 74//1 61//1
f 62//14 61//14 74//14 73//14
f 68//13 67//13 56//13 55//13
f 70//2 51//2 54//2 71//2
f 224//2 222//2 269//2 274//2
f 223//1 227//1 309//1 271//1
f 272//1 310//1 311//1 205//1
f 275//2 270//2 206//2 203//2
f 271//1 309//1 310//1 272//1
f 274//2 269//2 270//2 275//2
f 40//1 45//1 227//1 223//1
f 161//2 155//2 222//2 224//2
f 203//2 206//2 46//2 52//2
f 205//1 311//1 63//1 50//1
f 116//2 121//2 156//2 160//2
f 123//1 122//1 44//1 39//1
f 120//2 109//2 162//2 157//2
f 111//1 110//1 59//1 62//1
f 38//14 157//14 162//14 47//14
f 161//11 160//11 156//11 155//11
f 116//22 115//22 122//22 121//22
f 120//14 119//14 110//14 109//14
f 50//1 63//1 60//1 48//1
f 49//14 48//14 60//14 59//14
f 52//2 46//2 47//2 53//2
f 58//11 57//11 45//11 44//11
f 326//1 201//1 200//1 327//1
f 198//1 201//1 326//1 330//1
f 198//1 330//1 323//1 288//1
f 323//1 324//1 285//1 288//1
f 325//1 301//1 285//1 324//1
f 328//1 302//1 301//1 325//1
f 306//1 302//1 328//1 329//1
f 200//1 306//1 329//1 327//1
f 201//27 198//28 307//28 308//27
f 302//29 306//4 310//4 309//29
f 306//4 200//30 311//30 310//4
f 288//6 285//31 312//31 313//6
f 200//30 201//27 308//27 311//30
f 198//28 288//6 313//6 307//28
f 285//31 301//32 314//32 312//31
f 301//32 302//29 309//29 314//32
f 303//1 305//1 316//1 315//1
f 305//1 278//1 317//1 316//1
f 300//1 318//1 299//1 319//1
f 278//1 277//1 320//1 317//1
f 277//1 280//1 321//1 320//1
f 280//1 300//1 319//1 321//1
f 318//1 304//1 322//1 299//1
f 304//1 303//1 315//1 322//1
f 315//33 316//34 324//34 323//33
f 316//34 317//35 325//35 324//34
f 319//36 299//37 326//37 327//36
f 317//35 320//38 328//38 325//35
f 320//38 321//39 329//39 328//38
f 321//39 319//36 327//36 329//39
f 299//37 322//40 330//40 326//37
f 322//40 315//33 323//33 330//40
f 305//41 303//42 331//42 332//41
f 278//43 305//41 332//41 333//43
f 318//44 300//45 335//45 334//44
f 277//46 278//43 333//43 336//46
f 280//47 277//46 336//46 337//47
f 300//45 280//47 337//47 335//45
f 304//48 318//44 334//44 338//48
f 303//42 304//48 338//48 331//42
