# 3ds Max Wavefront OBJ Exporter v0.97b - (c)2007 guruware
# File Created: 18.10.2018 10:42:03

#
# object Cylinder001
#

v  132.6605 -89.3290 5.0000
v  132.6605 -89.3290 -127.6610
v  -0.0000 -89.3290 -107.6610
v  -132.6606 -89.3290 -127.6610
v  -132.6606 -89.3290 5.0000
v  -132.6606 -89.3290 137.6606
v  -0.0000 -89.3290 117.6606
v  132.6605 -89.3290 137.6606
v  132.6605 -7.3270 5.0000
v  132.6605 -7.3270 -127.6610
v  -0.0000 -7.3270 -107.6610
v  -132.6606 -7.3270 -127.6610
v  -132.6606 -7.3270 5.0000
v  -132.6606 -7.3270 137.6606
v  -0.0000 -7.3270 117.6606
v  132.6605 -7.3270 137.6606
v  13.7374 -7.3271 -0.0000
v  9.7138 -7.3271 -9.7138
v  -0.0000 -7.3271 -13.7374
v  -9.7138 -7.3271 -9.7138
v  -13.7375 -7.3271 0.0000
v  -9.7138 -7.3271 9.7138
v  0.0000 -7.3271 13.7374
v  9.7138 -7.3271 9.7138
v  13.7374 2.4640 -0.0000
v  9.7138 2.4640 -9.7138
v  -0.0000 2.4640 -13.7374
v  -9.7138 2.4640 -9.7138
v  -13.7375 2.4640 0.0000
v  -9.7138 2.4640 9.7138
v  0.0000 2.4640 13.7374
v  9.7138 2.4640 9.7138
v  27.4749 2.4641 -0.0000
v  19.4277 2.4641 -19.4277
v  -0.0000 2.4641 -27.4749
v  -19.4277 2.4641 -19.4277
v  -27.4749 2.4641 0.0000
v  -19.4277 2.4641 19.4277
v  0.0000 2.4641 27.4749
v  19.4277 2.4641 19.4277
v  27.4749 30.0862 -0.0000
v  19.4277 30.0862 -19.4277
v  -0.0000 30.0862 -27.4749
v  -19.4277 30.0862 -19.4277
v  -27.4749 30.0862 0.0000
v  -19.4277 30.0862 19.4277
v  0.0000 30.0862 27.4749
v  19.4277 30.0862 19.4277
v  132.6605 -68.8285 -127.6610
v  132.6605 -48.3280 -127.6610
v  132.6605 -27.8275 -127.6610
v  132.6605 -27.8275 5.0000
v  132.6605 -48.3280 5.0000
v  132.6605 -68.8285 5.0000
v  -0.0000 -68.8285 -107.6610
v  -0.0000 -49.5385 -117.5875
v  -0.0000 -27.8275 -107.6610
v  -132.6606 -68.8285 -127.6610
v  -132.6606 -48.3280 -127.6610
v  -132.6606 -27.8275 -127.6610
v  -132.6606 -68.8285 5.0000
v  -132.6606 -48.3280 5.0000
v  -132.6606 -27.8275 5.0000
v  -132.6606 -68.8285 137.6606
v  -132.6606 -48.3280 137.6606
v  -132.6606 -27.8275 137.6606
v  -0.0000 -68.8285 117.6606
v  -0.0000 -49.5385 107.7341
v  -0.0000 -27.8275 117.6606
v  132.6605 -68.8285 137.6606
v  132.6605 -48.3280 137.6606
v  132.6605 -27.8275 137.6606
v  110.0253 -89.3290 -124.2485
v  22.6352 -89.3290 -111.0735
v  22.6352 -7.3270 -111.0735
v  110.0253 -7.3270 -124.2485
v  -22.6352 -89.3290 -111.0735
v  -110.0253 -89.3290 -124.2485
v  -110.0253 -7.3270 -124.2485
v  -22.6352 -7.3270 -111.0735
v  -110.0253 -89.3290 134.2481
v  -22.6352 -89.3290 121.0731
v  -22.6352 -7.3270 121.0731
v  -110.0253 -7.3270 134.2481
v  22.6352 -89.3290 121.0731
v  110.0253 -89.3290 134.2481
v  110.0253 -7.3270 134.2481
v  22.6352 -7.3270 121.0731
v  22.6352 -27.8275 -111.0735
v  110.0253 -27.8275 -124.2485
v  22.6352 -49.5385 -120.9999
v  110.0253 -48.3280 -124.2485
v  110.0253 -68.8285 -124.2485
v  22.6352 -68.8285 -111.0735
v  -110.0253 -27.8275 -124.2485
v  -22.6352 -27.8275 -111.0735
v  -110.0253 -48.3280 -124.2485
v  -22.6352 -49.5385 -121.0000
v  -22.6352 -68.8285 -111.0735
v  -110.0253 -68.8285 -124.2485
v  -22.6352 -27.8275 121.0731
v  -110.0253 -27.8275 134.2481
v  -22.6352 -49.5385 110.3137
v  -110.0253 -48.3280 134.2481
v  -110.0253 -68.8285 134.2481
v  -22.6352 -68.8285 121.0731
v  110.0253 -27.8275 134.2481
v  22.6352 -27.8275 121.0731
v  110.0253 -48.3280 134.2481
v  22.6352 -49.5385 111.1466
v  22.6352 -68.8285 121.0731
v  110.0253 -68.8285 134.2481
v  -0.0000 -29.0380 -117.5875
v  22.6352 -29.0380 -121.0000
v  110.0253 -29.0380 -134.1750
v  110.0253 -49.5385 -134.1750
v  110.0253 -70.0390 -134.1750
v  22.6352 -70.0390 -118.4999
v  -0.0000 -70.0390 -117.5875
v  -22.6352 -70.0390 -121.0000
v  -110.0253 -70.0390 -134.1750
v  -110.0253 -49.5385 -134.1750
v  -110.0253 -29.0380 -134.1750
v  -22.6352 -29.0380 -121.0000
v  -0.0000 -29.0380 107.7341
v  -22.6352 -29.0380 110.3137
v  -110.0253 -29.0380 124.3216
v  -110.0253 -49.5385 124.3216
v  -110.0253 -70.0390 124.3216
v  -22.6352 -70.0390 110.3137
v  -0.0000 -70.0390 107.7341
v  22.6352 -70.0390 111.1466
v  110.0253 -70.0390 124.3216
v  110.0253 -49.5385 124.3216
v  110.0253 -29.0380 124.3216
v  22.6352 -29.0380 111.1466
v  -0.0000 30.0862 -0.0000
v  -110.0253 -89.3290 4.9998
v  110.0253 -89.3290 4.9998
v  -22.6352 -89.3290 4.9998
v  -0.0000 -89.3290 4.9998
v  22.6352 -89.3290 4.9998
# 142 vertices

vn 0.6523 0.0000 -0.7580
vn 0.6523 0.0000 -0.7580
vn 1.0000 0.0000 -0.0000
vn 1.0000 0.0000 -0.0000
vn -0.1548 -0.0555 -0.9864
vn -0.1491 -0.0000 -0.9888
vn -0.1530 -0.0174 -0.9881
vn -0.1366 -0.0916 -0.9864
vn 0.1491 0.0000 -0.9888
vn 0.1491 0.0000 -0.9888
vn 0.1491 0.0000 -0.9888
vn 0.1491 0.0000 -0.9888
vn -1.0000 0.0000 -0.0000
vn -0.6523 0.0000 -0.7580
vn -0.6523 0.0000 -0.7580
vn -1.0000 0.0000 -0.0000
vn -0.6523 0.0000 0.7580
vn -1.0000 0.0000 -0.0000
vn -1.0000 0.0000 -0.0000
vn -0.6523 0.0000 0.7580
vn 0.1583 0.0000 0.9874
vn 0.1583 0.0000 0.9874
vn 0.1358 0.0000 0.9907
vn 0.1358 0.0000 0.9907
vn -0.1491 0.0000 0.9888
vn -0.1491 0.0000 0.9888
vn -0.1491 0.0000 0.9888
vn -0.1491 0.0000 0.9888
vn 1.0000 0.0000 -0.0000
vn 1.0000 0.0000 -0.0000
vn 0.6523 0.0000 0.7580
vn 0.6523 0.0000 0.7580
vn 0.7071 0.7071 0.0000
vn 0.5360 0.5699 -0.6229
vn 0.4203 0.8042 -0.4203
vn 0.5944 0.8042 0.0000
vn 0.4203 0.8042 -0.4203
vn 0.5360 0.5699 -0.6229
vn -0.1054 0.7071 -0.6992
vn -0.1054 0.7071 -0.6992
vn -0.0000 0.7423 -0.6701
vn 0.1054 0.7071 -0.6992
vn -0.4203 0.8042 -0.4203
vn -0.0000 0.8042 -0.5944
vn -0.5360 0.5699 -0.6229
vn -0.7071 0.7071 -0.0000
vn -0.5944 0.8042 -0.0000
vn -0.4203 0.8042 -0.4203
vn -0.7071 0.7071 -0.0000
vn -0.5360 0.5699 0.6229
vn -0.4203 0.8042 0.4203
vn -0.5944 0.8042 -0.0000
vn 0.0000 0.7423 0.6701
vn 0.0000 0.8042 0.5944
vn -0.4203 0.8042 0.4203
vn 0.1054 0.7071 0.6992
vn 0.0000 0.7423 0.6701
vn -0.1054 0.7071 0.6992
vn 0.4203 0.8042 0.4203
vn 0.0000 0.8042 0.5944
vn 0.5360 0.5699 0.6229
vn 0.7071 0.7071 0.0000
vn 0.5944 0.8042 0.0000
vn 0.4203 0.8042 0.4203
vn 0.5944 0.8042 0.0000
vn 0.4203 0.8042 -0.4203
vn 0.4203 -0.8042 -0.4203
vn 0.5944 -0.8042 0.0000
vn 0.4203 0.8042 -0.4203
vn -0.0000 0.8042 -0.5944
vn -0.0000 -0.8042 -0.5944
vn 0.4203 -0.8042 -0.4203
vn -0.0000 0.8042 -0.5944
vn -0.4203 0.8042 -0.4203
vn -0.4203 -0.8042 -0.4203
vn -0.0000 -0.8042 -0.5944
vn -0.4203 0.8042 -0.4203
vn -0.5944 0.8042 -0.0000
vn -0.5944 -0.8042 -0.0000
vn -0.4203 -0.8042 -0.4203
vn -0.5944 0.8042 -0.0000
vn -0.4203 0.8042 0.4203
vn -0.4203 -0.8042 0.4203
vn -0.5944 -0.8042 -0.0000
vn -0.4203 0.8042 0.4203
vn 0.0000 0.8042 0.5944
vn 0.0000 -0.8042 0.5944
vn -0.4203 -0.8042 0.4203
vn 0.0000 0.8042 0.5944
vn 0.4203 0.8042 0.4203
vn 0.4203 -0.8042 0.4203
vn 0.0000 -0.8042 0.5944
vn 0.4203 0.8042 0.4203
vn 0.5944 0.8042 0.0000
vn 0.5944 -0.8042 0.0000
vn 0.4203 -0.8042 0.4203
vn 0.5944 -0.8042 0.0000
vn 0.4203 -0.8042 -0.4203
vn 0.5490 -0.6303 -0.5490
vn 0.7764 -0.6303 0.0000
vn 0.4203 -0.8042 -0.4203
vn -0.0000 -0.8042 -0.5944
vn -0.0000 -0.6303 -0.7764
vn 0.5490 -0.6303 -0.5490
vn -0.0000 -0.8042 -0.5944
vn -0.4203 -0.8042 -0.4203
vn -0.5490 -0.6303 -0.5490
vn -0.0000 -0.6303 -0.7764
vn -0.4203 -0.8042 -0.4203
vn -0.5944 -0.8042 -0.0000
vn -0.7764 -0.6303 0.0000
vn -0.5490 -0.6303 -0.5490
vn -0.5944 -0.8042 -0.0000
vn -0.4203 -0.8042 0.4203
vn -0.5490 -0.6303 0.5490
vn -0.7764 -0.6303 0.0000
vn -0.4203 -0.8042 0.4203
vn 0.0000 -0.8042 0.5944
vn 0.0000 -0.6303 0.7764
vn -0.5490 -0.6303 0.5490
vn 0.0000 -0.8042 0.5944
vn 0.4203 -0.8042 0.4203
vn 0.5490 -0.6303 0.5490
vn 0.0000 -0.6303 0.7764
vn 0.4203 -0.8042 0.4203
vn 0.5944 -0.8042 0.0000
vn 0.7764 -0.6303 0.0000
vn 0.5490 -0.6303 0.5490
vn 0.7764 -0.6303 0.0000
vn 0.5490 -0.6303 -0.5490
vn 0.7071 0.0000 -0.7071
vn 1.0000 0.0000 0.0000
vn 0.5490 -0.6303 -0.5490
vn -0.0000 -0.6303 -0.7764
vn -0.0000 0.0000 -1.0000
vn 0.7071 0.0000 -0.7071
vn -0.0000 -0.6303 -0.7764
vn -0.5490 -0.6303 -0.5490
vn -0.7071 0.0000 -0.7071
vn -0.0000 0.0000 -1.0000
vn -0.5490 -0.6303 -0.5490
vn -0.7764 -0.6303 0.0000
vn -1.0000 0.0000 0.0000
vn -0.7071 0.0000 -0.7071
vn -0.7764 -0.6303 0.0000
vn -0.5490 -0.6303 0.5490
vn -0.7071 0.0000 0.7071
vn -1.0000 0.0000 0.0000
vn -0.5490 -0.6303 0.5490
vn 0.0000 -0.6303 0.7764
vn 0.0000 0.0000 1.0000
vn -0.7071 0.0000 0.7071
vn 0.0000 -0.6303 0.7764
vn 0.5490 -0.6303 0.5490
vn 0.7071 0.0000 0.7071
vn 0.0000 0.0000 1.0000
vn 0.5490 -0.6303 0.5490
vn 0.7764 -0.6303 0.0000
vn 1.0000 0.0000 0.0000
vn 0.7071 0.0000 0.7071
vn 0.0000 1.0000 -0.0000
vn 0.0000 1.0000 -0.0000
vn 0.0000 1.0000 -0.0000
vn 0.0000 1.0000 -0.0000
vn 0.6523 0.0000 -0.7580
vn 0.5360 0.5699 -0.6229
vn 0.7071 0.7071 0.0000
vn 1.0000 0.0000 -0.0000
vn 0.6523 0.0000 -0.7580
vn 0.6523 0.0000 -0.7580
vn 1.0000 0.0000 -0.0000
vn 1.0000 0.0000 -0.0000
vn 1.0000 0.0000 -0.0000
vn 1.0000 0.0000 -0.0000
vn 0.6523 0.0000 -0.7580
vn 0.6523 0.0000 -0.7580
vn -0.1054 0.7071 -0.6992
vn -0.1054 0.7071 -0.6992
vn -0.1491 0.0000 -0.9888
vn -0.1491 0.0000 -0.9888
vn -0.1491 -0.0000 -0.9888
vn -0.1491 0.0000 -0.9888
vn -0.1491 -0.0000 -0.9888
vn -0.1548 -0.0555 -0.9864
vn -0.1491 0.0000 -0.9888
vn -0.1491 0.0000 -0.9888
vn -0.1491 0.0000 -0.9888
vn -0.1491 0.0000 -0.9888
vn 0.1054 0.7071 -0.6992
vn 0.1491 0.0000 -0.9888
vn 0.1491 0.0000 -0.9888
vn 0.1054 0.7071 -0.6992
vn 0.1491 0.0000 -0.9888
vn 0.1491 0.0000 -0.9888
vn 0.1491 0.0000 -0.9888
vn 0.1491 0.0000 -0.9888
vn 0.1491 0.0000 -0.9888
vn 0.1491 0.0000 -0.9888
vn 0.1491 0.0000 -0.9888
vn 0.1491 0.0000 -0.9888
vn -0.7071 0.7071 -0.0000
vn -0.5360 0.5699 -0.6229
vn -0.6523 0.0000 -0.7580
vn -1.0000 0.0000 -0.0000
vn -1.0000 0.0000 -0.0000
vn -0.6523 0.0000 -0.7580
vn -0.6523 0.0000 -0.7580
vn -1.0000 0.0000 -0.0000
vn -0.6523 0.0000 -0.7580
vn -1.0000 0.0000 -0.0000
vn -1.0000 0.0000 -0.0000
vn -0.6523 0.0000 -0.7580
vn -0.5360 0.5699 0.6229
vn -0.7071 0.7071 -0.0000
vn -1.0000 0.0000 -0.0000
vn -0.6523 0.0000 0.7580
vn -0.6523 0.0000 0.7580
vn -1.0000 0.0000 -0.0000
vn -1.0000 0.0000 -0.0000
vn -0.6523 0.0000 0.7580
vn -1.0000 0.0000 -0.0000
vn -0.6523 0.0000 0.7580
vn -0.6523 0.0000 0.7580
vn -1.0000 0.0000 -0.0000
vn 0.1054 0.7071 0.6992
vn 0.1491 0.0000 0.9888
vn 0.1491 0.0000 0.9888
vn 0.1054 0.7071 0.6992
vn 0.1583 0.0000 0.9874
vn 0.1583 0.0000 0.9874
vn 0.1358 0.0000 0.9907
vn 0.1358 0.0000 0.9907
vn 0.1491 0.0000 0.9888
vn 0.1491 0.0000 0.9888
vn 0.1491 0.0000 0.9888
vn 0.1491 0.0000 0.9888
vn -0.1054 0.7071 0.6992
vn -0.1054 0.7071 0.6992
vn -0.1491 0.0000 0.9888
vn -0.1491 0.0000 0.9888
vn -0.1491 0.0000 0.9888
vn -0.1491 0.0000 0.9888
vn -0.1491 0.0000 0.9888
vn -0.1491 0.0000 0.9888
vn -0.1491 0.0000 0.9888
vn -0.1491 0.0000 0.9888
vn -0.1491 0.0000 0.9888
vn -0.1491 0.0000 0.9888
vn 1.0000 0.0000 -0.0000
vn 0.7071 0.7071 0.0000
vn 0.5360 0.5699 0.6229
vn 0.6523 0.0000 0.7580
vn 1.0000 0.0000 -0.0000
vn 1.0000 0.0000 -0.0000
vn 0.6523 0.0000 0.7580
vn 0.6523 0.0000 0.7580
vn 0.6523 0.0000 0.7580
vn 0.6523 0.0000 0.7580
vn 1.0000 0.0000 -0.0000
vn 1.0000 0.0000 -0.0000
vn -0.1491 0.0000 -0.9888
vn 0.6523 0.0000 -0.7580
vn 0.6523 0.0000 -0.7580
vn -0.1491 0.0000 -0.9888
vn -0.1366 -0.0916 -0.9864
vn 0.0546 0.0000 -0.9985
vn 0.0146 -0.0143 -0.9998
vn -0.1548 -0.0555 -0.9864
vn 0.0146 -0.0143 -0.9998
vn 0.0546 0.0000 -0.9985
vn 0.1491 0.0000 -0.9888
vn 0.1491 0.0000 -0.9888
vn -0.6523 0.0000 -0.7580
vn -0.6523 0.0000 -0.7580
vn 0.1491 0.0000 -0.9888
vn 0.1491 0.0000 -0.9888
vn -0.6523 0.0000 0.7580
vn -0.6523 0.0000 0.7580
vn 0.1491 0.0000 0.9888
vn 0.1491 0.0000 0.9888
vn -0.0181 0.0000 0.9998
vn -0.0181 0.0000 0.9998
vn 0.1358 0.0000 0.9907
vn 0.1358 0.0000 0.9907
vn -0.1491 0.0000 0.9888
vn -0.0181 0.0000 0.9998
vn -0.0181 0.0000 0.9998
vn -0.1491 0.0000 0.9888
vn -0.1491 0.0000 0.9888
vn 0.6523 0.0000 0.7580
vn 0.6523 0.0000 0.7580
vn -0.1491 0.0000 0.9888
vn 0.0000 -1.0000 -0.0000
vn 0.0000 -1.0000 -0.0000
vn 0.0000 -1.0000 -0.0000
vn 0.0000 -1.0000 -0.0000
vn 0.0000 -1.0000 -0.0000
vn 0.0000 -1.0000 -0.0000
vn 0.0000 -1.0000 -0.0000
vn 0.0000 -1.0000 -0.0000
vn -0.1054 0.7071 -0.6992
vn 0.5360 0.5699 -0.6229
vn 0.6523 0.0000 -0.7580
vn -0.1491 0.0000 -0.9888
vn -0.1491 0.0000 -0.9888
vn -0.0000 0.0000 -1.0000
vn -0.0000 0.7423 -0.6701
vn -0.1054 0.7071 -0.6992
vn -0.1491 0.0000 -0.9888
vn 0.6523 0.0000 -0.7580
vn 0.6523 0.0000 -0.7580
vn -0.1491 0.0000 -0.9888
vn -0.1548 -0.0555 -0.9864
vn 0.0146 -0.0143 -0.9998
vn -0.0000 -0.0000 -1.0000
vn -0.1491 -0.0000 -0.9888
vn -0.1491 0.0000 -0.9888
vn 0.0000 0.0000 -1.0000
vn 0.0000 0.0000 -1.0000
vn -0.1491 0.0000 -0.9888
vn -0.1491 0.0000 -0.9888
vn 0.6523 0.0000 -0.7580
vn 0.6523 0.0000 -0.7580
vn -0.1491 0.0000 -0.9888
vn -0.0000 0.7423 -0.6701
vn -0.0000 0.0000 -1.0000
vn 0.1491 0.0000 -0.9888
vn 0.1054 0.7071 -0.6992
vn -0.6523 0.0000 -0.7580
vn -0.5360 0.5699 -0.6229
vn 0.1054 0.7071 -0.6992
vn 0.1491 0.0000 -0.9888
vn -0.0000 -0.0000 -1.0000
vn 0.0146 -0.0143 -0.9998
vn 0.1491 0.0000 -0.9888
vn 0.1491 0.0000 -0.9888
vn -0.6523 0.0000 -0.7580
vn -0.6523 0.0000 -0.7580
vn 0.1491 0.0000 -0.9888
vn 0.1491 0.0000 -0.9888
vn -0.6523 0.0000 -0.7580
vn -0.6523 0.0000 -0.7580
vn 0.1491 0.0000 -0.9888
vn 0.1491 0.0000 -0.9888
vn 0.0000 0.0000 -1.0000
vn 0.0000 0.0000 -1.0000
vn 0.1491 0.0000 -0.9888
vn 0.1491 0.0000 -0.9888
vn -0.5360 0.5699 0.6229
vn -0.6523 0.0000 0.7580
vn 0.1491 0.0000 0.9888
vn 0.1054 0.7071 0.6992
vn 0.0000 0.0000 1.0000
vn 0.0000 0.7423 0.6701
vn 0.1054 0.7071 0.6992
vn 0.1491 0.0000 0.9888
vn -0.6523 0.0000 0.7580
vn -0.6523 0.0000 0.7580
vn 0.1491 0.0000 0.9888
vn 0.1491 0.0000 0.9888
vn -0.0181 0.0000 0.9998
vn -0.0181 0.0000 0.9998
vn 0.1358 0.0000 0.9907
vn 0.1358 0.0000 0.9907
vn 0.0000 0.0000 1.0000
vn 0.0000 0.0000 1.0000
vn 0.1491 0.0000 0.9888
vn 0.1491 0.0000 0.9888
vn -0.6523 0.0000 0.7580
vn -0.6523 0.0000 0.7580
vn 0.1491 0.0000 0.9888
vn 0.1491 0.0000 0.9888
vn -0.1054 0.7071 0.6992
vn 0.0000 0.7423 0.6701
vn 0.0000 0.0000 1.0000
vn -0.1491 0.0000 0.9888
vn -0.1491 0.0000 0.9888
vn 0.6523 0.0000 0.7580
vn 0.5360 0.5699 0.6229
vn -0.1054 0.7071 0.6992
vn -0.1491 0.0000 0.9888
vn -0.0181 0.0000 0.9998
vn -0.0181 0.0000 0.9998
vn -0.1491 0.0000 0.9888
vn -0.1491 0.0000 0.9888
vn 0.6523 0.0000 0.7580
vn 0.6523 0.0000 0.7580
vn -0.1491 0.0000 0.9888
vn -0.1491 0.0000 0.9888
vn 0.6523 0.0000 0.7580
vn 0.6523 0.0000 0.7580
vn -0.1491 0.0000 0.9888
vn -0.1491 0.0000 0.9888
vn 0.0000 0.0000 1.0000
vn 0.0000 0.0000 1.0000
vn -0.1491 0.0000 0.9888
vn -0.0182 0.9925 -0.1210
vn -0.0182 0.9925 -0.1210
vn -0.0182 0.9925 -0.1210
vn -0.0182 0.9925 -0.1210
vn -0.0182 0.9925 -0.1210
vn -0.0182 0.9925 -0.1210
vn -0.0182 0.9925 -0.1210
vn -0.0182 0.9925 -0.1210
vn 1.0000 0.0000 -0.0000
vn 1.0000 0.0000 -0.0000
vn 1.0000 0.0000 -0.0000
vn 1.0000 0.0000 -0.0000
vn 1.0000 0.0000 -0.0000
vn 1.0000 0.0000 -0.0000
vn 1.0000 0.0000 -0.0000
vn 1.0000 0.0000 -0.0000
vn 0.0228 -0.9901 0.1381
vn 0.0228 -0.9901 0.1381
vn 0.0228 -0.9901 0.1381
vn 0.0228 -0.9901 0.1381
vn 0.0132 -0.9903 0.1382
vn 0.0132 -0.9903 0.1382
vn 0.0132 -0.9903 0.1382
vn 0.0132 -0.9903 0.1382
vn -0.0182 -0.9925 0.1210
vn -0.0182 -0.9925 0.1210
vn -0.0182 -0.9925 0.1210
vn -0.0182 -0.9925 0.1210
vn -0.0182 -0.9925 0.1210
vn -0.0182 -0.9925 0.1210
vn -0.0182 -0.9925 0.1210
vn -0.0182 -0.9925 0.1210
vn -1.0000 -0.0000 0.0000
vn -1.0000 -0.0000 0.0000
vn -1.0000 -0.0000 0.0000
vn -1.0000 -0.0000 0.0000
vn -1.0000 0.0000 -0.0000
vn -1.0000 0.0000 -0.0000
vn -1.0000 0.0000 -0.0000
vn -1.0000 0.0000 -0.0000
vn 0.0182 0.9925 -0.1210
vn 0.0182 0.9925 -0.1210
vn 0.0182 0.9925 -0.1210
vn 0.0182 0.9925 -0.1210
vn 0.0182 0.9925 -0.1210
vn 0.0182 0.9925 -0.1210
vn 0.0182 0.9925 -0.1210
vn 0.0182 0.9925 -0.1210
vn 0.0154 -0.9931 0.1162
vn 0.0154 -0.9931 0.1162
vn 0.0154 -0.9931 0.1162
vn 0.0154 -0.9931 0.1162
vn 0.0181 -0.9931 0.1162
vn 0.0181 -0.9931 0.1162
vn 0.0181 -0.9931 0.1162
vn 0.0181 -0.9931 0.1162
vn 1.0000 0.0000 -0.0000
vn 1.0000 0.0000 -0.0000
vn 1.0000 0.0000 -0.0000
vn 1.0000 0.0000 -0.0000
vn 1.0000 0.0000 -0.0000
vn 1.0000 0.0000 -0.0000
vn 1.0000 0.0000 -0.0000
vn 1.0000 0.0000 -0.0000
vn -0.0181 0.9931 -0.1162
vn -0.0181 0.9931 -0.1162
vn -0.0181 0.9931 -0.1162
vn -0.0181 0.9931 -0.1162
vn -0.0154 0.9931 -0.1162
vn -0.0154 0.9931 -0.1162
vn -0.0154 0.9931 -0.1162
vn -0.0154 0.9931 -0.1162
vn 0.0182 0.9925 -0.1210
vn 0.0182 0.9925 -0.1210
vn 0.0182 0.9925 -0.1210
vn 0.0182 0.9925 -0.1210
vn 0.0182 0.9925 -0.1210
vn 0.0182 0.9925 -0.1210
vn 0.0182 0.9925 -0.1210
vn 0.0182 0.9925 -0.1210
vn -1.0000 0.0000 -0.0000
vn -1.0000 0.0000 -0.0000
vn -1.0000 0.0000 -0.0000
vn -1.0000 0.0000 -0.0000
vn -1.0000 0.0000 -0.0000
vn -1.0000 0.0000 -0.0000
vn -1.0000 0.0000 -0.0000
vn -1.0000 0.0000 -0.0000
vn -0.0182 -0.9925 0.1210
vn -0.0182 -0.9925 0.1210
vn -0.0182 -0.9925 0.1210
vn -0.0182 -0.9925 0.1210
vn -0.0182 -0.9925 0.1210
vn -0.0182 -0.9925 0.1210
vn -0.0182 -0.9925 0.1210
vn -0.0182 -0.9925 0.1210
vn 0.0000 -1.0000 -0.0000
vn 0.0000 -1.0000 -0.0000
vn 0.0000 -1.0000 -0.0000
vn 0.0000 -1.0000 -0.0000
vn 0.0000 -1.0000 -0.0000
vn 0.0000 -1.0000 -0.0000
vn 0.0000 -1.0000 -0.0000
vn 0.0000 -1.0000 -0.0000
vn 0.0000 -1.0000 -0.0000
vn 0.0000 -1.0000 -0.0000
vn 0.0000 -1.0000 -0.0000
vn 0.0000 -1.0000 -0.0000
vn 0.0000 -1.0000 -0.0000
vn 0.0000 -1.0000 -0.0000
vn 0.0000 -1.0000 -0.0000
vn 0.0000 -1.0000 -0.0000
vn -0.4203 0.8042 -0.4203
vn 0.1054 0.7071 -0.6992
vn 0.1054 0.7071 -0.6992
vn -0.5360 0.5699 -0.6229
vn -0.0000 0.7423 -0.6701
vn -0.0000 0.8042 -0.5944
vn 0.4203 0.8042 -0.4203
vn -0.1054 0.7071 -0.6992
vn 0.4203 0.8042 0.4203
vn -0.1054 0.7071 0.6992
vn -0.1054 0.7071 0.6992
vn 0.5360 0.5699 0.6229
vn 0.1054 0.7071 0.6992
vn 0.1054 0.7071 0.6992
vn -0.4203 0.8042 0.4203
vn -0.5360 0.5699 0.6229
vn 0.0000 1.0000 -0.0000
vn 0.0000 1.0000 -0.0000
vn 0.0000 1.0000 -0.0000
vn 0.0000 1.0000 -0.0000
vn 0.0000 1.0000 -0.0000
vn 0.0000 1.0000 -0.0000
vn 0.0000 1.0000 -0.0000
vn 0.0000 1.0000 -0.0000
vn 0.0000 1.0000 -0.0000
vn 0.0000 1.0000 -0.0000
vn 0.0000 1.0000 -0.0000
vn 0.0000 1.0000 -0.0000
vn 0.0000 -1.0000 -0.0000
vn 0.0000 -1.0000 -0.0000
vn 0.0000 -1.0000 -0.0000
vn 0.0000 -1.0000 -0.0000
vn 0.0000 -1.0000 -0.0000
vn 0.0000 -1.0000 -0.0000
vn 0.0000 -1.0000 -0.0000
vn 0.0000 -1.0000 -0.0000
vn 0.0000 -1.0000 -0.0000
vn 0.0000 -1.0000 -0.0000
vn 0.0000 -1.0000 -0.0000
vn 0.0000 -1.0000 -0.0000
vn 0.0000 -1.0000 -0.0000
vn 0.0000 -1.0000 -0.0000
vn 0.0000 -1.0000 -0.0000
vn 0.0000 -1.0000 -0.0000
vn 0.0000 -1.0000 -0.0000
vn 0.0000 -1.0000 -0.0000
vn 0.0000 -1.0000 -0.0000
vn 0.0000 -1.0000 -0.0000
vn 0.0000 -1.0000 -0.0000
vn 0.0000 -1.0000 -0.0000
vn 0.0000 -1.0000 -0.0000
vn 0.0000 -1.0000 -0.0000
# 560 vertex normals

g Cylinder001
f 49//1 50//2 53//3 54//4 
f 91//5 116//6 117//7 118//8 
f 98//9 120//10 121//11 122//12 
f 62//13 59//14 58//15 61//16 
f 65//17 62//18 61//19 64//20 
f 128//21 129//22 130//23 103//24 
f 134//25 110//26 132//27 133//28 
f 54//29 53//30 71//31 70//32 
f 9//33 10//34 18//35 17//36 
f 18//37 10//38 76//39 75//40 
f 11//41 80//42 20//43 19//44 
f 12//45 13//46 21//47 20//48 
f 13//49 14//50 22//51 21//52 
f 15//53 23//54 22//55 83//56 
f 15//57 88//58 24//59 23//60 
f 16//61 9//62 17//63 24//64 
f 17//65 18//66 26//67 25//68 
f 18//69 19//70 27//71 26//72 
f 19//73 20//74 28//75 27//76 
f 20//77 21//78 29//79 28//80 
f 21//81 22//82 30//83 29//84 
f 22//85 23//86 31//87 30//88 
f 23//89 24//90 32//91 31//92 
f 24//93 17//94 25//95 32//96 
f 25//97 26//98 34//99 33//100 
f 26//101 27//102 35//103 34//104 
f 27//105 28//106 36//107 35//108 
f 28//109 29//110 37//111 36//112 
f 29//113 30//114 38//115 37//116 
f 30//117 31//118 39//119 38//120 
f 31//121 32//122 40//123 39//124 
f 32//125 25//126 33//127 40//128 
f 33//129 34//130 42//131 41//132 
f 34//133 35//134 43//135 42//136 
f 35//137 36//138 44//139 43//140 
f 36//141 37//142 45//143 44//144 
f 37//145 38//146 46//147 45//148 
f 38//149 39//150 47//151 46//152 
f 39//153 40//154 48//155 47//156 
f 40//157 33//158 41//159 48//160 
f 46//161 47//162 137//163 45//164 
f 51//165 10//166 9//167 52//168 
f 50//169 51//170 52//171 53//172 
f 54//173 1//174 2//175 49//176 
f 75//177 76//178 90//179 89//180 
f 114//181 115//182 116//183 91//184 
f 73//185 74//186 94//187 93//188 
f 80//189 96//190 95//191 79//192 
f 124//193 98//194 122//195 123//196 
f 78//197 100//198 99//199 77//200 
f 13//201 12//202 60//203 63//204 
f 63//205 60//206 59//207 62//208 
f 4//209 5//210 61//211 58//212 
f 14//213 13//214 63//215 66//216 
f 66//217 63//218 62//219 65//220 
f 5//221 6//222 64//223 61//224 
f 84//225 102//226 101//227 83//228 
f 127//229 128//230 103//231 126//232 
f 82//233 106//234 105//235 81//236 
f 87//237 88//238 108//239 107//240 
f 135//241 136//242 110//243 134//244 
f 85//245 86//246 112//247 111//248 
f 52//249 9//250 16//251 72//252 
f 53//253 52//254 72//255 71//256 
f 70//257 8//258 1//259 54//260 
f 92//261 50//262 49//263 93//264 
f 118//265 119//266 56//267 91//268 
f 56//269 119//270 120//271 98//272 
f 58//273 59//274 97//275 100//276 
f 65//277 64//278 105//279 104//280 
f 131//281 68//282 103//283 130//284 
f 110//285 68//286 131//287 132//288 
f 112//289 70//290 71//291 109//292 
f 5//293 4//294 78//295 138//296 
f 1//297 8//298 86//299 139//300 
f 76//301 10//302 51//303 90//304 
f 89//305 57//306 11//307 75//308 
f 90//309 51//310 50//311 92//312 
f 91//313 56//314 113//315 114//316 
f 74//317 3//318 55//319 94//320 
f 93//321 49//322 2//323 73//324 
f 11//325 57//326 96//327 80//328 
f 60//329 12//330 79//331 95//332 
f 113//333 56//334 98//335 124//336 
f 59//337 60//338 95//339 97//340 
f 4//341 58//342 100//343 78//344 
f 55//345 3//346 77//347 99//348 
f 14//349 66//350 102//351 84//352 
f 69//353 15//354 83//355 101//356 
f 66//357 65//358 104//359 102//360 
f 68//361 125//362 126//363 103//364 
f 7//365 67//366 106//367 82//368 
f 64//369 6//370 81//371 105//372 
f 88//373 15//374 69//375 108//376 
f 107//377 72//378 16//379 87//380 
f 136//381 125//382 68//383 110//384 
f 109//385 71//386 72//387 107//388 
f 86//389 8//390 70//391 112//392 
f 111//393 67//394 7//395 85//396 
f 57//397 89//398 114//399 113//400 
f 89//401 90//402 115//403 114//404 
f 90//405 92//406 116//407 115//408 
f 92//409 93//410 117//411 116//412 
f 93//413 94//414 118//415 117//416 
f 94//417 55//418 119//419 118//420 
f 55//421 99//422 120//423 119//424 
f 99//425 100//426 121//427 120//428 
f 100//429 97//430 122//431 121//432 
f 97//433 95//434 123//435 122//436 
f 95//437 96//438 124//439 123//440 
f 96//441 57//442 113//443 124//444 
f 69//445 101//446 126//447 125//448 
f 101//449 102//450 127//451 126//452 
f 102//453 104//454 128//455 127//456 
f 104//457 105//458 129//459 128//460 
f 105//461 106//462 130//463 129//464 
f 106//465 67//466 131//467 130//468 
f 67//469 111//470 132//471 131//472 
f 111//473 112//474 133//475 132//476 
f 112//477 109//478 134//479 133//480 
f 109//481 107//482 135//483 134//484 
f 107//485 108//486 136//487 135//488 
f 108//489 69//490 125//491 136//492 
f 82//493 81//494 138//495 140//496 
f 140//497 77//498 3//499 141//500 
f 74//501 73//502 139//503 142//504 
f 3//505 74//506 142//507 141//508 
f 20//509 80//510 79//511 12//512 
f 11//513 19//514 18//515 75//516 
f 24//517 88//518 87//519 16//520 
f 84//521 83//522 22//523 14//524 
f 48//525 41//526 137//527 47//528 
f 42//529 43//530 137//531 41//532 
f 137//533 43//534 44//535 45//536 
f 73//537 2//538 1//539 139//540 
f 81//541 6//542 5//543 138//544 
f 138//545 78//546 77//547 140//548 
f 7//549 82//550 140//551 141//552 
f 142//553 85//554 7//555 141//556 
f 139//557 86//558 85//559 142//560 
# 140 polygons

