# Blender v2.79 (sub 0) OBJ File: 'exxxxx.blend'
# www.blender.org
mtllib 888330-49.mtl
o Cylinder
v 0.000000 -1.000000 -1.000000
v 0.000000 1.000000 -1.000000
v 0.707107 -1.000000 -0.707107
v 0.707107 1.000000 -0.707107
v 1.000000 -1.000000 0.000000
v 1.000000 1.000000 0.000000
v 0.707107 -1.000000 0.707107
v 0.707107 1.000000 0.707107
v -0.000000 -1.000000 1.000000
v -0.000000 1.000000 1.000000
v -0.707107 -1.000000 0.707107
v -0.707107 1.000000 0.707107
v -1.000000 -1.000000 -0.000000
v -1.000000 1.000000 -0.000000
v -0.707107 -1.000000 -0.707107
v -0.707107 1.000000 -0.707107
v 0.000000 -1.000000 -1.761057
v 1.245255 -1.000000 -1.245255
v 1.761057 -1.000000 0.000000
v 1.245255 -1.000000 1.245255
v -0.000000 -1.000000 1.761057
v -1.245256 -1.000000 1.245255
v -1.761057 -1.000000 -0.000000
v -1.245256 -1.000000 -1.245255
v -0.000000 -1.482846 -1.761057
v 1.245255 -1.482846 -1.245255
v 1.761057 -1.482846 0.000000
v 1.245255 -1.482846 1.245255
v -0.000000 -1.482846 1.761057
v -1.245256 -1.482846 1.245255
v -1.761057 -1.482846 -0.000000
v -1.245256 -1.482846 -1.245255
v 0.000000 -1.482846 -6.005412
v 6.005413 -1.482846 -6.005412
v 6.005413 -1.482846 0.000000
v 6.005413 -1.482846 6.005412
v -0.000001 -1.482846 6.005412
v -6.005413 -1.482846 6.005412
v -6.005413 -1.482846 -0.000000
v -6.005413 -1.482846 -6.005412
v 0.000000 -24.440369 -6.005412
v 6.005413 -24.440369 -6.005412
v 6.005413 -24.440369 0.000000
v 6.005413 -24.440369 6.005412
v -0.000001 -24.440369 6.005412
v -6.005413 -24.440369 6.005412
v -6.005413 -24.440369 -0.000000
v -6.005413 -24.440369 -6.005412
v -9.847652 -1.482846 6.005412
v -9.847652 -1.482846 -0.000000
v -9.847652 -1.482846 -6.005412
v -9.847652 -24.440369 6.005412
v -9.847652 -24.440369 -0.000000
v -9.847652 -24.440369 -6.005412
v 10.371167 -1.482846 -6.005412
v 10.371167 -1.482846 0.000000
v 10.371167 -1.482846 6.005412
v 10.371167 -24.440369 -6.005412
v 10.371167 -24.440369 0.000000
v 10.371167 -24.440369 6.005412
v 0.000000 -2.687850 -6.171912
v 6.005413 -2.687850 -6.731536
v -6.005413 -2.687850 -6.731536
v 0.000000 -23.235365 -6.171912
v 6.005413 -23.235365 -6.731536
v -6.005413 -23.235365 -6.731536
v -8.685551 -23.235365 -7.466488
v -8.685551 -2.687850 -7.466488
v 9.199794 -2.687850 -7.502465
v 9.199794 -23.235365 -7.502465
v -0.000000 1.000000 -0.000000
v 6.254258 -3.067091 6.895650
v 0.248845 -3.067091 6.211977
v -5.756568 -3.067091 6.895650
v 6.254258 -22.877201 6.895650
v 0.248845 -22.877201 6.211977
v -5.756568 -22.877201 6.895650
v 9.058457 -22.877201 7.246153
v -8.040736 -22.877201 7.220054
v -8.040736 -3.067091 7.220054
v 9.058457 -3.067091 7.246153
v 0.000000 -24.440369 0.000000
v 6.254258 -1.493385 6.895650
v 0.248845 -1.493385 6.211977
v -5.756568 -1.493385 6.895650
v 6.254258 -24.450907 6.895650
v 0.248845 -24.450907 6.211977
v -5.756568 -24.450907 6.895650
v 10.620012 -24.450907 7.441335
v -9.598807 -24.450907 7.441335
v -9.598807 -1.493385 7.441335
v 10.620012 -1.493385 7.441335
v 0.000000 -1.482846 -6.171912
v 6.005413 -1.482846 -6.731536
v -6.005413 -1.482846 -6.731536
v 0.000000 -24.440369 -6.171912
v 6.005413 -24.440369 -6.731536
v -6.005413 -24.440369 -6.731536
v -9.847652 -24.440369 -7.785162
v -9.847652 -1.482846 -7.785162
v 10.371167 -1.482846 -7.785162
v 10.371167 -24.440369 -7.785162
v 5.998698 -2.687850 -5.848191
v 5.998698 -23.235365 -5.848191
v -0.006714 -23.235365 -5.288566
v -0.006714 -2.687850 -5.288566
v -6.012127 -23.235365 -5.848191
v -6.012127 -2.687850 -5.848191
v -8.692265 -23.235365 -6.583143
v -8.692265 -2.687850 -7.367427
v 9.193080 -2.687850 -7.403404
v 9.193080 -23.235365 -6.619119
v 6.251311 -3.067091 6.190467
v 6.251311 -22.877201 6.190467
v -5.759514 -22.877201 6.190467
v -5.759514 -3.067091 6.190467
v 0.245898 -3.067091 5.506793
v 0.245898 -22.877201 5.506793
v 9.055511 -22.877201 6.540970
v -8.043682 -22.877201 6.514871
v -8.043682 -3.067091 6.514871
v 9.055511 -3.067091 6.540970
v -9.847652 -1.993013 -6.005412
v -9.847652 -1.993013 -0.000000
v -9.847652 -1.993013 6.005412
v 10.371167 -1.993013 6.005412
v 10.371167 -1.993013 0.000000
v 10.371167 -1.993013 -6.005412
v -9.847652 -1.993013 -7.785162
v 10.371167 -1.993013 -7.785162
v -9.598807 -2.003552 7.441335
v 10.620012 -2.003552 7.441335
v -8.040736 -3.507315 7.220054
v 9.058457 -3.507316 7.246153
v -8.685551 -3.144462 -7.466488
v 9.199794 -3.144462 -7.502465
v 5.998698 -3.144462 -5.848191
v -0.006714 -3.144462 -5.288566
v -6.012127 -3.144462 -5.848191
v -8.692265 -3.144462 -6.583143
v 9.193080 -3.144462 -6.619119
v 6.251311 -3.507316 6.190467
v -5.759514 -3.507315 6.190467
v 0.245898 -3.507316 5.506793
v -8.043682 -3.507315 6.514871
v 9.055511 -3.507316 6.540970
v -9.847652 -23.841719 -0.000000
v 10.371167 -23.841719 6.005412
v 10.371167 -23.841719 -6.005412
v 10.371167 -23.841719 -7.785162
v 10.620012 -23.852257 7.441335
v 9.058457 -22.360624 7.246153
v 9.199794 -22.699558 -7.502465
v 5.998698 -22.699558 -5.848191
v 9.193080 -22.699558 -6.619119
v 6.251311 -22.360624 6.190467
v 0.245898 -22.360624 5.506793
v 9.055511 -22.360624 6.540970
v -9.847652 -23.841719 -6.005412
v -9.847652 -23.841719 6.005412
v 10.371167 -23.841719 0.000000
v -9.847652 -23.841719 -7.785162
v -9.598807 -23.852257 7.441335
v -8.040736 -22.360624 7.220054
v -8.685551 -22.699558 -7.466488
v -0.006714 -22.699558 -5.288566
v -6.012127 -22.699558 -5.848191
v -8.692265 -22.699558 -6.583143
v -5.759514 -22.360624 6.190467
v -8.043682 -22.360624 6.514871
v 0.248845 -1.959558 6.211977
v 6.254258 -1.959558 6.895650
v -5.756568 -1.959558 6.895650
v 6.254258 -23.984734 6.895650
v 0.248845 -23.984734 6.211977
v -5.756568 -23.984734 6.895650
v 10.157438 -23.984734 7.383517
v -9.137265 -23.984734 7.375786
v -9.137265 -1.959558 7.375786
v 10.157438 -1.959558 7.383517
v 10.157438 -2.449007 7.383517
v -9.137265 -2.449006 7.375786
v -9.137265 -23.410395 7.375786
v 10.157438 -23.410395 7.383517
v -9.103635 -24.440369 -0.000000
v -9.103635 -24.440369 -6.005412
v -9.103635 -1.482846 -0.000000
v -9.103635 -1.482846 6.005412
v -9.103635 -24.440369 6.005412
v -9.103635 -1.482846 -6.005412
v -9.103635 -24.440369 -7.581136
v -9.103635 -1.482846 -7.581136
v -8.854790 -1.493385 7.335668
v -8.854790 -24.450907 7.335668
v -7.598426 -3.067091 7.157236
v -7.598426 -22.877201 7.157236
v -8.166565 -23.235365 -7.324172
v -8.166565 -2.687850 -7.324172
v -8.173279 -23.235365 -6.440826
v -8.173279 -2.687850 -6.440826
v -7.601372 -3.067091 6.452053
v -7.601372 -22.877201 6.452053
v -7.601372 -3.507315 6.452053
v -8.173279 -3.144462 -6.440826
v -7.601372 -22.360624 6.452053
v -8.173279 -22.699558 -6.440826
v -8.482621 -23.984734 7.282813
v -8.482621 -1.959558 7.282813
v 9.684223 -24.440369 6.005412
v 9.684223 -1.482846 6.005412
v 9.684223 -1.482846 0.000000
v 9.684223 -24.440369 0.000000
v 9.684223 -1.482846 -6.005412
v 9.684223 -24.440369 -6.005412
v 9.684223 -1.482846 -7.619376
v 9.684223 -24.440369 -7.619376
v 9.933068 -24.450907 7.355473
v 9.933068 -1.493385 7.355473
v 8.617222 -22.877201 7.191002
v 8.617222 -3.067091 7.191002
v 8.697164 -2.687850 -7.381160
v 8.697164 -23.235365 -7.381160
v 8.690450 -2.687850 -6.497815
v 8.690450 -23.235365 -6.497815
v 8.614276 -22.877201 6.485819
v 8.614276 -3.067091 6.485819
v 8.614276 -3.507316 6.485819
v 8.690450 -3.144462 -6.497815
v 8.690450 -22.699558 -6.497815
v 8.614276 -22.360624 6.485819
v 9.543280 -1.959558 7.306752
v 9.543280 -23.984734 7.306752
v 0.000000 0.771803 -1.000000
v 0.707107 0.771803 -0.707107
v 1.000000 0.771803 0.000000
v 0.707107 0.771803 0.707107
v -0.000000 0.771803 1.000000
v -0.707107 0.771803 0.707107
v -1.000000 0.771803 -0.000000
v -0.707107 0.771803 -0.707107
v 0.707107 -0.790073 -0.707107
v 1.000000 -0.790073 0.000000
v 0.707107 -0.790073 0.707107
v -0.000000 -0.790073 1.000000
v -0.707107 -0.790073 0.707107
v -1.000000 -0.790073 -0.000000
v -0.707107 -0.790073 -0.707107
v 0.000000 -0.790073 -1.000000
v 1.761057 -1.382253 0.000000
v 1.245255 -1.382253 -1.245255
v -1.245256 -1.382253 -1.245255
v -1.761057 -1.382253 -0.000000
v -1.245256 -1.382253 1.245255
v -0.000000 -1.382253 1.761057
v 1.245255 -1.382253 1.245255
v 0.000000 -1.382253 -1.761057
v -8.602331 -24.440369 -6.005412
v -8.602331 -1.482846 6.005412
v -8.602331 -1.482846 -6.005412
v -8.602331 -24.440369 -7.443668
v -8.602331 -1.482846 -7.443668
v -8.353486 -1.493385 7.264472
v -7.300406 -3.067091 7.114910
v -7.816883 -23.235365 -7.228281
v -7.816883 -2.687850 -7.228281
v -7.823596 -23.235365 -6.344935
v -7.823596 -2.687850 -6.344935
v -7.303352 -3.067091 6.409727
v -8.041535 -23.984734 7.220168
v -8.602331 -24.440369 -0.000000
v -8.602331 -1.482846 -0.000000
v -8.602331 -24.440369 6.005412
v -8.353486 -24.450907 7.264472
v -7.300406 -22.877201 7.114910
v -7.303352 -22.877201 6.409727
v -7.303352 -3.507315 6.409727
v -7.823596 -3.144462 -6.344935
v -7.303352 -22.360624 6.409727
v -7.823596 -22.699558 -6.344935
v -8.041535 -1.959558 7.220168
v 9.257833 -1.482846 6.005412
v 9.257833 -1.482846 0.000000
v 9.257833 -1.482846 -6.005412
v 9.257833 -1.482846 -7.516471
v 9.506679 -1.493385 7.302177
v 8.343344 -3.067091 7.156770
v 8.385178 -2.687850 -7.305866
v 8.378464 -2.687850 -6.422521
v 8.340398 -3.067091 6.451587
v 9.162067 -1.959558 7.259103
v 9.257833 -24.440369 6.005412
v 9.257833 -24.440369 0.000000
v 9.257833 -24.440369 -6.005412
v 9.257833 -24.440369 -7.516471
v 9.506679 -24.450907 7.302177
v 8.343344 -22.877201 7.156770
v 8.385178 -23.235365 -7.305866
v 8.378464 -23.235365 -6.422521
v 8.340398 -22.877201 6.451587
v 8.340398 -3.507316 6.451587
v 8.378464 -3.144462 -6.422521
v 8.378464 -22.699558 -6.422521
v 8.340398 -22.360624 6.451587
v 9.162067 -23.984734 7.259103
v -9.847652 -2.342572 -6.005412
v -9.847652 -2.342572 6.005412
v 10.371167 -2.342572 0.000000
v -9.847652 -2.342572 -7.785162
v -9.598807 -2.353110 7.441335
v -8.040736 -3.808949 7.220054
v -8.685551 -3.457325 -7.466488
v -0.006714 -3.457325 -5.288566
v -6.012127 -3.457325 -5.848191
v -8.692265 -3.457325 -6.583143
v -5.759514 -3.808949 6.190467
v -8.043682 -3.808949 6.514871
v -9.847652 -2.342572 -0.000000
v 10.371167 -2.342572 6.005412
v 10.371167 -2.342572 -6.005412
v 10.371167 -2.342572 -7.785162
v 10.620012 -2.353110 7.441335
v 9.058457 -3.808951 7.246153
v 9.199794 -3.457325 -7.502465
v 5.998698 -3.457325 -5.848191
v 9.193080 -3.457325 -6.619119
v 6.251311 -3.808951 6.190467
v 0.245898 -3.808951 5.506793
v 9.055511 -3.808951 6.540970
v 10.157438 -2.784369 7.383517
v -9.137265 -2.784369 7.375786
v -8.173279 -3.457325 -6.440826
v -7.601372 -3.808949 6.452053
v 8.614276 -3.808950 6.485819
v 8.690450 -3.457325 -6.497815
v -7.303352 -3.808949 6.409727
v -7.823596 -3.457325 -6.344935
v 8.378464 -3.457325 -6.422521
v 8.340398 -3.808950 6.451587
v -9.847652 -23.509811 -0.000000
v 10.371167 -23.509811 6.005412
v 10.371167 -23.509811 -6.005412
v 10.371167 -23.509811 -7.785162
v 10.620012 -23.520350 7.441335
v 9.058457 -22.074221 7.246153
v 9.199794 -22.402494 -7.502465
v 5.998698 -22.402494 -5.848191
v 9.193080 -22.402494 -6.619119
v 6.251311 -22.074221 6.190467
v 0.245898 -22.074221 5.506793
v 9.055511 -22.074221 6.540970
v -9.137265 -23.091969 7.375786
v -7.601372 -22.074221 6.452053
v 8.690450 -22.402494 -6.497815
v -7.303352 -22.074221 6.409727
v 8.378464 -22.402494 -6.422521
v -9.847652 -23.509811 -6.005412
v -9.847652 -23.509811 6.005412
v 10.371167 -23.509811 0.000000
v -9.847652 -23.509811 -7.785162
v -9.598807 -23.520350 7.441335
v -8.040736 -22.074221 7.220054
v -8.685551 -22.402494 -7.466488
v -0.006714 -22.402494 -5.288566
v -6.012127 -22.402494 -5.848191
v -8.692265 -22.402494 -6.583143
v -5.759514 -22.074221 6.190467
v -8.043682 -22.074221 6.514871
v 10.157438 -23.091969 7.383517
v -8.173279 -22.402494 -6.440826
v 8.614276 -22.074221 6.485819
v -7.823596 -22.402494 -6.344935
v 8.340398 -22.074221 6.451587
vn 0.3827 0.0000 -0.9239
vn 0.9239 0.0000 -0.3827
vn 0.9239 0.0000 0.3827
vn 0.3827 0.0000 0.9239
vn -0.3827 0.0000 0.9239
vn -0.9239 0.0000 0.3827
vn 0.0000 1.0000 0.0000
vn -0.9239 0.0000 -0.3827
vn -0.3827 0.0000 -0.9239
vn 0.0000 -1.0000 0.0000
vn 0.0005 1.0000 0.0075
vn -0.0006 1.0000 0.0098
vn -0.0011 -0.9998 -0.0187
vn -1.0000 0.0000 0.0000
vn -0.0011 0.9998 0.0197
vn 1.0000 0.0000 0.0000
vn 1.0000 0.0000 -0.0042
vn -1.0000 0.0000 0.0042
vn 0.9853 0.0000 -0.1708
vn 0.0011 0.9998 0.0187
vn -0.9853 0.0000 0.1708
vn 0.0005 -1.0000 -0.0076
vn -0.0007 -1.0000 -0.0096
vn 0.0011 -0.9998 -0.0197
vn -0.1131 0.0000 0.9936
vn 0.1131 0.0000 0.9936
vn -0.1240 0.0000 0.9923
vn 0.1406 0.0000 0.9901
vn -0.0928 0.0000 -0.9957
vn 0.0928 0.0000 -0.9957
vn 0.2645 0.0000 -0.9644
vn -0.2346 0.0000 -0.9721
vn -0.6126 -0.5150 -0.5996
vn -1.0000 0.0000 -0.0076
vn 0.9998 0.0117 0.0137
vn 1.0000 0.0000 0.0076
vn -0.9998 -0.0117 -0.0137
vn 0.6156 -0.5134 -0.5978
vn -0.0005 -1.0000 -0.0075
vn 0.0006 1.0000 0.0080
vn 0.0005 -1.0000 -0.0081
vn -0.0005 1.0000 0.0077
vn 0.0007 1.0000 0.0096
vn -0.0006 -1.0000 -0.0080
vn 0.0006 -1.0000 -0.0098
vn -0.0005 1.0000 0.0081
usemtl None
s off
f 233//1 2//1 4//1 234//1
f 234//2 4//2 6//2 235//2
f 235//3 6//3 8//3 236//3
f 236//4 8//4 10//4 237//4
f 237//5 10//5 12//5 238//5
f 238//6 12//6 14//6 239//6
f 71//7 16//7 14//7 12//7
f 239//8 14//8 16//8 240//8
f 240//9 16//9 2//9 233//9
f 7//7 9//7 21//7 20//7
f 250//2 249//2 27//2 26//2
f 13//7 15//7 24//7 23//7
f 3//7 5//7 19//7 18//7
f 9//7 11//7 22//7 21//7
f 15//7 1//7 17//7 24//7
f 1//7 3//7 18//7 17//7
f 5//7 7//7 20//7 19//7
f 11//7 13//7 23//7 22//7
f 32//7 25//7 33//7 40//7
f 252//8 251//8 32//8 31//8
f 254//5 253//5 30//5 29//5
f 249//3 255//3 28//3 27//3
f 256//1 250//1 26//1 25//1
f 251//9 256//9 25//9 32//9
f 253//6 252//6 31//6 30//6
f 255//4 254//4 29//4 28//4
f 211//7 210//7 57//7 56//7
f 30//7 31//7 39//7 38//7
f 28//7 29//7 37//7 36//7
f 26//7 27//7 35//7 34//7
f 31//7 32//7 40//7 39//7
f 29//7 30//7 38//7 37//7
f 27//7 28//7 36//7 35//7
f 25//7 26//7 34//7 33//7
f 82//10 43//10 44//10 45//10
f 293//10 42//10 97//10 294//10
f 40//7 33//7 93//7 95//7
f 188//7 187//7 50//7 49//7
f 188//11 49//11 91//11 193//11
f 281//12 36//12 83//12 285//12
f 186//10 185//10 53//10 54//10
f 46//13 45//13 87//13 88//13
f 160//14 147//14 53//14 52//14
f 147//14 159//14 54//14 53//14
f 185//10 189//10 52//10 53//10
f 36//15 37//15 84//15 83//15
f 33//7 34//7 94//7 93//7
f 187//7 190//7 51//7 50//7
f 161//16 148//16 60//16 59//16
f 149//16 161//16 59//16 58//16
f 209//10 212//10 59//10 60//10
f 213//7 211//7 56//7 55//7
f 212//10 214//10 58//10 59//10
f 213//7 55//7 101//7 215//7
f 297//7 65//7 104//7 298//7
f 65//7 64//7 105//7 104//7
f 197//7 67//7 109//7 199//7
f 221//10 69//10 111//10 223//10
f 186//10 54//10 99//10 191//10
f 123//14 51//14 100//14 129//14
f 259//7 40//7 95//7 261//7
f 149//16 58//16 102//16 150//16
f 42//10 41//10 96//10 97//10
f 41//10 48//10 98//10 96//10
f 4//7 2//7 16//7 71//7
f 8//7 71//7 12//7 10//7
f 6//7 4//7 71//7 8//7
f 76//7 75//7 114//7 118//7
f 164//17 79//17 120//17 170//17
f 134//18 81//18 122//18 146//18
f 73//10 74//10 116//10 117//10
f 126//19 57//19 92//19 132//19
f 37//20 38//20 85//20 84//20
f 160//21 52//21 90//21 163//21
f 209//22 60//22 89//22 217//22
f 272//23 46//23 88//23 273//23
f 45//24 44//24 86//24 87//24
f 41//10 42//10 43//10 82//10
f 47//10 82//10 45//10 46//10
f 48//10 41//10 82//10 47//10
f 171//25 172//25 83//25 84//25
f 173//26 171//26 84//26 85//26
f 174//25 175//25 87//25 86//25
f 175//26 176//26 88//26 87//26
f 304//27 174//27 86//27 295//27
f 182//28 179//28 91//28 131//28
f 280//28 173//28 85//28 262//28
f 207//28 178//28 90//28 194//28
f 184//27 177//27 89//27 151//27
f 231//27 180//27 92//27 218//27
f 62//29 61//29 93//29 94//29
f 61//30 63//30 95//30 93//30
f 64//29 65//29 97//29 96//29
f 66//30 64//30 96//30 98//30
f 165//31 67//31 99//31 162//31
f 264//31 66//31 98//31 260//31
f 198//31 68//31 100//31 192//31
f 136//32 69//32 101//32 130//32
f 287//32 62//32 94//32 284//32
f 222//32 70//32 102//32 216//32
f 166//29 154//29 104//29 105//29
f 167//30 166//30 105//30 107//30
f 206//31 199//31 109//31 168//31
f 228//33 223//33 111//33 141//33
f 265//10 63//10 108//10 267//10
f 64//7 66//7 107//7 105//7
f 61//10 62//10 103//10 106//10
f 153//34 70//34 112//34 155//34
f 135//35 68//35 110//35 140//35
f 63//10 61//10 106//10 108//10
f 156//25 157//25 118//25 114//25
f 230//27 225//27 119//27 158//27
f 157//26 169//26 115//26 118//26
f 203//28 201//28 121//28 145//28
f 286//10 72//10 113//10 289//10
f 195//10 80//10 121//10 201//10
f 77//7 76//7 118//7 115//7
f 72//10 73//10 117//10 113//10
f 274//7 77//7 115//7 275//7
f 219//7 78//7 119//7 225//7
f 332//28 203//28 145//28 316//28
f 117//26 116//26 143//26 144//26
f 226//27 227//27 146//27 122//27
f 113//25 117//25 144//25 142//25
f 311//36 135//36 140//36 314//36
f 69//37 136//37 141//37 111//37
f 334//32 228//32 141//32 325//32
f 200//38 204//38 140//38 110//38
f 108//30 106//30 138//30 139//30
f 106//29 103//29 137//29 138//29
f 323//32 136//32 130//32 320//32
f 68//31 135//31 129//31 100//31
f 180//27 181//27 132//27 92//27
f 330//28 182//28 131//28 309//28
f 49//21 125//21 131//21 91//21
f 318//19 126//19 132//19 321//19
f 322//18 134//18 146//18 328//18
f 80//17 133//17 145//17 121//17
f 55//16 128//16 130//16 101//16
f 305//14 123//14 129//14 308//14
f 55//16 56//16 127//16 128//16
f 56//16 57//16 126//16 127//16
f 50//14 51//14 123//14 124//14
f 49//14 50//14 124//14 125//14
f 54//14 159//14 162//14 99//14
f 78//18 152//18 158//18 119//18
f 60//19 148//19 151//19 89//19
f 178//28 183//28 163//28 90//28
f 70//32 153//32 150//32 102//32
f 224//32 229//32 155//32 112//32
f 67//36 165//36 168//36 109//36
f 202//28 205//28 170//28 120//28
f 349//26 366//26 169//26 157//26
f 370//27 230//27 158//27 350//27
f 348//25 349//25 157//25 156//25
f 345//34 153//34 155//34 347//34
f 369//31 206//31 168//31 365//31
f 364//30 363//30 166//30 167//30
f 363//29 346//29 154//29 166//29
f 362//31 165//31 162//31 359//31
f 368//27 184//27 151//27 343//27
f 357//21 160//21 163//21 360//21
f 361//17 164//17 170//17 367//17
f 341//16 149//16 150//16 342//16
f 341//16 358//16 161//16 149//16
f 358//16 340//16 148//16 161//16
f 339//14 356//14 159//14 147//14
f 357//14 339//14 147//14 160//14
f 344//27 152//27 184//27 368//27
f 79//28 164//28 183//28 178//28
f 310//28 133//28 182//28 330//28
f 81//27 134//27 181//27 180//27
f 220//27 81//27 180//27 231//27
f 152//27 78//27 177//27 184//27
f 196//28 79//28 178//28 207//28
f 263//28 74//28 173//28 280//28
f 133//28 80//28 179//28 182//28
f 296//27 75//27 174//27 304//27
f 76//26 77//26 176//26 175//26
f 75//25 76//25 175//25 174//25
f 74//26 73//26 171//26 173//26
f 73//25 72//25 172//25 171//25
f 80//28 195//28 208//28 179//28
f 274//28 196//28 207//28 269//28
f 371//31 279//31 206//31 369//31
f 275//28 278//28 205//28 202//28
f 267//31 277//31 204//31 200//31
f 335//28 276//28 203//28 332//28
f 79//7 196//7 202//7 120//7
f 263//10 195//10 201//10 268//10
f 276//28 268//28 201//28 203//28
f 68//10 198//10 200//10 110//10
f 279//31 266//31 199//31 206//31
f 265//31 198//31 192//31 261//31
f 67//31 197//31 191//31 99//31
f 269//28 207//28 194//28 273//28
f 179//28 208//28 193//28 91//28
f 52//39 189//39 194//39 90//39
f 51//7 190//7 192//7 100//7
f 257//10 186//10 191//10 260//10
f 264//7 197//7 199//7 266//7
f 271//7 259//7 190//7 187//7
f 270//10 272//10 189//10 185//10
f 257//10 270//10 185//10 186//10
f 258//40 188//40 193//40 262//40
f 258//7 271//7 187//7 188//7
f 78//27 219//27 232//27 177//27
f 286//27 220//27 231//27 290//27
f 372//27 303//27 230//27 370//27
f 298//32 302//32 229//32 224//32
f 337//32 301//32 228//32 334//32
f 289//27 300//27 227//27 226//27
f 296//7 219//7 225//7 299//7
f 81//10 220//10 226//10 122//10
f 303//27 299//27 225//27 230//27
f 301//32 288//32 223//32 228//32
f 297//32 222//32 216//32 294//32
f 69//32 221//32 215//32 101//32
f 290//27 231//27 218//27 285//27
f 177//27 232//27 217//27 89//27
f 291//41 209//41 217//41 295//41
f 287//10 221//10 223//10 288//10
f 70//7 222//7 224//7 112//7
f 283//7 213//7 215//7 284//7
f 292//10 293//10 214//10 212//10
f 283//7 282//7 211//7 213//7
f 291//10 292//10 212//10 209//10
f 57//42 210//42 218//42 92//42
f 58//10 214//10 216//10 102//10
f 282//7 281//7 210//7 211//7
f 247//9 240//9 233//9 248//9
f 246//8 239//8 240//8 247//8
f 245//6 238//6 239//6 246//6
f 244//5 237//5 238//5 245//5
f 243//4 236//4 237//4 244//4
f 242//3 235//3 236//3 243//3
f 241//2 234//2 235//2 242//2
f 248//1 233//1 234//1 241//1
f 1//1 248//1 241//1 3//1
f 3//2 241//2 242//2 5//2
f 5//3 242//3 243//3 7//3
f 7//4 243//4 244//4 9//4
f 9//5 244//5 245//5 11//5
f 11//6 245//6 246//6 13//6
f 13//8 246//8 247//8 15//8
f 15//9 247//9 248//9 1//9
f 20//4 21//4 254//4 255//4
f 22//6 23//6 252//6 253//6
f 24//9 17//9 256//9 251//9
f 17//1 18//1 250//1 256//1
f 19//3 20//3 255//3 249//3
f 21//5 22//5 253//5 254//5
f 23//8 24//8 251//8 252//8
f 18//2 19//2 249//2 250//2
f 38//7 39//7 271//7 258//7
f 38//43 258//43 262//43 85//43
f 48//10 47//10 270//10 257//10
f 47//10 46//10 272//10 270//10
f 39//7 40//7 259//7 271//7
f 66//7 264//7 266//7 107//7
f 48//10 257//10 260//10 98//10
f 176//28 269//28 273//28 88//28
f 63//31 265//31 261//31 95//31
f 167//31 107//31 266//31 279//31
f 143//28 116//28 268//28 276//28
f 74//10 263//10 268//10 116//10
f 315//28 143//28 276//28 335//28
f 108//31 139//31 277//31 267//31
f 115//28 169//28 278//28 275//28
f 364//31 167//31 279//31 371//31
f 77//28 274//28 269//28 176//28
f 195//28 263//28 280//28 208//28
f 196//7 274//7 275//7 202//7
f 198//10 265//10 267//10 200//10
f 197//31 264//31 260//31 191//31
f 208//28 280//28 262//28 193//28
f 189//44 272//44 273//44 194//44
f 190//7 259//7 261//7 192//7
f 35//7 36//7 281//7 282//7
f 44//10 43//10 292//10 291//10
f 34//7 35//7 282//7 283//7
f 43//10 42//10 293//10 292//10
f 34//7 283//7 284//7 94//7
f 62//10 287//10 288//10 103//10
f 44//45 291//45 295//45 86//45
f 172//27 290//27 285//27 83//27
f 65//32 297//32 294//32 97//32
f 137//32 103//32 288//32 301//32
f 156//27 114//27 299//27 303//27
f 75//7 296//7 299//7 114//7
f 113//27 142//27 300//27 289//27
f 324//32 137//32 301//32 337//32
f 104//32 154//32 302//32 298//32
f 348//27 156//27 303//27 372//27
f 72//27 286//27 290//27 172//27
f 219//27 296//27 304//27 232//27
f 220//10 286//10 289//10 226//10
f 221//32 287//32 284//32 215//32
f 232//27 304//27 295//27 217//27
f 222//7 297//7 298//7 224//7
f 210//46 281//46 285//46 218//46
f 214//10 293//10 294//10 216//10
f 142//27 326//27 338//27 300//27
f 346//32 324//32 337//32 355//32
f 139//31 313//31 336//31 277//31
f 366//28 315//28 335//28 354//28
f 355//32 337//32 334//32 353//32
f 300//27 338//27 333//27 227//27
f 354//28 335//28 332//28 352//28
f 277//31 336//31 331//31 204//31
f 361//28 310//28 330//28 351//28
f 134//27 322//27 329//27 181//27
f 125//14 124//14 317//14 306//14
f 124//14 123//14 305//14 317//14
f 127//16 126//16 318//16 307//16
f 128//16 127//16 307//16 319//16
f 128//16 319//16 320//16 130//16
f 133//17 310//17 316//17 145//17
f 125//21 306//21 309//21 131//21
f 181//27 329//27 321//27 132//27
f 135//31 311//31 308//31 129//31
f 138//29 137//29 324//29 312//29
f 139//30 138//30 312//30 313//30
f 204//31 331//31 314//31 140//31
f 136//34 323//34 325//34 141//34
f 142//25 144//25 327//25 326//25
f 227//27 333//27 328//27 146//27
f 144//26 143//26 315//26 327//26
f 356//14 305//14 308//14 359//14
f 344//18 322//18 328//18 350//18
f 340//19 318//19 321//19 343//19
f 351//28 330//28 309//28 360//28
f 345//32 323//32 320//32 342//32
f 353//32 334//32 325//32 347//32
f 362//36 311//36 314//36 365//36
f 352//28 332//28 316//28 367//28
f 205//28 352//28 367//28 170//28
f 165//36 362//36 365//36 168//36
f 229//32 353//32 347//32 155//32
f 153//32 345//32 342//32 150//32
f 183//28 351//28 360//28 163//28
f 148//19 340//19 343//19 151//19
f 152//18 344//18 350//18 158//18
f 159//14 356//14 359//14 162//14
f 164//28 361//28 351//28 183//28
f 278//28 354//28 352//28 205//28
f 302//32 355//32 353//32 229//32
f 169//28 366//28 354//28 278//28
f 154//32 346//32 355//32 302//32
f 326//27 348//27 372//27 338//27
f 313//31 364//31 371//31 336//31
f 338//27 372//27 370//27 333//27
f 336//31 371//31 369//31 331//31
f 322//27 344//27 368//27 329//27
f 306//14 317//14 339//14 357//14
f 317//14 305//14 356//14 339//14
f 307//16 318//16 340//16 358//16
f 319//16 307//16 358//16 341//16
f 319//16 341//16 342//16 320//16
f 310//17 361//17 367//17 316//17
f 306//21 357//21 360//21 309//21
f 329//27 368//27 343//27 321//27
f 311//31 362//31 359//31 308//31
f 312//29 324//29 346//29 363//29
f 313//30 312//30 363//30 364//30
f 331//31 369//31 365//31 314//31
f 323//34 345//34 347//34 325//34
f 326//25 327//25 349//25 348//25
f 333//27 370//27 350//27 328//27
f 327//26 315//26 366//26 349//26
