# Blender v2.79 (sub 0) OBJ File: 'ESAME4.blend'
# www.blender.org
mtllib 888884-30-LP.mtl
o Cylinder
v -0.026016 3.781720 -1.145885
v -0.026016 4.769863 -1.145885
v 0.681091 3.781720 -0.852992
v 0.681091 4.769863 -0.852992
v 0.973984 3.781720 -0.145885
v 0.973984 4.769863 -0.145885
v 0.681091 3.781720 0.561222
v 0.681091 4.769863 0.561222
v -0.026016 3.781720 0.854115
v -0.026016 4.769863 0.854115
v -0.733122 3.781720 0.561222
v -0.733122 4.769863 0.561222
v -1.026016 3.781720 -0.145885
v -1.026016 4.769863 -0.145885
v -0.733122 3.781720 -0.852992
v -0.733122 4.769863 -0.852992
v -0.026016 3.781720 -0.851260
v 0.472760 3.781720 -0.644661
v 0.679360 3.781720 -0.145885
v 0.472760 3.781720 0.352891
v -0.026016 3.781720 0.559490
v -0.524791 3.781720 0.352891
v -0.731391 3.781720 -0.145885
v -0.524791 3.781720 -0.644661
v -0.026016 3.395369 -0.851260
v 0.472760 3.395369 -0.644661
v 0.679360 3.395369 -0.145885
v 0.472760 3.395369 0.352891
v -0.026016 3.395369 0.559490
v -0.524791 3.395369 0.352891
v -0.731391 3.395369 -0.145885
v -0.524791 3.395369 -0.644661
v -0.026015 3.395370 -2.984096
v 2.640030 3.395370 -2.984096
v 3.156529 3.395370 -0.145885
v 2.640030 3.395370 2.692326
v -0.026016 3.395370 2.692326
v -2.692061 3.395370 2.692326
v -3.208560 3.395370 -0.145885
v -2.692061 3.395370 -2.984096
v -0.026015 -1.688316 -2.984096
v 2.640030 -1.688316 -2.984096
v 3.156529 -1.688316 -0.145885
v 2.640030 -1.688316 2.692326
v -0.026016 -1.688316 2.692326
v -2.692061 -1.688316 2.692326
v -3.208560 -1.688316 -0.145885
v -2.692061 -1.688316 -2.984096
v -0.026015 3.395370 -3.484096
v 2.640030 3.395370 -3.484096
v -2.692061 3.395370 -3.484096
v -0.026015 -1.688316 -3.484096
v 2.640030 -1.688316 -3.484096
v -2.692061 -1.688316 -3.484096
v -3.192061 3.395370 2.692326
v -3.708560 3.395370 -0.145885
v -3.192061 3.395370 -2.984096
v -3.192061 -1.688316 2.692326
v -3.708560 -1.688316 -0.145885
v -3.192061 -1.688316 -2.984096
v -3.192061 3.395370 -3.484096
v -3.192061 -1.688316 -3.484096
v 2.640030 3.395370 3.192326
v -0.026016 3.395370 3.192326
v -2.692061 3.395370 3.192326
v 2.640030 -1.688316 3.192326
v -0.026016 -1.688316 3.192326
v -2.692061 -1.688316 3.192326
v -3.192061 3.395370 3.192326
v -3.192061 -1.688316 3.192326
v 3.140030 3.395370 -2.984096
v 3.656529 3.395370 -0.145885
v 3.140030 3.395370 2.692326
v 3.140030 -1.688316 -2.984096
v 3.656529 -1.688316 -0.145885
v 3.140030 -1.688316 2.692326
v 3.140030 3.395370 -3.484096
v 3.140030 -1.688316 -3.484096
v 3.140030 3.395370 3.192326
v 3.140030 -1.688316 3.192326
v -3.192061 3.395370 3.057843
v -3.192061 -1.688316 3.057843
v 2.640030 3.395370 3.057843
v 2.640030 -1.688316 3.057843
v -2.692061 3.395370 3.057843
v -0.026016 3.395370 3.057843
v -2.692061 -1.688316 3.057843
v -0.026016 -1.688316 3.057843
v 3.140030 3.395370 3.057843
v 3.140030 -1.688316 3.057843
v -2.692061 3.395370 -3.359096
v -2.692061 -1.688316 -3.359096
v 2.640030 3.395370 -3.359096
v -0.026015 3.395370 -3.359096
v -0.026015 -1.688316 -3.359096
v 2.640030 -1.688316 -3.359096
v -3.192061 3.395370 -3.359096
v -3.192061 -1.688316 -3.359096
v 3.140030 3.395370 -3.359096
v 3.140030 -1.688316 -3.359096
v -2.692061 3.192201 -3.484096
v 2.640030 3.192201 -3.484096
v -0.026015 3.192201 -3.484096
v -3.192061 3.192201 -2.984096
v -3.708560 3.192201 -0.145885
v -3.192061 3.192201 2.692326
v -3.192061 3.192201 -3.484096
v -2.692061 3.192201 3.192326
v -0.026016 3.192201 3.192326
v 2.640030 3.192201 3.192326
v -3.192061 3.192201 3.192326
v 3.140030 3.192201 2.692326
v 3.656529 3.192201 -0.145885
v 3.140030 3.192201 -2.984096
v 3.140030 3.192201 -3.484096
v 3.140030 3.192201 3.192326
v 3.140030 3.192201 3.057843
v -3.192061 3.192201 3.057843
v 3.140030 3.192201 -3.359096
v -3.192061 3.192201 -3.359096
v -2.692061 -1.267032 -3.484096
v 2.640030 -1.267032 -3.484096
v -3.192061 -1.267032 -2.984096
v -3.192061 -1.267032 2.692326
v -3.192061 -1.267032 -3.484096
v -2.692061 -1.267032 3.192326
v 2.640030 -1.267032 3.192326
v -3.192061 -1.267032 3.192326
v 3.140030 -1.267032 2.692326
v 3.140030 -1.267032 -2.984096
v 3.140030 -1.267032 -3.484096
v 3.140030 -1.267032 3.192326
v 3.140030 -1.267032 3.057843
v -3.192061 -1.267032 -3.359096
v -0.026015 -1.267032 -3.484096
v -3.708560 -1.267032 -0.145885
v -0.026016 -1.267032 3.192326
v 3.656529 -1.267032 -0.145885
v -3.192061 -1.267032 3.057843
v 3.140030 -1.267032 -3.359096
v -0.026016 4.692192 -1.145885
v 0.681091 4.692192 -0.852992
v 0.973984 4.692192 -0.145885
v 0.681091 4.692192 0.561222
v -0.026016 4.692192 0.854115
v -0.733122 4.692192 0.561222
v -1.026016 4.692192 -0.145885
v -0.733122 4.692192 -0.852992
v 0.681091 3.888587 -0.852992
v 0.973984 3.888587 -0.145885
v 0.681091 3.888587 0.561222
v -0.026016 3.888587 0.854115
v -0.733122 3.888587 0.561222
v -1.026016 3.888587 -0.145885
v -0.733122 3.888587 -0.852992
v -0.026016 3.888587 -1.145885
v -0.731391 3.684240 -0.145885
v -0.524791 3.684240 0.352891
v -0.026016 3.684240 0.559490
v 0.472760 3.684240 0.352891
v 0.679360 3.684240 -0.145885
v 0.472760 3.684240 -0.644661
v -0.524791 3.684240 -0.644661
v -0.026016 3.684240 -0.851260
v -0.731391 3.504612 -0.145885
v -0.026016 3.504612 0.559490
v 0.679360 3.504612 -0.145885
v -0.524791 3.504612 -0.644661
v -0.524791 3.504612 0.352891
v 0.472760 3.504612 0.352891
v 0.472760 3.504612 -0.644661
v -0.026016 3.504612 -0.851260
v -0.026015 2.469931 -3.484096
v -3.708560 2.469931 -0.145885
v -0.026016 2.469931 3.192326
v 3.656529 2.469931 -0.145885
v -3.192061 2.469931 3.057843
v 3.140030 2.469931 -3.359096
v -2.692061 2.469931 -3.484096
v 2.640030 2.469931 -3.484096
v -3.192061 2.469931 -2.984096
v -3.192061 2.469931 2.692326
v -3.192061 2.469931 -3.484096
v -2.692061 2.469931 3.192326
v 2.640030 2.469931 3.192326
v -3.192061 2.469931 3.192326
v 3.140030 2.469931 2.692326
v 3.140030 2.469931 -2.984096
v 3.140030 2.469931 -3.484096
v 3.140030 2.469931 3.192326
v 3.140030 2.469931 3.057843
v -3.192061 2.469931 -3.359096
v -2.692061 -0.681152 -3.484096
v 2.640030 -0.681152 -3.484096
v -3.192061 -0.681152 -2.984096
v -3.192061 -0.681152 2.692326
v -3.192061 -0.681152 -3.484096
v -2.692061 -0.681152 3.192326
v 2.640030 -0.681152 3.192326
v -3.192061 -0.681152 3.192326
v 3.140030 -0.681152 2.692326
v 3.140030 -0.681152 -2.984096
v 3.140030 -0.681152 -3.484096
v 3.140030 -0.681152 3.192326
v 3.140030 -0.681152 3.057843
v -3.192061 -0.681152 -3.359096
v -0.026015 -0.681152 -3.484096
v -3.708560 -0.681152 -0.145885
v -0.026016 -0.681152 3.192326
v 3.656529 -0.681152 -0.145885
v -3.192061 -0.681152 3.057843
v 3.140030 -0.681152 -3.359096
v 2.656529 -0.681152 -0.145885
v 2.656529 2.469931 -0.145885
v 2.140030 2.469931 2.692326
v 2.140030 2.469931 -2.984096
v 2.140030 -0.681152 2.692326
v 2.140030 -0.681152 -2.984096
v -2.708560 -0.681152 -0.145885
v -2.708560 2.469931 -0.145885
v -2.192061 2.469931 -2.984096
v -2.192061 2.469931 2.692326
v -2.192061 -0.681152 -2.984096
v -2.192061 -0.681152 2.692326
v -0.026015 2.308895 -3.484096
v -0.026016 2.308895 3.192326
v -3.192061 2.308895 3.057843
v 3.140030 2.308895 -3.359096
v -2.692061 2.308895 -3.484096
v 2.640030 2.308895 -3.484096
v -3.192061 2.308895 -2.984096
v -3.192061 2.308895 2.692326
v -3.192061 2.308895 -3.484096
v -2.692061 2.308895 3.192326
v 2.640030 2.308895 3.192326
v -3.192061 2.308895 3.192326
v 3.140030 2.308895 2.692326
v 3.140030 2.308895 -2.984096
v 3.140030 2.308895 -3.484096
v 3.140030 2.308895 3.192326
v 3.140030 2.308895 3.057843
v -3.192061 2.308895 -3.359096
v 2.656529 2.308895 -0.145885
v 2.140030 2.308895 2.692326
v 2.140030 2.308895 -2.984096
v -2.708560 2.308895 -0.145885
v -2.192061 2.308895 -2.984096
v -2.192061 2.308895 2.692326
v -2.692061 -0.498808 -3.484096
v 2.640030 -0.498808 -3.484096
v -3.192061 -0.498808 -2.984096
v -3.192061 -0.498808 2.692326
v -3.192061 -0.498808 -3.484096
v -2.692061 -0.498808 3.192326
v 2.640030 -0.498808 3.192326
v -3.192061 -0.498808 3.192326
v 3.140030 -0.498808 2.692326
v 3.140030 -0.498808 -2.984096
v 3.140030 -0.498808 -3.484096
v 3.140030 -0.498808 3.192326
v 3.140030 -0.498808 3.057843
v -3.192061 -0.498808 -3.359096
v 2.140030 -0.498808 2.692326
v 2.140030 -0.498808 -2.984096
v -2.192061 -0.498808 -2.984096
v -2.192061 -0.498808 2.692326
v -0.026015 -0.498808 -3.484096
v -0.026016 -0.498808 3.192326
v -3.192061 -0.498808 3.057843
v 3.140030 -0.498808 -3.359096
v 2.656529 -0.498808 -0.145885
v -2.708560 -0.498808 -0.145885
vn 0.3827 0.0000 -0.9239
vn 0.9239 0.0000 -0.3827
vn 0.9239 0.0000 0.3827
vn 0.3827 0.0000 0.9239
vn -0.3827 0.0000 0.9239
vn -0.9239 0.0000 0.3827
vn 0.0000 1.0000 0.0000
vn -0.9239 0.0000 -0.3827
vn -0.3827 0.0000 -0.9239
vn 0.0000 -1.0000 0.0000
vn -1.0000 0.0000 0.0000
vn 0.0000 0.0000 -1.0000
vn 0.0000 0.0000 1.0000
vn -0.9838 0.0000 -0.1790
vn -0.9838 0.0000 0.1790
vn 1.0000 0.0000 0.0000
vn 0.9838 0.0000 0.1790
vn 0.9838 0.0000 -0.1790
usemtl None
s off
f 141//1 2//1 4//1 142//1
f 142//2 4//2 6//2 143//2
f 143//3 6//3 8//3 144//3
f 144//4 8//4 10//4 145//4
f 145//5 10//5 12//5 146//5
f 146//6 12//6 14//6 147//6
f 2//7 16//7 14//7 12//7
f 147//8 14//8 16//8 148//8
f 148//9 16//9 2//9 141//9
f 5//10 7//10 20//10 19//10
f 4//7 2//7 12//7 10//7
f 6//7 4//7 10//7 8//7
f 169//6 165//6 31//6 30//6
f 11//10 13//10 23//10 22//10
f 7//10 9//10 21//10 20//10
f 13//10 15//10 24//10 23//10
f 3//10 5//10 19//10 18//10
f 9//10 11//10 22//10 21//10
f 15//10 1//10 17//10 24//10
f 1//10 3//10 18//10 17//10
f 25//7 26//7 34//7 33//7
f 170//4 166//4 29//4 28//4
f 171//2 167//2 27//2 26//2
f 165//8 168//8 32//8 31//8
f 166//5 169//5 30//5 29//5
f 167//3 170//3 28//3 27//3
f 172//1 171//1 26//1 25//1
f 168//9 172//9 25//9 32//9
f 86//7 85//7 65//7 64//7
f 32//7 25//7 33//7 40//7
f 30//7 31//7 39//7 38//7
f 28//7 29//7 37//7 36//7
f 26//7 27//7 35//7 34//7
f 31//7 32//7 40//7 39//7
f 29//7 30//7 38//7 37//7
f 27//7 28//7 36//7 35//7
f 41//10 42//10 43//10 44//10 45//10 46//10 47//10 48//10
f 96//10 53//10 78//10 100//10
f 83//7 63//7 79//7 89//7
f 94//7 93//7 50//7 49//7
f 39//7 40//7 57//7 56//7
f 92//10 48//10 60//10 98//10
f 139//11 82//11 70//11 128//11
f 35//7 36//7 73//7 72//7
f 135//12 122//12 53//12 52//12
f 121//12 135//12 52//12 54//12
f 91//7 94//7 49//7 51//7
f 96//10 95//10 52//10 53//10
f 95//10 92//10 54//10 52//10
f 127//13 66//13 80//13 132//13
f 136//14 123//14 60//14 59//14
f 120//11 97//11 61//11 107//11
f 124//15 136//15 59//15 58//15
f 48//10 47//10 59//10 60//10
f 91//7 51//7 61//7 97//7
f 38//7 39//7 56//7 55//7
f 121//12 54//12 62//12 125//12
f 47//10 46//10 58//10 59//10
f 108//13 65//13 69//13 111//13
f 137//13 126//13 68//13 67//13
f 127//13 137//13 67//13 66//13
f 82//10 87//10 68//10 70//10
f 87//10 88//10 67//10 68//10
f 83//7 86//7 64//7 63//7
f 85//7 81//7 69//7 65//7
f 88//10 84//10 66//10 67//10
f 117//16 89//16 79//16 116//16
f 138//17 129//17 76//17 75//17
f 130//18 138//18 75//18 74//18
f 140//16 100//16 78//16 131//16
f 93//7 34//7 71//7 99//7
f 84//10 44//10 76//10 90//10
f 102//12 50//12 77//12 115//12
f 43//10 42//10 74//10 75//10
f 34//7 35//7 72//7 71//7
f 44//10 43//10 75//10 76//10
f 66//10 84//10 90//10 80//10
f 112//16 73//16 89//16 117//16
f 45//10 44//10 84//10 88//10
f 38//7 55//7 81//7 85//7
f 36//7 37//7 86//7 83//7
f 46//10 45//10 88//10 87//10
f 58//10 46//10 87//10 82//10
f 124//11 58//11 82//11 139//11
f 36//7 83//7 89//7 73//7
f 37//7 38//7 85//7 86//7
f 50//7 93//7 99//7 77//7
f 130//16 74//16 100//16 140//16
f 40//7 91//7 97//7 57//7
f 104//11 57//11 97//11 120//11
f 41//10 48//10 92//10 95//10
f 42//10 41//10 95//10 96//10
f 40//7 33//7 94//7 91//7
f 54//10 92//10 98//10 62//10
f 33//7 34//7 93//7 94//7
f 42//10 96//10 100//10 74//10
f 181//11 104//11 120//11 192//11
f 71//16 114//16 119//16 99//16
f 55//11 106//11 118//11 81//11
f 187//16 112//16 117//16 191//16
f 180//12 102//12 115//12 189//12
f 99//16 119//16 115//16 77//16
f 71//18 72//18 113//18 114//18
f 72//17 73//17 112//17 113//17
f 191//16 117//16 116//16 190//16
f 63//13 64//13 109//13 110//13
f 64//13 65//13 108//13 109//13
f 184//13 108//13 111//13 186//13
f 51//12 101//12 107//12 61//12
f 55//15 56//15 105//15 106//15
f 192//11 120//11 107//11 183//11
f 56//14 57//14 104//14 105//14
f 63//13 110//13 116//13 79//13
f 51//12 49//12 103//12 101//12
f 49//12 50//12 102//12 103//12
f 81//11 118//11 111//11 69//11
f 98//11 134//11 125//11 62//11
f 68//13 126//13 128//13 70//13
f 90//16 133//16 132//16 80//16
f 53//12 122//12 131//12 78//12
f 76//16 129//16 133//16 90//16
f 60//11 123//11 134//11 98//11
f 202//16 130//16 140//16 212//16
f 196//11 124//11 139//11 211//11
f 212//16 140//16 131//16 203//16
f 202//18 210//18 138//18 130//18
f 210//17 201//17 129//17 138//17
f 199//13 209//13 137//13 127//13
f 209//13 198//13 126//13 137//13
f 193//12 121//12 125//12 197//12
f 196//15 208//15 136//15 124//15
f 208//14 195//14 123//14 136//14
f 199//13 127//13 132//13 204//13
f 193//12 207//12 135//12 121//12
f 207//12 194//12 122//12 135//12
f 211//11 139//11 128//11 200//11
f 155//9 148//9 141//9 156//9
f 154//8 147//8 148//8 155//8
f 153//6 146//6 147//6 154//6
f 152//5 145//5 146//5 153//5
f 151//4 144//4 145//4 152//4
f 150//3 143//3 144//3 151//3
f 149//2 142//2 143//2 150//2
f 156//1 141//1 142//1 149//1
f 1//1 156//1 149//1 3//1
f 3//2 149//2 150//2 5//2
f 5//3 150//3 151//3 7//3
f 7//4 151//4 152//4 9//4
f 9//5 152//5 153//5 11//5
f 11//6 153//6 154//6 13//6
f 13//8 154//8 155//8 15//8
f 15//9 155//9 156//9 1//9
f 24//9 17//9 164//9 163//9
f 17//1 18//1 162//1 164//1
f 19//3 20//3 160//3 161//3
f 21//5 22//5 158//5 159//5
f 23//8 24//8 163//8 157//8
f 18//2 19//2 161//2 162//2
f 20//4 21//4 159//4 160//4
f 22//6 23//6 157//6 158//6
f 163//9 164//9 172//9 168//9
f 164//1 162//1 171//1 172//1
f 161//3 160//3 170//3 167//3
f 159//5 158//5 169//5 166//5
f 157//8 163//8 168//8 165//8
f 162//2 161//2 167//2 171//2
f 160//4 159//4 166//4 170//4
f 158//6 157//6 165//6 169//6
f 118//11 177//11 186//11 111//11
f 103//12 102//12 180//12 173//12
f 101//12 103//12 173//12 179//12
f 110//13 185//13 190//13 116//13
f 105//14 104//14 181//14 174//14
f 106//15 105//15 174//15 182//15
f 101//12 179//12 183//12 107//12
f 109//13 108//13 184//13 175//13
f 110//13 109//13 175//13 185//13
f 113//17 112//17 187//17 176//17
f 114//18 113//18 176//18 188//18
f 119//16 178//16 189//16 115//16
f 106//11 182//11 177//11 118//11
f 114//16 188//16 178//16 119//16
f 242//11 192//11 183//11 233//11
f 234//13 184//13 186//13 236//13
f 241//16 191//16 190//16 240//16
f 230//12 180//12 189//12 239//12
f 237//16 187//16 191//16 241//16
f 231//11 181//11 192//11 242//11
f 123//11 195//11 206//11 134//11
f 129//16 201//16 205//16 133//16
f 122//12 194//12 203//12 131//12
f 133//16 205//16 204//16 132//16
f 126//13 198//13 200//13 128//13
f 134//11 206//11 197//11 125//11
f 269//11 211//11 200//11 256//11
f 267//12 250//12 194//12 207//12
f 249//12 267//12 207//12 193//12
f 255//13 199//13 204//13 260//13
f 251//13 195//13 223//13 265//13
f 174//10 181//10 221//10 220//10
f 249//12 193//12 197//12 253//12
f 268//13 254//13 198//13 209//13
f 255//13 268//13 209//13 199//13
f 176//10 187//10 215//10 214//10
f 201//7 210//7 213//7 217//7
f 270//16 212//16 203//16 259//16
f 252//11 196//11 211//11 269//11
f 258//16 202//16 212//16 270//16
f 271//17 263//17 217//17 213//17
f 264//18 271//18 213//18 218//18
f 238//13 188//13 216//13 245//13
f 210//7 202//7 218//7 213//7
f 188//10 176//10 214//10 216//10
f 257//12 201//12 217//12 263//12
f 272//14 265//14 223//14 219//14
f 266//15 272//15 219//15 224//15
f 208//7 196//7 224//7 219//7
f 182//10 174//10 220//10 222//10
f 232//12 182//12 222//12 248//12
f 195//7 208//7 219//7 223//7
f 252//12 232//12 248//12 266//12
f 222//15 220//15 246//15 248//15
f 220//14 221//14 247//14 246//14
f 187//12 237//12 244//12 215//12
f 258//13 238//13 245//13 264//13
f 216//18 214//18 243//18 245//18
f 214//17 215//17 244//17 243//17
f 188//16 238//16 228//16 178//16
f 182//11 232//11 227//11 177//11
f 178//16 228//16 239//16 189//16
f 185//13 175//13 226//13 235//13
f 175//13 184//13 234//13 226//13
f 179//12 229//12 233//12 183//12
f 181//13 231//13 247//13 221//13
f 185//13 235//13 240//13 190//13
f 179//12 173//12 225//12 229//12
f 173//12 180//12 230//12 225//12
f 177//11 227//11 236//11 186//11
f 251//11 231//11 242//11 262//11
f 257//16 237//16 241//16 261//16
f 250//12 230//12 239//12 259//12
f 261//16 241//16 240//16 260//16
f 254//13 234//13 236//13 256//13
f 262//11 242//11 233//11 253//11
f 206//11 262//11 253//11 197//11
f 198//13 254//13 256//13 200//13
f 205//16 261//16 260//16 204//16
f 194//12 250//12 259//12 203//12
f 201//16 257//16 261//16 205//16
f 195//11 251//11 262//11 206//11
f 202//13 258//13 264//13 218//13
f 196//12 252//12 266//12 224//12
f 248//15 246//15 272//15 266//15
f 246//14 247//14 265//14 272//14
f 237//12 257//12 263//12 244//12
f 245//18 243//18 271//18 264//18
f 243//17 244//17 263//17 271//17
f 238//16 258//16 270//16 228//16
f 232//11 252//11 269//11 227//11
f 228//16 270//16 259//16 239//16
f 235//13 226//13 268//13 255//13
f 226//13 234//13 254//13 268//13
f 229//12 249//12 253//12 233//12
f 231//13 251//13 265//13 247//13
f 235//13 255//13 260//13 240//13
f 229//12 225//12 267//12 249//12
f 225//12 230//12 250//12 267//12
f 227//11 269//11 256//11 236//11
