# Blender v2.79 (sub 0) OBJ File: ''
# www.blender.org
mtllib 889992-42-LP.mtl
o Circle_Circle.001
v -0.002508 -0.073444 -1.003482
v -0.709615 -0.073444 -0.710588
v -1.002508 -0.073444 -0.003481
v -0.709615 -0.073444 0.703625
v -0.002508 -0.073444 0.996518
v 0.704599 -0.073444 0.703625
v 0.997492 -0.073444 -0.003482
v 0.704599 -0.073444 -0.710588
v -0.002508 1.790700 -1.003482
v -0.709615 1.790700 -0.710588
v -1.002508 1.790700 -0.003481
v -0.709615 1.790700 0.703625
v -0.002508 1.790700 0.996518
v 0.704599 1.790700 0.703625
v 0.997492 1.790700 -0.003482
v 0.704599 1.790700 -0.710588
v -0.002508 -0.073444 -1.626675
v -1.150279 -0.073444 -1.151252
v -1.625701 -0.073444 -0.003481
v -1.150279 -0.073444 1.144289
v -0.002508 -0.073444 1.619712
v 1.145263 -0.073444 1.144289
v 1.620685 -0.073444 -0.003482
v 1.145263 -0.073444 -1.151252
v -0.002508 -0.644138 -1.626675
v -1.150279 -0.644138 -1.151252
v -1.625701 -0.644138 -0.003481
v -1.150279 -0.644138 1.144289
v -0.002508 -0.644138 1.619712
v 1.145263 -0.644138 1.144289
v 1.620685 -0.644138 -0.003482
v 1.145263 -0.644138 -1.151252
v -0.002508 -0.644138 -8.305487
v -4.457125 -0.644138 -8.270582
v -3.867964 -0.644138 -0.003481
v -4.457125 -0.644138 8.394183
v -0.002507 -0.644138 8.407022
v 2.889007 -0.644138 8.394182
v 4.153221 -0.644138 -0.003481
v 2.889007 -0.644138 -8.270581
v -0.002508 -0.644138 -8.305487
v -4.457125 -0.644138 -8.270582
v -3.867964 -0.644138 -0.003481
v -4.457125 -0.644138 8.394183
v -0.002507 -0.644138 8.407022
v 2.889007 -0.644138 8.394182
v 4.153221 -0.644138 -0.003481
v 2.889007 -0.644138 -8.270581
v -0.002508 -0.644138 -8.305487
v -4.343044 -2.248979 -6.669801
v -3.867964 -2.248979 -0.003481
v -4.344809 -2.248979 6.793278
v -0.002507 -0.644138 8.407022
v 3.091156 -2.002065 7.051386
v 4.153221 -2.002065 -0.003481
v 3.094277 -2.002065 -6.928258
v -0.003541 -20.963619 -7.817913
v -4.343044 -19.358778 -6.669801
v -3.867964 -19.358778 -0.003481
v -4.344809 -19.358778 6.793278
v -0.002887 -20.963619 7.919469
v 3.091156 -19.605692 7.051386
v 4.153221 -19.605692 -0.003481
v 3.094277 -19.605692 -6.928258
v -0.002508 -20.963619 -0.003481
v -3.867964 -0.644138 -0.003481
v -4.457125 -0.644138 -8.270582
v -4.457125 -0.644138 8.394183
v -3.379196 -20.963619 -0.003750
v -3.933884 -20.963619 -7.787117
v -3.934277 -20.963619 7.908139
v 4.153221 -0.644138 -0.003481
v 2.889007 -0.644138 8.394182
v 2.889007 -0.644138 -8.270581
v 3.660090 -20.963619 -0.002908
v 2.469081 -20.963619 7.908493
v 2.469577 -20.963619 -7.788058
v 4.894397 -19.605692 -0.004343
v 4.894397 -2.002065 -0.004343
v 3.832333 -2.002065 7.050525
v 3.835453 -2.002065 -6.929119
v 3.832333 -19.605692 7.050525
v 3.835453 -19.605692 -6.929119
v -3.867964 -19.358778 -0.003481
v -3.867964 -2.248979 -0.003481
v -4.343044 -2.248979 -6.669801
v -4.344809 -2.248979 6.793278
v -4.343044 -19.358778 -6.669801
v -4.344809 -19.358778 6.793278
v -4.614417 -19.358778 -0.003070
v -4.614417 -2.248979 -0.003070
v -5.089497 -2.248979 -6.669390
v -5.091262 -2.248979 6.793690
v -5.089497 -19.358778 -6.669390
v -5.091262 -19.358778 6.793690
v 2.889007 -20.963619 8.394182
v -0.002507 -20.963619 8.407022
v -4.457125 -20.963619 8.394183
v -4.457125 -20.963619 -8.270582
v 2.889007 -20.963619 -8.270581
v -0.002508 -20.963619 -8.305487
v -4.344809 -19.358778 6.793278
v -4.343044 -19.358778 -6.669801
v 3.091156 -19.605692 7.051386
v 3.094277 -19.605692 -6.928258
v 4.894397 -19.605692 -0.004343
v 3.832333 -19.605692 7.050525
v 3.835453 -19.605692 -6.929119
v -4.344809 -19.358778 6.793278
v -4.343044 -19.358778 -6.669801
v -4.614417 -19.358778 -0.003070
v -5.091262 -19.358778 6.793690
v -5.089497 -19.358778 -6.669390
v -0.002507 -0.644138 8.407022
v 2.889007 -0.644138 -8.270581
v 3.094277 -2.002065 -6.928258
v 4.894397 -2.002065 -0.004343
v 3.835453 -2.002065 -6.929119
v -4.614417 -2.248979 -0.003070
v 2.889007 -0.644138 8.394182
v -4.457125 -0.644138 8.394183
v -4.457125 -0.644138 -8.270582
v -0.002508 -0.644138 -8.305487
v -4.344809 -2.248979 6.793278
v -4.343044 -2.248979 -6.669801
v 3.091156 -2.002065 7.051386
v 3.832333 -2.002065 7.050525
v -4.344809 -2.248979 6.793278
v -4.343044 -2.248979 -6.669801
v -5.091262 -2.248979 6.793690
v -5.089497 -2.248979 -6.669390
v 2.889007 -1.175162 8.394182
v -4.457125 -1.175162 8.394183
v -4.457125 -1.175162 -8.270582
v -0.002508 -1.175162 -8.305487
v -4.344809 -2.696123 6.793278
v -4.343044 -2.696123 -6.669801
v 3.091156 -2.462114 7.051386
v 3.832333 -2.462114 7.050525
v -4.344809 -2.696123 6.793278
v -4.343044 -2.696123 -6.669801
v -5.091262 -2.696123 6.793690
v -5.089497 -2.696123 -6.669390
v -0.002507 -1.175162 8.407022
v 2.889007 -1.175162 -8.270581
v 3.094277 -2.462114 -6.928258
v 4.894397 -2.462114 -0.004343
v 3.835453 -2.462114 -6.929119
v -4.614417 -2.696123 -0.003070
v 2.889007 -20.423244 8.394182
v -4.457125 -20.423244 8.394183
v -4.457125 -20.423244 -8.270582
v -0.002508 -20.423244 -8.305487
v -4.344809 -18.903763 6.793278
v -4.343044 -18.903763 -6.669801
v 3.091156 -19.137543 7.051386
v 3.832333 -19.137543 7.050525
v -4.344809 -18.903763 6.793278
v -4.343044 -18.903763 -6.669801
v -5.091262 -18.903763 6.793690
v -5.089497 -18.903763 -6.669390
v -0.002507 -20.423244 8.407022
v 2.889007 -20.423244 -8.270581
v 3.094277 -19.137543 -6.928258
v 4.894397 -19.137543 -0.004343
v 3.835453 -19.137543 -6.929119
v -4.614417 -18.903763 -0.003070
v -4.365040 -1.939548 -6.978448
v -3.867964 -1.939548 -0.003481
v -4.366465 -1.939549 7.101950
v -3.867964 -19.668207 -0.003481
v -4.365040 -19.668207 -6.978448
v -4.366465 -19.668207 7.101950
v -4.365040 -19.668207 -6.978448
v -4.366465 -19.668207 7.101950
v -4.366465 -1.939549 7.101950
v -4.365040 -1.939549 -6.978448
v -4.365040 -2.402865 -6.978448
v -4.366465 -2.402866 7.101950
v -4.365040 -19.196735 -6.978448
v -4.366465 -19.196735 7.101950
v -3.867964 -0.887795 -0.003481
v -4.440073 -0.887795 8.151123
v -4.439805 -20.719961 -8.027541
v -4.439805 -20.719961 -8.027541
v -4.440073 -20.719961 8.151123
v -4.440073 -0.887795 8.151123
v -4.439805 -0.887795 -8.027541
v -4.439805 -1.406084 -8.027541
v -4.440073 -1.406084 8.151123
v -4.439805 -20.192547 -8.027541
v -4.440073 -20.192547 8.151123
v -4.439805 -0.887795 -8.027541
v -3.867964 -20.719961 -0.003481
v -4.440073 -20.719961 8.151123
v 2.945853 -1.025999 8.016576
v 4.153221 -1.025999 -0.003481
v 2.946731 -1.025999 -7.893107
v 4.153221 -20.581758 -0.003481
v 2.945853 -20.581758 8.016576
v 2.946731 -20.581758 -7.893107
v 2.946731 -20.581758 -7.893107
v 2.945853 -20.581758 8.016576
v 2.946731 -1.025999 -7.893107
v 2.945853 -1.025999 8.016576
v 2.945853 -1.537064 8.016576
v 2.946731 -1.537064 -7.893107
v 2.945853 -20.061693 8.016576
v 2.946731 -20.061693 -7.893107
v 3.055129 -1.760054 7.290700
v 4.153221 -19.847702 -0.003481
v 3.057693 -19.847702 -7.167488
v 4.153221 -1.760054 -0.003481
v 3.057693 -1.760054 -7.167488
v 3.055129 -19.847702 7.290700
v 3.057693 -19.847702 -7.167488
v 3.055129 -19.847702 7.290700
v 3.057693 -1.760054 -7.167488
v 3.055129 -1.760054 7.290700
v 3.055129 -2.232752 7.290700
v 3.057693 -2.232752 -7.167488
v 3.055129 -19.366680 7.290700
v 3.057693 -19.366680 -7.167488
v 4.629691 -2.002065 -0.004035
v 3.570747 -2.002065 -6.928812
v 3.567627 -19.605692 7.050833
v 3.567627 -2.002065 7.050833
v 4.629691 -19.605692 -0.004035
v 3.570747 -19.605692 -6.928812
v 3.570747 -19.605692 -6.928812
v 3.567627 -19.605692 7.050833
v 3.567627 -2.002065 7.050833
v 3.570747 -2.002065 -6.928812
v 3.570747 -2.462114 -6.928812
v 3.567627 -2.462114 7.050833
v 3.570747 -19.137543 -6.928812
v 3.567627 -19.137543 7.050833
v -4.842509 -19.358778 -6.669526
v -4.842509 -2.248979 -6.669526
v -4.844274 -19.358778 6.793554
v -4.367428 -19.358778 -0.003206
v -4.367428 -2.248979 -0.003206
v -4.844274 -2.248979 6.793554
v -4.844274 -19.358778 6.793554
v -4.842509 -19.358778 -6.669526
v -4.842509 -2.248979 -6.669526
v -4.844274 -2.248979 6.793554
v -4.844274 -2.696123 6.793554
v -4.842509 -2.696123 -6.669526
v -4.844274 -18.903763 6.793554
v -4.842509 -18.903763 -6.669526
v -4.457125 -20.963619 -8.270582
v -0.002508 -20.963619 -8.305487
v -3.867964 -20.963619 -0.003481
v -4.457125 -20.963619 8.394183
v -0.002507 -20.963619 8.407022
v 2.889007 -20.963619 8.394182
v 4.153221 -20.963619 -0.003481
v 2.889007 -20.963619 -8.270581
v 0.704599 1.790700 0.703625
v 0.997492 1.790700 -0.003482
v -0.709615 1.790700 0.703625
v -0.002508 1.790700 0.996518
v -0.709615 1.790700 -0.710588
v -1.002508 1.790700 -0.003481
v 0.704599 1.790700 -0.710588
v -0.002508 1.790700 -1.003482
v 0.704599 -0.073444 0.703625
v -0.709615 -0.073444 0.703625
v -0.709615 -0.073444 -0.710588
v -0.002508 -0.073444 -1.003482
v 0.997492 -0.073444 -0.003482
v -0.002508 -0.073444 0.996518
v -1.002508 -0.073444 -0.003481
v 0.704599 -0.073444 -0.710588
v 1.620685 -0.073444 -0.003482
v 1.145263 -0.073444 1.144289
v -0.002508 -0.073444 1.619712
v -1.150279 -0.073444 1.144289
v -1.625701 -0.073444 -0.003481
v -1.150279 -0.073444 -1.151252
v 1.145263 -0.073444 -1.151252
v -0.002508 -0.073444 -1.626675
v -0.002508 -0.644138 1.619712
v -1.150279 -0.644138 1.144289
v -1.625701 -0.644138 -0.003481
v -1.150279 -0.644138 -1.151252
v 1.145263 -0.644138 -1.151252
v 1.620685 -0.644138 -0.003482
v 1.145263 -0.644138 1.144289
v -0.002508 -0.644138 -1.626675
v -0.002508 -0.644138 -7.959280
v 2.798618 -0.644138 -7.901540
v 4.021943 -0.644138 -0.003481
v 2.798618 -0.644138 8.018373
v -0.002507 -0.644138 8.055192
v -4.285710 -0.644138 8.018374
v -3.751733 -0.644138 -0.003481
v -4.285710 -0.644138 -7.901541
vn 0.0000 0.0000 1.0000
vn 0.0000 1.0000 0.0000
vn 0.0000 -1.0000 -0.0000
vn -0.9975 0.0000 0.0711
vn -0.9975 0.0000 -0.0700
vn 0.9991 0.0000 -0.0433
vn 0.9889 0.0000 0.1489
vn 0.9885 0.0000 -0.1512
vn -0.9877 0.0000 -0.1566
vn 0.0005 0.0000 1.0000
vn -0.0005 0.0000 -1.0000
vn 0.0121 0.0000 -0.9999
vn -0.0078 0.0000 -1.0000
vn 0.0044 0.0000 1.0000
vn -0.0029 0.0000 1.0000
vn 0.0012 0.0000 1.0000
vn 0.0032 0.0000 -1.0000
vn -0.0043 0.0000 -1.0000
vn 0.0070 0.0000 1.0000
vn -0.0116 0.0000 0.9999
vn 0.9996 0.0000 0.0297
vn -0.9743 0.0000 0.2251
vn -1.0000 0.0000 0.0000
vn -0.9993 0.0000 0.0375
vn -0.9973 0.0000 -0.0734
vn 0.0006 0.0000 1.0000
vn -0.0012 0.0000 -1.0000
vn -0.0006 0.0000 -1.0000
vn -0.9086 0.0000 -0.4177
vn -0.9995 0.0000 0.0319
vn 1.0000 0.0000 0.0000
vn 0.6499 0.0000 0.7600
vn -0.1315 0.0000 -0.9913
vn -0.9943 0.0000 -0.1069
vn 0.3827 0.0000 -0.9239
vn -0.3827 0.0000 -0.9239
vn -0.9239 0.0000 0.3827
vn 0.3827 0.0000 0.9239
vn 0.9239 0.0000 -0.3827
vn -0.9239 0.0000 -0.3827
vn -0.3827 0.0000 0.9239
vn 0.9239 0.0000 0.3827
usemtl None
s off
f 260//1 261//1 15//1 14//1
f 262//1 263//1 13//1 12//1
f 264//1 265//1 11//1 10//1
f 261//1 266//1 16//1 15//1
f 263//1 260//1 14//1 13//1
f 265//1 262//1 12//1 11//1
f 267//1 264//1 10//1 9//1
f 266//1 267//1 9//1 16//1
f 10//2 11//2 12//2 13//2 14//2 15//2 16//2 9//2
f 276//1 277//1 22//1 23//1
f 278//1 279//1 20//1 21//1
f 280//1 281//1 18//1 19//1
f 282//1 276//1 23//1 24//1
f 277//1 278//1 21//1 22//1
f 279//1 280//1 19//1 20//1
f 281//1 283//1 17//1 18//1
f 283//1 282//1 24//1 17//1
f 284//1 285//1 28//1 29//1
f 286//1 287//1 26//1 27//1
f 288//1 289//1 31//1 32//1
f 290//1 284//1 29//1 30//1
f 285//1 286//1 27//1 28//1
f 287//1 291//1 25//1 26//1
f 291//1 288//1 32//1 25//1
f 289//1 290//1 30//1 31//1
f 292//2 293//2 40//2 33//2
f 294//2 295//2 38//2 39//2
f 296//2 297//2 36//2 37//2
f 298//2 299//2 34//2 35//2
f 293//2 294//2 39//2 40//2
f 295//2 296//2 37//2 38//2
f 297//2 298//2 35//2 36//2
f 299//2 292//2 33//2 34//2
f 38//1 37//1 45//1 46//1
f 36//1 35//1 43//1 44//1
f 34//1 33//1 41//1 42//1
f 33//1 40//1 48//1 41//1
f 39//1 38//1 46//1 47//1
f 37//1 36//1 44//1 45//1
f 35//1 34//1 42//1 43//1
f 40//1 39//1 47//1 48//1
f 48//1 47//1 72//1 74//1
f 46//1 45//1 53//1 73//1
f 44//1 43//1 66//1 68//1
f 42//1 41//1 49//1 67//1
f 41//1 48//1 74//1 49//1
f 47//1 46//1 73//1 72//1
f 45//1 44//1 68//1 53//1
f 43//1 42//1 67//1 66//1
f 231//1 226//1 82//1 107//1
f 97//1 98//1 255//1 256//1
f 51//1 50//1 86//1 85//1
f 225//2 224//2 79//2 81//2
f 96//1 97//1 256//1 257//1
f 58//1 59//1 84//1 88//1
f 99//1 101//1 253//1 252//1
f 101//1 100//1 259//1 253//1
f 65//3 75//3 76//3 61//3
f 69//3 65//3 61//3 71//3
f 57//3 77//3 75//3 65//3
f 70//3 57//3 65//3 69//3
f 193//4 182//4 66//4 67//4
f 182//5 183//5 68//5 66//5
f 194//4 184//4 252//4 254//4
f 195//5 194//5 254//5 255//5
f 186//1 195//1 255//1 98//1
f 188//6 193//6 67//6 122//6
f 196//7 197//7 72//7 73//7
f 197//8 198//8 74//8 72//8
f 199//7 200//7 257//7 258//7
f 201//8 199//8 258//8 259//8
f 205//9 196//9 73//9 120//9
f 202//1 201//1 259//1 100//1
f 106//1 107//1 82//1 78//1
f 108//1 106//1 78//1 83//1
f 226//3 228//3 78//3 82//3
f 224//2 227//2 80//2 79//2
f 233//1 225//1 81//1 118//1
f 228//3 229//3 83//3 78//3
f 241//3 240//3 95//3 90//3
f 245//1 238//1 94//1 113//1
f 103//1 58//1 88//1 110//1
f 59//1 60//1 89//1 84//1
f 52//1 51//1 85//1 87//1
f 124//1 52//1 87//1 128//1
f 111//1 113//1 94//1 90//1
f 112//1 111//1 90//1 95//1
f 243//2 242//2 91//2 93//2
f 247//10 243//10 93//10 130//10
f 238//3 241//3 90//3 94//3
f 242//2 239//2 92//2 91//2
f 240//1 244//1 112//1 95//1
f 160//5 167//5 111//5 112//5
f 167//4 161//4 113//4 111//4
f 60//1 102//1 109//1 89//1
f 155//1 103//1 110//1 159//1
f 251//11 245//11 113//11 161//11
f 229//1 230//1 108//1 83//1
f 166//8 165//8 106//8 108//8
f 165//7 157//7 107//7 106//7
f 209//8 202//8 100//8 163//8
f 200//1 203//1 96//1 257//1
f 184//1 185//1 99//1 252//1
f 192//5 186//5 98//5 151//5
f 153//12 163//12 100//12 101//12
f 152//13 153//13 101//13 99//13
f 150//14 162//14 97//14 96//14
f 162//15 151//15 98//15 97//15
f 237//16 231//16 107//16 157//16
f 227//1 232//1 127//1 80//1
f 53//17 68//17 121//17 114//17
f 73//18 53//18 114//18 120//18
f 67//19 49//19 123//19 122//19
f 49//20 74//20 115//20 123//20
f 183//21 187//21 121//21 68//21
f 198//22 204//22 115//22 74//22
f 79//23 80//23 127//23 117//23
f 81//23 79//23 117//23 118//23
f 239//11 246//11 131//11 92//11
f 50//1 125//1 129//1 86//1
f 91//24 92//24 131//24 119//24
f 93//25 91//25 119//25 130//25
f 248//26 247//26 130//26 142//26
f 136//1 124//1 128//1 140//1
f 234//27 233//27 118//27 148//27
f 206//7 205//7 120//7 132//7
f 189//4 188//4 122//4 134//4
f 191//4 189//4 134//4 152//4
f 208//7 206//7 132//7 150//7
f 236//27 234//27 148//27 166//27
f 154//1 136//1 140//1 158//1
f 250//10 248//10 142//10 160//10
f 232//16 235//16 139//16 127//16
f 114//15 121//15 133//15 144//15
f 120//14 114//14 144//14 132//14
f 122//13 123//13 135//13 134//13
f 123//12 115//12 145//12 135//12
f 187//5 190//5 133//5 121//5
f 204//8 207//8 145//8 115//8
f 117//7 127//7 139//7 147//7
f 118//8 117//8 147//8 148//8
f 246//28 249//28 143//28 131//28
f 125//1 137//1 141//1 129//1
f 119//4 131//4 143//4 149//4
f 130//5 119//5 149//5 142//5
f 244//26 250//26 160//26 112//26
f 102//1 154//1 158//1 109//1
f 230//27 236//27 166//27 108//27
f 203//7 208//7 150//7 96//7
f 185//4 191//4 152//4 99//4
f 235//16 237//16 157//16 139//16
f 144//15 133//15 151//15 162//15
f 132//14 144//14 162//14 150//14
f 134//13 135//13 153//13 152//13
f 135//12 145//12 163//12 153//12
f 190//5 192//5 151//5 133//5
f 207//8 209//8 163//8 145//8
f 147//7 139//7 157//7 165//7
f 148//8 147//8 165//8 166//8
f 249//28 251//28 161//28 143//28
f 137//1 155//1 159//1 141//1
f 149//4 143//4 161//4 167//4
f 142//5 149//5 167//5 160//5
f 136//5 154//5 181//5 179//5
f 103//4 155//4 180//4 174//4
f 124//5 136//5 179//5 176//5
f 155//4 137//4 178//4 180//4
f 137//4 125//4 177//4 178//4
f 52//29 124//29 176//29 170//29
f 154//5 102//5 175//5 181//5
f 58//1 103//1 174//1 172//1
f 125//30 50//30 168//30 177//30
f 102//1 60//1 173//1 175//1
f 60//5 59//5 171//5 173//5
f 59//4 58//4 172//4 171//4
f 51//5 52//5 170//5 169//5
f 50//4 51//4 169//4 168//4
f 179//5 181//5 192//5 190//5
f 174//4 180//4 191//4 185//4
f 176//5 179//5 190//5 187//5
f 180//4 178//4 189//4 191//4
f 178//4 177//4 188//4 189//4
f 170//31 176//31 187//31 183//31
f 181//5 175//5 186//5 192//5
f 172//1 174//1 185//1 184//1
f 177//23 168//23 193//23 188//23
f 175//1 173//1 195//1 186//1
f 173//5 171//5 194//5 195//5
f 171//4 172//4 184//4 194//4
f 169//5 170//5 183//5 182//5
f 168//4 169//4 182//4 193//4
f 221//8 223//8 209//8 207//8
f 217//7 222//7 208//7 203//7
f 218//8 221//8 207//8 204//8
f 222//7 220//7 206//7 208//7
f 220//7 219//7 205//7 206//7
f 214//32 218//32 204//32 198//32
f 215//1 217//1 203//1 200//1
f 223//8 216//8 202//8 209//8
f 216//1 212//1 201//1 202//1
f 219//33 210//33 196//33 205//33
f 212//8 211//8 199//8 201//8
f 211//7 215//7 200//7 199//7
f 213//8 214//8 198//8 197//8
f 210//7 213//7 197//7 196//7
f 54//7 55//7 213//7 210//7
f 55//8 56//8 214//8 213//8
f 63//7 62//7 215//7 211//7
f 64//8 63//8 211//8 212//8
f 126//34 54//34 210//34 219//34
f 105//1 64//1 212//1 216//1
f 164//8 105//8 216//8 223//8
f 62//1 104//1 217//1 215//1
f 56//23 116//23 218//23 214//23
f 138//7 126//7 219//7 220//7
f 156//7 138//7 220//7 222//7
f 116//8 146//8 221//8 218//8
f 104//7 156//7 222//7 217//7
f 146//8 164//8 223//8 221//8
f 138//16 156//16 237//16 235//16
f 105//27 164//27 236//27 230//27
f 126//16 138//16 235//16 232//16
f 164//27 146//27 234//27 236//27
f 146//27 116//27 233//27 234//27
f 54//1 126//1 232//1 227//1
f 156//16 104//16 231//16 237//16
f 64//1 105//1 230//1 229//1
f 63//3 64//3 229//3 228//3
f 116//1 56//1 225//1 233//1
f 55//2 54//2 227//2 224//2
f 62//3 63//3 228//3 226//3
f 56//2 55//2 224//2 225//2
f 104//1 62//1 226//1 231//1
f 141//28 159//28 251//28 249//28
f 109//26 158//26 250//26 244//26
f 129//28 141//28 249//28 246//28
f 158//26 140//26 248//26 250//26
f 140//26 128//26 247//26 248//26
f 86//28 129//28 246//28 239//28
f 159//28 110//28 245//28 251//28
f 89//1 109//1 244//1 240//1
f 85//2 86//2 239//2 242//2
f 88//3 84//3 241//3 238//3
f 128//26 87//26 243//26 247//26
f 87//2 85//2 242//2 243//2
f 110//1 88//1 238//1 245//1
f 84//3 89//3 240//3 241//3
f 57//3 70//3 252//3 253//3
f 70//3 69//3 254//3 252//3
f 69//3 71//3 255//3 254//3
f 71//3 61//3 256//3 255//3
f 61//3 76//3 257//3 256//3
f 76//3 75//3 258//3 257//3
f 75//3 77//3 259//3 258//3
f 77//3 57//3 253//3 259//3
f 275//35 271//35 267//35 266//35
f 271//36 270//36 264//36 267//36
f 274//37 269//37 262//37 265//37
f 273//38 268//38 260//38 263//38
f 272//39 275//39 266//39 261//39
f 270//40 274//40 265//40 264//40
f 269//41 273//41 263//41 262//41
f 268//42 272//42 261//42 260//42
f 6//1 7//1 272//1 268//1
f 4//1 5//1 273//1 269//1
f 2//1 3//1 274//1 270//1
f 7//1 8//1 275//1 272//1
f 5//1 6//1 268//1 273//1
f 3//1 4//1 269//1 274//1
f 1//1 2//1 270//1 271//1
f 8//1 1//1 271//1 275//1
f 1//2 8//2 282//2 283//2
f 2//2 1//2 283//2 281//2
f 4//2 3//2 280//2 279//2
f 6//2 5//2 278//2 277//2
f 8//2 7//2 276//2 282//2
f 3//2 2//2 281//2 280//2
f 5//2 4//2 279//2 278//2
f 7//2 6//2 277//2 276//2
f 23//42 22//42 290//42 289//42
f 17//35 24//35 288//35 291//35
f 18//36 17//36 291//36 287//36
f 20//37 19//37 286//37 285//37
f 22//38 21//38 284//38 290//38
f 24//39 23//39 289//39 288//39
f 19//40 18//40 287//40 286//40
f 21//41 20//41 285//41 284//41
f 26//2 25//2 292//2 299//2
f 28//2 27//2 298//2 297//2
f 30//2 29//2 296//2 295//2
f 32//2 31//2 294//2 293//2
f 27//2 26//2 299//2 298//2
f 29//2 28//2 297//2 296//2
f 31//2 30//2 295//2 294//2
f 25//2 32//2 293//2 292//2
