# Blender v2.79 (sub 0) OBJ File: '890148.blend'
# www.blender.org
mtllib 890148-19-LP.mtl
o Cylinder
v 0.000000 8.047423 -0.783522
v 0.000000 9.000000 -0.783522
v 0.554033 8.047423 -0.554033
v 0.554033 9.000000 -0.554033
v 0.783522 8.047423 0.000000
v 0.783522 9.000000 0.000000
v 0.554033 8.047423 0.554033
v 0.554033 9.000000 0.554033
v -0.000000 8.047423 0.783522
v -0.000000 9.000000 0.783522
v -0.554034 8.047423 0.554033
v -0.554034 9.000000 0.554033
v -0.783522 8.047423 -0.000000
v -0.783522 9.000000 -0.000000
v -0.554034 8.047423 -0.554033
v -0.554034 9.000000 -0.554033
v 0.000000 8.047423 -1.000000
v 0.707107 8.047423 -0.707107
v 1.000000 8.047423 0.000000
v 0.707107 8.047423 0.707107
v -0.000000 8.047423 1.000000
v -0.707107 8.047423 0.707107
v -1.000000 8.047423 -0.000000
v -0.707107 8.047423 -0.707107
v 0.000000 7.729723 -0.567043
v 0.400960 7.729723 -0.400960
v 0.567043 7.729723 0.000000
v 0.400960 7.729723 0.400960
v -0.000000 7.729723 0.567043
v -0.400960 7.729723 0.400960
v -0.567043 7.729723 -0.000000
v -0.400960 7.729723 -0.400960
v 0.000000 7.729723 -0.783522
v 0.554033 7.729723 -0.554033
v 0.783522 7.729723 0.000000
v 0.554033 7.729723 0.554033
v -0.000000 7.729723 0.783522
v -0.554034 7.729723 0.554033
v -0.783522 7.729723 -0.000000
v -0.554034 7.729723 -0.554033
v 0.000000 7.729723 -0.783522
v 0.554033 7.729723 -0.554033
v 0.783522 7.729723 0.000000
v 0.554033 7.729723 0.554033
v -0.000000 7.729723 0.783521
v -0.554034 7.729723 0.554033
v -0.783522 7.729723 -0.000000
v -0.554034 7.729723 -0.554033
v 0.000000 7.476241 -3.855893
v 3.750814 6.765884 -3.026950
v 4.355893 6.765884 0.000000
v 3.750814 6.765884 3.026949
v -0.000000 7.476241 3.855893
v -3.750814 6.765884 3.026949
v -4.355893 6.765883 -0.000000
v -3.750814 6.765884 -3.026949
v 0.000000 0.940956 -3.855893
v 3.750814 1.651313 -3.026950
v 4.355893 1.651313 0.000000
v 3.750814 1.651313 3.026949
v -0.000000 0.940956 3.855893
v -3.750814 1.651313 3.026949
v -4.355893 1.651313 -0.000000
v -3.750814 1.651313 -3.026949
v 3.526649 7.476241 -3.733467
v 3.655773 7.760384 0.000000
v 3.526649 7.476241 3.733467
v 3.526649 0.940956 -3.733467
v 3.655773 0.656813 0.000000
v 3.526649 0.940956 3.733467
v 4.355893 6.765884 0.000000
v 4.355893 1.651313 0.000000
v 3.750814 6.765884 -3.026950
v 3.750814 6.765884 3.026949
v 3.750814 1.651313 -3.026950
v 3.750814 1.651313 3.026949
v 4.855893 6.765884 0.000000
v 4.855893 1.651313 0.000000
v 4.257753 6.481741 -2.827070
v 4.257753 6.481741 2.827070
v 4.257753 1.935455 -2.827070
v 4.257753 1.935456 2.827070
v -3.526649 7.476241 3.733466
v -3.655772 7.760384 -0.000000
v -3.526649 7.476241 -3.733467
v -3.526649 0.940956 3.733466
v -3.655772 0.656813 -0.000000
v -3.526649 0.940956 -3.733467
v -3.855893 1.651313 -0.000000
v -3.855893 6.765883 -0.000000
v -3.250814 6.765884 3.026949
v -3.250814 6.765884 -3.026949
v -3.250814 1.651313 3.026949
v -3.250814 1.651313 -3.026949
v 0.000000 7.760384 -3.655772
v 3.533122 7.760384 -3.533122
v -3.533122 7.760384 -3.533122
v 0.000000 0.656813 -3.655772
v 3.533122 0.656813 -3.533122
v -3.533122 0.656813 -3.533122
v 3.533122 7.760384 3.533122
v -0.000000 7.760384 3.655772
v -3.533122 7.760384 3.533121
v 3.533122 0.656813 3.533122
v -0.000000 0.656813 3.655772
v -3.533122 0.656813 3.533121
v 0.000000 7.729723 -0.567043
v 0.400960 7.729723 -0.400960
v 0.567043 7.729723 0.000000
v 0.400960 7.729723 0.400960
v -0.000000 7.729723 0.567043
v -0.400960 7.729723 0.400960
v -0.567043 7.729723 -0.000000
v -0.400960 7.729723 -0.400960
v 0.000000 7.760384 -3.855893
v 3.726528 7.760384 -3.726528
v 4.355893 7.760384 0.000000
v 3.726528 7.760384 3.726528
v -0.000000 7.760384 3.855893
v -3.726529 7.760384 3.726527
v -4.355893 7.760384 -0.000000
v -3.726529 7.760384 -3.726528
v 0.000000 0.656813 -3.855893
v 3.726528 0.656813 -3.726528
v 4.355893 0.656813 0.000000
v 3.726528 0.656813 3.726528
v -0.000000 0.656813 3.855893
v -3.726529 0.656813 3.726527
v -4.355893 0.656813 -0.000000
v -3.726529 0.656813 -3.726528
v 0.000000 0.656813 0.000000
v -4.355893 6.864429 -0.000000
v -3.748408 6.864429 -3.096271
v -3.748408 1.552767 3.096270
v -3.748408 6.864429 3.096270
v -4.355893 1.552767 -0.000000
v -3.748408 1.552767 -3.096271
v -3.371942 6.765884 -3.026949
v -3.371942 1.651313 -3.026949
v -3.371942 1.651313 3.026949
v -3.977021 6.765883 -0.000000
v -3.977021 1.651313 -0.000000
v -3.371942 6.765884 3.026949
v 4.355893 7.666914 0.000000
v 3.728811 7.666914 -3.660777
v 3.728811 7.666914 3.660777
v 3.728811 0.750282 -3.660777
v 4.355893 0.750282 0.000000
v 3.728811 0.750282 3.660777
v 3.694418 7.714736 -3.727643
v 0.000000 7.714736 -3.855893
v -3.694418 7.714736 -3.727643
v 0.000000 0.702460 -3.855893
v 3.694418 0.702460 -3.727643
v -3.694418 0.702460 -3.727643
v 4.182683 1.651313 -3.026950
v 4.787762 6.765884 0.000000
v 4.182683 6.765884 3.026949
v 4.787762 1.651313 0.000000
v 4.182683 6.765884 -3.026950
v 4.182683 1.651313 3.026949
v 4.250814 6.765884 -3.026950
v 4.855893 6.481741 0.000000
v 4.250814 6.765884 3.026949
v 4.250814 1.651313 -3.026950
v 4.855893 1.935456 0.000000
v 4.250814 1.651313 3.026949
v 4.855893 6.717524 0.000000
v 4.251995 6.717524 -2.992931
v 4.251995 6.717524 2.992931
v 4.251995 1.699673 -2.992931
v 4.855893 1.699673 0.000000
v 4.251995 1.699673 2.992931
v 4.855893 6.677394 0.000000
v 4.252975 6.677394 2.964702
v 4.252975 1.739802 -2.964702
v 4.252975 6.677394 -2.964702
v 4.855893 1.739802 0.000000
v 4.252975 1.739802 2.964702
v 0.000000 7.760384 -3.822623
v 3.694375 7.760384 -3.694375
v 3.822624 7.760384 0.000000
v 3.694375 7.760384 3.694375
v -0.000000 7.760384 3.822623
v -3.694376 7.760384 3.694374
v -3.822623 7.760384 -0.000000
v -3.694376 7.760384 -3.694375
v -0.656198 7.760384 -0.656198
v -0.882022 7.760384 -0.000000
v -0.656198 7.760384 0.656198
v -0.000000 7.760384 0.882022
v 0.656197 7.760384 0.656197
v 0.882022 7.760384 0.000000
v 0.656197 7.760384 -0.656197
v 0.000000 7.760384 -0.882022
v 0.783522 7.783389 0.000000
v 0.554033 7.783389 -0.554033
v -0.554034 7.783389 -0.554033
v -0.783522 7.783389 -0.000000
v -0.554034 7.783389 0.554033
v -0.000000 7.783389 0.783522
v 0.554033 7.783389 0.554033
v 0.000000 7.783389 -0.783522
v 0.554033 7.996111 -0.554033
v -0.783522 7.996111 -0.000000
v -0.000000 7.996111 0.783522
v 0.000000 7.996111 -0.783522
v 0.783522 7.996111 0.000000
v -0.554034 7.996111 -0.554033
v -0.554034 7.996111 0.554033
v 0.554033 7.996111 0.554033
v 0.000000 8.100046 -1.000000
v 0.707107 8.100046 -0.707107
v 1.000000 8.100046 0.000000
v 0.707107 8.100046 0.707107
v -0.000000 8.100046 1.000000
v -0.707107 8.100046 0.707107
v -1.000000 8.100046 -0.000000
v -0.707107 8.100046 -0.707107
v 0.000000 8.954870 -1.000000
v 0.707107 8.954870 -0.707107
v 1.000000 8.954870 0.000000
v 0.707107 8.954870 0.707107
v -0.000000 8.954870 1.000000
v -0.707107 8.954870 0.707107
v -1.000000 8.954870 -0.000000
v -0.707107 8.954870 -0.707107
v 0.707107 9.000000 -0.707107
v 0.000000 9.000000 -1.000000
v 1.000000 9.000000 0.000000
v 0.707107 9.000000 0.707107
v -0.000000 9.000000 1.000000
v -0.707107 9.000000 0.707107
v -1.000000 9.000000 -0.000000
v -0.707107 9.000000 -0.707107
v -0.000000 7.377631 3.855893
v 3.726528 7.653198 3.726528
v 3.726528 7.653198 -3.726528
v -3.726529 7.653198 -3.726528
v -3.726529 7.653198 3.726527
v 0.000000 7.377631 -3.855893
v 3.750814 6.688711 3.026949
v 3.750814 6.688711 -3.026950
v 3.750814 6.688711 3.026949
v 3.750814 6.688711 -3.026950
v 4.855893 6.413143 0.000000
v 4.250814 6.688711 3.026949
v 4.250814 6.688711 -3.026950
v -3.750814 6.688711 -3.026949
v -3.750814 6.688711 3.026949
v -3.855893 6.688709 -0.000000
v -3.250814 6.688711 -3.026949
v -3.250814 6.688711 3.026949
v 3.526649 7.377631 -3.733467
v -3.526649 7.377631 -3.733467
v 3.526649 7.377631 3.733467
v -3.526649 7.377631 3.733466
v -3.748408 6.784282 -3.096271
v -3.748408 6.784282 3.096270
v -3.371942 6.688711 3.026949
v -3.371942 6.688711 -3.026949
v 3.728811 7.562550 -3.660777
v 3.728811 7.562550 3.660777
v -3.694418 7.608928 -3.727643
v 3.694418 7.608928 -3.727643
v 4.182683 6.688711 3.026949
v 4.182683 6.688711 -3.026950
v 4.257753 6.413143 2.827070
v 4.257753 6.413143 -2.827070
v 4.251995 6.641809 -2.992931
v 4.251995 6.641809 2.992931
v 4.252975 6.602891 2.964702
v 4.252975 6.602891 -2.964702
v -0.000000 1.140543 3.855893
v -3.726529 0.873755 -3.726528
v -3.726529 0.873755 3.726527
v 4.855893 2.074299 0.000000
v -3.750814 1.807511 -3.026949
v -3.750814 1.807511 3.026949
v -3.250814 1.807511 -3.026949
v -3.250814 1.807511 3.026949
v -3.526649 1.140543 -3.733467
v -3.526649 1.140543 3.733466
v -3.748408 1.714985 -3.096271
v -3.371942 1.807511 3.026949
v 3.728811 0.961515 3.660777
v 3.694418 0.916615 -3.727643
v 4.182683 1.807511 -3.026950
v 4.251995 1.852918 2.992931
v 4.252975 1.890596 2.964702
v 3.726528 0.873755 3.726528
v 3.726528 0.873755 -3.726528
v 0.000000 1.140543 -3.855893
v 3.750814 1.807511 3.026949
v 3.750814 1.807511 -3.026950
v 3.750814 1.807511 3.026949
v 3.750814 1.807511 -3.026950
v 4.250814 1.807511 3.026949
v 4.250814 1.807511 -3.026950
v -3.855893 1.807511 -0.000000
v 3.526649 1.140543 -3.733467
v 3.526649 1.140543 3.733467
v -3.748408 1.714985 3.096270
v -3.371942 1.807511 -3.026949
v 3.728811 0.961515 -3.660777
v -3.694418 0.916615 -3.727643
v 4.182683 1.807511 3.026949
v 4.257753 2.074299 2.827070
v 4.257753 2.074298 -2.827070
v 4.251995 1.852917 -2.992931
v 4.252975 1.890596 -2.964702
v 3.726528 4.043256 3.726528
v 3.726528 4.043256 -3.726528
v 0.000000 4.056484 -3.855893
v 3.750814 4.089552 3.026949
v 3.750814 5.145930 -3.026950
v 3.750814 4.089552 3.026949
v 3.750814 4.089552 -3.026950
v 4.250814 4.089552 3.026949
v 4.250814 4.089552 -3.026950
v -3.855893 4.089552 -0.000000
v 3.526649 4.056484 -3.733467
v 3.526649 4.056484 3.733467
v -3.748408 4.084964 3.096270
v -3.371942 4.089552 -3.026949
v 3.728811 4.047607 -3.660777
v -3.694418 4.045381 -3.727643
v 4.182683 4.089552 3.026949
v 4.257753 4.102779 2.827070
v 4.257753 4.102779 -2.827070
v 4.251995 4.091804 -2.992931
v 4.252975 4.093672 -2.964702
v -0.000000 4.056484 3.855893
v -3.726529 4.043256 -3.726528
v -3.726529 4.043256 3.726527
v 4.855893 4.102779 0.000000
v -3.750814 4.089552 -3.026949
v -3.750814 4.089552 3.026949
v -3.250814 4.089552 -3.026949
v -3.250814 4.089552 3.026949
v -3.526649 4.056484 -3.733467
v -3.526649 4.056484 3.733466
v -3.748408 4.084965 -3.096271
v -3.371942 4.089552 3.026949
v 3.728811 4.047607 3.660777
v 3.694418 4.045381 -3.727643
v 4.182683 4.089552 -3.026950
v 4.251995 4.091804 2.992931
v 4.252975 4.093672 2.964702
v -3.729811 7.625990 3.631989
v -4.355893 0.791206 -0.000000
v -3.729811 0.791206 -3.631989
v -4.355893 7.625990 -0.000000
v -3.729811 7.625990 -3.631989
v -3.729811 0.791206 3.631989
v -3.729811 7.522861 3.631989
v -3.729811 7.522861 -3.631989
v -3.729811 0.999939 -3.631989
v -3.729811 0.999939 3.631989
v -3.729811 4.049512 3.631989
v -3.729811 4.049512 -3.631989
vn 0.3827 0.0000 -0.9239
vn 0.9239 0.0000 -0.3827
vn 0.9239 0.0000 0.3827
vn 0.3827 0.0000 0.9239
vn -0.3827 0.0000 0.9239
vn -0.9239 0.0000 0.3827
vn 0.0000 1.0000 -0.0000
vn -0.9239 0.0000 -0.3827
vn -0.3827 0.0000 -0.9239
vn 0.0000 -1.0000 0.0000
vn 0.0000 0.0000 1.0000
vn 0.0347 0.0000 0.9994
vn -0.0347 0.0000 0.9994
vn 0.0347 0.0000 -0.9994
vn -0.0347 0.0000 -0.9994
vn 0.9848 -0.0469 -0.1675
vn 0.9848 -0.0469 0.1675
vn 0.9848 0.0469 -0.1675
vn 0.9848 0.0469 0.1675
vn 0.9994 0.0000 0.0347
vn 0.9994 0.0000 -0.0347
vn 0.9783 0.0000 -0.2070
vn 0.9783 0.0000 0.2070
vn 0.0000 0.0000 -1.0000
vn -0.9994 0.0000 0.0347
vn -0.9847 -0.0471 0.1680
vn -0.9847 -0.0471 -0.1680
vn -0.9847 0.0471 0.1680
vn -0.9994 0.0000 -0.0347
vn -0.9806 0.0000 -0.1960
vn -0.9806 0.0000 0.1960
vn -0.9794 -0.0563 0.1939
vn -0.9794 -0.0563 -0.1939
vn -0.9794 0.0563 0.1939
vn -0.9794 0.0563 -0.1939
vn 0.9821 0.0517 0.1810
vn 0.9821 0.0517 -0.1810
vn 0.9821 -0.0517 0.1810
vn 0.9788 -0.0572 -0.1966
vn 0.9788 -0.0572 0.1966
vn 0.9788 0.0572 -0.1966
vn 0.9788 0.0572 0.1966
vn 0.9785 0.0578 0.1982
vn 0.9785 0.0578 -0.1982
vn 0.9785 -0.0578 0.1982
vn 0.9785 -0.0578 -0.1982
vn 0.9774 -0.0594 -0.2027
vn 0.9774 -0.0594 0.2027
vn 0.9774 0.0594 -0.2027
vn 0.9774 0.0594 0.2027
vn -0.2473 0.9644 0.0931
vn -0.0931 0.9644 -0.2473
vn 0.2473 0.9644 -0.0931
vn 0.0931 0.9644 0.2473
vn -0.0931 0.9644 0.2473
vn -0.2473 0.9644 -0.0931
vn 0.0931 0.9644 -0.2473
vn 0.2473 0.9644 0.0931
vn -0.9847 0.0471 -0.1680
vn -1.0000 0.0000 0.0000
vn 0.9821 -0.0517 -0.1810
vn -0.9823 0.0514 -0.1801
vn -0.9823 0.0514 0.1801
vn -0.9823 -0.0514 -0.1801
vn -0.9823 -0.0514 0.1801
usemtl None
s off
f 220//1 229//1 228//1 221//1
f 221//2 228//2 230//2 222//2
f 222//3 230//3 231//3 223//3
f 223//4 231//4 232//4 224//4
f 224//5 232//5 233//5 225//5
f 225//6 233//6 234//6 226//6
f 4//7 2//7 16//7 14//7
f 226//8 234//8 235//8 227//8
f 227//9 235//9 229//9 220//9
f 197//2 196//2 35//2 34//2
f 3//10 1//10 17//10 18//10
f 5//10 3//10 18//10 19//10
f 7//10 5//10 19//10 20//10
f 9//10 7//10 20//10 21//10
f 11//10 9//10 21//10 22//10
f 13//10 11//10 22//10 23//10
f 15//10 13//10 23//10 24//10
f 1//10 15//10 24//10 17//10
f 27//11 28//11 110//11 109//11
f 199//8 198//8 40//8 39//8
f 201//5 200//5 38//5 37//5
f 196//3 202//3 36//3 35//3
f 203//1 197//1 34//1 33//1
f 198//9 203//9 33//9 40//9
f 200//6 199//6 39//6 38//6
f 202//4 201//4 37//4 36//4
f 26//10 25//10 33//10 34//10
f 27//10 26//10 34//10 35//10
f 28//10 27//10 35//10 36//10
f 29//10 28//10 36//10 37//10
f 30//10 29//10 37//10 38//10
f 31//10 30//10 38//10 39//10
f 32//10 31//10 39//10 40//10
f 25//10 32//10 40//10 33//10
f 189//7 188//7 97//7 84//7
f 25//11 26//11 108//11 107//11
f 32//11 25//11 107//11 114//11
f 30//11 31//11 113//11 112//11
f 28//11 29//11 111//11 110//11
f 26//11 27//11 109//11 108//11
f 31//11 32//11 114//11 113//11
f 29//11 30//11 112//11 111//11
f 302//12 274//12 61//12 70//12
f 191//7 190//7 103//7 102//7
f 193//7 192//7 101//7 66//7
f 195//7 194//7 96//7 95//7
f 188//7 195//7 95//7 97//7
f 190//7 189//7 84//7 103//7
f 192//7 191//7 102//7 101//7
f 194//7 193//7 66//7 96//7
f 131//10 69//10 104//10 105//10
f 59//11 58//11 75//11 72//11
f 304//11 139//11 94//11 280//11
f 274//13 283//13 86//13 61//13
f 294//11 60//11 76//11 296//11
f 293//14 301//14 68//14 57//14
f 282//15 293//15 57//15 88//15
f 141//10 138//10 92//10 90//10
f 144//16 145//16 116//16 117//16
f 146//17 144//17 117//17 118//17
f 147//18 148//18 125//18 124//18
f 148//19 149//19 126//19 125//19
f 263//20 146//20 118//20 237//20
f 305//21 147//21 124//21 292//21
f 160//7 157//7 77//7 162//7
f 159//10 156//10 165//10 78//10
f 50//11 51//11 71//11 73//11
f 243//11 50//11 73//11 245//11
f 60//11 59//11 72//11 76//11
f 51//11 52//11 74//11 71//11
f 309//22 277//22 166//22 81//22
f 277//23 308//23 82//23 166//23
f 267//24 160//24 162//24 248//24
f 161//10 159//10 78//10 167//10
f 157//7 158//7 164//7 77//7
f 307//11 161//11 167//11 298//11
f 356//25 360//25 335//25 240//25
f 353//26 350//26 120//26 121//26
f 354//27 353//27 121//27 122//27
f 355//28 351//28 129//28 128//28
f 358//29 361//29 334//29 275//29
f 359//25 276//25 335//25 360//25
f 300//30 280//30 94//30 89//30
f 281//31 300//31 89//31 93//31
f 142//7 140//7 93//7 89//7
f 143//10 141//10 90//10 91//10
f 260//24 143//24 91//24 253//24
f 139//7 142//7 89//7 94//7
f 150//14 151//14 115//14 116//14
f 151//15 152//15 122//15 115//15
f 153//14 154//14 124//14 123//14
f 155//15 153//15 123//15 130//15
f 265//14 150//14 116//14 238//14
f 306//15 155//15 130//15 275//15
f 257//13 83//13 120//13 240//13
f 53//12 67//12 118//12 119//12
f 83//13 53//13 119//13 120//13
f 70//12 61//12 127//12 126//12
f 302//12 291//12 312//12 323//12
f 256//12 323//12 312//12 237//12
f 42//7 41//7 107//7 108//7
f 43//7 42//7 108//7 109//7
f 44//7 43//7 109//7 110//7
f 45//7 44//7 110//7 111//7
f 46//7 45//7 111//7 112//7
f 47//7 46//7 112//7 113//7
f 48//7 47//7 113//7 114//7
f 41//7 48//7 114//7 107//7
f 180//7 181//7 116//7 115//7
f 181//7 182//7 117//7 116//7
f 182//7 183//7 118//7 117//7
f 183//7 184//7 119//7 118//7
f 184//7 185//7 120//7 119//7
f 185//7 186//7 121//7 120//7
f 186//7 187//7 122//7 121//7
f 187//7 180//7 115//7 122//7
f 99//10 98//10 123//10 124//10
f 69//10 99//10 124//10 125//10
f 104//10 69//10 125//10 126//10
f 105//10 104//10 126//10 127//10
f 106//10 105//10 127//10 128//10
f 87//10 106//10 128//10 129//10
f 100//10 87//10 129//10 130//10
f 87//10 131//10 105//10 106//10
f 100//10 98//10 131//10 87//10
f 98//10 99//10 69//10 131//10
f 55//32 54//32 135//32 132//32
f 56//33 55//33 132//33 133//33
f 62//34 63//34 136//34 134//34
f 63//35 64//35 137//35 136//35
f 249//29 56//29 133//29 258//29
f 279//25 62//25 134//25 303//25
f 279//24 285//24 140//24 62//24
f 337//11 325//11 261//11 249//11
f 62//7 140//7 142//7 63//7
f 56//10 138//10 141//10 55//10
f 56//11 249//11 261//11 138//11
f 337//11 278//11 304//11 325//11
f 295//21 305//21 326//21 316//21
f 243//21 316//21 326//21 262//21
f 60//20 294//20 286//20 149//20
f 59//36 60//36 149//36 148//36
f 58//37 59//37 148//37 147//37
f 52//38 51//38 144//38 146//38
f 282//15 88//15 155//15 306//15
f 254//14 65//14 150//14 265//14
f 88//15 57//15 153//15 155//15
f 57//14 68//14 154//14 153//14
f 49//15 85//15 152//15 151//15
f 65//14 49//14 151//14 150//14
f 317//11 296//11 307//11 328//11
f 72//10 159//10 161//10 76//10
f 297//24 288//24 156//24 75//24
f 318//24 347//24 288//24 297//24
f 71//7 157//7 160//7 73//7
f 317//11 328//11 266//11 244//11
f 168//39 169//39 162//39 77//39
f 170//40 168//40 77//40 164//40
f 171//41 172//41 78//41 165//41
f 172//42 173//42 167//42 78//42
f 271//20 170//20 164//20 247//20
f 310//21 171//21 165//21 299//21
f 311//21 176//21 171//21 310//21
f 272//20 175//20 170//20 271//20
f 178//43 179//43 173//43 172//43
f 176//44 178//44 172//44 171//44
f 175//45 174//45 168//45 170//45
f 174//46 177//46 169//46 168//46
f 163//47 79//47 177//47 174//47
f 80//48 163//48 174//48 175//48
f 81//49 166//49 178//49 176//49
f 166//50 82//50 179//50 178//50
f 268//20 80//20 175//20 272//20
f 309//21 81//21 176//21 311//21
f 97//7 95//7 180//7 187//7
f 84//7 97//7 187//7 186//7
f 103//7 84//7 186//7 185//7
f 102//7 103//7 185//7 184//7
f 101//7 102//7 184//7 183//7
f 66//7 101//7 183//7 182//7
f 96//7 66//7 182//7 181//7
f 95//7 96//7 181//7 180//7
f 42//51 43//51 193//51 194//51
f 44//52 45//52 191//52 192//52
f 46//53 47//53 189//53 190//53
f 48//54 41//54 195//54 188//54
f 41//55 42//55 194//55 195//55
f 43//56 44//56 192//56 193//56
f 45//57 46//57 190//57 191//57
f 47//58 48//58 188//58 189//58
f 211//4 206//4 201//4 202//4
f 210//6 205//6 199//6 200//6
f 209//9 207//9 203//9 198//9
f 207//1 204//1 197//1 203//1
f 208//3 211//3 202//3 196//3
f 206//5 210//5 200//5 201//5
f 205//8 209//8 198//8 199//8
f 204//2 208//2 196//2 197//2
f 3//2 5//2 208//2 204//2
f 13//8 15//8 209//8 205//8
f 9//5 11//5 210//5 206//5
f 5//3 7//3 211//3 208//3
f 1//1 3//1 204//1 207//1
f 15//9 1//9 207//9 209//9
f 11//6 13//6 205//6 210//6
f 7//4 9//4 206//4 211//4
f 24//9 219//9 212//9 17//9
f 23//8 218//8 219//8 24//8
f 22//6 217//6 218//6 23//6
f 21//5 216//5 217//5 22//5
f 20//4 215//4 216//4 21//4
f 19//3 214//3 215//3 20//3
f 18//2 213//2 214//2 19//2
f 17//1 212//1 213//1 18//1
f 219//9 227//9 220//9 212//9
f 218//8 226//8 227//8 219//8
f 217//6 225//6 226//6 218//6
f 216//5 224//5 225//5 217//5
f 215//4 223//4 224//4 216//4
f 214//3 222//3 223//3 215//3
f 213//2 221//2 222//2 214//2
f 212//1 220//1 221//1 213//1
f 2//7 4//7 228//7 229//7
f 4//7 6//7 230//7 228//7
f 6//7 8//7 231//7 230//7
f 8//7 10//7 232//7 231//7
f 10//7 12//7 233//7 232//7
f 12//7 14//7 234//7 233//7
f 14//7 16//7 235//7 234//7
f 16//7 2//7 229//7 235//7
f 6//7 4//7 14//7 12//7
f 8//7 6//7 12//7 10//7
f 79//21 269//21 273//21 177//21
f 329//20 268//20 272//20 349//20
f 349//20 272//20 271//20 348//20
f 177//21 273//21 270//21 169//21
f 169//21 270//21 248//21 162//21
f 348//20 271//20 247//20 319//20
f 74//7 158//7 157//7 71//7
f 242//20 52//20 146//20 263//20
f 322//14 254//14 265//14 346//14
f 85//15 255//15 264//15 152//15
f 61//13 86//13 128//13 127//13
f 54//24 143//24 260//24 250//24
f 54//25 250//25 259//25 135//25
f 337//29 249//29 258//29 343//29
f 352//29 358//29 275//29 130//29
f 152//15 264//15 239//15 122//15
f 346//14 265//14 238//14 313//14
f 344//24 260//24 253//24 340//24
f 91//31 90//31 251//31 253//31
f 90//30 92//30 252//30 251//30
f 158//11 266//11 247//11 164//11
f 347//24 267//24 248//24 320//24
f 163//23 80//23 268//23 246//23
f 79//22 163//22 246//22 269//22
f 316//11 243//11 245//11 318//11
f 145//21 262//21 238//21 116//21
f 345//20 263//20 237//20 312//20
f 85//15 49//15 241//15 255//15
f 49//14 65//14 254//14 241//14
f 52//11 242//11 244//11 74//11
f 53//13 83//13 257//13 236//13
f 138//11 261//11 252//11 92//11
f 67//12 53//12 236//12 256//12
f 149//20 286//20 291//20 126//20
f 58//11 295//11 297//11 75//11
f 156//24 288//24 299//24 165//24
f 351//59 352//59 130//59 129//59
f 140//24 285//24 281//24 93//24
f 154//14 287//14 292//14 124//14
f 256//12 237//12 118//12 67//12
f 64//29 278//29 284//29 137//29
f 55//10 141//10 143//10 54//10
f 243//21 262//21 145//21 50//21
f 68//14 301//14 287//14 154//14
f 75//10 156//10 159//10 72//10
f 173//20 289//20 298//20 167//20
f 179//20 290//20 289//20 173//20
f 82//20 308//20 290//20 179//20
f 330//21 309//21 311//21 332//21
f 332//21 311//21 310//21 331//21
f 331//21 310//21 299//21 320//21
f 318//24 245//24 267//24 347//24
f 242//20 263//20 345//20 315//20
f 341//15 282//15 306//15 327//15
f 257//13 240//13 335//13 342//13
f 338//24 250//24 260//24 344//24
f 338//25 279//25 303//25 324//25
f 357//29 239//29 334//29 361//29
f 327//15 306//15 275//15 334//15
f 340//31 321//31 300//31 281//31
f 321//30 339//30 280//30 300//30
f 328//11 307//11 298//11 319//11
f 336//23 329//23 308//23 277//23
f 330//22 336//22 277//22 309//22
f 326//21 305//21 292//21 313//21
f 341//15 314//15 293//15 282//15
f 314//14 322//14 301//14 293//14
f 315//11 294//11 296//11 317//11
f 333//13 342//13 283//13 274//13
f 325//11 304//11 280//11 339//11
f 323//12 333//12 274//12 302//12
f 256//12 236//12 333//12 323//12
f 261//11 325//11 339//11 252//11
f 236//13 257//13 342//13 333//13
f 242//11 315//11 317//11 244//11
f 241//14 254//14 322//14 314//14
f 255//15 241//15 314//15 341//15
f 262//21 326//21 313//21 238//21
f 269//22 246//22 336//22 330//22
f 246//23 268//23 329//23 336//23
f 266//11 328//11 319//11 247//11
f 357//29 354//29 122//29 239//29
f 251//30 252//30 339//30 321//30
f 253//31 251//31 321//31 340//31
f 264//15 327//15 334//15 239//15
f 283//13 342//13 335//13 276//13
f 250//25 338//25 324//25 259//25
f 338//24 344//24 285//24 279//24
f 294//20 315//20 345//20 286//20
f 255//15 341//15 327//15 264//15
f 73//24 160//24 267//24 245//24
f 270//21 331//21 320//21 248//21
f 273//21 332//21 331//21 270//21
f 269//21 330//21 332//21 273//21
f 286//20 345//20 312//20 291//20
f 295//60 316//60 318//60 297//60
f 288//24 347//24 320//24 299//24
f 359//25 355//25 128//25 276//25
f 285//24 344//24 340//24 281//24
f 287//14 346//14 313//14 292//14
f 302//12 70//12 126//12 291//12
f 278//29 337//29 343//29 284//29
f 64//11 139//11 304//11 278//11
f 295//21 58//21 147//21 305//21
f 301//14 322//14 346//14 287//14
f 76//11 161//11 307//11 296//11
f 289//20 348//20 319//20 298//20
f 290//20 349//20 348//20 289//20
f 308//20 329//20 349//20 290//20
f 51//61 50//61 145//61 144//61
f 74//11 244//11 266//11 158//11
f 356//25 240//25 120//25 350//25
f 63//7 142//7 139//7 64//7
f 98//10 100//10 130//10 123//10
f 86//13 283//13 276//13 128//13
f 259//25 356//25 350//25 135//25
f 303//25 134//25 355//25 359//25
f 258//29 133//29 354//29 357//29
f 258//29 357//29 361//29 343//29
f 136//62 137//62 352//62 351//62
f 137//29 284//29 358//29 352//29
f 303//25 359//25 360//25 324//25
f 284//29 343//29 361//29 358//29
f 134//63 136//63 351//63 355//63
f 133//64 132//64 353//64 354//64
f 132//65 135//65 350//65 353//65
f 259//25 324//25 360//25 356//25
