# 3ds Max Wavefront OBJ Exporter v0.97b - (c)2007 guruware
# File Created: 18.10.2018 12:46:04

mtllib 891611-35-LP.mtl

#
# object Box001
#

#
# object Cylinder001
#

v  11.5341 20.4743 1.3607
v  11.5341 20.4743 8.3269
v  11.5341 7.2710 8.3269
v  11.5341 7.2710 1.3607
v  7.5679 24.4354 -3.6054
v  13.5341 24.4354 -3.6054
v  13.5341 20.4743 -3.6054
v  7.5679 20.4743 -3.6054
v  -4.3645 24.4354 -3.6054
v  1.6017 24.4354 -3.6054
v  1.6017 20.4743 -3.6054
v  -4.3645 20.4743 -3.6054
v  -10.3306 20.4743 1.3607
v  -10.3306 20.4743 -3.6054
v  -10.3306 7.2710 -3.6054
v  -10.3306 7.2710 1.3607
v  -8.3306 20.4743 15.2931
v  -8.3306 20.4743 8.3269
v  -8.3306 7.2710 8.3269
v  -8.3306 7.2710 15.2931
v  -4.3645 24.4354 20.2592
v  -10.3306 24.4354 20.2592
v  -10.3306 20.4743 20.2592
v  -4.3645 20.4743 20.2592
v  7.5679 24.4354 20.2592
v  1.6017 24.4354 20.2592
v  1.6017 20.4743 20.2592
v  7.5679 20.4743 20.2592
v  13.5341 20.4743 15.3931
v  13.5340 20.4743 20.2592
v  13.5340 7.2710 20.2592
v  13.5341 7.2710 15.3931
v  13.5341 24.4354 8.3269
v  13.5341 24.4354 2.3607
v  4.3704 24.4354 7.0485
v  4.9000 24.4354 8.3269
v  2.8610 24.4354 5.5503
v  3.9339 24.4354 5.9947
v  0.3085 24.4354 5.5643
v  1.6017 24.4354 5.0287
v  -10.3306 24.4354 2.3607
v  -1.1750 24.4354 7.0679
v  -0.7305 24.4354 5.9947
v  -10.3306 24.4354 -3.6054
v  -10.3306 24.4354 8.3269
v  -10.3306 24.4354 14.2931
v  -1.2167 24.4354 9.4854
v  -1.6965 24.4354 8.3269
v  0.3501 24.4354 11.1067
v  -0.7305 24.4354 10.6591
v  2.8635 24.4354 11.1025
v  1.6017 24.4354 11.6252
v  13.5341 24.4354 14.2931
v  4.3736 24.4354 9.5977
v  3.9339 24.4354 10.6591
v  13.5340 24.4354 20.2592
v  4.3630 26.4354 7.1659
v  4.8439 26.4354 8.3269
v  2.7692 26.4354 5.5683
v  3.8943 26.4354 6.0343
v  0.5190 26.4354 5.5332
v  1.6017 26.4354 5.0847
v  -1.1768 26.4354 7.2074
v  -0.6909 26.4354 6.0343
v  -1.2042 26.4354 9.3802
v  -1.6405 26.4354 8.3269
v  0.3509 26.4354 11.0510
v  -0.6908 26.4354 10.6195
v  2.6839 26.4354 11.1208
v  1.6017 26.4354 11.5691
v  4.3821 26.4354 9.4417
v  3.8943 26.4354 10.6195
v  13.5341 3.3099 2.3607
v  6.5497 3.3099 5.8688
v  5.8204 3.3099 4.1082
v  13.5341 3.3099 -3.6054
v  1.6017 3.3099 -3.6054
v  7.5679 3.3099 -3.6054
v  3.7083 3.3099 3.2333
v  1.6017 3.3099 2.3607
v  -4.3645 3.3099 -3.6054
v  -0.1414 3.3099 3.0828
v  -2.6170 3.3099 4.1082
v  -10.3306 3.3099 -3.6054
v  -10.3306 3.3099 8.3269
v  -10.3306 3.3099 2.3607
v  -3.4916 3.3099 6.2197
v  -4.3645 3.3099 8.3269
v  -10.3306 3.3099 14.2931
v  -3.3995 3.3099 10.6564
v  -2.6170 3.3099 12.5456
v  -10.3306 3.3099 20.2592
v  1.6017 3.3099 20.2592
v  -4.3645 3.3099 20.2592
v  -0.8085 3.3099 13.2947
v  1.6017 3.3099 14.2931
v  7.5679 3.3099 20.2592
v  3.8116 3.3099 13.3777
v  5.8204 3.3099 12.5456
v  13.5340 3.3099 20.2592
v  13.5341 3.3099 8.3269
v  13.5341 3.3099 14.2931
v  6.6998 3.3099 10.4227
v  7.5679 3.3099 8.3269
v  1.6017 3.3099 8.3269
v  3.7600 26.4354 7.5020
v  4.1017 26.4354 8.3269
v  2.4766 26.4354 6.1893
v  3.3695 26.4354 6.5591
v  0.7300 26.4354 6.1880
v  1.6017 26.4354 5.8269
v  -0.5494 26.4354 7.4846
v  -0.1661 26.4354 6.5591
v  -0.5812 26.4354 9.0923
v  -0.8983 26.4354 8.3269
v  0.7055 26.4354 10.4557
v  -0.1661 26.4354 10.0947
v  2.4509 26.4354 10.4752
v  1.6017 26.4354 10.8269
v  3.7351 26.4354 9.2119
v  3.3695 26.4354 10.0947
v  1.6017 30.4354 8.3269
v  4.1017 30.4354 8.3269
v  3.7966 30.4354 7.5903
v  3.3695 30.4354 6.5591
v  2.4333 30.4354 6.1714
v  1.6017 30.4354 5.8269
v  0.8874 30.4354 6.1228
v  -0.1661 30.4354 6.5591
v  -0.5267 30.4354 7.4297
v  -0.8983 30.4354 8.3269
v  -0.5726 30.4354 9.1131
v  -0.1661 30.4354 10.0947
v  0.6702 30.4354 10.4410
v  1.6017 30.4354 10.8269
v  2.3377 30.4354 10.5221
v  3.3695 30.4354 10.0947
v  3.7184 30.4354 9.2524
v  14.8341 7.2710 15.3931
v  14.8341 3.3099 14.2931
v  14.8341 3.3099 8.3269
v  14.8341 7.2710 8.3269
v  13.5341 20.4743 1.3607
v  13.5341 7.2710 1.3607
v  13.5341 7.2710 -3.6054
v  -11.6306 3.3099 8.3269
v  -11.6306 7.2710 8.3269
v  -11.6306 7.2710 1.3607
v  -11.6306 3.3099 2.3607
v  -10.3306 20.4743 15.2931
v  -10.3306 7.2710 15.2931
v  -10.3306 7.2710 20.2592
v  14.8341 24.4354 -3.6054
v  14.8341 24.4354 2.3607
v  14.8341 20.4743 1.3607
v  14.8341 20.4743 -3.6054
v  14.8341 3.3099 2.3607
v  14.8341 3.3099 -3.6054
v  14.8341 7.2710 -3.6054
v  14.8341 7.2710 1.3607
v  14.8341 24.4354 14.2931
v  14.8341 24.4354 20.2592
v  14.8341 20.4743 20.2592
v  14.8341 20.4743 15.3931
v  14.8341 3.3099 20.2592
v  14.8341 7.2710 20.2592
v  14.8341 20.4743 8.3269
v  14.8341 24.4354 8.3269
v  11.5341 20.4743 15.3931
v  11.5341 7.2710 15.3931
v  -11.6306 24.4354 2.3607
v  -11.6306 24.4354 -3.6054
v  -11.6306 20.4743 -3.6054
v  -11.6306 20.4743 1.3607
v  -11.6306 3.3099 -3.6054
v  -11.6306 7.2710 -3.6054
v  -11.6306 24.4354 20.2592
v  -11.6306 24.4354 14.2931
v  -11.6306 20.4743 15.2931
v  -11.6306 20.4743 20.2592
v  -11.6306 3.3099 14.2931
v  -11.6306 3.3099 20.2592
v  -11.6306 7.2710 20.2592
v  -11.6306 7.2710 15.2931
v  -11.6306 24.4354 8.3269
v  -11.6306 20.4743 8.3269
v  -8.3306 20.4743 1.3607
v  -8.3306 7.2710 1.3607
v  13.5341 20.4743 8.3269
v  13.5341 7.2710 8.3269
v  -10.3306 7.2710 8.3269
v  -10.3306 20.4743 8.3269
v  13.8341 3.3099 2.3607
v  13.8341 3.3099 8.3269
v  13.8341 3.3099 -3.6054
v  13.8341 7.2710 -3.6054
v  13.8341 7.2710 1.3607
v  13.8341 7.2710 8.3269
v  13.8341 7.2710 15.3931
v  13.8341 7.2710 20.2592
v  13.8341 3.3099 20.2592
v  13.8341 3.3099 14.2931
v  13.8341 24.4354 2.3607
v  13.8341 24.4354 -3.6054
v  13.8341 24.4354 8.3269
v  13.8341 24.4354 14.2931
v  13.8341 24.4354 20.2592
v  13.8341 20.4743 20.2592
v  13.8341 20.4743 15.3931
v  13.8341 20.4743 8.3269
v  13.8341 20.4743 1.3607
v  13.8341 20.4743 -3.6054
v  -10.6306 3.3099 -3.6054
v  -10.6306 7.2710 -3.6054
v  -10.6306 3.3099 2.3607
v  -10.6306 3.3099 8.3269
v  -10.6306 3.3099 14.2931
v  -10.6306 3.3099 20.2592
v  -10.6306 7.2710 20.2592
v  -10.6306 7.2710 15.2931
v  -10.6306 7.2710 8.3269
v  -10.6306 7.2710 1.3607
v  -10.6306 24.4354 2.3607
v  -10.6306 24.4354 8.3269
v  -10.6306 24.4354 -3.6054
v  -10.6306 20.4743 -3.6054
v  -10.6306 20.4743 1.3607
v  -10.6306 20.4743 8.3269
v  -10.6306 20.4743 15.2931
v  -10.6306 20.4743 20.2592
v  -10.6306 24.4354 20.2592
v  -10.6306 24.4354 14.2931
v  7.5679 7.2710 -3.6054
v  1.6017 7.2710 -3.6054
v  -4.3645 7.2710 -3.6054
v  -4.3645 7.2710 20.2592
v  1.6017 7.2710 20.2592
v  7.5679 7.2710 20.2592
# 238 vertices

vn 1.0000 0.0000 -0.0000
vn 0.0000 0.7071 -0.7071
vn 0.4472 0.0000 -0.8944
vn 0.0000 0.0000 -1.0000
vn -0.0000 0.7071 -0.7071
vn -0.0000 0.0000 -1.0000
vn -1.0000 0.0000 -0.0000
vn -0.4472 0.0000 -0.8944
vn -0.4472 -0.0000 -0.8944
vn 0.0000 0.7071 0.7071
vn 0.0000 0.0000 1.0000
vn -0.0000 0.7071 0.7071
vn -0.0000 0.0000 1.0000
vn 1.0000 0.0000 0.0000
vn 0.4472 0.0000 0.8944
vn 0.4472 -0.0000 0.8944
vn 0.0000 1.0000 -0.0000
vn 0.6448 0.7162 -0.2671
vn 0.5838 0.8119 0.0000
vn 0.2671 0.7162 -0.6448
vn 0.4128 0.8119 -0.4128
vn -0.2671 0.7162 -0.6448
vn -0.0000 0.8119 -0.5838
vn -0.6448 0.7162 -0.2671
vn -0.4128 0.8119 -0.4128
vn -0.6448 0.7162 0.2671
vn -0.5838 0.8119 0.0000
vn -0.2671 0.7162 0.6448
vn -0.4128 0.8119 0.4128
vn 0.2671 0.7162 0.6448
vn 0.0000 0.8119 0.5838
vn 0.6448 0.7162 0.2671
vn 0.4128 0.8119 0.4128
vn 0.9236 0.0259 -0.3826
vn 0.9996 0.0280 -0.0000
vn 0.3826 0.0259 -0.9236
vn 0.7068 0.0280 -0.7068
vn -0.3826 0.0259 -0.9236
vn -0.0000 0.0280 -0.9996
vn -0.9236 0.0259 -0.3826
vn -0.7068 0.0280 -0.7068
vn -0.9236 0.0259 0.3826
vn -0.9996 0.0280 0.0000
vn -0.3826 0.0259 0.9236
vn -0.7068 0.0280 0.7068
vn 0.3826 0.0259 0.9236
vn 0.0000 0.0280 0.9996
vn 0.9236 0.0259 0.3826
vn 0.7068 0.0280 0.7068
vn 0.0000 -1.0000 -0.0000
vn 0.9239 0.0000 -0.3827
vn 0.3827 -0.0000 -0.9239
vn -0.3827 0.0000 -0.9239
vn -0.9239 -0.0000 -0.3827
vn -0.9239 -0.0000 0.3827
vn -0.3827 0.0000 0.9239
vn 0.3827 -0.0000 0.9239
vn 0.9239 0.0000 0.3827
vn 1.0000 -0.0000 0.0000
vn -0.7071 -0.0000 0.7071
vn -1.0000 -0.0000 0.0000
vn -1.0000 0.0000 0.0000
vn 0.0000 1.0000 0.0000
vn 0.0000 -0.0000 -1.0000
vn -0.0000 -0.0000 -1.0000
vn 0.0000 -0.0000 1.0000
vn -0.0000 -0.0000 1.0000
vn -0.3162 0.0000 0.9487
vn -0.3162 -0.0000 0.9487
# 69 vertex normals

vt 25.5254 13.0000 1.0000
vt 23.5619 13.0000 1.0000
vt 23.5619 3.0000 1.0000
vt 25.5254 3.0000 1.0000
vt 29.4524 16.0000 1.0000
vt 27.4889 16.0000 1.0000
vt 27.4889 13.0000 1.0000
vt 29.4524 13.0000 1.0000
vt 1.9635 16.0000 1.0000
vt 0.0000 16.0000 1.0000
vt 0.0000 13.0000 1.0000
vt 1.9635 13.0000 1.0000
vt 5.8905 13.0000 1.0000
vt 3.9270 13.0000 1.0000
vt 3.9270 3.0000 1.0000
vt 5.8905 3.0000 1.0000
vt 9.8175 13.0000 1.0000
vt 7.8540 13.0000 1.0000
vt 7.8540 3.0000 1.0000
vt 9.8175 3.0000 1.0000
vt 13.7445 16.0000 1.0000
vt 11.7810 16.0000 1.0000
vt 11.7810 13.0000 1.0000
vt 13.7445 13.0000 1.0000
vt 17.6715 16.0000 1.0000
vt 15.7080 16.0000 1.0000
vt 15.7080 13.0000 1.0000
vt 17.6715 13.0000 1.0000
vt 21.5984 13.0000 1.0000
vt 19.6350 13.0000 1.0000
vt 19.6350 3.0000 1.0000
vt 21.5984 3.0000 1.0000
vt 23.5619 16.0000 1.0000
vt 25.5254 16.0000 1.0000
vt 25.7145 18.0000 1.0000
vt 23.5619 18.0000 1.0000
vt 29.2956 18.0000 1.0000
vt 27.4889 18.0000 1.0000
vt 2.1775 18.0000 1.0000
vt 0.0000 18.0000 1.0000
vt 5.8905 16.0000 1.0000
vt 5.7341 18.0000 1.0000
vt 3.9270 18.0000 1.0000
vt 3.9270 16.0000 1.0000
vt 7.8540 16.0000 1.0000
vt 9.8175 16.0000 1.0000
vt 9.8047 18.0000 1.0000
vt 7.8540 18.0000 1.0000
vt 13.6006 18.0000 1.0000
vt 11.7810 18.0000 1.0000
vt 17.8326 18.0000 1.0000
vt 15.7080 18.0000 1.0000
vt 21.5984 16.0000 1.0000
vt 21.4222 18.0000 1.0000
vt 19.6350 18.0000 1.0000
vt 19.6350 16.0000 1.0000
vt 25.5507 20.0000 1.0000
vt 23.5619 20.0000 1.0000
vt 29.4161 20.0000 1.0000
vt 27.4889 20.0000 1.0000
vt 1.8547 20.0000 1.0000
vt 0.0000 20.0000 1.0000
vt 5.9364 20.0000 1.0000
vt 3.9270 20.0000 1.0000
vt 9.6583 20.0000 1.0000
vt 7.8540 20.0000 1.0000
vt 13.5654 20.0000 1.0000
vt 11.7810 20.0000 1.0000
vt 17.5617 20.0000 1.0000
vt 15.7080 20.0000 1.0000
vt 21.6524 20.0000 1.0000
vt 19.6350 20.0000 1.0000
vt 25.5254 0.0000 1.0000
vt 25.8501 0.0000 0.5000
vt 27.4889 0.0000 0.5000
vt 27.4889 0.0000 1.0000
vt 0.0000 0.0000 1.0000
vt -1.9635 0.0000 1.0000
vt -1.9609 0.0000 0.5000
vt 0.0000 0.0000 0.5000
vt 1.9635 0.0000 1.0000
vt 1.6226 0.0000 0.5000
vt 3.9270 0.0000 0.5000
vt 3.9270 0.0000 1.0000
vt 7.8540 0.0000 1.0000
vt 5.8905 0.0000 1.0000
vt 5.8925 0.0000 0.5000
vt 7.8540 0.0000 0.5000
vt 9.8175 0.0000 1.0000
vt 10.0224 0.0000 0.5000
vt 11.7810 0.0000 0.5000
vt 11.7810 0.0000 1.0000
vt 15.7080 0.0000 1.0000
vt 13.7445 0.0000 1.0000
vt 13.4644 0.0000 0.5000
vt 15.7080 0.0000 0.5000
vt 17.6715 0.0000 1.0000
vt 17.7650 0.0000 0.5000
vt 19.6350 0.0000 0.5000
vt 19.6350 0.0000 1.0000
vt 23.5619 0.0000 1.0000
vt 21.5984 0.0000 1.0000
vt 21.6111 0.0000 0.5000
vt 23.5619 0.0000 0.5000
vt 15.7080 0.0000 0.0000
vt -17.6893 0.0000 0.5000
vt -3.9270 0.0000 0.5000
vt -15.7080 0.0000 0.0000
vt -31.4159 0.0000 0.5000
vt 25.3945 20.0000 0.5000
vt 23.5619 20.0000 0.5000
vt 29.4725 20.0000 0.5000
vt 27.4889 20.0000 0.5000
vt 1.9365 20.0000 0.5000
vt 0.0000 20.0000 0.5000
vt 5.9828 20.0000 0.5000
vt 3.9270 20.0000 0.5000
vt 9.5543 20.0000 0.5000
vt 7.8540 20.0000 0.5000
vt 13.7171 20.0000 0.5000
vt 11.7810 20.0000 0.5000
vt 17.5943 20.0000 0.5000
vt 15.7080 20.0000 0.5000
vt 21.5959 20.0000 0.5000
vt 19.6350 20.0000 0.5000
vt 15.7080 20.0000 0.0000
vt 25.1983 20.0000 0.5000
vt 29.5687 20.0000 0.5000
vt 31.4159 20.0000 0.5000
vt 1.5869 20.0000 0.5000
vt 5.8609 20.0000 0.5000
vt 9.6005 20.0000 0.5000
vt 13.6386 20.0000 0.5000
vt 17.3429 20.0000 0.5000
vt 21.5060 20.0000 0.5000
vt 27.4889 3.0000 1.0000
vt 11.7810 3.0000 1.0000
vt 31.4159 16.0000 1.0000
vt 31.4159 13.0000 1.0000
vt 31.4159 18.0000 1.0000
vt 31.4159 20.0000 1.0000
vt 29.4524 3.0000 1.0000
vt 31.4159 3.0000 1.0000
vt 0.0000 3.0000 1.0000
vt 1.9635 3.0000 1.0000
vt 29.4524 0.0000 1.0000
vt 31.4159 0.0000 1.0000
vt 13.7445 3.0000 1.0000
vt 15.7080 3.0000 1.0000
vt 17.6715 3.0000 1.0000
vt -3.9270 0.0000 1.0000
# 151 texture coords

g Cylinder001
usemtl wire_088144225
s 8
f 1/1/1 2/2/1 3/3/1 4/4/1 
f 5/5/2 6/6/2 7/7/3 8/8/4 
f 9/9/5 10/10/2 11/11/4 12/12/6 
f 13/13/7 14/14/8 15/15/9 16/16/7 
f 17/17/7 18/18/7 19/19/7 20/20/7 
f 21/21/10 22/22/10 23/23/11 24/24/11 
f 25/25/12 26/26/10 27/27/11 28/28/13 
f 29/29/14 30/30/15 31/31/16 32/32/14 
f 33/33/17 34/34/17 35/35/18 36/36/19 
f 5/5/2 37/37/20 38/38/21 6/6/2 
f 10/10/2 9/9/5 39/39/22 40/40/23 
f 41/41/17 42/42/24 43/43/25 44/44/5 
f 45/45/17 46/46/17 47/47/26 48/48/27 
f 21/21/10 49/49/28 50/50/29 22/22/10 
f 26/26/10 25/25/12 51/51/30 52/52/31 
f 53/53/17 54/54/32 55/55/33 56/56/12 
f 36/36/19 35/35/18 57/57/34 58/58/35 
f 37/37/20 59/59/36 60/60/37 38/38/21 
f 40/40/23 39/39/22 61/61/38 62/62/39 
f 42/42/24 63/63/40 64/64/41 43/43/25 
f 48/48/27 47/47/26 65/65/42 66/66/43 
f 49/49/28 67/67/44 68/68/45 50/50/29 
f 52/52/31 51/51/30 69/69/46 70/70/47 
f 54/54/32 71/71/48 72/72/49 55/55/33 
s 1
f 73/73/50 74/74/50 75/75/50 76/76/50 
f 77/77/50 78/78/50 79/79/50 80/80/50 
f 81/81/50 82/82/50 83/83/50 84/84/50 
f 85/85/50 86/86/50 87/87/50 88/88/50 
f 89/89/50 90/90/50 91/91/50 92/92/50 
f 93/93/50 94/94/50 95/95/50 96/96/50 
f 97/97/50 98/98/50 99/99/50 100/100/50 
f 101/101/50 102/102/50 103/103/50 104/104/50 
f 74/74/50 104/104/50 105/105/50 75/75/50 
f 79/106/50 75/107/50 105/108/50 80/109/50 
f 82/82/50 80/80/50 105/105/50 83/83/50 
f 87/87/50 83/83/50 105/105/50 88/88/50 
f 90/90/50 88/88/50 105/105/50 91/91/50 
f 95/95/50 91/91/50 105/105/50 96/96/50 
f 98/98/50 96/96/50 105/105/50 99/99/50 
f 103/103/50 99/99/50 105/105/50 104/104/50 
f 57/57/17 106/110/17 107/111/17 58/58/17 
f 59/59/17 108/112/17 109/113/17 60/60/17 
f 61/61/17 110/114/17 111/115/17 62/62/17 
f 63/63/17 112/116/17 113/117/17 64/64/17 
f 65/65/17 114/118/17 115/119/17 66/66/17 
f 67/67/17 116/120/17 117/121/17 68/68/17 
f 69/69/17 118/122/17 119/123/17 70/70/17 
f 71/71/17 120/124/17 121/125/17 72/72/17 
f 122/126/17 123/111/17 124/127/17 125/113/17 
f 122/126/17 125/113/17 126/128/17 127/129/17 
f 122/126/17 127/115/17 128/130/17 129/117/17 
f 122/126/17 129/117/17 130/131/17 131/119/17 
f 122/126/17 131/119/17 132/132/17 133/121/17 
f 122/126/17 133/121/17 134/133/17 135/123/17 
f 122/126/17 135/123/17 136/134/17 137/125/17 
f 122/126/17 137/125/17 138/135/17 123/111/17 
s off
f 106/110/51 124/127/51 123/111/51 107/111/51 
f 108/112/52 126/128/52 125/113/52 109/113/52 
f 111/115/53 110/114/53 128/130/53 127/115/53 
f 112/116/54 130/131/54 129/117/54 113/117/54 
f 114/118/55 132/132/55 131/119/55 115/119/55 
f 116/120/56 134/133/56 133/121/56 117/121/56 
f 119/123/57 118/122/57 136/134/57 135/123/57 
f 120/124/58 138/135/58 137/125/58 121/125/58 
s 8
f 139/32/59 140/102/59 141/101/1 142/3/1 
f 7/7/3 143/1/1 144/4/1 145/136/3 
f 146/85/7 147/19/7 148/16/7 149/86/7 
f 23/23/60 150/17/7 151/20/61 152/137/60 
f 153/6/1 154/34/1 155/1/1 156/7/1 
f 157/73/1 158/76/1 159/136/1 160/4/1 
f 161/53/14 162/56/14 163/30/14 164/29/14 
f 165/100/59 140/102/59 139/32/59 166/31/14 
f 167/2/1 168/33/1 161/53/14 164/29/14 
f 154/34/1 168/33/1 167/2/1 155/1/1 
f 142/3/1 141/101/1 157/73/1 160/4/1 
f 2/2/1 169/29/1 170/32/1 3/3/1 
f 44/44/5 9/9/5 12/12/6 14/14/8 
f 10/138/2 5/5/2 8/8/4 11/139/4 
f 171/41/7 172/44/7 173/14/7 174/13/7 
f 175/84/7 149/86/7 148/16/7 176/15/7 
f 177/22/7 178/46/7 179/17/7 180/23/7 
f 181/89/61 182/92/62 183/137/61 184/20/61 
f 178/46/7 185/45/7 186/18/7 179/17/7 
f 147/19/7 146/85/7 181/89/61 184/20/61 
f 185/45/7 171/41/7 174/13/7 186/18/7 
f 18/18/7 187/13/7 188/16/7 19/19/7 
s off
f 144/4/11 143/1/11 1/1/11 4/4/11 
f 143/1/50 189/2/50 2/2/50 1/1/50 
f 189/2/50 29/29/50 169/29/50 2/2/50 
f 29/29/4 32/32/4 170/32/4 169/29/4 
f 32/32/17 190/3/17 3/3/17 170/32/17 
f 190/3/63 144/4/63 4/4/63 3/3/63 
f 13/13/11 16/16/11 188/16/11 187/13/11 
f 16/16/17 191/19/17 19/19/17 188/16/17 
f 191/19/17 151/20/17 20/20/17 19/19/17 
f 151/20/4 150/17/4 17/17/4 20/20/4 
f 150/17/50 192/18/50 18/18/50 17/17/50 
f 192/18/50 13/13/50 187/13/50 18/18/50 
f 101/101/50 73/73/50 193/73/50 194/101/50 
f 73/73/50 76/76/50 195/76/50 193/73/50 
f 76/76/4 145/136/4 196/136/4 195/76/4 
f 145/136/17 144/4/17 197/4/17 196/136/17 
f 144/4/63 190/3/63 198/3/63 197/4/63 
f 190/3/17 32/32/17 199/32/17 198/3/17 
f 32/32/17 31/31/17 200/31/17 199/32/17 
f 31/31/11 100/100/11 201/100/11 200/31/11 
f 100/100/50 102/102/50 202/102/50 201/100/50 
f 102/102/50 101/101/50 194/101/50 202/102/50 
f 6/6/17 34/34/17 203/34/17 204/6/17 
f 34/34/17 33/33/17 205/33/17 203/34/17 
f 33/33/17 53/53/17 206/53/17 205/33/17 
f 53/53/17 56/56/17 207/56/17 206/53/17 
f 56/56/11 30/30/11 208/30/11 207/56/11 
f 30/30/50 29/29/50 209/29/50 208/30/50 
f 29/29/50 189/2/50 210/2/50 209/29/50 
f 189/2/50 143/1/50 211/1/50 210/2/50 
f 143/1/50 7/7/50 212/7/50 211/1/50 
f 7/7/4 6/6/4 204/6/4 212/7/4 
f 15/15/4 84/84/4 213/84/4 214/15/4 
f 84/84/50 86/86/50 215/86/50 213/84/50 
f 86/86/50 85/85/50 216/85/50 215/86/50 
f 85/85/50 89/89/50 217/89/50 216/85/50 
f 89/89/50 92/92/50 218/92/50 217/89/50 
f 92/92/11 152/137/11 219/137/11 218/92/11 
f 152/137/17 151/20/17 220/20/17 219/137/17 
f 151/20/17 191/19/17 221/19/17 220/20/17 
f 191/19/17 16/16/17 222/16/17 221/19/17 
f 16/16/17 15/15/17 214/15/17 222/16/17 
f 45/45/17 41/41/17 223/41/17 224/45/17 
f 41/41/17 44/44/17 225/44/17 223/41/17 
f 44/44/4 14/14/4 226/14/4 225/44/4 
f 14/14/50 13/13/50 227/13/50 226/14/50 
f 13/13/50 192/18/50 228/18/50 227/13/50 
f 192/18/50 150/17/50 229/17/50 228/18/50 
f 150/17/50 23/23/50 230/23/50 229/17/50 
f 23/23/11 22/22/11 231/22/11 230/23/11 
f 22/22/17 46/46/17 232/46/17 231/22/17 
f 46/46/17 45/45/17 224/45/17 232/46/17 
s 8
f 33/33/17 36/36/19 54/54/32 53/53/17 
f 36/36/19 58/58/35 71/71/48 54/54/32 
s 1
f 71/71/17 58/58/17 107/111/17 120/124/17 
s off
f 107/111/58 123/111/58 138/135/58 120/124/58 
s 8
f 34/34/17 6/6/2 38/38/21 35/35/18 
f 35/35/18 38/38/21 60/60/37 57/57/34 
s 1
f 57/57/17 60/60/17 109/113/17 106/110/17 
s off
f 106/110/51 109/113/51 125/113/51 124/127/51 
s 8
f 45/45/17 48/48/27 42/42/24 41/41/17 
f 48/48/27 66/66/43 63/63/40 42/42/24 
s 1
f 63/63/17 66/66/17 115/119/17 112/116/17 
s off
f 115/119/54 131/119/54 130/131/54 112/116/54 
s 8
f 46/46/17 22/22/10 50/50/29 47/47/26 
f 47/47/26 50/50/29 68/68/45 65/65/42 
s 1
f 65/65/17 68/68/17 117/121/17 114/118/17 
s off
f 117/121/55 133/121/55 132/132/55 114/118/55 
s 8
f 56/56/12 25/25/12 28/28/13 30/30/15 
f 26/26/10 21/21/10 24/24/11 27/27/11 
f 26/26/10 52/52/31 49/49/28 21/21/10 
f 49/49/28 52/52/31 70/70/47 67/67/44 
s 1
f 67/67/17 70/70/17 119/123/17 116/120/17 
s off
f 119/123/56 135/123/56 134/133/56 116/120/56 
s 8
f 25/25/12 56/56/12 55/55/33 51/51/30 
f 51/51/30 55/55/33 72/72/49 69/69/46 
s 1
f 69/69/17 72/72/17 121/125/17 118/122/17 
s off
f 118/122/57 121/125/57 137/125/57 136/134/57 
s 8
f 10/138/2 40/140/23 37/37/20 5/5/2 
f 40/140/23 62/141/39 59/59/36 37/37/20 
s 1
f 59/59/17 62/141/17 111/129/17 108/112/17 
s off
f 111/129/52 127/129/52 126/128/52 108/112/52 
s 8
f 9/9/5 44/44/5 43/43/25 39/39/22 
f 39/39/22 43/43/25 64/64/41 61/61/38 
s 1
f 61/61/17 64/64/17 113/117/17 110/114/17 
s off
f 110/114/53 113/117/53 129/117/53 128/130/53 
s 8
f 145/136/3 233/142/64 8/8/4 7/7/3 
f 233/142/64 234/143/4 11/139/4 8/8/4 
f 234/144/4 235/145/65 12/12/6 11/11/4 
f 235/145/65 15/15/9 14/14/8 12/12/6 
f 76/76/64 78/146/64 233/142/64 145/136/3 
f 78/146/64 77/147/4 234/143/4 233/142/64 
f 77/77/4 81/81/65 235/145/65 234/144/4 
f 81/81/65 84/84/6 15/15/9 235/145/65 
f 152/137/60 236/148/11 24/24/11 23/23/60 
f 236/148/66 237/149/11 27/27/11 24/24/11 
f 237/149/11 238/150/67 28/28/13 27/27/11 
f 238/150/67 31/31/16 30/30/15 28/28/13 
f 92/92/66 94/94/66 236/148/66 152/137/11 
f 94/94/66 93/93/11 237/149/11 236/148/66 
f 93/93/11 97/97/67 238/150/67 237/149/11 
f 97/97/67 100/100/13 31/31/16 238/150/67 
s 1
f 101/101/50 104/104/50 74/74/50 73/73/50 
f 102/102/50 100/100/50 99/99/50 103/103/50 
f 78/78/50 76/151/50 75/107/50 79/79/50 
f 93/93/50 96/96/50 98/98/50 97/97/50 
f 94/94/50 92/92/50 91/91/50 95/95/50 
f 85/85/50 88/88/50 90/90/50 89/89/50 
f 86/86/50 84/84/50 83/83/50 87/87/50 
f 77/77/50 80/80/50 82/82/50 81/81/50 
s off
f 194/101/50 193/73/50 157/73/50 141/101/50 
f 193/73/50 195/76/50 158/76/50 157/73/50 
f 195/76/4 196/136/4 159/136/4 158/76/4 
f 196/136/17 197/4/17 160/4/17 159/136/17 
f 197/4/63 198/3/63 142/3/63 160/4/63 
f 198/3/17 199/32/17 139/32/17 142/3/17 
f 199/32/17 200/31/17 166/31/17 139/32/17 
f 200/31/11 201/100/11 165/100/11 166/31/11 
f 201/100/50 202/102/50 140/102/50 165/100/50 
f 202/102/50 194/101/50 141/101/50 140/102/50 
f 214/15/4 213/84/4 175/84/4 176/15/4 
f 213/84/50 215/86/50 149/86/50 175/84/50 
f 215/86/50 216/85/50 146/85/50 149/86/50 
f 216/85/50 217/89/50 181/89/50 146/85/50 
f 217/89/50 218/92/50 182/92/50 181/89/50 
f 218/92/11 219/137/11 183/137/11 182/92/11 
f 219/137/17 220/20/17 184/20/17 183/137/17 
f 220/20/17 221/19/17 147/19/17 184/20/17 
f 221/19/17 222/16/17 148/16/17 147/19/17 
f 222/16/17 214/15/17 176/15/17 148/16/17 
f 204/6/17 203/34/17 154/34/17 153/6/17 
f 203/34/17 205/33/17 168/33/17 154/34/17 
f 205/33/17 206/53/17 161/53/17 168/33/17 
f 206/53/17 207/56/17 162/56/17 161/53/17 
f 207/56/11 208/30/11 163/30/11 162/56/11 
f 208/30/50 209/29/50 164/29/50 163/30/50 
f 209/29/50 210/2/50 167/2/50 164/29/50 
f 210/2/50 211/1/50 155/1/50 167/2/50 
f 211/1/50 212/7/50 156/7/50 155/1/50 
f 212/7/4 204/6/4 153/6/4 156/7/4 
f 224/45/17 223/41/17 171/41/17 185/45/17 
f 223/41/17 225/44/17 172/44/17 171/41/17 
f 225/44/4 226/14/4 173/14/4 172/44/4 
f 226/14/50 227/13/50 174/13/50 173/14/50 
f 227/13/50 228/18/50 186/18/50 174/13/50 
f 228/18/50 229/17/50 179/17/50 186/18/50 
f 229/17/50 230/23/50 180/23/50 179/17/50 
f 230/23/11 231/22/11 177/22/11 180/23/11 
f 231/22/17 232/46/17 178/46/17 177/22/17 
f 232/46/17 224/45/17 185/45/17 178/46/17 
f 153/6/14 154/34/14 154/34/14 153/6/14 
f 154/34/14 168/33/14 168/33/14 154/34/14 
f 168/33/14 161/53/14 161/53/14 168/33/14 
f 161/53/14 162/56/14 162/56/14 161/53/14 
f 162/56/14 163/30/14 163/30/14 162/56/14 
f 163/30/14 164/29/14 164/29/14 163/30/14 
f 164/29/14 167/2/14 167/2/14 164/29/14 
f 167/2/14 155/1/14 155/1/14 167/2/14 
f 155/1/14 156/7/14 156/7/14 155/1/14 
f 156/7/14 153/6/14 153/6/14 156/7/14 
f 150/17/68 151/20/68 151/20/68 150/17/68 
f 151/20/69 152/137/69 152/137/69 151/20/69 
f 152/137/69 236/148/69 236/148/69 152/137/69 
f 236/148/69 24/24/69 24/24/69 236/148/69 
f 24/24/69 23/23/69 23/23/69 24/24/69 
f 23/23/68 150/17/68 150/17/68 23/23/68 
f 153/6/14 154/34/14 154/34/14 153/6/14 
f 154/34/14 168/33/14 168/33/14 154/34/14 
f 168/33/14 161/53/14 161/53/14 168/33/14 
f 161/53/14 162/56/14 162/56/14 161/53/14 
f 162/56/14 163/30/14 163/30/14 162/56/14 
f 163/30/14 164/29/14 164/29/14 163/30/14 
f 164/29/14 167/2/14 167/2/14 164/29/14 
f 167/2/14 155/1/14 155/1/14 167/2/14 
f 155/1/14 156/7/14 156/7/14 155/1/14 
f 156/7/14 153/6/14 153/6/14 156/7/14 
# 262 polygons

