# Blender v2.79 (sub 0) OBJ File: ''
# www.blender.org
o Cylinder.001
v 0.000000 1.950718 -0.804738
v 0.000000 4.327541 -0.578029
v 0.804738 1.950718 -0.804738
v 0.408728 4.327541 -0.408728
v 0.804738 1.950718 0.000000
v 0.578029 4.327541 0.000000
v 0.804738 1.950718 0.804738
v 0.408728 4.327541 0.408728
v -0.000000 1.950718 0.804738
v -0.000000 4.327541 0.578029
v -0.804738 1.950718 0.804738
v -0.408728 4.327541 0.408728
v -0.804738 1.950718 -0.000000
v -0.578029 4.327541 -0.000000
v -0.804738 1.950718 -0.804738
v -0.408728 4.327541 -0.408728
v 0.804738 4.327541 -0.804738
v 0.000000 4.327541 -0.804738
v 0.804738 4.327541 0.000000
v 0.804738 4.327541 0.804738
v -0.000000 4.327541 0.804738
v -0.804738 4.327541 0.804738
v -0.804738 4.327541 -0.000000
v -0.804738 4.327541 -0.804738
v 0.268145 4.741602 -0.268145
v 0.000000 4.741602 -0.379214
v 0.379214 4.741602 0.000000
v 0.268145 4.741602 0.268145
v -0.000000 4.741602 0.379214
v -0.268145 4.741602 0.268145
v -0.379214 4.741602 -0.000000
v -0.268145 4.741602 -0.268145
v 0.408728 4.741602 -0.408728
v 0.000000 4.741602 -0.578029
v 0.578029 4.741602 0.000000
v 0.408728 4.741602 0.408728
v -0.000000 4.741602 0.578029
v -0.408728 4.741602 0.408728
v -0.578029 4.741602 -0.000000
v -0.408728 4.741602 -0.408728
v -0.000000 5.456327 0.000000
v -0.000000 5.456327 0.379214
v 0.000000 5.456327 -0.379214
v 0.379214 5.456327 0.000000
v -0.379214 5.456327 -0.000000
v 0.268145 5.456327 -0.268145
v 0.268145 5.456327 0.268145
v -0.268145 5.456327 0.268145
v -0.268145 5.456327 -0.268145
v 3.163090 4.327541 -0.804738
v 3.163090 1.950718 -0.804738
v 3.163090 1.950718 0.000000
v 3.163090 4.327541 0.000000
v 3.163090 1.950718 0.804738
v 3.163090 4.327541 0.804738
v -3.163090 4.327541 0.804738
v -3.163090 1.950718 0.804738
v -3.163090 1.950718 -0.000000
v -3.163090 4.327541 -0.000000
v -3.163090 1.950718 -0.804738
v -3.163090 4.327541 -0.804738
v 0.000000 1.950718 -3.170660
v 0.804738 1.950718 -3.137607
v 0.804738 4.327541 -3.137607
v 0.000000 4.327541 -3.170660
v -3.163090 1.950718 -2.753894
v -0.804738 1.950718 -3.137607
v 0.804738 4.327541 3.137607
v 0.804738 1.950718 3.137607
v -0.000000 1.950718 3.170661
v -0.000000 4.327541 3.170661
v -0.804738 1.950718 3.137607
v -0.804738 4.327541 3.137607
v -0.804738 4.327541 -3.137607
v 3.163090 4.327541 -2.753894
v 3.163090 1.950718 -2.753894
v 3.163090 4.327541 2.753895
v 3.163090 1.950718 2.753895
v -3.163090 4.327541 2.753895
v -3.163090 1.950718 2.753895
v -3.163090 4.327541 -2.753894
v -3.091933 1.950718 -0.804738
v -3.091933 1.950718 -0.000000
v -3.091933 1.950718 0.804738
v -3.091933 4.327541 -0.804738
v -3.091933 4.327541 -0.000000
v -3.091933 4.327541 0.804738
v -3.091933 1.950718 -2.780168
v -3.091933 1.950718 2.780169
v -3.091933 4.327541 -2.780168
v -3.091933 4.327541 2.780169
v 3.089692 1.950718 0.804738
v 3.089692 4.327541 0.804738
v 3.089692 4.327541 -0.804738
v 3.089692 1.950718 -0.804738
v 3.089692 1.950718 0.000000
v 3.089692 4.327541 0.000000
v 3.089692 1.950718 2.780996
v 3.089692 4.327541 2.780996
v 3.089692 4.327541 -2.780996
v 3.089692 1.950718 -2.780996
v 3.163090 4.295636 -0.804738
v 3.163090 4.295636 0.000000
v 3.163090 4.295636 0.804738
v -3.163090 4.295636 0.804738
v -3.163090 4.295636 -0.000000
v -3.163090 4.295636 -0.804738
v 0.000000 3.667218 -3.170660
v 0.804738 3.667218 -3.137607
v 0.804738 3.667218 3.137607
v -0.000000 3.667218 3.170661
v -0.804738 3.667218 3.137607
v -0.804738 3.667218 -3.137607
v 3.163090 4.295636 -2.753894
v 3.163090 4.295636 2.753895
v -3.163090 4.295636 2.753895
v -3.163090 4.295636 -2.753894
v -2.537357 3.667218 2.866837
v -2.537357 3.667218 -2.866836
v 2.535098 3.667218 -2.867551
v 2.535099 3.667218 2.867551
v 3.163090 1.966113 -0.804738
v 3.163090 1.966113 0.000000
v 3.163090 1.966113 0.804738
v -3.163090 1.966113 0.804738
v -3.163090 1.966113 -0.000000
v -3.163090 1.966113 -0.804738
v 0.804738 2.567312 -3.137607
v 0.804738 2.567312 3.137607
v -0.000000 2.567312 3.170661
v -0.804738 2.567312 3.137607
v -0.804738 2.567312 -3.137607
v 3.163090 1.966113 -2.753894
v 3.163090 1.966113 2.753895
v -3.163090 1.966113 2.753895
v -3.163090 1.966113 -2.753894
v -2.537357 2.567311 2.866837
v 2.535099 2.567311 -2.867551
v 0.000000 1.966113 -3.170660
v -2.537357 2.567311 -2.866836
v 2.535098 2.567311 2.867551
v -0.578029 4.339832 -0.000000
v -0.408728 4.339832 0.408728
v 0.000000 4.339832 -0.578029
v -0.408728 4.339832 -0.408728
v 0.408728 4.339832 0.408728
v -0.000000 4.339832 0.578029
v 0.408728 4.339832 -0.408728
v 0.578029 4.339832 0.000000
v -0.408728 4.712436 0.408728
v -0.408728 4.712436 -0.408728
v 0.408728 4.712436 0.408728
v 0.408728 4.712436 -0.408728
v -0.578029 4.712436 -0.000000
v 0.000000 4.712436 -0.578029
v -0.000000 4.712436 0.578029
v 0.578029 4.712436 0.000000
v -0.268145 4.763532 0.268145
v -0.000000 4.763532 0.379214
v -0.268145 4.763532 -0.268145
v -0.379214 4.763532 -0.000000
v 0.379214 4.763532 0.000000
v 0.268145 4.763532 0.268145
v 0.000000 4.763532 -0.379214
v 0.268145 4.763532 -0.268145
v -0.000000 5.442333 0.379214
v -0.379214 5.442333 -0.000000
v 0.379214 5.442333 0.000000
v 0.000000 5.442333 -0.379214
v -0.268145 5.442333 0.268145
v -0.268145 5.442333 -0.268145
v 0.268145 5.442333 0.268145
v 0.268145 5.442333 -0.268145
v -3.091933 1.966113 -2.780168
v -3.091933 4.295636 -2.780168
v 3.089692 1.966113 2.780996
v 3.089692 4.295636 2.780996
v 0.804738 4.295636 3.137607
v 0.804738 4.295636 -3.137607
v 3.089692 4.295636 -2.780996
v -0.804738 4.295636 -3.137607
v -0.804738 4.295636 3.137607
v -3.091933 4.295636 2.780169
v 0.000000 4.295636 -3.170660
v -0.000000 4.295636 3.170661
v -3.091933 1.966113 2.780169
v 3.089692 1.966113 -2.780996
v 0.000000 2.567312 -3.170660
v 0.804738 1.966113 -3.137607
v 0.804738 1.966113 3.137607
v -0.000000 1.966113 3.170661
v -0.804738 1.966113 3.137607
v -0.804738 1.966113 -3.137607
v 0.000000 2.567312 -3.519545
v 0.000000 3.667218 -3.519545
v 0.804738 3.667218 -3.482854
v 0.804738 2.567312 -3.482854
v 0.804738 3.667218 3.482855
v 0.804738 2.567312 3.482855
v -0.000000 3.667218 3.519545
v -0.000000 2.567312 3.519545
v -0.804738 3.667218 3.482855
v -0.804738 2.567312 3.482855
v -0.804738 3.667218 -3.482854
v -0.804738 2.567312 -3.482854
v -2.537357 2.567311 -3.182289
v -2.537357 3.667218 -3.182289
v 2.535098 2.567311 3.183083
v 2.535099 3.667218 3.183083
v 2.535098 3.667218 -3.183082
v -2.537357 3.667218 3.182289
v -2.537357 2.567311 3.182289
v 2.535099 2.567311 -3.183082
v -2.537357 2.567311 -2.917482
v -2.537357 3.667218 -2.917482
v -0.804738 2.567312 -3.193037
v 0.000000 2.567312 -3.226674
v 0.804738 3.667218 -3.193037
v 0.000000 3.667218 -3.226674
v 0.804738 2.567312 -3.193037
v 2.535099 2.567311 -2.918209
v 2.535098 3.667218 -2.918209
v -0.804738 3.667218 -3.193037
v -2.537357 3.667218 -3.115180
v -0.804738 2.567312 -3.409407
v 0.804738 3.667218 -3.409407
v 0.804738 2.567312 -3.409407
v 2.535098 3.667218 -3.115957
v -0.804738 3.667218 -3.409407
v -2.537357 2.567311 -3.115180
v 0.000000 2.567312 -3.445324
v 0.000000 3.667218 -3.445324
v 2.535099 2.567311 -3.115957
v -3.028387 1.950718 -0.804738
v -3.028387 4.327541 -0.000000
v -3.028387 4.327541 0.804738
v -3.028387 1.950718 -2.790099
v -3.028387 4.327541 2.790099
v -3.028387 1.950718 -0.000000
v -3.028387 1.950718 0.804738
v -3.028387 4.327541 -0.804738
v -3.028387 1.950718 2.790099
v -3.028387 4.327541 -2.790099
v -3.028387 4.295636 -2.790099
v -3.028387 4.295636 2.790099
v -3.028387 1.966113 2.790099
v -3.028387 1.966113 -2.790099
v -2.489219 3.667218 -2.874359
v -2.489219 3.667218 2.874360
v -2.489219 2.567311 2.874360
v -2.489219 2.567311 -2.874359
v -2.489219 3.667218 -3.190640
v -2.489219 3.667218 3.190640
v -2.489219 2.567311 3.190640
v -2.489219 2.567311 -3.190640
v -2.489219 2.567311 -2.925138
v -2.489219 3.667218 -2.925138
v -2.489219 2.567311 -3.123355
v -2.489219 3.667218 -3.123355
v 3.022104 4.327541 0.804738
v 3.022104 1.950718 -0.804738
v 3.022104 4.327541 0.000000
v 3.022105 4.327541 2.798914
v 3.022105 1.950718 -2.798913
v 3.022104 1.950718 0.804738
v 3.022104 4.327541 -0.804738
v 3.022104 1.950718 0.000000
v 3.022104 1.950718 2.798914
v 3.022104 4.327541 -2.798913
v 3.022105 4.295636 2.798914
v 3.022104 4.295636 -2.798913
v 3.022105 1.966113 -2.798913
v 3.022104 1.966113 2.798914
v 2.495377 3.667218 2.881120
v 2.495376 3.667218 -2.881119
v 2.495377 2.567311 -2.881119
v 2.495376 2.567311 2.881120
v 2.495377 3.667218 3.198145
v 2.495376 3.667218 -3.198144
v 2.495377 2.567311 -3.198144
v 2.495376 2.567311 3.198145
v 2.495376 3.667218 -2.932018
v 2.495377 2.567311 -2.932018
v 2.495376 3.667218 -3.130701
v 2.495377 2.567311 -3.130701
v -0.000000 3.667218 3.191934
v -0.804738 3.667218 3.158659
v -0.804738 2.567312 3.158659
v -0.000000 2.567312 3.191934
v 0.804738 3.667218 3.158659
v 2.535099 3.667218 2.886791
v 2.535098 2.567311 2.886791
v -2.537357 2.567311 2.886071
v -2.537357 3.667218 2.886071
v 0.804738 2.567312 3.158659
v -2.489219 3.667218 2.893645
v -2.489219 2.567311 2.893645
v 2.495376 2.567311 2.900451
v 2.495377 3.667218 2.900451
v -0.804738 3.667218 3.447193
v -0.000000 2.567312 3.483508
v 2.535099 3.667218 3.150491
v -2.489219 3.667218 3.157970
v -2.489219 2.567311 3.157971
v 2.495376 2.567311 3.165398
v 2.495377 3.667218 3.165398
v -0.000000 3.667218 3.483508
v -0.804738 2.567312 3.447193
v 0.804738 3.667218 3.447193
v 2.535098 2.567311 3.150491
v -2.537357 2.567311 3.149705
v -2.537357 3.667218 3.149705
v 0.804738 2.567312 3.447193
v -0.000000 1.950718 0.000000
vn -1.0000 0.0000 0.0000
vn 0.0000 1.0000 0.0000
vn 0.0000 -1.0000 0.0000
vn 0.9239 0.0000 -0.3827
vn 0.3827 0.0000 -0.9239
vn 0.3827 0.0000 0.9239
vn -0.9239 0.0000 0.3827
vn -0.3827 0.0000 -0.9239
vn 0.9239 0.0000 0.3827
vn -0.3827 0.0000 0.9239
vn -0.9239 0.0000 -0.3827
vn 1.0000 0.0000 0.0000
vn 0.0410 0.0000 -0.9992
vn 0.0410 0.0000 0.9992
vn -0.0410 0.0000 0.9992
vn 0.3464 0.0000 0.9381
vn -0.0410 0.0000 -0.9992
vn 0.3464 0.0000 -0.9381
vn -0.3464 0.0000 -0.9381
vn -0.3464 0.0000 0.9381
vn -0.1544 0.0000 0.9880
vn -0.1544 0.0000 -0.9880
vn 0.2563 0.0000 -0.9666
vn 0.2563 0.0000 0.9666
vn 0.1542 0.0000 0.9880
vn 0.2798 -0.1127 0.9534
vn 0.1506 0.0016 -0.9886
vn 0.1542 0.0000 -0.9880
vn 0.2796 0.1177 -0.9529
vn 0.1506 -0.0016 0.9886
vn 0.3546 0.0000 -0.9350
vn -0.1709 0.0000 0.9853
vn -0.0455 0.0000 -0.9990
vn -0.0455 -0.0000 0.9990
vn 0.0455 0.0000 0.9990
vn 0.0455 -0.0000 -0.9990
vn 0.3546 -0.0000 0.9350
vn -0.1709 0.0000 -0.9853
vn 0.1661 -0.0000 0.9861
vn 0.1661 0.0000 -0.9861
vn 0.2796 0.1177 0.9529
vn 0.1506 -0.0016 -0.9886
vn 0.2798 -0.1127 -0.9534
vn 0.1506 0.0016 0.9886
vn 0.1510 0.0000 -0.9885
vn 0.1510 0.0000 0.9885
s off
f 107//1 61//1 81//1 117//1
f 86//2 85//2 61//2 59//2
f 83//3 84//3 57//3 58//3
f 18//2 17//2 64//2 65//2
f 261//3 3//3 63//3 264//3
f 24//2 18//2 65//2 74//2
f 157//4 153//4 33//4 35//4
f 82//3 83//3 58//3 60//3
f 3//3 1//3 62//3 63//3
f 1//3 314//3 13//3 15//3
f 2//2 4//2 17//2 18//2
f 4//2 6//2 19//2 17//2
f 6//2 8//2 20//2 19//2
f 8//2 10//2 21//2 20//2
f 10//2 12//2 22//2 21//2
f 12//2 14//2 23//2 22//2
f 14//2 16//2 24//2 23//2
f 16//2 2//2 18//2 24//2
f 173//5 169//5 43//5 46//5
f 156//6 152//6 36//6 37//6
f 154//7 150//7 38//7 39//7
f 155//8 151//8 40//8 34//8
f 172//9 168//9 44//9 47//9
f 170//10 166//10 42//10 48//10
f 171//11 167//11 45//11 49//11
f 151//11 154//11 39//11 40//11
f 150//10 156//10 37//10 38//10
f 152//9 157//9 35//9 36//9
f 153//5 155//5 34//5 33//5
f 26//2 25//2 33//2 34//2
f 25//2 27//2 35//2 33//2
f 27//2 28//2 36//2 35//2
f 28//2 29//2 37//2 36//2
f 29//2 30//2 38//2 37//2
f 30//2 31//2 39//2 38//2
f 31//2 32//2 40//2 39//2
f 32//2 26//2 34//2 40//2
f 46//2 43//2 41//2 44//2
f 42//2 41//2 45//2 48//2
f 44//2 41//2 42//2 47//2
f 45//2 41//2 43//2 49//2
f 169//8 171//8 49//8 43//8
f 167//7 170//7 48//7 45//7
f 166//6 172//6 47//6 42//6
f 168//4 173//4 46//4 44//4
f 102//12 50//12 53//12 103//12
f 103//12 53//12 55//12 104//12
f 105//1 56//1 59//1 106//1
f 106//1 59//1 61//1 107//1
f 94//2 50//2 75//2 100//2
f 87//2 86//2 59//2 56//2
f 92//3 96//3 52//3 54//3
f 1//3 15//3 67//3 62//3
f 96//3 95//3 51//3 52//3
f 97//2 93//2 55//2 53//2
f 21//2 22//2 73//2 71//2
f 94//2 97//2 53//2 50//2
f 184//13 65//13 64//13 179//13
f 178//14 68//14 71//14 185//14
f 185//15 71//15 73//15 182//15
f 176//16 98//16 78//16 134//16
f 181//17 74//17 65//17 184//17
f 180//18 100//18 75//18 114//18
f 174//19 88//19 66//19 136//19
f 183//20 91//20 79//20 116//20
f 104//12 55//12 77//12 115//12
f 87//2 56//2 79//2 91//2
f 92//3 54//3 78//3 98//3
f 9//3 7//3 69//3 70//3
f 125//1 57//1 80//1 135//1
f 122//12 51//12 76//12 133//12
f 260//2 20//2 68//2 263//2
f 20//2 21//2 71//2 68//2
f 240//3 11//3 72//3 242//3
f 241//2 24//2 74//2 243//2
f 11//3 9//3 70//3 72//3
f 82//3 60//3 66//3 88//3
f 234//3 82//3 88//3 237//3
f 61//2 85//2 90//2 81//2
f 57//3 84//3 89//3 80//3
f 236//2 87//2 91//2 238//2
f 245//21 238//21 91//21 183//21
f 247//22 237//22 88//22 174//22
f 236//2 235//2 86//2 87//2
f 234//3 239//3 83//3 82//3
f 239//3 240//3 84//3 83//3
f 235//2 241//2 85//2 86//2
f 55//2 93//2 99//2 77//2
f 265//3 92//3 98//3 268//3
f 271//23 269//23 100//23 180//23
f 273//24 268//24 98//24 176//24
f 266//2 262//2 97//2 94//2
f 262//2 260//2 93//2 97//2
f 267//3 261//3 95//3 96//3
f 265//3 267//3 96//3 92//3
f 266//2 94//2 100//2 269//2
f 51//3 95//3 101//3 76//3
f 263//24 270//24 177//24 99//24
f 232//2 226//2 196//2 195//2
f 243//22 244//22 175//22 90//22
f 304//3 308//3 203//3 254//3
f 50//12 102//12 114//12 75//12
f 56//1 105//1 116//1 79//1
f 124//12 104//12 115//12 134//12
f 186//20 183//20 116//20 135//20
f 90//19 175//19 117//19 81//19
f 187//18 180//18 114//18 133//18
f 310//12 302//12 209//12 208//12
f 99//16 177//16 115//16 77//16
f 309//2 307//2 200//2 198//2
f 231//3 225//3 205//3 194//3
f 230//1 224//1 207//1 206//1
f 126//1 106//1 107//1 127//1
f 125//1 105//1 106//1 126//1
f 123//12 103//12 104//12 124//12
f 122//12 102//12 103//12 123//12
f 127//1 107//1 117//1 136//1
f 60//1 127//1 136//1 66//1
f 51//12 122//12 123//12 52//12
f 52//12 123//12 124//12 54//12
f 57//1 125//1 126//1 58//1
f 58//1 126//1 127//1 60//1
f 62//13 139//13 189//13 63//13
f 69//14 190//14 191//14 70//14
f 70//15 191//15 192//15 72//15
f 67//17 193//17 139//17 62//17
f 101//18 187//18 133//18 76//18
f 89//20 186//20 135//20 80//20
f 54//12 124//12 134//12 78//12
f 242//21 246//21 186//21 89//21
f 264//23 272//23 187//23 101//23
f 307//2 300//2 202//2 200//2
f 308//3 301//3 201//3 203//3
f 102//12 122//12 133//12 114//12
f 105//1 125//1 135//1 116//1
f 175//19 174//19 136//19 117//19
f 177//16 176//16 134//16 115//16
f 4//5 2//5 144//5 148//5
f 8//9 6//9 149//9 146//9
f 12//10 10//10 147//10 143//10
f 16//11 14//11 142//11 145//11
f 2//8 16//8 145//8 144//8
f 14//7 12//7 143//7 142//7
f 10//6 8//6 146//6 147//6
f 6//4 4//4 148//4 149//4
f 148//5 144//5 155//5 153//5
f 146//9 149//9 157//9 152//9
f 143//10 147//10 156//10 150//10
f 145//11 142//11 154//11 151//11
f 144//8 145//8 151//8 155//8
f 142//7 143//7 150//7 154//7
f 147//6 146//6 152//6 156//6
f 149//4 148//4 153//4 157//4
f 27//4 25//4 165//4 162//4
f 29//6 28//6 163//6 159//6
f 31//7 30//7 158//7 161//7
f 26//8 32//8 160//8 164//8
f 32//11 31//11 161//11 160//11
f 30//10 29//10 159//10 158//10
f 28//9 27//9 162//9 163//9
f 25//5 26//5 164//5 165//5
f 162//4 165//4 173//4 168//4
f 159//6 163//6 172//6 166//6
f 161//7 158//7 170//7 167//7
f 164//8 160//8 171//8 169//8
f 160//11 161//11 167//11 171//11
f 158//10 159//10 166//10 170//10
f 163//9 162//9 168//9 172//9
f 165//5 164//5 169//5 173//5
f 119//22 140//22 174//22 175//22
f 121//25 141//25 176//25 177//25
f 274//26 121//26 177//26 270//26
f 275//27 109//27 179//27 271//27
f 248//22 119//22 175//22 244//22
f 249//21 112//21 182//21 245//21
f 108//17 113//17 181//17 184//17
f 112//15 111//15 185//15 182//15
f 111//14 110//14 178//14 185//14
f 109//13 108//13 184//13 179//13
f 137//21 118//21 183//21 186//21
f 138//28 120//28 180//28 187//28
f 188//13 128//13 189//13 139//13
f 129//14 130//14 191//14 190//14
f 130//15 131//15 192//15 191//15
f 132//17 188//17 139//17 193//17
f 250//21 137//21 186//21 246//21
f 276//29 138//29 187//29 272//29
f 277//30 129//30 190//30 273//30
f 251//22 132//22 193//22 247//22
f 280//31 279//31 210//31 213//31
f 254//32 253//32 211//32 212//32
f 205//33 204//33 195//33 194//33
f 201//34 200//34 202//34 203//34
f 199//35 198//35 200//35 201//35
f 194//36 195//36 196//36 197//36
f 278//37 281//37 208//37 209//37
f 252//38 255//38 206//38 207//38
f 306//2 309//2 198//2 278//2
f 285//3 227//3 197//3 280//3
f 312//1 311//1 212//1 211//1
f 284//2 228//2 210//2 279//2
f 305//3 310//3 208//3 281//3
f 228//12 233//12 213//12 210//12
f 259//2 229//2 204//2 252//2
f 258//3 230//3 206//3 255//3
f 227//3 231//3 194//3 197//3
f 303//2 312//2 211//2 253//2
f 301//3 313//3 199//3 201//3
f 229//2 232//2 195//2 204//2
f 113//2 108//2 219//2 223//2
f 128//3 188//3 217//3 220//3
f 251//3 140//3 214//3 256//3
f 248//2 113//2 223//2 257//2
f 120//12 138//12 221//12 222//12
f 275//2 120//2 222//2 282//2
f 276//3 128//3 220//3 283//3
f 140//1 119//1 215//1 214//1
f 188//3 132//3 216//3 217//3
f 108//2 109//2 218//2 219//2
f 223//2 219//2 232//2 229//2
f 220//3 217//3 231//3 227//3
f 256//3 214//3 230//3 258//3
f 257//2 223//2 229//2 259//2
f 222//12 221//12 233//12 228//12
f 282//2 222//2 228//2 284//2
f 283//3 220//3 227//3 285//3
f 214//1 215//1 224//1 230//1
f 217//3 216//3 225//3 231//3
f 219//2 218//2 226//2 232//2
f 215//2 257//2 259//2 224//2
f 216//3 256//3 258//3 225//3
f 119//2 248//2 257//2 215//2
f 132//3 251//3 256//3 216//3
f 300//2 303//2 253//2 202//2
f 225//3 258//3 255//3 205//3
f 224//2 259//2 252//2 207//2
f 204//38 205//38 255//38 252//38
f 203//32 202//32 253//32 254//32
f 140//22 251//22 247//22 174//22
f 131//21 250//21 246//21 192//21
f 118//21 249//21 245//21 183//21
f 113//22 248//22 244//22 181//22
f 72//21 192//21 246//21 242//21
f 311//3 304//3 254//3 212//3
f 74//22 181//22 244//22 243//22
f 23//2 24//2 241//2 235//2
f 13//3 11//3 240//3 239//3
f 15//3 13//3 239//3 234//3
f 22//2 23//2 235//2 236//2
f 193//22 67//22 237//22 247//22
f 182//21 73//21 238//21 245//21
f 22//2 236//2 238//2 73//2
f 15//3 234//3 237//3 67//3
f 85//2 241//2 243//2 90//2
f 84//3 240//3 242//3 89//3
f 221//3 283//3 285//3 233//3
f 218//2 282//2 284//2 226//2
f 138//3 276//3 283//3 221//3
f 109//2 275//2 282//2 218//2
f 313//3 305//3 281//3 199//3
f 226//2 284//2 279//2 196//2
f 233//3 285//3 280//3 213//3
f 302//2 306//2 278//2 209//2
f 198//39 199//39 281//39 278//39
f 197//40 196//40 279//40 280//40
f 141//41 277//41 273//41 176//41
f 128//42 276//42 272//42 189//42
f 120//43 275//43 271//43 180//43
f 110//44 274//44 270//44 178//44
f 63//45 189//45 272//45 264//45
f 68//46 178//46 270//46 263//46
f 17//2 266//2 269//2 64//2
f 7//3 5//3 267//3 265//3
f 5//3 3//3 261//3 267//3
f 19//2 20//2 260//2 262//2
f 17//2 19//2 262//2 266//2
f 190//46 69//46 268//46 273//46
f 179//45 64//45 269//45 271//45
f 7//3 265//3 268//3 69//3
f 93//2 260//2 263//2 99//2
f 95//3 261//3 264//3 101//3
f 121//2 274//2 299//2 291//2
f 129//3 277//3 298//3 295//3
f 137//3 250//3 297//3 293//3
f 112//2 249//2 296//2 287//2
f 130//3 129//3 295//3 289//3
f 249//2 118//2 294//2 296//2
f 277//3 141//3 292//3 298//3
f 118//1 137//1 293//1 294//1
f 274//2 110//2 290//2 299//2
f 131//3 130//3 289//3 288//3
f 111//2 112//2 287//2 286//2
f 110//2 111//2 286//2 290//2
f 141//12 121//12 291//12 292//12
f 250//3 131//3 288//3 297//3
f 291//2 299//2 306//2 302//2
f 295//3 298//3 305//3 313//3
f 293//3 297//3 304//3 311//3
f 287//2 296//2 303//2 300//2
f 289//3 295//3 313//3 301//3
f 296//2 294//2 312//2 303//2
f 298//3 292//3 310//3 305//3
f 294//1 293//1 311//1 312//1
f 299//2 290//2 309//2 306//2
f 288//3 289//3 301//3 308//3
f 286//2 287//2 300//2 307//2
f 290//2 286//2 307//2 309//2
f 292//12 291//12 302//12 310//12
f 297//3 288//3 308//3 304//3
f 13//3 314//3 9//3 11//3
f 314//3 1//3 3//3 5//3
f 9//3 314//3 5//3 7//3
