# Blender v2.79 (sub 0) OBJ File: ''
# www.blender.org
mtllib 893003-07-LP.mtl
o Cylinder_Cylinder.003
v -0.195640 -1.334586 -1.509727
v -0.195640 0.665414 -1.299711
v 0.511467 -1.334586 -1.216834
v 0.362963 0.665414 -1.068330
v 0.804360 -1.334586 -0.509727
v 0.594343 0.665414 -0.509727
v 0.511467 -1.334586 0.197379
v 0.362963 0.665414 0.048875
v -0.195640 -1.334586 0.490273
v -0.195640 0.665414 0.280256
v -0.902747 -1.334586 0.197379
v -0.754243 0.665414 0.048875
v -1.195640 -1.334586 -0.509727
v -0.985624 0.665414 -0.509727
v -0.902747 -1.334586 -1.216834
v -0.754243 0.665414 -1.068330
v -0.195640 -1.334586 -2.110323
v 0.936152 -1.334586 -1.641519
v 1.404956 -1.334586 -0.509727
v 0.936152 -1.334586 0.622064
v -0.195640 -1.334586 1.090868
v -1.327432 -1.334586 0.622064
v -1.796236 -1.334586 -0.509727
v -1.327432 -1.334586 -1.641519
v -0.195640 -2.274750 -2.110323
v 0.936152 -2.274750 -1.641519
v 1.404956 -2.274750 -0.509727
v 0.936152 -2.274750 0.622064
v -0.195640 -2.274750 1.090868
v -1.327432 -2.274750 0.622064
v -1.796236 -2.274750 -0.509727
v -1.327432 -2.274750 -1.641519
v -0.195640 -3.902380 -9.407714
v 6.274715 -3.902380 -8.607714
v 7.902346 -2.274749 -0.509727
v 6.274715 -3.902380 7.588259
v -0.195640 -3.902380 6.788259
v -6.665995 -3.902380 7.588259
v -8.293627 -2.274749 -0.509728
v -6.665995 -3.902380 -8.607714
v -0.195640 -6.960387 -9.407714
v 6.274715 -6.960387 -8.607714
v 6.274715 -6.960387 7.588259
v -0.195640 -6.960387 6.788259
v -6.665995 -6.960387 7.588259
v -6.665995 -6.960387 -8.607714
v -0.195640 -2.274749 -9.407714
v 7.902346 -2.274749 -8.607714
v 7.902346 -2.274749 7.588259
v -0.195640 -2.274749 6.788259
v -8.293627 -2.274749 7.588259
v -8.293627 -2.274749 -8.607714
v -0.195640 -8.588018 -8.824292
v 7.321751 -8.588018 -8.081650
v 7.321751 -8.588018 -0.509727
v 7.321751 -8.588018 6.947480
v -0.195640 -8.588018 6.204837
v -7.713031 -8.588018 6.947480
v -7.713031 -8.588018 -0.509728
v -7.713031 -8.588018 -8.081650
v -0.195640 -6.960387 -10.107714
v -0.195640 -3.902380 -10.107714
v 6.274715 -3.902380 -10.107714
v -6.665995 -3.902380 -10.107714
v 6.274715 -6.960387 -10.107714
v -6.665995 -6.960387 -10.107714
v -0.195640 -3.902380 9.088259
v -0.195640 -6.960387 9.088259
v 6.274715 -3.902380 9.088259
v -6.665995 -3.902380 9.088259
v 6.274715 -6.960387 9.088259
v -6.665995 -6.960387 9.088259
v -0.195640 -2.644805 6.788259
v 7.532290 -2.644805 7.588259
v -7.923571 -2.644805 7.588259
v 7.532290 -8.217963 7.588259
v -0.195640 -8.217963 6.788259
v -7.923571 -8.217963 7.588259
v -0.195640 -3.610754 6.788259
v -6.957622 -3.610754 7.588259
v 6.566341 -7.252014 7.588259
v 6.566342 -3.610754 7.588259
v -0.195640 -7.252014 6.788259
v -6.957622 -7.252014 7.588259
v -0.195640 -6.960387 7.333366
v -6.665995 -6.960387 7.943764
v -6.665995 -3.902380 7.943764
v -0.195640 -3.902380 7.333366
v 6.274715 -3.902380 7.943764
v 6.274715 -6.960387 7.943764
v -0.195640 -6.960387 8.500019
v -6.665995 -3.902380 8.704624
v 6.274715 -3.902380 8.704624
v -6.665995 -6.960387 8.704624
v -0.195640 -3.902380 8.500019
v 6.274715 -6.960387 8.704624
v 7.636180 -2.540915 -8.607714
v -0.195640 -2.540915 -9.407714
v -8.027460 -2.540915 -8.607714
v -0.195640 -8.321853 -9.407714
v 7.636180 -8.321853 -8.607714
v -8.027460 -8.321853 -8.607714
v 6.539919 -3.637176 -8.607714
v -0.195640 -7.225592 -9.407714
v -6.931200 -7.225592 -8.607714
v -0.195640 -3.637176 -9.407714
v -6.931200 -3.637176 -8.607714
v 6.539919 -7.225592 -8.607714
v -0.195640 -6.960387 -9.635831
v 6.274715 -6.960387 -9.096538
v -6.665995 -3.902380 -9.096538
v -6.665995 -6.960387 -9.096538
v 6.274715 -3.902380 -9.096538
v -0.195640 -3.902380 -9.635831
v -0.195640 -6.960387 -9.941854
v -6.665995 -3.902380 -9.752300
v 6.274715 -3.902380 -9.752300
v 6.274715 -6.960387 -9.752300
v -6.665995 -6.960387 -9.752300
v -0.195640 -3.902380 -9.941854
v -8.293627 -8.114489 -0.509728
v -8.293627 -8.114489 7.588259
v 7.902346 -8.114489 7.588259
v 7.902346 -8.114489 -0.509727
v 7.902346 -8.114489 -8.607714
v -8.293627 -8.114489 -8.607714
v -6.665995 -6.731020 7.588259
v 6.274715 -6.731020 7.588259
v 6.274715 -6.731020 -8.607714
v -6.665995 -6.731020 -8.607714
v -0.195640 -6.731020 -10.107714
v 6.274715 -6.731020 -10.107714
v -6.665995 -6.731020 -10.107714
v -0.195640 -6.731020 9.088259
v -6.665995 -6.731020 9.088259
v 6.274715 -6.731020 9.088259
v 7.532290 -7.799945 7.588259
v -7.923571 -7.799945 7.588259
v -6.957622 -6.978899 7.588259
v 6.566341 -6.978899 7.588259
v -6.665995 -6.731020 7.943764
v 6.274715 -6.731020 7.943764
v -6.665995 -6.731020 8.704624
v 6.274715 -6.731020 8.704624
v -8.027460 -7.888250 -8.607714
v 7.636180 -7.888250 -8.607714
v 6.539919 -6.956441 -8.607714
v -6.931200 -6.956441 -8.607714
v 6.274715 -6.731020 -9.096538
v -6.665995 -6.731020 -9.096538
v 6.274715 -6.731020 -9.752300
v -6.665995 -6.731020 -9.752300
v -8.293627 -2.796847 7.588259
v 7.902346 -2.796847 7.588259
v 7.902346 -2.796847 -8.607714
v -6.665995 -4.155273 7.588259
v 6.274715 -4.155273 7.588259
v 6.274715 -4.155273 -8.607714
v -0.195640 -4.155273 -10.107714
v 6.274715 -4.155273 -10.107714
v -6.665995 -4.155273 9.088259
v 6.274715 -4.155273 9.088259
v 7.532290 -3.105697 7.588259
v 6.566342 -3.911881 7.588259
v -6.665995 -4.155273 7.943764
v -6.665995 -4.155273 8.704624
v -8.027460 -3.018990 -8.607714
v -6.931200 -3.933933 -8.607714
v 6.274715 -4.155273 -9.096538
v 6.274715 -4.155273 -9.752300
v -8.293627 -2.796848 -0.509728
v 7.902346 -2.796848 -0.509727
v -8.293627 -2.796848 -8.607714
v -6.665995 -4.155273 -8.607714
v -6.665995 -4.155273 -10.107714
v -0.195640 -4.155273 9.088259
v -7.923571 -3.105697 7.588259
v -6.957622 -3.911881 7.588259
v 6.274715 -4.155273 7.943764
v 6.274715 -4.155273 8.704624
v 7.636180 -3.018990 -8.607714
v 6.539919 -3.933933 -8.607714
v -6.665995 -4.155273 -9.096538
v -6.665995 -4.155273 -9.752300
v -7.887199 -2.274749 -8.201286
v -7.914549 -2.274749 -0.509728
v -7.887199 -2.274749 7.181831
v -0.195640 -2.274749 6.455856
v 7.495919 -2.274749 7.181831
v 7.523269 -2.274749 -0.509727
v 7.495919 -2.274749 -8.201286
v -0.195640 -2.274749 -8.981963
v -2.022546 -2.274750 -0.509727
v -0.195640 -2.274750 1.289313
v 1.631266 -2.274750 -0.509727
v -0.195640 -2.274750 -2.364498
v -1.570071 -2.274750 -1.884158
v -1.570071 -2.274750 0.864703
v 1.178791 -2.274750 0.864703
v 1.178791 -2.274750 -1.884158
v -1.327432 -2.109264 0.622064
v -0.195640 -2.109264 1.090868
v 0.936152 -2.109264 0.622064
v 1.404956 -2.109264 -0.509727
v 0.936152 -2.109264 -1.641519
v -0.195640 -2.109264 -2.110323
v -1.327432 -2.109264 -1.641519
v -1.796236 -2.109264 -0.509727
v -0.195640 -1.463167 1.090868
v 1.404956 -1.463167 -0.509727
v -0.195640 -1.463167 -2.110323
v -1.327432 -1.463167 -1.641519
v -1.327432 -1.463167 0.622064
v 0.936152 -1.463167 0.622064
v 0.936152 -1.463167 -1.641519
v -1.796236 -1.463167 -0.509727
v 1.254541 -1.334586 -0.509727
v 0.829793 -1.334586 -1.535160
v -1.221073 -1.334586 0.515705
v -0.195640 -1.334586 0.940453
v -0.195640 -1.334586 -1.959908
v -1.221073 -1.334586 -1.535160
v 0.829793 -1.334586 0.515705
v -1.645821 -1.334586 -0.509727
v 0.603827 -1.334586 -1.309194
v -0.195640 -1.334586 0.620889
v -0.995107 -1.334586 -1.309194
v 0.934977 -1.334586 -0.509727
v -0.995107 -1.334586 0.289739
v -0.195640 -1.334586 -1.640344
v 0.603827 -1.334586 0.289739
v -1.326257 -1.334586 -0.509727
v -0.195640 -1.233942 -1.509727
v 0.511467 -1.233942 -1.216834
v 0.804360 -1.233942 -0.509727
v 0.511467 -1.233942 0.197379
v -0.195640 -1.233942 0.490273
v -0.902747 -1.233942 0.197379
v -1.195640 -1.233942 -0.509727
v -0.902747 -1.233942 -1.216834
v -0.195640 0.401016 -1.509727
v 0.511467 0.401016 -1.216834
v 0.804360 0.401016 -0.509727
v 0.511467 0.401016 0.197379
v -0.195640 0.401016 0.490273
v -0.902747 0.401016 0.197379
v -1.195640 0.401016 -0.509727
v -0.902747 0.401016 -1.216834
v 0.511467 0.665414 -1.216834
v -0.195640 0.665414 -1.509727
v 0.804360 0.665414 -0.509727
v 0.511467 0.665414 0.197379
v -0.195640 0.665414 0.490273
v -0.902747 0.665414 0.197379
v -1.195640 0.665414 -0.509727
v -0.902747 0.665414 -1.216834
v -0.195640 -8.588018 -9.407714
v 7.902346 -8.588018 -8.607714
v 7.902346 -8.588018 -0.509727
v 7.902346 -8.588018 7.588259
v -0.195640 -8.588018 6.788259
v -8.293627 -8.588018 7.588259
v -8.293627 -8.588018 -0.509728
v -8.293627 -8.588018 -8.607714
v -0.195640 -8.588018 -0.509727
vn 0.3827 0.0000 -0.9239
vn 0.9239 0.0000 -0.3827
vn 0.9239 0.0000 0.3827
vn 0.3827 0.0000 0.9239
vn -0.3827 0.0000 0.9239
vn -0.9239 0.0000 0.3827
vn 0.0000 1.0000 -0.0000
vn -0.9239 0.0000 -0.3827
vn -0.3827 0.0000 -0.9239
vn -1.0000 0.0000 0.0000
vn 0.0000 -1.0000 0.0000
vn 1.0000 0.0000 0.0000
vn 0.0998 -0.0499 -0.9938
vn -0.1005 0.0502 0.9937
vn 0.1005 0.0502 0.9937
vn -0.0998 -0.0499 -0.9938
vn 0.0998 0.0499 -0.9938
vn -0.1005 -0.0502 0.9937
vn 0.1005 -0.0502 0.9937
vn -0.0998 0.0499 -0.9938
vn 0.0000 0.0000 1.0000
vn 0.0000 0.0000 -1.0000
vn 0.1096 -0.0548 0.9925
vn -0.1096 -0.0548 0.9925
vn 0.1096 0.0548 0.9925
vn -0.1096 0.0548 0.9925
vn -0.1198 0.0599 0.9910
vn 0.1198 0.0599 0.9910
vn -0.1198 -0.0599 0.9910
vn 0.1198 -0.0599 0.9910
vn -0.1090 0.0545 -0.9925
vn 0.1090 0.0545 -0.9925
vn -0.1090 -0.0545 -0.9925
vn 0.1090 -0.0545 -0.9925
vn 0.1201 -0.0600 -0.9909
vn -0.1201 -0.0600 -0.9909
vn 0.1201 0.0600 -0.9909
vn -0.1201 0.0600 -0.9909
usemtl None
s off
f 241//1 250//1 249//1 242//1
f 242//2 249//2 251//2 243//2
f 243//3 251//3 252//3 244//3
f 244//4 252//4 253//4 245//4
f 245//5 253//5 254//5 246//5
f 246//6 254//6 255//6 247//6
f 4//7 2//7 16//7 14//7
f 247//8 255//8 256//8 248//8
f 248//9 256//9 250//9 241//9
f 218//7 217//7 19//7 18//7
f 202//5 201//5 30//5 29//5
f 220//7 219//7 22//7 21//7
f 222//7 221//7 17//7 24//7
f 221//7 218//7 18//7 17//7
f 217//7 223//7 20//7 19//7
f 219//7 224//7 23//7 22//7
f 223//7 220//7 21//7 20//7
f 224//7 222//7 24//7 23//7
f 186//7 185//7 52//7 39//7
f 204//3 203//3 28//3 27//3
f 206//1 205//1 26//1 25//1
f 207//9 206//9 25//9 32//9
f 201//6 208//6 31//6 30//6
f 203//4 202//4 29//4 28//4
f 205//2 204//2 27//2 26//2
f 208//8 207//8 32//8 31//8
f 122//10 121//10 263//10 262//10
f 188//7 187//7 51//7 50//7
f 190//7 189//7 49//7 35//7
f 192//7 191//7 48//7 47//7
f 185//7 192//7 47//7 52//7
f 187//7 186//7 39//7 51//7
f 189//7 188//7 50//7 49//7
f 191//7 190//7 35//7 48//7
f 265//11 53//11 54//11 55//11
f 95//7 92//7 70//7 67//7
f 125//12 124//12 259//12 258//12
f 121//10 126//10 264//10 263//10
f 94//11 91//11 68//11 72//11
f 124//12 123//12 260//12 259//12
f 184//10 116//10 64//10 175//10
f 118//11 115//11 61//11 65//11
f 97//13 98//13 47//13 48//13
f 73//14 74//14 49//14 50//14
f 75//15 73//15 50//15 51//15
f 98//16 99//16 52//16 47//16
f 100//17 101//17 258//17 257//17
f 76//18 77//18 261//18 260//18
f 77//19 78//19 262//19 261//19
f 102//20 100//20 257//20 264//20
f 177//21 75//21 51//21 153//21
f 137//21 76//21 260//21 123//21
f 181//22 97//22 48//22 155//22
f 145//22 102//22 264//22 126//22
f 131//22 132//22 65//22 61//22
f 133//22 131//22 61//22 66//22
f 120//7 117//7 63//7 62//7
f 115//11 119//11 66//11 61//11
f 116//7 120//7 62//7 64//7
f 151//12 118//12 65//12 132//12
f 136//21 134//21 68//21 71//21
f 134//21 135//21 72//21 68//21
f 180//12 93//12 69//12 162//12
f 91//11 96//11 71//11 68//11
f 93//7 95//7 67//7 69//7
f 143//10 94//10 72//10 135//10
f 140//21 81//21 76//21 137//21
f 178//21 80//21 75//21 177//21
f 83//23 84//23 78//23 77//23
f 81//24 83//24 77//24 76//24
f 80//25 79//25 73//25 75//25
f 79//26 82//26 74//26 73//26
f 37//27 36//27 82//27 79//27
f 38//28 37//28 79//28 80//28
f 43//29 44//29 83//29 81//29
f 44//30 45//30 84//30 83//30
f 156//21 38//21 80//21 178//21
f 128//21 43//21 81//21 140//21
f 127//10 45//10 86//10 141//10
f 36//7 37//7 88//7 89//7
f 44//11 43//11 90//11 85//11
f 157//12 36//12 89//12 179//12
f 45//11 44//11 85//11 86//11
f 37//7 38//7 87//7 88//7
f 141//10 86//10 94//10 143//10
f 89//7 88//7 95//7 93//7
f 85//11 90//11 96//11 91//11
f 179//12 89//12 93//12 180//12
f 86//11 85//11 91//11 94//11
f 88//7 87//7 92//7 95//7
f 148//22 105//22 102//22 145//22
f 182//22 103//22 97//22 181//22
f 105//31 104//31 100//31 102//31
f 104//32 108//32 101//32 100//32
f 106//33 107//33 99//33 98//33
f 103//34 106//34 98//34 97//34
f 34//35 33//35 106//35 103//35
f 33//36 40//36 107//36 106//36
f 41//37 42//37 108//37 104//37
f 46//38 41//38 104//38 105//38
f 158//22 34//22 103//22 182//22
f 130//22 46//22 105//22 148//22
f 129//12 42//12 110//12 149//12
f 40//7 33//7 114//7 111//7
f 41//11 46//11 112//11 109//11
f 33//7 34//7 113//7 114//7
f 42//11 41//11 109//11 110//11
f 174//10 40//10 111//10 183//10
f 149//12 110//12 118//12 151//12
f 111//7 114//7 120//7 116//7
f 109//11 112//11 119//11 115//11
f 114//7 113//7 117//7 120//7
f 110//11 109//11 115//11 118//11
f 183//10 111//10 116//10 184//10
f 112//10 150//10 152//10 119//10
f 169//12 149//12 151//12 170//12
f 46//10 130//10 150//10 112//10
f 158//12 129//12 149//12 169//12
f 174//22 130//22 148//22 168//22
f 42//22 129//22 147//22 108//22
f 108//22 147//22 146//22 101//22
f 168//22 148//22 145//22 167//22
f 90//12 142//12 144//12 96//12
f 165//10 141//10 143//10 166//10
f 43//12 128//12 142//12 90//12
f 156//10 127//10 141//10 165//10
f 157//21 128//21 140//21 164//21
f 45//21 127//21 139//21 84//21
f 84//21 139//21 138//21 78//21
f 164//21 140//21 137//21 163//21
f 166//10 143//10 135//10 161//10
f 96//12 144//12 136//12 71//12
f 176//21 161//21 135//21 134//21
f 162//21 176//21 134//21 136//21
f 170//12 151//12 132//12 160//12
f 175//22 159//22 131//22 133//22
f 159//22 160//22 132//22 131//22
f 167//22 145//22 126//22 173//22
f 101//22 146//22 125//22 258//22
f 163//21 137//21 123//21 154//21
f 78//21 138//21 122//21 262//21
f 119//10 152//10 133//10 66//10
f 172//12 154//12 123//12 124//12
f 171//10 173//10 126//10 121//10
f 155//12 172//12 124//12 125//12
f 153//10 171//10 121//10 122//10
f 51//10 39//10 171//10 153//10
f 48//12 35//12 172//12 155//12
f 39//10 52//10 173//10 171//10
f 35//12 49//12 154//12 172//12
f 74//21 163//21 154//21 49//21
f 99//22 167//22 173//22 52//22
f 62//22 63//22 160//22 159//22
f 64//22 62//22 159//22 175//22
f 117//12 170//12 160//12 63//12
f 69//21 67//21 176//21 162//21
f 67//21 70//21 161//21 176//21
f 92//10 166//10 161//10 70//10
f 82//21 164//21 163//21 74//21
f 36//21 157//21 164//21 82//21
f 38//10 156//10 165//10 87//10
f 87//10 165//10 166//10 92//10
f 107//22 168//22 167//22 99//22
f 40//22 174//22 168//22 107//22
f 34//12 158//12 169//12 113//12
f 113//12 169//12 170//12 117//12
f 150//10 183//10 184//10 152//10
f 130//10 174//10 183//10 150//10
f 129//22 158//22 182//22 147//22
f 147//22 182//22 181//22 146//22
f 142//12 179//12 180//12 144//12
f 128//12 157//12 179//12 142//12
f 127//21 156//21 178//21 139//21
f 139//21 178//21 177//21 138//21
f 144//12 180//12 162//12 136//12
f 146//22 181//22 155//22 125//22
f 138//21 177//21 153//21 122//21
f 152//10 184//10 175//10 133//10
f 200//7 195//7 190//7 191//7
f 199//7 194//7 188//7 189//7
f 198//7 193//7 186//7 187//7
f 197//7 196//7 192//7 185//7
f 196//7 200//7 191//7 192//7
f 195//7 199//7 189//7 190//7
f 194//7 198//7 187//7 188//7
f 193//7 197//7 185//7 186//7
f 31//7 32//7 197//7 193//7
f 29//7 30//7 198//7 194//7
f 27//7 28//7 199//7 195//7
f 25//7 26//7 200//7 196//7
f 32//7 25//7 196//7 197//7
f 30//7 31//7 193//7 198//7
f 28//7 29//7 194//7 199//7
f 26//7 27//7 195//7 200//7
f 216//8 212//8 207//8 208//8
f 215//2 210//2 204//2 205//2
f 214//4 209//4 202//4 203//4
f 213//6 216//6 208//6 201//6
f 212//9 211//9 206//9 207//9
f 211//1 215//1 205//1 206//1
f 210//3 214//3 203//3 204//3
f 209//5 213//5 201//5 202//5
f 21//5 22//5 213//5 209//5
f 19//3 20//3 214//3 210//3
f 17//1 18//1 215//1 211//1
f 24//9 17//9 211//9 212//9
f 22//6 23//6 216//6 213//6
f 20//4 21//4 209//4 214//4
f 18//2 19//2 210//2 215//2
f 23//8 24//8 212//8 216//8
f 232//7 227//7 222//7 224//7
f 231//7 226//7 220//7 223//7
f 229//7 232//7 224//7 219//7
f 228//7 231//7 223//7 217//7
f 230//7 225//7 218//7 221//7
f 227//7 230//7 221//7 222//7
f 226//7 229//7 219//7 220//7
f 225//7 228//7 217//7 218//7
f 3//7 5//7 228//7 225//7
f 9//7 11//7 229//7 226//7
f 15//7 1//7 230//7 227//7
f 1//7 3//7 225//7 230//7
f 5//7 7//7 231//7 228//7
f 11//7 13//7 232//7 229//7
f 7//7 9//7 226//7 231//7
f 13//7 15//7 227//7 232//7
f 15//9 240//9 233//9 1//9
f 13//8 239//8 240//8 15//8
f 11//6 238//6 239//6 13//6
f 9//5 237//5 238//5 11//5
f 7//4 236//4 237//4 9//4
f 5//3 235//3 236//3 7//3
f 3//2 234//2 235//2 5//2
f 1//1 233//1 234//1 3//1
f 240//9 248//9 241//9 233//9
f 239//8 247//8 248//8 240//8
f 238//6 246//6 247//6 239//6
f 237//5 245//5 246//5 238//5
f 236//4 244//4 245//4 237//4
f 235//3 243//3 244//3 236//3
f 234//2 242//2 243//2 235//2
f 233//1 241//1 242//1 234//1
f 2//7 4//7 249//7 250//7
f 4//7 6//7 251//7 249//7
f 6//7 8//7 252//7 251//7
f 8//7 10//7 253//7 252//7
f 10//7 12//7 254//7 253//7
f 12//7 14//7 255//7 254//7
f 14//7 16//7 256//7 255//7
f 16//7 2//7 250//7 256//7
f 6//7 4//7 14//7 12//7
f 8//7 6//7 12//7 10//7
f 54//11 53//11 257//11 258//11
f 55//11 54//11 258//11 259//11
f 56//11 55//11 259//11 260//11
f 57//11 56//11 260//11 261//11
f 58//11 57//11 261//11 262//11
f 59//11 58//11 262//11 263//11
f 60//11 59//11 263//11 264//11
f 53//11 60//11 264//11 257//11
f 59//11 60//11 53//11 265//11
f 58//11 59//11 265//11 57//11
f 57//11 265//11 55//11 56//11
