# Blender v2.79 (sub 0) OBJ File: ''
# www.blender.org
o Cylinder
v -0.000000 -0.185301 -0.185301
v -0.000000 0.185301 -0.137618
v 0.131027 -0.185301 -0.131027
v 0.097311 0.185301 -0.097311
v 0.185300 -0.185301 0.000000
v 0.137618 0.185301 0.000000
v 0.131027 -0.185301 0.131027
v 0.097311 0.185301 0.097311
v -0.000000 -0.185301 0.185301
v -0.000000 0.185301 0.137618
v -0.131027 -0.185301 0.131027
v -0.097311 0.185301 0.097311
v -0.185301 -0.185301 -0.000000
v -0.137618 0.185301 -0.000000
v -0.131027 -0.185301 -0.131027
v -0.097311 0.185301 -0.097311
v 0.131027 0.185301 -0.131027
v -0.000000 0.185301 -0.185301
v 0.185300 0.185301 0.000000
v 0.131027 0.185301 0.131027
v -0.000000 0.185301 0.185301
v -0.131027 0.185301 0.131027
v -0.185301 0.185301 -0.000000
v -0.131027 0.185301 -0.131027
v 0.097311 -0.095823 -0.097311
v -0.000000 -0.095823 -0.137618
v 0.137618 -0.095823 0.000000
v 0.097311 -0.095823 0.097311
v -0.000000 -0.095823 0.137618
v -0.097311 -0.095823 0.097311
v -0.137618 -0.095823 -0.000000
v -0.097311 -0.095823 -0.097311
v -0.000000 -0.095823 0.000000
v -0.000000 -0.185301 -0.529971
v 0.407529 -0.185301 -0.484179
v 0.407529 -0.185301 0.000000
v 0.407529 -0.185301 0.354279
v -0.000000 -0.185301 0.318872
v -0.407529 -0.185301 0.354279
v -0.407529 -0.185301 -0.000000
v -0.407529 -0.185301 -0.484178
v -0.000000 -2.578117 -0.529971
v 0.407529 -2.578117 -0.484179
v 0.407529 -2.578117 0.000000
v 0.407529 -2.578117 0.354279
v -0.000000 -2.578117 0.318872
v -0.407529 -2.578117 0.354279
v -0.407529 -2.578117 -0.000000
v -0.407529 -2.578117 -0.484178
v 0.907529 -0.185301 -0.358087
v 0.907529 -0.185301 0.000000
v 0.907529 -0.185301 0.470960
v 0.907529 -2.578117 -0.358087
v 0.907529 -2.578117 0.000000
v 0.907529 -2.578117 0.470960
v -0.907529 -0.185301 0.470960
v -0.907529 -0.185301 -0.000000
v -0.907529 -0.185301 -0.358087
v -0.907529 -2.578117 0.470960
v -0.907529 -2.578117 -0.000000
v -0.907529 -2.578117 -0.358087
v 0.407529 -0.185301 0.491368
v -0.000000 -0.185301 0.455961
v -0.407529 -0.185301 0.491368
v 0.407529 -2.578117 0.491368
v -0.000000 -2.578117 0.455961
v -0.407529 -2.578117 0.491368
v -0.907529 -2.578117 0.608049
v 0.907529 -0.185301 0.608049
v 0.907529 -2.578117 0.608049
v -0.907529 -0.185301 0.608049
v -0.657529 -2.578117 0.412620
v -0.657529 -2.578117 -0.000000
v -0.657529 -0.185301 0.412620
v -0.657529 -0.185301 -0.421133
v -0.657529 -0.185301 -0.000000
v -0.657529 -2.578117 -0.421133
v -0.657529 -2.578117 0.549709
v -0.657529 -0.185301 0.549709
v 0.657529 -0.185301 0.000000
v 0.657529 -0.185301 -0.421133
v 0.657529 -2.578117 0.412620
v 0.657529 -0.185301 0.412620
v 0.657529 -2.578117 -0.421133
v 0.657529 -2.578117 0.000000
v 0.657529 -2.578117 0.549709
v 0.657529 -0.185301 0.549709
v 0.407529 -0.484334 -0.484179
v -0.407529 -0.484334 -0.484178
v -0.000000 -0.484334 -0.529971
v 0.907529 -0.484334 0.000000
v 0.907529 -0.484334 -0.358087
v 0.907529 -0.484334 0.470960
v -0.907529 -0.484334 -0.358087
v -0.907529 -0.484334 -0.000000
v -0.907529 -0.484334 0.470960
v -0.407529 -0.484334 0.491368
v -0.000000 -0.484334 0.455961
v 0.407529 -0.484334 0.491368
v 0.907529 -0.484334 0.608049
v -0.907529 -0.484334 0.608049
v -0.657529 -0.484334 0.549709
v -0.657529 -0.484334 -0.421133
v 0.657529 -0.484334 0.549709
v 0.657529 -0.484334 -0.421133
v -0.407529 -2.302192 -0.484178
v 0.907529 -2.302192 0.000000
v 0.907529 -2.302192 0.470960
v -0.907529 -2.302192 -0.358087
v -0.907529 -2.302192 0.470960
v -0.407529 -2.302192 0.491368
v 0.407529 -2.302192 0.491368
v 0.907529 -2.302192 0.608049
v -0.907529 -2.302192 0.608049
v -0.657529 -2.302192 0.549709
v 0.657529 -2.302192 -0.421133
v 0.407529 -2.302192 -0.484179
v -0.000000 -2.302192 -0.529971
v 0.907529 -2.302192 -0.358087
v -0.907529 -2.302192 -0.000000
v -0.000000 -2.302192 0.455961
v -0.657529 -2.302192 -0.421133
v 0.657529 -2.302192 0.549709
v -0.000000 -2.302192 0.605961
v -0.000000 -0.484334 0.605961
v 0.657529 -2.302192 0.699709
v 0.657529 -0.484334 0.699709
v 0.407529 -0.484334 0.641368
v -0.407529 -0.484334 0.641368
v -0.657529 -0.484334 0.699709
v -0.407529 -2.302192 0.641368
v 0.407529 -2.302192 0.641368
v -0.657529 -2.302192 0.699709
v 0.407529 -2.302192 -0.334179
v 0.407529 -0.484334 -0.334179
v -0.000000 -2.302192 -0.379971
v -0.000000 -0.484334 -0.379971
v -0.657529 -2.302192 -0.271133
v -0.657529 -0.484334 -0.271133
v 0.657529 -0.484334 -0.271133
v -0.407529 -0.484334 -0.334178
v -0.407529 -2.302192 -0.334178
v 0.657529 -2.302192 -0.271133
v -0.000000 -0.152573 -0.185301
v 0.131027 -0.152573 -0.131027
v 0.185300 -0.152573 0.000000
v 0.131027 -0.152573 0.131027
v -0.000000 -0.152573 0.185301
v -0.131027 -0.152573 0.131027
v -0.185301 -0.152573 -0.000000
v -0.131027 -0.152573 -0.131027
v -0.000000 0.148355 -0.185301
v 0.131027 0.148355 -0.131027
v 0.185300 0.148355 0.000000
v 0.131027 0.148355 0.131027
v -0.000000 0.148355 0.185301
v -0.131027 0.148355 0.131027
v -0.185301 0.148355 -0.000000
v -0.131027 0.148355 -0.131027
v -0.000000 0.185301 -0.149539
v 0.105740 0.185301 -0.105740
v 0.149539 0.185301 0.000000
v 0.105740 0.185301 0.105740
v -0.000000 0.185301 0.149539
v -0.105740 0.185301 0.105740
v -0.149539 0.185301 -0.000000
v -0.105740 0.185301 -0.105740
v 0.159683 -0.185301 -0.061845
v 0.159683 0.185301 -0.061845
v -0.159684 -0.185301 -0.061845
v -0.159684 0.185301 -0.061845
v 0.118593 0.185301 -0.045931
v -0.118593 0.185301 -0.045931
v 0.118593 -0.095823 -0.045931
v -0.118593 -0.095823 -0.045931
v -0.000000 -0.095823 -0.064956
v 0.407529 -0.185301 -0.228532
v -0.407529 -0.185301 -0.228532
v 0.407529 -2.578117 -0.228532
v -0.407529 -2.578117 -0.228532
v 0.907529 -0.185301 -0.169017
v 0.907529 -2.578117 -0.169017
v -0.907529 -0.185301 -0.169017
v -0.907529 -2.578117 -0.169017
v -0.657529 -2.578117 -0.198775
v -0.657529 -0.185301 -0.198775
v 0.657529 -2.578117 -0.198775
v 0.657529 -0.185301 -0.198775
v -0.907529 -0.484334 -0.169017
v 0.907529 -0.484334 -0.169017
v -0.907529 -2.302192 -0.169017
v 0.907529 -2.302192 -0.169017
v -0.159684 -0.152573 -0.061845
v 0.159683 -0.152573 -0.061845
v -0.159684 0.148355 -0.061845
v 0.159683 0.148355 -0.061845
v -0.128866 0.185301 -0.049909
v 0.128866 0.185301 -0.049909
v -0.657529 -0.484334 0.618858
v 0.407529 -0.484334 0.560518
v -0.000000 -0.484334 0.525110
v -0.407529 -0.484334 0.560518
v 0.407529 -2.302192 0.560518
v -0.000000 -2.302192 0.525110
v -0.657529 -2.302192 0.618858
v 0.657529 -2.302192 0.618858
v -0.407529 -2.302192 0.560518
v 0.657529 -0.484334 0.618858
v 0.907529 -0.580343 -0.358087
v -0.907529 -0.580343 -0.000000
v -0.657529 -0.580343 -0.421133
v 0.657529 -0.580343 0.549709
v 0.907529 -0.580343 0.000000
v 0.907529 -0.580343 0.470960
v -0.907529 -0.580343 -0.358087
v -0.907529 -0.580343 0.470960
v 0.907529 -0.580343 0.608049
v -0.907529 -0.580343 0.608049
v -0.657529 -0.580343 0.549709
v 0.657529 -0.580343 -0.421133
v -0.000000 -0.580343 0.605961
v 0.657529 -0.580343 0.699709
v -0.407529 -0.580343 0.641368
v 0.407529 -0.580343 0.641368
v -0.657529 -0.580343 0.699709
v 0.407529 -0.580343 -0.334179
v -0.000000 -0.580343 -0.379971
v -0.657529 -0.580343 -0.271133
v -0.407529 -0.580343 -0.334178
v 0.657529 -0.580343 -0.271133
v 0.907529 -0.580343 -0.169017
v -0.907529 -0.580343 -0.169017
v 0.657529 -0.580343 0.618858
v -0.657529 -0.580343 0.618858
v 0.907529 -2.156741 0.000000
v 0.907529 -2.156741 0.470960
v -0.907529 -2.156741 -0.358087
v -0.907529 -2.156741 0.470960
v 0.907529 -2.156741 0.608049
v -0.907529 -2.156741 0.608049
v -0.657529 -2.156741 0.549709
v 0.657529 -2.156741 -0.421133
v -0.407529 -2.156741 0.641368
v 0.407529 -2.156741 0.641368
v -0.657529 -2.156741 0.699709
v -0.407529 -2.156741 -0.334178
v 0.657529 -2.156741 -0.271133
v 0.907529 -2.156741 -0.169017
v -0.907529 -2.156741 -0.169017
v 0.657529 -2.156741 0.618858
v 0.907529 -2.156741 -0.358087
v -0.907529 -2.156741 -0.000000
v -0.657529 -2.156741 -0.421133
v 0.657529 -2.156741 0.549709
v -0.000000 -2.156741 0.605961
v 0.657529 -2.156741 0.699709
v 0.407529 -2.156741 -0.334179
v -0.000000 -2.156741 -0.379971
v -0.657529 -2.156741 -0.271133
v -0.657529 -2.156741 0.618858
v 0.327233 -0.185301 0.289447
v 0.342994 -0.185301 0.000000
v -0.342994 -0.185301 -0.000000
v -0.327233 -0.185301 0.289447
v -0.000000 -0.185301 0.280083
v -0.327233 -0.185301 -0.381623
v 0.327233 -0.185301 -0.381623
v -0.000000 -0.185301 -0.429878
v 0.335555 -0.185301 -0.180126
v -0.335555 -0.185301 -0.180126
v 0.801401 -0.185301 0.000000
v 0.801401 -2.578117 0.446194
v 0.801401 -2.578117 -0.384851
v 0.801401 -2.578117 0.583283
v 0.801401 -0.185301 -0.384851
v 0.801401 -0.185301 0.446194
v 0.801401 -2.578117 0.000000
v 0.801401 -0.185301 0.583283
v 0.801401 -0.484334 0.583283
v 0.801401 -0.484334 -0.384851
v 0.801401 -2.302192 -0.384851
v 0.801401 -2.302192 0.583283
v 0.801401 -2.578117 -0.181650
v 0.801401 -0.185301 -0.181650
v 0.801401 -0.580343 0.583283
v 0.801401 -0.580343 -0.384851
v 0.801401 -2.156741 -0.384851
v 0.801401 -2.156741 0.583283
v -0.812411 -2.578117 0.448763
v -0.812411 -0.185301 0.448763
v -0.812411 -0.185301 -0.382074
v -0.812411 -2.578117 -0.382074
v -0.812411 -2.578117 0.585852
v -0.812411 -0.185301 0.585852
v -0.812411 -2.578117 -0.000000
v -0.812411 -0.185301 -0.000000
v -0.812411 -0.484334 0.585852
v -0.812411 -0.484334 -0.382074
v -0.812411 -2.302192 0.585852
v -0.812411 -2.302192 -0.382074
v -0.812411 -2.578117 -0.180339
v -0.812411 -0.185301 -0.180339
v -0.812411 -0.580343 -0.382074
v -0.812411 -0.580343 0.585852
v -0.812411 -2.156741 0.585852
v -0.812411 -2.156741 -0.382074
v -0.407529 -2.473433 -0.484178
v 0.907529 -2.473433 0.000000
v 0.907529 -2.473433 0.470960
v -0.907529 -2.473433 -0.358087
v -0.907529 -2.473433 0.470960
v -0.407529 -2.473433 0.491368
v 0.407529 -2.473433 0.491368
v 0.907529 -2.473433 0.608049
v -0.907529 -2.473433 0.608049
v -0.657529 -2.473433 0.549709
v 0.657529 -2.473433 -0.421133
v 0.407529 -2.473433 -0.484179
v -0.000000 -2.473433 -0.529971
v 0.907529 -2.473433 -0.358087
v -0.907529 -2.473433 -0.000000
v -0.000000 -2.473433 0.455961
v -0.657529 -2.473433 -0.421133
v 0.657529 -2.473433 0.549709
v -0.907529 -2.473433 -0.169017
v 0.907529 -2.473433 -0.169017
v 0.801401 -2.473433 -0.384851
v 0.801401 -2.473433 0.583283
v -0.812411 -2.473433 0.585852
v -0.812411 -2.473433 -0.382074
v -0.000000 -2.578117 -0.000000
v -0.000000 -2.578117 -0.228532
vn 0.3827 0.0000 -0.9239
vn 0.9239 0.0000 -0.3827
vn 0.9239 0.0000 0.3827
vn 0.3827 0.0000 0.9239
vn -0.3827 0.0000 0.9239
vn -0.9239 0.0000 0.3827
vn -0.9239 0.0000 -0.3827
vn -0.3827 0.0000 -0.9239
vn 0.0000 1.0000 0.0000
vn 0.0000 -1.0000 0.0000
vn 0.1117 0.0000 -0.9937
vn -0.1117 0.0000 -0.9937
vn 1.0000 0.0000 0.0000
vn 0.2445 0.0000 -0.9696
vn -1.0000 0.0000 0.0000
vn -0.2445 0.0000 -0.9696
vn -0.2273 0.0000 0.9738
vn 0.2273 0.0000 0.9738
vn 0.0866 0.0000 0.9962
vn -0.0866 0.0000 0.9962
s off
f 152//1 18//1 17//1 153//1
f 196//2 169//2 19//2 154//2
f 154//3 19//3 20//3 155//3
f 155//4 20//4 21//4 156//4
f 156//5 21//5 22//5 157//5
f 157//6 22//6 23//6 158//6
f 2//4 16//4 32//4 26//4
f 195//7 171//7 24//7 159//7
f 159//8 24//8 18//8 152//8
f 262//9 261//9 37//9 36//9
f 160//9 161//9 17//9 18//9
f 198//9 162//9 19//9 169//9
f 162//9 163//9 20//9 19//9
f 163//9 164//9 21//9 20//9
f 164//9 165//9 22//9 21//9
f 165//9 166//9 23//9 22//9
f 197//9 167//9 24//9 171//9
f 167//9 160//9 18//9 24//9
f 33//9 31//9 30//9 29//9
f 14//2 12//2 30//2 31//2
f 10//8 8//8 28//8 29//8
f 172//6 4//6 25//6 174//6
f 173//3 14//3 31//3 175//3
f 12//1 10//1 29//1 30//1
f 8//7 6//7 27//7 28//7
f 4//5 2//5 26//5 25//5
f 27//9 33//9 29//9 28//9
f 176//9 175//9 31//9 33//9
f 174//9 176//9 33//9 27//9
f 83//9 37//9 62//9 87//9
f 264//9 263//9 40//9 39//9
f 261//9 265//9 38//9 37//9
f 270//9 266//9 41//9 178//9
f 269//9 262//9 36//9 177//9
f 265//9 264//9 39//9 38//9
f 266//9 268//9 34//9 41//9
f 268//9 267//9 35//9 34//9
f 331//10 44//10 45//10 46//10
f 72//10 47//10 67//10 78//10
f 47//10 46//10 66//10 67//10
f 284//9 271//9 51//9 181//9
f 319//11 318//11 43//11 42//11
f 307//12 319//12 42//12 49//12
f 295//10 289//10 59//10 60//10
f 37//9 38//9 63//9 62//9
f 326//13 308//13 54//13 182//13
f 308//13 309//13 55//13 54//13
f 283//10 273//10 53//10 182//10
f 271//9 276//9 52//9 51//9
f 272//10 277//10 54//10 55//10
f 280//14 275//14 50//14 92//14
f 325//15 310//15 61//15 184//15
f 311//15 321//15 60//15 59//15
f 302//9 291//9 58//9 183//9
f 330//16 292//16 61//16 310//16
f 301//10 295//10 60//10 184//10
f 290//9 296//9 57//9 56//9
f 328//17 274//17 70//17 314//17
f 297//18 294//18 71//18 101//18
f 322//19 312//19 67//19 66//19
f 313//20 322//20 66//20 65//20
f 93//13 52//13 69//13 100//13
f 38//9 39//9 64//9 63//9
f 290//9 56//9 71//9 294//9
f 46//10 45//10 65//10 66//10
f 311//15 59//15 68//15 315//15
f 272//10 55//10 70//10 274//10
f 39//9 74//9 79//9 64//9
f 97//18 64//18 79//18 102//18
f 39//9 40//9 76//9 74//9
f 180//10 48//10 73//10 185//10
f 307//16 49//16 77//16 323//16
f 178//9 41//9 75//9 186//9
f 48//10 47//10 72//10 73//10
f 289//10 72//10 78//10 293//10
f 45//10 82//10 86//10 65//10
f 313//17 65//17 86//17 324//17
f 88//14 35//14 81//14 105//14
f 45//10 44//10 85//10 82//10
f 36//9 37//9 83//9 80//9
f 179//10 43//10 84//10 187//10
f 177//9 36//9 80//9 188//9
f 276//9 83//9 87//9 278//9
f 211//13 103//13 139//13 228//13
f 62//17 99//17 104//17 87//17
f 41//16 89//16 103//16 75//16
f 260//15 205//15 133//15 245//15
f 56//15 96//15 101//15 71//15
f 214//13 93//13 100//13 217//13
f 62//20 63//20 98//20 99//20
f 63//19 64//19 97//19 98//19
f 304//18 297//18 101//18 218//18
f 278//17 279//17 100//17 69//17
f 291//16 298//16 94//16 58//16
f 56//15 57//15 95//15 96//15
f 183//15 58//15 94//15 189//15
f 286//14 280//14 92//14 209//14
f 51//13 52//13 93//13 91//13
f 181//13 51//13 91//13 190//13
f 41//12 34//12 90//12 89//12
f 34//11 35//11 88//11 90//11
f 327//14 281//14 119//14 320//14
f 329//18 299//18 114//18 315//18
f 309//13 108//13 113//13 314//13
f 312//18 111//18 115//18 316//18
f 318//14 117//14 116//14 317//14
f 204//10 203//10 132//10 124//10
f 90//10 88//10 135//10 137//10
f 238//15 110//15 114//15 240//15
f 202//9 199//9 130//9 129//9
f 200//9 201//9 125//9 128//9
f 288//17 282//17 113//17 239//17
f 306//16 300//16 109//16 237//16
f 238//15 252//15 120//15 110//15
f 249//15 237//15 109//15 191//15
f 235//13 236//13 108//13 107//13
f 248//13 235//13 107//13 192//13
f 88//10 105//10 140//10 135//10
f 116//9 117//9 134//9 143//9
f 223//18 129//18 130//18 225//18
f 244//17 132//17 126//17 256//17
f 244//20 255//20 124//20 132//20
f 255//19 243//19 131//19 124//19
f 203//10 206//10 126//10 132//10
f 201//9 202//9 129//9 125//9
f 207//10 204//10 124//10 131//10
f 208//9 200//9 128//9 127//9
f 233//13 208//13 127//13 222//13
f 205//10 207//10 131//10 133//10
f 226//14 135//14 140//14 230//14
f 246//16 142//16 138//16 259//16
f 246//12 258//12 136//12 142//12
f 258//11 257//11 134//11 136//11
f 242//15 116//15 143//15 247//15
f 118//9 106//9 142//9 136//9
f 106//9 122//9 138//9 142//9
f 117//9 118//9 136//9 134//9
f 103//10 89//10 141//10 139//10
f 89//10 90//10 137//10 141//10
f 15//8 151//8 144//8 1//8
f 170//7 193//7 151//7 15//7
f 11//6 149//6 150//6 13//6
f 9//5 148//5 149//5 11//5
f 7//4 147//4 148//4 9//4
f 5//3 146//3 147//3 7//3
f 168//2 194//2 146//2 5//2
f 1//1 144//1 145//1 3//1
f 151//8 159//8 152//8 144//8
f 193//7 195//7 159//7 151//7
f 149//6 157//6 158//6 150//6
f 148//5 156//5 157//5 149//5
f 147//4 155//4 156//4 148//4
f 146//3 154//3 155//3 147//3
f 194//2 196//2 154//2 146//2
f 144//1 152//1 153//1 145//1
f 16//9 2//9 160//9 167//9
f 173//9 16//9 167//9 197//9
f 12//9 14//9 166//9 165//9
f 10//9 12//9 165//9 164//9
f 8//9 10//9 164//9 163//9
f 6//9 8//9 163//9 162//9
f 172//9 6//9 162//9 198//9
f 2//9 4//9 161//9 160//9
f 4//9 172//9 198//9 161//9
f 14//9 173//9 197//9 166//9
f 145//2 153//2 196//2 194//2
f 150//7 158//7 195//7 193//7
f 3//2 145//2 194//2 168//2
f 13//7 150//7 193//7 170//7
f 251//13 248//13 192//13 119//13
f 252//15 249//15 191//15 120//15
f 50//13 181//13 190//13 92//13
f 57//15 183//15 189//15 95//15
f 35//9 177//9 188//9 81//9
f 44//10 179//10 187//10 85//10
f 40//9 178//9 186//9 76//9
f 49//10 180//10 185//10 77//10
f 292//10 301//10 184//10 61//10
f 296//9 302//9 183//9 57//9
f 321//15 325//15 184//15 60//15
f 277//10 283//10 182//10 54//10
f 320//13 326//13 182//13 53//13
f 275//9 284//9 181//9 50//9
f 42//10 43//10 179//10 332//10
f 267//9 269//9 177//9 35//9
f 263//9 270//9 178//9 40//9
f 25//9 26//9 176//9 174//9
f 26//9 32//9 175//9 176//9
f 16//3 173//3 175//3 32//3
f 6//6 172//6 174//6 27//6
f 166//9 197//9 171//9 23//9
f 161//9 198//9 169//9 17//9
f 158//7 23//7 171//7 195//7
f 153//2 17//2 169//2 196//2
f 115//10 111//10 207//10 205//10
f 212//13 104//13 208//13 233//13
f 104//9 99//9 200//9 208//9
f 111//10 121//10 204//10 207//10
f 98//9 97//9 202//9 201//9
f 112//10 123//10 206//10 203//10
f 99//9 98//9 201//9 200//9
f 97//9 102//9 199//9 202//9
f 121//10 112//10 203//10 204//10
f 241//15 115//15 205//15 260//15
f 102//15 219//15 234//15 199//15
f 254//13 212//13 233//13 250//13
f 95//15 189//15 232//15 210//15
f 92//13 190//13 231//13 209//13
f 105//15 220//15 230//15 140//15
f 137//11 135//11 226//11 227//11
f 141//12 137//12 227//12 229//12
f 141//16 229//16 228//16 139//16
f 257//14 226//14 230//14 247//14
f 250//13 233//13 222//13 256//13
f 125//19 129//19 223//19 221//19
f 128//20 125//20 221//20 224//20
f 128//17 224//17 222//17 127//17
f 243//18 223//18 225//18 245//18
f 190//13 91//13 213//13 231//13
f 91//13 93//13 214//13 213//13
f 189//15 94//15 215//15 232//15
f 96//15 95//15 210//15 216//15
f 298//16 303//16 215//16 94//16
f 279//17 285//17 217//17 100//17
f 96//15 216//15 218//15 101//15
f 287//14 286//14 209//14 251//14
f 305//18 304//18 218//18 240//18
f 236//13 214//13 217//13 239//13
f 199//15 234//15 225//15 130//15
f 253//13 211//13 228//13 259//13
f 122//13 253//13 259//13 138//13
f 108//13 236//13 239//13 113//13
f 299//18 305//18 240//18 114//18
f 281//14 287//14 251//14 119//14
f 131//18 243//18 245//18 133//18
f 206//13 250//13 256//13 126//13
f 134//14 257//14 247//14 143//14
f 123//13 254//13 250//13 206//13
f 219//15 241//15 260//15 234//15
f 210//15 232//15 249//15 252//15
f 209//13 231//13 248//13 251//13
f 220//15 242//15 247//15 230//15
f 227//11 226//11 257//11 258//11
f 229//12 227//12 258//12 246//12
f 229//16 246//16 259//16 228//16
f 221//19 223//19 243//19 255//19
f 224//20 221//20 255//20 244//20
f 224//17 244//17 256//17 222//17
f 231//13 213//13 235//13 248//13
f 213//13 214//13 236//13 235//13
f 232//15 215//15 237//15 249//15
f 216//15 210//15 252//15 238//15
f 303//16 306//16 237//16 215//16
f 285//17 288//17 239//17 217//17
f 216//15 238//15 240//15 218//15
f 234//15 260//15 245//15 225//15
f 13//9 170//9 270//9 263//9
f 3//9 168//9 269//9 267//9
f 1//9 3//9 267//9 268//9
f 15//9 1//9 268//9 266//9
f 9//9 11//9 264//9 265//9
f 168//9 5//9 262//9 269//9
f 170//9 15//9 266//9 270//9
f 7//9 9//9 265//9 261//9
f 11//9 13//9 263//9 264//9
f 5//9 7//9 261//9 262//9
f 212//17 254//17 288//17 285//17
f 116//14 242//14 287//14 281//14
f 242//14 220//14 286//14 287//14
f 104//17 212//17 285//17 279//17
f 81//9 188//9 284//9 275//9
f 85//10 187//10 283//10 277//10
f 254//17 123//17 282//17 288//17
f 317//14 116//14 281//14 327//14
f 220//14 105//14 280//14 286//14
f 87//17 104//17 279//17 278//17
f 52//9 276//9 278//9 69//9
f 82//10 272//10 274//10 86//10
f 324//17 86//17 274//17 328//17
f 105//14 81//14 275//14 280//14
f 82//10 85//10 277//10 272//10
f 80//9 83//9 276//9 271//9
f 187//10 84//10 273//10 283//10
f 188//9 80//9 271//9 284//9
f 211//16 253//16 306//16 303//16
f 115//18 241//18 305//18 299//18
f 241//18 219//18 304//18 305//18
f 103//16 211//16 303//16 298//16
f 76//9 186//9 302//9 296//9
f 77//10 185//10 301//10 292//10
f 253//16 122//16 300//16 306//16
f 316//18 115//18 299//18 329//18
f 75//16 103//16 298//16 291//16
f 219//18 102//18 297//18 304//18
f 59//10 289//10 293//10 68//10
f 74//9 290//9 294//9 79//9
f 102//18 79//18 294//18 297//18
f 74//9 76//9 296//9 290//9
f 185//10 73//10 295//10 301//10
f 323//16 77//16 292//16 330//16
f 186//9 75//9 291//9 302//9
f 73//10 72//10 289//10 295//10
f 122//16 323//16 330//16 300//16
f 78//18 316//18 329//18 293//18
f 123//17 324//17 328//17 282//17
f 84//14 317//14 327//14 273//14
f 119//13 192//13 326//13 320//13
f 120//15 191//15 325//15 321//15
f 43//14 318//14 317//14 84//14
f 67//18 312//18 316//18 78//18
f 55//13 309//13 314//13 70//13
f 293//18 329//18 315//18 68//18
f 273//14 327//14 320//14 53//14
f 112//17 313//17 324//17 123//17
f 106//16 307//16 323//16 122//16
f 110//15 311//15 315//15 114//15
f 112//20 121//20 322//20 313//20
f 121//19 111//19 312//19 322//19
f 282//17 328//17 314//17 113//17
f 300//16 330//16 310//16 109//16
f 110//15 120//15 321//15 311//15
f 191//15 109//15 310//15 325//15
f 107//13 108//13 309//13 308//13
f 192//13 107//13 308//13 326//13
f 106//12 118//12 319//12 307//12
f 118//11 117//11 318//11 319//11
f 332//10 179//10 44//10 331//10
f 180//10 332//10 331//10 48//10
f 48//10 331//10 46//10 47//10
f 49//10 42//10 332//10 180//10
