# Blender v2.79 (sub 0) OBJ File: ''
# www.blender.org
mtllib 893606-32.LP.mtl
o Cylinder
v 0.000000 -1.000000 -1.000000
v 0.000000 1.000000 -1.000000
v 0.707107 -1.000000 -0.707107
v 0.707107 1.000000 -0.707107
v 1.000000 -1.000000 0.000000
v 1.000000 1.000000 0.000000
v 0.707107 -1.000000 0.707107
v 0.707107 1.000000 0.707107
v -0.000000 -1.000000 1.000000
v -0.000000 1.000000 1.000000
v -0.707107 -1.000000 0.707107
v -0.707107 1.000000 0.707107
v -1.000000 -1.000000 -0.000000
v -1.000000 1.000000 -0.000000
v -0.707107 -1.000000 -0.707107
v -0.707107 1.000000 -0.707107
v 0.000000 -2.000000 -4.846701
v 4.646701 -2.000000 -5.646701
v 5.646701 -1.500000 0.000000
v 4.646701 -2.000000 5.646701
v -0.000001 -2.000000 5.946702
v -4.646702 -2.000000 5.646701
v -5.646702 -1.500000 -0.000000
v -4.646702 -2.000000 -5.646701
v 0.000000 -4.142984 -4.846701
v 4.646701 -4.142984 -5.646701
v 5.646701 -4.642984 0.000000
v 4.646701 -4.142984 5.646701
v -0.000001 -4.142984 5.946702
v -4.646702 -4.142984 5.646701
v -5.646702 -4.642984 -0.000000
v -4.646702 -4.142984 -5.646701
v 0.000000 -1.000000 -4.846701
v 5.646701 -1.500000 -5.146701
v -5.646702 -1.500000 -5.146701
v 0.000000 -5.142984 -4.846701
v 5.646701 -4.642984 -5.146701
v -5.646702 -4.642984 -5.146701
v 5.646701 -1.500000 5.146701
v -0.000001 -1.000000 5.946702
v -5.646702 -1.500000 5.146701
v 5.646701 -4.642984 5.146701
v -0.000001 -5.142984 5.946702
v -5.646702 -4.642984 5.146701
v -5.646702 -1.000000 5.646701
v -5.646702 -1.000000 -0.000000
v -5.646702 -1.000000 -5.646701
v -5.646702 -5.142984 5.646701
v -5.646702 -5.142984 -0.000000
v -5.646702 -5.142984 -5.646701
v 5.646701 -1.000000 -5.646701
v 5.646701 -1.000000 0.000000
v 5.646701 -1.000000 5.646701
v 5.646701 -5.142984 -5.646701
v 5.646701 -5.142984 0.000000
v 5.646701 -5.142984 5.646701
v -0.000001 -2.000000 4.946702
v -0.000001 -4.142984 4.946702
v 4.646701 -2.000000 4.646701
v -4.646702 -2.000000 4.646701
v 4.646701 -4.142984 4.646701
v -4.646702 -4.142984 4.646701
v 0.000000 -2.000000 -3.846701
v 0.000000 -4.142984 -3.846701
v 4.646701 -2.000000 -4.646701
v -4.646702 -2.000000 -4.646701
v 4.646701 -4.142984 -4.646701
v -4.646702 -4.142984 -4.646701
v -0.000000 -5.142984 0.000000
v 0.000000 -1.000000 -4.625930
v -5.363208 -1.000000 -5.363207
v 5.363207 -1.000000 -5.363207
v 5.363207 -1.000000 5.363207
v 5.380016 -1.000000 0.000000
v -5.380017 -1.000000 -0.000000
v -5.363208 -1.000000 5.363207
v -0.000001 -1.000000 5.708713
v -0.910473 -1.000000 -0.910473
v 1.191308 -1.000000 0.000000
v -0.910473 -1.000000 0.910473
v 0.000000 -1.000000 -1.158371
v 0.910473 -1.000000 -0.910473
v 0.910473 -1.000000 0.910473
v -1.191308 -1.000000 -0.000000
v -0.000000 -1.000000 1.170722
v 0.000000 0.858357 -1.000000
v 0.707107 0.858357 -0.707107
v 1.000000 0.858357 0.000000
v 0.707107 0.858357 0.707107
v -0.000000 0.858357 1.000000
v -0.707107 0.858357 0.707107
v -1.000000 0.858357 -0.000000
v -0.707107 0.858357 -0.707107
v 0.707107 -0.853288 -0.707107
v 1.000000 -0.853288 0.000000
v 0.707107 -0.853288 0.707107
v -0.000000 -0.853288 1.000000
v -0.707107 -0.853288 0.707107
v -1.000000 -0.853288 -0.000000
v -0.707107 -0.853288 -0.707107
v 0.000000 -0.853288 -1.000000
v -5.646702 -4.758214 -5.646701
v -5.646702 -4.351087 -0.000000
v -5.646702 -4.758214 5.646701
v 5.646701 -4.758214 5.646701
v 5.646701 -4.351087 0.000000
v 5.646701 -4.758214 -5.646701
v -4.646702 -3.943959 -5.646701
v 4.646701 -3.943959 -5.646701
v -4.646702 -3.943959 5.646701
v 4.646701 -3.943959 5.646701
v -5.646702 -4.351087 -5.146701
v -5.646702 -4.351087 5.146701
v 5.646701 -4.351087 5.146701
v 5.646701 -4.351087 -5.146701
v -0.000001 -3.943959 4.946702
v -4.646702 -3.943959 4.646701
v 4.646701 -3.943959 4.646701
v 0.000000 -3.943959 -3.846701
v -4.646702 -3.943959 -4.646701
v 4.646701 -3.943959 -4.646701
v -5.646702 -1.565469 -5.646701
v -5.646702 -1.565469 5.646701
v 5.646701 -1.565469 5.646701
v 5.646701 -1.565469 -5.646701
v -4.646702 -2.292492 -5.646701
v 4.646701 -2.292492 -5.646701
v -4.646702 -2.292492 5.646701
v 4.646701 -2.292492 5.646701
v -5.646702 -1.928981 -5.146701
v -5.646702 -1.928981 5.146701
v 5.646701 -1.928981 5.146701
v 5.646701 -1.928981 -5.146701
v -4.646702 -2.292492 4.646701
v 4.646701 -2.292492 4.646701
v -4.646702 -2.292492 -4.646701
v 4.646701 -2.292492 -4.646701
v -5.646702 -1.928981 -0.000000
v 5.646701 -1.928981 0.000000
v -0.000001 -2.292492 4.946702
v 0.000000 -2.292492 -3.846701
v -0.000001 -1.168487 5.946702
v 5.478215 -1.168487 5.646701
v -5.478215 -1.168487 5.646701
v 5.478215 -4.974498 5.646701
v -0.000001 -4.974498 5.946702
v -5.478215 -4.974498 5.646701
v 5.478215 -4.621023 5.646701
v -5.478215 -4.621023 5.646701
v 5.478215 -1.687963 5.646701
v -5.478215 -1.687963 5.646701
v 4.646701 -2.000000 4.804494
v 4.646701 -4.142984 4.804494
v -0.000001 -4.142984 5.104495
v -4.646702 -4.142984 4.804494
v -4.646702 -2.000000 4.804494
v -0.000001 -2.000000 5.104495
v -4.646702 -3.943959 4.804494
v 4.646701 -3.943959 4.804494
v -4.646702 -2.292492 4.804494
v 4.646701 -2.292492 4.804494
v -4.646702 -2.000000 -4.824866
v -4.646702 -4.142984 -4.824866
v 0.000000 -4.142984 -4.024866
v 4.646701 -4.142984 -4.824866
v 4.646701 -2.000000 -4.824866
v 0.000000 -2.000000 -4.024866
v 4.646701 -3.943959 -4.824866
v -4.646702 -3.943959 -4.824866
v 4.646701 -2.292492 -4.824866
v -4.646702 -2.292492 -4.824866
v 5.505034 -1.141667 -5.646701
v 0.000000 -1.141667 -4.846701
v -5.505035 -1.141667 -5.646701
v 0.000000 -5.001318 -4.846701
v 5.505034 -5.001318 -5.646701
v -5.505035 -5.001318 -5.646701
v 5.505034 -4.642861 -5.646701
v -5.505035 -4.642861 -5.646701
v -5.505035 -1.668464 -5.646701
v 5.505034 -1.668464 -5.646701
v 4.646701 -4.142984 5.518990
v -4.646702 -4.142984 5.518990
v -0.000001 -2.000000 5.818990
v 4.646701 -2.000000 5.518990
v -0.000001 -4.142984 5.818990
v -4.646702 -2.000000 5.518990
v -4.646702 -3.943959 5.518990
v 4.646701 -3.943959 5.518990
v -4.646702 -2.292492 5.518990
v 4.646701 -2.292492 5.518990
v -4.646702 -4.142984 -5.510505
v 4.646701 -4.142984 -5.510505
v 0.000000 -2.000000 -4.710505
v -4.646702 -2.000000 -5.510505
v 0.000000 -4.142984 -4.710505
v 4.646701 -2.000000 -5.510505
v 4.646701 -3.943959 -5.510505
v -4.646702 -3.943959 -5.510505
v 4.646701 -2.292492 -5.510505
v -4.646702 -2.292492 -5.510505
v 5.646701 -1.145833 0.000000
v 5.646701 -1.145833 -5.500868
v 5.646701 -1.145833 5.500868
v 5.646701 -4.997151 -5.500868
v 5.646701 -4.997151 0.000000
v 5.646701 -4.997151 5.500868
v 5.646701 -4.639469 -5.500868
v 5.646701 -4.639469 5.500868
v 5.646701 -1.671493 -5.500868
v 5.646701 -1.671493 5.500868
v -5.646702 -1.212594 -0.000000
v -5.646702 -1.212594 5.434108
v -5.646702 -1.212594 -5.434108
v -5.646702 -4.930391 5.434108
v -5.646702 -4.930391 -0.000000
v -5.646702 -4.930391 -5.434108
v -5.646702 -4.585109 5.434108
v -5.646702 -4.585109 -5.434108
v -5.646702 -1.720030 5.434108
v -5.646702 -1.720030 -5.434108
vn 0.3827 0.0000 -0.9239
vn 0.9239 0.0000 -0.3827
vn 0.9239 0.0000 0.3827
vn 0.3827 0.0000 0.9239
vn -0.3827 0.0000 0.9239
vn -0.9239 0.0000 0.3827
vn 0.0000 1.0000 0.0000
vn -0.9239 0.0000 -0.3827
vn -0.3827 0.0000 -0.9239
vn 0.0000 -1.0000 0.0000
vn -1.0000 0.0000 0.0000
vn 1.0000 0.0000 0.0000
vn -0.1417 0.0708 -0.9874
vn 0.1417 0.0708 -0.9874
vn -0.1417 -0.0708 -0.9874
vn 0.1417 -0.0708 -0.9874
vn 0.0000 0.0000 -1.0000
vn 0.0538 -0.0269 0.9982
vn -0.0538 -0.0269 0.9982
vn 0.0538 0.0269 0.9982
vn -0.0538 0.0269 0.9982
vn 0.0000 0.0000 1.0000
vn 0.0644 0.0000 0.9979
vn -0.0644 0.0000 0.9979
vn 0.1697 0.0000 -0.9855
vn -0.1697 0.0000 -0.9855
vn -0.0591 0.0296 0.9978
vn 0.0591 0.0296 0.9978
vn -0.0591 -0.0296 0.9978
vn 0.0591 -0.0296 0.9978
vn 0.1552 -0.0776 -0.9848
vn -0.1552 -0.0776 -0.9848
vn 0.1552 0.0776 -0.9848
vn -0.1552 0.0776 -0.9848
usemtl None
s off
f 86//1 2//1 4//1 87//1
f 87//2 4//2 6//2 88//2
f 88//3 6//3 8//3 89//3
f 89//4 8//4 10//4 90//4
f 90//5 10//5 12//5 91//5
f 91//6 12//6 14//6 92//6
f 10//7 16//7 14//7 12//7
f 92//8 14//8 16//8 93//8
f 93//9 16//9 2//9 86//9
f 71//7 70//7 33//7 47//7
f 165//7 164//7 64//7 67//7
f 70//7 72//7 51//7 33//7
f 74//7 73//7 53//7 52//7
f 76//7 75//7 46//7 45//7
f 73//7 77//7 40//7 53//7
f 75//7 71//7 47//7 46//7
f 72//7 74//7 52//7 51//7
f 77//7 76//7 45//7 40//7
f 69//10 55//10 56//10 43//10
f 113//11 103//11 31//11 44//11
f 155//7 154//7 58//7 62//7
f 115//12 106//12 27//12 37//12
f 103//11 112//11 38//11 31//11
f 161//11 152//11 59//11 135//11
f 106//12 114//12 42//12 27//12
f 171//12 162//12 66//12 136//12
f 172//13 173//13 33//13 51//13
f 173//14 174//14 47//14 33//14
f 175//15 176//15 54//15 36//15
f 177//16 175//16 36//16 50//16
f 179//17 177//17 50//17 102//17
f 181//17 172//17 51//17 125//17
f 142//18 143//18 53//18 40//18
f 144//19 142//19 40//19 45//19
f 145//20 146//20 43//20 56//20
f 146//21 147//21 48//21 43//21
f 151//22 144//22 45//22 123//22
f 148//22 145//22 56//22 105//22
f 212//11 213//11 45//11 46//11
f 214//11 212//11 46//11 47//11
f 215//11 216//11 49//11 48//11
f 216//11 217//11 50//11 49//11
f 221//11 214//11 47//11 122//11
f 218//11 215//11 48//11 104//11
f 202//12 203//12 51//12 52//12
f 204//12 202//12 52//12 53//12
f 205//12 206//12 55//12 54//12
f 206//12 207//12 56//12 55//12
f 211//12 204//12 53//12 124//12
f 208//12 205//12 54//12 107//12
f 118//23 116//23 58//23 61//23
f 116//24 117//24 62//24 58//24
f 157//10 156//10 60//10 57//10
f 158//12 155//12 62//12 117//12
f 154//7 153//7 61//7 58//7
f 152//10 157//10 57//10 59//10
f 120//25 119//25 64//25 68//25
f 119//26 121//26 67//26 64//26
f 167//10 166//10 65//10 63//10
f 168//11 165//11 67//11 121//11
f 164//7 163//7 68//7 64//7
f 162//10 167//10 63//10 66//10
f 2//7 16//7 10//7 8//7
f 4//7 2//7 8//7 6//7
f 36//10 54//10 55//10 69//10
f 49//10 69//10 43//10 48//10
f 50//10 36//10 69//10 49//10
f 85//7 80//7 76//7 77//7
f 82//7 79//7 74//7 72//7
f 84//7 78//7 71//7 75//7
f 83//7 85//7 77//7 73//7
f 80//7 84//7 75//7 76//7
f 79//7 83//7 73//7 74//7
f 81//7 82//7 72//7 70//7
f 78//7 81//7 70//7 71//7
f 15//7 1//7 81//7 78//7
f 1//7 3//7 82//7 81//7
f 5//7 7//7 83//7 79//7
f 11//7 13//7 84//7 80//7
f 7//7 9//7 85//7 83//7
f 13//7 15//7 78//7 84//7
f 3//7 5//7 79//7 82//7
f 9//7 11//7 80//7 85//7
f 100//9 93//9 86//9 101//9
f 99//8 92//8 93//8 100//8
f 98//6 91//6 92//6 99//6
f 97//5 90//5 91//5 98//5
f 96//4 89//4 90//4 97//4
f 95//3 88//3 89//3 96//3
f 94//2 87//2 88//2 95//2
f 101//1 86//1 87//1 94//1
f 1//1 101//1 94//1 3//1
f 3//2 94//2 95//2 5//2
f 5//3 95//3 96//3 7//3
f 7//4 96//4 97//4 9//4
f 9//5 97//5 98//5 11//5
f 11//6 98//6 99//6 13//6
f 13//8 99//8 100//8 15//8
f 15//9 100//9 101//9 1//9
f 170//11 168//11 121//11 137//11
f 141//26 137//26 121//26 119//26
f 136//25 141//25 119//25 120//25
f 160//12 158//12 117//12 134//12
f 140//24 134//24 117//24 116//24
f 135//23 140//23 116//23 118//23
f 210//12 208//12 107//12 125//12
f 207//12 209//12 105//12 56//12
f 220//11 218//11 104//11 123//11
f 217//11 219//11 102//11 50//11
f 150//22 148//22 105//22 124//22
f 147//22 149//22 104//22 48//22
f 176//17 178//17 107//17 54//17
f 180//17 179//17 102//17 122//17
f 163//12 169//12 120//12 68//12
f 139//12 132//12 114//12 106//12
f 153//11 159//11 118//11 61//11
f 138//11 130//11 112//11 103//11
f 133//12 139//12 106//12 115//12
f 131//11 138//11 103//11 113//11
f 41//11 23//11 138//11 131//11
f 34//12 19//12 139//12 133//12
f 23//11 35//11 130//11 138//11
f 19//12 39//12 132//12 139//12
f 174//17 180//17 122//17 47//17
f 143//22 150//22 124//22 53//22
f 213//11 220//11 123//11 45//11
f 203//12 210//12 125//12 51//12
f 59//23 57//23 140//23 135//23
f 57//24 60//24 134//24 140//24
f 156//12 160//12 134//12 60//12
f 66//25 63//25 141//25 136//25
f 63//26 65//26 137//26 141//26
f 166//11 170//11 137//11 65//11
f 209//12 211//12 124//12 105//12
f 219//11 221//11 122//11 102//11
f 149//22 151//22 123//22 104//22
f 178//17 181//17 125//17 107//17
f 169//12 171//12 136//12 120//12
f 159//11 161//11 135//11 118//11
f 110//22 128//22 151//22 149//22
f 20//22 129//22 150//22 143//22
f 30//22 110//22 149//22 147//22
f 129//22 111//22 148//22 150//22
f 111//22 28//22 145//22 148//22
f 128//22 22//22 144//22 151//22
f 29//27 30//27 147//27 146//27
f 28//28 29//28 146//28 145//28
f 22//29 21//29 142//29 144//29
f 21//30 20//30 143//30 142//30
f 189//11 191//11 161//11 159//11
f 187//12 190//12 160//12 156//12
f 182//11 189//11 159//11 153//11
f 190//12 188//12 158//12 160//12
f 185//10 184//10 157//10 152//10
f 186//7 182//7 153//7 154//7
f 188//12 183//12 155//12 158//12
f 184//10 187//10 156//10 157//10
f 191//11 185//11 152//11 161//11
f 183//7 186//7 154//7 155//7
f 199//12 201//12 171//12 169//12
f 197//11 200//11 170//11 166//11
f 192//12 199//12 169//12 163//12
f 200//11 198//11 168//11 170//11
f 195//10 194//10 167//10 162//10
f 196//7 192//7 163//7 164//7
f 198//11 193//11 165//11 168//11
f 194//10 197//10 166//10 167//10
f 201//12 195//12 162//12 171//12
f 193//7 196//7 164//7 165//7
f 109//17 127//17 181//17 178//17
f 24//17 126//17 180//17 174//17
f 126//17 108//17 179//17 180//17
f 26//17 109//17 178//17 176//17
f 127//17 18//17 172//17 181//17
f 108//17 32//17 177//17 179//17
f 32//31 25//31 175//31 177//31
f 25//32 26//32 176//32 175//32
f 17//33 24//33 174//33 173//33
f 18//34 17//34 173//34 172//34
f 30//7 29//7 186//7 183//7
f 129//11 20//11 185//11 191//11
f 21//10 22//10 187//10 184//10
f 110//12 30//12 183//12 188//12
f 29//7 28//7 182//7 186//7
f 20//10 21//10 184//10 185//10
f 128//12 110//12 188//12 190//12
f 28//11 111//11 189//11 182//11
f 22//12 128//12 190//12 187//12
f 111//11 129//11 191//11 189//11
f 26//7 25//7 196//7 193//7
f 126//12 24//12 195//12 201//12
f 17//10 18//10 197//10 194//10
f 109//11 26//11 193//11 198//11
f 25//7 32//7 192//7 196//7
f 24//10 17//10 194//10 195//10
f 127//11 109//11 198//11 200//11
f 32//12 108//12 199//12 192//12
f 18//11 127//11 200//11 197//11
f 108//12 126//12 201//12 199//12
f 114//12 132//12 211//12 209//12
f 34//12 133//12 210//12 203//12
f 42//12 114//12 209//12 207//12
f 133//12 115//12 208//12 210//12
f 115//12 37//12 205//12 208//12
f 132//12 39//12 204//12 211//12
f 27//12 42//12 207//12 206//12
f 37//12 27//12 206//12 205//12
f 39//12 19//12 202//12 204//12
f 19//12 34//12 203//12 202//12
f 112//11 130//11 221//11 219//11
f 41//11 131//11 220//11 213//11
f 38//11 112//11 219//11 217//11
f 131//11 113//11 218//11 220//11
f 113//11 44//11 215//11 218//11
f 130//11 35//11 214//11 221//11
f 31//11 38//11 217//11 216//11
f 44//11 31//11 216//11 215//11
f 35//11 23//11 212//11 214//11
f 23//11 41//11 213//11 212//11
