# Blender v2.79 (sub 0) OBJ File: 'PROVA 2blend.blend'
# www.blender.org
mtllib 914767-74-LP.mtl
o Cylinder.001_Cylinder.003
v 2.963853 0.543724 -2.814339
v 2.963853 1.210340 -2.814339
v 3.966296 0.543724 -2.935161
v 3.966296 1.210340 -2.935161
v 3.963853 0.543724 -1.929749
v 3.963853 1.210340 -1.929749
v 3.966296 0.543724 -0.966043
v 3.966296 1.210340 -0.966043
v 2.963853 0.543724 -1.074956
v 2.963853 1.210340 -1.074956
v 1.963705 0.543724 -0.966043
v 1.963705 1.210340 -0.966043
v 1.963853 0.543724 -1.929749
v 1.963853 1.210340 -1.929749
v 1.963705 0.543724 -2.935161
v 1.963705 1.210340 -2.935161
v 3.074538 1.210340 -2.040435
v 2.963853 1.210340 -2.086282
v 3.120386 1.210340 -1.929749
v 3.074538 1.210340 -1.819064
v 2.963853 1.210340 -1.773216
v 2.853167 1.210340 -1.819064
v 2.807320 1.210340 -1.929749
v 2.853167 1.210340 -2.040434
v 3.966296 1.210340 -0.777977
v 3.966296 0.543724 -0.777977
v 2.963853 0.543724 -0.886890
v 2.963853 1.210340 -0.886890
v 1.963705 0.543724 -0.777977
v 1.963705 1.210340 -0.777977
v 4.090119 1.210340 -2.935162
v 4.090119 0.543724 -2.935162
v 4.087676 0.543724 -1.929749
v 4.087676 1.210340 -1.929749
v 4.090119 0.543724 -0.930246
v 4.090119 1.210340 -0.930246
v 4.090119 0.543724 -0.742180
v 4.090119 1.210340 -0.742180
v 2.963853 0.543724 -2.890283
v 3.966296 0.543724 -3.011105
v 3.966296 1.210340 -3.011105
v 2.963853 1.210340 -2.890283
v 1.963705 1.210340 -2.983958
v 1.963705 0.543724 -2.983958
v 4.090119 1.210340 -3.011106
v 4.090119 0.543724 -3.011106
v 1.864938 1.210340 -0.930246
v 1.864938 0.543724 -0.930246
v 1.865086 0.543724 -1.929749
v 1.865086 1.210340 -1.929749
v 1.864938 0.543724 -2.935161
v 1.864938 1.210340 -2.935161
v 1.864938 1.210340 -0.742180
v 1.864938 0.543724 -0.742180
v 1.864938 1.210340 -3.011105
v 1.864938 0.543724 -3.011105
v 1.802248 1.210340 -0.930246
v 1.802248 0.543724 -0.930246
v 1.802395 0.543724 -1.929749
v 1.802395 1.210340 -1.929749
v 1.802248 0.543724 -2.935161
v 1.802248 1.210340 -2.935161
v 1.802248 1.210340 -0.742180
v 1.802248 0.543724 -0.742180
v 1.802248 1.210340 -3.011105
v 1.802248 0.543724 -3.011105
v 2.038031 0.543724 -2.907612
v 2.038031 1.210340 -2.907612
v 2.861393 1.210340 -2.043842
v 2.038031 0.543724 -2.983556
v 2.038031 1.210340 -2.983556
v 3.876889 0.543724 -2.907532
v 3.876889 1.210340 -2.907532
v 3.064666 1.210340 -2.044524
v 3.876889 0.543724 -2.983476
v 3.876889 1.210340 -2.983476
v 3.966296 1.067283 -0.777977
v 2.963853 1.067283 -0.886890
v 1.963705 1.067283 -0.777977
v 4.090119 1.067283 -2.935162
v 4.087676 1.067283 -1.929749
v 4.090119 1.067283 -0.930246
v 4.090119 1.067283 -0.742180
v 2.963853 1.067283 -2.890283
v 3.966296 1.067283 -3.011105
v 1.963705 1.067283 -2.983958
v 4.090119 1.067283 -3.011106
v 1.864938 1.067283 -0.742180
v 1.864938 1.067283 -3.011105
v 1.802248 1.067283 -0.930246
v 1.802395 1.067283 -1.929749
v 1.802248 1.067283 -2.935161
v 1.802248 1.067283 -0.742180
v 1.802248 1.067283 -3.011105
v 2.038031 1.067283 -2.983556
v 3.876889 1.067283 -2.983476
v 3.966296 0.685521 -0.777977
v 2.963853 0.685521 -0.886890
v 1.963705 0.685521 -0.777977
v 4.090119 0.685521 -2.935162
v 4.087676 0.685521 -1.929749
v 4.090119 0.685521 -0.930246
v 4.090119 0.685521 -0.742180
v 3.966296 0.685521 -3.011105
v 1.963705 0.685521 -2.983958
v 4.090119 0.685521 -3.011106
v 1.864938 0.685521 -0.742180
v 1.864938 0.685521 -3.011105
v 1.802248 0.685521 -0.930246
v 1.802395 0.685521 -1.929749
v 1.802248 0.685521 -2.935161
v 1.802248 0.685521 -0.742180
v 1.802248 0.685521 -3.011105
v 2.038031 0.685521 -2.983556
v 3.876889 0.685521 -2.983476
v 2.963853 0.685521 -2.890283
v 2.963853 1.067283 -1.090578
v 1.963705 1.067283 -0.981664
v 3.966296 1.067283 -0.981664
v 3.966296 0.685521 -0.981664
v 2.963853 0.685521 -1.090578
v 1.963705 0.685521 -0.981664
v 2.963851 0.685521 -2.694094
v 2.963851 1.067283 -2.694094
v 3.876887 1.067283 -2.814434
v 2.038029 1.067283 -2.787367
v 2.038029 0.685521 -2.787367
v 3.876887 0.685521 -2.814434
v 3.966296 1.040450 -0.777977
v 1.963705 1.040450 -0.777977
v 4.090119 1.040450 -2.935162
v 4.087676 1.040450 -1.929749
v 4.090119 1.040450 -0.930246
v 4.090119 1.040450 -0.742180
v 3.966296 1.040450 -3.011105
v 1.963705 1.040450 -2.983958
v 4.090119 1.040450 -3.011106
v 1.864938 1.040450 -0.742180
v 1.864938 1.040450 -3.011105
v 1.802248 1.040450 -0.930246
v 1.802395 1.040450 -1.929749
v 1.802248 1.040450 -2.935161
v 1.802248 1.040450 -0.742180
v 1.802248 1.040450 -3.011105
v 2.038031 1.040450 -2.983556
v 3.876889 1.040450 -2.983476
v 3.966296 1.040450 -0.981664
v 2.963853 1.040450 -1.090578
v 1.963705 1.040450 -0.981664
v 2.963851 1.040450 -2.694094
v 2.038029 1.040450 -2.787367
v 3.876887 1.040450 -2.814434
v 3.966296 0.707704 -0.777977
v 1.963705 0.707704 -0.777977
v 4.090119 0.707704 -2.935162
v 4.087676 0.707704 -1.929749
v 4.090119 0.707704 -0.930246
v 4.090119 0.707704 -0.742180
v 3.966296 0.707704 -3.011105
v 1.963705 0.707704 -2.983958
v 4.090119 0.707704 -3.011106
v 1.864938 0.707704 -0.742180
v 1.864938 0.707704 -3.011105
v 1.802248 0.707704 -0.930246
v 1.802395 0.707704 -1.929749
v 1.802248 0.707704 -2.935161
v 1.802248 0.707704 -0.742180
v 1.802248 0.707704 -3.011105
v 2.038031 0.707704 -2.983556
v 3.876889 0.707704 -2.983476
v 3.966296 0.707704 -0.981664
v 2.963853 0.707704 -1.090578
v 1.963705 0.707704 -0.981664
v 2.038029 0.707704 -2.787367
v 3.876887 0.707704 -2.814434
v 2.963851 0.707704 -2.694094
v 3.064666 2.032406 -2.044524
v 2.963853 2.032406 -2.086282
v 3.120386 2.032406 -1.929749
v 3.074538 2.032406 -2.040435
v 3.074538 2.032406 -1.819064
v 2.963853 2.032406 -1.773216
v 2.853167 2.032406 -1.819064
v 2.807320 2.032406 -1.929749
v 2.853167 2.032406 -2.040434
v 2.861393 2.032406 -2.043842
v 3.054033 2.032406 -2.018852
v 2.963853 2.032406 -2.056206
v 3.090309 2.032406 -1.929749
v 3.053271 2.032406 -2.019167
v 3.053271 2.032406 -1.840331
v 2.963853 2.032406 -1.803292
v 2.874434 2.032406 -1.840331
v 2.837396 2.032406 -1.929749
v 2.874434 2.032406 -2.019167
v 2.872026 2.032406 -2.018170
v 3.054033 1.151110 -2.018852
v 2.963853 1.151110 -2.056206
v 3.090309 1.151110 -1.929749
v 3.053271 1.151110 -2.019167
v 3.053271 1.151110 -1.840331
v 2.963853 1.151110 -1.803292
v 2.874434 1.151110 -1.840331
v 2.837396 1.151110 -1.929749
v 2.874434 1.151110 -2.019167
v 2.872026 1.151110 -2.018170
v 2.786278 1.210340 -2.107719
v 2.963853 1.210340 -2.141033
v 3.141599 1.210340 -2.107719
v 3.183815 1.210340 -1.929749
v 3.141600 1.210340 -1.754915
v 2.786278 1.210340 -1.754915
v 2.743890 1.210340 -1.929749
v 2.963853 1.210340 -1.720706
v 2.799475 1.210340 -2.108799
v 3.125746 1.210340 -2.109423
v 3.090309 1.189707 -1.929749
v 3.053271 1.189707 -1.840331
v 3.054033 1.189707 -2.018852
v 3.053271 1.189707 -2.019167
v 2.837396 1.189707 -1.929749
v 2.874434 1.189707 -2.019167
v 2.963853 1.189707 -1.803292
v 2.963853 1.189707 -2.056206
v 2.872026 1.189707 -2.018170
v 2.874434 1.189707 -1.840331
v 2.861393 1.435200 -2.043842
v 2.963853 1.435200 -2.086282
v 3.064666 1.435200 -2.044524
v 2.853167 1.435200 -2.040434
v 2.963853 1.435200 -1.773216
v 2.853167 1.435200 -1.819064
v 3.074538 1.435200 -2.040435
v 3.120386 1.435200 -1.929749
v 2.807320 1.435200 -1.929749
v 3.074538 1.435200 -1.819064
v 2.188757 0.543724 -2.892427
v 2.188757 0.543724 -2.968371
v 2.188757 1.210340 -2.892427
v 2.878073 1.210340 -2.050751
v 2.188757 1.210340 -2.968371
v 2.188757 1.067283 -2.968371
v 2.188757 0.685521 -2.968371
v 2.188756 1.067283 -2.772182
v 2.188756 0.685521 -2.772182
v 2.188756 1.040450 -2.772182
v 2.188756 0.707704 -2.772182
v 2.878073 2.032406 -2.050751
v 2.886976 2.032406 -2.024362
v 2.886976 1.151110 -2.024362
v 2.826236 1.210340 -2.114046
v 2.886976 1.189707 -2.024362
v 2.878073 1.435200 -2.050751
v 3.722312 1.210340 -2.891754
v 3.047599 1.210340 -2.051593
v 3.722312 1.210340 -2.967698
v 3.722312 0.543724 -2.891754
v 3.722312 0.543724 -2.967698
v 3.722312 1.067283 -2.967698
v 3.722312 0.685521 -2.967698
v 3.722311 1.067283 -2.794060
v 3.722311 0.685521 -2.794060
v 3.722311 1.040450 -2.794060
v 3.722311 0.707704 -2.794060
v 3.047599 2.032406 -2.051593
v 3.038765 2.032406 -2.025176
v 3.038765 1.151110 -2.025176
v 3.098338 1.210340 -2.114775
v 3.038765 1.189707 -2.025176
v 3.047599 1.435200 -2.051593
v 2.345792 0.543724 -1.007651
v 2.345792 1.210340 -1.007651
v 2.895452 1.210340 -1.801548
v 2.345792 0.543724 -0.819585
v 2.345792 1.210340 -0.819585
v 2.345792 1.067283 -0.819585
v 2.345792 0.685521 -0.819585
v 2.345792 1.067283 -1.023273
v 2.345792 0.685521 -1.023273
v 2.345792 1.040450 -1.023273
v 2.345792 0.707704 -1.023273
v 2.895452 2.032406 -1.801548
v 2.908595 2.032406 -1.826181
v 2.908595 1.151110 -1.826181
v 2.854117 1.210340 -1.741846
v 2.908595 1.189707 -1.826181
v 2.895452 1.435200 -1.801548
v 3.671459 0.543724 -0.998076
v 3.671460 1.210340 -0.998076
v 3.041984 1.210340 -1.805579
v 3.671459 0.543724 -0.810010
v 3.671460 1.210340 -0.810010
v 3.671459 1.067283 -0.810010
v 3.671459 0.685521 -0.810010
v 3.671459 1.067283 -1.013698
v 3.671459 0.685521 -1.013698
v 3.671459 1.040450 -1.013698
v 3.671459 0.707704 -1.013698
v 3.041984 2.032406 -1.805579
v 3.026972 2.032406 -1.829437
v 3.026972 1.151110 -1.829437
v 3.089321 1.210340 -1.744854
v 3.026972 1.189707 -1.829437
v 3.041984 1.435200 -1.805579
vn 0.0000 1.0000 0.0000
vn 0.0000 -1.0000 -0.0000
vn 0.2650 0.0000 -0.9642
vn -0.3827 0.0000 -0.9239
vn -0.1080 0.0000 0.9941
vn 0.1083 0.0000 0.9941
vn 1.0000 0.0000 0.0024
vn 1.0000 0.0000 -0.0024
vn 1.0000 0.0000 0.0000
vn -0.2777 0.0000 0.9607
vn -0.2953 0.0000 -0.9554
vn 0.1002 0.0000 -0.9950
vn -0.0000 0.0000 -1.0000
vn 0.3408 0.0000 0.9402
vn -1.0000 0.0000 0.0000
vn -1.0000 0.0000 -0.0001
vn -1.0000 0.0000 0.0001
vn 0.0000 0.0000 1.0000
vn 0.0054 0.0000 -1.0000
vn -0.1015 0.0000 -0.9948
vn -0.1307 0.0000 -0.9914
vn 0.3827 0.0000 -0.9239
vn -0.3827 0.0000 0.9239
vn 0.9239 0.0000 -0.3827
vn -0.9239 0.0000 0.3827
vn 0.9239 0.0000 0.3827
vn -0.9239 0.0000 -0.3827
vn 0.3827 0.0000 0.9239
vn -0.3826 0.0000 -0.9239
usemtl None
s off
f 73//1 4//1 41//1 76//1
f 5//2 3//2 32//2 33//2
f 6//1 8//1 36//1 34//1
f 16//1 43//1 55//1 52//1
f 288//2 7//2 26//2 291//2
f 105//3 44//3 56//3 108//3
f 215//1 207//1 24//1 69//1
f 11//2 29//2 54//2 48//2
f 239//1 2//1 42//1 241//1
f 1//2 257//2 72//2 3//2 5//2 7//2 288//2 9//2 271//2 11//2 13//2 15//2 67//2 237//2
f 253//4 227//4 186//4 248//4
f 268//1 208//1 18//1 255//1
f 211//1 210//1 19//1 20//1
f 213//1 212//1 22//1 23//1
f 302//1 211//1 20//1 290//1
f 207//1 213//1 23//1 24//1
f 210//1 209//1 17//1 19//1
f 285//1 214//1 21//1 273//1
f 293//5 292//5 28//5 78//5
f 276//6 275//6 30//6 79//6
f 271//2 9//2 27//2 274//2
f 289//1 10//1 28//1 292//1
f 26//2 7//2 35//2 37//2
f 272//1 12//1 30//1 275//1
f 80//7 31//7 34//7 81//7
f 81//8 34//8 36//8 82//8
f 82//9 36//9 38//9 83//9
f 8//1 25//1 38//1 36//1
f 97//10 26//10 37//10 103//10
f 7//2 5//2 33//2 35//2
f 4//1 6//1 34//1 31//1
f 4//1 31//1 45//1 41//1
f 96//11 76//11 41//11 85//11
f 242//12 241//12 42//12 84//12
f 85//13 41//13 45//13 87//13
f 12//1 14//1 50//1 47//1
f 100//9 32//9 46//9 106//9
f 257//2 1//2 39//2 258//2
f 67//2 15//2 44//2 70//2
f 32//2 3//2 40//2 46//2
f 56//2 51//2 61//2 66//2
f 50//1 52//1 62//1 60//1
f 48//2 54//2 64//2 58//2
f 49//2 48//2 58//2 59//2
f 30//1 12//1 47//1 53//1
f 44//2 15//2 51//2 56//2
f 79//14 30//14 53//14 88//14
f 15//2 13//2 49//2 51//2
f 13//2 11//2 48//2 49//2
f 14//1 16//1 52//1 50//1
f 109//15 58//15 64//15 112//15
f 90//16 57//16 60//16 91//16
f 91//17 60//17 62//17 92//17
f 92//15 62//15 65//15 94//15
f 47//1 50//1 60//1 57//1
f 53//1 47//1 57//1 63//1
f 108//13 56//13 66//13 113//13
f 88//18 53//18 63//18 93//18
f 51//2 49//2 59//2 61//2
f 52//1 55//1 65//1 62//1
f 237//2 67//2 70//2 238//2
f 86//19 43//19 71//19 95//19
f 16//1 68//1 71//1 43//1
f 251//1 215//1 69//1 240//1
f 3//2 72//2 75//2 40//2
f 259//20 256//20 76//20 96//20
f 209//1 216//1 74//1 17//1
f 254//1 73//1 76//1 256//1
f 243//1 114//1 127//1 245//1
f 136//19 86//19 95//19 145//19
f 138//18 88//18 93//18 143//18
f 55//13 89//13 94//13 65//13
f 142//15 92//15 94//15 144//15
f 141//17 91//17 92//17 142//17
f 140//16 90//16 91//16 141//16
f 57//15 90//15 93//15 63//15
f 130//14 79//14 88//14 138//14
f 31//9 80//9 87//9 45//9
f 135//13 85//13 87//13 137//13
f 145//9 95//9 126//9 151//9
f 146//11 96//11 85//11 135//11
f 25//10 77//10 83//10 38//10
f 133//9 82//9 83//9 134//9
f 132//8 81//8 82//8 133//8
f 131//7 80//7 81//7 132//7
f 129//15 77//15 119//15 147//15
f 154//9 99//9 122//9 173//9
f 43//3 86//3 89//3 55//3
f 291//5 294//5 98//5 27//5
f 274//6 277//6 99//6 29//6
f 32//7 100//7 101//7 33//7
f 33//8 101//8 102//8 35//8
f 35//9 102//9 103//9 37//9
f 75//11 115//11 104//11 40//11
f 238//12 243//12 116//12 39//12
f 40//13 104//13 106//13 46//13
f 29//14 99//14 107//14 54//14
f 58//16 109//16 110//16 59//16
f 59//17 110//17 111//17 61//17
f 61//15 111//15 113//15 66//15
f 54//18 107//18 112//18 64//18
f 44//19 105//19 114//19 70//19
f 258//20 260//20 115//20 75//20
f 163//13 108//13 113//13 168//13
f 164//15 109//15 112//15 167//15
f 155//9 100//9 106//9 161//9
f 153//10 97//10 103//10 158//10
f 160//3 105//3 108//3 163//3
f 280//6 278//6 118//6 149//6
f 297//5 295//5 117//5 148//5
f 294//1 97//1 120//1 296//1
f 293//2 78//2 117//2 295//2
f 277//1 98//1 121//1 279//1
f 276//2 79//2 118//2 278//2
f 263//21 261//21 125//21 152//21
f 246//12 244//12 124//12 150//12
f 259//2 96//2 125//2 261//2
f 242//2 84//2 124//2 244//2
f 170//15 115//15 128//15 175//15
f 260//1 116//1 123//1 262//1
f 96//15 146//15 152//15 125//15
f 247//12 246//12 150//12 176//12
f 264//21 263//21 152//21 175//21
f 298//5 297//5 148//5 172//5
f 281//6 280//6 149//6 173//6
f 86//3 136//3 139//3 89//3
f 77//10 129//10 134//10 83//10
f 80//9 131//9 137//9 87//9
f 90//15 140//15 143//15 93//15
f 89//13 139//13 144//13 94//13
f 79//9 130//9 149//9 118//9
f 153//15 129//15 147//15 171//15
f 155//7 131//7 132//7 156//7
f 156//8 132//8 133//8 157//8
f 157//9 133//9 134//9 158//9
f 170//11 146//11 135//11 159//11
f 169//9 145//9 151//9 174//9
f 159//13 135//13 137//13 161//13
f 154//14 130//14 138//14 162//14
f 164//16 140//16 141//16 165//16
f 165//17 141//17 142//17 166//17
f 166//15 142//15 144//15 168//15
f 162//18 138//18 143//18 167//18
f 160//19 136//19 145//19 169//19
f 105//19 160//19 169//19 114//19
f 107//18 162//18 167//18 112//18
f 111//15 166//15 168//15 113//15
f 110//17 165//17 166//17 111//17
f 109//16 164//16 165//16 110//16
f 99//14 154//14 162//14 107//14
f 104//13 159//13 161//13 106//13
f 114//9 169//9 174//9 127//9
f 115//11 170//11 159//11 104//11
f 102//9 157//9 158//9 103//9
f 101//8 156//8 157//8 102//8
f 100//7 155//7 156//7 101//7
f 97//15 153//15 171//15 120//15
f 279//6 281//6 173//6 122//6
f 296//5 298//5 172//5 121//5
f 262//21 264//21 175//21 128//21
f 245//12 247//12 176//12 123//12
f 146//15 170//15 175//15 152//15
f 136//3 160//3 163//3 139//3
f 129//10 153//10 158//10 134//10
f 131//9 155//9 161//9 137//9
f 140//15 164//15 167//15 143//15
f 139//13 163//13 168//13 144//13
f 130//9 154//9 173//9 149//9
f 184//1 183//1 193//1 194//1
f 270//22 228//22 178//22 265//22
f 227//4 230//4 185//4 186//4
f 287//23 231//23 182//23 282//23
f 234//24 233//24 180//24 179//24
f 235//25 232//25 183//25 184//25
f 236//26 234//26 179//26 181//26
f 233//22 229//22 177//22 180//22
f 230//27 235//27 184//27 185//27
f 304//28 236//28 181//28 299//28
f 218//27 217//27 199//27 201//27
f 181//1 179//1 189//1 191//1
f 180//1 177//1 187//1 190//1
f 185//1 184//1 194//1 195//1
f 299//1 181//1 191//1 300//1
f 265//1 178//1 188//1 266//1
f 186//1 185//1 195//1 196//1
f 282//1 182//1 192//1 283//1
f 179//1 180//1 190//1 189//1
f 248//1 186//1 196//1 249//1
f 200//1 197//1 267//1 198//1 250//1 206//1 205//1 204//1 203//1 284//1 202//1 301//1 201//1 199//1
f 220//22 219//22 197//22 200//22
f 222//26 221//26 204//26 205//26
f 303//4 218//4 201//4 301//4
f 269//23 224//23 198//23 267//23
f 225//4 222//4 205//4 206//4
f 286//22 223//22 202//22 284//22
f 217//25 220//25 200//25 199//25
f 252//28 225//28 206//28 250//28
f 221//24 226//24 203//24 204//24
f 4//1 73//1 216//1 209//1
f 239//1 68//1 215//1 251//1
f 272//1 10//1 214//1 285//1
f 6//1 4//1 209//1 210//1
f 16//1 14//1 213//1 207//1
f 289//1 8//1 211//1 302//1
f 14//1 12//1 212//1 213//1
f 8//1 6//1 210//1 211//1
f 254//1 2//1 208//1 268//1
f 68//1 16//1 207//1 215//1
f 194//24 193//24 226//24 221//24
f 249//28 196//28 225//28 252//28
f 189//25 190//25 220//25 217//25
f 283//22 192//22 223//22 286//22
f 196//29 195//29 222//29 225//29
f 266//23 188//23 224//23 269//23
f 300//4 191//4 218//4 303//4
f 195//26 194//26 221//26 222//26
f 190//22 187//22 219//22 220//22
f 191//27 189//27 217//27 218//27
f 290//28 20//28 236//28 304//28
f 24//27 23//27 235//27 230//27
f 17//22 74//22 229//22 233//22
f 20//26 19//26 234//26 236//26
f 23//25 22//25 232//25 235//25
f 19//24 17//24 233//24 234//24
f 273//23 21//23 231//23 287//23
f 69//4 24//4 230//4 227//4
f 255//22 18//22 228//22 270//22
f 240//4 69//4 227//4 253//4
f 18//4 240//4 253//4 228//4
f 188//28 249//28 252//28 224//28
f 2//1 239//1 251//1 208//1
f 224//28 252//28 250//28 198//28
f 178//1 248//1 249//1 188//1
f 127//12 174//12 247//12 245//12
f 174//12 151//12 246//12 247//12
f 95//2 242//2 244//2 126//2
f 151//12 126//12 244//12 246//12
f 70//12 114//12 243//12 238//12
f 116//1 243//1 245//1 123//1
f 208//1 251//1 240//1 18//1
f 1//2 237//2 238//2 39//2
f 95//12 71//12 241//12 242//12
f 228//4 253//4 248//4 178//4
f 68//1 239//1 241//1 71//1
f 74//22 255//22 270//22 229//22
f 187//23 266//23 269//23 219//23
f 73//1 254//1 268//1 216//1
f 219//23 269//23 267//23 197//23
f 177//1 265//1 266//1 187//1
f 229//22 270//22 265//22 177//22
f 123//21 176//21 264//21 262//21
f 176//21 150//21 263//21 264//21
f 115//1 260//1 262//1 128//1
f 84//2 259//2 261//2 124//2
f 150//21 124//21 261//21 263//21
f 39//20 116//20 260//20 258//20
f 2//1 254//1 256//1 42//1
f 84//20 42//20 256//20 259//20
f 72//2 257//2 258//2 75//2
f 216//1 268//1 255//1 74//1
f 22//23 273//23 287//23 232//23
f 193//22 283//22 286//22 226//22
f 12//1 272//1 285//1 212//1
f 226//22 286//22 284//22 203//22
f 183//1 282//1 283//1 193//1
f 232//23 287//23 282//23 183//23
f 121//6 172//6 281//6 279//6
f 172//6 148//6 280//6 281//6
f 78//2 276//2 278//2 117//2
f 99//1 277//1 279//1 122//1
f 148//6 117//6 278//6 280//6
f 27//6 98//6 277//6 274//6
f 10//1 272//1 275//1 28//1
f 11//2 271//2 274//2 29//2
f 78//6 28//6 275//6 276//6
f 212//1 285//1 273//1 22//1
f 21//28 290//28 304//28 231//28
f 192//4 300//4 303//4 223//4
f 10//1 289//1 302//1 214//1
f 223//4 303//4 301//4 202//4
f 182//1 299//1 300//1 192//1
f 231//28 304//28 299//28 182//28
f 120//5 171//5 298//5 296//5
f 171//5 147//5 297//5 298//5
f 77//2 293//2 295//2 119//2
f 98//1 294//1 296//1 121//1
f 147//5 119//5 295//5 297//5
f 26//5 97//5 294//5 291//5
f 8//1 289//1 292//1 25//1
f 77//5 25//5 292//5 293//5
f 214//1 302//1 290//1 21//1
f 9//2 288//2 291//2 27//2
