  0
SECTION
  2
HEADER
  9
$ACADVER
  1
AC1014
  9
$ACADMAINTVER
 70
     9
  9
$DWGCODEPAGE
  3
ANSI_1252
  9
$INSBASE
 10
0.0
 20
0.0
 30
0.0
  9
$EXTMIN
 10
-0.0000000000000009
 20
-1.187475323677063
 30
-0.0000000000000001
  9
$EXTMAX
 10
5.499284744262695
 20
1.003311157226562
 30
2.207664728164673
  9
$LIMMIN
 10
0.0
 20
0.0
  9
$LIMMAX
 10
12.0
 20
9.0
  9
$ORTHOMODE
 70
     0
  9
$REGENMODE
 70
     1
  9
$FILLMODE
 70
     1
  9
$QTEXTMODE
 70
     0
  9
$MIRRTEXT
 70
     1
  9
$DRAGMODE
 70
     2
  9
$LTSCALE
 40
1.0
  9
$OSMODE
 70
     1
  9
$ATTMODE
 70
     1
  9
$TEXTSIZE
 40
1.0
  9
$TRACEWID
 40
0.05
  9
$TEXTSTYLE
  7
STANDARD
  9
$CLAYER
  8
0
  9
$CELTYPE
  6
BYBLOCK
  9
$CECOLOR
 62
   256
  9
$CELTSCALE
 40
1.0
  9
$DELOBJ
 70
     1
  9
$DISPSILH
 70
     0
  9
$DIMSCALE
 40
1.0
  9
$DIMASZ
 40
0.18
  9
$DIMEXO
 40
0.0625
  9
$DIMDLI
 40
0.38
  9
$DIMRND
 40
0.0
  9
$DIMDLE
 40
0.0
  9
$DIMEXE
 40
0.18
  9
$DIMTP
 40
0.0
  9
$DIMTM
 40
0.0
  9
$DIMTXT
 40
0.18
  9
$DIMCEN
 40
0.09
  9
$DIMTSZ
 40
0.0
  9
$DIMTOL
 70
     0
  9
$DIMLIM
 70
     0
  9
$DIMTIH
 70
     1
  9
$DIMTOH
 70
     1
  9
$DIMSE1
 70
     0
  9
$DIMSE2
 70
     0
  9
$DIMTAD
 70
     0
  9
$DIMZIN
 70
     0
  9
$DIMBLK
  1

  9
$DIMASO
 70
     1
  9
$DIMSHO
 70
     1
  9
$DIMPOST
  1

  9
$DIMAPOST
  1

  9
$DIMALT
 70
     0
  9
$DIMALTD
 70
     2
  9
$DIMALTF
 40
25.4
  9
$DIMLFAC
 40
1.0
  9
$DIMTOFL
 70
     0
  9
$DIMTVP
 40
0.0
  9
$DIMTIX
 70
     0
  9
$DIMSOXD
 70
     0
  9
$DIMSAH
 70
     0
  9
$DIMBLK1
  1

  9
$DIMBLK2
  1

  9
$DIMSTYLE
  2
STANDARD
  9
$DIMCLRD
 70
     0
  9
$DIMCLRE
 70
     0
  9
$DIMCLRT
 70
     0
  9
$DIMTFAC
 40
1.0
  9
$DIMGAP
 40
0.09
  9
$DIMJUST
 70
     0
  9
$DIMSD1
 70
     0
  9
$DIMSD2
 70
     0
  9
$DIMTOLJ
 70
     1
  9
$DIMTZIN
 70
     0
  9
$DIMALTZ
 70
     0
  9
$DIMALTTZ
 70
     0
  9
$DIMFIT
 70
     5
  9
$DIMUPT
 70
     0
  9
$DIMUNIT
 70
     2
  9
$DIMDEC
 70
     4
  9
$DIMTDEC
 70
     4
  9
$DIMALTU
 70
     2
  9
$DIMALTTD
 70
     2
  9
$DIMTXSTY
  7
STANDARD
  9
$DIMAUNIT
 70
     0
  9
$LUNITS
 70
     2
  9
$LUPREC
 70
     4
  9
$SKETCHINC
 40
0.1
  9
$FILLETRAD
 40
0.5
  9
$AUNITS
 70
     0
  9
$AUPREC
 70
     0
  9
$MENU
  1
.
  9
$ELEVATION
 40
0.0
  9
$PELEVATION
 40
0.0
  9
$THICKNESS
 40
0.0
  9
$LIMCHECK
 70
     0
  9
$CHAMFERA
 40
0.0
  9
$CHAMFERB
 40
0.0
  9
$CHAMFERC
 40
0.0
  9
$CHAMFERD
 40
0.0
  9
$SKPOLY
 70
     0
  9
$TDCREATE
 40
2458437.944475197
  9
$TDUPDATE
 40
2458437.949462338
  9
$TDINDWG
 40
0.000000081
  9
$TDUSRTIMER
 40
0.004956412
  9
$USRTIMER
 70
     1
  9
$ANGBASE
 50
0.0
  9
$ANGDIR
 70
     0
  9
$PDMODE
 70
     0
  9
$PDSIZE
 40
0.0
  9
$PLINEWID
 40
0.0
  9
$COORDS
 70
     1
  9
$SPLFRAME
 70
     0
  9
$SPLINETYPE
 70
     6
  9
$SPLINESEGS
 70
     8
  9
$ATTDIA
 70
     0
  9
$ATTREQ
 70
     1
  9
$HANDLING
 70
     1
  9
$HANDSEED
  5
5B1
  9
$SURFTAB1
 70
     6
  9
$SURFTAB2
 70
     6
  9
$SURFTYPE
 70
     6
  9
$SURFU
 70
     6
  9
$SURFV
 70
     6
  9
$UCSNAME
  2

  9
$UCSORG
 10
0.0
 20
0.0
 30
0.0
  9
$UCSXDIR
 10
1.0
 20
0.0
 30
0.0
  9
$UCSYDIR
 10
0.0
 20
1.0
 30
0.0
  9
$PUCSNAME
  2

  9
$PUCSORG
 10
0.0
 20
0.0
 30
0.0
  9
$PUCSXDIR
 10
1.0
 20
0.0
 30
0.0
  9
$PUCSYDIR
 10
0.0
 20
1.0
 30
0.0
  9
$USERI1
 70
     0
  9
$USERI2
 70
     0
  9
$USERI3
 70
     0
  9
$USERI4
 70
     0
  9
$USERI5
 70
     0
  9
$USERR1
 40
0.0
  9
$USERR2
 40
0.0
  9
$USERR3
 40
0.0
  9
$USERR4
 40
0.0
  9
$USERR5
 40
0.0
  9
$WORLDVIEW
 70
     1
  9
$SHADEDGE
 70
     3
  9
$SHADEDIF
 70
    70
  9
$TILEMODE
 70
     1
  9
$MAXACTVP
 70
    64
  9
$PINSBASE
 10
0.0
 20
0.0
 30
0.0
  9
$PLIMCHECK
 70
     0
  9
$PEXTMIN
 10
1.000000000000000E+20
 20
1.000000000000000E+20
 30
1.000000000000000E+20
  9
$PEXTMAX
 10
-1.000000000000000E+20
 20
-1.000000000000000E+20
 30
-1.000000000000000E+20
  9
$PLIMMIN
 10
0.0
 20
0.0
  9
$PLIMMAX
 10
0.0
 20
0.0
  9
$UNITMODE
 70
     0
  9
$VISRETAIN
 70
     1
  9
$PLINEGEN
 70
     0
  9
$PSLTSCALE
 70
     1
  9
$TREEDEPTH
 70
  3020
  9
$PICKSTYLE
 70
     1
  9
$CMLSTYLE
  2
STANDARD
  9
$CMLJUST
 70
     0
  9
$CMLSCALE
 40
1.0
  9
$PROXYGRAPHICS
 70
     1
  9
$MEASUREMENT
 70
     0
  0
ENDSEC
  0
SECTION
  2
CLASSES
  0
CLASS
  1
ACDBDICTIONARYWDFLT
  2
AcDbDictionaryWithDefault
  3
ObjectDBX Classes
 90
        0
280
     0
281
     0
  0
CLASS
  1
SCALE
  2
AcDbScale
  3
ObjectDBX Classes
 90
     1153
280
     0
281
     0
  0
CLASS
  1
VISUALSTYLE
  2
AcDbVisualStyle
  3
ObjectDBX Classes
 90
     4095
280
     0
281
     0
  0
CLASS
  1
MATERIAL
  2
AcDbMaterial
  3
ObjectDBX Classes
 90
     1153
280
     0
281
     0
  0
CLASS
  1
TABLESTYLE
  2
AcDbTableStyle
  3
ObjectDBX Classes
 90
     4095
280
     0
281
     0
  0
CLASS
  1
MLEADERSTYLE
  2
AcDbMLeaderStyle
  3
ACDB_MLEADERSTYLE_CLASS
 90
     4095
280
     0
281
     0
  0
CLASS
  1
XRECORD
  2
AcDbXrecord
  3
ObjectDBX Classes
 90
        0
280
     0
281
     0
  0
CLASS
  1
LWPOLYLINE
  2
AcDbPolyline
  3
ObjectDBX Classes
 90
        0
280
     0
281
     1
  0
CLASS
  1
HATCH
  2
AcDbHatch
  3
ObjectDBX Classes
 90
        0
280
     0
281
     1
  0
ENDSEC
  0
SECTION
  2
TABLES
  0
TABLE
  2
VPORT
  5
8
330
0
100
AcDbSymbolTable
 70
     1
  0
VPORT
  5
20
330
8
100
AcDbSymbolTableRecord
100
AcDbViewportTableRecord
  2
*ACTIVE
 70
     0
 10
0.0
 20
0.0
 11
1.0
 21
1.0
 12
3.13680205755411
 22
-0.2056211942453608
 13
0.0
 23
0.0
 14
0.1
 24
0.1
 15
0.1
 25
0.1
 16
-0.6382933291848465
 26
-0.6603080815875223
 36
0.3956954173456904
 17
1.37992979015816
 27
2.380028540554232
 37
0.8697346230727113
 40
8.0
 41
1.512230215827338
 42
50.0
 43
0.0
 44
0.0
 50
0.0
 51
0.0
 71
    16
 72
   100
 73
     1
 74
     1
 75
     0
 76
     0
 77
     0
 78
     0
  0
ENDTAB
  0
TABLE
  2
LTYPE
  5
5
330
0
100
AcDbSymbolTable
 70
     8
  0
LTYPE
  5
14
330
5
100
AcDbSymbolTableRecord
100
AcDbLinetypeTableRecord
  2
BYBLOCK
 70
     0
  3

 72
    65
 73
     0
 40
0.0
  0
LTYPE
  5
15
330
5
100
AcDbSymbolTableRecord
100
AcDbLinetypeTableRecord
  2
BYLAYER
 70
     0
  3

 72
    65
 73
     0
 40
0.0
  0
LTYPE
  5
16
330
5
100
AcDbSymbolTableRecord
100
AcDbLinetypeTableRecord
  2
CONTINUOUS
 70
     0
  3
Solid line
 72
    65
 73
     0
 40
0.0
  0
LTYPE
  5
22
330
5
100
AcDbSymbolTableRecord
100
AcDbLinetypeTableRecord
  2
DOT
 70
     0
  3
. . . . . . .
 72
    65
 73
     2
 40
0.25
 49
0.0
 74
     0
 49
-0.25
 74
     0
  0
LTYPE
  5
23
330
5
100
AcDbSymbolTableRecord
100
AcDbLinetypeTableRecord
  2
DASHED
 70
     0
  3
__ __ __ __ __
 72
    65
 73
     2
 40
0.8
 49
0.5
 74
     0
 49
-0.3
 74
     0
  0
LTYPE
  5
24
330
5
100
AcDbSymbolTableRecord
100
AcDbLinetypeTableRecord
  2
DASHDOT
 70
     0
  3
__ . __ . __ .
 72
    65
 73
     4
 40
1.0
 49
0.5
 74
     0
 49
-0.25
 74
     0
 49
0.0
 74
     0
 49
-0.25
 74
     0
  0
LTYPE
  5
25
330
5
100
AcDbSymbolTableRecord
100
AcDbLinetypeTableRecord
  2
DIVIDE
 70
     0
  3
____ . . ____ . . 
 72
    65
 73
     6
 40
1.25
 49
0.5
 74
     0
 49
-0.25
 74
     0
 49
0.0
 74
     0
 49
-0.25
 74
     0
 49
0.0
 74
     0
 49
-0.25
 74
     0
  0
LTYPE
  5
26
330
5
100
AcDbSymbolTableRecord
100
AcDbLinetypeTableRecord
  2
BORDER
 70
     0
  3
__ __ . __ __ . 
 72
    65
 73
     6
 40
1.75
 49
0.5
 74
     0
 49
-0.25
 74
     0
 49
0.5
 74
     0
 49
-0.25
 74
     0
 49
0.0
 74
     0
 49
-0.25
 74
     0
  0
LTYPE
  5
27
330
5
100
AcDbSymbolTableRecord
100
AcDbLinetypeTableRecord
  2
HIDDEN
 70
     0
  3
__ __ __ __ __
 72
    65
 73
     2
 40
0.5
 49
0.25
 74
     0
 49
-0.25
 74
     0
  0
LTYPE
  5
28
330
5
100
AcDbSymbolTableRecord
100
AcDbLinetypeTableRecord
  2
CENTER
 70
     0
  3
____ _ ____ _ __
 72
    65
 73
     4
 40
2.0
 49
1.25
 74
     0
 49
-0.25
 74
     0
 49
0.25
 74
     0
 49
-0.25
 74
     0
  0
ENDTAB
  0
TABLE
  2
LAYER
  5
2
330
0
100
AcDbSymbolTable
 70
     2
  0
LAYER
  5
10
330
2
100
AcDbSymbolTableRecord
100
AcDbLayerTableRecord
  2
0
 70
     0
 62
     7
  6
CONTINUOUS
  0
LAYER
  5
29
330
2
100
AcDbSymbolTableRecord
100
AcDbLayerTableRecord
  2
PYDXF
 70
     0
 62
     7
  6
CONTINUOUS
  0
ENDTAB
  0
TABLE
  2
STYLE
  5
3
330
0
100
AcDbSymbolTable
 70
     1
  0
STYLE
  5
11
330
3
100
AcDbSymbolTableRecord
100
AcDbTextStyleTableRecord
  2
STANDARD
 70
     0
 40
0.0
 41
1.0
 50
0.0
 71
     0
 42
1.0
  3
ARIAL.TTF
  4

  0
ENDTAB
  0
TABLE
  2
VIEW
  5
6
330
0
100
AcDbSymbolTable
 70
     1
  0
VIEW
  5
2B
330
6
100
AcDbSymbolTableRecord
100
AcDbViewTableRecord
  2
BF_TOPVIEW
 70
     0
 40
120.0
 10
0.0
 20
0.0
 41
200.0
 11
0.0
 21
0.0
 31
1.0
 12
0.0
 22
0.0
 32
0.0
 42
50.0
 43
0.0
 44
0.0
 50
0.0
 71
     0
  0
ENDTAB
  0
TABLE
  2
UCS
  5
7
330
0
100
AcDbSymbolTable
 70
     0
  0
ENDTAB
  0
TABLE
  2
APPID
  5
9
330
0
100
AcDbSymbolTable
 70
     1
  0
APPID
  5
12
330
9
100
AcDbSymbolTableRecord
100
AcDbRegAppTableRecord
  2
ACAD
 70
     0
  0
ENDTAB
  0
TABLE
  2
DIMSTYLE
  5
A
330
0
100
AcDbSymbolTable
 70
     1
  0
DIMSTYLE
105
2C
330
A
100
AcDbSymbolTableRecord
100
AcDbDimStyleTableRecord
  2
STANDARD
 70
     0
  3

  4

  5

  6

  7

 40
1.0
 41
0.18
 42
0.0625
 43
0.38
 44
0.18
 45
0.0
 46
0.0
 47
0.0
 48
0.0
140
0.18
141
0.09
142
0.0
143
25.4
144
1.0
145
0.0
146
1.0
147
0.09
 71
     0
 72
     0
 73
     1
 74
     1
 75
     0
 76
     0
 77
     0
 78
     0
170
     0
171
     2
172
     0
173
     0
174
     0
175
     0
176
     0
177
     0
178
     0
270
     2
271
     4
272
     4
273
     2
274
     2
340
11
275
     0
280
     0
281
     0
282
     0
283
     1
284
     0
285
     0
286
     0
287
     3
288
     0
  0
ENDTAB
  0
TABLE
  2
BLOCK_RECORD
  5
1
330
0
100
AcDbSymbolTable
 70
     0
  0
BLOCK_RECORD
  5
1D
330
1
100
AcDbSymbolTableRecord
100
AcDbBlockTableRecord
  2
*MODEL_SPACE
  0
BLOCK_RECORD
  5
1B
330
1
100
AcDbSymbolTableRecord
100
AcDbBlockTableRecord
  2
*PAPER_SPACE
  0
ENDTAB
  0
ENDSEC
  0
SECTION
  2
BLOCKS
  0
BLOCK
  5
97
330
1D
100
AcDbEntity
  8
0
100
AcDbBlockBegin
  2
*MODEL_SPACE
 70
     0
 10
0.0
 20
0.0
 30
0.0
  3
*MODEL_SPACE
  1

  0
ENDBLK
  5
98
330
1D
100
AcDbEntity
  8
0
100
AcDbBlockEnd
  0
BLOCK
  5
99
330
1B
100
AcDbEntity
 67
     1
  8
0
100
AcDbBlockBegin
  2
*PAPER_SPACE
 70
     0
 10
0.0
 20
0.0
 30
0.0
  3
*PAPER_SPACE
  1

  0
ENDBLK
  5
9A
330
1B
100
AcDbEntity
 67
     1
  8
0
100
AcDbBlockEnd
  0
ENDSEC
  0
SECTION
  2
ENTITIES
  0
LWPOLYLINE
  5
172
330
1D
100
AcDbEntity
  8
0
100
AcDbPolyline
 90
       10
 70
     0
 43
0.0
 38
2.153530359268188
 10
5.499284744262695
 20
0.5732756853103638
 10
4.602962017059326
 20
0.5732756853103638
 10
3.935425996780396
 20
0.5930508971214294
 10
3.454767942428589
 20
0.1987638771533966
 10
2.988022804260254
 20
-0.5536059737205505
 10
2.411241769790649
 20
-0.6365377306938171
 10
1.927628040313721
 20
-0.471612274646759
 10
1.281956076622009
 20
0.3002689480781555
 10
0.5657558441162109
 20
0.3382509350776672
 10
0.0
 20
0.3382509350776672
  0
LWPOLYLINE
  5
1EB
330
1D
100
AcDbEntity
  8
0
100
AcDbPolyline
 90
       10
 70
     0
 43
0.0
 38
2.207664728164673
 10
0.0
 20
-0.0082094073295593
 10
0.5657558441162109
 20
-0.0082094073295593
 10
1.187370657920837
 20
-0.112994872033596
 10
1.692753791809082
 20
-0.6640121340751648
 10
2.274878740310669
 20
-1.002281904220581
 10
3.176138877868652
 20
-0.891962468624115
 10
3.758218765258789
 20
0.0619439668953419
 10
4.038384437561035
 20
0.3465513586997986
 10
4.602962017059326
 20
0.2268157601356506
 10
5.499284744262695
 20
0.2268157601356506
  0
LWPOLYLINE
  5
253
330
1D
100
AcDbEntity
  8
0
100
AcDbPolyline
 90
       10
 70
     0
 43
0.0
 38
1.976691246032715
 10
0.0
 20
0.5439617037773132
 10
0.5657558441162109
 20
0.5439617037773132
 10
1.31494402885437
 20
0.4471631050109863
 10
2.04628324508667
 20
-0.384853333234787
 10
2.461727380752563
 20
-0.4822869598865509
 10
2.911703586578369
 20
-0.3925031125545502
 10
3.272301912307739
 20
0.2937537729740143
 10
3.870532512664795
 20
0.7619811296463013
 10
4.602962017059326
 20
0.778986394405365
 10
5.499284744262695
 20
0.778986394405365
  0
POLYLINE
  5
2A2
330
1D
100
AcDbEntity
  8
0
100
AcDb2dPolyline
 66
     1
 10
0.0
 20
0.0
 30
0.5534575581550598
  0
VERTEX
  5
568
330
2A2
100
AcDbEntity
  8
0
100
AcDbVertex
100
AcDb2dVertex
 10
5.499284744262695
 20
0.917831301689148
 30
0.5534575581550598
  0
VERTEX
  5
569
330
2A2
100
AcDbEntity
  8
0
100
AcDbVertex
100
AcDb2dVertex
 10
4.602962017059326
 20
0.917831301689148
 30
0.5534575581550598
  0
VERTEX
  5
56A
330
2A2
100
AcDbEntity
  8
0
100
AcDbVertex
100
AcDb2dVertex
 10
3.789031267166138
 20
1.003311157226562
 30
0.5534575581550598
  0
VERTEX
  5
56B
330
2A2
100
AcDbEntity
  8
0
100
AcDbVertex
100
AcDb2dVertex
 10
3.198729038238525
 20
0.3289447128772736
 30
0.5534575581550598
  0
VERTEX
  5
56C
330
2A2
100
AcDbEntity
  8
0
100
AcDbVertex
100
AcDb2dVertex
 10
2.875096797943115
 20
-0.3005337119102478
 30
0.5534575581550598
  0
VERTEX
  5
56D
330
2A2
100
AcDbEntity
  8
0
100
AcDbVertex
100
AcDb2dVertex
 10
2.502142190933228
 20
-0.3820763230323792
 30
0.5534575581550598
  0
VERTEX
  5
56E
330
2A2
100
AcDbEntity
  8
0
100
AcDbVertex
100
AcDb2dVertex
 10
2.219605445861816
 20
-0.2168763279914856
 30
0.5534575581550598
  0
VERTEX
  5
56F
330
2A2
100
AcDbEntity
  8
0
100
AcDbVertex
100
AcDb2dVertex
 10
1.358370423316956
 20
0.6653329730033875
 30
0.5534575581550598
  0
VERTEX
  5
570
330
2A2
100
AcDbEntity
  8
0
100
AcDbVertex
100
AcDb2dVertex
 10
0.5657558441162109
 20
0.6828064322471619
 30
0.5534575581550598
  0
VERTEX
  5
571
330
2A2
100
AcDbEntity
  8
0
100
AcDbVertex
100
AcDb2dVertex
 10
0.0
 20
0.6828064322471619
 30
0.5534575581550598
  0
SEQEND
  5
572
330
2A2
100
AcDbEntity
  8
0
  0
POLYLINE
  5
36A
330
1D
100
AcDbEntity
  8
0
100
AcDb2dPolyline
 66
     1
 10
0.0
 20
0.0
 30
0.4281463623046875
  0
VERTEX
  5
573
330
36A
100
AcDbEntity
  8
0
100
AcDbVertex
100
AcDb2dVertex
 10
0.0
 20
0.5499767661094666
 30
0.4281463623046875
  0
VERTEX
  5
574
330
36A
100
AcDbEntity
  8
0
100
AcDbVertex
100
AcDb2dVertex
 10
0.5657558441162109
 20
0.5499767661094666
 30
0.4281463623046875
  0
VERTEX
  5
575
330
36A
100
AcDbEntity
  8
0
100
AcDbVertex
100
AcDb2dVertex
 10
1.322168469429016
 20
0.4987226128578186
 30
0.4281463623046875
  0
VERTEX
  5
576
330
36A
100
AcDbEntity
  8
0
100
AcDbVertex
100
AcDb2dVertex
 10
2.118331909179688
 20
-0.3028265833854675
 30
0.4281463623046875
  0
VERTEX
  5
577
330
36A
100
AcDbEntity
  8
0
100
AcDbVertex
100
AcDb2dVertex
 10
2.456200838088989
 20
-0.5067083835601807
 30
0.4281463623046875
  0
VERTEX
  5
578
330
36A
100
AcDbEntity
  8
0
100
AcDbVertex
100
AcDb2dVertex
 10
2.938502788543701
 20
-0.420623779296875
 30
0.4281463623046875
  0
VERTEX
  5
579
330
36A
100
AcDbEntity
  8
0
100
AcDbVertex
100
AcDb2dVertex
 10
3.336779594421387
 20
0.2558077275753021
 30
0.4281463623046875
  0
VERTEX
  5
57A
330
36A
100
AcDbEntity
  8
0
100
AcDbVertex
100
AcDb2dVertex
 10
3.843723058700562
 20
0.8461536169052124
 30
0.4281463623046875
  0
VERTEX
  5
57B
330
36A
100
AcDbEntity
  8
0
100
AcDbVertex
100
AcDb2dVertex
 10
4.602962017059326
 20
0.7850015163421631
 30
0.4281463623046875
  0
VERTEX
  5
57C
330
36A
100
AcDbEntity
  8
0
100
AcDbVertex
100
AcDb2dVertex
 10
5.499284744262695
 20
0.7850015163421631
 30
0.4281463623046875
  0
SEQEND
  5
57D
330
36A
100
AcDbEntity
  8
0
  0
POLYLINE
  5
40E
330
1D
100
AcDbEntity
  8
0
100
AcDb2dPolyline
 66
     1
 10
0.0
 20
0.0
 30
0.4733976125717163
  0
VERTEX
  5
57E
330
40E
100
AcDbEntity
  8
0
100
AcDbVertex
100
AcDb2dVertex
 10
5.499284744262695
 20
0.2228417098522186
 30
0.4733976125717163
  0
VERTEX
  5
57F
330
40E
100
AcDbEntity
  8
0
100
AcDbVertex
100
AcDb2dVertex
 10
4.603025913238525
 20
0.2227058261632919
 30
0.4733976125717163
  0
VERTEX
  5
580
330
40E
100
AcDbEntity
  8
0
100
AcDbVertex
100
AcDb2dVertex
 10
4.121669769287109
 20
0.1320953071117401
 30
0.4733976125717163
  0
VERTEX
  5
581
330
40E
100
AcDbEntity
  8
0
100
AcDbVertex
100
AcDb2dVertex
 10
3.86809229850769
 20
-0.0790628045797348
 30
0.4733976125717163
  0
VERTEX
  5
582
330
40E
100
AcDbEntity
  8
0
100
AcDbVertex
100
AcDb2dVertex
 10
3.278201818466187
 20
-1.015509605407715
 30
0.4733976125717163
  0
VERTEX
  5
583
330
40E
100
AcDbEntity
  8
0
100
AcDbVertex
100
AcDb2dVertex
 10
2.236425876617432
 20
-1.105135560035706
 30
0.4733976125717163
  0
VERTEX
  5
584
330
40E
100
AcDbEntity
  8
0
100
AcDbVertex
100
AcDb2dVertex
 10
1.676471948623657
 20
-0.7420759201049805
 30
0.4733976125717163
  0
VERTEX
  5
585
330
40E
100
AcDbEntity
  8
0
100
AcDbVertex
100
AcDb2dVertex
 10
1.152397513389587
 20
-0.2308100461959839
 30
0.4733976125717163
  0
VERTEX
  5
586
330
40E
100
AcDbEntity
  8
0
100
AcDbVertex
100
AcDb2dVertex
 10
0.5657558441162109
 20
-0.0121830105781555
 30
0.4733976125717163
  0
VERTEX
  5
587
330
40E
100
AcDbEntity
  8
0
100
AcDbVertex
100
AcDb2dVertex
 10
0.0
 20
-0.0121830105781555
 30
0.4733976125717163
  0
SEQEND
  5
588
330
40E
100
AcDbEntity
  8
0
  0
POLYLINE
  5
499
330
1D
100
AcDbEntity
  8
0
100
AcDb2dPolyline
 66
     1
 10
0.0
 20
0.0
 30
0.3567886352539062
  0
VERTEX
  5
589
330
499
100
AcDbEntity
  8
0
100
AcDbVertex
100
AcDb2dVertex
 10
0.0
 20
-0.088762104511261
 30
0.3567886352539062
  0
VERTEX
  5
58A
330
499
100
AcDbEntity
  8
0
100
AcDbVertex
100
AcDb2dVertex
 10
0.5657558441162109
 20
-0.088762104511261
 30
0.3567886352539062
  0
VERTEX
  5
58B
330
499
100
AcDbEntity
  8
0
100
AcDbVertex
100
AcDb2dVertex
 10
1.129077196121216
 20
-0.3255484998226166
 30
0.3567886352539062
  0
VERTEX
  5
58C
330
499
100
AcDbEntity
  8
0
100
AcDbVertex
100
AcDb2dVertex
 10
1.627869963645935
 20
-0.7652486562728882
 30
0.3567886352539062
  0
VERTEX
  5
58D
330
499
100
AcDbEntity
  8
0
100
AcDbVertex
100
AcDb2dVertex
 10
2.206194639205933
 20
-1.187475323677063
 30
0.3567886352539062
  0
VERTEX
  5
58E
330
499
100
AcDbEntity
  8
0
100
AcDbVertex
100
AcDb2dVertex
 10
3.303157567977905
 20
-1.070659041404724
 30
0.3567886352539062
  0
VERTEX
  5
58F
330
499
100
AcDbEntity
  8
0
100
AcDbVertex
100
AcDb2dVertex
 10
3.962165594100952
 20
-0.1474123150110245
 30
0.3567886352539062
  0
VERTEX
  5
590
330
499
100
AcDbEntity
  8
0
100
AcDbVertex
100
AcDb2dVertex
 10
4.171211719512939
 20
0.0252499803900719
 30
0.3567886352539062
  0
VERTEX
  5
591
330
499
100
AcDbEntity
  8
0
100
AcDbVertex
100
AcDb2dVertex
 10
4.603559970855713
 20
0.14499232172966
 30
0.3567886352539062
  0
VERTEX
  5
592
330
499
100
AcDbEntity
  8
0
100
AcDbVertex
100
AcDb2dVertex
 10
5.499284744262695
 20
0.1462628245353699
 30
0.3567886352539062
  0
SEQEND
  5
593
330
499
100
AcDbEntity
  8
0
  0
LWPOLYLINE
  5
5AE
330
1D
100
AcDbEntity
  8
0
  6
BYBLOCK
100
AcDbPolyline
 90
       10
 70
     0
 43
0.0
 10
0.0
 20
0.0
 10
0.5657558441162109
 20
0.0
 10
1.176842212677002
 20
-0.1500785648822784
 10
1.740764498710632
 20
-0.582654595375061
 10
2.255413055419922
 20
-1.05233907699585
 10
3.202700853347778
 20
-0.9198768138885498
 10
3.776424646377563
 20
0.0209350325167179
 10
4.061238288879395
 20
0.2331830710172653
 10
4.602962017059326
 20
0.2350250482559204
 10
5.499284744262695
 20
0.2350250482559204
  0
ENDSEC
  0
SECTION
  2
OBJECTS
  0
DICTIONARY
  5
C
330
0
100
AcDbDictionary
  3
ACAD_GROUP
350
D
  3
ACAD_MLINESTYLE
350
17
  3
ACAD_SCALELIST
350
75
  3
APPDATA
350
BC
  3
DWGPROPS
350
5B0
  0
DICTIONARY
  5
D
102
{ACAD_REACTORS
330
C
102
}
330
C
100
AcDbDictionary
  0
DICTIONARY
  5
17
102
{ACAD_REACTORS
330
C
102
}
330
C
100
AcDbDictionary
  3
STANDARD
350
18
  0
DICTIONARY
  5
75
102
{ACAD_REACTORS
330
C
102
}
330
C
100
AcDbDictionary
  0
DICTIONARY
  5
BC
102
{ACAD_REACTORS
330
C
102
}
330
C
100
AcDbDictionary
  0
XRECORD
  5
5B0
102
{ACAD_REACTORS
330
C
102
}
330
C
100
AcDbXrecord
  1
DWGPROPS COOKIE
  2

  3

  4

  6

  7

  8
mf
  9

300
=
301
=
302
=
303
=
304
=
305
=
306
=
307
=
308
=
309
=
 40
0.0
 41
2458437.90280853
 42
2458437.907795671
  1

 90
        0
  0
MLINESTYLE
  5
18
102
{ACAD_REACTORS
330
17
102
}
330
17
100
AcDbMlineStyle
  2
Standard
 70
     0
  3

 62
   256
 51
90.0
 52
90.0
 71
     2
 49
0.5
 62
   256
  6
BYLAYER
 49
-0.5
 62
   256
  6
BYLAYER
  0
ENDSEC
  0
EOF
