# 3ds Max Wavefront OBJ Exporter v0.97b - (c)2007 guruware
# File Created: 16.10.2018 22:03:11

#
# object Box001
#

v  49.8483 0.0000 0.7814
v  49.8483 0.0000 -9.8699
v  49.8483 0.0000 -20.5213
v  30.2103 0.0000 0.7814
v  30.2103 0.0000 -9.8699
v  30.2103 0.0000 -20.5213
v  10.5723 0.0000 0.7814
v  10.5723 0.0000 -9.8699
v  10.5723 0.0000 -20.5213
v  -9.0656 0.0000 0.7814
v  -9.0656 0.0000 -9.8699
v  -9.0656 0.0000 -20.5213
v  -28.7036 0.0000 0.7814
v  -28.7036 0.0000 -9.8699
v  -28.7036 0.0000 -20.5213
v  -48.3416 0.0000 0.7814
v  -48.3416 0.0000 -9.8699
v  -48.3416 0.0000 -20.5213
v  49.8483 73.1320 0.7814
v  49.8483 73.1320 -9.8699
v  49.8483 73.1320 -20.5213
v  30.2103 73.1320 0.7814
v  30.2103 73.1320 -9.8699
v  30.2103 73.1320 -20.5213
v  10.5723 73.1320 0.7814
v  10.5723 73.1320 -9.8699
v  10.5723 73.1320 -20.5213
v  -9.0656 73.1320 0.7814
v  -9.0656 73.1320 -9.8699
v  -9.0656 73.1320 -20.5213
v  -28.7036 73.1320 0.7814
v  -28.7036 73.1320 -9.8699
v  -28.7036 73.1320 -20.5213
v  -48.3416 73.1320 0.7814
v  -48.3416 73.1320 -9.8699
v  -48.3416 73.1320 -20.5213
v  49.8483 18.2830 0.7814
v  49.8483 18.2830 -9.8699
v  49.8483 18.2830 -20.5213
v  30.2103 18.2830 -20.5213
v  10.5723 18.2830 -20.5213
v  -9.0656 18.2830 -20.5213
v  -28.7036 18.2830 -20.5213
v  -48.3416 18.2830 -20.5213
v  -48.3416 18.2830 -9.8699
v  -48.3416 18.2830 0.7814
v  -28.7036 18.2830 0.7814
v  -9.0657 18.2830 0.7814
v  10.5723 18.2830 0.7814
v  30.2103 18.2830 0.7814
v  49.8483 36.5660 0.7814
v  49.8483 36.5660 -9.8699
v  49.8483 36.5660 -20.5213
v  30.2103 36.5660 -20.5213
v  10.5723 36.5660 -20.5213
v  -9.0656 36.5660 -20.5213
v  -28.7036 36.5660 -20.5213
v  -48.3416 36.5660 -20.5213
v  -48.3416 36.5660 -9.8699
v  -48.3416 36.5660 0.7814
v  -28.7036 36.5660 0.7814
v  -9.0657 36.5660 0.7814
v  10.5723 36.5660 0.7814
v  30.2103 36.5660 0.7814
v  49.8483 54.8490 0.7814
v  49.8483 54.8490 -9.8699
v  49.8483 54.8490 -20.5213
v  30.2103 54.8490 -20.5213
v  10.5723 54.8490 -20.5213
v  -9.0656 54.8490 -20.5213
v  -28.7036 54.8490 -20.5213
v  -48.3416 54.8490 -20.5213
v  -48.3416 54.8490 -9.8699
v  -48.3416 54.8490 0.7814
v  -28.7036 54.8490 0.7814
v  -9.0657 54.8490 0.7814
v  10.5723 54.8490 0.7814
v  30.2103 54.8490 0.7814
v  -9.0656 0.0000 46.4692
v  10.5724 0.0000 46.4692
v  10.5723 18.2830 46.4692
v  10.5723 36.5660 46.4692
v  10.5723 54.8490 46.4692
v  10.5724 73.1320 46.4692
v  -9.0656 73.1320 46.4692
v  -9.0656 54.8490 46.4692
v  -9.0656 36.5660 46.4692
v  -9.0656 18.2830 46.4692
v  -9.0656 0.0000 16.0107
v  -9.0656 0.0000 31.2400
v  10.5724 0.0000 16.0107
v  10.5724 0.0000 31.2400
v  10.5723 18.2830 16.0107
v  10.5723 18.2830 31.2400
v  10.5723 36.5660 16.0107
v  10.5723 36.5660 31.2400
v  10.5723 54.8490 16.0107
v  10.5723 54.8490 31.2400
v  10.5724 73.1320 16.0107
v  10.5724 73.1320 31.2400
v  -9.0656 73.1320 16.0107
v  -9.0656 73.1320 31.2400
v  -9.0656 54.8490 16.0107
v  -9.0656 54.8490 31.2400
v  -9.0656 36.5660 16.0107
v  -9.0656 36.5660 31.2400
v  -9.0656 18.2830 16.0107
v  -9.0656 18.2830 31.2400
# 108 vertices

vn 0.0000 -1.0000 -0.0000
vn 0.0000 -1.0000 -0.0000
vn 0.0000 -1.0000 -0.0000
vn 0.0000 -1.0000 -0.0000
vn 0.0000 -1.0000 -0.0000
vn 0.0000 -1.0000 -0.0000
vn 0.0000 -1.0000 -0.0000
vn 0.0000 -1.0000 -0.0000
vn 0.0000 -1.0000 -0.0000
vn 0.0000 -1.0000 -0.0000
vn 0.0000 -1.0000 -0.0000
vn 0.0000 -1.0000 -0.0000
vn 0.0000 -1.0000 -0.0000
vn 0.0000 -1.0000 -0.0000
vn 0.0000 -1.0000 -0.0000
vn 0.0000 -1.0000 -0.0000
vn 0.0000 -1.0000 -0.0000
vn 0.0000 -1.0000 -0.0000
vn 0.0000 -1.0000 -0.0000
vn 0.0000 -1.0000 -0.0000
vn 0.0000 -1.0000 -0.0000
vn 0.0000 -1.0000 -0.0000
vn 0.0000 -1.0000 -0.0000
vn 0.0000 -1.0000 -0.0000
vn 0.0000 -1.0000 -0.0000
vn 0.0000 -1.0000 -0.0000
vn 0.0000 -1.0000 -0.0000
vn 0.0000 -1.0000 -0.0000
vn 0.0000 -1.0000 -0.0000
vn 0.0000 -1.0000 -0.0000
vn 0.0000 -1.0000 -0.0000
vn 0.0000 -1.0000 -0.0000
vn 0.0000 -1.0000 -0.0000
vn 0.0000 -1.0000 -0.0000
vn 0.0000 -1.0000 -0.0000
vn 0.0000 -1.0000 -0.0000
vn 0.0000 -1.0000 -0.0000
vn 0.0000 -1.0000 -0.0000
vn 0.0000 -1.0000 -0.0000
vn 0.0000 -1.0000 -0.0000
vn 0.0000 1.0000 -0.0000
vn 0.0000 1.0000 -0.0000
vn 0.0000 1.0000 -0.0000
vn 0.0000 1.0000 -0.0000
vn 0.0000 1.0000 -0.0000
vn 0.0000 1.0000 -0.0000
vn 0.0000 1.0000 -0.0000
vn 0.0000 1.0000 -0.0000
vn 0.0000 1.0000 -0.0000
vn 0.0000 1.0000 -0.0000
vn 0.0000 1.0000 -0.0000
vn 0.0000 1.0000 -0.0000
vn 0.0000 1.0000 -0.0000
vn 0.0000 1.0000 -0.0000
vn 0.0000 1.0000 -0.0000
vn 0.0000 1.0000 -0.0000
vn 0.0000 1.0000 -0.0000
vn 0.0000 1.0000 -0.0000
vn 0.0000 1.0000 -0.0000
vn 0.0000 1.0000 -0.0000
vn 0.0000 1.0000 -0.0000
vn 0.0000 1.0000 -0.0000
vn 0.0000 1.0000 -0.0000
vn 0.0000 1.0000 -0.0000
vn 0.0000 1.0000 -0.0000
vn 0.0000 1.0000 -0.0000
vn 0.0000 1.0000 -0.0000
vn 0.0000 1.0000 -0.0000
vn 0.0000 1.0000 -0.0000
vn 0.0000 1.0000 -0.0000
vn 0.0000 1.0000 -0.0000
vn 0.0000 1.0000 -0.0000
vn 0.0000 1.0000 -0.0000
vn 0.0000 1.0000 -0.0000
vn 0.0000 1.0000 -0.0000
vn 0.0000 1.0000 -0.0000
vn 0.0000 1.0000 -0.0000
vn 0.0000 1.0000 -0.0000
vn 0.0000 1.0000 -0.0000
vn 0.0000 1.0000 -0.0000
vn 1.0000 0.0000 -0.0000
vn 1.0000 0.0000 -0.0000
vn 1.0000 0.0000 -0.0000
vn 1.0000 0.0000 -0.0000
vn 1.0000 0.0000 -0.0000
vn 1.0000 0.0000 -0.0000
vn 1.0000 0.0000 -0.0000
vn 1.0000 0.0000 -0.0000
vn 1.0000 0.0000 -0.0000
vn 1.0000 0.0000 -0.0000
vn 1.0000 0.0000 -0.0000
vn 1.0000 0.0000 -0.0000
vn 1.0000 0.0000 -0.0000
vn 1.0000 0.0000 -0.0000
vn 1.0000 0.0000 -0.0000
vn 1.0000 0.0000 -0.0000
vn 1.0000 0.0000 -0.0000
vn 1.0000 0.0000 -0.0000
vn 1.0000 0.0000 -0.0000
vn 1.0000 0.0000 -0.0000
vn 1.0000 0.0000 -0.0000
vn 1.0000 0.0000 -0.0000
vn 1.0000 0.0000 -0.0000
vn 1.0000 0.0000 -0.0000
vn 1.0000 0.0000 -0.0000
vn 1.0000 0.0000 -0.0000
vn 1.0000 0.0000 -0.0000
vn 1.0000 0.0000 -0.0000
vn 1.0000 0.0000 -0.0000
vn 1.0000 0.0000 -0.0000
vn 1.0000 0.0000 -0.0000
vn 1.0000 0.0000 -0.0000
vn -0.0000 0.0000 -1.0000
vn -0.0000 0.0000 -1.0000
vn -0.0000 0.0000 -1.0000
vn -0.0000 0.0000 -1.0000
vn -0.0000 0.0000 -1.0000
vn -0.0000 0.0000 -1.0000
vn -0.0000 0.0000 -1.0000
vn -0.0000 0.0000 -1.0000
vn -0.0000 0.0000 -1.0000
vn -0.0000 0.0000 -1.0000
vn -0.0000 0.0000 -1.0000
vn -0.0000 0.0000 -1.0000
vn -0.0000 0.0000 -1.0000
vn -0.0000 0.0000 -1.0000
vn -0.0000 0.0000 -1.0000
vn -0.0000 0.0000 -1.0000
vn -0.0000 0.0000 -1.0000
vn -0.0000 0.0000 -1.0000
vn -0.0000 0.0000 -1.0000
vn -0.0000 0.0000 -1.0000
vn -0.0000 0.0000 -1.0000
vn -0.0000 0.0000 -1.0000
vn -0.0000 0.0000 -1.0000
vn -0.0000 0.0000 -1.0000
vn -0.0000 0.0000 -1.0000
vn -0.0000 0.0000 -1.0000
vn -0.0000 0.0000 -1.0000
vn -0.0000 0.0000 -1.0000
vn -0.0000 0.0000 -1.0000
vn -0.0000 0.0000 -1.0000
vn -0.0000 0.0000 -1.0000
vn -0.0000 0.0000 -1.0000
vn -0.0000 0.0000 -1.0000
vn -0.0000 0.0000 -1.0000
vn -0.0000 0.0000 -1.0000
vn -0.0000 0.0000 -1.0000
vn -0.0000 0.0000 -1.0000
vn -0.0000 0.0000 -1.0000
vn -0.0000 0.0000 -1.0000
vn -0.0000 0.0000 -1.0000
vn -0.0000 0.0000 -1.0000
vn -0.0000 0.0000 -1.0000
vn -0.0000 0.0000 -1.0000
vn -0.0000 0.0000 -1.0000
vn -0.0000 0.0000 -1.0000
vn -0.0000 0.0000 -1.0000
vn -0.0000 0.0000 -1.0000
vn -0.0000 0.0000 -1.0000
vn -0.0000 0.0000 -1.0000
vn -0.0000 0.0000 -1.0000
vn -0.0000 0.0000 -1.0000
vn -0.0000 0.0000 -1.0000
vn -0.0000 0.0000 -1.0000
vn -0.0000 0.0000 -1.0000
vn -0.0000 0.0000 -1.0000
vn -0.0000 0.0000 -1.0000
vn -0.0000 0.0000 -1.0000
vn -0.0000 0.0000 -1.0000
vn -0.0000 0.0000 -1.0000
vn -0.0000 0.0000 -1.0000
vn -0.0000 0.0000 -1.0000
vn -0.0000 0.0000 -1.0000
vn -0.0000 0.0000 -1.0000
vn -0.0000 0.0000 -1.0000
vn -0.0000 0.0000 -1.0000
vn -0.0000 0.0000 -1.0000
vn -0.0000 0.0000 -1.0000
vn -0.0000 0.0000 -1.0000
vn -0.0000 0.0000 -1.0000
vn -0.0000 0.0000 -1.0000
vn -0.0000 0.0000 -1.0000
vn -0.0000 0.0000 -1.0000
vn -0.0000 0.0000 -1.0000
vn -0.0000 0.0000 -1.0000
vn -0.0000 0.0000 -1.0000
vn -0.0000 0.0000 -1.0000
vn -0.0000 0.0000 -1.0000
vn -0.0000 0.0000 -1.0000
vn -0.0000 0.0000 -1.0000
vn -0.0000 0.0000 -1.0000
vn -1.0000 -0.0000 0.0000
vn -1.0000 -0.0000 0.0000
vn -1.0000 -0.0000 0.0000
vn -1.0000 -0.0000 0.0000
vn -1.0000 -0.0000 0.0000
vn -1.0000 -0.0000 0.0000
vn -1.0000 -0.0000 0.0000
vn -1.0000 -0.0000 0.0000
vn -1.0000 -0.0000 0.0000
vn -1.0000 -0.0000 0.0000
vn -1.0000 0.0000 0.0000
vn -1.0000 0.0000 0.0000
vn -1.0000 -0.0000 0.0000
vn -1.0000 -0.0000 0.0000
vn -1.0000 0.0000 0.0000
vn -1.0000 0.0000 0.0000
vn -1.0000 0.0000 0.0000
vn -1.0000 0.0000 0.0000
vn -1.0000 0.0000 0.0000
vn -1.0000 0.0000 0.0000
vn -1.0000 0.0000 0.0000
vn -1.0000 0.0000 0.0000
vn -1.0000 0.0000 0.0000
vn -1.0000 0.0000 0.0000
vn -1.0000 0.0000 0.0000
vn -1.0000 0.0000 0.0000
vn -1.0000 0.0000 0.0000
vn -1.0000 0.0000 0.0000
vn -1.0000 0.0000 0.0000
vn -1.0000 0.0000 0.0000
vn -1.0000 0.0000 0.0000
vn -1.0000 0.0000 0.0000
vn 0.0000 0.0000 1.0000
vn 0.0000 0.0000 1.0000
vn 0.0000 0.0000 1.0000
vn 0.0000 0.0000 1.0000
vn 0.0000 0.0000 1.0000
vn 0.0000 0.0000 1.0000
vn 0.0000 0.0000 1.0000
vn 0.0000 0.0000 1.0000
vn 0.0000 0.0000 1.0000
vn 0.0000 0.0000 1.0000
vn 0.0000 0.0000 1.0000
vn 0.0000 0.0000 1.0000
vn 0.0000 0.0000 1.0000
vn 0.0000 0.0000 1.0000
vn 0.0000 0.0000 1.0000
vn 0.0000 0.0000 1.0000
vn 0.0000 0.0000 1.0000
vn 0.0000 0.0000 1.0000
vn 0.0000 0.0000 1.0000
vn 0.0000 0.0000 1.0000
vn 0.0000 0.0000 1.0000
vn 0.0000 0.0000 1.0000
vn 0.0000 0.0000 1.0000
vn 0.0000 0.0000 1.0000
vn 0.0000 0.0000 1.0000
vn 0.0000 0.0000 1.0000
vn 0.0000 0.0000 1.0000
vn 0.0000 0.0000 1.0000
vn 0.0000 0.0000 1.0000
vn 0.0000 0.0000 1.0000
vn 0.0000 0.0000 1.0000
vn 0.0000 0.0000 1.0000
vn 0.0000 0.0000 1.0000
vn 0.0000 0.0000 1.0000
vn 0.0000 0.0000 1.0000
vn 0.0000 0.0000 1.0000
vn 0.0000 0.0000 1.0000
vn 0.0000 0.0000 1.0000
vn 0.0000 0.0000 1.0000
vn 0.0000 0.0000 1.0000
vn 0.0000 0.0000 1.0000
vn 0.0000 0.0000 1.0000
vn 0.0000 0.0000 1.0000
vn 0.0000 0.0000 1.0000
vn 0.0000 0.0000 1.0000
vn 0.0000 0.0000 1.0000
vn 0.0000 0.0000 1.0000
vn 0.0000 0.0000 1.0000
vn 0.0000 0.0000 1.0000
vn 0.0000 0.0000 1.0000
vn 0.0000 0.0000 1.0000
vn 0.0000 0.0000 1.0000
vn 0.0000 0.0000 1.0000
vn 0.0000 0.0000 1.0000
vn 0.0000 0.0000 1.0000
vn 0.0000 0.0000 1.0000
vn 0.0000 0.0000 1.0000
vn 0.0000 0.0000 1.0000
vn 0.0000 0.0000 1.0000
vn 0.0000 0.0000 1.0000
vn 0.0000 0.0000 1.0000
vn 0.0000 0.0000 1.0000
vn 0.0000 0.0000 1.0000
vn 0.0000 0.0000 1.0000
vn 0.0000 0.0000 1.0000
vn 0.0000 0.0000 1.0000
vn 0.0000 0.0000 1.0000
vn 0.0000 0.0000 1.0000
vn 0.0000 0.0000 1.0000
vn 0.0000 0.0000 1.0000
vn 0.0000 0.0000 1.0000
vn 0.0000 0.0000 1.0000
vn 0.0000 0.0000 1.0000
vn 0.0000 0.0000 1.0000
vn 0.0000 0.0000 1.0000
vn 0.0000 0.0000 1.0000
vn 0.0000 0.0000 1.0000
vn 0.0000 0.0000 1.0000
vn 0.0000 0.0000 1.0000
vn 0.0000 0.0000 1.0000
vn 0.0000 -1.0000 -0.0000
vn 0.0000 -1.0000 -0.0000
vn 0.0000 -1.0000 -0.0000
vn 0.0000 -1.0000 -0.0000
vn 1.0000 0.0000 -0.0000
vn 1.0000 0.0000 -0.0000
vn 1.0000 0.0000 -0.0000
vn 1.0000 0.0000 -0.0000
vn 1.0000 0.0000 -0.0000
vn 1.0000 0.0000 -0.0000
vn 1.0000 0.0000 -0.0000
vn 1.0000 0.0000 -0.0000
vn 1.0000 0.0000 -0.0000
vn 1.0000 0.0000 -0.0000
vn 1.0000 0.0000 -0.0000
vn 1.0000 0.0000 -0.0000
vn 1.0000 -0.0000 -0.0000
vn 1.0000 -0.0000 -0.0000
vn 1.0000 -0.0000 -0.0000
vn 1.0000 -0.0000 -0.0000
vn 0.0000 1.0000 -0.0000
vn 0.0000 1.0000 -0.0000
vn 0.0000 1.0000 -0.0000
vn 0.0000 1.0000 -0.0000
vn -1.0000 0.0000 0.0000
vn -1.0000 0.0000 0.0000
vn -1.0000 0.0000 0.0000
vn -1.0000 0.0000 0.0000
vn -1.0000 0.0000 0.0000
vn -1.0000 0.0000 0.0000
vn -1.0000 0.0000 0.0000
vn -1.0000 0.0000 0.0000
vn -1.0000 0.0000 0.0000
vn -1.0000 0.0000 0.0000
vn -1.0000 0.0000 0.0000
vn -1.0000 0.0000 0.0000
vn -1.0000 -0.0000 0.0000
vn -1.0000 -0.0000 0.0000
vn -1.0000 -0.0000 0.0000
vn -1.0000 -0.0000 0.0000
vn 0.0000 -1.0000 -0.0000
vn 0.0000 -1.0000 -0.0000
vn 0.0000 -1.0000 -0.0000
vn 0.0000 -1.0000 -0.0000
vn 0.0000 -1.0000 -0.0000
vn 0.0000 -1.0000 -0.0000
vn 0.0000 -1.0000 -0.0000
vn 0.0000 -1.0000 -0.0000
vn 1.0000 0.0000 -0.0000
vn 1.0000 0.0000 -0.0000
vn 1.0000 0.0000 -0.0000
vn 1.0000 0.0000 -0.0000
vn 1.0000 0.0000 -0.0000
vn 1.0000 0.0000 -0.0000
vn 1.0000 0.0000 -0.0000
vn 1.0000 0.0000 -0.0000
vn 1.0000 0.0000 -0.0000
vn 1.0000 0.0000 -0.0000
vn 1.0000 0.0000 -0.0000
vn 1.0000 0.0000 -0.0000
vn 1.0000 0.0000 -0.0000
vn 1.0000 0.0000 -0.0000
vn 1.0000 0.0000 -0.0000
vn 1.0000 0.0000 -0.0000
vn 1.0000 0.0000 -0.0000
vn 1.0000 0.0000 -0.0000
vn 1.0000 0.0000 -0.0000
vn 1.0000 0.0000 -0.0000
vn 1.0000 0.0000 -0.0000
vn 1.0000 0.0000 -0.0000
vn 1.0000 0.0000 -0.0000
vn 1.0000 0.0000 -0.0000
vn 1.0000 -0.0000 -0.0000
vn 1.0000 -0.0000 -0.0000
vn 1.0000 -0.0000 -0.0000
vn 1.0000 -0.0000 -0.0000
vn 1.0000 -0.0000 -0.0000
vn 1.0000 -0.0000 -0.0000
vn 1.0000 -0.0000 -0.0000
vn 1.0000 -0.0000 -0.0000
vn 0.0000 1.0000 -0.0000
vn 0.0000 1.0000 -0.0000
vn 0.0000 1.0000 -0.0000
vn 0.0000 1.0000 -0.0000
vn 0.0000 1.0000 -0.0000
vn 0.0000 1.0000 -0.0000
vn 0.0000 1.0000 -0.0000
vn 0.0000 1.0000 -0.0000
vn -1.0000 0.0000 0.0000
vn -1.0000 0.0000 0.0000
vn -1.0000 0.0000 0.0000
vn -1.0000 0.0000 0.0000
vn -1.0000 0.0000 0.0000
vn -1.0000 0.0000 0.0000
vn -1.0000 0.0000 0.0000
vn -1.0000 0.0000 0.0000
vn -1.0000 0.0000 0.0000
vn -1.0000 0.0000 0.0000
vn -1.0000 0.0000 0.0000
vn -1.0000 0.0000 0.0000
vn -1.0000 0.0000 0.0000
vn -1.0000 0.0000 0.0000
vn -1.0000 0.0000 0.0000
vn -1.0000 0.0000 0.0000
vn -1.0000 0.0000 0.0000
vn -1.0000 0.0000 0.0000
vn -1.0000 0.0000 0.0000
vn -1.0000 0.0000 0.0000
vn -1.0000 0.0000 0.0000
vn -1.0000 0.0000 0.0000
vn -1.0000 0.0000 0.0000
vn -1.0000 0.0000 0.0000
vn -1.0000 -0.0000 0.0000
vn -1.0000 -0.0000 0.0000
vn -1.0000 -0.0000 0.0000
vn -1.0000 -0.0000 0.0000
vn -1.0000 -0.0000 0.0000
vn -1.0000 -0.0000 0.0000
vn -1.0000 -0.0000 0.0000
vn -1.0000 -0.0000 0.0000
# 424 vertex normals

g Box001
f 1//1 4//2 5//3 2//4 
f 2//5 5//6 6//7 3//8 
f 4//9 7//10 8//11 5//12 
f 5//13 8//14 9//15 6//16 
f 7//17 10//18 11//19 8//20 
f 8//21 11//22 12//23 9//24 
f 10//25 13//26 14//27 11//28 
f 11//29 14//30 15//31 12//32 
f 13//33 16//34 17//35 14//36 
f 14//37 17//38 18//39 15//40 
f 19//41 20//42 23//43 22//44 
f 20//45 21//46 24//47 23//48 
f 22//49 23//50 26//51 25//52 
f 23//53 24//54 27//55 26//56 
f 25//57 26//58 29//59 28//60 
f 26//61 27//62 30//63 29//64 
f 28//65 29//66 32//67 31//68 
f 29//69 30//70 33//71 32//72 
f 31//73 32//74 35//75 34//76 
f 32//77 33//78 36//79 35//80 
f 1//81 2//82 38//83 37//84 
f 2//85 3//86 39//87 38//88 
f 37//89 38//90 52//91 51//92 
f 38//93 39//94 53//95 52//96 
f 51//97 52//98 66//99 65//100 
f 52//101 53//102 67//103 66//104 
f 65//105 66//106 20//107 19//108 
f 66//109 67//110 21//111 20//112 
f 3//113 6//114 40//115 39//116 
f 6//117 9//118 41//119 40//120 
f 9//121 12//122 42//123 41//124 
f 12//125 15//126 43//127 42//128 
f 15//129 18//130 44//131 43//132 
f 39//133 40//134 54//135 53//136 
f 40//137 41//138 55//139 54//140 
f 41//141 42//142 56//143 55//144 
f 42//145 43//146 57//147 56//148 
f 43//149 44//150 58//151 57//152 
f 53//153 54//154 68//155 67//156 
f 54//157 55//158 69//159 68//160 
f 55//161 56//162 70//163 69//164 
f 56//165 57//166 71//167 70//168 
f 57//169 58//170 72//171 71//172 
f 67//173 68//174 24//175 21//176 
f 68//177 69//178 27//179 24//180 
f 69//181 70//182 30//183 27//184 
f 70//185 71//186 33//187 30//188 
f 71//189 72//190 36//191 33//192 
f 18//193 17//194 45//195 44//196 
f 17//197 16//198 46//199 45//200 
f 44//201 45//202 59//203 58//204 
f 45//205 46//206 60//207 59//208 
f 58//209 59//210 73//211 72//212 
f 59//213 60//214 74//215 73//216 
f 72//217 73//218 35//219 36//220 
f 73//221 74//222 34//223 35//224 
f 16//225 13//226 47//227 46//228 
f 13//229 10//230 48//231 47//232 
f 79//233 80//234 81//235 88//236 
f 7//237 4//238 50//239 49//240 
f 4//241 1//242 37//243 50//244 
f 46//245 47//246 61//247 60//248 
f 47//249 48//250 62//251 61//252 
f 88//253 81//254 82//255 87//256 
f 49//257 50//258 64//259 63//260 
f 50//261 37//262 51//263 64//264 
f 60//265 61//266 75//267 74//268 
f 61//269 62//270 76//271 75//272 
f 87//273 82//274 83//275 86//276 
f 63//277 64//278 78//279 77//280 
f 64//281 51//282 65//283 78//284 
f 74//285 75//286 31//287 34//288 
f 75//289 76//290 28//291 31//292 
f 86//293 83//294 84//295 85//296 
f 77//297 78//298 22//299 25//300 
f 78//301 65//302 19//303 22//304 
f 92//305 90//306 89//307 91//308 
f 94//309 92//310 91//311 93//312 
f 96//313 94//314 93//315 95//316 
f 98//317 96//318 95//319 97//320 
f 100//321 98//322 97//323 99//324 
f 102//325 100//326 99//327 101//328 
f 104//329 102//330 101//331 103//332 
f 106//333 104//334 103//335 105//336 
f 108//337 106//338 105//339 107//340 
f 90//341 108//342 107//343 89//344 
f 80//345 79//346 90//347 92//348 
f 10//349 7//350 91//351 89//352 
f 81//353 80//354 92//355 94//356 
f 7//357 49//358 93//359 91//360 
f 82//361 81//362 94//363 96//364 
f 49//365 63//366 95//367 93//368 
f 83//369 82//370 96//371 98//372 
f 63//373 77//374 97//375 95//376 
f 84//377 83//378 98//379 100//380 
f 77//381 25//382 99//383 97//384 
f 85//385 84//386 100//387 102//388 
f 25//389 28//390 101//391 99//392 
f 86//393 85//394 102//395 104//396 
f 28//397 76//398 103//399 101//400 
f 87//401 86//402 104//403 106//404 
f 76//405 62//406 105//407 103//408 
f 88//409 87//410 106//411 108//412 
f 62//413 48//414 107//415 105//416 
f 79//417 88//418 108//419 90//420 
f 48//421 10//422 89//423 107//424 
# 106 polygons

