# Blender v2.79 (sub 0) OBJ File: ''
# www.blender.org
mtllib 1untitled.mtl
o Plane
v 0.391300 0.880442 -0.152879
v 2.387311 0.880442 -0.152879
v 0.391300 0.880442 -1.370349
v 2.387311 0.880442 -1.370349
v 0.391300 5.161954 -1.370349
v 0.391300 5.161954 -0.152879
v 2.387311 5.161954 -0.152879
v 2.387311 5.161954 -1.370349
v 1.389305 0.880442 -0.152879
v 1.389305 0.880442 -1.370349
v 1.389305 5.161954 -0.152879
v 1.389305 5.161954 -1.370349
v 1.389305 0.880442 -2.433912
v 0.391300 0.880442 -2.433912
v 1.389305 5.161954 -2.433912
v 0.391300 5.161954 -2.433912
v 2.387311 4.139269 -1.370349
v 2.387311 4.139269 -0.152879
v 0.391300 4.139269 -0.152879
v 0.391300 4.139269 -1.370349
v 1.389305 4.139269 -0.152879
v 1.389305 4.139269 -1.370349
v 0.391300 4.139269 -2.433912
v 1.389305 4.139269 -2.433912
v 4.525558 5.161954 -0.152879
v 4.525558 5.161954 -1.370349
v 4.525558 4.139269 -1.370349
v 4.525558 4.139269 -0.152879
v 3.456435 4.139269 -1.370349
v 3.456435 4.139269 -0.152879
v 3.456435 5.161954 -1.370349
v 3.456435 5.161954 -0.152879
v 4.525558 0.884461 -1.370349
v 4.525558 0.884461 -0.152879
v 3.456435 0.884461 -1.370349
v 3.456435 0.884461 -0.152879
v 2.387311 2.292601 -0.152879
v 0.391300 2.292601 -1.370349
v 0.391300 2.292601 -2.433912
v 2.387311 2.292601 -1.370349
v 0.391300 2.292601 -0.152879
v 1.389305 2.292601 -0.152879
v 1.389305 2.292601 -1.370349
v 1.389305 2.292601 -2.433912
v 1.389305 0.880442 -3.702020
v 0.391300 0.880442 -3.702020
v 1.389305 5.161954 -3.702020
v 0.391300 5.161954 -3.702020
v 0.391300 2.292601 -3.702020
v 1.389305 4.139269 -3.702020
v 0.391300 4.139269 -3.702020
v 1.389305 2.292601 -3.702020
v 1.389305 5.161954 -4.843431
v 0.391300 5.161954 -4.843431
v 1.389305 4.139269 -4.843431
v 0.391300 4.139269 -4.843431
v 0.391300 4.139269 -3.702020
v 1.389305 4.139269 -3.702020
v 0.391300 4.139269 -4.843431
v 1.389305 4.139269 -4.843431
v 0.391300 0.894193 -3.702020
v 1.389305 0.894193 -3.702020
v 0.391300 0.894193 -4.843431
v 1.389305 0.894193 -4.843431
vn 0.0000 -1.0000 0.0000
vn 0.0000 1.0000 0.0000
vn 0.0000 0.0000 -1.0000
vn -1.0000 0.0000 0.0000
vn 1.0000 0.0000 0.0000
vn 0.0000 0.0000 1.0000
usemtl None
s off
f 9//1 10//1 4//1 2//1
f 11//2 7//2 8//2 12//2
f 29//3 27//3 33//3 35//3
f 20//4 19//4 6//4 5//4
f 43//5 10//5 13//5 44//5
f 21//6 18//6 7//6 11//6
f 19//6 21//6 11//6 6//6
f 17//3 22//3 12//3 8//3
f 6//2 11//2 12//2 5//2
f 1//1 3//1 10//1 9//1
f 15//5 24//5 50//5 47//5
f 20//4 5//4 16//4 23//4
f 5//2 12//2 15//2 16//2
f 10//1 3//1 14//1 13//1
f 38//4 20//4 23//4 39//4
f 44//3 39//3 23//3 24//3
f 40//3 43//3 22//3 17//3
f 41//6 42//6 21//6 19//6
f 42//6 37//6 18//6 21//6
f 12//5 22//5 24//5 15//5
f 38//4 41//4 19//4 20//4
f 37//5 40//5 17//5 18//5
f 28//5 27//5 26//5 25//5
f 29//3 31//3 26//3 27//3
f 31//2 32//2 25//2 26//2
f 32//6 30//6 28//6 25//6
f 7//6 18//6 30//6 32//6
f 8//2 7//2 32//2 31//2
f 17//3 8//3 31//3 29//3
f 18//1 17//1 29//1 30//1
f 36//1 35//1 33//1 34//1
f 30//4 29//4 35//4 36//4
f 28//6 30//6 36//6 34//6
f 27//5 28//5 34//5 33//5
f 2//5 4//5 40//5 37//5
f 3//4 1//4 41//4 38//4
f 9//6 2//6 37//6 42//6
f 1//6 9//6 42//6 41//6
f 4//3 10//3 43//3 40//3
f 23//4 16//4 48//4 51//4
f 3//4 38//4 39//4 14//4
f 22//5 43//5 44//5 24//5
f 50//6 51//6 57//6 58//6
f 45//3 46//3 49//3 52//3
f 16//2 15//2 47//2 48//2
f 39//2 44//2 52//2 49//2
f 24//1 23//1 51//1 50//1
f 14//4 39//4 49//4 46//4
f 44//5 13//5 45//5 52//5
f 13//1 14//1 46//1 45//1
f 55//3 56//3 54//3 53//3
f 47//5 50//5 55//5 53//5
f 48//2 47//2 53//2 54//2
f 51//4 48//4 54//4 56//4
f 60//5 58//5 62//5 64//5
f 55//6 50//6 58//6 60//6
f 56//6 55//6 60//6 59//6
f 51//6 56//6 59//6 57//6
f 62//1 61//1 63//1 64//1
f 59//3 60//3 64//3 63//3
f 57//4 59//4 63//4 61//4
f 58//6 57//6 61//6 62//6
